<svg xmlns="http://www.w3.org/2000/svg" xmlns:xlink="http://www.w3.org/1999/xlink" width="108" height="108" viewBox="0 0 108 108">
  <defs>
    <filter id="Trazado_904820" x="0" y="0" width="108" height="108" filterUnits="userSpaceOnUse">
      <feOffset dy="3" input="SourceAlpha"/>
      <feGaussianBlur stdDeviation="3" result="blur"/>
      <feFlood flood-opacity="0.161"/>
      <feComposite operator="in" in2="blur"/>
      <feComposite in="SourceGraphic"/>
    </filter>
  </defs>
  <g id="Grupo_1231837" data-name="Grupo 1231837" transform="translate(-196 -2818)">
    <g id="Grupo_1230507" data-name="Grupo 1230507" transform="translate(1 2007)">
      <g id="Grupo_1228101" data-name="Grupo 1228101" transform="translate(204 817)">
        <g id="Grupo_1227366" data-name="Grupo 1227366">
          <g id="Grupo_1224979" data-name="Grupo 1224979">
            <g id="Grupo_1173585" data-name="Grupo 1173585" transform="translate(0 0)">
              <g id="Grupo_1173428" data-name="Grupo 1173428">
                <g id="Grupo_1171958" data-name="Grupo 1171958">
                  <g id="Grupo_1167341" data-name="Grupo 1167341">
                    <g id="Grupo_1166792" data-name="Grupo 1166792">
                      <g transform="matrix(1, 0, 0, 1, -9, -6)" filter="url(#Trazado_904820)">
                        <g id="Trazado_904820-2" data-name="Trazado 904820" transform="translate(9 6)" fill="#e5ebfb">
                          <path d="M 44.99999618530273 88.50003051757812 C 39.12687301635742 88.50003051757812 33.43022155761719 87.35010528564453 28.06829643249512 85.08219146728516 C 22.88852119445801 82.89134216308594 18.23629570007324 79.75461578369141 14.24084663391113 75.75916290283203 C 10.24540901184082 71.76371765136719 7.108683586120605 67.11148834228516 4.917821407318115 61.93171691894531 C 2.649921178817749 56.56978988647461 1.499996185302734 50.87313842773438 1.499996185302734 45.00001525878906 C 1.499996185302734 39.12689208984375 2.649921178817749 33.43024063110352 4.917821407318115 28.06830215454102 C 7.108683586120605 22.88852691650391 10.24540901184082 18.23631477355957 14.24084663391113 14.24086570739746 C 18.23629570007324 10.24541568756104 22.88852119445801 7.10869026184082 28.06829643249512 4.917827606201172 C 33.43022155761719 2.649927854537964 39.12687301635742 1.50000274181366 44.99999618530273 1.50000274181366 C 50.87311935424805 1.50000274181366 56.56977081298828 2.649927854537964 61.93169784545898 4.917827606201172 C 67.11147308349609 7.10869026184082 71.76369476318359 10.24541568756104 75.75914764404297 14.24086570739746 C 79.75458526611328 18.23631477355957 82.89131164550781 22.88852691650391 85.08216857910156 28.06830215454102 C 87.35007476806641 33.43024063110352 88.5 39.12689208984375 88.5 45.00001525878906 C 88.5 50.87313842773438 87.35007476806641 56.56978988647461 85.08216857910156 61.93171691894531 C 82.89131164550781 67.11148834228516 79.75458526611328 71.76371765136719 75.75914764404297 75.75916290283203 C 71.76369476318359 79.75461578369141 67.11147308349609 82.89134216308594 61.93169784545898 85.08219146728516 C 56.56977081298828 87.35010528564453 50.87311935424805 88.50003051757812 44.99999618530273 88.50003051757812 Z" stroke="none"/>
                          <path d="M 44.99999618530273 3 C 39.32870864868164 3 33.82865142822266 4.110061645507812 28.65262603759766 6.299346923828125 C 23.65165710449219 8.414573669433594 19.15968322753906 11.44334411621094 15.301513671875 15.301513671875 C 11.44333648681641 19.15968322753906 8.414566040039062 23.65165710449219 6.299339294433594 28.65262985229492 C 4.110054016113281 33.82867050170898 2.999992370605469 39.32872772216797 2.999992370605469 45.00001525878906 C 2.999992370605469 50.67130279541016 4.110054016113281 56.17136001586914 6.299339294433594 61.34738922119141 C 8.414566040039062 66.34837341308594 11.44333648681641 70.84033203125 15.301513671875 74.69850158691406 C 19.15968322753906 78.55668640136719 23.65165710449219 81.58545684814453 28.65262603759766 83.70068359375 C 33.82865142822266 85.88996887207031 39.32870864868164 87.00003051757812 44.99999618530273 87.00003051757812 C 50.67128372192383 87.00003051757812 56.17134094238281 85.88996887207031 61.34736633300781 83.70068359375 C 66.34834289550781 81.58545684814453 70.84030914306641 78.55668640136719 74.69847869873047 74.69850158691406 C 78.55665588378906 70.84033203125 81.58542633056641 66.34837341308594 83.70065307617188 61.34738922119141 C 85.88993835449219 56.17136001586914 87 50.67130279541016 87 45.00001525878906 C 87 39.32872772216797 85.88993835449219 33.82867050170898 83.70065307617188 28.65262985229492 C 81.58542633056641 23.65165710449219 78.55665588378906 19.15968322753906 74.69847869873047 15.301513671875 C 70.84030914306641 11.44334411621094 66.34834289550781 8.414573669433594 61.34736633300781 6.299346923828125 C 56.17134094238281 4.110061645507812 50.67128372192383 3 44.99999618530273 3 M 44.99999618530273 0 C 69.85281372070312 0 90 20.14718627929688 90 45.00001525878906 C 90 69.85282897949219 69.85281372070312 90.00003051757812 44.99999618530273 90.00003051757812 C 20.14717864990234 90.00003051757812 -7.62939453125e-06 69.85282897949219 -7.62939453125e-06 45.00001525878906 C -7.62939453125e-06 20.14718627929688 20.14717864990234 0 44.99999618530273 0 Z" stroke="none" fill="#0b47db"/>
                        </g>
                      </g>
                    </g>
                  </g>
                </g>
              </g>
            </g>
          </g>
        </g>
      </g>
    </g>
    <g id="proceso-de-trabajo_1_" data-name="proceso-de-trabajo (1)" transform="translate(217.941 2836.941)">
      <g id="Grupo_1231835" data-name="Grupo 1231835" transform="translate(1.002 1.002)">
        <path id="Trazado_1220233" data-name="Trazado 1220233" d="M58.494,10.567h0A28.493,28.493,0,0,0,30.148,36.183l7.521-.352A21.111,21.111,0,0,1,58.494,17.987L58.461,18v2.88L65.732,15,58.461,8v2.579" transform="translate(-27.374 -8)" fill="#ffe27a"/>
        <path id="Trazado_1220234" data-name="Trazado 1220234" d="M109.209,74.894l5.477-4.425a21.083,21.083,0,0,0-26.525,19.39l.256-.012A21.111,21.111,0,0,1,109.242,72l-.034.012Z" transform="translate(-78.122 -62.015)" fill="#f9cf58"/>
        <path id="Trazado_1220235" data-name="Trazado 1220235" d="M171.154,155.835l-2.383-.358a11.117,11.117,0,0,0-1.752-4.228l1.432-1.939a.853.853,0,0,0-.083-1.109l-1.233-1.233a.853.853,0,0,0-1.109-.083l-1.939,1.432a11.116,11.116,0,0,0-4.228-1.752l-.358-2.383a.852.852,0,0,0-.843-.726h-1.744a.852.852,0,0,0-.843.726l-.358,2.383a11.115,11.115,0,0,0-4.228,1.752l-1.939-1.432a.852.852,0,0,0-1.109.083L147.2,148.2a.853.853,0,0,0-.083,1.109l1.432,1.939a11.116,11.116,0,0,0-1.752,4.228l-2.383.358a.852.852,0,0,0-.726.843v1.744a.853.853,0,0,0,.726.843l2.383.358a11.117,11.117,0,0,0,1.752,4.228l-1.432,1.939a.853.853,0,0,0,.083,1.109l1.233,1.233a.852.852,0,0,0,1.109.083l1.939-1.432a11.116,11.116,0,0,0,4.228,1.752l.358,2.382a.853.853,0,0,0,.843.726h1.744a.852.852,0,0,0,.843-.726l.358-2.382a11.116,11.116,0,0,0,4.228-1.752l1.939,1.432a.852.852,0,0,0,1.109-.083l1.233-1.233a.853.853,0,0,0,.083-1.109l-1.432-1.939a11.117,11.117,0,0,0,1.752-4.228l2.383-.358a.853.853,0,0,0,.726-.843v-1.744A.852.852,0,0,0,171.154,155.835Zm-13.368,7.356a5.641,5.641,0,1,1,5.641-5.641A5.641,5.641,0,0,1,157.785,163.191Z" transform="translate(-126.699 -126.493)" fill="#ff4755"/>
        <path id="Trazado_1220236" data-name="Trazado 1220236" d="M10.6,204.972c0,.01,0,.019,0,.029a28.493,28.493,0,0,0,25.617,28.346l-.442-7.536A21.075,21.075,0,0,1,18.016,205c0-.01,0-.019,0-.029h2.862L15,197.7l-7,7.272h2.579" transform="translate(-8 -173.944)" fill="#8bcaff"/>
        <path id="Trazado_1220237" data-name="Trazado 1220237" d="M204.972,296.683h.058a21.075,21.075,0,0,0,20.809-17.75l7.543-.513A28.493,28.493,0,0,1,205.03,304.1h-.058v2.568l-7.272-7,7.272-5.875v2.88Z" transform="translate(-173.944 -244.556)" fill="#98db7c"/>
        <path id="Trazado_1220238" data-name="Trazado 1220238" d="M222.467,266.127a5.664,5.664,0,0,0-.113-1.127,5.642,5.642,0,0,1-11.057,0,5.642,5.642,0,1,0,11.17,1.127Z" transform="translate(-185.74 -232.816)" fill="#fc2b3a"/>
        <path id="Trazado_1220239" data-name="Trazado 1220239" d="M216.787,301.85a28.62,28.62,0,0,1-5.647-.561l5.589,5.382V304.1h.058a28.493,28.493,0,0,0,28.352-25.682l-.388.4A28.5,28.5,0,0,1,216.787,301.85Z" transform="translate(-185.701 -244.557)" fill="#82d361"/>
        <path id="Trazado_1220240" data-name="Trazado 1220240" d="M51.576,281.472a28.5,28.5,0,0,1-22.756-25.7h-.087c0,.01,0,.019,0,.029A28.493,28.493,0,0,0,54.35,284.143Z" transform="translate(-26.137 -224.74)" fill="#6cc4ff"/>
        <path id="Trazado_1220241" data-name="Trazado 1220241" d="M304.344,57.983c0-.01,0-.019,0-.029A28.493,28.493,0,0,0,278.664,29.6l4.463,4.3-4.005,3.236a21.075,21.075,0,0,1,17.8,20.818c0,.01,0,.019,0,.029H294l5.875,7.272,7-7.272Z" transform="translate(-244.769 -26.897)" fill="#ffba57"/>
        <g id="Grupo_1231834" data-name="Grupo 1231834" transform="translate(34.353 8.453)">
          <path id="Trazado_1220242" data-name="Trazado 1220242" d="M284.526,75.5l-2.21,1.786a21.077,21.077,0,0,1,17.773,19.7q.03-.563.03-1.133A21.078,21.078,0,0,0,284.526,75.5Z" transform="translate(-282.316 -75.501)" fill="#ffac3e"/>
        </g>
      </g>
      <g id="Grupo_1231836" data-name="Grupo 1231836" transform="translate(0 0)">
        <path id="Trazado_1220243" data-name="Trazado 1220243" d="M210.165,203.347a6.6,6.6,0,0,0-6.194,8.859.941.941,0,1,0,1.768-.647,4.712,4.712,0,1,1,2,2.42.941.941,0,0,0-.971,1.612,6.594,6.594,0,1,0,3.4-12.245Z" transform="translate(-178.078 -177.882)"/>
        <path id="Trazado_1220244" data-name="Trazado 1220244" d="M164.54,148.127l-1.745-.262A11.989,11.989,0,0,0,161.4,144.5l1.049-1.42a1.785,1.785,0,0,0-.175-2.336l-1.236-1.236a1.785,1.785,0,0,0-2.336-.175l-1.42,1.049a11.983,11.983,0,0,0-3.366-1.4l-.262-1.745a1.785,1.785,0,0,0-1.775-1.528h-1.747a1.785,1.785,0,0,0-1.775,1.528l-.262,1.745a11.984,11.984,0,0,0-3.366,1.4l-1.42-1.049a1.785,1.785,0,0,0-2.336.175l-1.235,1.236a1.784,1.784,0,0,0-.175,2.336l1.049,1.42a11.976,11.976,0,0,0-1.395,3.366l-1.745.262a1.784,1.784,0,0,0-1.529,1.775v1.747a1.784,1.784,0,0,0,1.528,1.775l1.745.262a11.985,11.985,0,0,0,1.395,3.366l-1.049,1.42a1.784,1.784,0,0,0,.174,2.336l1.236,1.236a1.785,1.785,0,0,0,2.336.174l1.42-1.049a11.983,11.983,0,0,0,3.366,1.4l.262,1.745a1.785,1.785,0,0,0,1.775,1.528h1.747a1.785,1.785,0,0,0,1.775-1.528l.262-1.745a11.983,11.983,0,0,0,3.366-1.4l1.42,1.049a1.785,1.785,0,0,0,2.336-.175l1.236-1.236a1.785,1.785,0,0,0,.174-2.336l-1.049-1.42a11.98,11.98,0,0,0,1.395-3.366l1.745-.262a1.784,1.784,0,0,0,1.529-1.775V149.9a1.784,1.784,0,0,0-1.528-1.775Zm-.354,3.448-2.313.348a.941.941,0,0,0-.785.757,10.146,10.146,0,0,1-1.608,3.879.941.941,0,0,0,.02,1.09l1.39,1.882-1.13,1.13-1.882-1.39a.942.942,0,0,0-1.09-.02,10.146,10.146,0,0,1-3.879,1.608.941.941,0,0,0-.757.785l-.348,2.313h-1.6l-.348-2.313a.941.941,0,0,0-.757-.785,10.146,10.146,0,0,1-3.879-1.608.94.94,0,0,0-1.09.02l-1.882,1.39-1.13-1.13,1.39-1.882a.941.941,0,0,0,.02-1.09,10.144,10.144,0,0,1-1.607-3.879.941.941,0,0,0-.785-.757l-2.313-.348v-1.6l2.313-.348a.941.941,0,0,0,.785-.757,10.145,10.145,0,0,1,1.607-3.879.941.941,0,0,0-.02-1.09l-1.39-1.882,1.13-1.13,1.882,1.39a.941.941,0,0,0,1.09.02,10.149,10.149,0,0,1,3.879-1.608.941.941,0,0,0,.757-.785l.348-2.313h1.6l.348,2.313a.941.941,0,0,0,.757.785,10.144,10.144,0,0,1,3.879,1.608.941.941,0,0,0,1.09-.02l1.882-1.39,1.13,1.13L159.5,143.9a.941.941,0,0,0-.02,1.09,10.146,10.146,0,0,1,1.608,3.879.941.941,0,0,0,.785.757l2.313.348Z" transform="translate(-118.919 -118.718)"/>
        <path id="Trazado_1220245" data-name="Trazado 1220245" d="M64.043,31.72a.941.941,0,0,0-.866-.573H61.56a29.488,29.488,0,0,0-26.237-28.4L32.739.261a.947.947,0,0,0-1.594.678V2.585A29.278,29.278,0,0,0,15.114,7.942.941.941,0,1,0,16.2,9.481,27.426,27.426,0,0,1,32.087,4.452a.941.941,0,0,0,.941-.941v-.36l4.924,4.742-4.925,3.979v-.927A.941.941,0,0,0,32.087,10,22.06,22.06,0,0,0,10.7,26.648l-2.017-2.5a.947.947,0,0,0-1.41-.061l-2.21,2.3a27.571,27.571,0,0,1,8.3-14.616.941.941,0,1,0-1.277-1.383,29.429,29.429,0,0,0-9.306,18.37L.261,31.377a.947.947,0,0,0,.678,1.594H2.613A29.489,29.489,0,0,0,28.786,61.362l2.59,2.495a.947.947,0,0,0,1.594-.678V61.535a29.261,29.261,0,0,0,16.29-5.5.941.941,0,0,0-1.1-1.529,27.414,27.414,0,0,1-16.087,5.161h-.047a.941.941,0,0,0-.941.941v.36l-4.924-4.742,4.924-3.979v.926a.941.941,0,0,0,.935.941h.064A22.06,22.06,0,0,0,53.455,37.524l1.973,2.442a.947.947,0,0,0,1.41.061l2.283-2.371a27.587,27.587,0,0,1-8.143,14.532.941.941,0,1,0,1.288,1.372A29.447,29.447,0,0,0,61.4,35.294l2.459-2.553a.94.94,0,0,0,.188-1.021ZM24.151,55.43a.947.947,0,0,0-.061,1.41l2.326,2.24A27.614,27.614,0,0,1,4.481,32.062V32.03a.941.941,0,0,0-.941-.941H3.151l4.742-4.925,3.979,4.925h-.9a.938.938,0,0,0-.941.938v.032a22.061,22.061,0,0,0,16.594,21.37Zm21.1-8.084A20.161,20.161,0,0,1,32.97,52.211V50.274a.948.948,0,0,0-1.533-.732L28.5,51.912A20.177,20.177,0,0,1,11.936,32.971h1.907a.948.948,0,0,0,.732-1.533l-2.351-2.909a20.177,20.177,0,0,1,18.921-16.62v1.934a.948.948,0,0,0,1.533.732L35.622,12.2a20.177,20.177,0,0,1,16.615,18.95H50.273a.948.948,0,0,0-.732,1.533l2.4,2.968a20.182,20.182,0,0,1-6.691,11.7Zm10.975-9.392-3.979-4.925H53.2a.938.938,0,0,0,.941-.938v-.032A22.061,22.061,0,0,0,37.5,10.677l2.462-1.989a.947.947,0,0,0,.061-1.41L37.685,5.024A27.613,27.613,0,0,1,59.692,32.056v.032a.941.941,0,0,0,.941.941h.331Z" transform="translate(0 0)"/>
      </g>
    </g>
  </g>
</svg>
