<svg xmlns="http://www.w3.org/2000/svg" xmlns:xlink="http://www.w3.org/1999/xlink" width="113" height="113" viewBox="0 0 113 113">
  <defs>
    <filter id="Trazado_982547" x="0" y="0" width="113" height="113" filterUnits="userSpaceOnUse">
      <feOffset dy="3" input="SourceAlpha"/>
      <feGaussianBlur stdDeviation="3" result="blur"/>
      <feFlood flood-opacity="0.161"/>
      <feComposite operator="in" in2="blur"/>
      <feComposite in="SourceGraphic"/>
    </filter>
  </defs>
  <g id="Grupo_1231178" data-name="Grupo 1231178" transform="translate(-271.425 -5617.845)">
    <g id="Grupo_1230686" data-name="Grupo 1230686" transform="translate(0 -2146.377)">
      <g id="Grupo_1229014" data-name="Grupo 1229014" transform="translate(0 2131.042)">
        <g id="Grupo_1227502" data-name="Grupo 1227502" transform="translate(0 2048.198)">
          <g id="Grupo_1225350" data-name="Grupo 1225350" transform="translate(-0.575 -393.641)">
            <g id="Grupo_1208121" data-name="Grupo 1208121" transform="translate(0 -1922.377)">
              <g id="Grupo_1202432" data-name="Grupo 1202432" transform="translate(0 1255.486)">
                <g id="Grupo_1202055" data-name="Grupo 1202055" transform="translate(0 3240.511)">
                  <g id="Grupo_1177900" data-name="Grupo 1177900" transform="translate(281 1411.003)">
                    <g id="Grupo_1172010" data-name="Grupo 1172010" transform="translate(0)">
                      <g id="Grupo_1171046" data-name="Grupo 1171046">
                        <g id="Grupo_1148525" data-name="Grupo 1148525">
                          <g transform="matrix(1, 0, 0, 1, -9, -6)" filter="url(#Trazado_982547)">
                            <g id="Trazado_982547-2" data-name="Trazado 982547" transform="translate(9 6)" fill="#cefcf7">
                              <path d="M 47.5 93.5 C 41.28937149047852 93.5 35.26533508300781 92.28397369384766 29.59518623352051 89.88570404052734 C 24.11771965026855 87.56893157958984 19.19813346862793 84.25196075439453 14.97309303283691 80.02691650390625 C 10.74804019927979 75.80186462402344 7.431066513061523 70.88229370117188 5.114293098449707 65.40481567382812 C 2.716026782989502 59.73468017578125 1.5 53.71062850952148 1.5 47.5 C 1.5 41.28937149047852 2.716026782989502 35.26533508300781 5.114293098449707 29.59518623352051 C 7.431066513061523 24.11771965026855 10.74804019927979 19.19813346862793 14.97309303283691 14.97309303283691 C 19.19813346862793 10.74804019927979 24.11771965026855 7.431066513061523 29.59518623352051 5.114293098449707 C 35.26533508300781 2.716026782989502 41.28937149047852 1.5 47.5 1.5 C 53.71062850952148 1.5 59.73468017578125 2.716026782989502 65.40481567382812 5.114293098449707 C 70.88229370117188 7.431066513061523 75.80186462402344 10.74804019927979 80.02691650390625 14.97309303283691 C 84.25196075439453 19.19813346862793 87.56893157958984 24.11771965026855 89.88570404052734 29.59518623352051 C 92.28397369384766 35.26533508300781 93.5 41.28937149047852 93.5 47.5 C 93.5 53.71062850952148 92.28397369384766 59.73468017578125 89.88570404052734 65.40481567382812 C 87.56893157958984 70.88229370117188 84.25196075439453 75.80186462402344 80.02691650390625 80.02691650390625 C 75.80186462402344 84.25196075439453 70.88229370117188 87.56893157958984 65.40481567382812 89.88570404052734 C 59.73468017578125 92.28397369384766 53.71062850952148 93.5 47.5 93.5 Z" stroke="none"/>
                              <path d="M 47.5 3 C 41.49121475219727 3 35.66376876831055 4.176155090332031 30.17950439453125 6.495796203613281 C 24.88084411621094 8.736953735351562 20.12152099609375 11.94598388671875 16.03375244140625 16.03375244140625 C 11.94598388671875 20.12152099609375 8.736953735351562 24.88084411621094 6.495796203613281 30.17950439453125 C 4.176155090332031 35.66376876831055 3 41.49121475219727 3 47.5 C 3 53.50878524780273 4.176155090332031 59.33623123168945 6.495796203613281 64.82049560546875 C 8.736953735351562 70.11915588378906 11.94598388671875 74.87847900390625 16.03375244140625 78.96624755859375 C 20.12152099609375 83.05401611328125 24.88084411621094 86.26304626464844 30.17950439453125 88.50419616699219 C 35.66376876831055 90.82384490966797 41.49121475219727 92 47.5 92 C 53.50878524780273 92 59.33623123168945 90.82384490966797 64.82049560546875 88.50419616699219 C 70.11915588378906 86.26304626464844 74.87847900390625 83.05401611328125 78.96624755859375 78.96624755859375 C 83.05401611328125 74.87847900390625 86.26304626464844 70.11915588378906 88.50419616699219 64.82049560546875 C 90.82384490966797 59.33623123168945 92 53.50878524780273 92 47.5 C 92 41.49121475219727 90.82384490966797 35.66376876831055 88.50419616699219 30.17950439453125 C 86.26304626464844 24.88084411621094 83.05401611328125 20.12152099609375 78.96624755859375 16.03375244140625 C 74.87847900390625 11.94598388671875 70.11915588378906 8.736953735351562 64.82049560546875 6.495796203613281 C 59.33623123168945 4.176155090332031 53.50878524780273 3 47.5 3 M 47.5 0 C 73.7335205078125 0 95 21.2664794921875 95 47.5 C 95 73.7335205078125 73.7335205078125 95 47.5 95 C 21.2664794921875 95 0 73.7335205078125 0 47.5 C 0 21.2664794921875 21.2664794921875 0 47.5 0 Z" stroke="none" fill="#098576"/>
                            </g>
                          </g>
                        </g>
                      </g>
                    </g>
                  </g>
                </g>
              </g>
            </g>
          </g>
        </g>
      </g>
    </g>
    <g id="claridad_2_" data-name="claridad (2)" transform="translate(285.859 5605.585)">
      <g id="Grupo_1231177" data-name="Grupo 1231177" transform="translate(15.756 41.912)">
        <g id="Grupo_1231175" data-name="Grupo 1231175" transform="translate(0 0)">
          <path id="Trazado_1220503" data-name="Trazado 1220503" d="M134.7,371.366h7v3.559a2.128,2.128,0,0,1-2.122,2.122h-2.754a2.128,2.128,0,0,1-2.122-2.122v-3.559Z" transform="translate(-125.143 -333.751)" fill="#b1b1b5" fill-rule="evenodd"/>
          <path id="Trazado_1220504" data-name="Trazado 1220504" d="M118.78,333.873h11.349v4.439a2.128,2.128,0,0,1-2.122,2.122H120.9a2.128,2.128,0,0,1-2.122-2.122Z" transform="translate(-111.397 -301.382)" fill="#d1d1d6" fill-rule="evenodd"/>
          <path id="Trazado_1220505" data-name="Trazado 1220505" d="M170.336,329.153v5.083a2.128,2.128,0,0,1-2.122,2.122h2.472a2.128,2.128,0,0,0,2.122-2.122v-5.084C172,329.178,171.148,329.153,170.336,329.153Z" transform="translate(-154.076 -297.306)" fill="#b1b1b5" fill-rule="evenodd"/>
          <path id="Trazado_1220506" data-name="Trazado 1220506" d="M103.254,304.269h15.592v4.241a2.128,2.128,0,0,1-2.122,2.122H105.376a2.128,2.128,0,0,1-2.122-2.122Z" transform="translate(-97.993 -275.824)" fill="#eceff1" fill-rule="evenodd"/>
          <path id="Trazado_1220507" data-name="Trazado 1220507" d="M185.861,319.775V321.9a2.128,2.128,0,0,1-2.122,2.122h2.542a2.128,2.128,0,0,0,2.051-2.121v-2.122Z" transform="translate(-167.479 -289.211)" fill="#d1d1d6" fill-rule="evenodd"/>
          <path id="Trazado_1220508" data-name="Trazado 1220508" d="M77.818,96.132a13.057,13.057,0,0,1,13.057,13.057c0,7.252-4.632,6.818-5.261,17.507H70.022c-.628-10.689-5.261-10.255-5.261-17.507A13.057,13.057,0,0,1,77.818,96.132Z" transform="translate(-64.761 -96.132)" fill="#ffe177" fill-rule="evenodd"/>
          <path id="Trazado_1220509" data-name="Trazado 1220509" d="M151.259,96.19a13.058,13.058,0,0,1,11.821,13c0,6.736-4,6.841-5.069,15.388-.082.655-.147,1.359-.192,2.119h2.471c.628-10.689,5.261-10.255,5.261-17.507a13.057,13.057,0,0,0-13.057-13.057Q151.869,96.132,151.259,96.19Z" transform="translate(-139.438 -96.132)" fill="#ffd064" fill-rule="evenodd"/>
        </g>
        <g id="Grupo_1231176" data-name="Grupo 1231176" transform="translate(13.336 6.881)">
          <path id="Trazado_1220510" data-name="Trazado 1220510" d="M368.583,342.485a14.048,14.048,0,0,1-2.371,2.61l6.447,6.319,2.454-2.529Z" transform="translate(-338.351 -315.698)" fill="#a79ba7" fill-rule="evenodd"/>
          <path id="Trazado_1220511" data-name="Trazado 1220511" d="M379.446,342.166a1.62,1.62,0,0,1-.7.941l6.4,6.362.784-.859Z" transform="translate(-349.17 -315.422)" fill="#837683" fill-rule="evenodd"/>
          <path id="Trazado_1220512" data-name="Trazado 1220512" d="M410.884,389.183l2.77-2.855a1.274,1.274,0,0,0-.027-1.8l-7.672-7.445a1.274,1.274,0,0,0-1.8.027l-2.77,2.855a1.274,1.274,0,0,0,.027,1.8l7.672,7.445A1.274,1.274,0,0,0,410.884,389.183Z" transform="translate(-368.412 -345.263)" fill="#f1ba84" fill-rule="evenodd"/>
          <path id="Trazado_1220513" data-name="Trazado 1220513" d="M426.746,377.089l7.672,7.445a1.274,1.274,0,0,1,.027,1.8l-2.77,2.855a1.26,1.26,0,0,1-.344.251,1.275,1.275,0,0,0,1.479-.251l2.77-2.855a1.274,1.274,0,0,0-.027-1.8l-7.672-7.445a1.275,1.275,0,0,0-1.452-.225A1.255,1.255,0,0,1,426.746,377.089Z" transform="translate(-390.338 -345.265)" fill="#e3a76f" fill-rule="evenodd"/>
          <circle id="Elipse_14621" data-name="Elipse 14621" cx="13.971" cy="13.971" r="13.971" transform="translate(0 19.754) rotate(-45)" fill="#8ac9fe"/>
          <path id="Trazado_1220514" data-name="Trazado 1220514" d="M302.671,188.8a13.971,13.971,0,0,1,0,27.941q-.341,0-.678-.017a13.97,13.97,0,0,0,0-27.908Q302.33,188.8,302.671,188.8Z" transform="translate(-282.908 -183.014)" fill="#60b7ff" fill-rule="evenodd"/>
          <circle id="Elipse_14622" data-name="Elipse 14622" cx="10.032" cy="10.032" r="10.032" transform="translate(6.879 25.68) rotate(-69.699)" fill="#eceff1"/>
          <path id="Trazado_1220515" data-name="Trazado 1220515" d="M243.584,217.62c.228,0,.454.008.678.023a10.031,10.031,0,0,0,0,20.017c-.224.015-.45.023-.678.023a10.032,10.032,0,0,1,0-20.063Z" transform="translate(-223.821 -207.897)" fill="#d1d1d6" fill-rule="evenodd"/>
        </g>
        <path id="Trazado_1220516" data-name="Trazado 1220516" d="M267.106,263.6l4.878-4.927a1.485,1.485,0,1,1,2.107,2.093c-1.978,2-3.943,4.006-5.93,5.993a1.488,1.488,0,0,1-2.1,0l-3.3-3.3a1.488,1.488,0,0,1,2.1-2.1Z" transform="translate(-235.325 -236.085)" fill="#8ac9fe" fill-rule="evenodd"/>
      </g>
      <path id="Trazado_1220517" data-name="Trazado 1220517" d="M53.745,65.274a.381.381,0,0,0-.279-.113.389.389,0,0,0-.275.113L48.314,70.2a1.09,1.09,0,0,1-.774.324h0a1.092,1.092,0,0,1-.773-.32l-2.241-2.241a.394.394,0,0,0-.558.557l3.3,3.3a.4.4,0,0,0,.558,0c1.245-1.247,2.5-2.523,3.721-3.757q1.1-1.117,2.2-2.233A.393.393,0,0,0,53.745,65.274ZM55.3,67.368q-1.1,1.114-2.2,2.23c-1.219,1.236-2.48,2.517-3.732,3.768a2.581,2.581,0,0,1-3.65,0l-3.3-3.3a2.581,2.581,0,0,1,3.65-3.65l1.465,1.463,4.1-4.145a2.579,2.579,0,0,1,3.649-.012A2.583,2.583,0,0,1,55.3,67.368Zm2.495,1.18a8.938,8.938,0,1,1-8.938-8.938A8.948,8.948,0,0,1,57.793,68.548Zm2.187,0A11.125,11.125,0,1,1,48.855,57.423,11.137,11.137,0,0,1,59.98,68.548Zm13.565,20.3L65.873,81.4a.173.173,0,0,0-.121-.048h0a.171.171,0,0,0-.125.052l-2.769,2.855a.176.176,0,0,0-.05.125.188.188,0,0,0,.052.125l7.673,7.444a.18.18,0,0,0,.25,0L73.549,89.1A.181.181,0,0,0,73.545,88.848Zm-24.69-7.422A12.878,12.878,0,1,1,61.732,68.548,12.893,12.893,0,0,1,48.855,81.426ZM35.332,75.182a14.926,14.926,0,0,1-.679-1.612H22.109V74.6a1.03,1.03,0,0,0,1.029,1.029h11.35a1.028,1.028,0,0,0,.845-.446Zm-4.114,7.9V82.058H26.407v1.028a1.03,1.03,0,0,0,1.029,1.029h2.754a1.03,1.03,0,0,0,1.029-1.029Zm2.175-4.244V77.815H24.231v1.028a1.03,1.03,0,0,0,1.029,1.029h7.105A1.03,1.03,0,0,0,33.393,78.843ZM34.1,57.006a1.941,1.941,0,1,0-1.941-1.941v1.941Zm-4.128,2.187H27.651v12.19h2.323Zm-4.509-4.127a1.941,1.941,0,1,0-1.941,1.941h1.941Zm-6.631,6.371a20.653,20.653,0,0,1,3.2,9.946h3.432V59.193H23.524a4.127,4.127,0,1,1,4.127-4.127v1.941h2.323V55.066A4.127,4.127,0,1,1,34.1,59.193H32.16v12.19h1.9a15.059,15.059,0,0,1,6.689-15.528q.028-.43.028-.885a11.964,11.964,0,1,0-23.927,0,11.032,11.032,0,0,0,1.985,6.467ZM60.508,78.082q-.425.518-.894,1l2.69,2.61.931-.96ZM75.118,90.62l-2.771,2.855a2.364,2.364,0,0,1-3.341.049L61.334,86.08a2.346,2.346,0,0,1-.716-1.66,2.372,2.372,0,0,1,.245-1.084l-2.891-2.805a15.041,15.041,0,0,1-21.5-3.409,3.237,3.237,0,0,1-.9.5v1.222A3.22,3.22,0,0,1,33.4,81.885v1.2A3.218,3.218,0,0,1,30.189,86.3H27.435a3.218,3.218,0,0,1-3.215-3.216v-1.2a3.22,3.22,0,0,1-2.175-3.042v-1.22A3.221,3.221,0,0,1,19.923,74.6V72.514a19.241,19.241,0,0,0-2.976-9.972,13.127,13.127,0,0,1-2.284-7.571,14.15,14.15,0,0,1,28.3-.285A15.058,15.058,0,0,1,61.782,76.27l3.141,3.048a2.364,2.364,0,0,1,2.473.515l7.671,7.446a2.364,2.364,0,0,1,.051,3.341ZM45.871,48.44a1.084,1.084,0,0,0,.545-.146l2.664-1.537a1.094,1.094,0,0,0-1.094-1.894L45.323,46.4a1.093,1.093,0,0,0,.547,2.04Zm-7.757-7.355a1.094,1.094,0,0,0,1.494-.4l1.538-2.663a1.093,1.093,0,1,0-1.894-1.094l-1.538,2.664a1.094,1.094,0,0,0,.4,1.494ZM12.3,46.4,9.638,44.862a1.094,1.094,0,0,0-1.093,1.894l2.664,1.537A1.093,1.093,0,0,0,12.3,46.4Zm5.715-5.716a1.093,1.093,0,1,0,1.894-1.093l-1.538-2.664a1.093,1.093,0,1,0-1.893,1.094Zm9.7-3.186V34.423a1.093,1.093,0,1,1,2.186,0V37.5a1.093,1.093,0,1,1-2.186,0Z" transform="translate(0)" fill-rule="evenodd"/>
    </g>
  </g>
</svg>
