<svg xmlns="http://www.w3.org/2000/svg" xmlns:xlink="http://www.w3.org/1999/xlink" width="113" height="113" viewBox="0 0 113 113">
  <defs>
    <filter id="Trazado_982547" x="0" y="0" width="113" height="113" filterUnits="userSpaceOnUse">
      <feOffset dy="3" input="SourceAlpha"/>
      <feGaussianBlur stdDeviation="3" result="blur"/>
      <feFlood flood-opacity="0.161"/>
      <feComposite operator="in" in2="blur"/>
      <feComposite in="SourceGraphic"/>
    </filter>
  </defs>
  <g id="Grupo_1231174" data-name="Grupo 1231174" transform="translate(-586 -5617.864)">
    <g id="Grupo_1230687" data-name="Grupo 1230687" transform="translate(0 -2146.377)">
      <g id="Grupo_1229015" data-name="Grupo 1229015" transform="translate(1 2131.042)">
        <g id="Grupo_1227503" data-name="Grupo 1227503" transform="translate(0 2048.198)">
          <g id="Grupo_1225351" data-name="Grupo 1225351" transform="translate(-1 -393.91)">
            <g id="Grupo_1208122" data-name="Grupo 1208122" transform="translate(0 -1922.377)">
              <g id="Grupo_1202433" data-name="Grupo 1202433" transform="translate(-0.56 1255.773)">
                <g id="Grupo_1202054" data-name="Grupo 1202054" transform="translate(0 3240.511)">
                  <g id="Grupo_1177897" data-name="Grupo 1177897" transform="translate(595.561 1411.003)">
                    <g id="Grupo_1172010" data-name="Grupo 1172010" transform="translate(0)">
                      <g id="Grupo_1171046" data-name="Grupo 1171046">
                        <g id="Grupo_1148525" data-name="Grupo 1148525">
                          <g transform="matrix(1, 0, 0, 1, -9, -6)" filter="url(#Trazado_982547)">
                            <g id="Trazado_982547-2" data-name="Trazado 982547" transform="translate(9 6)" fill="#cefcf7">
                              <path d="M 47.5 93.5 C 41.28937149047852 93.5 35.26533508300781 92.28397369384766 29.59518623352051 89.88570404052734 C 24.11771965026855 87.56893157958984 19.19813346862793 84.25196075439453 14.97309303283691 80.02691650390625 C 10.74804019927979 75.80186462402344 7.431066513061523 70.88229370117188 5.114293098449707 65.40481567382812 C 2.716026782989502 59.73468017578125 1.5 53.71062850952148 1.5 47.5 C 1.5 41.28937149047852 2.716026782989502 35.26533508300781 5.114293098449707 29.59518623352051 C 7.431066513061523 24.11771965026855 10.74804019927979 19.19813346862793 14.97309303283691 14.97309303283691 C 19.19813346862793 10.74804019927979 24.11771965026855 7.431066513061523 29.59518623352051 5.114293098449707 C 35.26533508300781 2.716026782989502 41.28937149047852 1.5 47.5 1.5 C 53.71062850952148 1.5 59.73468017578125 2.716026782989502 65.40481567382812 5.114293098449707 C 70.88229370117188 7.431066513061523 75.80186462402344 10.74804019927979 80.02691650390625 14.97309303283691 C 84.25196075439453 19.19813346862793 87.56893157958984 24.11771965026855 89.88570404052734 29.59518623352051 C 92.28397369384766 35.26533508300781 93.5 41.28937149047852 93.5 47.5 C 93.5 53.71062850952148 92.28397369384766 59.73468017578125 89.88570404052734 65.40481567382812 C 87.56893157958984 70.88229370117188 84.25196075439453 75.80186462402344 80.02691650390625 80.02691650390625 C 75.80186462402344 84.25196075439453 70.88229370117188 87.56893157958984 65.40481567382812 89.88570404052734 C 59.73468017578125 92.28397369384766 53.71062850952148 93.5 47.5 93.5 Z" stroke="none"/>
                              <path d="M 47.5 3 C 41.49121475219727 3 35.66376876831055 4.176155090332031 30.17950439453125 6.495796203613281 C 24.88084411621094 8.736953735351562 20.12152099609375 11.94598388671875 16.03375244140625 16.03375244140625 C 11.94598388671875 20.12152099609375 8.736953735351562 24.88084411621094 6.495796203613281 30.17950439453125 C 4.176155090332031 35.66376876831055 3 41.49121475219727 3 47.5 C 3 53.50878524780273 4.176155090332031 59.33623123168945 6.495796203613281 64.82049560546875 C 8.736953735351562 70.11915588378906 11.94598388671875 74.87847900390625 16.03375244140625 78.96624755859375 C 20.12152099609375 83.05401611328125 24.88084411621094 86.26304626464844 30.17950439453125 88.50419616699219 C 35.66376876831055 90.82384490966797 41.49121475219727 92 47.5 92 C 53.50878524780273 92 59.33623123168945 90.82384490966797 64.82049560546875 88.50419616699219 C 70.11915588378906 86.26304626464844 74.87847900390625 83.05401611328125 78.96624755859375 78.96624755859375 C 83.05401611328125 74.87847900390625 86.26304626464844 70.11915588378906 88.50419616699219 64.82049560546875 C 90.82384490966797 59.33623123168945 92 53.50878524780273 92 47.5 C 92 41.49121475219727 90.82384490966797 35.66376876831055 88.50419616699219 30.17950439453125 C 86.26304626464844 24.88084411621094 83.05401611328125 20.12152099609375 78.96624755859375 16.03375244140625 C 74.87847900390625 11.94598388671875 70.11915588378906 8.736953735351562 64.82049560546875 6.495796203613281 C 59.33623123168945 4.176155090332031 53.50878524780273 3 47.5 3 M 47.5 0 C 73.7335205078125 0 95 21.2664794921875 95 47.5 C 95 73.7335205078125 73.7335205078125 95 47.5 95 C 21.2664794921875 95 0 73.7335205078125 0 47.5 C 0 21.2664794921875 21.2664794921875 0 47.5 0 Z" stroke="none" fill="#098576"/>
                            </g>
                          </g>
                        </g>
                      </g>
                    </g>
                  </g>
                </g>
              </g>
            </g>
          </g>
        </g>
      </g>
    </g>
    <g id="sistema-informatico_1_" data-name="sistema-informatico (1)" transform="translate(605.398 5630.463)">
      <g id="Grupo_1231173" data-name="Grupo 1231173" transform="translate(9.789 14.629)">
        <g id="Grupo_1231170" data-name="Grupo 1231170" transform="translate(0 0)">
          <g id="Grupo_1231169" data-name="Grupo 1231169">
            <path id="Trazado_1220495" data-name="Trazado 1220495" d="M191.771,363.277H173.289c1.475-2.087,2.7-7.465,2.168-11.614h14.015C188.942,355.812,190.3,361.19,191.771,363.277Z" transform="translate(-155.717 -314.705)" fill="#a9b0bb" fill-rule="evenodd"/>
            <path id="Trazado_1220496" data-name="Trazado 1220496" d="M125.176,449.2h25.069a2.343,2.343,0,1,1,0,4.687H125.176a2.343,2.343,0,0,1,0-4.687Z" transform="translate(-110.898 -401.344)" fill="#cad0d7" fill-rule="evenodd"/>
            <path id="Trazado_1220497" data-name="Trazado 1220497" d="M66.8,20.85a2.828,2.828,0,0,1,2.828,2.829v31.8a3.85,3.85,0,0,1-3.85,3.85H19.85A3.85,3.85,0,0,1,16,55.482V24.7a3.85,3.85,0,0,1,3.85-3.85Z" transform="translate(-16 -20.85)" fill="#a9b0bb" fill-rule="evenodd"/>
            <path id="Trazado_1220498" data-name="Trazado 1220498" d="M36,67.206H85.157V41.444a.593.593,0,0,0-.594-.594H37.615A1.614,1.614,0,0,0,36,42.465Z" transform="translate(-33.766 -38.616)" fill="#a4d4ff" fill-rule="evenodd"/>
            <path id="Trazado_1220499" data-name="Trazado 1220499" d="M69.626,296.758v3.808a3.85,3.85,0,0,1-3.85,3.85H19.85a3.85,3.85,0,0,1-3.85-3.85v-3.808Z" transform="translate(-16 -265.934)" fill="#cad0d7" fill-rule="evenodd"/>
          </g>
        </g>
        <g id="Grupo_1231172" data-name="Grupo 1231172" transform="translate(3.778 2.203)">
          <path id="Trazado_1220500" data-name="Trazado 1220500" d="M50.485,79.378a2.259,2.259,0,0,1,1.6,3.854.67.67,0,0,0,0,.948l1.443,1.443a.67.67,0,0,0,.948,0,2.259,2.259,0,0,1,3.855,1.6.67.67,0,0,0,.67.67h2.04a.67.67,0,0,0,.67-.67,2.258,2.258,0,0,1,3.855-1.6.67.67,0,0,0,.948,0l1.443-1.443a.67.67,0,0,0,0-.948,2.259,2.259,0,0,1,1.6-3.854.67.67,0,0,0,.67-.67v-2.04a.67.67,0,0,0-.67-.67,2.259,2.259,0,0,1-1.6-3.855.67.67,0,0,0,0-.948L66.51,69.753a.67.67,0,0,0-.948,0,2.259,2.259,0,0,1-3.855-1.6.67.67,0,0,0-.67-.67H59a.67.67,0,0,0-.67.67,2.259,2.259,0,0,1-3.855,1.6.67.67,0,0,0-.948,0L52.082,71.2a.67.67,0,0,0,0,.948A2.259,2.259,0,0,1,50.485,76a.67.67,0,0,0-.67.67v2.04A.67.67,0,0,0,50.485,79.378Z" transform="translate(-49.815 -64.479)" fill="#fdcd56" fill-rule="evenodd"/>
          <circle id="Elipse_14619" data-name="Elipse 14619" cx="4.986" cy="4.986" r="4.986" transform="translate(4.205 9.497) rotate(-13.3)" fill="#a4d4ff"/>
          <g id="Grupo_1231171" data-name="Grupo 1231171" transform="translate(7.265)">
            <ellipse id="Elipse_14620" data-name="Elipse 14620" cx="2.441" cy="2.442" rx="2.441" ry="2.442" transform="translate(0 11.387) rotate(-13.3)" fill="#fdcd56"/>
            <path id="Trazado_1220501" data-name="Trazado 1220501" d="M259.027,65.464a1.523,1.523,0,1,1,1.523,1.523A1.523,1.523,0,0,1,259.027,65.464Zm0-23.373a1.523,1.523,0,1,0,1.523-1.523A1.523,1.523,0,0,0,259.027,42.091Zm0,11.687A1.523,1.523,0,1,1,260.55,55.3,1.523,1.523,0,0,1,259.027,53.777Z" transform="translate(-242.919 -40.568)" fill="#fdcd56" fill-rule="evenodd"/>
          </g>
        </g>
      </g>
      <path id="Trazado_1220502" data-name="Trazado 1220502" d="M44.381,32.35a.782.782,0,0,1,.782-.782H52.4a.782.782,0,1,1,0,1.564H45.162A.782.782,0,0,1,44.381,32.35Zm0,9.233a.782.782,0,0,1,.782-.782H52.4a.782.782,0,1,1,0,1.564H45.162A.782.782,0,0,1,44.381,41.583Zm0-4.617a.782.782,0,0,1,.782-.782H59.638a.782.782,0,1,1,0,1.564H45.162A.782.782,0,0,1,44.381,36.966Zm0-18.466a.782.782,0,0,1,.782-.782H59.638a.782.782,0,1,1,0,1.564H45.162A.782.782,0,0,1,44.381,18.5Zm0,4.616a.782.782,0,0,1,.782-.782H52.4a.782.782,0,1,1,0,1.564H45.162A.782.782,0,0,1,44.381,23.117Zm0,4.617a.782.782,0,0,1,.782-.782H59.638a.782.782,0,1,1,0,1.564H45.162A.782.782,0,0,1,44.381,27.733Zm-20.611.649a1.659,1.659,0,1,1-1.659,1.66A1.662,1.662,0,0,1,23.77,28.382Zm0,4.883a3.223,3.223,0,1,0-3.224-3.223A3.228,3.228,0,0,0,23.77,33.265Zm0-7.427a4.2,4.2,0,1,0,4.2,4.2,4.208,4.208,0,0,0-4.2-4.2Zm0,9.971A5.768,5.768,0,1,0,18,30.042a5.774,5.774,0,0,0,5.767,5.767Zm-9.421-6.678v1.82a3.041,3.041,0,0,1,2.116,5.107l1.287,1.287a3.042,3.042,0,0,1,5.108,2.115h1.82a3.04,3.04,0,0,1,5.107-2.115l1.288-1.287a3.041,3.041,0,0,1,2.115-5.107v-1.82a3.041,3.041,0,0,1-2.115-5.107l-1.288-1.287a3.041,3.041,0,0,1-5.107-2.115H22.86a3.042,3.042,0,0,1-5.108,2.115l-1.287,1.287a3.041,3.041,0,0,1-2.116,5.107ZM38.464,17.614a.741.741,0,1,1-.741.741A.742.742,0,0,1,38.464,17.614Zm0,11.687a.741.741,0,1,1-.741.741A.742.742,0,0,1,38.464,29.3Zm0,11.686a.741.741,0,1,1-.741.741A.742.742,0,0,1,38.464,40.987ZM14.238,32.514a1.477,1.477,0,0,1,1.043,2.52,1.455,1.455,0,0,0,0,2.053l1.444,1.443a1.452,1.452,0,0,0,2.053,0A1.477,1.477,0,0,1,21.3,39.573a1.454,1.454,0,0,0,1.452,1.452h2.041a1.453,1.453,0,0,0,1.451-1.452,1.476,1.476,0,0,1,2.52-1.043,1.452,1.452,0,0,0,2.054,0l.354-.354h2.635l2.574,2.575a2.313,2.313,0,1,0,1.106-1.106l-2.8-2.8a.784.784,0,0,0-.553-.229H32.575a1.454,1.454,0,0,0-.318-1.578,1.477,1.477,0,0,1,1.043-2.52,1.454,1.454,0,0,0,1.452-1.452v-.238H36.3a2.3,2.3,0,1,0,0-1.564H34.753v-.238A1.454,1.454,0,0,0,33.3,27.57a1.477,1.477,0,0,1-1.043-2.52,1.439,1.439,0,0,0,.426-1.027,1.454,1.454,0,0,0-.108-.551h1.554a.784.784,0,0,0,.553-.229l2.8-2.8a2.308,2.308,0,1,0-1.106-1.106l-2.574,2.575H31.17l-.354-.355a1.455,1.455,0,0,0-2.054,0,1.477,1.477,0,0,1-2.52-1.043,1.453,1.453,0,0,0-1.451-1.452H22.749A1.454,1.454,0,0,0,21.3,20.51a1.477,1.477,0,0,1-2.519,1.043,1.453,1.453,0,0,0-2.053,0L15.281,23a1.455,1.455,0,0,0,0,2.054,1.477,1.477,0,0,1-1.043,2.52,1.454,1.454,0,0,0-1.452,1.452v2.04a1.454,1.454,0,0,0,1.452,1.452ZM39.5,49.283a.782.782,0,0,1-.782.782H34.486a.782.782,0,1,1,0-1.564h4.232A.781.781,0,0,1,39.5,49.283ZM59.564,52.33a3.073,3.073,0,0,0,3.07-3.068V46.235H10.572v3.026a3.071,3.071,0,0,0,3.067,3.068ZM44.186,61.7H29a23.373,23.373,0,0,0,1.433-7.808H42.65A23.209,23.209,0,0,0,44.186,61.7ZM50.7,64.828a1.563,1.563,0,0,1-1.561,1.562H24.069a1.562,1.562,0,0,1,0-3.124H49.137A1.563,1.563,0,0,1,50.7,64.828ZM13.639,15.411a3.071,3.071,0,0,0-3.067,3.067V44.672H62.634V17.458a2.05,2.05,0,0,0-2.045-2.047Zm46.95-1.564H13.639a4.637,4.637,0,0,0-4.631,4.632V49.262a4.637,4.637,0,0,0,4.631,4.632H28.873A21.054,21.054,0,0,1,27.3,61.7H24.069a3.126,3.126,0,1,0,0,6.252H49.137a3.126,3.126,0,0,0,0-6.252H45.893a21.028,21.028,0,0,1-1.679-7.808h15.35A4.636,4.636,0,0,0,64.2,49.262v-31.8A3.614,3.614,0,0,0,60.59,13.847Z" fill-rule="evenodd"/>
    </g>
  </g>
</svg>
