<svg xmlns="http://www.w3.org/2000/svg" xmlns:xlink="http://www.w3.org/1999/xlink" width="113" height="113" viewBox="0 0 113 113">
  <defs>
    <filter id="Trazado_982547" x="0" y="0" width="113" height="113" filterUnits="userSpaceOnUse">
      <feOffset dy="3" input="SourceAlpha"/>
      <feGaussianBlur stdDeviation="3" result="blur"/>
      <feFlood flood-opacity="0.161"/>
      <feComposite operator="in" in2="blur"/>
      <feComposite in="SourceGraphic"/>
    </filter>
  </defs>
  <g id="Grupo_1231168" data-name="Grupo 1231168" transform="translate(-901 -5618.132)">
    <g id="Grupo_1230688" data-name="Grupo 1230688" transform="translate(0 -2146.377)">
      <g id="Grupo_1229016" data-name="Grupo 1229016" transform="translate(0.575 2131.042)">
        <g id="Grupo_1227504" data-name="Grupo 1227504" transform="translate(0 2048.198)">
          <g id="Grupo_1225352" data-name="Grupo 1225352" transform="translate(-0.575 -393.641)">
            <g id="Grupo_1208123" data-name="Grupo 1208123" transform="translate(0 -1922.377)">
              <g id="Grupo_1202434" data-name="Grupo 1202434" transform="translate(-0.56 1255.773)">
                <g id="Grupo_1202053" data-name="Grupo 1202053" transform="translate(0 3240.511)">
                  <g id="Grupo_1177898" data-name="Grupo 1177898" transform="translate(910.561 1411.003)">
                    <g id="Grupo_1172010" data-name="Grupo 1172010" transform="translate(0)">
                      <g id="Grupo_1171046" data-name="Grupo 1171046">
                        <g id="Grupo_1148525" data-name="Grupo 1148525">
                          <g transform="matrix(1, 0, 0, 1, -9, -6)" filter="url(#Trazado_982547)">
                            <g id="Trazado_982547-2" data-name="Trazado 982547" transform="translate(9 6)" fill="#cefcf7">
                              <path d="M 47.5 93.5 C 41.28937149047852 93.5 35.26533508300781 92.28397369384766 29.59518623352051 89.88570404052734 C 24.11771965026855 87.56893157958984 19.19813346862793 84.25196075439453 14.97309303283691 80.02691650390625 C 10.74804019927979 75.80186462402344 7.431066513061523 70.88229370117188 5.114293098449707 65.40481567382812 C 2.716026782989502 59.73468017578125 1.5 53.71062850952148 1.5 47.5 C 1.5 41.28937149047852 2.716026782989502 35.26533508300781 5.114293098449707 29.59518623352051 C 7.431066513061523 24.11771965026855 10.74804019927979 19.19813346862793 14.97309303283691 14.97309303283691 C 19.19813346862793 10.74804019927979 24.11771965026855 7.431066513061523 29.59518623352051 5.114293098449707 C 35.26533508300781 2.716026782989502 41.28937149047852 1.5 47.5 1.5 C 53.71062850952148 1.5 59.73468017578125 2.716026782989502 65.40481567382812 5.114293098449707 C 70.88229370117188 7.431066513061523 75.80186462402344 10.74804019927979 80.02691650390625 14.97309303283691 C 84.25196075439453 19.19813346862793 87.56893157958984 24.11771965026855 89.88570404052734 29.59518623352051 C 92.28397369384766 35.26533508300781 93.5 41.28937149047852 93.5 47.5 C 93.5 53.71062850952148 92.28397369384766 59.73468017578125 89.88570404052734 65.40481567382812 C 87.56893157958984 70.88229370117188 84.25196075439453 75.80186462402344 80.02691650390625 80.02691650390625 C 75.80186462402344 84.25196075439453 70.88229370117188 87.56893157958984 65.40481567382812 89.88570404052734 C 59.73468017578125 92.28397369384766 53.71062850952148 93.5 47.5 93.5 Z" stroke="none"/>
                              <path d="M 47.5 3 C 41.49121475219727 3 35.66376876831055 4.176155090332031 30.17950439453125 6.495796203613281 C 24.88084411621094 8.736953735351562 20.12152099609375 11.94598388671875 16.03375244140625 16.03375244140625 C 11.94598388671875 20.12152099609375 8.736953735351562 24.88084411621094 6.495796203613281 30.17950439453125 C 4.176155090332031 35.66376876831055 3 41.49121475219727 3 47.5 C 3 53.50878524780273 4.176155090332031 59.33623123168945 6.495796203613281 64.82049560546875 C 8.736953735351562 70.11915588378906 11.94598388671875 74.87847900390625 16.03375244140625 78.96624755859375 C 20.12152099609375 83.05401611328125 24.88084411621094 86.26304626464844 30.17950439453125 88.50419616699219 C 35.66376876831055 90.82384490966797 41.49121475219727 92 47.5 92 C 53.50878524780273 92 59.33623123168945 90.82384490966797 64.82049560546875 88.50419616699219 C 70.11915588378906 86.26304626464844 74.87847900390625 83.05401611328125 78.96624755859375 78.96624755859375 C 83.05401611328125 74.87847900390625 86.26304626464844 70.11915588378906 88.50419616699219 64.82049560546875 C 90.82384490966797 59.33623123168945 92 53.50878524780273 92 47.5 C 92 41.49121475219727 90.82384490966797 35.66376876831055 88.50419616699219 30.17950439453125 C 86.26304626464844 24.88084411621094 83.05401611328125 20.12152099609375 78.96624755859375 16.03375244140625 C 74.87847900390625 11.94598388671875 70.11915588378906 8.736953735351562 64.82049560546875 6.495796203613281 C 59.33623123168945 4.176155090332031 53.50878524780273 3 47.5 3 M 47.5 0 C 73.7335205078125 0 95 21.2664794921875 95 47.5 C 95 73.7335205078125 73.7335205078125 95 47.5 95 C 21.2664794921875 95 0 73.7335205078125 0 47.5 C 0 21.2664794921875 21.2664794921875 0 47.5 0 Z" stroke="none" fill="#098576"/>
                            </g>
                          </g>
                        </g>
                      </g>
                    </g>
                  </g>
                </g>
              </g>
            </g>
          </g>
        </g>
      </g>
    </g>
    <g id="pruebas_1_" data-name="pruebas (1)" transform="translate(928.237 5638.999)">
      <g id="Grupo_1231166" data-name="Grupo 1231166" transform="translate(0.865 0.858)">
        <g id="Grupo_1231161" data-name="Grupo 1231161" transform="translate(0 14.255)">
          <path id="Trazado_1220475" data-name="Trazado 1220475" d="M93.426,136.761v29.393l-24.082,1.9-24.082-1.9V136.761a4.514,4.514,0,0,1,4.515-4.515H88.911A4.514,4.514,0,0,1,93.426,136.761Z" transform="translate(-40.946 -132.246)" fill="#f9f6f9"/>
          <path id="Trazado_1220476" data-name="Trazado 1220476" d="M93.425,412.011v1.938l-24.082,1.9-24.082-1.9v-1.938Z" transform="translate(-40.945 -380.041)" fill="#dddaec"/>
          <path id="Trazado_1220477" data-name="Trazado 1220477" d="M46.758,166.827l-1.494-.669V136.765a4.513,4.513,0,0,1,4.514-4.515h2.281a4.514,4.514,0,0,0-4.515,4.515v29.393Z" transform="translate(-40.948 -132.25)" fill="#dddaec"/>
          <path id="Trazado_1220478" data-name="Trazado 1220478" d="M59.98,428.975H11.817a4.315,4.315,0,0,0,0,8.631H59.98a4.315,4.315,0,0,0,0-8.631Z" transform="translate(-7.501 -395.066)" fill="#f9f6f9"/>
          <path id="Trazado_1220479" data-name="Trazado 1220479" d="M63.6,435.626a4.311,4.311,0,0,1-3.626,1.976H11.811a4.316,4.316,0,1,1,0-8.631H13.2a4.316,4.316,0,0,0,3.626,6.655H63.6Z" transform="translate(-7.495 -395.063)" fill="#dddaec"/>
          <path id="Trazado_1220480" data-name="Trazado 1220480" d="M83.262,193.348V172.538a2.293,2.293,0,0,1,2.293-2.293h34.894a2.293,2.293,0,0,1,2.293,2.293v20.811a2.12,2.12,0,0,1-2.12,2.12H85.382A2.12,2.12,0,0,1,83.262,193.348Z" transform="translate(-74.604 -165.903)" fill="#9dc6fb"/>
          <path id="Trazado_1220481" data-name="Trazado 1220481" d="M88.716,195.471H85.382a2.12,2.12,0,0,1-2.12-2.12V172.54a2.292,2.292,0,0,1,2.292-2.292h3.335A2.292,2.292,0,0,0,86.6,172.54v20.811A2.121,2.121,0,0,0,88.716,195.471Z" transform="translate(-74.604 -165.905)" fill="#80b4fb"/>
          <path id="Trazado_1220482" data-name="Trazado 1220482" d="M192.3,432.774H182.158a3.8,3.8,0,0,1-3.8-3.8H196.1A3.8,3.8,0,0,1,192.3,432.774Z" transform="translate(-158.833 -395.066)" fill="#cacaca"/>
        </g>
        <g id="Grupo_1231163" data-name="Grupo 1231163" transform="translate(15.542)">
          <path id="Trazado_1220483" data-name="Trazado 1220483" d="M167.523,22.024l-1.366-.566a9.786,9.786,0,0,0,0-2.207l1.365-.565a2.732,2.732,0,1,0-2.091-5.048l-1.364.565a9.79,9.79,0,0,0-1.562-1.56l.565-1.365a2.732,2.732,0,1,0-5.048-2.091l-.565,1.366a9.779,9.779,0,0,0-2.207,0l-.565-1.365a2.732,2.732,0,1,0-5.048,2.091l.565,1.364a9.79,9.79,0,0,0-1.56,1.562l-1.366-.565a2.732,2.732,0,1,0-2.09,5.048l1.365.565a9.813,9.813,0,0,0,0,2.207l-1.364.565a2.732,2.732,0,1,0,2.091,5.048l1.365-.565.02.024,0,0a9.74,9.74,0,0,0,1.54,1.533l-.566,1.366a2.73,2.73,0,0,0,3.656,3.531h0a2.717,2.717,0,0,0,1.391-1.44l.566-1.365a9.813,9.813,0,0,0,2.207,0l.565,1.364a2.732,2.732,0,1,0,5.048-2.091l-.565-1.365a9.806,9.806,0,0,0,1.56-1.561l1.365.565a2.732,2.732,0,1,0,2.091-5.048Zm-11.168,2.919a4.588,4.588,0,1,1,4.588-4.588A4.588,4.588,0,0,1,156.355,24.943Z" transform="translate(-143.499 -7.499)" fill="#4a80aa"/>
          <g id="Grupo_1231162" data-name="Grupo 1231162" transform="translate(0 0)">
            <path id="Trazado_1220484" data-name="Trazado 1220484" d="M265.932,10.552a9.786,9.786,0,0,1,2.207,0l.565-1.366a2.722,2.722,0,0,1,1.392-1.44l-.086-.038a2.731,2.731,0,0,0-3.57,1.479l-.537,1.3Z" transform="translate(-251.916 -7.5)" fill="#407093"/>
            <path id="Trazado_1220485" data-name="Trazado 1220485" d="M145.974,71.558a2.731,2.731,0,0,1,1.478-3.569l1.364-.565a9.813,9.813,0,0,1,0-2.207l-1.365-.565a2.731,2.731,0,0,1-.084-5.01l-.09-.037a2.732,2.732,0,1,0-2.09,5.048l1.365.565a9.813,9.813,0,0,0,0,2.207l-1.364.565a2.732,2.732,0,1,0,2.091,5.048l.09-.037A2.723,2.723,0,0,1,145.974,71.558Z" transform="translate(-143.501 -53.464)" fill="#407093"/>
            <path id="Trazado_1220486" data-name="Trazado 1220486" d="M268.705,207.143l-.565-1.364a9.812,9.812,0,0,1-2.207,0l-.029.069.537,1.3a2.732,2.732,0,0,0,3.57,1.478l.087-.038A2.721,2.721,0,0,1,268.705,207.143Z" transform="translate(-251.916 -183.12)" fill="#407093"/>
            <path id="Trazado_1220487" data-name="Trazado 1220487" d="M193.154,180.284a2.731,2.731,0,0,1-3.656-3.531l.566-1.366a9.74,9.74,0,0,1-1.54-1.533l0,0a.218.218,0,0,0-.02-.024h2.264a9.767,9.767,0,0,0,1.562,1.56l-.566,1.366A2.732,2.732,0,0,0,193.154,180.284Z" transform="translate(-183.36 -154.82)" fill="#407093"/>
            <path id="Trazado_1220488" data-name="Trazado 1220488" d="M193.154,7.752a2.731,2.731,0,0,0-3.656,3.531l.566,1.366a9.74,9.74,0,0,0-1.54,1.533l0,0a.216.216,0,0,1-.02.024h2.264a9.767,9.767,0,0,1,1.562-1.56l-.566-1.366A2.732,2.732,0,0,1,193.154,7.752Z" transform="translate(-183.36 -7.504)" fill="#407093"/>
          </g>
        </g>
        <g id="Grupo_1231164" data-name="Grupo 1231164" transform="translate(32.395 28.233)">
          <path id="Trazado_1220489" data-name="Trazado 1220489" d="M296.189,266.077a1.951,1.951,0,0,1-1.542-.756l-3.262-4.208a1.951,1.951,0,0,1,3.084-2.391l1.464,1.889,2.858-5.06a1.951,1.951,0,0,1,3.4,1.919l-4.3,7.615a1.951,1.951,0,0,1-1.557.986Q296.26,266.077,296.189,266.077Z" transform="translate(-290.977 -254.56)" fill="#a2e19f"/>
        </g>
        <g id="Grupo_1231165" data-name="Grupo 1231165" transform="translate(14.811 29.387)">
          <path id="Trazado_1220490" data-name="Trazado 1220490" d="M145.155,269.834l1.707-1.707a2.031,2.031,0,0,0-2.873-2.873l-1.707,1.707-1.707-1.707a2.031,2.031,0,0,0-2.873,2.873l1.707,1.707-1.707,1.707a2.031,2.031,0,1,0,2.873,2.873l1.707-1.707,1.707,1.707a2.031,2.031,0,1,0,2.873-2.873Z" transform="translate(-137.107 -264.659)" fill="#e28086"/>
        </g>
      </g>
      <g id="Grupo_1231167" data-name="Grupo 1231167" transform="translate(0.01 0.001)">
        <path id="Trazado_1220491" data-name="Trazado 1220491" d="M57,49.679a5.141,5.141,0,0,0-2.8-1.442V19.628a5.377,5.377,0,0,0-5.372-5.371H39.97a10.694,10.694,0,0,0,0-1.095l.788-.326A3.593,3.593,0,0,0,42.7,8.147c-.007-.017-.015-.034-.023-.051a.857.857,0,0,0-1.552.727,1.878,1.878,0,0,1-1.023,2.43l-1.364.565a.857.857,0,0,0-.524.888,9,9,0,0,1,0,2.015.857.857,0,0,0,.524.888l1.366.566a1.874,1.874,0,1,1-1.434,3.464L37.3,19.073a.857.857,0,0,0-1,.258,9.01,9.01,0,0,1-1.425,1.426.857.857,0,0,0-.257,1l.566,1.364a1.875,1.875,0,0,1-3.464,1.435l-.566-1.364a.856.856,0,0,0-.888-.523,8.99,8.99,0,0,1-2.015,0,.857.857,0,0,0-.888.524L26.8,24.555a1.875,1.875,0,0,1-3.464-1.435l.566-1.366a.857.857,0,0,0-.258-1,8.943,8.943,0,0,1-1.424-1.423.857.857,0,0,0-1-.258l-1.366.565a1.874,1.874,0,0,1-1.434-3.464l1.364-.565a.857.857,0,0,0,.524-.888,9.007,9.007,0,0,1,0-2.016.857.857,0,0,0-.524-.888l-1.366-.566a1.874,1.874,0,1,1,1.434-3.464l1.366.566a.857.857,0,0,0,1-.258,8.97,8.97,0,0,1,1.425-1.426.857.857,0,0,0,.258-1l-.566-1.364A1.875,1.875,0,0,1,26.8,2.874l.566,1.364a.856.856,0,0,0,.888.523,9,9,0,0,1,2.015,0,.858.858,0,0,0,.888-.524l.566-1.366a1.875,1.875,0,0,1,3.464,1.435l-.566,1.365a.857.857,0,0,0,.258,1A8.948,8.948,0,0,1,36.3,8.1a.857.857,0,0,0,1,.258l1.368-.566a1.874,1.874,0,0,1,.477-.128.857.857,0,1,0-.224-1.7,3.582,3.582,0,0,0-.91.244l-.789.326a10.662,10.662,0,0,0-.779-.779l.327-.788A3.589,3.589,0,1,0,30.14,2.218l-.327.788a10.683,10.683,0,0,0-1.1,0l-.327-.788a3.589,3.589,0,1,0-6.631,2.747l.326.787a10.7,10.7,0,0,0-.779.78l-.788-.326a3.589,3.589,0,1,0-2.746,6.631l.788.327a10.78,10.78,0,0,0,0,1.094H9.7a5.378,5.378,0,0,0-5.372,5.371V48.237a5.172,5.172,0,0,0,.857,10.273H53.344A5.173,5.173,0,0,0,57,49.679ZM19.14,21.5a3.564,3.564,0,0,0,1.372-.274L21.3,20.9a10.661,10.661,0,0,0,.779.779l-.327.788a3.589,3.589,0,1,0,6.631,2.747l.327-.788a10.714,10.714,0,0,0,1.1,0l.327.788a3.589,3.589,0,1,0,6.631-2.747l-.326-.788a10.744,10.744,0,0,0,.779-.78l.788.326a3.594,3.594,0,0,0,4.038-.908h4.66a1.437,1.437,0,0,1,1.435,1.435v20.81a1.264,1.264,0,0,1-1.263,1.263H11.644a1.264,1.264,0,0,1-1.263-1.263V21.749a1.437,1.437,0,0,1,1.435-1.435h4.662A3.577,3.577,0,0,0,19.14,21.5Zm34.2,35.3H5.182a3.458,3.458,0,0,1,0-6.917h5.873a.857.857,0,0,0,0-1.714H6.039V19.628A3.661,3.661,0,0,1,9.7,15.971H16.12a3.6,3.6,0,0,0-.5,2.628h-3.8a3.153,3.153,0,0,0-3.149,3.149v20.81a2.98,2.98,0,0,0,2.977,2.977H46.882a2.98,2.98,0,0,0,2.977-2.977V21.749A3.153,3.153,0,0,0,46.709,18.6h-3.8a3.6,3.6,0,0,0-.5-2.628h6.425a3.661,3.661,0,0,1,3.658,3.657V48.164H14.46a.857.857,0,0,0,0,1.714h5.154a4.664,4.664,0,0,0,4.577,3.8H34.335a4.664,4.664,0,0,0,4.577-3.8H53.344a3.459,3.459,0,0,1,0,6.917ZM37.151,49.879a2.949,2.949,0,0,1-2.816,2.086H24.191a2.948,2.948,0,0,1-2.816-2.086Z" transform="translate(-0.01 -0.001)"/>
        <path id="Trazado_1220492" data-name="Trazado 1220492" d="M213.791,72.353a5.445,5.445,0,1,0,5.445,5.445A5.451,5.451,0,0,0,213.791,72.353Zm0,1.714a3.73,3.73,0,0,1,3.691,4.274H210.1a3.73,3.73,0,0,1,3.691-4.274Zm0,7.462a3.727,3.727,0,0,1-2.968-1.474h5.936A3.727,3.727,0,0,1,213.791,81.529Z" transform="translate(-184.538 -64.085)"/>
        <path id="Trazado_1220493" data-name="Trazado 1220493" d="M287.323,259.215a2.827,2.827,0,0,0,2.219,1.087q.1,0,.2-.007a2.8,2.8,0,0,0,2.241-1.42l4.3-7.615a2.808,2.808,0,0,0-4.89-2.762l-2.224,3.938-.675-.87a2.808,2.808,0,1,0-4.438,3.441Zm-2.128-6.066a1.094,1.094,0,0,1,1.083-.957,1.128,1.128,0,0,1,.14.009,1.086,1.086,0,0,1,.727.415l1.464,1.889a.857.857,0,0,0,1.424-.1l2.858-5.06a1.094,1.094,0,1,1,1.9,1.076l-4.3,7.615a1.091,1.091,0,0,1-.872.553,1.1,1.1,0,0,1-.945-.421l-3.262-4.208A1.086,1.086,0,0,1,285.195,253.149Z" transform="translate(-251.079 -218.838)"/>
        <path id="Trazado_1220494" data-name="Trazado 1220494" d="M130.466,262.1l1.1,1.1-1.1,1.1a2.888,2.888,0,0,0,4.085,4.085l1.1-1.1,1.1,1.1a2.888,2.888,0,0,0,4.085-4.085l-1.1-1.1,1.1-1.1a2.888,2.888,0,0,0-4.085-4.085l-1.1,1.1-1.1-1.1a2.888,2.888,0,1,0-4.085,4.085Zm1.212-2.873a1.174,1.174,0,0,1,1.661,0l1.707,1.707a.857.857,0,0,0,1.212,0l1.707-1.707a1.174,1.174,0,1,1,1.661,1.661l-1.707,1.707a.857.857,0,0,0,0,1.212l1.707,1.707a1.174,1.174,0,1,1-1.661,1.661l-1.707-1.707a.857.857,0,0,0-1.212,0l-1.707,1.707a1.174,1.174,0,0,1-1.661-1.661l1.707-1.707a.857.857,0,0,0,0-1.212l-1.707-1.707A1.176,1.176,0,0,1,131.678,259.223Z" transform="translate(-114.81 -227.778)"/>
      </g>
    </g>
  </g>
</svg>
