<svg xmlns="http://www.w3.org/2000/svg" xmlns:xlink="http://www.w3.org/1999/xlink" width="113" height="113" viewBox="0 0 113 113">
  <defs>
    <filter id="Trazado_982547" x="0" y="0" width="113" height="113" filterUnits="userSpaceOnUse">
      <feOffset dy="3" input="SourceAlpha"/>
      <feGaussianBlur stdDeviation="3" result="blur"/>
      <feFlood flood-opacity="0.161"/>
      <feComposite operator="in" in2="blur"/>
      <feComposite in="SourceGraphic"/>
    </filter>
  </defs>
  <g id="Grupo_1231160" data-name="Grupo 1231160" transform="translate(-1216 -5617.845)">
    <g id="Grupo_1230689" data-name="Grupo 1230689" transform="translate(0 -2146.377)">
      <g id="Grupo_1229017" data-name="Grupo 1229017" transform="translate(0 2131.042)">
        <g id="Grupo_1227505" data-name="Grupo 1227505" transform="translate(0.575 2048.198)">
          <g id="Grupo_1225353" data-name="Grupo 1225353" transform="translate(-0.575 -393.641)">
            <g id="Grupo_1208124" data-name="Grupo 1208124" transform="translate(0 -1922.377)">
              <g id="Grupo_1202435" data-name="Grupo 1202435" transform="translate(-0.56 1255.486)">
                <g id="Grupo_1202052" data-name="Grupo 1202052" transform="translate(1225.561 4651.514)">
                  <g id="Grupo_1172010" data-name="Grupo 1172010" transform="translate(0)">
                    <g id="Grupo_1171046" data-name="Grupo 1171046">
                      <g id="Grupo_1148525" data-name="Grupo 1148525">
                        <g transform="matrix(1, 0, 0, 1, -9, -6)" filter="url(#Trazado_982547)">
                          <g id="Trazado_982547-2" data-name="Trazado 982547" transform="translate(9 6)" fill="#cefcf7">
                            <path d="M 47.5 93.5 C 41.28937149047852 93.5 35.26533508300781 92.28397369384766 29.59518623352051 89.88570404052734 C 24.11771965026855 87.56893157958984 19.19813346862793 84.25196075439453 14.97309303283691 80.02691650390625 C 10.74804019927979 75.80186462402344 7.431066513061523 70.88229370117188 5.114293098449707 65.40481567382812 C 2.716026782989502 59.73468017578125 1.5 53.71062850952148 1.5 47.5 C 1.5 41.28937149047852 2.716026782989502 35.26533508300781 5.114293098449707 29.59518623352051 C 7.431066513061523 24.11771965026855 10.74804019927979 19.19813346862793 14.97309303283691 14.97309303283691 C 19.19813346862793 10.74804019927979 24.11771965026855 7.431066513061523 29.59518623352051 5.114293098449707 C 35.26533508300781 2.716026782989502 41.28937149047852 1.5 47.5 1.5 C 53.71062850952148 1.5 59.73468017578125 2.716026782989502 65.40481567382812 5.114293098449707 C 70.88229370117188 7.431066513061523 75.80186462402344 10.74804019927979 80.02691650390625 14.97309303283691 C 84.25196075439453 19.19813346862793 87.56893157958984 24.11771965026855 89.88570404052734 29.59518623352051 C 92.28397369384766 35.26533508300781 93.5 41.28937149047852 93.5 47.5 C 93.5 53.71062850952148 92.28397369384766 59.73468017578125 89.88570404052734 65.40481567382812 C 87.56893157958984 70.88229370117188 84.25196075439453 75.80186462402344 80.02691650390625 80.02691650390625 C 75.80186462402344 84.25196075439453 70.88229370117188 87.56893157958984 65.40481567382812 89.88570404052734 C 59.73468017578125 92.28397369384766 53.71062850952148 93.5 47.5 93.5 Z" stroke="none"/>
                            <path d="M 47.5 3 C 41.49121475219727 3 35.66376876831055 4.176155090332031 30.17950439453125 6.495796203613281 C 24.88084411621094 8.736953735351562 20.12152099609375 11.94598388671875 16.03375244140625 16.03375244140625 C 11.94598388671875 20.12152099609375 8.736953735351562 24.88084411621094 6.495796203613281 30.17950439453125 C 4.176155090332031 35.66376876831055 3 41.49121475219727 3 47.5 C 3 53.50878524780273 4.176155090332031 59.33623123168945 6.495796203613281 64.82049560546875 C 8.736953735351562 70.11915588378906 11.94598388671875 74.87847900390625 16.03375244140625 78.96624755859375 C 20.12152099609375 83.05401611328125 24.88084411621094 86.26304626464844 30.17950439453125 88.50419616699219 C 35.66376876831055 90.82384490966797 41.49121475219727 92 47.5 92 C 53.50878524780273 92 59.33623123168945 90.82384490966797 64.82049560546875 88.50419616699219 C 70.11915588378906 86.26304626464844 74.87847900390625 83.05401611328125 78.96624755859375 78.96624755859375 C 83.05401611328125 74.87847900390625 86.26304626464844 70.11915588378906 88.50419616699219 64.82049560546875 C 90.82384490966797 59.33623123168945 92 53.50878524780273 92 47.5 C 92 41.49121475219727 90.82384490966797 35.66376876831055 88.50419616699219 30.17950439453125 C 86.26304626464844 24.88084411621094 83.05401611328125 20.12152099609375 78.96624755859375 16.03375244140625 C 74.87847900390625 11.94598388671875 70.11915588378906 8.736953735351562 64.82049560546875 6.495796203613281 C 59.33623123168945 4.176155090332031 53.50878524780273 3 47.5 3 M 47.5 0 C 73.7335205078125 0 95 21.2664794921875 95 47.5 C 95 73.7335205078125 73.7335205078125 95 47.5 95 C 21.2664794921875 95 0 73.7335205078125 0 47.5 C 0 21.2664794921875 21.2664794921875 0 47.5 0 Z" stroke="none" fill="#098576"/>
                          </g>
                        </g>
                      </g>
                    </g>
                  </g>
                </g>
              </g>
            </g>
          </g>
        </g>
      </g>
    </g>
    <g id="retencion-de-clientes" transform="translate(1227.738 5615.892)">
      <g id="Grupo_1231159" data-name="Grupo 1231159" transform="translate(9.352 22.458)">
        <g id="Grupo_1231157" data-name="Grupo 1231157" transform="translate(11.405 9.49)">
          <path id="Trazado_1220466" data-name="Trazado 1220466" d="M117.706,141.218a23.5,23.5,0,1,0-23.506-23.5A23.551,23.551,0,0,0,117.706,141.218Z" transform="translate(-94.2 -94.209)" fill="#837683" fill-rule="evenodd"/>
          <path id="Trazado_1220467" data-name="Trazado 1220467" d="M262.115,117.715A23.5,23.5,0,0,1,240.7,141.127q1.033.092,2.091.092a23.606,23.606,0,0,0,3.365-.239c.142-.019.283-.042.422-.064a23.507,23.507,0,0,0-3.787-46.707q-1.058,0-2.091.092A23.506,23.506,0,0,1,262.115,117.715Z" transform="translate(-219.284 -94.209)" fill="#685e68" fill-rule="evenodd"/>
          <path id="Trazado_1220468" data-name="Trazado 1220468" d="M159.671,270.506a16.422,16.422,0,0,0-16.321,14.65,23.5,23.5,0,0,0,32.64,0A16.415,16.415,0,0,0,159.671,270.506Z" transform="translate(-136.165 -244.735)" fill="#8ac9fe" fill-rule="evenodd"/>
          <path id="Trazado_1220469" data-name="Trazado 1220469" d="M240.718,270.639c9.769,1.241,13.706,8.634,14.611,17.493a23.36,23.36,0,0,0,3.8-2.976,16.415,16.415,0,0,0-16.318-14.65A16.17,16.17,0,0,0,240.718,270.639Z" transform="translate(-219.3 -244.735)" fill="#60b7ff" fill-rule="evenodd"/>
          <path id="Trazado_1220470" data-name="Trazado 1220470" d="M206.533,165.083a8.3,8.3,0,1,0-8.3-8.3A8.316,8.316,0,0,0,206.533,165.083Z" transform="translate(-183.027 -140.553)" fill="#f6dccd" fill-rule="evenodd"/>
          <path id="Trazado_1220471" data-name="Trazado 1220471" d="M255.113,156.785a8.3,8.3,0,0,1-7.254,8.234,8.666,8.666,0,0,0,1.044.064,8.3,8.3,0,1,0,0-16.6,8.635,8.635,0,0,0-1.044.064A8.3,8.3,0,0,1,255.113,156.785Z" transform="translate(-225.397 -140.553)" fill="#f1cbbc" fill-rule="evenodd"/>
        </g>
        <g id="Grupo_1231158" data-name="Grupo 1231158" transform="translate(0 0)">
          <path id="Trazado_1220472" data-name="Trazado 1220472" d="M95.266,51.167l.121-.246a1.667,1.667,0,0,1,2.99,1.475l-1.987,4.03a1.667,1.667,0,0,1-2.261.744l-3.992-2.063a1.667,1.667,0,0,1,1.531-2.962l.5.258a30.349,30.349,0,0,0-58,3.663,1.667,1.667,0,1,1-3.247-.756,33.683,33.683,0,0,1,64.346-4.143Z" transform="translate(-28.728 -29.289)" fill="#ffe177" fill-rule="evenodd"/>
          <path id="Trazado_1220473" data-name="Trazado 1220473" d="M19.459,291.59l-.125.244a1.667,1.667,0,0,1-2.967-1.521l2.05-4a1.667,1.667,0,0,1,2.272-.709l3.959,2.124a1.667,1.667,0,0,1-1.576,2.938l-.5-.266a30.349,30.349,0,0,0,58.051-2.766,1.667,1.667,0,0,1,3.235.806,33.683,33.683,0,0,1-64.4,3.147Z" transform="translate(-16.183 -247.968)" fill="#ffe177" fill-rule="evenodd"/>
        </g>
      </g>
      <path id="Trazado_1220474" data-name="Trazado 1220474" d="M76.309,42.257a2.836,2.836,0,0,1,3.741,3.826l-1.987,4.03a2.837,2.837,0,0,1-3.846,1.265l-3.992-2.063a2.836,2.836,0,0,1,.665-5.283A29.178,29.178,0,0,0,15.93,49.5,2.837,2.837,0,0,1,10.4,48.215a34.851,34.851,0,0,1,65.9-5.958Zm-1.515,2.49a32.513,32.513,0,0,0-62.112,4,.5.5,0,1,0,.969.226,31.518,31.518,0,0,1,60.237-3.806,1.169,1.169,0,0,1-1.633,1.446l-.5-.258a.5.5,0,1,0-.457.884L75.29,49.3a.5.5,0,0,0,.675-.222l1.988-4.03a.5.5,0,0,0-.893-.44l-.121.246a1.169,1.169,0,0,1-2.144-.107ZM17.622,66.463A29.178,29.178,0,0,0,72.66,61.844a2.837,2.837,0,0,1,5.5,1.372,34.851,34.851,0,0,1-65.989,4.938A2.836,2.836,0,0,1,8.495,64.27l2.05-4a2.837,2.837,0,0,1,3.865-1.205l3.959,2.124a2.836,2.836,0,0,1-.747,5.273Zm-3.893-.776A32.513,32.513,0,0,0,75.9,62.65a.5.5,0,1,0-.966-.241,31.518,31.518,0,0,1-60.288,2.873A1.17,1.17,0,0,1,16.3,63.862l.5.266a.5.5,0,1,0,.47-.877L13.3,61.127a.5.5,0,0,0-.678.212l-2.05,4a.5.5,0,1,0,.886.454l.125-.244a1.169,1.169,0,0,1,2.142.14Zm30.534-34.91A24.675,24.675,0,1,1,19.587,55.453,24.674,24.674,0,0,1,44.262,30.778Zm17.058,39.1a22.337,22.337,0,1,0-34.116,0A17.622,17.622,0,0,1,39.071,57.333a9.471,9.471,0,1,1,10.382,0A17.622,17.622,0,0,1,61.321,69.875Zm-32.14,2.056a22.34,22.34,0,0,0,30.163,0,15.241,15.241,0,0,0-30.163,0ZM44.262,56.553a7.132,7.132,0,1,0-7.132-7.132A7.151,7.151,0,0,0,44.262,56.553Z" transform="translate(0 0)" fill-rule="evenodd"/>
    </g>
  </g>
</svg>
