<svg xmlns="http://www.w3.org/2000/svg" xmlns:xlink="http://www.w3.org/1999/xlink" width="106.16" height="106.161" viewBox="0 0 106.16 106.161">
  <defs>
    <filter id="Trazado_982547" x="0" y="0" width="106.16" height="106.161" filterUnits="userSpaceOnUse">
      <feOffset dy="3" input="SourceAlpha"/>
      <feGaussianBlur stdDeviation="3" result="blur"/>
      <feFlood flood-opacity="0.161"/>
      <feComposite operator="in" in2="blur"/>
      <feComposite in="SourceGraphic"/>
    </filter>
  </defs>
  <g id="Grupo_1230958" data-name="Grupo 1230958" transform="translate(-190.75 -7273.415)">
    <g id="Grupo_1230691" data-name="Grupo 1230691" transform="translate(-0.25 3811.95)">
      <g id="Grupo_1224851" data-name="Grupo 1224851" transform="translate(0 1738.464)">
        <g id="Grupo_1206130" data-name="Grupo 1206130" transform="translate(0 -59)">
          <g id="Grupo_1203672" data-name="Grupo 1203672" transform="translate(0.08 -4797.878)">
            <g id="Grupo_1203344" data-name="Grupo 1203344" transform="translate(-81.08 5174.875)">
              <g id="Grupo_1177900" data-name="Grupo 1177900" transform="translate(281 1411.003)">
                <g id="Grupo_1172010" data-name="Grupo 1172010" transform="translate(0)">
                  <g id="Grupo_1171046" data-name="Grupo 1171046">
                    <g id="Grupo_1148525" data-name="Grupo 1148525">
                      <g transform="matrix(1, 0, 0, 1, -9, -6)" filter="url(#Trazado_982547)">
                        <g id="Trazado_982547-2" data-name="Trazado 982547" transform="translate(9 6)" fill="#e5ebfb">
                          <path d="M 44.0802001953125 86.660400390625 C 38.33124923706055 86.660400390625 32.75506210327148 85.53479766845703 27.50652503967285 83.31484985351562 C 22.43628692626953 81.17032623291016 17.88242530822754 78.09992218017578 13.97144985198975 74.18894958496094 C 10.06047534942627 70.27797698974609 6.99007511138916 65.72411346435547 4.845550060272217 60.65387344360352 C 2.625600099563599 55.40533828735352 1.500000238418579 49.82915115356445 1.500000238418579 44.0802001953125 C 1.500000238418579 38.33124923706055 2.625600099563599 32.75506210327148 4.845550060272217 27.50652503967285 C 6.99007511138916 22.43628692626953 10.06047534942627 17.88242530822754 13.97144985198975 13.97144985198975 C 17.88242530822754 10.06047534942627 22.43628692626953 6.99007511138916 27.50652503967285 4.845550060272217 C 32.75506210327148 2.625600099563599 38.33124923706055 1.500000238418579 44.0802001953125 1.500000238418579 C 49.82915115356445 1.500000238418579 55.40533828735352 2.625600099563599 60.65387344360352 4.845550060272217 C 65.72411346435547 6.99007511138916 70.27797698974609 10.06047534942627 74.18894958496094 13.97144985198975 C 78.09992218017578 17.88242530822754 81.17032623291016 22.43628692626953 83.31484985351562 27.50652503967285 C 85.53479766845703 32.75506210327148 86.660400390625 38.33124923706055 86.660400390625 44.0802001953125 C 86.660400390625 49.82915115356445 85.53479766845703 55.40533828735352 83.31484985351562 60.65387344360352 C 81.17032623291016 65.72411346435547 78.09992218017578 70.27797698974609 74.18894958496094 74.18894958496094 C 70.27797698974609 78.09992218017578 65.72411346435547 81.17032623291016 60.65387344360352 83.31484985351562 C 55.40533828735352 85.53479766845703 49.82915115356445 86.660400390625 44.0802001953125 86.660400390625 Z" stroke="none"/>
                          <path d="M 44.0802001953125 3 C 38.53308486938477 3 33.15349960327148 4.085746765136719 28.09085845947266 6.227058410644531 C 23.19941711425781 8.29595947265625 18.80581665039062 11.25841522216797 15.03211212158203 15.03211212158203 C 11.25841522216797 18.80581665039062 8.29595947265625 23.19941711425781 6.227058410644531 28.09085845947266 C 4.085746765136719 33.15349960327148 3 38.53308486938477 3 44.0802001953125 C 3 49.62731552124023 4.085746765136719 55.00691604614258 6.227058410644531 60.06954193115234 C 8.29595947265625 64.96098327636719 11.25841522216797 69.35458374023438 15.03211212158203 73.12828826904297 C 18.80581665039062 76.90198516845703 23.19941711425781 79.86444091796875 28.09085845947266 81.93334197998047 C 33.15349960327148 84.07466125488281 38.53308486938477 85.160400390625 44.0802001953125 85.160400390625 C 49.62731552124023 85.160400390625 55.00691604614258 84.07466125488281 60.06954193115234 81.93334197998047 C 64.96099853515625 79.86444091796875 69.35458374023438 76.90198516845703 73.12828826904297 73.12828826904297 C 76.90198516845703 69.35458374023438 79.86444091796875 64.96099853515625 81.93334197998047 60.06954193115234 C 84.07466125488281 55.00691604614258 85.160400390625 49.62731552124023 85.160400390625 44.0802001953125 C 85.160400390625 38.53308486938477 84.07466125488281 33.15349960327148 81.93334197998047 28.09085845947266 C 79.86444091796875 23.19941711425781 76.90198516845703 18.80581665039062 73.12828826904297 15.03211212158203 C 69.35458374023438 11.25841522216797 64.96098327636719 8.29595947265625 60.06954193115234 6.227058410644531 C 55.00691604614258 4.085746765136719 49.62731552124023 3 44.0802001953125 3 M 44.0802001953125 0 C 68.42502593994141 0 88.160400390625 19.73538970947266 88.160400390625 44.0802001953125 C 88.160400390625 68.42502593994141 68.42502593994141 88.160400390625 44.0802001953125 88.160400390625 C 19.73538970947266 88.160400390625 0 68.42502593994141 0 44.0802001953125 C 0 19.73538970947266 19.73538970947266 0 44.0802001953125 0 Z" stroke="none" fill="#0b47db"/>
                        </g>
                      </g>
                    </g>
                  </g>
                </g>
              </g>
            </g>
          </g>
        </g>
      </g>
    </g>
    <g id="claridad_1_" data-name="claridad (1)" transform="translate(212.043 7277.158)">
      <g id="Grupo_1230956" data-name="Grupo 1230956" transform="translate(0.993 28.993)">
        <path id="Trazado_1219987" data-name="Trazado 1219987" d="M102.336,159.59c-5.244-12.691,2.682-14.441,5.4-22.552a15.682,15.682,0,0,0-.41-11c-6.566-16.969-35.541-12.371-37.129,5.187-.287,3.154.9,4.746-3.679,10.615-2.247,3.642,1.141,3.665,2.729,3.71-1.637,1.411-.117,2.647.806,2.918-1.818.738-1.288,2.4.335,2.955-2.665,6.259,2.043,6.484,8.684,5.132l1.011,4.157a1.789,1.789,0,0,0,1.756,1.383h18.824a1.809,1.809,0,0,0,1.671-2.5Z" transform="translate(-58.599 -115.423)" fill="#fbbd80" fill-rule="evenodd"/>
        <path id="Trazado_1219988" data-name="Trazado 1219988" d="M166.585,169.24c1.329,1.619,4.1,2.286,4.455,5.907a.49.49,0,0,0,.488.445h1.093a.488.488,0,0,0,.488-.441,11.583,11.583,0,0,0-.841-5.815,3.825,3.825,0,0,0,2.05-3.119,3.8,3.8,0,0,0,2.009-3.3,3.73,3.73,0,0,0-1.408-2.9,4.9,4.9,0,0,0,.3-1.678,5.34,5.34,0,0,0-5.08-5.179,4.1,4.1,0,0,0-3.761-2.341,4.216,4.216,0,0,0-2.819,1.059,4.179,4.179,0,0,0-3.259-1.524,4.1,4.1,0,0,0-3.731,2.272,5.9,5.9,0,0,0-1.024-.089,5.372,5.372,0,0,0-5.532,5.193,4.919,4.919,0,0,0,.731,2.579,4.912,4.912,0,0,0-.406,1.961,5.369,5.369,0,0,0,5.528,5.2,5.975,5.975,0,0,0,1.363-.16,6.086,6.086,0,0,0,5.552,3.041,6.864,6.864,0,0,0,3.807-1.1Z" transform="translate(-132.377 -146.013)" fill="#ff4646" fill-rule="evenodd"/>
        <path id="Trazado_1219989" data-name="Trazado 1219989" d="M221.646,188.451a5.241,5.241,0,1,1-7.161,1.917A5.243,5.243,0,0,1,221.646,188.451Z" transform="translate(-188.23 -178.766)" fill="#e2e7f0" fill-rule="evenodd"/>
        <path id="Trazado_1219990" data-name="Trazado 1219990" d="M20.078,136.712a3.921,3.921,0,1,0-7.838,0H11.1a3.094,3.094,0,1,0,0,6.187h8.992a3.094,3.094,0,1,0-.01-6.187Z" transform="translate(-8 -130.511)" fill="#e2e7f0" fill-rule="evenodd"/>
        <path id="Trazado_1219991" data-name="Trazado 1219991" d="M393.8,136.712a3.921,3.921,0,1,0-7.838,0h-1.145a3.094,3.094,0,1,0,0,6.187h8.995a3.094,3.094,0,1,0-.012-6.187Z" transform="translate(-335.315 -130.511)" fill="#e2e7f0" fill-rule="evenodd"/>
      </g>
      <g id="Grupo_1230957" data-name="Grupo 1230957" transform="translate(0 16.74)">
        <path id="Trazado_1219992" data-name="Trazado 1219992" d="M23.972,19.125a.994.994,0,1,1,1.921-.515l1.644,6.128a1,1,0,0,1-.7,1.218.979.979,0,0,1-.258.035.994.994,0,0,1-.96-.738Zm9.56,5.95a.994.994,0,0,0,.995-.995V17.735a.995.995,0,0,0-1.989,0v6.346A.994.994,0,0,0,33.532,25.076Zm6.7.88a.971.971,0,0,0,.258.034.994.994,0,0,0,.96-.738l1.639-6.127a.995.995,0,1,0-1.922-.514l-1.64,6.128A1,1,0,0,0,40.23,25.956Zm6.24,2.586a.993.993,0,0,0,1.358-.363L51,22.685a.994.994,0,1,0-1.722-.995l-3.175,5.495A.993.993,0,0,0,46.469,28.542Zm-27.234-.364a.995.995,0,0,0,1.722-1l-3.175-5.493a.994.994,0,0,0-1.722.995Zm14.3,12.3-2.37,2.373-1.137-1.135a.995.995,0,0,0-1.406,1.408l1.841,1.838a1,1,0,0,0,1.407,0l3.073-3.076A1,1,0,0,0,33.54,40.48ZM44.665,42.2a4.692,4.692,0,0,1,1.275,3.2,4.779,4.779,0,0,1-2.074,3.894A4.757,4.757,0,0,1,42.1,52.207a12.734,12.734,0,0,1,.613,5.528,1.481,1.481,0,0,1-1.479,1.339H40.144a1.482,1.482,0,0,1-1.479-1.345c-.2-2.1-1.361-2.979-2.586-3.906-.354-.268-.714-.541-1.049-.844a8.061,8.061,0,0,1-3.634.844,7.29,7.29,0,0,1-6.051-2.935,6.924,6.924,0,0,1-.862.056,6.371,6.371,0,0,1-6.524-6.19,5.893,5.893,0,0,1,.312-1.892,5.9,5.9,0,0,1-.635-2.649,6.371,6.371,0,0,1,6.524-6.19c.166,0,.332.006.5.017a5.247,5.247,0,0,1,7.624-.99,5.25,5.25,0,0,1,2.713-.745,5.133,5.133,0,0,1,4.4,2.409,6.333,6.333,0,0,1,5.44,6.1,5.928,5.928,0,0,1-.163,1.38Zm-.713,3.2a2.748,2.748,0,0,0-1.022-2.108,3.232,3.232,0,0,0-2.07-.736.995.995,0,1,1,0-1.989,5.285,5.285,0,0,1,1.977.381c0-.042,0-.084,0-.127a4.369,4.369,0,0,0-4.161-4.186,1,1,0,0,1-.829-.58,3.1,3.1,0,0,0-2.857-1.757,3.229,3.229,0,0,0-2.157.806.994.994,0,0,1-1.437-.118,3.161,3.161,0,0,0-2.485-1.154,3.242,3.242,0,0,0-2.076.739,6.6,6.6,0,0,1,1.131.621.994.994,0,0,1-1.122,1.642,4.737,4.737,0,0,0-2.687-.82,4.382,4.382,0,0,0-4.535,4.2,3.958,3.958,0,0,0,.561,2.029c.009.012.016.026.024.038a4.42,4.42,0,0,0,1.952,1.706.994.994,0,0,1-.415,1.9.974.974,0,0,1-.412-.091,6.52,6.52,0,0,1-1.382-.854,4.4,4.4,0,0,0,4.53,4.013h.047a4.783,4.783,0,0,1-.084-.9.995.995,0,0,1,1.989,0,2.967,2.967,0,0,0,.3,1.284l.022.045A5.106,5.106,0,0,0,31.4,51.83a5.284,5.284,0,0,0,4.485-2.17.994.994,0,0,1,1.689,1.05,5.849,5.849,0,0,1-.869,1.075c.184.149.38.3.581.449a7.087,7.087,0,0,1,3.309,4.848h.184A10.525,10.525,0,0,0,40,52.269a10.06,10.06,0,0,0-.755-1.457.994.994,0,1,1,1.685-1.057c.111.176.215.356.317.539a2.7,2.7,0,0,0,.7-1.651,1,1,0,0,1,.51-.812,2.789,2.789,0,0,0,1.5-2.435Zm-6.765.441A6.2,6.2,0,0,1,33.4,48.745a6.282,6.282,0,0,1-1.625.216,6.24,6.24,0,1,1,5.411-3.124Zm-3.277-6.795a4.248,4.248,0,1,0,1.555,5.8,4.224,4.224,0,0,0-1.555-5.8Zm29.664-1.252a4.093,4.093,0,0,1-4.088,4.088h-7.9a15.982,15.982,0,0,1-.508,8.552,24.206,24.206,0,0,1-3.709,6.616C44.525,61,42.28,64.131,45.652,72.285a2.8,2.8,0,0,1-2.591,3.874H24.232a2.8,2.8,0,0,1-2.722-2.138l-.786-3.24c-4.941.913-7.64.6-8.948-1-.909-1.115-.992-2.693-.246-4.809a2.617,2.617,0,0,1-1.218-2.038,2.108,2.108,0,0,1,.4-1.3,2.576,2.576,0,0,1-.744-1.281,2.145,2.145,0,0,1-.01-.851A3.208,3.208,0,0,1,7.443,58.06c-.517-.957-.313-2.158.622-3.67a.867.867,0,0,1,.062-.088c3.433-4.406,3.425-6.174,3.416-8.223,0-.584,0-1.186.057-1.875a16.964,16.964,0,0,1,.375-2.323H4.09a4.089,4.089,0,0,1,0-8.178h.22a4.918,4.918,0,0,1,9.7.109,4.094,4.094,0,0,1,1.716.869,20.648,20.648,0,0,1,7.458-5.249,24.712,24.712,0,0,1,10.333-1.918c6.119.192,11.4,2.688,14.684,6.894a4.064,4.064,0,0,1,2.292-.7h.22a4.917,4.917,0,0,1,9.7.108,4.1,4.1,0,0,1,3.159,3.978Zm-50.494,2.1a2.1,2.1,0,1,0-1.671-3.371A.994.994,0,1,1,9.832,35.31a4.074,4.074,0,0,1,2.158-1.459,2.926,2.926,0,0,0-5.764.81.995.995,0,0,1-.993,1.031H4.089a2.1,2.1,0,1,0,0,4.2Zm36.434,1.869a4.084,4.084,0,0,1-2.658-5.834c-2.9-3.914-7.74-6.246-13.4-6.425-6.477-.2-12.893,2.472-16.546,6.855a4.043,4.043,0,0,1,.261,1.434,4.1,4.1,0,0,1-3.113,3.97,14.918,14.918,0,0,0-.478,2.621c-.053.595-.051,1.15-.048,1.686.011,2.31.021,4.492-3.8,9.41-.731,1.2-.559,1.6-.536,1.637.242.449,1.856.494,2.387.509l.092,0a1,1,0,0,1,.621,1.748c-.258.222-.4.435-.376.555a1.307,1.307,0,0,0,.808.651.994.994,0,0,1,.1,1.875c-.346.142-.525.319-.522.42,0,.164.264.494.806.679a.995.995,0,0,1,.592,1.331c-.524,1.229-1.016,2.858-.38,3.638.81.993,3.484,1.036,7.951.127a.994.994,0,0,1,1.165.74l1.01,4.161a.792.792,0,0,0,.79.62H43.061a.815.815,0,0,0,.751-1.129c-1.717-4.152-2.21-7.475-1.55-10.451a17.99,17.99,0,0,1,3.487-6.7,22.573,22.573,0,0,0,3.44-6.088,14.139,14.139,0,0,0,.327-8.039Zm12.071-3.968a2.1,2.1,0,0,0-3.771-1.271.994.994,0,1,1-1.578-1.209,4.067,4.067,0,0,1,2.158-1.459,2.927,2.927,0,0,0-5.765.811.995.995,0,0,1-.993,1.031H50.492a2.1,2.1,0,0,0,0,4.2h8.992a2.1,2.1,0,0,0,2.1-2.1Z" transform="translate(0 -16.74)"/>
      </g>
    </g>
  </g>
</svg>
