<svg xmlns="http://www.w3.org/2000/svg" xmlns:xlink="http://www.w3.org/1999/xlink" width="106.16" height="106.161" viewBox="0 0 106.16 106.161">
  <defs>
    <filter id="Trazado_982547" x="0" y="0" width="106.16" height="106.161" filterUnits="userSpaceOnUse">
      <feOffset dy="3" input="SourceAlpha"/>
      <feGaussianBlur stdDeviation="3" result="blur"/>
      <feFlood flood-opacity="0.161"/>
      <feComposite operator="in" in2="blur"/>
      <feComposite in="SourceGraphic"/>
    </filter>
  </defs>
  <g id="Grupo_1230962" data-name="Grupo 1230962" transform="translate(-820.25 -7273.415)">
    <g id="Grupo_1230692" data-name="Grupo 1230692" transform="translate(-0.25 3811.95)">
      <g id="Grupo_1224852" data-name="Grupo 1224852" transform="translate(629.5 1738.464)">
        <g id="Grupo_1206130" data-name="Grupo 1206130" transform="translate(0 -59)">
          <g id="Grupo_1203672" data-name="Grupo 1203672" transform="translate(0.08 -4797.878)">
            <g id="Grupo_1203344" data-name="Grupo 1203344" transform="translate(-81.08 5174.875)">
              <g id="Grupo_1177900" data-name="Grupo 1177900" transform="translate(281 1411.003)">
                <g id="Grupo_1172010" data-name="Grupo 1172010" transform="translate(0)">
                  <g id="Grupo_1171046" data-name="Grupo 1171046">
                    <g id="Grupo_1148525" data-name="Grupo 1148525">
                      <g transform="matrix(1, 0, 0, 1, -9, -6)" filter="url(#Trazado_982547)">
                        <g id="Trazado_982547-2" data-name="Trazado 982547" transform="translate(9 6)" fill="#e5ebfb">
                          <path d="M 44.0802001953125 86.660400390625 C 38.33124923706055 86.660400390625 32.75506210327148 85.53479766845703 27.50652503967285 83.31484985351562 C 22.43628692626953 81.17032623291016 17.88242530822754 78.09992218017578 13.97144985198975 74.18894958496094 C 10.06047534942627 70.27797698974609 6.99007511138916 65.72411346435547 4.845550060272217 60.65387344360352 C 2.625600099563599 55.40533828735352 1.500000238418579 49.82915115356445 1.500000238418579 44.0802001953125 C 1.500000238418579 38.33124923706055 2.625600099563599 32.75506210327148 4.845550060272217 27.50652503967285 C 6.99007511138916 22.43628692626953 10.06047534942627 17.88242530822754 13.97144985198975 13.97144985198975 C 17.88242530822754 10.06047534942627 22.43628692626953 6.99007511138916 27.50652503967285 4.845550060272217 C 32.75506210327148 2.625600099563599 38.33124923706055 1.500000238418579 44.0802001953125 1.500000238418579 C 49.82915115356445 1.500000238418579 55.40533828735352 2.625600099563599 60.65387344360352 4.845550060272217 C 65.72411346435547 6.99007511138916 70.27797698974609 10.06047534942627 74.18894958496094 13.97144985198975 C 78.09992218017578 17.88242530822754 81.17032623291016 22.43628692626953 83.31484985351562 27.50652503967285 C 85.53479766845703 32.75506210327148 86.660400390625 38.33124923706055 86.660400390625 44.0802001953125 C 86.660400390625 49.82915115356445 85.53479766845703 55.40533828735352 83.31484985351562 60.65387344360352 C 81.17032623291016 65.72411346435547 78.09992218017578 70.27797698974609 74.18894958496094 74.18894958496094 C 70.27797698974609 78.09992218017578 65.72411346435547 81.17032623291016 60.65387344360352 83.31484985351562 C 55.40533828735352 85.53479766845703 49.82915115356445 86.660400390625 44.0802001953125 86.660400390625 Z" stroke="none"/>
                          <path d="M 44.0802001953125 3 C 38.53308486938477 3 33.15349960327148 4.085746765136719 28.09085845947266 6.227058410644531 C 23.19941711425781 8.29595947265625 18.80581665039062 11.25841522216797 15.03211212158203 15.03211212158203 C 11.25841522216797 18.80581665039062 8.29595947265625 23.19941711425781 6.227058410644531 28.09085845947266 C 4.085746765136719 33.15349960327148 3 38.53308486938477 3 44.0802001953125 C 3 49.62731552124023 4.085746765136719 55.00691604614258 6.227058410644531 60.06954193115234 C 8.29595947265625 64.96098327636719 11.25841522216797 69.35458374023438 15.03211212158203 73.12828826904297 C 18.80581665039062 76.90198516845703 23.19941711425781 79.86444091796875 28.09085845947266 81.93334197998047 C 33.15349960327148 84.07466125488281 38.53308486938477 85.160400390625 44.0802001953125 85.160400390625 C 49.62731552124023 85.160400390625 55.00691604614258 84.07466125488281 60.06954193115234 81.93334197998047 C 64.96099853515625 79.86444091796875 69.35458374023438 76.90198516845703 73.12828826904297 73.12828826904297 C 76.90198516845703 69.35458374023438 79.86444091796875 64.96099853515625 81.93334197998047 60.06954193115234 C 84.07466125488281 55.00691604614258 85.160400390625 49.62731552124023 85.160400390625 44.0802001953125 C 85.160400390625 38.53308486938477 84.07466125488281 33.15349960327148 81.93334197998047 28.09085845947266 C 79.86444091796875 23.19941711425781 76.90198516845703 18.80581665039062 73.12828826904297 15.03211212158203 C 69.35458374023438 11.25841522216797 64.96098327636719 8.29595947265625 60.06954193115234 6.227058410644531 C 55.00691604614258 4.085746765136719 49.62731552124023 3 44.0802001953125 3 M 44.0802001953125 0 C 68.42502593994141 0 88.160400390625 19.73538970947266 88.160400390625 44.0802001953125 C 88.160400390625 68.42502593994141 68.42502593994141 88.160400390625 44.0802001953125 88.160400390625 C 19.73538970947266 88.160400390625 0 68.42502593994141 0 44.0802001953125 C 0 19.73538970947266 19.73538970947266 0 44.0802001953125 0 Z" stroke="none" fill="#0b47db"/>
                        </g>
                      </g>
                    </g>
                  </g>
                </g>
              </g>
            </g>
          </g>
        </g>
      </g>
    </g>
    <g id="especifico" transform="translate(833.335 7283.604)">
      <g id="Grupo_1230961" data-name="Grupo 1230961" transform="translate(9.871 9.879)">
        <g id="Grupo_1230959" data-name="Grupo 1230959" transform="translate(0)">
          <path id="Trazado_1219993" data-name="Trazado 1219993" d="M74.27,51.115A6.67,6.67,0,0,0,69.555,62.5a1.979,1.979,0,0,1,0,2.8l-4.26,4.26a1.979,1.979,0,0,1-2.8,0,6.67,6.67,0,0,0-11.381,4.714,1.979,1.979,0,0,1-1.979,1.979H43.112a1.979,1.979,0,0,1-1.979-1.979,6.667,6.667,0,0,0-11.381-4.714,1.979,1.979,0,0,1-2.8,0l-4.26-4.26a1.979,1.979,0,0,1,0-2.8,6.67,6.67,0,0,0-4.714-11.381A1.979,1.979,0,0,1,16,49.136V43.111a1.979,1.979,0,0,1,1.979-1.979,6.67,6.67,0,0,0,4.714-11.381,1.979,1.979,0,0,1,0-2.8l4.26-4.26a1.979,1.979,0,0,1,2.8,0,6.67,6.67,0,0,0,11.381-4.714A1.979,1.979,0,0,1,43.112,16h6.025a1.979,1.979,0,0,1,1.979,1.979A6.67,6.67,0,0,0,62.5,22.692a1.979,1.979,0,0,1,2.8,0l4.26,4.26a1.979,1.979,0,0,1,0,2.8A6.67,6.67,0,0,0,74.27,41.132a1.979,1.979,0,0,1,1.979,1.979v6.025a1.979,1.979,0,0,1-1.979,1.979Z" transform="translate(-16 -15.999)" fill="#fdcd56" fill-rule="evenodd"/>
          <path id="Trazado_1219994" data-name="Trazado 1219994" d="M133.6,116.034A17.568,17.568,0,1,1,116.033,133.6h0A17.568,17.568,0,0,1,133.6,116.034Z" transform="translate(-103.477 -103.478)" fill="#f4f6f8" fill-rule="evenodd"/>
        </g>
        <g id="Grupo_1230960" data-name="Grupo 1230960" transform="translate(25.475 25.475)">
          <path id="Trazado_1219995" data-name="Trazado 1219995" d="M223.607,228.256a4.649,4.649,0,1,0-4.649-4.65A4.659,4.659,0,0,0,223.607,228.256Z" transform="translate(-218.958 -218.957)" fill="#fdcd56" fill-rule="evenodd"/>
        </g>
      </g>
      <path id="Trazado_1219996" data-name="Trazado 1219996" d="M49.787,39.125H54.54a.879.879,0,0,1,0,1.757H49.787l.929.929a.879.879,0,0,1-1.243,1.243l-2.429-2.43a.877.877,0,0,1,0-1.242l2.429-2.43a.879.879,0,0,1,1.243,1.242ZM43.044,49.483A.878.878,0,1,1,41.8,50.724l-.93-.929v4.753a.878.878,0,0,1-1.757,0V49.8l-.93.929a.878.878,0,0,1-1.242-1.241l2.43-2.43a.878.878,0,0,1,1.243,0Zm-10.1-10.1a.877.877,0,0,1,0,1.242l-2.429,2.43a.879.879,0,0,1-1.243-1.243l.929-.929H25.448a.879.879,0,0,1,0-1.757H30.2l-.929-.93a.879.879,0,0,1,1.243-1.242Zm4-8.859a.878.878,0,0,1,1.242-1.242l.93.93V25.457a.878.878,0,1,1,1.757,0v4.754l.929-.93a.879.879,0,0,1,1.243,1.242l-2.429,2.43a.878.878,0,0,1-1.243,0Zm3.051,13.251A3.771,3.771,0,1,1,43.764,40,3.775,3.775,0,0,1,39.994,43.774Zm0-9.3A5.528,5.528,0,1,0,45.522,40a5.534,5.534,0,0,0-5.528-5.528Zm0,22.218A16.69,16.69,0,1,0,23.3,40,16.708,16.708,0,0,0,39.994,56.693Zm0-35.137A18.447,18.447,0,1,0,58.44,40,18.468,18.468,0,0,0,39.994,21.556ZM69.239,43.015V36.991a1.1,1.1,0,0,0-1.1-1.1A7.548,7.548,0,0,1,62.8,23.009a1.1,1.1,0,0,0,0-1.556l-4.26-4.26a1.1,1.1,0,0,0-1.556,0,7.55,7.55,0,0,1-12.882-5.335,1.1,1.1,0,0,0-1.1-1.1H36.982a1.1,1.1,0,0,0-1.1,1.1A7.549,7.549,0,0,1,23,17.193a1.1,1.1,0,0,0-1.557,0l-4.26,4.26a1.1,1.1,0,0,0,0,1.556A7.548,7.548,0,0,1,11.848,35.89a1.1,1.1,0,0,0-1.1,1.1v6.025a1.1,1.1,0,0,0,1.1,1.1A7.548,7.548,0,0,1,17.184,57a1.1,1.1,0,0,0,0,1.557l4.26,4.26a1.1,1.1,0,0,0,1.557,0,7.439,7.439,0,0,1,5.288-2.229,7.655,7.655,0,0,1,2.936.594,7.429,7.429,0,0,1,4.658,6.971,1.1,1.1,0,0,0,1.1,1.1h6.025a1.1,1.1,0,0,0,1.1-1.1,7.55,7.55,0,0,1,12.882-5.335,1.1,1.1,0,0,0,1.556,0l4.26-4.26A1.1,1.1,0,0,0,62.8,57,7.548,7.548,0,0,1,68.14,44.116a1.1,1.1,0,0,0,1.1-1.1Zm-1.1-8.882a5.792,5.792,0,0,1-4.094-9.881,2.856,2.856,0,0,0,0-4.041L59.786,15.95a2.858,2.858,0,0,0-4.041,0,5.792,5.792,0,0,1-9.882-4.093A2.861,2.861,0,0,0,43.006,9H36.982a2.861,2.861,0,0,0-2.857,2.858,5.792,5.792,0,0,1-9.882,4.093,2.859,2.859,0,0,0-4.042,0l-4.259,4.26a2.859,2.859,0,0,0,0,4.042,5.792,5.792,0,0,1-4.094,9.881,2.86,2.86,0,0,0-2.857,2.857v6.025a2.861,2.861,0,0,0,2.857,2.858,5.791,5.791,0,0,1,4.094,9.881,2.859,2.859,0,0,0,0,4.041l4.26,4.26a2.856,2.856,0,0,0,4.042,0,5.788,5.788,0,0,1,9.882,4.093,2.861,2.861,0,0,0,2.857,2.857h6.025a2.86,2.86,0,0,0,2.857-2.857,5.792,5.792,0,0,1,9.882-4.093,2.856,2.856,0,0,0,4.042,0l4.26-4.26a2.856,2.856,0,0,0,0-4.041,5.791,5.791,0,0,1,4.094-9.881A2.862,2.862,0,0,0,71,43.015V36.991a2.861,2.861,0,0,0-2.859-2.857Z" fill-rule="evenodd"/>
    </g>
  </g>
</svg>
