<svg xmlns="http://www.w3.org/2000/svg" xmlns:xlink="http://www.w3.org/1999/xlink" width="106.16" height="106.161" viewBox="0 0 106.16 106.161">
  <defs>
    <filter id="Trazado_982547" x="0" y="0" width="106.16" height="106.161" filterUnits="userSpaceOnUse">
      <feOffset dy="3" input="SourceAlpha"/>
      <feGaussianBlur stdDeviation="3" result="blur"/>
      <feFlood flood-opacity="0.161"/>
      <feComposite operator="in" in2="blur"/>
      <feComposite in="SourceGraphic"/>
    </filter>
  </defs>
  <g id="Grupo_1230976" data-name="Grupo 1230976" transform="translate(-190.75 -7433.415)">
    <g id="Grupo_1230693" data-name="Grupo 1230693" transform="translate(-0.25 3971.95)">
      <g id="Grupo_1224851" data-name="Grupo 1224851" transform="translate(0 1738.464)">
        <g id="Grupo_1206130" data-name="Grupo 1206130" transform="translate(0 -59)">
          <g id="Grupo_1203672" data-name="Grupo 1203672" transform="translate(0.08 -4797.878)">
            <g id="Grupo_1203344" data-name="Grupo 1203344" transform="translate(-81.08 5174.875)">
              <g id="Grupo_1177900" data-name="Grupo 1177900" transform="translate(281 1411.003)">
                <g id="Grupo_1172010" data-name="Grupo 1172010" transform="translate(0)">
                  <g id="Grupo_1171046" data-name="Grupo 1171046">
                    <g id="Grupo_1148525" data-name="Grupo 1148525">
                      <g transform="matrix(1, 0, 0, 1, -9, -6)" filter="url(#Trazado_982547)">
                        <g id="Trazado_982547-2" data-name="Trazado 982547" transform="translate(9 6)" fill="#e5ebfb">
                          <path d="M 44.0802001953125 86.660400390625 C 38.33124923706055 86.660400390625 32.75506210327148 85.53479766845703 27.50652503967285 83.31484985351562 C 22.43628692626953 81.17032623291016 17.88242530822754 78.09992218017578 13.97144985198975 74.18894958496094 C 10.06047534942627 70.27797698974609 6.99007511138916 65.72411346435547 4.845550060272217 60.65387344360352 C 2.625600099563599 55.40533828735352 1.500000238418579 49.82915115356445 1.500000238418579 44.0802001953125 C 1.500000238418579 38.33124923706055 2.625600099563599 32.75506210327148 4.845550060272217 27.50652503967285 C 6.99007511138916 22.43628692626953 10.06047534942627 17.88242530822754 13.97144985198975 13.97144985198975 C 17.88242530822754 10.06047534942627 22.43628692626953 6.99007511138916 27.50652503967285 4.845550060272217 C 32.75506210327148 2.625600099563599 38.33124923706055 1.500000238418579 44.0802001953125 1.500000238418579 C 49.82915115356445 1.500000238418579 55.40533828735352 2.625600099563599 60.65387344360352 4.845550060272217 C 65.72411346435547 6.99007511138916 70.27797698974609 10.06047534942627 74.18894958496094 13.97144985198975 C 78.09992218017578 17.88242530822754 81.17032623291016 22.43628692626953 83.31484985351562 27.50652503967285 C 85.53479766845703 32.75506210327148 86.660400390625 38.33124923706055 86.660400390625 44.0802001953125 C 86.660400390625 49.82915115356445 85.53479766845703 55.40533828735352 83.31484985351562 60.65387344360352 C 81.17032623291016 65.72411346435547 78.09992218017578 70.27797698974609 74.18894958496094 74.18894958496094 C 70.27797698974609 78.09992218017578 65.72411346435547 81.17032623291016 60.65387344360352 83.31484985351562 C 55.40533828735352 85.53479766845703 49.82915115356445 86.660400390625 44.0802001953125 86.660400390625 Z" stroke="none"/>
                          <path d="M 44.0802001953125 3 C 38.53308486938477 3 33.15349960327148 4.085746765136719 28.09085845947266 6.227058410644531 C 23.19941711425781 8.29595947265625 18.80581665039062 11.25841522216797 15.03211212158203 15.03211212158203 C 11.25841522216797 18.80581665039062 8.29595947265625 23.19941711425781 6.227058410644531 28.09085845947266 C 4.085746765136719 33.15349960327148 3 38.53308486938477 3 44.0802001953125 C 3 49.62731552124023 4.085746765136719 55.00691604614258 6.227058410644531 60.06954193115234 C 8.29595947265625 64.96098327636719 11.25841522216797 69.35458374023438 15.03211212158203 73.12828826904297 C 18.80581665039062 76.90198516845703 23.19941711425781 79.86444091796875 28.09085845947266 81.93334197998047 C 33.15349960327148 84.07466125488281 38.53308486938477 85.160400390625 44.0802001953125 85.160400390625 C 49.62731552124023 85.160400390625 55.00691604614258 84.07466125488281 60.06954193115234 81.93334197998047 C 64.96099853515625 79.86444091796875 69.35458374023438 76.90198516845703 73.12828826904297 73.12828826904297 C 76.90198516845703 69.35458374023438 79.86444091796875 64.96099853515625 81.93334197998047 60.06954193115234 C 84.07466125488281 55.00691604614258 85.160400390625 49.62731552124023 85.160400390625 44.0802001953125 C 85.160400390625 38.53308486938477 84.07466125488281 33.15349960327148 81.93334197998047 28.09085845947266 C 79.86444091796875 23.19941711425781 76.90198516845703 18.80581665039062 73.12828826904297 15.03211212158203 C 69.35458374023438 11.25841522216797 64.96098327636719 8.29595947265625 60.06954193115234 6.227058410644531 C 55.00691604614258 4.085746765136719 49.62731552124023 3 44.0802001953125 3 M 44.0802001953125 0 C 68.42502593994141 0 88.160400390625 19.73538970947266 88.160400390625 44.0802001953125 C 88.160400390625 68.42502593994141 68.42502593994141 88.160400390625 44.0802001953125 88.160400390625 C 19.73538970947266 88.160400390625 0 68.42502593994141 0 44.0802001953125 C 0 19.73538970947266 19.73538970947266 0 44.0802001953125 0 Z" stroke="none" fill="#0b47db"/>
                        </g>
                      </g>
                    </g>
                  </g>
                </g>
              </g>
            </g>
          </g>
        </g>
      </g>
    </g>
    <g id="tecnologia_1_" data-name="tecnologia (1)" transform="translate(218.438 7458.216)">
      <g id="Grupo_1230974" data-name="Grupo 1230974" transform="translate(0.819 0.819)">
        <g id="Grupo_1230963" data-name="Grupo 1230963" transform="translate(33.583)">
          <path id="Trazado_1219997" data-name="Trazado 1219997" d="M50.191,1V7.553H42V1Z" transform="translate(-42 -1)" fill="#f0d0b4"/>
        </g>
        <g id="Grupo_1230964" data-name="Grupo 1230964" transform="translate(7.372)">
          <path id="Trazado_1219998" data-name="Trazado 1219998" d="M18.191,1V7.553H10V1Z" transform="translate(-10 -1)" fill="#f0d0b4"/>
        </g>
        <g id="Grupo_1230965" data-name="Grupo 1230965" transform="translate(20.477)">
          <path id="Trazado_1219999" data-name="Trazado 1219999" d="M34.191,1V7.553H26V1Z" transform="translate(-26 -1)" fill="#f0d0b4"/>
        </g>
        <g id="Grupo_1230966" data-name="Grupo 1230966" transform="translate(3.276 11.467)">
          <path id="Trazado_1220000" data-name="Trazado 1220000" d="M47.593,46.125H5V18.276A3.277,3.277,0,0,1,8.276,15h36.04a3.277,3.277,0,0,1,3.276,3.276Z" transform="translate(-5 -15)" fill="#ccd1d9"/>
        </g>
        <g id="Grupo_1230967" data-name="Grupo 1230967" transform="translate(6.553 14.744)">
          <path id="Trazado_1220001" data-name="Trazado 1220001" d="M44.221,43.573H9.819A.819.819,0,0,1,9,42.754V19.819A.819.819,0,0,1,9.819,19h34.4a.819.819,0,0,1,.819.819V42.754A.819.819,0,0,1,44.221,43.573Z" transform="translate(-9 -19)" fill="#69d6f4"/>
        </g>
        <g id="Grupo_1230968" data-name="Grupo 1230968" transform="translate(0 42.593)">
          <path id="Trazado_1220002" data-name="Trazado 1220002" d="M48.507,53H2.638a1.6,1.6,0,0,0-1.155.483A1.6,1.6,0,0,0,1,54.638a4.918,4.918,0,0,0,4.915,4.915H45.231a4.922,4.922,0,0,0,4.915-4.915A1.643,1.643,0,0,0,48.507,53Z" transform="translate(-1 -53)" fill="#969faa"/>
        </g>
        <g id="Grupo_1230969" data-name="Grupo 1230969" transform="translate(40.955 45.869)">
          <path id="Trazado_1220003" data-name="Trazado 1220003" d="M51,57h3.276v3.276H51Z" transform="translate(-51 -57)" fill="#ff826e"/>
        </g>
        <g id="Grupo_1230970" data-name="Grupo 1230970" transform="translate(34.402 45.869)">
          <path id="Trazado_1220004" data-name="Trazado 1220004" d="M43,57h3.276v3.276H43Z" transform="translate(-43 -57)" fill="#ff826e"/>
        </g>
        <g id="Grupo_1230971" data-name="Grupo 1230971" transform="translate(18.839 42.593)">
          <path id="Trazado_1220005" data-name="Trazado 1220005" d="M35.467,53v1.638a1.643,1.643,0,0,1-1.638,1.638H25.638A1.643,1.643,0,0,1,24,54.638V53Z" transform="translate(-24 -53)" fill="#ff826e"/>
        </g>
        <g id="Grupo_1230972" data-name="Grupo 1230972" transform="translate(11.467 23.754)">
          <path id="Trazado_1220006" data-name="Trazado 1220006" d="M41.211,40.648v4.915H35.928v-.025a8.191,8.191,0,1,0-16.013-2.433,8.116,8.116,0,0,0,.377,2.457H15V40.648l2.08-.663A11.9,11.9,0,0,1,18.1,37.511l-1-1.933L20.578,32.1l1.933,1a11.9,11.9,0,0,1,2.474-1.016L25.648,30h4.915l.663,2.08A11.9,11.9,0,0,1,33.7,33.1l1.933-1,3.481,3.481-1,1.933a11.9,11.9,0,0,1,1.016,2.474Z" transform="translate(-15 -30)" fill="#ffc729"/>
        </g>
        <g id="Grupo_1230973" data-name="Grupo 1230973" transform="translate(16.382 28.668)">
          <path id="Trazado_1220007" data-name="Trazado 1220007" d="M37.382,44.191a8.211,8.211,0,0,1-.369,2.433v.025h-5.66a3.235,3.235,0,0,0,1.114-2.457,3.276,3.276,0,0,0-6.553,0,3.235,3.235,0,0,0,1.114,2.457H21.377a8.191,8.191,0,1,1,16.005-2.457Z" transform="translate(-21 -36)" fill="#fcd770"/>
        </g>
      </g>
      <g id="Grupo_1230975" data-name="Grupo 1230975">
        <path id="Trazado_1220008" data-name="Trazado 1220008" d="M48.326,45.125h-.819V18.1a4.1,4.1,0,0,0-4.1-4.1H40.955v1.638h2.457A2.46,2.46,0,0,1,45.869,18.1v27.03H4.915V18.1a2.46,2.46,0,0,1,2.457-2.457H9.829V14H7.372a4.1,4.1,0,0,0-4.1,4.1v27.03H2.457A2.46,2.46,0,0,0,0,47.583a5.741,5.741,0,0,0,5.734,5.734H45.05a5.741,5.741,0,0,0,5.734-5.734A2.46,2.46,0,0,0,48.326,45.125ZM20.477,46.764h9.829v.819a.819.819,0,0,1-.819.819H21.3a.819.819,0,0,1-.819-.819Zm17.2,4.915H36.04V50.04h1.638Zm6.553,0H42.593V50.04h1.638Zm1.638-.083V48.4H40.955v3.276H39.316V48.4H34.4v3.276H5.734a4.1,4.1,0,0,1-4.1-4.1.819.819,0,0,1,.819-.819H18.839v.819A2.46,2.46,0,0,0,21.3,50.04h8.191a2.46,2.46,0,0,0,2.457-2.457v-.819H48.326a.819.819,0,0,1,.819.819A4.1,4.1,0,0,1,45.869,51.6Z" transform="translate(0 -2.533)"/>
        <path id="Trazado_1220009" data-name="Trazado 1220009" d="M19.467,19.638V18H9.638A1.64,1.64,0,0,0,8,19.638V42.573a1.64,1.64,0,0,0,1.638,1.638h34.4a1.64,1.64,0,0,0,1.638-1.638V19.638A1.64,1.64,0,0,0,44.04,18H34.211v1.638H44.04V42.573H40.764V37.88l-2.239-.718a12.336,12.336,0,0,0-.753-1.826l1.075-2.088-4.32-4.32L32.438,30a12.372,12.372,0,0,0-1.826-.753l-.719-2.241h-6.11l-.718,2.239A12.336,12.336,0,0,0,21.241,30l-2.088-1.075-4.32,4.32,1.075,2.088a12.372,12.372,0,0,0-.753,1.826l-2.24.719v4.693H9.638V19.638Zm0,21.3a7.372,7.372,0,1,1,14.54,1.638H30.59a4.1,4.1,0,1,0-7.5,0H19.672A7.377,7.377,0,0,1,19.467,40.935Zm4.915,0a2.457,2.457,0,1,1,4.269,1.638H25.026a2.449,2.449,0,0,1-.645-1.638Zm-9.829-1.86,1.93-.618.12-.423a10.558,10.558,0,0,1,.944-2.291l.215-.384-.926-1.8,2.631-2.631,1.8.926.384-.215a10.558,10.558,0,0,1,2.291-.944l.423-.12.617-1.929H28.7l.618,1.93.423.12a10.558,10.558,0,0,1,2.291.944l.384.215,1.8-.926,2.631,2.631-.926,1.8.215.384a10.558,10.558,0,0,1,.944,2.291l.12.423,1.93.617v3.5H35.694a9.01,9.01,0,1,0-17.71,0H14.553Z" transform="translate(-1.447 -3.256)"/>
        <path id="Trazado_1220010" data-name="Trazado 1220010" d="M13,4h3.276V5.638H13Z" transform="translate(-2.352 -0.724)"/>
        <path id="Trazado_1220011" data-name="Trazado 1220011" d="M29,4h3.276V5.638H29Z" transform="translate(-5.246 -0.724)"/>
        <path id="Trazado_1220012" data-name="Trazado 1220012" d="M45,4h3.276V5.638H45Z" transform="translate(-8.141 -0.724)"/>
        <path id="Trazado_1220013" data-name="Trazado 1220013" d="M29.1,22.115h1.638V8.191h4.1V0H25V8.191h4.1ZM26.638,1.638h6.553V6.553H26.638Z" transform="translate(-4.523)"/>
        <path id="Trazado_1220014" data-name="Trazado 1220014" d="M44.191,11.467H36V22.115h1.638v-9.01h8.191V8.191h4.1V0H40.1V8.191h4.1ZM41.734,1.638h6.553V6.553H41.734Z" transform="translate(-6.513)"/>
        <path id="Trazado_1220015" data-name="Trazado 1220015" d="M13.1,13.105h8.191v9.01h1.638V11.467H14.734V8.191h4.1V0H9V8.191h4.1ZM10.638,1.638h6.553V6.553H10.638Z" transform="translate(-1.628)"/>
      </g>
    </g>
  </g>
</svg>
