<svg xmlns="http://www.w3.org/2000/svg" xmlns:xlink="http://www.w3.org/1999/xlink" width="106.16" height="106.161" viewBox="0 0 106.16 106.161">
  <defs>
    <filter id="Trazado_982547" x="0" y="0" width="106.16" height="106.161" filterUnits="userSpaceOnUse">
      <feOffset dy="3" input="SourceAlpha"/>
      <feGaussianBlur stdDeviation="3" result="blur"/>
      <feFlood flood-opacity="0.161"/>
      <feComposite operator="in" in2="blur"/>
      <feComposite in="SourceGraphic"/>
    </filter>
  </defs>
  <g id="Grupo_1230979" data-name="Grupo 1230979" transform="translate(-820.25 -7433.415)">
    <g id="Grupo_1230694" data-name="Grupo 1230694" transform="translate(-0.25 3971.95)">
      <g id="Grupo_1224852" data-name="Grupo 1224852" transform="translate(629.5 1738.464)">
        <g id="Grupo_1206130" data-name="Grupo 1206130" transform="translate(0 -59)">
          <g id="Grupo_1203672" data-name="Grupo 1203672" transform="translate(0.08 -4797.878)">
            <g id="Grupo_1203344" data-name="Grupo 1203344" transform="translate(-81.08 5174.875)">
              <g id="Grupo_1177900" data-name="Grupo 1177900" transform="translate(281 1411.003)">
                <g id="Grupo_1172010" data-name="Grupo 1172010" transform="translate(0)">
                  <g id="Grupo_1171046" data-name="Grupo 1171046">
                    <g id="Grupo_1148525" data-name="Grupo 1148525">
                      <g transform="matrix(1, 0, 0, 1, -9, -6)" filter="url(#Trazado_982547)">
                        <g id="Trazado_982547-2" data-name="Trazado 982547" transform="translate(9 6)" fill="#e5ebfb">
                          <path d="M 44.0802001953125 86.660400390625 C 38.33124923706055 86.660400390625 32.75506210327148 85.53479766845703 27.50652503967285 83.31484985351562 C 22.43628692626953 81.17032623291016 17.88242530822754 78.09992218017578 13.97144985198975 74.18894958496094 C 10.06047534942627 70.27797698974609 6.99007511138916 65.72411346435547 4.845550060272217 60.65387344360352 C 2.625600099563599 55.40533828735352 1.500000238418579 49.82915115356445 1.500000238418579 44.0802001953125 C 1.500000238418579 38.33124923706055 2.625600099563599 32.75506210327148 4.845550060272217 27.50652503967285 C 6.99007511138916 22.43628692626953 10.06047534942627 17.88242530822754 13.97144985198975 13.97144985198975 C 17.88242530822754 10.06047534942627 22.43628692626953 6.99007511138916 27.50652503967285 4.845550060272217 C 32.75506210327148 2.625600099563599 38.33124923706055 1.500000238418579 44.0802001953125 1.500000238418579 C 49.82915115356445 1.500000238418579 55.40533828735352 2.625600099563599 60.65387344360352 4.845550060272217 C 65.72411346435547 6.99007511138916 70.27797698974609 10.06047534942627 74.18894958496094 13.97144985198975 C 78.09992218017578 17.88242530822754 81.17032623291016 22.43628692626953 83.31484985351562 27.50652503967285 C 85.53479766845703 32.75506210327148 86.660400390625 38.33124923706055 86.660400390625 44.0802001953125 C 86.660400390625 49.82915115356445 85.53479766845703 55.40533828735352 83.31484985351562 60.65387344360352 C 81.17032623291016 65.72411346435547 78.09992218017578 70.27797698974609 74.18894958496094 74.18894958496094 C 70.27797698974609 78.09992218017578 65.72411346435547 81.17032623291016 60.65387344360352 83.31484985351562 C 55.40533828735352 85.53479766845703 49.82915115356445 86.660400390625 44.0802001953125 86.660400390625 Z" stroke="none"/>
                          <path d="M 44.0802001953125 3 C 38.53308486938477 3 33.15349960327148 4.085746765136719 28.09085845947266 6.227058410644531 C 23.19941711425781 8.29595947265625 18.80581665039062 11.25841522216797 15.03211212158203 15.03211212158203 C 11.25841522216797 18.80581665039062 8.29595947265625 23.19941711425781 6.227058410644531 28.09085845947266 C 4.085746765136719 33.15349960327148 3 38.53308486938477 3 44.0802001953125 C 3 49.62731552124023 4.085746765136719 55.00691604614258 6.227058410644531 60.06954193115234 C 8.29595947265625 64.96098327636719 11.25841522216797 69.35458374023438 15.03211212158203 73.12828826904297 C 18.80581665039062 76.90198516845703 23.19941711425781 79.86444091796875 28.09085845947266 81.93334197998047 C 33.15349960327148 84.07466125488281 38.53308486938477 85.160400390625 44.0802001953125 85.160400390625 C 49.62731552124023 85.160400390625 55.00691604614258 84.07466125488281 60.06954193115234 81.93334197998047 C 64.96099853515625 79.86444091796875 69.35458374023438 76.90198516845703 73.12828826904297 73.12828826904297 C 76.90198516845703 69.35458374023438 79.86444091796875 64.96099853515625 81.93334197998047 60.06954193115234 C 84.07466125488281 55.00691604614258 85.160400390625 49.62731552124023 85.160400390625 44.0802001953125 C 85.160400390625 38.53308486938477 84.07466125488281 33.15349960327148 81.93334197998047 28.09085845947266 C 79.86444091796875 23.19941711425781 76.90198516845703 18.80581665039062 73.12828826904297 15.03211212158203 C 69.35458374023438 11.25841522216797 64.96098327636719 8.29595947265625 60.06954193115234 6.227058410644531 C 55.00691604614258 4.085746765136719 49.62731552124023 3 44.0802001953125 3 M 44.0802001953125 0 C 68.42502593994141 0 88.160400390625 19.73538970947266 88.160400390625 44.0802001953125 C 88.160400390625 68.42502593994141 68.42502593994141 88.160400390625 44.0802001953125 88.160400390625 C 19.73538970947266 88.160400390625 0 68.42502593994141 0 44.0802001953125 C 0 19.73538970947266 19.73538970947266 0 44.0802001953125 0 Z" stroke="none" fill="#0b47db"/>
                        </g>
                      </g>
                    </g>
                  </g>
                </g>
              </g>
            </g>
          </g>
        </g>
      </g>
    </g>
    <g id="agregar-usuario_5_" data-name="agregar-usuario (5)" transform="translate(834.298 7451.232)">
      <path id="Trazado_1220016" data-name="Trazado 1220016" d="M180.831,255.8a2.319,2.319,0,0,1-1.862-2.273V248.3H168.711v5.227a2.319,2.319,0,0,1-1.862,2.273l-1.25.251v8.394h16.482v-8.394Z" transform="translate(-135.784 -219.237)" fill="#fce0a2"/>
      <path id="Trazado_1220017" data-name="Trazado 1220017" d="M237.162,248.3v7.158a2.319,2.319,0,0,0,1.862,2.273l6.244,1.522v-3.2l-1.25-.251a2.319,2.319,0,0,1-1.862-2.273V248.3Z" transform="translate(-198.97 -219.237)" fill="#f2ca91"/>
      <path id="Trazado_1220018" data-name="Trazado 1220018" d="M62.346,311.694,51.93,308.447a.768.768,0,0,0-.707.132l-6.547,5.211-6.547-5.211a.768.768,0,0,0-.707-.132l-10.417,3.248a10.721,10.721,0,0,0-7.693,10.285v6.854a.988.988,0,0,0,.988.988H69.051a.988.988,0,0,0,.988-.988v-6.854A10.721,10.721,0,0,0,62.346,311.694Z" transform="translate(-6.62 -272.312)" fill="#4cbad8"/>
      <path id="Trazado_1220019" data-name="Trazado 1220019" d="M280.648,311.694l-10.417-3.248a.768.768,0,0,0-.707.132l-2.971,2.365,9.059,2.825a10.721,10.721,0,0,1,7.693,10.285v5.768h4.048a.988.988,0,0,0,.988-.988v-6.854A10.721,10.721,0,0,0,280.648,311.694Z" transform="translate(-224.921 -272.312)" fill="#37a6c4"/>
      <g id="Grupo_1230977" data-name="Grupo 1230977" transform="translate(23.062 17.566)">
        <path id="Trazado_1220020" data-name="Trazado 1220020" d="M331.775,156.117h-2.084v-6.044h2.084a1.944,1.944,0,0,1,1.944,1.944v2.155A1.944,1.944,0,0,1,331.775,156.117Z" transform="translate(-303.731 -150.073)" fill="#f2ca8f"/>
        <path id="Trazado_1220021" data-name="Trazado 1220021" d="M109.845,156.117h2.084v-6.044h-2.084a1.944,1.944,0,0,0-1.944,1.944v2.155A1.944,1.944,0,0,0,109.845,156.117Z" transform="translate(-107.901 -150.073)" fill="#f2ca8f"/>
      </g>
      <path id="Trazado_1220022" data-name="Trazado 1220022" d="M144.22,73.937h0a12.168,12.168,0,0,1-12.168-12.168V58.35A12.168,12.168,0,0,1,144.22,46.182h0A12.168,12.168,0,0,1,156.387,58.35v3.419A12.168,12.168,0,0,1,144.22,73.937Z" transform="translate(-106.163 -40.776)" fill="#fce0a2"/>
      <path id="Trazado_1220023" data-name="Trazado 1220023" d="M217.068,46.182h0a12.214,12.214,0,0,0-2.51.26,12.171,12.171,0,0,1,9.657,11.908v3.419a12.171,12.171,0,0,1-9.657,11.908,12.215,12.215,0,0,0,2.51.26h0a12.168,12.168,0,0,0,12.168-12.168V58.35A12.168,12.168,0,0,0,217.068,46.182Z" transform="translate(-179.012 -40.776)" fill="#f2ca91"/>
      <path id="Trazado_1220024" data-name="Trazado 1220024" d="M126.844,7.5H122.7a12.675,12.675,0,0,0-12.675,12.675v5.007a1.943,1.943,0,0,1,1.7-.994h.883a12.143,12.143,0,0,1,.751-4.211c5.38-1.524,10.848,2.636,16.8,2.636a12.276,12.276,0,0,0,6.369-1.478h.032a12.189,12.189,0,0,1,.388,3.053h.883a1.943,1.943,0,0,1,1.7.994V20.174A12.675,12.675,0,0,0,126.844,7.5Z" transform="translate(-86.717 -6.621)" fill="#f9a058"/>
      <path id="Trazado_1220025" data-name="Trazado 1220025" d="M219.139,7.5H215c-.147,0-.294,0-.44.008a12.675,12.675,0,0,1,12.235,12.667v1.844a9.45,9.45,0,0,0,2.023-.883h.032a12.187,12.187,0,0,1,.388,3.053h.883a1.943,1.943,0,0,1,1.7.994V20.174A12.675,12.675,0,0,0,219.139,7.5Z" transform="translate(-179.012 -6.621)" fill="#ef8d43"/>
      <circle id="Elipse_14600" data-name="Elipse 14600" cx="10.402" cy="10.402" r="10.402" transform="translate(47.296 38.247)" fill="#e9f6ff"/>
      <path id="Trazado_1220026" data-name="Trazado 1220026" d="M384.762,326.758a10.419,10.419,0,0,0-2.526.31,10.4,10.4,0,0,1,0,20.186,10.4,10.4,0,1,0,2.526-20.5Z" transform="translate(-327.063 -288.511)" fill="#ccdfed"/>
      <g id="Grupo_1230978" data-name="Grupo 1230978" transform="translate(27.346 36.099)">
        <path id="Trazado_1220027" data-name="Trazado 1220027" d="M155.214,313.789l-2.654,2.321a1.11,1.11,0,0,1-1.515-.05l-6.541-6.536,3.456-1.078a.768.768,0,0,1,.707.132Z" transform="translate(-144.504 -308.412)" fill="#2195bd"/>
        <path id="Trazado_1220028" data-name="Trazado 1220028" d="M236,313.789l2.654,2.321a1.11,1.11,0,0,0,1.515-.05l6.541-6.536-3.456-1.078a.768.768,0,0,0-.707.132Z" transform="translate(-225.294 -308.412)" fill="#2195bd"/>
      </g>
      <path id="Trazado_1220029" data-name="Trazado 1220029" d="M362.2,369.373h-4.47V364.9a.878.878,0,0,0-1.756,0v4.47H351.5a.878.878,0,1,0,0,1.756h4.47v4.47a.878.878,0,0,0,1.756,0v-4.47h4.47a.878.878,0,1,0,0-1.756Z" transform="translate(-299.153 -321.416)"/>
      <path id="Trazado_1220030" data-name="Trazado 1220030" d="M57.7,37.369a11.238,11.238,0,0,0-3.595.587l-5.076-1.583h0L45.571,35.3a1.641,1.641,0,0,0-1.064.032,1.451,1.451,0,0,1-.444-1.038V32.57a13.1,13.1,0,0,0,6.562-8.082h.481a2.825,2.825,0,0,0,2.822-2.822V19.511a2.8,2.8,0,0,0-.249-1.157v-4.8a13.44,13.44,0,0,0-1.251-5.694.878.878,0,1,0-1.593.738,11.7,11.7,0,0,1,1.088,4.955v3.257c-.063-.019-.127-.036-.192-.05l-.012,0a2.8,2.8,0,0,0-.381-.058l-.044,0c-.061,0-.122-.007-.184-.007h-.039c-.008-.117-.018-.234-.029-.35l0-.051c0-.018,0-.037-.006-.055q-.014-.139-.031-.278l-.011-.087q-.021-.164-.047-.327l0-.02v-.008q-.032-.2-.072-.407l-.012-.062-.007-.032q-.025-.126-.053-.251l0-.023-.014-.065-.007-.028c-.027-.117-.055-.234-.085-.351a.874.874,0,0,0-.1-.24c-.005-.008-.009-.018-.014-.026s-.02-.025-.03-.038a.876.876,0,0,0-.7-.354h-.043a.878.878,0,0,0-.436.123,11.553,11.553,0,0,1-5.921,1.355c-.3,0-.609-.012-.913-.034a15.908,15.908,0,0,1-1.759-.235l-.062-.011a31.792,31.792,0,0,1-3.3-.853c-.394-.12-.787-.243-1.177-.365-3.2-1-6.513-2.042-9.819-1.1a.878.878,0,0,0-.584.54l0,.005c-.046.126-.092.256-.138.4l-.028.085-.008.024-.014.043c-.029.092-.058.185-.085.28-.014.047-.027.094-.04.141-.008.028-.016.055-.024.083l-.014.051c-.005.02-.01.04-.015.061q-.049.184-.092.369c-.007.03-.016.06-.022.09l0,.021-.014.066c-.011.048-.021.1-.031.145-.022.108-.044.215-.063.319l0,.015,0,.024c-.006.035-.012.071-.018.106-.015.086-.029.176-.042.268-.009.058-.018.117-.026.175l0,.022c-.013.1-.025.2-.036.3q-.009.087-.018.174c0,.014,0,.028,0,.042l-.007.079c0,.051-.008.1-.012.149s-.007.071-.009.107H25c-.062,0-.123,0-.183.007l-.045,0a2.81,2.81,0,0,0-.381.058l-.013,0c-.065.015-.128.031-.191.05V13.553a11.811,11.811,0,0,1,11.8-11.8h4.141a11.692,11.692,0,0,1,8.557,3.676.878.878,0,1,0,1.273-1.209A13.431,13.431,0,0,0,40.127,0H35.986A13.568,13.568,0,0,0,22.433,13.553v4.8a2.8,2.8,0,0,0-.249,1.157v2.155a2.826,2.826,0,0,0,2.822,2.822h.481a13.1,13.1,0,0,0,6.562,8.082v1.72a1.451,1.451,0,0,1-.444,1.038,1.642,1.642,0,0,0-1.064-.032l-10.41,3.246a11.5,11.5,0,0,0-4.476,2.5.878.878,0,1,0,1.175,1.3,9.759,9.759,0,0,1,3.8-2.125l.013,0L27.1,38.208l6.166,6.161a1.993,1.993,0,0,0,2.713.09l2.076-1.816,2.076,1.816a1.993,1.993,0,0,0,2.713-.09l6.166-6.161,2.741.855a11.263,11.263,0,0,0-1.8,1.391l-.084.08-.117.114a11.248,11.248,0,0,0-3.311,7.243c0,.019,0,.037,0,.056q-.009.14-.014.281c0,.027,0,.054,0,.081,0,.113-.006.227-.006.341q0,.145,0,.29s0,.009,0,.014a11.2,11.2,0,0,0,3.3,7.678H20.151V48.649a.878.878,0,1,0-1.756,0v7.982H13.681a.11.11,0,0,1-.11-.11V49.667a9.759,9.759,0,0,1,.964-4.249.878.878,0,1,0-1.583-.758,11.5,11.5,0,0,0-1.136,5.007v6.854a1.868,1.868,0,0,0,1.866,1.866H52.01A11.279,11.279,0,1,0,57.7,37.369ZM50.988,22.717q.054-.4.082-.815c0-.031,0-.062.006-.093q.01-.156.016-.312c0-.035,0-.07,0-.105,0-.132.007-.265.007-.4V18.444h.008a1.066,1.066,0,0,1,.127.009l.033.005a1.025,1.025,0,0,1,.1.021l.025.006a1.07,1.07,0,0,1,.243.1l.013.008a1.065,1.065,0,0,1,.1.068l.011.008a1.067,1.067,0,0,1,.188.191l.011.014a1.083,1.083,0,0,1,.073.112v0a1.06,1.06,0,0,1,.135.519v2.155a1.068,1.068,0,0,1-1.067,1.067h-.121Zm-25.981.015a1.068,1.068,0,0,1-1.067-1.067V19.511a1.051,1.051,0,0,1,.209-.632l.012-.016a1.067,1.067,0,0,1,.187-.19l.013-.009a1.082,1.082,0,0,1,.1-.067l.015-.009a1.065,1.065,0,0,1,.242-.1l.026-.007c.033-.009.067-.015.1-.021l.033-.005A1.057,1.057,0,0,1,25,18.444h0l0,2.549c0,.133,0,.266.007.4,0,.035,0,.07,0,.1q.006.157.016.313c0,.031,0,.062.006.093q.028.411.082.815s0,.01,0,.015Zm2,.6q-.014-.065-.027-.129t-.028-.144q-.015-.081-.029-.162c-.007-.039-.013-.079-.02-.119q-.015-.1-.028-.191c0-.032-.009-.065-.014-.1-.009-.071-.018-.141-.026-.212,0-.027-.006-.055-.009-.082-.008-.075-.015-.151-.021-.226,0-.024,0-.048-.006-.072-.006-.078-.011-.155-.016-.233,0-.023,0-.045,0-.068,0-.079-.007-.159-.01-.238,0-.021,0-.042,0-.064q0-.15,0-.3V17.58s0-.01,0-.013h0c0-.125,0-.249.007-.373,0-.033,0-.065,0-.1v-.01c0-.111.012-.221.019-.332,0-.046.007-.093.011-.141.009-.109.02-.219.032-.328,0-.042.01-.081.015-.122q.017-.137.038-.274c.006-.041.012-.083.018-.122.018-.114.039-.228.061-.342.006-.028.011-.056.016-.085q.035-.176.077-.35l.024-.1q.04-.165.086-.329c.032-.117.067-.233.1-.347.01-.032.019-.064.029-.1l.006-.02,0-.007q.25-.055.5-.094a13.76,13.76,0,0,1,5.832.672c.674.193,1.356.406,2.047.623a25.949,25.949,0,0,0,7.74,1.578q.215,0,.427,0A13.985,13.985,0,0,0,49.208,15.8c0,.016,0,.031.007.047q.026.169.047.339c.005.044.01.089.015.133q.015.141.028.282c0,.047.008.095.011.143.007.1.012.191.017.286,0,.035,0,.07.005.1v.027c0,.133.008.267.008.4v0s0,.006,0,.009v3.416q0,.15,0,.3c0,.021,0,.042,0,.064,0,.079-.005.159-.01.238,0,.023,0,.045,0,.068,0,.078-.01.155-.016.233,0,.024,0,.048-.006.072-.007.075-.013.151-.021.226,0,.027-.006.055-.009.082-.008.071-.016.141-.026.212,0,.032-.009.065-.014.1q-.014.1-.028.191c-.006.04-.013.079-.02.119s-.019.108-.029.162-.018.1-.028.144-.017.086-.027.129A11.314,11.314,0,0,1,38.93,32.249l-.046,0-.239.015-.119,0-.173.007q-.149,0-.3,0t-.3,0l-.173-.007-.119,0-.239-.015-.046,0A11.314,11.314,0,0,1,27.01,23.329Zm7.814,19.808a.232.232,0,0,1-.317-.01l-5.514-5.509,2.014-.628,5.678,4.519Zm-1.781-6.772A3.181,3.181,0,0,0,33.8,34.29v-.961c.226.078.454.147.683.212l.006,0q.287.081.577.149l.081.019q.252.057.507.1l.106.02.261.043.236.034q.149.021.3.038t.3.031l.16.014q.218.017.439.027l.118,0c.16.006.32.01.481.01s.321,0,.481-.01l.118,0q.22-.01.439-.027l.16-.014q.149-.014.3-.031t.3-.038l.236-.034q.131-.02.261-.043l.106-.02q.255-.047.507-.1l.081-.019q.29-.068.577-.149l.006,0c.229-.065.457-.134.683-.212v.961a3.181,3.181,0,0,0,.761,2.075l-5.013,3.989ZM41.6,43.127a.232.232,0,0,1-.316.01l-1.862-1.629,3.511-2.794,2.085-1.659h0l.083-.066,2.014.628ZM57.7,58.174a9.536,9.536,0,0,1-9.509-9c0-.028,0-.056,0-.083-.007-.147-.011-.294-.011-.443s0-.291.011-.435c0-.053.006-.106.009-.16q.008-.132.02-.262c.006-.068.012-.135.02-.2s.015-.123.024-.185a9.566,9.566,0,0,1,2.212-4.947c.043-.05.086-.1.129-.149s.078-.086.117-.128c.067-.072.135-.144.2-.215l.07-.071A9.522,9.522,0,1,1,57.7,58.174Z"/>
    </g>
  </g>
</svg>
