<svg xmlns="http://www.w3.org/2000/svg" xmlns:xlink="http://www.w3.org/1999/xlink" width="400" height="273" viewBox="0 0 400 273">
  <defs>
    <clipPath id="clip-path">
      <rect id="Rectángulo_422857" data-name="Rectángulo 422857" width="400" height="273" transform="translate(180 1536)" fill="#fff" stroke="#707070" stroke-width="1"/>
    </clipPath>
  </defs>
  <g id="Enmascarar_grupo_1208513" data-name="Enmascarar grupo 1208513" transform="translate(-180 -1536)" clip-path="url(#clip-path)">
    <g id="Grupo_1230953" data-name="Grupo 1230953" transform="translate(4158.8 -1654.803)">
      <g id="Object_00000017475348488822875200000015860428598537590415_" transform="translate(-3972.843 3215.594)">
        <g id="Grupo_1230761" data-name="Grupo 1230761" transform="translate(2.134 2.912)">
          <g id="Grupo_1230755" data-name="Grupo 1230755" transform="translate(346.922 107.492)">
            <circle id="Elipse_14568" data-name="Elipse 14568" cx="8.206" cy="8.206" r="8.206" fill="#bde0fe"/>
          </g>
          <g id="Grupo_1230756" data-name="Grupo 1230756" transform="translate(0 108.004)">
            <circle id="Elipse_14569" data-name="Elipse 14569" cx="8.206" cy="8.206" r="8.206" fill="#bde0fe"/>
          </g>
          <g id="Grupo_1230757" data-name="Grupo 1230757" transform="translate(335.273 142.691)">
            <circle id="Elipse_14570" data-name="Elipse 14570" cx="2.688" cy="2.688" r="2.688" fill="#bde0fe"/>
          </g>
          <g id="Grupo_1230758" data-name="Grupo 1230758" transform="translate(18.841 36.34)">
            <circle id="Elipse_14571" data-name="Elipse 14571" cx="2.688" cy="2.688" r="2.688" fill="#bde0fe"/>
          </g>
          <g id="Grupo_1230759" data-name="Grupo 1230759" transform="translate(164.07)">
            <circle id="Elipse_14572" data-name="Elipse 14572" cx="6.39" cy="6.39" r="6.39" fill="#bde0fe"/>
          </g>
          <g id="Grupo_1230760" data-name="Grupo 1230760" transform="translate(9.467 22.579)">
            <path id="Trazado_1219868" data-name="Trazado 1219868" d="M593.4,528.37H239.625c9.142,0,19.429-5.344,21.225-14.308s-2.372-18.043-7.451-25.644-11.263-14.667-14.327-23.28-2.043-19.611,5.337-25.006c7.7-5.626,18.748-2.877,26.8,2.222s14.839,12.293,23.621,16.005,21,2.34,25.112-6.259c4-8.356-1.633-17.875-6.618-25.683a247.08,247.08,0,0,1-29.941-67.374c-3.2-11.645-5.416-24.617.076-35.373,6.449-12.63,22.021-18.324,36.18-17.52,28.471,1.618,51.7,24.238,65.489,49.2s20.86,53.115,33.816,78.52c3.06,6,6.542,11.958,11.655,16.341s12.161,6.994,18.69,5.344c9.2-2.326,14.64-12.324,15.311-21.792s-2.241-18.766-4.067-28.081-2.431-19.549,2.367-27.739c6.175-10.538,20.344-14.665,32.1-11.361s21.048,12.747,26.759,23.543,8.294,22.938,10.488,34.953c1.428,7.821,2.828,15.942,7.317,22.5s13.059,11.085,20.507,8.3c9.661-3.608,12.488-16.814,21.706-21.439,6.776-3.4,15.421-.946,20.9,4.3s8.27,12.709,9.808,20.133C617.414,482.64,609.471,510.189,593.4,528.37Z" transform="translate(-237.452 -306.076)" fill="#e5ebfb"/>
          </g>
        </g>
        <g id="Grupo_1230770" data-name="Grupo 1230770" transform="translate(326.506 167.189)">
          <g id="Grupo_1230762" data-name="Grupo 1230762" transform="translate(8.698)">
            <path id="Trazado_1219869" data-name="Trazado 1219869" d="M1933.16,1068.747c0,14.344-6.927,26.222-6.927,26.222s-6.927-11.878-6.927-26.222,6.927-26.222,6.927-26.222S1933.16,1054.4,1933.16,1068.747Z" transform="translate(-1919.306 -1042.525)" fill="#01184a"/>
          </g>
          <g id="Grupo_1230763" data-name="Grupo 1230763" transform="translate(26.663 1.132)">
            <path id="Trazado_1219870" data-name="Trazado 1219870" d="M2026.663,1075.146c-1.291,14.286-9.259,25.492-9.259,25.492s-5.83-12.453-4.539-26.74,9.259-25.492,9.259-25.492S2027.954,1060.86,2026.663,1075.146Z" transform="translate(-2012.679 -1048.407)" fill="#01184a"/>
          </g>
          <g id="Grupo_1230764" data-name="Grupo 1230764" transform="translate(0 8.786)">
            <path id="Trazado_1219871" data-name="Trazado 1219871" d="M1887.15,1108.6c2.635,11.9-1.249,23.1-1.249,23.1s-8.248-8.512-10.883-20.413,1.249-23.1,1.249-23.1S1884.514,1096.7,1887.15,1108.6Z" transform="translate(-1874.101 -1088.189)" fill="#13417c"/>
          </g>
          <g id="Grupo_1230765" data-name="Grupo 1230765" transform="translate(17.688 8.52)">
            <path id="Trazado_1219872" data-name="Trazado 1219872" d="M1978.752,1109.773c-1.855,12.047-9.532,21.077-9.532,21.077s-4.6-10.922-2.749-22.969S1976,1086.8,1976,1086.8,1980.607,1097.724,1978.752,1109.773Z" transform="translate(-1966.03 -1086.804)" fill="#13417c"/>
          </g>
          <g id="Grupo_1230766" data-name="Grupo 1230766" transform="translate(34.458 8.787)">
            <path id="Trazado_1219873" data-name="Trazado 1219873" d="M2065.912,1111.163c-1.855,12.047-9.532,21.078-9.532,21.078s-4.6-10.922-2.749-22.969,9.532-21.077,9.532-21.077S2067.767,1099.114,2065.912,1111.163Z" transform="translate(-2053.19 -1088.194)" fill="#13417c"/>
          </g>
          <g id="Grupo_1230767" data-name="Grupo 1230767" transform="translate(1.406 41.092)">
            <rect id="Rectángulo_422859" data-name="Rectángulo 422859" width="44.899" height="39.56" fill="#ef8456"/>
          </g>
          <g id="Grupo_1230768" data-name="Grupo 1230768" transform="translate(1.406 49.39)">
            <rect id="Rectángulo_422860" data-name="Rectángulo 422860" width="44.899" height="3.054" fill="#e46449"/>
          </g>
          <g id="Grupo_1230769" data-name="Grupo 1230769" transform="translate(1.406 54.447)">
            <rect id="Rectángulo_422861" data-name="Rectángulo 422861" width="44.899" height="1.528" fill="#e46449"/>
          </g>
        </g>
        <g id="Grupo_1230782" data-name="Grupo 1230782" transform="translate(134.671 128.146)">
          <g id="Grupo_1230771" data-name="Grupo 1230771" transform="translate(1.152 31.056)">
            <path id="Trazado_1219874" data-name="Trazado 1219874" d="M903.241,1054.385q-.828.123-1.674.26l-18.5-53.631C898.4,1013.971,906.592,1034.594,903.241,1054.385Z" transform="translate(-883.07 -1001.013)" fill="#01184a"/>
          </g>
          <g id="Grupo_1230772" data-name="Grupo 1230772" transform="translate(29.615)">
            <path id="Trazado_1219875" data-name="Trazado 1219875" d="M1041.327,926.139A89.754,89.754,0,0,1,1031,927.473l5.267-87.869A133.24,133.24,0,0,1,1041.327,926.139Z" transform="translate(-1031 -839.604)" fill="#01184a"/>
          </g>
          <g id="Grupo_1230773" data-name="Grupo 1230773" transform="translate(18.098 0)">
            <path id="Trazado_1219876" data-name="Trazado 1219876" d="M987.926,839.606l-5.267,87.87a42.576,42.576,0,0,1-8-.246A114.211,114.211,0,0,1,987.926,839.606Z" transform="translate(-971.142 -839.606)" fill="#13417c"/>
          </g>
          <g id="Grupo_1230774" data-name="Grupo 1230774" transform="translate(0 31.057)">
            <path id="Trazado_1219877" data-name="Trazado 1219877" d="M896.73,1054.646c-2.347.377-4.771.812-7.07,1.151a75.531,75.531,0,0,1-11.427-54.782Z" transform="translate(-877.081 -1001.015)" fill="#13417c"/>
          </g>
          <g id="Grupo_1230775" data-name="Grupo 1230775" transform="translate(40.032 31.056)">
            <path id="Trazado_1219878" data-name="Trazado 1219878" d="M1085.88,1054.385q.828.123,1.674.26l18.5-53.631C1090.719,1013.971,1082.53,1034.594,1085.88,1054.385Z" transform="translate(-1085.136 -1001.013)" fill="#01184a"/>
          </g>
          <g id="Grupo_1230776" data-name="Grupo 1230776" transform="translate(42.449 31.057)">
            <path id="Trazado_1219879" data-name="Trazado 1219879" d="M1097.7,1054.646c2.348.377,4.771.812,7.07,1.151a75.532,75.532,0,0,0,11.427-54.782Z" transform="translate(-1097.7 -1001.015)" fill="#13417c"/>
          </g>
          <g id="Grupo_1230777" data-name="Grupo 1230777" transform="translate(7.13 85.744)">
            <path id="Trazado_1219880" data-name="Trazado 1219880" d="M959.941,1319.818H917.132l-2.994-34.578h48.8Z" transform="translate(-914.138 -1285.24)" fill="#ef8456"/>
          </g>
          <g id="Grupo_1230778" data-name="Grupo 1230778" transform="translate(5.086 82.86)">
            <rect id="Rectángulo_422862" data-name="Rectángulo 422862" width="52.886" height="7.156" fill="#ef8456"/>
          </g>
          <g id="Grupo_1230779" data-name="Grupo 1230779" transform="translate(7.502 89.683)">
            <path id="Trazado_1219881" data-name="Trazado 1219881" d="M916.072,1306.068l.477,5.507,46.6,5.8,1.01-11.66Z" transform="translate(-916.072 -1305.71)" fill="#e46449"/>
          </g>
          <g id="Grupo_1230780" data-name="Grupo 1230780" transform="translate(12.774 100.875)">
            <circle id="Elipse_14573" data-name="Elipse 14573" cx="2.155" cy="2.155" r="2.155" fill="#e46449"/>
          </g>
          <g id="Grupo_1230781" data-name="Grupo 1230781" transform="translate(11.488 109.167)">
            <circle id="Elipse_14574" data-name="Elipse 14574" cx="0.789" cy="0.789" r="0.789" fill="#e46449"/>
          </g>
        </g>
        <g id="Grupo_1230783" data-name="Grupo 1230783" transform="translate(55.689 11.864)">
          <path id="Trazado_1219882" data-name="Trazado 1219882" d="M524.288,328.113h-4.81a.481.481,0,1,1,0-.962h4.81a.481.481,0,1,1,0,.962Zm-9.62,0h-4.81a.481.481,0,0,1,0-.962h4.81a.481.481,0,1,1,0,.962Zm-9.62,0h-4.81a.481.481,0,0,1,0-.962h4.81a.481.481,0,1,1,0,.962Zm-9.524-.1a.481.481,0,0,1-.481-.481v-4.81a.481.481,0,0,1,.962,0v4.81A.481.481,0,0,1,495.523,328.016Zm0-9.62a.481.481,0,0,1-.481-.481V313.1a.481.481,0,0,1,.962,0v4.81A.481.481,0,0,1,495.523,318.4Zm0-9.62a.481.481,0,0,1-.481-.481v-4.81a.481.481,0,1,1,.962,0v4.81A.481.481,0,0,1,495.523,308.776Zm0-9.62a.481.481,0,0,1-.481-.481v-4.81a.481.481,0,0,1,.962,0v4.81A.481.481,0,0,1,495.523,299.155Zm0-9.62a.481.481,0,0,1-.481-.481v-4.81a.481.481,0,0,1,.962,0v4.81A.481.481,0,0,1,495.523,289.535Zm0-9.62a.481.481,0,0,1-.481-.481v-4.81a.481.481,0,0,1,.962,0v4.81A.481.481,0,0,1,495.523,279.914Zm0-9.62a.481.481,0,0,1-.481-.481V265a.481.481,0,0,1,.962,0v4.81A.481.481,0,0,1,495.523,270.294Zm0-9.62a.481.481,0,0,1-.481-.481v-4.81a.481.481,0,0,1,.962,0v4.81A.481.481,0,0,1,495.523,260.674Zm0-9.62a.481.481,0,0,1-.481-.481v-4.81a.481.481,0,0,1,.962,0v4.81A.481.481,0,0,1,495.523,251.053Zm0-9.62a.481.481,0,0,1-.481-.481v-4.81a.481.481,0,0,1,.962,0v4.81A.481.481,0,0,1,495.523,241.433Zm-4.4-5.219h-4.81a.481.481,0,0,1,0-.962h4.81a.481.481,0,0,1,0,.962Zm-9.62,0h-4.81a.481.481,0,1,1,0-.962h4.81a.481.481,0,0,1,0,.962Zm-9.62,0h-4.81a.481.481,0,0,1,0-.962h4.81a.481.481,0,0,1,0,.962Z" transform="translate(-466.589 -235.252)" fill="#13417c"/>
        </g>
        <g id="Grupo_1230784" data-name="Grupo 1230784" transform="translate(177.776 179.453)">
          <path id="Trazado_1219955" data-name="Trazado 1219955" d="M14.39,0A14.39,14.39,0,1,1,0,14.39,14.39,14.39,0,0,1,14.39,0Z" fill="#aa52f9"/>
        </g>
        <g id="Grupo_1230798" data-name="Grupo 1230798" transform="translate(99.804 25.721)">
          <g id="Grupo_1230785" data-name="Grupo 1230785">
            <path id="Trazado_1219883" data-name="Trazado 1219883" d="M896.343,339.711H695.867V322.368a15.1,15.1,0,0,1,15.1-15.1H881.247a15.1,15.1,0,0,1,15.1,15.1v17.343Z" transform="translate(-695.867 -307.271)" fill="#13417c"/>
          </g>
          <g id="Grupo_1230788" data-name="Grupo 1230788" transform="translate(158.723 12.818)">
            <g id="Grupo_1230786" data-name="Grupo 1230786">
              <circle id="Elipse_14576" data-name="Elipse 14576" cx="4.992" cy="4.992" r="4.992" fill="#aa52f9"/>
            </g>
            <g id="Grupo_1230787" data-name="Grupo 1230787" transform="translate(16.051)">
              <circle id="Elipse_14577" data-name="Elipse 14577" cx="4.992" cy="4.992" r="4.992" fill="#dcb9fc"/>
            </g>
          </g>
          <g id="Grupo_1230789" data-name="Grupo 1230789" transform="translate(0 32.44)">
            <path id="Trazado_1219884" data-name="Trazado 1219884" d="M877.451,573.339H714.758a18.891,18.891,0,0,1-18.891-18.891V475.87H896.343v78.578A18.891,18.891,0,0,1,877.451,573.339Z" transform="translate(-695.867 -475.87)" fill="#fdebe4"/>
          </g>
          <g id="Grupo_1230797" data-name="Grupo 1230797" transform="translate(111.262 48.046)">
            <g id="Grupo_1230790" data-name="Grupo 1230790" transform="translate(0 51.942)">
              <path id="Trazado_1219885" data-name="Trazado 1219885" d="M1313.536,837.365h-36.211a3.2,3.2,0,0,1-3.2-3.2v-4.031a3.2,3.2,0,0,1,3.2-3.2h36.211a3.2,3.2,0,0,1,3.2,3.2v4.031A3.2,3.2,0,0,1,1313.536,837.365Z" transform="translate(-1274.129 -826.94)" fill="#5c2c88"/>
            </g>
            <g id="Grupo_1230791" data-name="Grupo 1230791" transform="translate(47.992 51.942)">
              <path id="Trazado_1219886" data-name="Trazado 1219886" d="M1562.966,837.365h-36.211a3.2,3.2,0,0,1-3.2-3.2v-4.031a3.2,3.2,0,0,1,3.2-3.2h36.211a3.2,3.2,0,0,1,3.2,3.2v4.031A3.2,3.2,0,0,1,1562.966,837.365Z" transform="translate(-1523.559 -826.94)" fill="#13417c"/>
            </g>
            <g id="Grupo_1230792" data-name="Grupo 1230792" transform="translate(32.729 42.911)">
              <rect id="Rectángulo_422863" data-name="Rectángulo 422863" width="49.813" height="3.545" fill="#13417c"/>
            </g>
            <g id="Grupo_1230793" data-name="Grupo 1230793" transform="translate(32.729 32.183)">
              <rect id="Rectángulo_422864" data-name="Rectángulo 422864" width="49.813" height="3.545" fill="#13417c"/>
            </g>
            <g id="Grupo_1230794" data-name="Grupo 1230794" transform="translate(32.729 21.455)">
              <rect id="Rectángulo_422865" data-name="Rectángulo 422865" width="49.813" height="3.545" fill="#13417c"/>
            </g>
            <g id="Grupo_1230795" data-name="Grupo 1230795" transform="translate(32.729 10.728)">
              <rect id="Rectángulo_422866" data-name="Rectángulo 422866" width="49.813" height="3.545" fill="#13417c"/>
            </g>
            <g id="Grupo_1230796" data-name="Grupo 1230796" transform="translate(32.729)">
              <rect id="Rectángulo_422867" data-name="Rectángulo 422867" width="49.813" height="3.545" fill="#13417c"/>
            </g>
          </g>
        </g>
        <g id="Grupo_1230839" data-name="Grupo 1230839" transform="translate(10.34 40.204)">
          <g id="Grupo_1230829" data-name="Grupo 1230829" transform="translate(0 5.055)">
            <g id="Grupo_1230799" data-name="Grupo 1230799" transform="translate(29.808)">
              <path id="Trazado_1219887" data-name="Trazado 1219887" d="M418.924,424.21c.062-1.484.853-2.791,1.275-4.2,1.077-3.59-.6-7.939-3.682-9.523-3.182-1.638-6.818-1.813-10.315-1.581a14.337,14.337,0,0,0-9.593,4.178,11.384,11.384,0,0,0-2.759,10.683,1.858,1.858,0,0,1-.881,2.207,9.859,9.859,0,0,1-2.715,1.035c-2.139.677-4.264,2.292-4.427,4.53-.145,1.995,1.348,3.79,3.1,4.76a14.732,14.732,0,0,0,7.675,1.4,63.922,63.922,0,0,1,7.89-.215c4.948.446,9.67,3.006,14.617,2.551a6.1,6.1,0,0,0,4.589-2.252,5.519,5.519,0,0,0,.271-5.056,19.42,19.42,0,0,0-2.825-4.428C420.085,426.9,418.851,425.965,418.924,424.21Z" transform="translate(-385.818 -408.822)" fill="#ef8456"/>
            </g>
            <g id="Grupo_1230800" data-name="Grupo 1230800" transform="translate(8.935 148.583)">
              <path id="Trazado_1219888" data-name="Trazado 1219888" d="M277.335,1185.689l4.587-4.639,11.383,13.9-3.647,4.12Z" transform="translate(-277.335 -1181.05)" fill="#fda08e"/>
            </g>
            <g id="Grupo_1230801" data-name="Grupo 1230801" transform="translate(8.605 69.086)">
              <path id="Trazado_1219889" data-name="Trazado 1219889" d="M328.076,771.926s23.05,32.607,16.014,46.85-48.222,48.252-48.222,48.252l-20.247-20.623,40.5-37.239,3.255-41.284Z" transform="translate(-275.621 -767.882)" fill="#5c2c88"/>
            </g>
            <g id="Grupo_1230803" data-name="Grupo 1230803" transform="translate(0 152.74)">
              <g id="Grupo_1230802" data-name="Grupo 1230802">
                <path id="Trazado_1219890" data-name="Trazado 1219890" d="M254.4,1239.912l-.8.667-20.741-24.734c-2.134-2.352-3.276-4.557.543-7.851l7.065-5.339,12.892,12.567-1.208,3.524-.543,1.586-.426,1.243-.342.994.236.833.471,1.658.633,2.235,2.924,10.316A2.215,2.215,0,0,1,254.4,1239.912Z" transform="translate(-230.898 -1202.655)" fill="#01184a"/>
              </g>
            </g>
            <g id="Grupo_1230804" data-name="Grupo 1230804" transform="translate(44.234 179.755)">
              <path id="Trazado_1219891" data-name="Trazado 1219891" d="M479.992,1350.741l.729-5.3-19.109-2.378-.819,8.71,4.179.791h12.874Z" transform="translate(-460.793 -1343.06)" fill="#fda08e"/>
            </g>
            <g id="Grupo_1230806" data-name="Grupo 1230806" transform="translate(30.432 66.649)">
              <g id="Grupo_1230805" data-name="Grupo 1230805">
                <path id="Trazado_1219892" data-name="Trazado 1219892" d="M406.514,813.76,392.589,868.7l5.362.217.32.013,24.816,4.105s14.646-51.143,8.173-63.826S414.093,781.1,414.093,781.1l5.6-19.4-12.369-6.481L396.236,759.7S374.577,778.125,406.514,813.76Z" transform="translate(-389.06 -755.217)" fill="#aa52f9"/>
              </g>
            </g>
            <g id="Grupo_1230808" data-name="Grupo 1230808" transform="translate(34.555 70.765)">
              <g id="Grupo_1230807" data-name="Grupo 1230807">
                <path id="Trazado_1219893" data-name="Trazado 1219893" d="M417.8,776.607a22.809,22.809,0,0,0-7.306,16.849c-.009,9.384,5.178,18.878,9.532,25.19a87.264,87.264,0,0,0,9.469,11.493c-4.351,17.532-12.277,49.181-14.233,56.05l.32.013c.731-2.542,2.516-9.3,7.076-27.4,3.575-14.189,7.135-28.531,7.171-28.675l.022-.09-.066-.064a86.077,86.077,0,0,1-9.5-11.515c-4.326-6.273-9.48-15.7-9.471-25a22.5,22.5,0,0,1,7.208-16.617Z" transform="translate(-410.49 -776.607)" fill="#fff"/>
              </g>
            </g>
            <g id="Grupo_1230809" data-name="Grupo 1230809" transform="translate(16.843 29.415)">
              <path id="Trazado_1219894" data-name="Trazado 1219894" d="M333,594.14l3.383-8.324-2.095,24.764s10.941,1.788,28.37-5.163l-1.506-18.428,6.193,10.6A6.114,6.114,0,0,0,371.8,600.4a8.179,8.179,0,0,0,9.071-5.855l4.721-16.188-7-4.216-4.931,9.874a.014.014,0,0,0,0-.005,60.264,60.264,0,0,0-2.6-7.559v0c-.872-2.136-2-4.617-3.406-7.3-4.432-8.427-11.029-4.21-11.029-4.21l-13.534-1.363s-5.675-5.926-12.821,3.307c-3.026,3.91-7.018,13.712-10.616,23.715,0,0-6.051,17.134,8.968,16.174s14.306-3.718,14.306-3.718l-6.327-11.027Z" transform="translate(-318.438 -561.703)" fill="#13417c"/>
            </g>
            <g id="Grupo_1230820" data-name="Grupo 1230820" transform="translate(41.321 8.15)">
              <g id="Grupo_1230810" data-name="Grupo 1230810" transform="translate(0 1.703)">
                <path id="Trazado_1219895" data-name="Trazado 1219895" d="M465.574,464.048a33.941,33.941,0,0,1-.476,7.538,19.543,19.543,0,0,1-.791,2.969c-1,2.776-2.744,5.086-5.769,5.355l.523,1.527.116.339s1.657,4.262-5.147,5.006a7.245,7.245,0,0,1-8.21-5.318l3.865-10.932s-5.066-.889-3.837-4.758,6.407-.7,4.95,1.99c0,0,1.9.184,3.5-6.963C454.3,460.8,463.625,457.663,465.574,464.048Z" transform="translate(-445.656 -460.03)" fill="#fda08e"/>
              </g>
              <g id="Grupo_1230811" data-name="Grupo 1230811" transform="translate(10.703 9.717)">
                <circle id="Elipse_14578" data-name="Elipse 14578" cx="0.757" cy="0.757" r="0.757" fill="#01184a"/>
              </g>
              <g id="Grupo_1230812" data-name="Grupo 1230812" transform="translate(16.969 9.913)">
                <circle id="Elipse_14579" data-name="Elipse 14579" cx="0.757" cy="0.757" r="0.757" fill="#01184a"/>
              </g>
              <g id="Grupo_1230813" data-name="Grupo 1230813" transform="translate(2.31 8.342)">
                <path id="Trazado_1219896" data-name="Trazado 1219896" d="M459.082,496.021a4.392,4.392,0,0,0-.931-1.4.3.3,0,0,0-.387-.027.241.241,0,0,0-.043.353c.094.095.183.194.268.3q.063.077.123.158l.059.081.029.041c-.014-.02-.012-.017,0,.008a4.486,4.486,0,0,1,.374.706.281.281,0,0,0,.363.117A.254.254,0,0,0,459.082,496.021Z" transform="translate(-457.662 -494.536)" fill="#e97a6f"/>
              </g>
              <g id="Grupo_1230814" data-name="Grupo 1230814" transform="translate(6.819 19.716)">
                <path id="Trazado_1219897" data-name="Trazado 1219897" d="M487.682,557.043c-6.077-.762-6.587-3.393-6.587-3.393,2.218,2.227,6.064,1.867,6.064,1.867Z" transform="translate(-481.095 -553.65)" fill="#e97a6f"/>
              </g>
              <g id="Grupo_1230815" data-name="Grupo 1230815" transform="translate(8.646)">
                <path id="Trazado_1219898" data-name="Trazado 1219898" d="M501.862,456.9s-7.632,2.041-11.271-3.247c0,0,.534-2.458.753-2.429s6.012-.077,6.319-.036a24.539,24.539,0,0,1,4.152,1.7,3.912,3.912,0,0,1,.9,1.733A7.934,7.934,0,0,1,501.862,456.9Z" transform="translate(-490.591 -451.178)" fill="#ef8456"/>
              </g>
              <g id="Grupo_1230819" data-name="Grupo 1230819" transform="translate(7.8 13.681)">
                <g id="Grupo_1230816" data-name="Grupo 1230816" transform="translate(0.356 0.597)">
                  <path id="Trazado_1219899" data-name="Trazado 1219899" d="M494.811,528.378a3.164,3.164,0,0,1-4.308,1.933c.432-2.9-2.46-4.533-2.46-4.533.069-.145.141-.277.211-.395C489.564,526.325,492.9,528.558,494.811,528.378Z" transform="translate(-488.043 -525.383)" fill="#01184a"/>
                </g>
                <g id="Grupo_1230817" data-name="Grupo 1230817" transform="translate(0.567)">
                  <path id="Trazado_1219900" data-name="Trazado 1219900" d="M495.879,525.36a3.957,3.957,0,0,1-.182.512c-1.916.18-5.247-2.053-6.557-3a4.252,4.252,0,0,1,.423-.6Z" transform="translate(-489.14 -522.28)" fill="#fff"/>
                </g>
                <g id="Grupo_1230818" data-name="Grupo 1230818" transform="translate(0 0.992)">
                  <path id="Trazado_1219901" data-name="Trazado 1219901" d="M489.01,531.968a6.493,6.493,0,0,1-.641-.277c-2.648-1.31-2.349-3.14-1.819-4.257C486.55,527.435,489.442,529.066,489.01,531.968Z" transform="translate(-486.194 -527.435)" fill="#f47847"/>
                </g>
              </g>
            </g>
            <g id="Grupo_1230821" data-name="Grupo 1230821" transform="translate(69.455 44.16)">
              <path id="Trazado_1219902" data-name="Trazado 1219902" d="M591.874,638.337l.341,11.346,2.265-3.78a.012.012,0,0,0,0,0,60.257,60.257,0,0,0-2.6-7.559Z" transform="translate(-591.874 -638.337)" fill="#01184a"/>
            </g>
            <g id="Grupo_1230822" data-name="Grupo 1230822" transform="translate(31.598 47.025)">
              <path id="Trazado_1219903" data-name="Trazado 1219903" d="M398.31,659.729l.853-6.5-4.04,14.346Z" transform="translate(-395.123 -653.225)" fill="#01184a"/>
            </g>
            <g id="Grupo_1230823" data-name="Grupo 1230823" transform="translate(58.696 45.415)">
              <path id="Trazado_1219904" data-name="Trazado 1219904" d="M536.817,654.146l-.859-9.287,2.21,11.6Z" transform="translate(-535.958 -644.859)" fill="#01184a"/>
            </g>
            <g id="Grupo_1230825" data-name="Grupo 1230825" transform="translate(43.469 186.612)">
              <g id="Grupo_1230824" data-name="Grupo 1230824">
                <path id="Trazado_1219905" data-name="Trazado 1219905" d="M494.868,1392.816h0a1.039,1.039,0,0,1-1.039,1.039H462.589c-4.3.087-6.268-1.343-5.667-5.461l.448-8.844,19.822-.851.015,2.237.866,1.435.679,1.125.542.9.789.354,1.573.705,2.119.951,9.783,4.388A2.216,2.216,0,0,1,494.868,1392.816Z" transform="translate(-456.816 -1378.699)" fill="#01184a"/>
              </g>
            </g>
            <g id="Grupo_1230826" data-name="Grupo 1230826" transform="translate(53.901 18.04)">
              <path id="Trazado_1219906" data-name="Trazado 1219906" d="M514.349,506.561a2.852,2.852,0,0,0-.4-.861,4.472,4.472,0,0,1-.332-.887,4.378,4.378,0,0,1-.06-1.918c.065-.341-.5-.442-.559-.115a4.914,4.914,0,0,0,.467,3.2c.1.2.373.5.311.736-.071.27-.478.194-.676.16a4.839,4.839,0,0,1-1.653-.617.267.267,0,1,0-.271.459,5.236,5.236,0,0,0,1.868.676,1.4,1.4,0,0,0,.923-.1A.734.734,0,0,0,514.349,506.561Z" transform="translate(-511.039 -502.581)" fill="#e97a6f"/>
            </g>
            <g id="Grupo_1230827" data-name="Grupo 1230827" transform="translate(49.523 13.585)">
              <ellipse id="Elipse_14580" data-name="Elipse 14580" cx="1.925" cy="0.914" rx="1.925" ry="0.914" transform="matrix(0.969, -0.249, 0.249, 0.969, 0, 0.957)" fill="#ef8456"/>
            </g>
            <g id="Grupo_1230828" data-name="Grupo 1230828" transform="translate(57.919 14.18)">
              <ellipse id="Elipse_14581" data-name="Elipse 14581" cx="0.914" cy="1.925" rx="0.914" ry="1.925" transform="translate(0 1.625) rotate(-62.676)" fill="#ef8456"/>
            </g>
          </g>
          <g id="Grupo_1230835" data-name="Grupo 1230835" transform="translate(31.825)">
            <g id="Grupo_1230830" data-name="Grupo 1230830">
              <path id="Trazado_1219907" data-name="Trazado 1219907" d="M485.319,409.13l-67.527,53.006a2.894,2.894,0,0,1-4.064-.489l-16.807-21.411a2.894,2.894,0,0,1,.489-4.064l67.527-53.006a2.894,2.894,0,0,1,4.064.489l16.807,21.411A2.894,2.894,0,0,1,485.319,409.13Z" transform="translate(-396.303 -382.548)" fill="#aa52f9"/>
            </g>
            <g id="Grupo_1230834" data-name="Grupo 1230834" transform="translate(25.986 24.888)">
              <g id="Grupo_1230831" data-name="Grupo 1230831" transform="translate(0 17.608)">
                <path id="Trazado_1219908" data-name="Trazado 1219908" d="M533.331,616.831a1.49,1.49,0,0,1-1.563-.644,1.528,1.528,0,0,1-.251-1.7q3.082-7.924,3.529-9.116a10.172,10.172,0,0,1,.576-1.374,1.334,1.334,0,0,1,.37-.426q.453-.355,1.585.084a2.226,2.226,0,0,1,.931.53,1.033,1.033,0,0,1,.232.537,2.72,2.72,0,0,1-.2,1.161q-2.682,6.879-2.778,7.171l7.625-1a4,4,0,0,1,.69-.054,1.085,1.085,0,0,1,.883.365,2.092,2.092,0,0,1,.345,1.044,3.745,3.745,0,0,1,0,1.095.945.945,0,0,1-.328.583,2.356,2.356,0,0,1-1.123.366Z" transform="translate(-531.361 -603.411)" fill="#dcb9fc"/>
              </g>
              <g id="Grupo_1230832" data-name="Grupo 1230832" transform="translate(15.547 5.796)">
                <path id="Trazado_1219909" data-name="Trazado 1219909" d="M619.125,558.8q.089.391.12.584a1.072,1.072,0,0,1-.048.458.987.987,0,0,1-.363.488,2.9,2.9,0,0,1-1.037.407,3.463,3.463,0,0,1-1.1.141.754.754,0,0,1-.529-.276,4.1,4.1,0,0,1-.457-1l-3.461-15.534a1.934,1.934,0,0,1-.009-1.186,1.155,1.155,0,0,1,.342-.377,3.073,3.073,0,0,1,1.058-.4q1.249-.275,1.657.245a3.844,3.844,0,0,1,.424,1.023Z" transform="translate(-612.162 -542.02)" fill="#dcb9fc"/>
              </g>
              <g id="Grupo_1230833" data-name="Grupo 1230833" transform="translate(24.652)">
                <path id="Trazado_1219910" data-name="Trazado 1219910" d="M671.485,511.935a1.529,1.529,0,0,1,1.593.648,1.49,1.49,0,0,1,.255,1.672l-3.819,9.886q-.421,1.226-1.284,1.2a3.347,3.347,0,0,1-.961-.222,2.394,2.394,0,0,1-.968-.542,1.14,1.14,0,0,1-.242-.515,2.77,2.77,0,0,1,.247-1.17L669.1,515.7l-7.625,1a6.616,6.616,0,0,1-.69.054,1.157,1.157,0,0,1-.909-.4,2.071,2.071,0,0,1-.347-1.029q-.165-1.28.288-1.636a2.216,2.216,0,0,1,1.156-.393Z" transform="translate(-659.487 -511.899)" fill="#dcb9fc"/>
              </g>
            </g>
          </g>
          <g id="Grupo_1230836" data-name="Grupo 1230836" transform="translate(37.37 57.719)">
            <path id="Trazado_1219911" data-name="Trazado 1219911" d="M428.242,694.919s-3.154-3.935-3.122-5.9,5.561-5.642,5.561-5.642a26.6,26.6,0,0,1,9.388-.653.4.4,0,0,1-.059.8,12.239,12.239,0,0,0-5.484,1.034s3.991.6,4.2.627A9.83,9.83,0,0,1,441,686.407a.628.628,0,0,1-.6,1.054,5.453,5.453,0,0,1-1.242-.478c-1.536-.822-5.086-.172-5.086-.172l4.771,1.125a1.153,1.153,0,0,1,.58.337l1.086,1.165s-.137.991-1.986-.034l-4.008-.169s-.406.222,2.754.6a.7.7,0,0,1,.543.361.429.429,0,0,1-.106.552c-.456.427-4.68.623-4.68.623S429.063,692.975,428.242,694.919Z" transform="translate(-425.12 -682.53)" fill="#fda08e"/>
          </g>
          <g id="Grupo_1230837" data-name="Grupo 1230837" transform="translate(77.207 30.005)">
            <path id="Trazado_1219912" data-name="Trazado 1219912" d="M634.746,553.5s3.031,3.259,4.7,2.225,3.131-8.689,3.131-8.689a26.593,26.593,0,0,0-4.26-8.391.4.4,0,0,0-.656.462,12.236,12.236,0,0,1,1.928,5.236s-2.566-3.115-2.7-3.286a9.829,9.829,0,0,0-2.213-1.325.628.628,0,0,0-.6,1.053,5.451,5.451,0,0,0,1.047.82c1.494.9,2.759,4.276,2.759,4.276l-3.415-3.517a1.154,1.154,0,0,0-.587-.325l-1.557-.333s-.78.626,1.049,1.686l2.2,3.352s.018.463-1.925-2.057a.7.7,0,0,0-.588-.281.429.429,0,0,0-.42.374c-.133.611,1.869,4.336,1.869,4.336S635.993,551.795,634.746,553.5Z" transform="translate(-632.163 -538.494)" fill="#fda08e"/>
          </g>
          <g id="Grupo_1230838" data-name="Grupo 1230838" transform="translate(70.758 44.722)">
            <path id="Trazado_1219913" data-name="Trazado 1219913" d="M612.874,616.988l-3.469,12.891-10.76,6.275,8.311-21.174S611.042,615.384,612.874,616.988Z" transform="translate(-598.645 -614.98)" fill="#13417c"/>
          </g>
        </g>
        <g id="Grupo_1230840" data-name="Grupo 1230840" transform="translate(0 247.02)">
          <rect id="Rectángulo_422868" data-name="Rectángulo 422868" width="382.063" height="1.524" transform="translate(382.063 1.524) rotate(180)" fill="#01184a"/>
        </g>
        <g id="Grupo_1230845" data-name="Grupo 1230845" transform="translate(139.102 86.446)">
          <g id="Grupo_1230841" data-name="Grupo 1230841">
            <rect id="Rectángulo_422869" data-name="Rectángulo 422869" width="45.269" height="40.369" fill="#fff"/>
          </g>
          <g id="Grupo_1230842" data-name="Grupo 1230842" transform="translate(0 23.957)">
            <path id="Trazado_1219914" data-name="Trazado 1219914" d="M900.108,763.8l16.312-16.411L938.73,763.8Z" transform="translate(-900.108 -747.393)" fill="#dcb9fc"/>
          </g>
          <g id="Grupo_1230843" data-name="Grupo 1230843" transform="translate(25.541 23.957)">
            <path id="Trazado_1219915" data-name="Trazado 1219915" d="M1052.578,755.6l-12.095-8.206-7.633,6.789,13.082,9.622h6.646Z" transform="translate(-1032.85 -747.393)" fill="#aa52f9"/>
          </g>
          <g id="Grupo_1230844" data-name="Grupo 1230844" transform="translate(11.205 7.28)">
            <circle id="Elipse_14582" data-name="Elipse 14582" cx="5.939" cy="5.939" r="5.939" fill="#aa52f9"/>
          </g>
        </g>
        <g id="Grupo_1230851" data-name="Grupo 1230851" transform="translate(203.945 18.572)">
          <g id="Grupo_1230846" data-name="Grupo 1230846">
            <path id="Trazado_1219916" data-name="Trazado 1219916" d="M1285.57,325.341h-38.681a6.77,6.77,0,0,1-6.77-6.77V279.89a6.77,6.77,0,0,1,6.77-6.77h38.681a6.77,6.77,0,0,1,6.77,6.77v38.681A6.768,6.768,0,0,1,1285.57,325.341Z" transform="translate(-1239.542 -272.543)" fill="#fff"/>
            <path id="Trazado_1219917" data-name="Trazado 1219917" d="M1283.147,323.5h-38.681a7.355,7.355,0,0,1-7.347-7.347V277.467a7.355,7.355,0,0,1,7.347-7.347h38.681a7.355,7.355,0,0,1,7.347,7.347v38.681A7.354,7.354,0,0,1,1283.147,323.5Zm-38.68-52.221a6.2,6.2,0,0,0-6.193,6.193v38.681a6.2,6.2,0,0,0,6.193,6.193h38.681a6.2,6.2,0,0,0,6.193-6.193V277.467a6.2,6.2,0,0,0-6.193-6.193Z" transform="translate(-1237.119 -270.12)" fill="#13417c"/>
          </g>
          <g id="Grupo_1230848" data-name="Grupo 1230848" transform="translate(26.97 9.623)">
            <g id="Grupo_1230847" data-name="Grupo 1230847">
              <path id="Trazado_1219918" data-name="Trazado 1219918" d="M1395.8,331.339v-3.892h-2.529a6.97,6.97,0,0,0-.594-1.437l1.788-1.788-2.752-2.75-1.788,1.788a6.928,6.928,0,0,0-1.437-.595v-2.529h-3.89v2.529a6.94,6.94,0,0,0-1.437.595l-1.788-1.788-2.752,2.75,1.788,1.788a6.946,6.946,0,0,0-.593,1.437h-2.529v3.892h2.529a6.908,6.908,0,0,0,.593,1.435l-1.788,1.788,2.752,2.752,1.788-1.788a7,7,0,0,0,1.437.595v2.529h3.89v-2.529a7.006,7.006,0,0,0,1.437-.595l1.788,1.788,2.752-2.752-1.788-1.788a6.9,6.9,0,0,0,.594-1.435Zm-9.255,2.4a4.343,4.343,0,1,1,4.34-4.343A4.342,4.342,0,0,1,1386.545,333.736Z" transform="translate(-1377.288 -320.136)" fill="#aa52f9"/>
            </g>
          </g>
          <g id="Grupo_1230850" data-name="Grupo 1230850" transform="translate(7.122 16.304)">
            <g id="Grupo_1230849" data-name="Grupo 1230849">
              <path id="Trazado_1219919" data-name="Trazado 1219919" d="M1301.953,371.688V365.84h-3.8a10.49,10.49,0,0,0-.893-2.158l2.687-2.687-4.136-4.134-2.685,2.687a10.412,10.412,0,0,0-2.158-.893v-3.8h-5.848v3.8a10.4,10.4,0,0,0-2.158.893l-2.685-2.687-4.136,4.134,2.687,2.687a10.5,10.5,0,0,0-.893,2.158h-3.8v5.848h3.8a10.5,10.5,0,0,0,.893,2.158l-2.687,2.685,4.136,4.134,2.685-2.685a10.488,10.488,0,0,0,2.158.893v3.8h5.848v-3.8a10.493,10.493,0,0,0,2.158-.893l2.685,2.685,4.136-4.134-2.687-2.685a10.5,10.5,0,0,0,.893-2.158Zm-13.911,1.009a3.933,3.933,0,1,1,3.934-3.934A3.933,3.933,0,0,1,1288.042,372.7Z" transform="translate(-1274.134 -354.854)" fill="#dcb9fc"/>
            </g>
          </g>
        </g>
        <g id="Grupo_1230918" data-name="Grupo 1230918" transform="translate(247.837 36.828)">
          <g id="Grupo_1230852" data-name="Grupo 1230852" transform="translate(0 6.721)">
            <path id="Trazado_1219920" data-name="Trazado 1219920" d="M1492.7,438.948l-14.793-29.756-3.72-6.187a1.236,1.236,0,0,0-.677-.538l-7.762-2.517a.391.391,0,0,0-.458.569c.66,1.143,2.354,3.124,6.359,3.8-6.127.223-3.023,8.255-1.15,8.622s2.077-.061,2.077-.061,1.058,3.123,3.828,2.275l8.608,29.882a8.112,8.112,0,0,0,8.427,5.842l21.523-1.682-1.172-13.475Z" transform="translate(-1465.236 -399.929)" fill="#fda08e"/>
          </g>
          <g id="Grupo_1230853" data-name="Grupo 1230853" transform="translate(38.432 38.131)">
            <path id="Trazado_1219921" data-name="Trazado 1219921" d="M1666.361,582.311l-1.382-14.47,14.677-4.664-4.206,18.633Z" transform="translate(-1664.98 -563.178)" fill="#aa52f9"/>
          </g>
          <g id="Grupo_1230866" data-name="Grupo 1230866" transform="translate(12.659 189.536)">
            <g id="Grupo_1230857" data-name="Grupo 1230857">
              <g id="Grupo_1230856" data-name="Grupo 1230856">
                <g id="Grupo_1230855" data-name="Grupo 1230855">
                  <g id="Grupo_1230854" data-name="Grupo 1230854">
                    <path id="Trazado_1219922" data-name="Trazado 1219922" d="M1531.03,1365.461v1.061h32.961a7.118,7.118,0,0,1,5.787-5.576l-.458-9.031-18.291-1.842-1.965,3.257-.885,1.465-.693,1.149-.553.919-.806.362-1.607.72-2.164.971-9.99,4.481A2.259,2.259,0,0,0,1531.03,1365.461Z" transform="translate(-1531.03 -1350.073)" fill="#01184a"/>
                  </g>
                </g>
              </g>
            </g>
            <g id="Grupo_1230861" data-name="Grupo 1230861" transform="translate(0 16.448)">
              <g id="Grupo_1230860" data-name="Grupo 1230860">
                <g id="Grupo_1230859" data-name="Grupo 1230859">
                  <g id="Grupo_1230858" data-name="Grupo 1230858">
                    <path id="Trazado_1219923" data-name="Trazado 1219923" d="M1531.03,1435.56v4.278h33.408a7.1,7.1,0,0,1-.59-2.842,7.248,7.248,0,0,1,.144-1.436Z" transform="translate(-1531.03 -1435.56)" fill="#01184a"/>
                  </g>
                </g>
              </g>
            </g>
            <g id="Grupo_1230865" data-name="Grupo 1230865" transform="translate(32.817 10.873)">
              <g id="Grupo_1230864" data-name="Grupo 1230864">
                <g id="Grupo_1230863" data-name="Grupo 1230863">
                  <g id="Grupo_1230862" data-name="Grupo 1230862">
                    <path id="Trazado_1219924" data-name="Trazado 1219924" d="M1701.59,1413.6a7.1,7.1,0,0,0,.59,2.841h5.839l-.216-4.278-.282-5.576a7.117,7.117,0,0,0-5.787,5.576A7.242,7.242,0,0,0,1701.59,1413.6Z" transform="translate(-1701.59 -1406.584)" fill="#01184a"/>
                  </g>
                </g>
              </g>
            </g>
          </g>
          <g id="Grupo_1230867" data-name="Grupo 1230867" transform="translate(30.688 104.095)">
            <path id="Trazado_1219925" data-name="Trazado 1219925" d="M1640.475,906.007l-15.745,87.975h20.409l21.809-76.853v-7.407Z" transform="translate(-1624.73 -906.007)" fill="#01184a"/>
          </g>
          <g id="Grupo_1230880" data-name="Grupo 1230880" transform="translate(58.668 184.061)">
            <g id="Grupo_1230871" data-name="Grupo 1230871" transform="translate(0.477)">
              <g id="Grupo_1230870" data-name="Grupo 1230870">
                <g id="Grupo_1230869" data-name="Grupo 1230869">
                  <g id="Grupo_1230868" data-name="Grupo 1230868">
                    <path id="Trazado_1219926" data-name="Trazado 1219926" d="M1772.63,1344.9h26.552l6.782-6.059a6.13,6.13,0,0,1,1.689-7.238l-6.453-9.986-16.625,6.5,2.761,4.339,1.072,1.683.534.841-.772.843-1.2,1.31-1.051,1.149-1.2,1.31-.967,1.055-9.125,1.17a2.062,2.062,0,0,0-1.773,1.708Z" transform="translate(-1772.63 -1321.613)" fill="#01184a"/>
                  </g>
                </g>
              </g>
            </g>
            <g id="Grupo_1230875" data-name="Grupo 1230875" transform="translate(0 17.224)">
              <g id="Grupo_1230874" data-name="Grupo 1230874">
                <g id="Grupo_1230873" data-name="Grupo 1230873">
                  <g id="Grupo_1230872" data-name="Grupo 1230872">
                    <path id="Trazado_1219927" data-name="Trazado 1219927" d="M1770.15,1420.081h28.8l7.3-6.3a6.15,6.15,0,0,1-2.288-2.648l-6.783,6.059h-26.552Z" transform="translate(-1770.15 -1411.133)" fill="#2d74dc"/>
                  </g>
                </g>
              </g>
            </g>
            <g id="Grupo_1230879" data-name="Grupo 1230879" transform="translate(33.273 9.985)">
              <g id="Grupo_1230878" data-name="Grupo 1230878">
                <g id="Grupo_1230877" data-name="Grupo 1230877">
                  <g id="Grupo_1230876" data-name="Grupo 1230876">
                    <path id="Trazado_1219928" data-name="Trazado 1219928" d="M1943.08,1378.232a6.119,6.119,0,0,0,2.827,5.162l1.98-1.71a2.209,2.209,0,0,0,.481-2.759l-.908-1.607-2.152-3.811A6.113,6.113,0,0,0,1943.08,1378.232Z" transform="translate(-1943.08 -1373.508)" fill="#2d74dc"/>
                  </g>
                </g>
              </g>
            </g>
          </g>
          <g id="Grupo_1230881" data-name="Grupo 1230881" transform="translate(41.945 104.094)">
            <path id="Trazado_1219929" data-name="Trazado 1219929" d="M1687.724,906.006l-4.355,41.86a24.69,24.69,0,0,0,3.154,14.865l27.2,32.708,17.647-10.115-21.424-31.785,13.988-47.533h-36.211Z" transform="translate(-1683.237 -906.006)" fill="#2d74dc"/>
          </g>
          <g id="Grupo_1230883" data-name="Grupo 1230883" transform="translate(58.748 107.497)">
            <g id="Grupo_1230882" data-name="Grupo 1230882" transform="translate(0 0)">
              <path id="Trazado_1219930" data-name="Trazado 1219930" d="M1794.94,1003.611l-23.612-34.884a4.457,4.457,0,0,1-.672-3.374l8.531-41.663.377.077-8.531,41.663a4.072,4.072,0,0,0,.613,3.081l23.612,34.884Z" transform="translate(-1770.567 -923.691)" fill="#01184a"/>
            </g>
          </g>
          <g id="Grupo_1230897" data-name="Grupo 1230897" transform="translate(3.207 34.66)">
            <g id="Grupo_1230884" data-name="Grupo 1230884" transform="translate(38.045)">
              <path id="Trazado_1219931" data-name="Trazado 1219931" d="M1682.509,617.774s-8.809-59.144,4.431-67.539a32.292,32.292,0,0,1,15.733-5.086,11.194,11.194,0,0,1,11.546,8.874l9.005,62.547S1703.139,627.8,1682.509,617.774Z" transform="translate(-1679.637 -545.134)" fill="#dcb9fc"/>
            </g>
            <g id="Grupo_1230885" data-name="Grupo 1230885" transform="translate(65.449 21.028)">
              <path id="Trazado_1219932" data-name="Trazado 1219932" d="M1823.762,677.476l5.292-23.051s1.783,5.967-6.993,30.413Z" transform="translate(-1822.061 -654.425)" fill="#aa52f9"/>
            </g>
            <g id="Grupo_1230890" data-name="Grupo 1230890" transform="translate(0 69.435)">
              <g id="Grupo_1230886" data-name="Grupo 1230886">
                <path id="Trazado_1219933" data-name="Trazado 1219933" d="M1521.062,949.077h-36.934a2.221,2.221,0,0,1-2.222-2.221V908.229a2.221,2.221,0,0,1,2.222-2.221h36.934a2.221,2.221,0,0,1,2.222,2.221v38.626A2.223,2.223,0,0,1,1521.062,949.077Z" transform="translate(-1481.906 -906.008)" fill="#13417c"/>
              </g>
              <g id="Grupo_1230889" data-name="Grupo 1230889" transform="translate(5.593 9.719)">
                <g id="Grupo_1230887" data-name="Grupo 1230887">
                  <path id="Trazado_1219934" data-name="Trazado 1219934" d="M1513.693,975.468l.024-2.2q0-1.513-.047-2.082,0-1.135-1.419-1.135h-.142a.953.953,0,0,1-1.017-.733,3.312,3.312,0,0,1-.118-.97,3.665,3.665,0,0,1,.106-.97.955.955,0,0,1,.3-.521,1.216,1.216,0,0,1,.71-.213h.095q1.49,0,1.49-1.159.023-4.328.024-4.825a4.153,4.153,0,0,1,1.1-2.98,3.642,3.642,0,0,1,2.756-1.159,2.69,2.69,0,0,1,1.135.177.9.9,0,0,1,.473.544,3.947,3.947,0,0,1,0,1.916.812.812,0,0,1-.4.508,2.346,2.346,0,0,1-1.183.26q-.473,0-.473.922v4.021a5.054,5.054,0,0,1-.355,1.916,4.169,4.169,0,0,1-.686,1.23l-.355.355a1.828,1.828,0,0,1,.438.426,3.534,3.534,0,0,1,.485.757,7.422,7.422,0,0,1,.461,2.98q-.012,1.916-.012,3.051v.568a.758.758,0,0,0,.118.45.657.657,0,0,0,.485.166,3.556,3.556,0,0,1,.544.035,2.094,2.094,0,0,1,.532.177q.52.26.52,1.466,0,1.229-.544,1.49a2.624,2.624,0,0,1-1.159.213,3.643,3.643,0,0,1-2.767-1.182,4.274,4.274,0,0,1-1.112-3.051Z" transform="translate(-1510.973 -956.522)" fill="#fff"/>
                </g>
                <g id="Grupo_1230888" data-name="Grupo 1230888" transform="translate(21.887 0.001)">
                  <path id="Trazado_1219935" data-name="Trazado 1219935" d="M1630.258,973.271l.024,2.2v.449a4.276,4.276,0,0,1-1.112,3.051,3.643,3.643,0,0,1-2.767,1.183q-1.325,0-1.561-.71a3.411,3.411,0,0,1-.118-.993,3.166,3.166,0,0,1,.118-.97.808.808,0,0,1,.4-.5,1.869,1.869,0,0,1,.84-.213q.414,0,.485-.012t.2-.165a.661.661,0,0,0,.13-.437v-.568l-.024-3.453a6.308,6.308,0,0,1,.355-2.235,3.212,3.212,0,0,1,.71-1.242l.355-.284a4.666,4.666,0,0,1-.4-.4,5.567,5.567,0,0,1-1.017-3.1l.024-4.021q0-.78-.26-.9a2.024,2.024,0,0,0-.391-.024,2.526,2.526,0,0,1-.52-.047,1.75,1.75,0,0,1-.5-.2.871.871,0,0,1-.39-.52,3.939,3.939,0,0,1,0-1.916.835.835,0,0,1,.378-.508,2.754,2.754,0,0,1,1.206-.213,3.641,3.641,0,0,1,2.755,1.159,4.154,4.154,0,0,1,1.1,2.98l.024,4.825q0,1.159,1.49,1.159h.095a.969.969,0,0,1,1.041.733,4.591,4.591,0,0,1,.095,1.052,2.382,2.382,0,0,1-.213,1.088q-.213.414-.426.473a1.97,1.97,0,0,1-.52.059h-.142q-1.419,0-1.419,1.135C1630.274,971.569,1630.258,972.261,1630.258,973.271Z" transform="translate(-1624.724 -956.525)" fill="#fff"/>
                </g>
              </g>
            </g>
            <g id="Grupo_1230896" data-name="Grupo 1230896" transform="translate(10.97 32.756)">
              <g id="Grupo_1230895" data-name="Grupo 1230895">
                <g id="Grupo_1230892" data-name="Grupo 1230892">
                  <g id="Grupo_1230891" data-name="Grupo 1230891">
                    <path id="Trazado_1219936" data-name="Trazado 1219936" d="M1581.807,730.737l-32.536,15.536-6.891,4.1a1.371,1.371,0,0,0-.6.75l-2.834,8.61a.434.434,0,0,0,.63.511c1.273-.728,3.481-2.6,4.256-7.045l-.61,6.482a.434.434,0,0,0,.783.3,12.809,12.809,0,0,0,2.422-6.6l.049,6.545a.434.434,0,0,0,.792.242,10.238,10.238,0,0,0,1.885-6.894l.638,5.909a.434.434,0,0,0,.793.193,8.61,8.61,0,0,0,.984-6.806s5.252-1.511,4.324-4.593l29.231-6.386a11.2,11.2,0,0,0,8.54-8.487l3.988-17.726h-15.225Z" transform="translate(-1538.922 -715.375)" fill="#fda08e"/>
                  </g>
                </g>
                <g id="Grupo_1230894" data-name="Grupo 1230894">
                  <g id="Grupo_1230893" data-name="Grupo 1230893">
                    <path id="Trazado_1219937" data-name="Trazado 1219937" d="M1581.807,730.737l-32.536,15.536-6.891,4.1a1.371,1.371,0,0,0-.6.75l-2.834,8.61a.434.434,0,0,0,.63.511c1.273-.728,3.481-2.6,4.256-7.045l-.61,6.482a.434.434,0,0,0,.783.3,12.809,12.809,0,0,0,2.422-6.6l.049,6.545a.434.434,0,0,0,.792.242,10.238,10.238,0,0,0,1.885-6.894l.638,5.909a.434.434,0,0,0,.793.193,8.61,8.61,0,0,0,.984-6.806s5.252-1.511,4.324-4.593l29.231-6.386a11.2,11.2,0,0,0,8.54-8.487l3.988-17.726h-15.225Z" transform="translate(-1538.922 -715.375)" fill="#fda08e"/>
                  </g>
                </g>
              </g>
            </g>
          </g>
          <g id="Grupo_1230917" data-name="Grupo 1230917" transform="translate(44.626)">
            <g id="Grupo_1230898" data-name="Grupo 1230898">
              <path id="Trazado_1219938" data-name="Trazado 1219938" d="M1717.15,393.43a6.34,6.34,0,0,0,4.987-2.367,10.824,10.824,0,0,0,2.265-5.323,9.651,9.651,0,0,0-.283-4.748,5.207,5.207,0,0,0-3.149-3.29c.917-2.1-.436-5.008-2.134-6.5a15.192,15.192,0,0,0-6.053-2.75l-11.3-3.227a3.8,3.8,0,0,0-1.474-.217c-1.151.137-1.945,1.28-2.349,2.41a8.866,8.866,0,0,0,1.519,8.508,14.877,14.877,0,0,0-.55,4.153,6.991,6.991,0,0,0,4.474,6.294C1708.113,388.129,1711.869,393.172,1717.15,393.43Z" transform="translate(-1697.171 -364.998)" fill="#f47847"/>
            </g>
            <g id="Grupo_1230902" data-name="Grupo 1230902" transform="translate(3.398 9.251)">
              <g id="Grupo_1230901" data-name="Grupo 1230901">
                <g id="Grupo_1230900" data-name="Grupo 1230900">
                  <g id="Grupo_1230899" data-name="Grupo 1230899">
                    <path id="Trazado_1219939" data-name="Trazado 1219939" d="M1720.631,440.182l-1.444,2.149s.157,1.187,7.191,1.006,7.037-4.25,7.037-4.25l-.727-10.148a2.221,2.221,0,0,0,2.572-2.642c-.257-3-2.713-3.838-4.153-2.059,0,0,.129-10.6-6.1-11.161,0,0,.486,5.617-9.345,5.959l-.51,1.435s-2.357,15.949,5.764,16.867l.335,1.068-.1,1Z" transform="translate(-1714.83 -413.077)" fill="#fda08e"/>
                  </g>
                </g>
              </g>
            </g>
            <g id="Grupo_1230906" data-name="Grupo 1230906" transform="translate(9.199 30.687)">
              <g id="Grupo_1230905" data-name="Grupo 1230905">
                <g id="Grupo_1230904" data-name="Grupo 1230904">
                  <g id="Grupo_1230903" data-name="Grupo 1230903">
                    <path id="Trazado_1219940" data-name="Trazado 1219940" d="M1745.262,527.313l-.281,2.843s6.695-.548,9.16-5.668A12.832,12.832,0,0,1,1745.262,527.313Z" transform="translate(-1744.981 -524.488)" fill="#e97a6f"/>
                  </g>
                </g>
              </g>
            </g>
            <g id="Grupo_1230907" data-name="Grupo 1230907" transform="translate(4.409 18)">
              <path id="Trazado_1219941" data-name="Trazado 1219941" d="M1722.433,465.745a.914.914,0,0,1-1.415-.091,2.235,2.235,0,0,1-.232-2,23.747,23.747,0,0,1,.851-2.357c.316-.818.639-1.633.962-2.447.127-.32-.437-.421-.558-.115-.591,1.488-1.232,2.974-1.723,4.5a3.421,3.421,0,0,0-.128,2.029,1.785,1.785,0,0,0,1.109,1.22,1.445,1.445,0,0,0,1.639-.495C1723.143,465.7,1722.621,465.477,1722.433,465.745Z" transform="translate(-1720.087 -458.549)" fill="#e97a6f"/>
            </g>
            <g id="Grupo_1230908" data-name="Grupo 1230908" transform="translate(3.533 18.764)">
              <circle id="Elipse_14583" data-name="Elipse 14583" cx="0.874" cy="0.874" r="0.874" fill="#071017"/>
            </g>
            <g id="Grupo_1230909" data-name="Grupo 1230909" transform="translate(11.249 18.764)">
              <circle id="Elipse_14584" data-name="Elipse 14584" cx="0.874" cy="0.874" r="0.874" fill="#071017"/>
            </g>
            <g id="Grupo_1230910" data-name="Grupo 1230910" transform="translate(11.635 15.122)">
              <ellipse id="Elipse_14585" data-name="Elipse 14585" cx="0.789" cy="2.312" rx="0.789" ry="2.312" transform="translate(0 1.432) rotate(-65.208)" fill="#f47847"/>
            </g>
            <g id="Grupo_1230911" data-name="Grupo 1230911" transform="translate(1.463 15.11)">
              <ellipse id="Elipse_14586" data-name="Elipse 14586" cx="2.312" cy="0.789" rx="2.312" ry="0.789" transform="translate(0 1.939) rotate(-24.792)" fill="#f47847"/>
            </g>
            <g id="Grupo_1230912" data-name="Grupo 1230912" transform="translate(20.33 21.04)">
              <path id="Trazado_1219942" data-name="Trazado 1219942" d="M1804.922,476.169c-.085-.073-.166-.15-.243-.23l-.01-.01-.013-.014-.055-.063q-.057-.067-.111-.137-.1-.132-.191-.275-.042-.067-.08-.135a3.226,3.226,0,0,1,.642-.48.251.251,0,0,0,.088-.359.307.307,0,0,0-.4-.077,3.923,3.923,0,0,0-1.711,2.028.26.26,0,0,0,.213.311.3.3,0,0,0,.345-.2,3.562,3.562,0,0,1,.433-.79,3.69,3.69,0,0,0,.7.812.309.309,0,0,0,.405-.017A.248.248,0,0,0,1804.922,476.169Z" transform="translate(-1802.83 -474.347)" fill="#e97a6f"/>
            </g>
            <g id="Grupo_1230916" data-name="Grupo 1230916" transform="translate(7.413 24.053)">
              <g id="Grupo_1230913" data-name="Grupo 1230913" transform="translate(0.183 0.597)">
                <path id="Trazado_1219943" data-name="Trazado 1219943" d="M1736.65,496.1a3.164,3.164,0,0,0,4.308,1.933c-.432-2.9,2.46-4.533,2.46-4.533-.069-.145-.141-.277-.211-.4C1741.9,494.05,1738.564,496.283,1736.65,496.1Z" transform="translate(-1736.65 -493.108)" fill="#01184a"/>
              </g>
              <g id="Grupo_1230914" data-name="Grupo 1230914">
                <path id="Trazado_1219944" data-name="Trazado 1219944" d="M1735.7,493.086a3.964,3.964,0,0,0,.182.512c1.916.18,5.247-2.053,6.557-3a4.261,4.261,0,0,0-.422-.6Z" transform="translate(-1735.7 -490.006)" fill="#fff"/>
              </g>
              <g id="Grupo_1230915" data-name="Grupo 1230915" transform="translate(4.445 0.992)">
                <path id="Trazado_1219945" data-name="Trazado 1219945" d="M1758.846,499.694a6.458,6.458,0,0,0,.641-.277c2.648-1.31,2.349-3.14,1.819-4.257C1761.307,495.161,1758.415,496.792,1758.846,499.694Z" transform="translate(-1758.802 -495.161)" fill="#f47847"/>
              </g>
            </g>
          </g>
        </g>
        <g id="Grupo_1230919" data-name="Grupo 1230919" transform="translate(198.668 71.031)">
          <path id="Trazado_1219946" data-name="Trazado 1219946" d="M1238.959,571.431h-4.264a.481.481,0,1,1,0-.962h4.264a2.519,2.519,0,0,0,.456-.041.481.481,0,1,1,.174.946A3.477,3.477,0,0,1,1238.959,571.431Zm-9.074,0h-4.81a.481.481,0,1,1,0-.962h4.81a.481.481,0,1,1,0,.962Zm-9.62,0h-4.81a.481.481,0,1,1,0-.962h4.81a.481.481,0,1,1,0,.962Zm-9.62,0h-.471a.481.481,0,1,1,0-.962h.471a.481.481,0,0,1,0,.962Zm31.3-3.654a.481.481,0,0,1-.481-.481v-4.81a.481.481,0,1,1,.962,0v4.81A.481.481,0,0,1,1241.939,567.777Zm0-9.62a.481.481,0,0,1-.481-.481v-4.81a.481.481,0,1,1,.962,0v4.81A.481.481,0,0,1,1241.939,558.157Zm0-9.62a.481.481,0,0,1-.481-.481v-4.81a.481.481,0,1,1,.962,0v4.81A.481.481,0,0,1,1241.939,548.536Z" transform="translate(-1209.692 -542.764)" fill="#13417c"/>
        </g>
        <g id="Grupo_1230920" data-name="Grupo 1230920" transform="translate(124.531 78.05)">
          <path id="Trazado_1219947" data-name="Trazado 1219947" d="M899,637.808h-4.81a.481.481,0,0,1,0-.962h4.329V633.6a.481.481,0,1,1,.962,0v3.726A.481.481,0,0,1,899,637.808Zm-9.62,0h-4.81a.481.481,0,1,1,0-.962h4.81a.481.481,0,0,1,0,.962Zm-9.62,0h-4.81a.481.481,0,0,1,0-.962h4.81a.481.481,0,0,1,0,.962Zm-9.62,0h-4.81a.481.481,0,0,1,0-.962h4.81a.481.481,0,0,1,0,.962Zm-9.62,0h-4.81a.481.481,0,0,1,0-.962h4.81a.481.481,0,0,1,0,.962Zm-9.621,0h-4.81a.481.481,0,0,1,0-.962h4.81a.481.481,0,0,1,0,.962Zm-9.62,0h-4.81a.481.481,0,0,1,0-.962h4.81a.481.481,0,0,1,0,.962Zm-9.62,0h-4.81a.481.481,0,0,1,0-.962h4.81a.481.481,0,0,1,0,.962Zm-6.793-2.827a.481.481,0,0,1-.481-.481v-4.81a.481.481,0,1,1,.962,0v4.81A.481.481,0,0,1,824.862,634.981ZM899,629.272a.481.481,0,0,1-.481-.481v-4.81a.481.481,0,1,1,.962,0v4.81A.481.481,0,0,1,899,629.272Zm-74.136-3.911a.481.481,0,0,1-.481-.481v-4.81a.481.481,0,1,1,.962,0v4.81A.481.481,0,0,1,824.862,625.361ZM899,619.652a.481.481,0,0,1-.481-.481v-4.81a.481.481,0,1,1,.962,0v4.81A.481.481,0,0,1,899,619.652Zm-74.136-3.911a.481.481,0,0,1-.481-.481v-4.81a.481.481,0,1,1,.962,0v4.81A.481.481,0,0,1,824.862,615.74ZM899,610.031a.481.481,0,0,1-.481-.481v-4.81a.481.481,0,1,1,.962,0v4.81A.481.481,0,0,1,899,610.031Zm-74.136-3.911a.481.481,0,0,1-.481-.481v-4.81a.481.481,0,1,1,.962,0v4.81A.481.481,0,0,1,824.862,606.12ZM899,600.411a.481.481,0,0,1-.481-.481v-4.81a.481.481,0,0,1,.962,0v4.81A.481.481,0,0,1,899,600.411ZM824.862,596.5a.481.481,0,0,1-.481-.481v-4.81a.481.481,0,1,1,.962,0v4.81A.481.481,0,0,1,824.862,596.5ZM899,590.791a.481.481,0,0,1-.481-.481V585.5a.481.481,0,0,1,.962,0v4.81A.481.481,0,0,1,899,590.791Zm-74.136-3.911a.481.481,0,0,1-.481-.481v-4.81a.481.481,0,0,1,.962,0v4.81A.481.481,0,0,1,824.862,586.879ZM899,581.17a.481.481,0,0,1-.481-.481v-.483h-3.365a.481.481,0,0,1,0-.962H899a.481.481,0,0,1,.481.481v.964A.481.481,0,0,1,899,581.17Zm-8.656-.964h-4.81a.481.481,0,0,1,0-.962h4.81a.481.481,0,1,1,0,.962Zm-9.62,0h-4.81a.481.481,0,0,1,0-.962h4.81a.481.481,0,0,1,0,.962Zm-9.62,0h-4.81a.481.481,0,0,1,0-.962h4.81a.481.481,0,0,1,0,.962Zm-9.62,0h-4.81a.481.481,0,0,1,0-.962h4.81a.481.481,0,1,1,0,.962Zm-9.621,0h-4.81a.481.481,0,0,1,0-.962h4.81a.481.481,0,0,1,0,.962Zm-9.62,0h-4.81a.481.481,0,0,1,0-.962h4.81a.481.481,0,1,1,0,.962Zm-9.62,0h-4.81a.481.481,0,0,1,0-.962h4.81a.481.481,0,0,1,0,.962Z" transform="translate(-824.381 -579.244)" fill="#13417c"/>
        </g>
        <g id="Grupo_1230926" data-name="Grupo 1230926" transform="translate(106.422 133.892)">
          <g id="Grupo_1230921" data-name="Grupo 1230921">
            <path id="Trazado_1219948" data-name="Trazado 1219948" d="M786.759,880.168h-56.5v-6.546a4.153,4.153,0,0,1,4.153-4.153h48.192a4.153,4.153,0,0,1,4.154,4.153Z" transform="translate(-730.26 -869.468)" fill="#13417c"/>
          </g>
          <g id="Grupo_1230922" data-name="Grupo 1230922" transform="translate(0 10.7)">
            <path id="Trazado_1219949" data-name="Trazado 1219949" d="M786.759,925.077h-56.5v38.706a4.042,4.042,0,0,0,4.042,4.042h48.415a4.042,4.042,0,0,0,4.042-4.042V925.077Z" transform="translate(-730.26 -925.077)" fill="#f7d3c8"/>
          </g>
          <g id="Grupo_1230923" data-name="Grupo 1230923" transform="translate(36.875 3.783)">
            <circle id="Elipse_14587" data-name="Elipse 14587" cx="1.567" cy="1.567" r="1.567" fill="#01184a"/>
          </g>
          <g id="Grupo_1230924" data-name="Grupo 1230924" transform="translate(43.247 3.783)">
            <circle id="Elipse_14588" data-name="Elipse 14588" cx="1.567" cy="1.567" r="1.567" fill="#e46449"/>
          </g>
          <g id="Grupo_1230925" data-name="Grupo 1230925" transform="translate(49.619 3.783)">
            <circle id="Elipse_14589" data-name="Elipse 14589" cx="1.567" cy="1.567" r="1.567" fill="#ef8456"/>
          </g>
        </g>
        <g id="Grupo_1230932" data-name="Grupo 1230932" transform="translate(116.696 147.99)">
          <g id="Grupo_1230927" data-name="Grupo 1230927">
            <circle id="Elipse_14590" data-name="Elipse 14590" cx="17.975" cy="17.975" r="17.975" fill="#fff"/>
          </g>
          <g id="Grupo_1230931" data-name="Grupo 1230931" transform="translate(6.891 6.519)">
            <g id="Grupo_1230928" data-name="Grupo 1230928" transform="translate(0 7.465)">
              <path id="Trazado_1219950" data-name="Trazado 1219950" d="M841.643,1015.42l-11.084,6.69-11.083-6.69Z" transform="translate(-819.476 -1015.42)" fill="#13417c"/>
            </g>
            <g id="Grupo_1230929" data-name="Grupo 1230929" transform="translate(0 7.465)">
              <path id="Trazado_1219951" data-name="Trazado 1219951" d="M841.643,1015.42v13.38H819.476v-13.38l11.083,6.69Z" transform="translate(-819.476 -1015.42)" fill="#2d74dc"/>
            </g>
            <g id="Grupo_1230930" data-name="Grupo 1230930">
              <path id="Trazado_1219952" data-name="Trazado 1219952" d="M819.476,984.086l11.083-7.465,11.084,7.465Z" transform="translate(-819.476 -976.621)" fill="#2d74dc"/>
            </g>
          </g>
        </g>
        <g id="Grupo_1230933" data-name="Grupo 1230933" transform="translate(207.823 135.653)">
          <path id="Trazado_1219953" data-name="Trazado 1219953" d="M1281.8,937.29h-4.81a.481.481,0,0,1,0-.962h4.81a.481.481,0,0,1,0,.962Zm-9.621,0h-4.81a.481.481,0,1,1,0-.962h4.81a.481.481,0,1,1,0,.962Zm-9.62,0h-4.81a.481.481,0,1,1,0-.962h4.81a.481.481,0,1,1,0,.962Zm19.254-4.8a.481.481,0,0,1-.481-.481V927.2a.481.481,0,0,1,.962,0v4.81A.481.481,0,0,1,1281.815,932.493Zm0-9.62a.481.481,0,0,1-.481-.481v-4.81a.481.481,0,0,1,.962,0v4.81A.481.481,0,0,1,1281.815,922.873Zm0-9.62a.481.481,0,0,1-.481-.481v-4.81a.481.481,0,1,1,.962,0v4.81A.481.481,0,0,1,1281.815,913.253Zm0-9.62a.481.481,0,0,1-.481-.481v-4.81a.481.481,0,1,1,.962,0v4.81A.481.481,0,0,1,1281.815,903.632Zm0-9.621a.481.481,0,0,1-.481-.481v-4.81a.481.481,0,0,1,.962,0v4.81A.481.481,0,0,1,1281.815,894.012Zm0-9.62a.481.481,0,0,1-.481-.481V879.1a.481.481,0,1,1,.962,0v4.81A.481.481,0,0,1,1281.815,884.391Z" transform="translate(-1257.27 -878.619)" fill="#13417c"/>
        </g>
        <g id="Grupo_1230942" data-name="Grupo 1230942" transform="translate(183.678 185.276)">
          <g id="Grupo_1230935" data-name="Grupo 1230935" transform="translate(8.487)">
            <g id="Grupo_1230934" data-name="Grupo 1230934">
              <circle id="Elipse_14591" data-name="Elipse 14591" cx="3.031" cy="3.031" r="3.031" fill="#fff"/>
            </g>
          </g>
          <g id="Grupo_1230937" data-name="Grupo 1230937" transform="translate(0 6.063)">
            <g id="Grupo_1230936" data-name="Grupo 1230936">
              <circle id="Elipse_14592" data-name="Elipse 14592" cx="3.031" cy="3.031" r="3.031" fill="#fff"/>
            </g>
          </g>
          <g id="Grupo_1230939" data-name="Grupo 1230939" transform="translate(8.487 11.069)">
            <g id="Grupo_1230938" data-name="Grupo 1230938">
              <circle id="Elipse_14593" data-name="Elipse 14593" cx="3.031" cy="3.031" r="3.031" fill="#fff"/>
            </g>
          </g>
          <g id="Grupo_1230941" data-name="Grupo 1230941" transform="translate(2.044 2.196)">
            <g id="Grupo_1230940" data-name="Grupo 1230940">
              <path id="Trazado_1219954" data-name="Trazado 1219954" d="M1150.857,1160.312l-8.447-5.772,9.143-6.6.662.92-7.833,5.655,7.115,4.862Z" transform="translate(-1142.41 -1147.94)" fill="#fff"/>
            </g>
          </g>
        </g>
        <g id="Grupo_1230947" data-name="Grupo 1230947" transform="translate(31.481 0)">
          <g id="Grupo_1230943" data-name="Grupo 1230943">
            <circle id="Elipse_14594" data-name="Elipse 14594" cx="12.345" cy="12.345" r="12.345" fill="#13417c"/>
          </g>
          <g id="Grupo_1230944" data-name="Grupo 1230944" transform="translate(6.001 8.533)">
            <rect id="Rectángulo_422870" data-name="Rectángulo 422870" width="12.688" height="1.269" fill="#fff"/>
          </g>
          <g id="Grupo_1230945" data-name="Grupo 1230945" transform="translate(6.001 11.71)">
            <rect id="Rectángulo_422871" data-name="Rectángulo 422871" width="12.688" height="1.269" fill="#fff"/>
          </g>
          <g id="Grupo_1230946" data-name="Grupo 1230946" transform="translate(6.001 14.888)">
            <rect id="Rectángulo_422872" data-name="Rectángulo 422872" width="12.688" height="1.269" fill="#fff"/>
          </g>
        </g>
        <g id="Grupo_1230952" data-name="Grupo 1230952" transform="translate(336.486 47.152)">
          <g id="Grupo_1230948" data-name="Grupo 1230948">
            <ellipse id="Elipse_14595" data-name="Elipse 14595" cx="14.036" cy="10.715" rx="14.036" ry="10.715" fill="#2d74dc"/>
          </g>
          <g id="Grupo_1230949" data-name="Grupo 1230949" transform="translate(4.926 9.132)">
            <circle id="Elipse_14596" data-name="Elipse 14596" cx="1.583" cy="1.583" r="1.583" fill="#fff"/>
          </g>
          <g id="Grupo_1230950" data-name="Grupo 1230950" transform="translate(12.453 9.132)">
            <circle id="Elipse_14597" data-name="Elipse 14597" cx="1.583" cy="1.583" r="1.583" fill="#fff"/>
          </g>
          <g id="Grupo_1230951" data-name="Grupo 1230951" transform="translate(19.98 9.132)">
            <circle id="Elipse_14598" data-name="Elipse 14598" cx="1.583" cy="1.583" r="1.583" fill="#fff"/>
          </g>
        </g>
      </g>
    </g>
  </g>
</svg>
