<svg xmlns="http://www.w3.org/2000/svg" xmlns:xlink="http://www.w3.org/1999/xlink" width="108" height="108" viewBox="0 0 108 108">
  <defs>
    <filter id="Trazado_904820" x="0" y="0" width="108" height="108" filterUnits="userSpaceOnUse">
      <feOffset dy="3" input="SourceAlpha"/>
      <feGaussianBlur stdDeviation="3" result="blur"/>
      <feFlood flood-opacity="0.161"/>
      <feComposite operator="in" in2="blur"/>
      <feComposite in="SourceGraphic"/>
    </filter>
  </defs>
  <g id="Grupo_1230955" data-name="Grupo 1230955" transform="translate(-195 -4110)">
    <g id="Grupo_1230559" data-name="Grupo 1230559" transform="translate(0 3299)">
      <g id="Grupo_1228101" data-name="Grupo 1228101" transform="translate(204 817)">
        <g id="Grupo_1227366" data-name="Grupo 1227366">
          <g id="Grupo_1224979" data-name="Grupo 1224979">
            <g id="Grupo_1173585" data-name="Grupo 1173585" transform="translate(0 0)">
              <g id="Grupo_1173428" data-name="Grupo 1173428">
                <g id="Grupo_1171958" data-name="Grupo 1171958">
                  <g id="Grupo_1167341" data-name="Grupo 1167341">
                    <g id="Grupo_1166792" data-name="Grupo 1166792">
                      <g transform="matrix(1, 0, 0, 1, -9, -6)" filter="url(#Trazado_904820)">
                        <g id="Trazado_904820-2" data-name="Trazado 904820" transform="translate(9 6)" fill="#fef9e5">
                          <path d="M 44.99999618530273 88.50003051757812 C 39.12687301635742 88.50003051757812 33.43022155761719 87.35010528564453 28.06829643249512 85.08219146728516 C 22.88852119445801 82.89134216308594 18.23629570007324 79.75461578369141 14.24084663391113 75.75916290283203 C 10.24540901184082 71.76371765136719 7.108683586120605 67.11148834228516 4.917821407318115 61.93171691894531 C 2.649921178817749 56.56978988647461 1.499996185302734 50.87313842773438 1.499996185302734 45.00001525878906 C 1.499996185302734 39.12689208984375 2.649921178817749 33.43024063110352 4.917821407318115 28.06830215454102 C 7.108683586120605 22.88852691650391 10.24540901184082 18.23631477355957 14.24084663391113 14.24086570739746 C 18.23629570007324 10.24541568756104 22.88852119445801 7.10869026184082 28.06829643249512 4.917827606201172 C 33.43022155761719 2.649927854537964 39.12687301635742 1.50000274181366 44.99999618530273 1.50000274181366 C 50.87311935424805 1.50000274181366 56.56977081298828 2.649927854537964 61.93169784545898 4.917827606201172 C 67.11147308349609 7.10869026184082 71.76369476318359 10.24541568756104 75.75914764404297 14.24086570739746 C 79.75458526611328 18.23631477355957 82.89131164550781 22.88852691650391 85.08216857910156 28.06830215454102 C 87.35007476806641 33.43024063110352 88.5 39.12689208984375 88.5 45.00001525878906 C 88.5 50.87313842773438 87.35007476806641 56.56978988647461 85.08216857910156 61.93171691894531 C 82.89131164550781 67.11148834228516 79.75458526611328 71.76371765136719 75.75914764404297 75.75916290283203 C 71.76369476318359 79.75461578369141 67.11147308349609 82.89134216308594 61.93169784545898 85.08219146728516 C 56.56977081298828 87.35010528564453 50.87311935424805 88.50003051757812 44.99999618530273 88.50003051757812 Z" stroke="none"/>
                          <path d="M 44.99999618530273 3 C 39.32870864868164 3 33.82865142822266 4.110061645507812 28.65262603759766 6.299346923828125 C 23.65165710449219 8.414573669433594 19.15968322753906 11.44334411621094 15.301513671875 15.301513671875 C 11.44333648681641 19.15968322753906 8.414566040039062 23.65165710449219 6.299339294433594 28.65262985229492 C 4.110054016113281 33.82867050170898 2.999992370605469 39.32872772216797 2.999992370605469 45.00001525878906 C 2.999992370605469 50.67130279541016 4.110054016113281 56.17136001586914 6.299339294433594 61.34738922119141 C 8.414566040039062 66.34837341308594 11.44333648681641 70.84033203125 15.301513671875 74.69850158691406 C 19.15968322753906 78.55668640136719 23.65165710449219 81.58545684814453 28.65262603759766 83.70068359375 C 33.82865142822266 85.88996887207031 39.32870864868164 87.00003051757812 44.99999618530273 87.00003051757812 C 50.67128372192383 87.00003051757812 56.17134094238281 85.88996887207031 61.34736633300781 83.70068359375 C 66.34834289550781 81.58545684814453 70.84030914306641 78.55668640136719 74.69847869873047 74.69850158691406 C 78.55665588378906 70.84033203125 81.58542633056641 66.34837341308594 83.70065307617188 61.34738922119141 C 85.88993835449219 56.17136001586914 87 50.67130279541016 87 45.00001525878906 C 87 39.32872772216797 85.88993835449219 33.82867050170898 83.70065307617188 28.65262985229492 C 81.58542633056641 23.65165710449219 78.55665588378906 19.15968322753906 74.69847869873047 15.301513671875 C 70.84030914306641 11.44334411621094 66.34834289550781 8.414573669433594 61.34736633300781 6.299346923828125 C 56.17134094238281 4.110061645507812 50.67128372192383 3 44.99999618530273 3 M 44.99999618530273 0 C 69.85281372070312 0 90 20.14718627929688 90 45.00001525878906 C 90 69.85282897949219 69.85281372070312 90.00003051757812 44.99999618530273 90.00003051757812 C 20.14717864990234 90.00003051757812 -7.62939453125e-06 69.85282897949219 -7.62939453125e-06 45.00001525878906 C -7.62939453125e-06 20.14718627929688 20.14717864990234 0 44.99999618530273 0 Z" stroke="none" fill="#866d08"/>
                        </g>
                      </g>
                    </g>
                  </g>
                </g>
              </g>
            </g>
          </g>
        </g>
      </g>
    </g>
    <g id="desarrollo-de-aplicaciones_3_" data-name="desarrollo-de-aplicaciones (3)" transform="translate(221.233 4133.233)">
      <rect id="Rectángulo_422873" data-name="Rectángulo 422873" width="51.642" height="41.103" rx="2" transform="translate(2.054 2.054)" fill="#e2e7f6"/>
      <path id="Trazado_1219956" data-name="Trazado 1219956" d="M3.727,2A1.727,1.727,0,0,0,2,3.727V40.855H48.626a1.727,1.727,0,0,0,1.727-1.727V2Z" transform="translate(-0.137 -0.137)" fill="#f7fafd"/>
      <path id="Trazado_1219957" data-name="Trazado 1219957" d="M52.08,2H3.727A1.727,1.727,0,0,0,2,3.727V8.908H53.807V3.727A1.727,1.727,0,0,0,52.08,2Z" transform="translate(-0.137 -0.137)" fill="#5e87ca"/>
      <path id="Trazado_1219958" data-name="Trazado 1219958" d="M50.353,2H3.727A1.727,1.727,0,0,0,2,3.727V8.908H50.353Z" transform="translate(-0.137 -0.137)" fill="#78a0d4"/>
      <path id="Trazado_1219959" data-name="Trazado 1219959" d="M52.08,48.908H3.727A1.727,1.727,0,0,1,2,47.181V42H53.807v5.181A1.727,1.727,0,0,1,52.08,48.908Z" transform="translate(-0.137 -5.599)" fill="#5e87ca"/>
      <path id="Trazado_1219960" data-name="Trazado 1219960" d="M2,42v4.317H48.626a1.727,1.727,0,0,0,1.727-1.727V42Z" transform="translate(-0.137 -5.599)" fill="#78a0d4"/>
      <path id="Trazado_1219961" data-name="Trazado 1219961" d="M5,45h6.908v1.727H5Z" transform="translate(-0.546 -6.008)" fill="#f7fafd"/>
      <path id="Trazado_1219962" data-name="Trazado 1219962" d="M15,45h1.727v1.727H15Z" transform="translate(-1.912 -6.008)" fill="#f7fafd"/>
      <path id="Trazado_1219963" data-name="Trazado 1219963" d="M41.563,58H17.794a1.727,1.727,0,0,0-1.545.955L15,61.454H44.357l-1.249-2.5A1.727,1.727,0,0,0,41.563,58Z" transform="translate(-1.912 -7.784)" fill="#3b5892"/>
      <path id="Trazado_1219964" data-name="Trazado 1219964" d="M37.815,56.908,36.088,50H25.727L24,56.908Z" transform="translate(-3.141 -6.691)" fill="#c8cded"/>
      <path id="Trazado_1219965" data-name="Trazado 1219965" d="M41.04,58.863V58H17.931a1.727,1.727,0,0,0-1.545.955L16,59.727H40.176A.863.863,0,0,0,41.04,58.863Z" transform="translate(-2.048 -7.784)" fill="#4c6cb5"/>
      <g id="Grupo_1230954" data-name="Grupo 1230954" transform="translate(22.586 4.454)">
        <path id="Trazado_1219966" data-name="Trazado 1219966" d="M30,5h3.454V6.727H30Z" transform="translate(-26.546 -5)" fill="#f7fafd"/>
        <path id="Trazado_1219967" data-name="Trazado 1219967" d="M36,5h1.727V6.727H36Z" transform="translate(-27.366 -5)" fill="#f7fafd"/>
        <path id="Trazado_1219968" data-name="Trazado 1219968" d="M26,5h1.727V6.727H26Z" transform="translate(-26 -5)" fill="#f7fafd"/>
      </g>
      <path id="Trazado_1219969" data-name="Trazado 1219969" d="M23.269,26.361V22.908H21.316a6.88,6.88,0,0,0-.736-1.777l1.382-1.382L19.52,17.307l-1.382,1.382a6.88,6.88,0,0,0-1.777-.736V16H12.908v1.953a6.88,6.88,0,0,0-1.777.736L9.749,17.307,7.308,19.75,8.69,21.131a6.88,6.88,0,0,0-.737,1.776H6v3.454H7.953a6.88,6.88,0,0,0,.736,1.777L7.307,29.52l2.442,2.442,1.382-1.382a6.88,6.88,0,0,0,1.777.736v1.953h3.454V31.316a6.88,6.88,0,0,0,1.777-.736l1.382,1.382,2.442-2.442L20.58,28.138a6.88,6.88,0,0,0,.736-1.777Z" transform="translate(-0.683 -2.048)" fill="#939393"/>
      <circle id="Elipse_14599" data-name="Elipse 14599" cx="3.689" cy="3.689" r="3.689" transform="translate(10.485 18.917)" fill="#f2f2f2"/>
      <path id="Trazado_1219970" data-name="Trazado 1219970" d="M16.361,16H12.908v1.953a6.88,6.88,0,0,0-1.777.736L9.749,17.307,7.308,19.75,8.69,21.131a6.88,6.88,0,0,0-.737,1.776H6v3.454H7.953a6.88,6.88,0,0,0,.736,1.777l-.624.624a8.548,8.548,0,0,0,9.951-8.482,8.634,8.634,0,0,0-.177-1.742,6.863,6.863,0,0,0-1.477-.586Z" transform="translate(-0.683 -2.048)" fill="#b5b5b5"/>
      <path id="Trazado_1219971" data-name="Trazado 1219971" d="M40,14H55.542v5.181H40Z" transform="translate(-5.326 -1.775)" fill="#f0ae42"/>
      <path id="Trazado_1219972" data-name="Trazado 1219972" d="M53.815,16.59V14H40v3.454H52.952A.863.863,0,0,0,53.815,16.59Z" transform="translate(-5.326 -1.775)" fill="#f9d266"/>
      <path id="Trazado_1219973" data-name="Trazado 1219973" d="M40,24H55.542v3.454H40Z" transform="translate(-5.326 -3.141)" fill="#f0ae42"/>
      <path id="Trazado_1219974" data-name="Trazado 1219974" d="M53.815,24.863V24H40v1.727H52.952A.863.863,0,0,0,53.815,24.863Z" transform="translate(-5.326 -3.141)" fill="#f9d266"/>
      <path id="Trazado_1219975" data-name="Trazado 1219975" d="M40,32H55.542v5.181H40Z" transform="translate(-5.326 -4.233)" fill="#f0ae42"/>
      <path id="Trazado_1219976" data-name="Trazado 1219976" d="M53.815,34.59V32H40v3.454H52.952A.863.863,0,0,0,53.815,34.59Z" transform="translate(-5.326 -4.233)" fill="#f9d266"/>
      <path id="Trazado_1219977" data-name="Trazado 1219977" d="M38.088,17.727V16H31.181a.863.863,0,0,0-.863.863v6.908H26V25.5h4.317v6.908a.863.863,0,0,0,.863.863h6.908V31.542H32.044V25.5h6.044V23.771H32.044V17.727Z" transform="translate(-3.414 -2.048)" fill="#3b5892"/>
      <path id="Trazado_1219978" data-name="Trazado 1219978" d="M18.425,23.721a3.444,3.444,0,1,0-4.145,4.967,8.615,8.615,0,0,0,4.145-4.967Z" transform="translate(-1.502 -2.868)" fill="#f7fafd"/>
      <path id="Trazado_1219979" data-name="Trazado 1219979" d="M51.943,1H3.59A2.59,2.59,0,0,0,1,3.59V41.582a2.59,2.59,0,0,0,2.59,2.59H21.48l-1.3,5.181h-4.3a2.576,2.576,0,0,0-2.317,1.432l-1.25,2.5a.863.863,0,0,0,.773,1.249H42.445a.863.863,0,0,0,.777-1.249l-1.25-2.5a2.576,2.576,0,0,0-2.321-1.432h-4.3l-1.3-5.181h17.89a2.59,2.59,0,0,0,2.59-2.59V3.59A2.59,2.59,0,0,0,51.943,1ZM3.59,2.727H51.943a.863.863,0,0,1,.863.863V7.908H2.727V3.59A.863.863,0,0,1,3.59,2.727ZM52.807,9.634v25.9H2.727V9.634ZM40.423,51.557l.625,1.249H14.485l.625-1.249a.858.858,0,0,1,.772-.477H39.651a.858.858,0,0,1,.772.477Zm-6.855-2.2h-11.6l1.3-5.181h9.013Zm18.375-6.908H3.59a.863.863,0,0,1-.863-.863V37.265h50.08v4.317A.863.863,0,0,1,51.943,42.445Z"/>
      <path id="Trazado_1219980" data-name="Trazado 1219980" d="M30,5h3.454V6.727H30Z" transform="translate(-3.96 -0.546)"/>
      <path id="Trazado_1219981" data-name="Trazado 1219981" d="M36,5h1.727V6.727H36Z" transform="translate(-4.779 -0.546)"/>
      <path id="Trazado_1219982" data-name="Trazado 1219982" d="M26,5h1.727V6.727H26Z" transform="translate(-3.414 -0.546)"/>
      <path id="Trazado_1219983" data-name="Trazado 1219983" d="M5,45h6.908v1.727H5Z" transform="translate(-0.546 -6.008)"/>
      <path id="Trazado_1219984" data-name="Trazado 1219984" d="M15,45h1.727v1.727H15Z" transform="translate(-1.912 -6.008)"/>
      <path id="Trazado_1219985" data-name="Trazado 1219985" d="M5.863,26.815H7.178a8,8,0,0,0,.313.754l-.929.93a.863.863,0,0,0,0,1.221L9,32.162a.863.863,0,0,0,1.221,0l.93-.929a8,8,0,0,0,.754.313v1.314a.863.863,0,0,0,.863.863h3.454a.863.863,0,0,0,.863-.863V31.545a8,8,0,0,0,.754-.313l.93.929a.863.863,0,0,0,1.221,0l2.442-2.442a.863.863,0,0,0,0-1.221l-.929-.93a8,8,0,0,0,.313-.754h1.314A.863.863,0,0,0,24,25.952v-.863H27.45V32a.863.863,0,0,0,.863.863h6.044v1.727a.863.863,0,0,0,.863.863H50.763a.863.863,0,0,0,.863-.863V29.405a.863.863,0,0,0-.863-.863H35.221a.863.863,0,0,0-.863.863v1.727H29.176V25.088h5.181v.863a.863.863,0,0,0,.863.863H50.763a.863.863,0,0,0,.863-.863V22.5a.863.863,0,0,0-.863-.863H35.221a.863.863,0,0,0-.863.863v.863H29.176V17.317h5.181v1.727a.863.863,0,0,0,.863.863H50.763a.863.863,0,0,0,.863-.863V13.863A.863.863,0,0,0,50.763,13H35.221a.863.863,0,0,0-.863.863V15.59H28.313a.863.863,0,0,0-.863.863v6.908H24V22.5a.863.863,0,0,0-.863-.863H21.818a8,8,0,0,0-.313-.754l.929-.93a.863.863,0,0,0,0-1.221l-2.442-2.442a.863.863,0,0,0-1.221,0l-.93.929a8,8,0,0,0-.754-.313V15.59a.863.863,0,0,0-.863-.863H12.771a.863.863,0,0,0-.863.863V16.9a8,8,0,0,0-.754.313l-.93-.929a.863.863,0,0,0-1.221,0L6.561,18.73a.863.863,0,0,0,0,1.221l.929.93a8,8,0,0,0-.313.754H5.863A.863.863,0,0,0,5,22.5v3.454A.863.863,0,0,0,5.863,26.815Zm30.221,3.454H49.9v3.454H36.084Zm0-6.908H49.9v1.727H36.084Zm0-8.634H49.9v3.454H36.084ZM6.727,23.361h1.09a.863.863,0,0,0,.836-.648A6.044,6.044,0,0,1,9.3,21.16a.863.863,0,0,0-.133-1.05l-.77-.77,1.221-1.221.77.77a.863.863,0,0,0,1.05.133,6.044,6.044,0,0,1,1.554-.643.863.863,0,0,0,.648-.836V16.454h1.727v1.09a.863.863,0,0,0,.648.836,6.044,6.044,0,0,1,1.554.643.863.863,0,0,0,1.05-.133l.77-.77,1.221,1.221-.77.77a.863.863,0,0,0-.133,1.05,6.044,6.044,0,0,1,.643,1.554.863.863,0,0,0,.836.648h1.088v1.727h-1.09a.863.863,0,0,0-.836.648,6.044,6.044,0,0,1-.643,1.554.863.863,0,0,0,.133,1.05l.77.77-1.221,1.221-.77-.77a.863.863,0,0,0-1.05-.133,6.044,6.044,0,0,1-1.554.643.863.863,0,0,0-.648.836V32H13.634v-1.09a.863.863,0,0,0-.648-.836,6.044,6.044,0,0,1-1.554-.643.863.863,0,0,0-1.05.133l-.77.77-1.22-1.221.77-.77a.863.863,0,0,0,.133-1.05,6.044,6.044,0,0,1-.643-1.554.863.863,0,0,0-.836-.647H6.727Z" transform="translate(-0.546 -1.639)"/>
      <path id="Trazado_1219986" data-name="Trazado 1219986" d="M15.317,29.634A4.317,4.317,0,1,0,11,25.317a4.317,4.317,0,0,0,4.317,4.317Zm0-6.908a2.59,2.59,0,1,1-2.59,2.59A2.59,2.59,0,0,1,15.317,22.727Z" transform="translate(-1.366 -2.731)"/>
    </g>
  </g>
</svg>
