<svg xmlns="http://www.w3.org/2000/svg" xmlns:xlink="http://www.w3.org/1999/xlink" width="106.16" height="106.16" viewBox="0 0 106.16 106.16">
  <defs>
    <filter id="Trazado_982547" x="0" y="0" width="106.16" height="106.16" filterUnits="userSpaceOnUse">
      <feOffset dy="3" input="SourceAlpha"/>
      <feGaussianBlur stdDeviation="3" result="blur"/>
      <feFlood flood-opacity="0.161"/>
      <feComposite operator="in" in2="blur"/>
      <feComposite in="SourceGraphic"/>
    </filter>
  </defs>
  <g id="Grupo_1229913" data-name="Grupo 1229913" transform="translate(-1132.84 -2891)">
    <g id="Grupo_1228606" data-name="Grupo 1228606" transform="translate(941.915 -939)">
      <g id="Grupo_1225951" data-name="Grupo 1225951" transform="translate(-0.075 368.536)">
        <g id="Grupo_1224851" data-name="Grupo 1224851" transform="translate(0 1738.464)">
          <g id="Grupo_1206130" data-name="Grupo 1206130" transform="translate(0 -59)">
            <g id="Grupo_1203672" data-name="Grupo 1203672" transform="translate(0.08 -4797.878)">
              <g id="Grupo_1203344" data-name="Grupo 1203344" transform="translate(-81.08 5174.875)">
                <g id="Grupo_1177900" data-name="Grupo 1177900" transform="translate(281 1411.003)">
                  <g id="Grupo_1172010" data-name="Grupo 1172010" transform="translate(0)">
                    <g id="Grupo_1171046" data-name="Grupo 1171046">
                      <g id="Grupo_1148525" data-name="Grupo 1148525">
                        <g transform="matrix(1, 0, 0, 1, -9, -6)" filter="url(#Trazado_982547)">
                          <g id="Trazado_982547-2" data-name="Trazado 982547" transform="translate(9 6)" fill="#e5ebfb">
                            <path d="M 44.0802001953125 86.660400390625 C 38.33124923706055 86.660400390625 32.75506210327148 85.53479766845703 27.50652503967285 83.31484985351562 C 22.43628692626953 81.17032623291016 17.88242530822754 78.09992218017578 13.97144985198975 74.18894958496094 C 10.06047534942627 70.27797698974609 6.99007511138916 65.72411346435547 4.845550060272217 60.65387344360352 C 2.625600099563599 55.40533828735352 1.500000238418579 49.82915115356445 1.500000238418579 44.0802001953125 C 1.500000238418579 38.33124923706055 2.625600099563599 32.75506210327148 4.845550060272217 27.50652503967285 C 6.99007511138916 22.43628692626953 10.06047534942627 17.88242530822754 13.97144985198975 13.97144985198975 C 17.88242530822754 10.06047534942627 22.43628692626953 6.99007511138916 27.50652503967285 4.845550060272217 C 32.75506210327148 2.625600099563599 38.33124923706055 1.500000238418579 44.0802001953125 1.500000238418579 C 49.82915115356445 1.500000238418579 55.40533828735352 2.625600099563599 60.65387344360352 4.845550060272217 C 65.72411346435547 6.99007511138916 70.27797698974609 10.06047534942627 74.18894958496094 13.97144985198975 C 78.09992218017578 17.88242530822754 81.17032623291016 22.43628692626953 83.31484985351562 27.50652503967285 C 85.53479766845703 32.75506210327148 86.660400390625 38.33124923706055 86.660400390625 44.0802001953125 C 86.660400390625 49.82915115356445 85.53479766845703 55.40533828735352 83.31484985351562 60.65387344360352 C 81.17032623291016 65.72411346435547 78.09992218017578 70.27797698974609 74.18894958496094 74.18894958496094 C 70.27797698974609 78.09992218017578 65.72411346435547 81.17032623291016 60.65387344360352 83.31484985351562 C 55.40533828735352 85.53479766845703 49.82915115356445 86.660400390625 44.0802001953125 86.660400390625 Z" stroke="none"/>
                            <path d="M 44.0802001953125 3 C 38.53308486938477 3 33.15349960327148 4.085746765136719 28.09085845947266 6.227058410644531 C 23.19941711425781 8.29595947265625 18.80581665039062 11.25841522216797 15.03211212158203 15.03211212158203 C 11.25841522216797 18.80581665039062 8.29595947265625 23.19941711425781 6.227058410644531 28.09085845947266 C 4.085746765136719 33.15349960327148 3 38.53308486938477 3 44.0802001953125 C 3 49.62731552124023 4.085746765136719 55.00691604614258 6.227058410644531 60.06954193115234 C 8.29595947265625 64.96098327636719 11.25841522216797 69.35458374023438 15.03211212158203 73.12828826904297 C 18.80581665039062 76.90198516845703 23.19941711425781 79.86444091796875 28.09085845947266 81.93334197998047 C 33.15349960327148 84.07466125488281 38.53308486938477 85.160400390625 44.0802001953125 85.160400390625 C 49.62731552124023 85.160400390625 55.00691604614258 84.07466125488281 60.06954193115234 81.93334197998047 C 64.96099853515625 79.86444091796875 69.35458374023438 76.90198516845703 73.12828826904297 73.12828826904297 C 76.90198516845703 69.35458374023438 79.86444091796875 64.96099853515625 81.93334197998047 60.06954193115234 C 84.07466125488281 55.00691604614258 85.160400390625 49.62731552124023 85.160400390625 44.0802001953125 C 85.160400390625 38.53308486938477 84.07466125488281 33.15349960327148 81.93334197998047 28.09085845947266 C 79.86444091796875 23.19941711425781 76.90198516845703 18.80581665039062 73.12828826904297 15.03211212158203 C 69.35458374023438 11.25841522216797 64.96098327636719 8.29595947265625 60.06954193115234 6.227058410644531 C 55.00691604614258 4.085746765136719 49.62731552124023 3 44.0802001953125 3 M 44.0802001953125 0 C 68.42502593994141 0 88.160400390625 19.73538970947266 88.160400390625 44.0802001953125 C 88.160400390625 68.42502593994141 68.42502593994141 88.160400390625 44.0802001953125 88.160400390625 C 19.73538970947266 88.160400390625 0 68.42502593994141 0 44.0802001953125 C 0 19.73538970947266 19.73538970947266 0 44.0802001953125 0 Z" stroke="none" fill="#0b47db"/>
                          </g>
                        </g>
                      </g>
                    </g>
                  </g>
                </g>
              </g>
            </g>
          </g>
        </g>
      </g>
    </g>
    <g id="diagrama-de-flujo" transform="translate(1119.285 2910.847)">
      <g id="Grupo_1229911" data-name="Grupo 1229911" transform="translate(36.911 1.194)">
        <path id="Trazado_1218324" data-name="Trazado 1218324" d="M45.741,140.342H65.922v26.982H45.741Z" transform="translate(-45.741 -124.801)" fill="#ff7d97"/>
        <path id="Trazado_1218325" data-name="Trazado 1218325" d="M348.223,10.014h13.491V23.505H348.223Z" transform="translate(-312.154 -10.014)" fill="#99ebfa"/>
        <path id="Trazado_1218326" data-name="Trazado 1218326" d="M348.178,196.976h13.491v13.491H348.178Z" transform="translate(-312.114 -174.682)" fill="#ffee80"/>
        <path id="Trazado_1218327" data-name="Trazado 1218327" d="M348.134,383.939h13.491V397.43H348.134Z" transform="translate(-312.075 -339.35)" fill="#a0e5a5"/>
      </g>
      <g id="Grupo_1229912" data-name="Grupo 1229912" transform="translate(35.715 0)">
        <path id="Trazado_1218328" data-name="Trazado 1218328" d="M294.241,0,280.75,0a1.192,1.192,0,0,0-1.193,1.192V6.745l-6.749,0a1.192,1.192,0,0,0-1.193,1.192l0,6.482a1.193,1.193,0,0,0,2.385,0V9.129h5.557v5.553a1.192,1.192,0,0,0,1.192,1.193l13.491,0a1.192,1.192,0,0,0,1.193-1.192l0-13.491A1.193,1.193,0,0,0,294.241,0Zm-1.2,13.491-11.106,0V7.938h0V2.385l11.106,0Z" transform="translate(-243.483 0)"/>
        <path id="Trazado_1218329" data-name="Trazado 1218329" d="M86.468,137.079l-13.491,0a1.192,1.192,0,0,0-1.193,1.192v5.553H66.226v-5.031a1.193,1.193,0,0,0-2.385,0v5.031H58.284l0-12.3a1.192,1.192,0,0,0-1.192-1.193l-20.181,0a1.192,1.192,0,0,0-1.193,1.192L35.715,158.5a1.193,1.193,0,0,0,1.192,1.193l20.181,0a1.193,1.193,0,0,0,1.193-1.192l0-12.3h5.557l-.005,21.1a1.193,1.193,0,0,0,1.192,1.193l6.749,0v5.553a1.193,1.193,0,0,0,1.192,1.193l13.491,0a1.193,1.193,0,0,0,1.193-1.192l0-13.491a1.192,1.192,0,0,0-1.192-1.193l-13.491,0a1.193,1.193,0,0,0-1.193,1.192v5.553H66.221l0-19.909h5.557v5.553a1.192,1.192,0,0,0,1.192,1.193l13.491,0a1.193,1.193,0,0,0,1.193-1.192l0-13.491a1.193,1.193,0,0,0-1.192-1.192ZM55.9,157.309l-17.8,0,.006-24.6,17.8,0Zm29.373,4.45,0,11.106-11.106,0,0-11.106Zm0-11.188-11.106,0v-5.553h0v-5.553l11.106,0Z" transform="translate(-35.715 -114.782)"/>
        <path id="Trazado_1218330" data-name="Trazado 1218330" d="M271.7,153.3a1.192,1.192,0,1,0,.645-1.557A1.2,1.2,0,0,0,271.7,153.3Z" transform="translate(-243.481 -133.571)"/>
      </g>
    </g>
  </g>
</svg>
