<svg xmlns="http://www.w3.org/2000/svg" xmlns:xlink="http://www.w3.org/1999/xlink" width="106.16" height="106.16" viewBox="0 0 106.16 106.16">
  <defs>
    <filter id="Trazado_982547" x="0" y="0" width="106.16" height="106.16" filterUnits="userSpaceOnUse">
      <feOffset dy="3" input="SourceAlpha"/>
      <feGaussianBlur stdDeviation="3" result="blur"/>
      <feFlood flood-opacity="0.161"/>
      <feComposite operator="in" in2="blur"/>
      <feComposite in="SourceGraphic"/>
    </filter>
  </defs>
  <g id="Grupo_1229930" data-name="Grupo 1229930" transform="translate(-190.925 -3044.657)">
    <g id="Grupo_1228599" data-name="Grupo 1228599" transform="translate(0 -785.343)">
      <g id="Grupo_1225951" data-name="Grupo 1225951" transform="translate(-0.075 368.536)">
        <g id="Grupo_1224851" data-name="Grupo 1224851" transform="translate(0 1738.464)">
          <g id="Grupo_1206130" data-name="Grupo 1206130" transform="translate(0 -59)">
            <g id="Grupo_1203672" data-name="Grupo 1203672" transform="translate(0.08 -4797.878)">
              <g id="Grupo_1203344" data-name="Grupo 1203344" transform="translate(-81.08 5174.875)">
                <g id="Grupo_1177900" data-name="Grupo 1177900" transform="translate(281 1411.003)">
                  <g id="Grupo_1172010" data-name="Grupo 1172010" transform="translate(0)">
                    <g id="Grupo_1171046" data-name="Grupo 1171046">
                      <g id="Grupo_1148525" data-name="Grupo 1148525">
                        <g transform="matrix(1, 0, 0, 1, -9, -6)" filter="url(#Trazado_982547)">
                          <g id="Trazado_982547-2" data-name="Trazado 982547" transform="translate(9 6)" fill="#e5ebfb">
                            <path d="M 44.0802001953125 86.660400390625 C 38.33124923706055 86.660400390625 32.75506210327148 85.53479766845703 27.50652503967285 83.31484985351562 C 22.43628692626953 81.17032623291016 17.88242530822754 78.09992218017578 13.97144985198975 74.18894958496094 C 10.06047534942627 70.27797698974609 6.99007511138916 65.72411346435547 4.845550060272217 60.65387344360352 C 2.625600099563599 55.40533828735352 1.500000238418579 49.82915115356445 1.500000238418579 44.0802001953125 C 1.500000238418579 38.33124923706055 2.625600099563599 32.75506210327148 4.845550060272217 27.50652503967285 C 6.99007511138916 22.43628692626953 10.06047534942627 17.88242530822754 13.97144985198975 13.97144985198975 C 17.88242530822754 10.06047534942627 22.43628692626953 6.99007511138916 27.50652503967285 4.845550060272217 C 32.75506210327148 2.625600099563599 38.33124923706055 1.500000238418579 44.0802001953125 1.500000238418579 C 49.82915115356445 1.500000238418579 55.40533828735352 2.625600099563599 60.65387344360352 4.845550060272217 C 65.72411346435547 6.99007511138916 70.27797698974609 10.06047534942627 74.18894958496094 13.97144985198975 C 78.09992218017578 17.88242530822754 81.17032623291016 22.43628692626953 83.31484985351562 27.50652503967285 C 85.53479766845703 32.75506210327148 86.660400390625 38.33124923706055 86.660400390625 44.0802001953125 C 86.660400390625 49.82915115356445 85.53479766845703 55.40533828735352 83.31484985351562 60.65387344360352 C 81.17032623291016 65.72411346435547 78.09992218017578 70.27797698974609 74.18894958496094 74.18894958496094 C 70.27797698974609 78.09992218017578 65.72411346435547 81.17032623291016 60.65387344360352 83.31484985351562 C 55.40533828735352 85.53479766845703 49.82915115356445 86.660400390625 44.0802001953125 86.660400390625 Z" stroke="none"/>
                            <path d="M 44.0802001953125 3 C 38.53308486938477 3 33.15349960327148 4.085746765136719 28.09085845947266 6.227058410644531 C 23.19941711425781 8.29595947265625 18.80581665039062 11.25841522216797 15.03211212158203 15.03211212158203 C 11.25841522216797 18.80581665039062 8.29595947265625 23.19941711425781 6.227058410644531 28.09085845947266 C 4.085746765136719 33.15349960327148 3 38.53308486938477 3 44.0802001953125 C 3 49.62731552124023 4.085746765136719 55.00691604614258 6.227058410644531 60.06954193115234 C 8.29595947265625 64.96098327636719 11.25841522216797 69.35458374023438 15.03211212158203 73.12828826904297 C 18.80581665039062 76.90198516845703 23.19941711425781 79.86444091796875 28.09085845947266 81.93334197998047 C 33.15349960327148 84.07466125488281 38.53308486938477 85.160400390625 44.0802001953125 85.160400390625 C 49.62731552124023 85.160400390625 55.00691604614258 84.07466125488281 60.06954193115234 81.93334197998047 C 64.96099853515625 79.86444091796875 69.35458374023438 76.90198516845703 73.12828826904297 73.12828826904297 C 76.90198516845703 69.35458374023438 79.86444091796875 64.96099853515625 81.93334197998047 60.06954193115234 C 84.07466125488281 55.00691604614258 85.160400390625 49.62731552124023 85.160400390625 44.0802001953125 C 85.160400390625 38.53308486938477 84.07466125488281 33.15349960327148 81.93334197998047 28.09085845947266 C 79.86444091796875 23.19941711425781 76.90198516845703 18.80581665039062 73.12828826904297 15.03211212158203 C 69.35458374023438 11.25841522216797 64.96098327636719 8.29595947265625 60.06954193115234 6.227058410644531 C 55.00691604614258 4.085746765136719 49.62731552124023 3 44.0802001953125 3 M 44.0802001953125 0 C 68.42502593994141 0 88.160400390625 19.73538970947266 88.160400390625 44.0802001953125 C 88.160400390625 68.42502593994141 68.42502593994141 88.160400390625 44.0802001953125 88.160400390625 C 19.73538970947266 88.160400390625 0 68.42502593994141 0 44.0802001953125 C 0 19.73538970947266 19.73538970947266 0 44.0802001953125 0 Z" stroke="none" fill="#0b47db"/>
                          </g>
                        </g>
                      </g>
                    </g>
                  </g>
                </g>
              </g>
            </g>
          </g>
        </g>
      </g>
    </g>
    <g id="relacional_1_" data-name="relacional (1)" transform="translate(215.775 3066.507)">
      <g id="Grupo_1229928" data-name="Grupo 1229928" transform="translate(1.878 1.878)">
        <g id="Grupo_1229914" data-name="Grupo 1229914" transform="translate(0 7.027)">
          <path id="Trazado_1218331" data-name="Trazado 1218331" d="M2,18.784V10H23.082v8.784a1.762,1.762,0,0,1-1.757,1.757H3.757A1.762,1.762,0,0,1,2,18.784Z" transform="translate(-2 -10)" fill="#e6e9ed"/>
        </g>
        <g id="Grupo_1229915" data-name="Grupo 1229915" transform="translate(0 29.866)">
          <path id="Trazado_1218332" data-name="Trazado 1218332" d="M23.082,36v8.784a1.762,1.762,0,0,1-1.757,1.757H3.757A1.762,1.762,0,0,1,2,44.784V36Z" transform="translate(-2 -36)" fill="#e6e9ed"/>
        </g>
        <g id="Grupo_1229916" data-name="Grupo 1229916" transform="translate(30.744 42.163)">
          <path id="Trazado_1218333" data-name="Trazado 1218333" d="M58.082,50v8.784a1.762,1.762,0,0,1-1.757,1.757H38.757A1.762,1.762,0,0,1,37,58.784V50Z" transform="translate(-37 -50)" fill="#e6e9ed"/>
        </g>
        <g id="Grupo_1229917" data-name="Grupo 1229917" transform="translate(0 0)">
          <path id="Trazado_1218334" data-name="Trazado 1218334" d="M2,9.027V3.757A1.762,1.762,0,0,1,3.757,2H21.325a1.762,1.762,0,0,1,1.757,1.757v5.27Z" transform="translate(-2 -2)" fill="#5cd6b3"/>
        </g>
        <g id="Grupo_1229918" data-name="Grupo 1229918" transform="translate(0 22.838)">
          <path id="Trazado_1218335" data-name="Trazado 1218335" d="M23.082,33.27v1.757H2v-5.27A1.762,1.762,0,0,1,3.757,28H21.325a1.762,1.762,0,0,1,1.757,1.757Z" transform="translate(-2 -28)" fill="#5cd6b3"/>
        </g>
        <g id="Grupo_1229919" data-name="Grupo 1229919" transform="translate(30.744 35.136)">
          <path id="Trazado_1218336" data-name="Trazado 1218336" d="M37,49.027v-5.27A1.762,1.762,0,0,1,38.757,42H56.325a1.762,1.762,0,0,1,1.757,1.757v5.27Z" transform="translate(-37 -42)" fill="#5cd6b3"/>
        </g>
        <g id="Grupo_1229920" data-name="Grupo 1229920" transform="translate(14.054 10.541)">
          <path id="Trazado_1218337" data-name="Trazado 1218337" d="M18,14h3.514v3.514H18Z" transform="translate(-18 -14)" fill="#ff826e"/>
        </g>
        <g id="Grupo_1229921" data-name="Grupo 1229921" transform="translate(34.258 45.677)">
          <circle id="Elipse_13587" data-name="Elipse 13587" cx="1.5" cy="1.5" r="1.5" transform="translate(0.325 0.445)" fill="#ff826e"/>
        </g>
        <g id="Grupo_1229922" data-name="Grupo 1229922" transform="translate(29.866 13.176)">
          <path id="Trazado_1218338" data-name="Trazado 1218338" d="M58.838,17v5.27c0,1.458-5.112,2.635-11.419,2.635S36,23.729,36,22.27V17c0,1.458,5.112,2.635,11.419,2.635S58.838,18.458,58.838,17Z" transform="translate(-36 -17)" fill="#fcd770"/>
        </g>
        <g id="Grupo_1229923" data-name="Grupo 1229923" transform="translate(29.866 2.635)">
          <path id="Trazado_1218339" data-name="Trazado 1218339" d="M58.838,5v5.27c0,1.458-5.112,2.635-11.419,2.635S36,11.729,36,10.27V5c0,1.458,5.112,2.635,11.419,2.635S58.838,6.458,58.838,5Z" transform="translate(-36 -5)" fill="#fcd770"/>
        </g>
        <g id="Grupo_1229924" data-name="Grupo 1229924" transform="translate(29.866 7.906)">
          <path id="Trazado_1218340" data-name="Trazado 1218340" d="M36,11c0,1.458,5.112,2.635,11.419,2.635S58.838,12.458,58.838,11v5.27c0,1.458-5.112,2.635-11.419,2.635S36,17.729,36,16.27V11Z" transform="translate(-36 -11)" fill="#ffeaa7"/>
        </g>
        <g id="Grupo_1229925" data-name="Grupo 1229925" transform="translate(29.866 0)">
          <ellipse id="Elipse_13588" data-name="Elipse 13588" cx="11.5" cy="2.5" rx="11.5" ry="2.5" transform="translate(-0.283 0.122)" fill="#ffeaa7"/>
        </g>
        <g id="Grupo_1229926" data-name="Grupo 1229926" transform="translate(8.784 43.92)">
          <ellipse id="Elipse_13589" data-name="Elipse 13589" cx="2" cy="1.5" rx="2" ry="1.5" transform="translate(-0.202 0.202)" fill="#ff826e"/>
        </g>
        <g id="Grupo_1229927" data-name="Grupo 1229927" transform="translate(39.528 26.352)">
          <ellipse id="Elipse_13590" data-name="Elipse 13590" cx="1.5" cy="2" rx="1.5" ry="2" transform="translate(0.054 -0.23)" fill="#ff826e"/>
        </g>
      </g>
      <g id="Grupo_1229929" data-name="Grupo 1229929" transform="translate(1 1)">
        <path id="Trazado_1218341" data-name="Trazado 1218341" d="M43.163,1c-1.259,0-12.3.1-12.3,3.514v5.27H23.838V3.635A2.638,2.638,0,0,0,21.2,1H3.635A2.638,2.638,0,0,0,1,3.635V17.69a2.638,2.638,0,0,0,2.635,2.635h7.906v3.514H3.635A2.638,2.638,0,0,0,1,26.474V40.528a2.638,2.638,0,0,0,2.635,2.635h7.906v1.918a2.629,2.629,0,1,0,3.352,3.352H31.744v4.392a2.638,2.638,0,0,0,2.635,2.635H51.947a2.638,2.638,0,0,0,2.635-2.635V38.771a2.638,2.638,0,0,0-2.635-2.635H44.042V32.461a2.62,2.62,0,0,0,0-4.947V23.828c2.945-.065,11.419-.51,11.419-3.5V4.514C55.461,1.1,44.422,1,43.163,1ZM53.7,9.716c-.426.666-4.244,1.824-10.541,1.824S33.048,10.382,32.622,9.716V6.508c3.168,1.463,9.6,1.519,10.541,1.519S50.536,7.972,53.7,6.508Zm0,5.27c-.426.666-4.244,1.824-10.541,1.824s-10.115-1.159-10.541-1.824V11.779c3.168,1.463,9.6,1.519,10.541,1.519s7.372-.055,10.541-1.519ZM43.163,2.757c6.087,0,9.864,1.083,10.492,1.757-.629.674-4.405,1.757-10.492,1.757S33.3,5.187,32.671,4.514C33.3,3.84,37.076,2.757,43.163,2.757Zm-39.528,0H21.2a.879.879,0,0,1,.878.878V8.027H2.757V3.635A.879.879,0,0,1,3.635,2.757ZM2.757,17.69V9.784H22.082V17.69a.879.879,0,0,1-.878.878H3.635A.879.879,0,0,1,2.757,17.69ZM13.3,20.325H21.2a2.638,2.638,0,0,0,2.635-2.635V11.541h7.027v8.784c0,2.992,8.474,3.438,11.419,3.5v3.686a2.633,2.633,0,0,0-1.6,1.6H23.838V26.474A2.638,2.638,0,0,0,21.2,23.838H13.3ZM3.635,25.6H21.2a.879.879,0,0,1,.878.878v4.392H2.757V26.474A.879.879,0,0,1,3.635,25.6ZM2.757,40.528V32.622H22.082v7.906a.879.879,0,0,1-.878.878H3.635A.879.879,0,0,1,2.757,40.528Zm9.662,7.906a.878.878,0,1,1,.878-.878A.879.879,0,0,1,12.419,48.434ZM51.947,53.7H34.379a.879.879,0,0,1-.878-.878V44.92H52.826v7.906A.879.879,0,0,1,51.947,53.7Zm.878-14.933v4.392H33.5V38.771a.879.879,0,0,1,.878-.878H51.947A.879.879,0,0,1,52.826,38.771ZM34.379,36.136a2.638,2.638,0,0,0-2.635,2.635v7.906H14.893a2.633,2.633,0,0,0-1.6-1.6V43.163H21.2a2.638,2.638,0,0,0,2.635-2.635V30.866H40.69a2.633,2.633,0,0,0,1.6,1.6v3.675Zm8.784-5.27a.878.878,0,1,1,.878-.878A.879.879,0,0,1,43.163,30.866Zm0-8.784c-6.272,0-10.088-1.15-10.541-1.817V17.049c3.168,1.463,9.6,1.519,10.541,1.519s7.372-.055,10.541-1.519v3.216C53.252,20.932,49.435,22.082,43.163,22.082Z" transform="translate(-1 -1)"/>
        <path id="Trazado_1218342" data-name="Trazado 1218342" d="M13,5h1.757V6.757H13Z" transform="translate(-2.459 -1.486)"/>
        <path id="Trazado_1218343" data-name="Trazado 1218343" d="M9,5h1.757V6.757H9Z" transform="translate(-1.973 -1.486)"/>
        <path id="Trazado_1218344" data-name="Trazado 1218344" d="M5,5H6.757V6.757H5Z" transform="translate(-1.486 -1.486)"/>
        <path id="Trazado_1218345" data-name="Trazado 1218345" d="M13,31h1.757v1.757H13Z" transform="translate(-2.459 -4.648)"/>
        <path id="Trazado_1218346" data-name="Trazado 1218346" d="M5,31H6.757v1.757H5Z" transform="translate(-1.486 -4.648)"/>
        <path id="Trazado_1218347" data-name="Trazado 1218347" d="M9,31h1.757v1.757H9Z" transform="translate(-1.973 -4.648)"/>
        <path id="Trazado_1218348" data-name="Trazado 1218348" d="M44,45h1.757v1.757H44Z" transform="translate(-6.229 -6.35)"/>
        <path id="Trazado_1218349" data-name="Trazado 1218349" d="M48,45h1.757v1.757H48Z" transform="translate(-6.715 -6.35)"/>
        <path id="Trazado_1218350" data-name="Trazado 1218350" d="M40,45h1.757v1.757H40Z" transform="translate(-5.742 -6.35)"/>
        <path id="Trazado_1218351" data-name="Trazado 1218351" d="M42.635,53a2.635,2.635,0,1,0,2.635,2.635A2.638,2.638,0,0,0,42.635,53Zm0,3.514a.878.878,0,1,1,.878-.878A.879.879,0,0,1,42.635,56.514Z" transform="translate(-5.742 -7.323)"/>
        <path id="Trazado_1218352" data-name="Trazado 1218352" d="M48,53h8.784v1.757H48Z" transform="translate(-6.715 -7.323)"/>
        <path id="Trazado_1218353" data-name="Trazado 1218353" d="M48,57h5.27v1.757H48Z" transform="translate(-6.715 -7.81)"/>
        <path id="Trazado_1218354" data-name="Trazado 1218354" d="M56,57h1.757v1.757H56Z" transform="translate(-7.688 -7.81)"/>
        <path id="Trazado_1218355" data-name="Trazado 1218355" d="M5,39H6.757v1.757H5Z" transform="translate(-1.486 -5.621)"/>
        <path id="Trazado_1218356" data-name="Trazado 1218356" d="M9,39H21.3v1.757H9Z" transform="translate(-1.973 -5.621)"/>
        <path id="Trazado_1218357" data-name="Trazado 1218357" d="M5,43H20.811v1.757H5Z" transform="translate(-1.486 -6.107)"/>
        <path id="Trazado_1218358" data-name="Trazado 1218358" d="M17,18.27h5.27V13H17Zm1.757-3.514h1.757v1.757H18.757Z" transform="translate(-2.946 -2.459)"/>
        <path id="Trazado_1218359" data-name="Trazado 1218359" d="M5,13h8.784v1.757H5Z" transform="translate(-1.486 -2.459)"/>
        <path id="Trazado_1218360" data-name="Trazado 1218360" d="M5,17h5.27v1.757H5Z" transform="translate(-1.486 -2.946)"/>
        <path id="Trazado_1218361" data-name="Trazado 1218361" d="M13,17h1.757v1.757H13Z" transform="translate(-2.459 -2.946)"/>
      </g>
    </g>
  </g>
</svg>
