<svg xmlns="http://www.w3.org/2000/svg" xmlns:xlink="http://www.w3.org/1999/xlink" width="106.16" height="106.16" viewBox="0 0 106.16 106.16">
  <defs>
    <filter id="Trazado_982547" x="0" y="0" width="106.16" height="106.16" filterUnits="userSpaceOnUse">
      <feOffset dy="3" input="SourceAlpha"/>
      <feGaussianBlur stdDeviation="3" result="blur"/>
      <feFlood flood-opacity="0.161"/>
      <feComposite operator="in" in2="blur"/>
      <feComposite in="SourceGraphic"/>
    </filter>
  </defs>
  <g id="Grupo_1229957" data-name="Grupo 1229957" transform="translate(-610.5 -3044.657)">
    <g id="Grupo_1228607" data-name="Grupo 1228607" transform="translate(419.575 -785.343)">
      <g id="Grupo_1225951" data-name="Grupo 1225951" transform="translate(-0.075 368.536)">
        <g id="Grupo_1224851" data-name="Grupo 1224851" transform="translate(0 1738.464)">
          <g id="Grupo_1206130" data-name="Grupo 1206130" transform="translate(0 -59)">
            <g id="Grupo_1203672" data-name="Grupo 1203672" transform="translate(0.08 -4797.878)">
              <g id="Grupo_1203344" data-name="Grupo 1203344" transform="translate(-81.08 5174.875)">
                <g id="Grupo_1177900" data-name="Grupo 1177900" transform="translate(281 1411.003)">
                  <g id="Grupo_1172010" data-name="Grupo 1172010" transform="translate(0)">
                    <g id="Grupo_1171046" data-name="Grupo 1171046">
                      <g id="Grupo_1148525" data-name="Grupo 1148525">
                        <g transform="matrix(1, 0, 0, 1, -9, -6)" filter="url(#Trazado_982547)">
                          <g id="Trazado_982547-2" data-name="Trazado 982547" transform="translate(9 6)" fill="#e5ebfb">
                            <path d="M 44.0802001953125 86.660400390625 C 38.33124923706055 86.660400390625 32.75506210327148 85.53479766845703 27.50652503967285 83.31484985351562 C 22.43628692626953 81.17032623291016 17.88242530822754 78.09992218017578 13.97144985198975 74.18894958496094 C 10.06047534942627 70.27797698974609 6.99007511138916 65.72411346435547 4.845550060272217 60.65387344360352 C 2.625600099563599 55.40533828735352 1.500000238418579 49.82915115356445 1.500000238418579 44.0802001953125 C 1.500000238418579 38.33124923706055 2.625600099563599 32.75506210327148 4.845550060272217 27.50652503967285 C 6.99007511138916 22.43628692626953 10.06047534942627 17.88242530822754 13.97144985198975 13.97144985198975 C 17.88242530822754 10.06047534942627 22.43628692626953 6.99007511138916 27.50652503967285 4.845550060272217 C 32.75506210327148 2.625600099563599 38.33124923706055 1.500000238418579 44.0802001953125 1.500000238418579 C 49.82915115356445 1.500000238418579 55.40533828735352 2.625600099563599 60.65387344360352 4.845550060272217 C 65.72411346435547 6.99007511138916 70.27797698974609 10.06047534942627 74.18894958496094 13.97144985198975 C 78.09992218017578 17.88242530822754 81.17032623291016 22.43628692626953 83.31484985351562 27.50652503967285 C 85.53479766845703 32.75506210327148 86.660400390625 38.33124923706055 86.660400390625 44.0802001953125 C 86.660400390625 49.82915115356445 85.53479766845703 55.40533828735352 83.31484985351562 60.65387344360352 C 81.17032623291016 65.72411346435547 78.09992218017578 70.27797698974609 74.18894958496094 74.18894958496094 C 70.27797698974609 78.09992218017578 65.72411346435547 81.17032623291016 60.65387344360352 83.31484985351562 C 55.40533828735352 85.53479766845703 49.82915115356445 86.660400390625 44.0802001953125 86.660400390625 Z" stroke="none"/>
                            <path d="M 44.0802001953125 3 C 38.53308486938477 3 33.15349960327148 4.085746765136719 28.09085845947266 6.227058410644531 C 23.19941711425781 8.29595947265625 18.80581665039062 11.25841522216797 15.03211212158203 15.03211212158203 C 11.25841522216797 18.80581665039062 8.29595947265625 23.19941711425781 6.227058410644531 28.09085845947266 C 4.085746765136719 33.15349960327148 3 38.53308486938477 3 44.0802001953125 C 3 49.62731552124023 4.085746765136719 55.00691604614258 6.227058410644531 60.06954193115234 C 8.29595947265625 64.96098327636719 11.25841522216797 69.35458374023438 15.03211212158203 73.12828826904297 C 18.80581665039062 76.90198516845703 23.19941711425781 79.86444091796875 28.09085845947266 81.93334197998047 C 33.15349960327148 84.07466125488281 38.53308486938477 85.160400390625 44.0802001953125 85.160400390625 C 49.62731552124023 85.160400390625 55.00691604614258 84.07466125488281 60.06954193115234 81.93334197998047 C 64.96099853515625 79.86444091796875 69.35458374023438 76.90198516845703 73.12828826904297 73.12828826904297 C 76.90198516845703 69.35458374023438 79.86444091796875 64.96099853515625 81.93334197998047 60.06954193115234 C 84.07466125488281 55.00691604614258 85.160400390625 49.62731552124023 85.160400390625 44.0802001953125 C 85.160400390625 38.53308486938477 84.07466125488281 33.15349960327148 81.93334197998047 28.09085845947266 C 79.86444091796875 23.19941711425781 76.90198516845703 18.80581665039062 73.12828826904297 15.03211212158203 C 69.35458374023438 11.25841522216797 64.96098327636719 8.29595947265625 60.06954193115234 6.227058410644531 C 55.00691604614258 4.085746765136719 49.62731552124023 3 44.0802001953125 3 M 44.0802001953125 0 C 68.42502593994141 0 88.160400390625 19.73538970947266 88.160400390625 44.0802001953125 C 88.160400390625 68.42502593994141 68.42502593994141 88.160400390625 44.0802001953125 88.160400390625 C 19.73538970947266 88.160400390625 0 68.42502593994141 0 44.0802001953125 C 0 19.73538970947266 19.73538970947266 0 44.0802001953125 0 Z" stroke="none" fill="#0b47db"/>
                          </g>
                        </g>
                      </g>
                    </g>
                  </g>
                </g>
              </g>
            </g>
          </g>
        </g>
      </g>
    </g>
    <g id="contrato_1_" data-name="contrato (1)" transform="translate(609.271 3065.924)">
      <g id="Grupo_1229953" data-name="Grupo 1229953" transform="translate(29.575 0.844)">
        <g id="Grupo_1229952" data-name="Grupo 1229952" transform="translate(0)">
          <g id="Grupo_1229951" data-name="Grupo 1229951">
            <g id="Grupo_1229940" data-name="Grupo 1229940">
              <g id="Grupo_1229939" data-name="Grupo 1229939">
                <g id="Grupo_1229938" data-name="Grupo 1229938">
                  <g id="Grupo_1229937" data-name="Grupo 1229937">
                    <g id="Grupo_1229936" data-name="Grupo 1229936">
                      <g id="Grupo_1229935" data-name="Grupo 1229935">
                        <g id="Grupo_1229934" data-name="Grupo 1229934">
                          <g id="Grupo_1229933" data-name="Grupo 1229933">
                            <g id="Grupo_1229932" data-name="Grupo 1229932">
                              <g id="Grupo_1229931" data-name="Grupo 1229931">
                                <path id="Trazado_1218362" data-name="Trazado 1218362" d="M39.711,7.5a3.477,3.477,0,0,0-3.477,3.477V55.767a3.477,3.477,0,0,0,3.477,3.477H72.4a3.477,3.477,0,0,0,3.477-3.477V18.222a2.634,2.634,0,0,0-.772-1.863L67.02,8.272A2.634,2.634,0,0,0,65.157,7.5Z" transform="translate(-36.234 -7.5)" fill="#f4f8f8"/>
                                <path id="Trazado_1218363" data-name="Trazado 1218363" d="M300.377,92.4a3.49,3.49,0,0,1-.762-.085v38.72a3.477,3.477,0,0,1-3.477,3.477h6.916a3.477,3.477,0,0,0,3.477-3.477V93.492a2.631,2.631,0,0,0-.237-1.091Z" transform="translate(-266.885 -82.77)" fill="#e7ecf1"/>
                                <path id="Trazado_1218364" data-name="Trazado 1218364" d="M311.767,18.23l-8.088-8.088a2.631,2.631,0,0,0-.772-.534v5.917A3.477,3.477,0,0,0,306.384,19H312.3A2.636,2.636,0,0,0,311.767,18.23Z" transform="translate(-272.892 -9.371)" fill="#fc8086"/>
                              </g>
                            </g>
                          </g>
                        </g>
                      </g>
                    </g>
                  </g>
                </g>
              </g>
            </g>
            <g id="Grupo_1229950" data-name="Grupo 1229950" transform="translate(6.593 28.469)">
              <g id="Grupo_1229948" data-name="Grupo 1229948" transform="translate(1.928 2.264)">
                <g id="Grupo_1229947" data-name="Grupo 1229947">
                  <g id="Grupo_1229942" data-name="Grupo 1229942">
                    <g id="Grupo_1229941" data-name="Grupo 1229941">
                      <path id="Trazado_1218365" data-name="Trazado 1218365" d="M145.842,295.045l-12.419-7.355a1.341,1.341,0,0,1-.47-1.837l.635-1.073-2.513-1.486c-1.658-.951-2.433-1.127-3.928-.549l-1.63.63a3.469,3.469,0,0,1-3.019-.251l-4.362-2.572-6.2,10.458,5.586,3.3a3.471,3.471,0,0,1,.979.866l1.882,2.441a21.657,21.657,0,0,0,4.562,3.609l7.184,4.256a2,2,0,1,0,2.034-3.434l2.244,1.33a2,2,0,1,0,2.034-3.434l1.5.886a2,2,0,0,0,2.034-3.434l1.831,1.085a2,2,0,1,0,2.034-3.434Z" transform="translate(-111.941 -280.553)" fill="#ffece3"/>
                    </g>
                    <path id="Trazado_1218366" data-name="Trazado 1218366" d="M261.666,389.33l-4.28-2.535a2.288,2.288,0,0,1-.572,1.029,2.378,2.378,0,0,1-2.919.359l-1.217-.721a.107.107,0,0,0-.142.155,2.323,2.323,0,0,1-3.085,3.336l-.956-.571a.092.092,0,0,0-.12.135,2.322,2.322,0,0,1,.127,2.624,2.364,2.364,0,0,1-3.214.747l-.785-.465a.459.459,0,0,0-.684.484,2.315,2.315,0,0,1-1.362,2.6l5.458,3.233a2.038,2.038,0,0,0,2.8-.706,2,2,0,0,0-.719-2.7l2.2,1.3a2.038,2.038,0,0,0,2.8-.706,2,2,0,0,0-.719-2.7l1.451.86a2.038,2.038,0,0,0,2.8-.706,2,2,0,0,0-.719-2.7l1.786,1.058a2.038,2.038,0,0,0,2.8-.706,2,2,0,0,0-.719-2.7Z" transform="translate(-227.765 -374.837)" fill="#ffddce"/>
                  </g>
                  <g id="Grupo_1229943" data-name="Grupo 1229943" transform="translate(17.768 0.625)">
                    <path id="Trazado_1218367" data-name="Trazado 1218367" d="M284.863,286.1l-3.35,1.947a3.47,3.47,0,0,1-3.019.251l-1.838-.722a2.953,2.953,0,0,0-1.8-.114l-2.816.713a2.954,2.954,0,0,0-2.229,2.864V294.8a.964.964,0,0,0,.962.964,2.9,2.9,0,0,0,2.9-2.9v-.159l12.054,7.138a3.467,3.467,0,0,1,.761-.61l4.574-2.672Z" transform="translate(-269.805 -286.104)" fill="#fcd0a3"/>
                  </g>
                  <g id="Grupo_1229944" data-name="Grupo 1229944" transform="translate(26.752 3.641)">
                    <path id="Trazado_1218368" data-name="Trazado 1218368" d="M357.488,312.9l-.644,2.389-7.217,4.229,6.934,4.106a3.47,3.47,0,0,1,.761-.61l4.574-2.672Z" transform="translate(-349.627 -312.905)" fill="#ffb983"/>
                  </g>
                  <g id="Grupo_1229946" data-name="Grupo 1229946" transform="translate(3.288 12.811)">
                    <g id="Grupo_1229945" data-name="Grupo 1229945">
                      <path id="Trazado_1218369" data-name="Trazado 1218369" d="M145.9,397.533l-1.13,1.574a2,2,0,0,1-3.241-2.327l1.13-1.574a2,2,0,1,1,3.241,2.327Z" transform="translate(-141.151 -394.374)" fill="#fcd0a3"/>
                      <path id="Trazado_1218370" data-name="Trazado 1218370" d="M175.943,402.772l-2.377,3.311a2,2,0,1,1-3.241-2.327l2.377-3.311a1.995,1.995,0,1,1,3.241,2.327Z" transform="translate(-166.708 -399.024)" fill="#fcd0a3"/>
                      <path id="Trazado_1218371" data-name="Trazado 1218371" d="M204.741,423.447l-2.377,3.311a2,2,0,1,1-3.241-2.327l2.377-3.311a2,2,0,1,1,3.241,2.327Z" transform="translate(-192.265 -417.372)" fill="#fcd0a3"/>
                    </g>
                    <path id="Trazado_1218372" data-name="Trazado 1218372" d="M236.665,457.194l-.791,1.1a2,2,0,1,1-3.241-2.327l.791-1.1a2,2,0,0,1,3.241,2.327Z" transform="translate(-222.004 -447.321)" fill="#ffb983"/>
                  </g>
                </g>
              </g>
              <g id="Grupo_1229949" data-name="Grupo 1229949">
                <path id="Trazado_1218373" data-name="Trazado 1218373" d="M105.27,261.617l-1.747-1.035a1.012,1.012,0,0,0-1.386.355l-7.184,12.126a1.012,1.012,0,0,0,.355,1.386l1.747,1.035a2.467,2.467,0,0,0,3.379-.865l5.7-9.622A2.467,2.467,0,0,0,105.27,261.617Z" transform="translate(-94.812 -260.441)" fill="#7c8b96"/>
                <path id="Trazado_1218374" data-name="Trazado 1218374" d="M375.052,260.582l-1.747,1.035a2.467,2.467,0,0,0-.865,3.379l5.7,9.622a2.467,2.467,0,0,0,3.379.865l1.747-1.035a1.012,1.012,0,0,0,.355-1.386l-7.184-12.126A1.012,1.012,0,0,0,375.052,260.582Z" transform="translate(-340.886 -260.441)" fill="#7c8b96"/>
              </g>
            </g>
          </g>
        </g>
      </g>
      <g id="Grupo_1229956" data-name="Grupo 1229956" transform="translate(28.73 0)">
        <g id="Grupo_1229955" data-name="Grupo 1229955" transform="translate(0 0)">
          <g id="Grupo_1229954" data-name="Grupo 1229954">
            <path id="Trazado_1218375" data-name="Trazado 1218375" d="M110.677,137.8h-27.6a.848.848,0,0,0,0,1.7h27.6a.848.848,0,1,0,0-1.7Z" transform="translate(-76.211 -122.294)"/>
            <path id="Trazado_1218376" data-name="Trazado 1218376" d="M83.081,87.252h13.8a.848.848,0,1,0,0-1.7h-13.8a.848.848,0,1,0,0,1.7Z" transform="translate(-76.211 -75.927)"/>
            <path id="Trazado_1218377" data-name="Trazado 1218377" d="M110.677,184.1h-27.6a.848.848,0,1,0,0,1.7h27.6a.848.848,0,1,0,0-1.7Z" transform="translate(-76.211 -163.376)"/>
            <path id="Trazado_1218378" data-name="Trazado 1218378" d="M41.886,51.736H33.054a2.632,2.632,0,0,1-2.629-2.629V4.324A2.632,2.632,0,0,1,33.054,1.7H58.5a1.814,1.814,0,0,1,.243.018V7a4.329,4.329,0,0,0,4.324,4.324h5.287a1.8,1.8,0,0,1,.018.243V26a.848.848,0,0,0,1.7,0V11.568a3.459,3.459,0,0,0-1.02-2.462L60.959,1.02A3.459,3.459,0,0,0,58.5,0H33.054A4.329,4.329,0,0,0,28.73,4.324V49.108a4.329,4.329,0,0,0,4.324,4.324h8.832a.848.848,0,1,0,0-1.7ZM67.171,9.63H63.065A2.632,2.632,0,0,1,60.436,7V2.894Z" transform="translate(-28.73 0)"/>
            <path id="Trazado_1218379" data-name="Trazado 1218379" d="M131.6,265.939l-7.183-12.124a1.858,1.858,0,0,0-2.547-.652l-1.747,1.035a3.319,3.319,0,0,0-1.464,3.87,2.6,2.6,0,0,1-1.828-.02c-1.379-.434-2.428-1.307-4.16-.869-2.941.749-2.852.711-3.118.8-1.722-.98-2.757-1.272-4.585-.565l-1.63.63a2.607,2.607,0,0,1-2.283-.191l-.445-.262a3.312,3.312,0,0,0-1.581-3.4h0l-1.747-1.035a1.861,1.861,0,0,0-2.547.652l-7.183,12.124a1.858,1.858,0,0,0,.652,2.547l1.747,1.035a3.293,3.293,0,0,0,1.684.462,3.337,3.337,0,0,0,1.811-.535l.364.215-.769,1.071a2.84,2.84,0,0,0,2.75,4.463,2.838,2.838,0,0,0,3.241,2.328,2.841,2.841,0,0,0,3.921,2.132,2.839,2.839,0,0,0,4.829.8l2.043,1.21a2.846,2.846,0,0,0,4.273-2.107l0,0a2.843,2.843,0,0,0,4.284-2.236,2.843,2.843,0,0,0,3.522-2.459,2.844,2.844,0,0,0,3.214-4.478l1.126-.658a3.307,3.307,0,0,0,2.951-.211l1.747-1.035a1.858,1.858,0,0,0,.652-2.547Zm-40.784,2.124-1.747-1.035a.164.164,0,0,1-.058-.224L96.2,254.678a.164.164,0,0,1,.224-.057l1.747,1.035a1.619,1.619,0,0,1,.568,2.218l-5.7,9.621A1.621,1.621,0,0,1,90.819,268.062Zm3.866,5.261a1.146,1.146,0,0,1-.263-1.6l1.13-1.574a1.147,1.147,0,0,1,1.864,1.338l-1.13,1.574A1.149,1.149,0,0,1,94.685,273.323Zm3.241,2.327a1.149,1.149,0,0,1-.263-1.6l1.13-1.574h0l1.247-1.737a1.139,1.139,0,0,1,.746-.463,1.154,1.154,0,0,1,.188-.015,1.147,1.147,0,0,1,.929,1.816l-2.377,3.311A1.146,1.146,0,0,1,97.926,275.65Zm3.241,2.327a1.148,1.148,0,0,1-.263-1.6h0l2.377-3.311a1.147,1.147,0,1,1,1.864,1.338l-1.056,1.471h0l-1.321,1.84A1.148,1.148,0,0,1,101.167,277.976Zm3.771,1.588a1.149,1.149,0,0,1-.264-1.6l.791-1.1a1.147,1.147,0,1,1,1.864,1.338l-.79,1.1A1.148,1.148,0,0,1,104.938,279.564Zm19-6.759a1.149,1.149,0,0,1-1.572.4l-7.5-4.446a.848.848,0,0,0-.864,1.459l5.673,3.361h0a1.148,1.148,0,0,1-1.17,1.975l-5.676-3.363a.848.848,0,1,0-.864,1.459l4.18,2.476h0a1.148,1.148,0,0,1-1.171,1.974l-2.243-1.329h0l-1.637-.97a.848.848,0,0,0-.864,1.459l1.637.97h0a1.148,1.148,0,1,1-1.17,1.975l-1.91-1.131a2.841,2.841,0,0,0-1.909-4.346,2.84,2.84,0,0,0-3.1-3.8,2.842,2.842,0,0,0-4.822-1.519A2.84,2.84,0,0,0,95,268.394l-.388-.229,5.332-9,.254.15a4.292,4.292,0,0,0,3.757.312l1.63-.63a2.5,2.5,0,0,1,2.369.051,3.8,3.8,0,0,0-.962,2.528v3.759a1.813,1.813,0,0,0,1.809,1.812h0a3.755,3.755,0,0,0,3.549-2.538l11.186,6.624a1.147,1.147,0,0,1,.4,1.572Zm6.148-5.778-1.747,1.035a1.621,1.621,0,0,1-2.218-.568l-2.672-4.509a.848.848,0,1,0-1.459.864l2.672,4.509c.05.085.1.166.161.244l-.743.434a4.3,4.3,0,0,0-.433.293l-11.517-6.82a.848.848,0,0,0-1.28.729,2.165,2.165,0,0,1-.6,1.611,2.04,2.04,0,0,1-1.451.6h0a.116.116,0,0,1-.115-.116v-3.759a2.109,2.109,0,0,1,1.589-2.042l2.816-.713c1.022-.258,1.6.287,3.129.805a4.285,4.285,0,0,0,3.241-.052l.512.864a.848.848,0,0,0,1.459-.864l-1.008-1.7a1.618,1.618,0,0,1,.568-2.218l1.747-1.035a.164.164,0,0,1,.225.058l7.183,12.124A.163.163,0,0,1,130.087,267.027Z" transform="translate(-80.704 -224.437)"/>
          </g>
        </g>
      </g>
    </g>
  </g>
</svg>
