<svg xmlns="http://www.w3.org/2000/svg" xmlns:xlink="http://www.w3.org/1999/xlink" width="106.16" height="106.16" viewBox="0 0 106.16 106.16">
  <defs>
    <filter id="Trazado_982547" x="0" y="0" width="106.16" height="106.16" filterUnits="userSpaceOnUse">
      <feOffset dy="3" input="SourceAlpha"/>
      <feGaussianBlur stdDeviation="3" result="blur"/>
      <feFlood flood-opacity="0.161"/>
      <feComposite operator="in" in2="blur"/>
      <feComposite in="SourceGraphic"/>
    </filter>
  </defs>
  <g id="Grupo_1229959" data-name="Grupo 1229959" transform="translate(-1030.925 -3044.657)">
    <g id="Grupo_1228608" data-name="Grupo 1228608" transform="translate(840 -785.343)">
      <g id="Grupo_1225951" data-name="Grupo 1225951" transform="translate(-0.075 368.536)">
        <g id="Grupo_1224851" data-name="Grupo 1224851" transform="translate(0 1738.464)">
          <g id="Grupo_1206130" data-name="Grupo 1206130" transform="translate(0 -59)">
            <g id="Grupo_1203672" data-name="Grupo 1203672" transform="translate(0.08 -4797.878)">
              <g id="Grupo_1203344" data-name="Grupo 1203344" transform="translate(-81.08 5174.875)">
                <g id="Grupo_1177900" data-name="Grupo 1177900" transform="translate(281 1411.003)">
                  <g id="Grupo_1172010" data-name="Grupo 1172010" transform="translate(0)">
                    <g id="Grupo_1171046" data-name="Grupo 1171046">
                      <g id="Grupo_1148525" data-name="Grupo 1148525">
                        <g transform="matrix(1, 0, 0, 1, -9, -6)" filter="url(#Trazado_982547)">
                          <g id="Trazado_982547-2" data-name="Trazado 982547" transform="translate(9 6)" fill="#e5ebfb">
                            <path d="M 44.0802001953125 86.660400390625 C 38.33124923706055 86.660400390625 32.75506210327148 85.53479766845703 27.50652503967285 83.31484985351562 C 22.43628692626953 81.17032623291016 17.88242530822754 78.09992218017578 13.97144985198975 74.18894958496094 C 10.06047534942627 70.27797698974609 6.99007511138916 65.72411346435547 4.845550060272217 60.65387344360352 C 2.625600099563599 55.40533828735352 1.500000238418579 49.82915115356445 1.500000238418579 44.0802001953125 C 1.500000238418579 38.33124923706055 2.625600099563599 32.75506210327148 4.845550060272217 27.50652503967285 C 6.99007511138916 22.43628692626953 10.06047534942627 17.88242530822754 13.97144985198975 13.97144985198975 C 17.88242530822754 10.06047534942627 22.43628692626953 6.99007511138916 27.50652503967285 4.845550060272217 C 32.75506210327148 2.625600099563599 38.33124923706055 1.500000238418579 44.0802001953125 1.500000238418579 C 49.82915115356445 1.500000238418579 55.40533828735352 2.625600099563599 60.65387344360352 4.845550060272217 C 65.72411346435547 6.99007511138916 70.27797698974609 10.06047534942627 74.18894958496094 13.97144985198975 C 78.09992218017578 17.88242530822754 81.17032623291016 22.43628692626953 83.31484985351562 27.50652503967285 C 85.53479766845703 32.75506210327148 86.660400390625 38.33124923706055 86.660400390625 44.0802001953125 C 86.660400390625 49.82915115356445 85.53479766845703 55.40533828735352 83.31484985351562 60.65387344360352 C 81.17032623291016 65.72411346435547 78.09992218017578 70.27797698974609 74.18894958496094 74.18894958496094 C 70.27797698974609 78.09992218017578 65.72411346435547 81.17032623291016 60.65387344360352 83.31484985351562 C 55.40533828735352 85.53479766845703 49.82915115356445 86.660400390625 44.0802001953125 86.660400390625 Z" stroke="none"/>
                            <path d="M 44.0802001953125 3 C 38.53308486938477 3 33.15349960327148 4.085746765136719 28.09085845947266 6.227058410644531 C 23.19941711425781 8.29595947265625 18.80581665039062 11.25841522216797 15.03211212158203 15.03211212158203 C 11.25841522216797 18.80581665039062 8.29595947265625 23.19941711425781 6.227058410644531 28.09085845947266 C 4.085746765136719 33.15349960327148 3 38.53308486938477 3 44.0802001953125 C 3 49.62731552124023 4.085746765136719 55.00691604614258 6.227058410644531 60.06954193115234 C 8.29595947265625 64.96098327636719 11.25841522216797 69.35458374023438 15.03211212158203 73.12828826904297 C 18.80581665039062 76.90198516845703 23.19941711425781 79.86444091796875 28.09085845947266 81.93334197998047 C 33.15349960327148 84.07466125488281 38.53308486938477 85.160400390625 44.0802001953125 85.160400390625 C 49.62731552124023 85.160400390625 55.00691604614258 84.07466125488281 60.06954193115234 81.93334197998047 C 64.96099853515625 79.86444091796875 69.35458374023438 76.90198516845703 73.12828826904297 73.12828826904297 C 76.90198516845703 69.35458374023438 79.86444091796875 64.96099853515625 81.93334197998047 60.06954193115234 C 84.07466125488281 55.00691604614258 85.160400390625 49.62731552124023 85.160400390625 44.0802001953125 C 85.160400390625 38.53308486938477 84.07466125488281 33.15349960327148 81.93334197998047 28.09085845947266 C 79.86444091796875 23.19941711425781 76.90198516845703 18.80581665039062 73.12828826904297 15.03211212158203 C 69.35458374023438 11.25841522216797 64.96098327636719 8.29595947265625 60.06954193115234 6.227058410644531 C 55.00691604614258 4.085746765136719 49.62731552124023 3 44.0802001953125 3 M 44.0802001953125 0 C 68.42502593994141 0 88.160400390625 19.73538970947266 88.160400390625 44.0802001953125 C 88.160400390625 68.42502593994141 68.42502593994141 88.160400390625 44.0802001953125 88.160400390625 C 19.73538970947266 88.160400390625 0 68.42502593994141 0 44.0802001953125 C 0 19.73538970947266 19.73538970947266 0 44.0802001953125 0 Z" stroke="none" fill="#0b47db"/>
                          </g>
                        </g>
                      </g>
                    </g>
                  </g>
                </g>
              </g>
            </g>
          </g>
        </g>
      </g>
    </g>
    <g id="normas" transform="translate(1011.005 3065.604)">
      <path id="Trazado_1218380" data-name="Trazado 1218380" d="M57,62.921V8.638A1.138,1.138,0,0,1,58.138,7.5H76.346a1.138,1.138,0,0,1,1.138,1.138V62.921a1.138,1.138,0,0,1-1.138,1.138H58.138A1.138,1.138,0,0,1,57,62.921Z" transform="translate(-6.646 -6.646)" fill="#ecf4ff"/>
      <path id="Trazado_1218381" data-name="Trazado 1218381" d="M200.414,7.5H197a1.138,1.138,0,0,1,1.138,1.138V62.921A1.138,1.138,0,0,1,197,64.059h3.414a1.138,1.138,0,0,0,1.138-1.138V8.638A1.138,1.138,0,0,0,200.414,7.5Z" transform="translate(-130.714 -6.646)" fill="#ddeafb"/>
      <path id="Trazado_1218382" data-name="Trazado 1218382" d="M87,49.449V39.207A1.707,1.707,0,0,1,88.707,37.5H98.949a1.707,1.707,0,0,1,1.707,1.707V49.449a1.707,1.707,0,0,1-1.707,1.707H88.707A1.707,1.707,0,0,1,87,49.449Z" transform="translate(-33.232 -33.232)" fill="#ffe07d"/>
      <path id="Trazado_1218383" data-name="Trazado 1218383" d="M165.414,37.5H162a1.707,1.707,0,0,1,1.707,1.707V49.449A1.707,1.707,0,0,1,162,51.156h3.414a1.707,1.707,0,0,0,1.707-1.707V39.207A1.707,1.707,0,0,0,165.414,37.5Z" transform="translate(-99.697 -33.232)" fill="#ffd064"/>
      <path id="Trazado_1218384" data-name="Trazado 1218384" d="M87,419.621v-3.414a1.707,1.707,0,0,1,1.707-1.707H98.949a1.707,1.707,0,0,1,1.707,1.707v3.414a1.707,1.707,0,0,1-1.707,1.707H88.707A1.707,1.707,0,0,1,87,419.621Z" transform="translate(-33.232 -367.329)" fill="#ffe07d"/>
      <path id="Trazado_1218385" data-name="Trazado 1218385" d="M165.414,414.5H162a1.707,1.707,0,0,1,1.707,1.707v3.414A1.707,1.707,0,0,1,162,421.328h3.414a1.707,1.707,0,0,0,1.707-1.707v-3.414A1.707,1.707,0,0,0,165.414,414.5Z" transform="translate(-99.697 -367.329)" fill="#ffd064"/>
      <path id="Trazado_1218386" data-name="Trazado 1218386" d="M275,62.921V8.638A1.138,1.138,0,0,1,276.138,7.5h18.208a1.138,1.138,0,0,1,1.138,1.138V62.921a1.138,1.138,0,0,1-1.138,1.138H276.138A1.138,1.138,0,0,1,275,62.921Z" transform="translate(-199.838 -6.646)" fill="#ecf4ff"/>
      <path id="Trazado_1218387" data-name="Trazado 1218387" d="M418.414,7.5H415a1.138,1.138,0,0,1,1.138,1.138V62.921A1.138,1.138,0,0,1,415,64.059h3.414a1.138,1.138,0,0,0,1.138-1.138V8.638A1.138,1.138,0,0,0,418.414,7.5Z" transform="translate(-323.906 -6.646)" fill="#ddeafb"/>
      <path id="Trazado_1218388" data-name="Trazado 1218388" d="M305,49.449V39.207a1.707,1.707,0,0,1,1.707-1.707h10.242a1.707,1.707,0,0,1,1.707,1.707V49.449a1.707,1.707,0,0,1-1.707,1.707H306.707A1.707,1.707,0,0,1,305,49.449Z" transform="translate(-226.424 -33.232)" fill="#dd636e"/>
      <path id="Trazado_1218389" data-name="Trazado 1218389" d="M383.414,37.5H380a1.707,1.707,0,0,1,1.707,1.707V49.449A1.707,1.707,0,0,1,380,51.156h3.414a1.707,1.707,0,0,0,1.707-1.707V39.207A1.707,1.707,0,0,0,383.414,37.5Z" transform="translate(-292.889 -33.232)" fill="#da4a54"/>
      <path id="Trazado_1218390" data-name="Trazado 1218390" d="M305,419.621v-3.414a1.707,1.707,0,0,1,1.707-1.707h10.242a1.707,1.707,0,0,1,1.707,1.707v3.414a1.707,1.707,0,0,1-1.707,1.707H306.707A1.707,1.707,0,0,1,305,419.621Z" transform="translate(-226.424 -367.329)" fill="#ffe07d"/>
      <path id="Trazado_1218391" data-name="Trazado 1218391" d="M383.414,414.5H380a1.707,1.707,0,0,1,1.707,1.707v3.414A1.707,1.707,0,0,1,380,421.328h3.414a1.707,1.707,0,0,0,1.707-1.707v-3.414A1.707,1.707,0,0,0,383.414,414.5Z" transform="translate(-292.889 -367.329)" fill="#ffd064"/>
      <g id="Grupo_1229958" data-name="Grupo 1229958" transform="translate(49.5)">
        <path id="Trazado_1218392" data-name="Trazado 1218392" d="M69.7,0H51.492A1.994,1.994,0,0,0,49.5,1.992V46.729a.854.854,0,0,0,1.707,0V1.992a.285.285,0,0,1,.285-.285H69.7a.285.285,0,0,1,.285.285V56.275a.285.285,0,0,1-.285.285H51.492a.285.285,0,0,1-.285-.285v-5.69a.854.854,0,1,0-1.707,0v5.69a1.994,1.994,0,0,0,1.992,1.992H69.7a1.994,1.994,0,0,0,1.992-1.992V1.992A1.994,1.994,0,0,0,69.7,0Z" transform="translate(-49.5)"/>
        <path id="Trazado_1218393" data-name="Trazado 1218393" d="M94.863,42.8V32.561A2.563,2.563,0,0,0,92.3,30H82.061A2.563,2.563,0,0,0,79.5,32.561V42.8a2.563,2.563,0,0,0,2.561,2.561H92.3A2.563,2.563,0,0,0,94.863,42.8Zm-13.656,0V32.561a.854.854,0,0,1,.854-.854H92.3a.854.854,0,0,1,.854.854V42.8a.854.854,0,0,1-.854.854H82.061A.854.854,0,0,1,81.207,42.8Z" transform="translate(-76.086 -26.586)"/>
        <path id="Trazado_1218394" data-name="Trazado 1218394" d="M122.546,76.823a.853.853,0,0,0-1.2.11l-2.073,2.489-1.578-1.5a.854.854,0,1,0-1.175,1.238l2.238,2.124a.854.854,0,0,0,.588.234h.05a.854.854,0,0,0,.606-.306l2.655-3.189A.854.854,0,0,0,122.546,76.823Z" transform="translate(-108.656 -67.905)"/>
        <path id="Trazado_1218395" data-name="Trazado 1218395" d="M79.5,412.975a2.563,2.563,0,0,0,2.561,2.561H92.3a2.563,2.563,0,0,0,2.561-2.561v-3.414A2.563,2.563,0,0,0,92.3,407H82.061a2.563,2.563,0,0,0-2.561,2.561Zm1.707-3.414a.854.854,0,0,1,.854-.854H92.3a.854.854,0,0,1,.854.854v3.414a.854.854,0,0,1-.854.853H82.061a.854.854,0,0,1-.854-.853Z" transform="translate(-76.086 -360.683)"/>
        <path id="Trazado_1218396" data-name="Trazado 1218396" d="M115.354,187.5a.854.854,0,0,0,0,1.707h5.69a.854.854,0,0,0,0-1.707Z" transform="translate(-107.103 -166.162)"/>
        <path id="Trazado_1218397" data-name="Trazado 1218397" d="M80.354,222.911H94.01a.854.854,0,1,0,0-1.707H80.354a.854.854,0,1,0,0,1.707Z" transform="translate(-76.086 -196.031)"/>
        <path id="Trazado_1218398" data-name="Trazado 1218398" d="M80.354,252.911H94.01a.854.854,0,1,0,0-1.707H80.354a.854.854,0,1,0,0,1.707Z" transform="translate(-76.086 -222.617)"/>
        <path id="Trazado_1218399" data-name="Trazado 1218399" d="M80.354,335.207H94.01a.854.854,0,0,0,0-1.707H80.354a.854.854,0,0,0,0,1.707Z" transform="translate(-76.086 -295.547)"/>
        <path id="Trazado_1218400" data-name="Trazado 1218400" d="M80.354,365.207H94.01a.854.854,0,0,0,0-1.707H80.354a.854.854,0,0,0,0,1.707Z" transform="translate(-76.086 -322.133)"/>
        <path id="Trazado_1218401" data-name="Trazado 1218401" d="M97.91,281.2a.854.854,0,0,0,0,1.707h9.66a.854.854,0,0,0,0-1.707Z" transform="translate(-91.644 -249.203)"/>
        <path id="Trazado_1218402" data-name="Trazado 1218402" d="M288.838,7.718a.854.854,0,0,0,.854-.854V1.992A1.994,1.994,0,0,0,287.7,0H269.492A1.994,1.994,0,0,0,267.5,1.992V56.275a1.994,1.994,0,0,0,1.992,1.992H287.7a1.994,1.994,0,0,0,1.992-1.992V10.934a.854.854,0,0,0-1.707,0V56.275a.285.285,0,0,1-.285.285H269.492a.285.285,0,0,1-.284-.285V1.992a.285.285,0,0,1,.284-.285H287.7a.285.285,0,0,1,.285.285V6.864A.854.854,0,0,0,288.838,7.718Z" transform="translate(-242.691)"/>
        <path id="Trazado_1218403" data-name="Trazado 1218403" d="M312.863,32.561A2.563,2.563,0,0,0,310.3,30H300.061a2.563,2.563,0,0,0-2.561,2.561V42.8a2.563,2.563,0,0,0,2.561,2.561H310.3a2.563,2.563,0,0,0,2.561-2.561ZM311.156,42.8a.854.854,0,0,1-.854.854H300.061a.854.854,0,0,1-.854-.854V32.561a.854.854,0,0,1,.854-.854H310.3a.854.854,0,0,1,.854.854Z" transform="translate(-269.277 -26.586)"/>
        <path id="Trazado_1218404" data-name="Trazado 1218404" d="M310.3,407H300.061a2.563,2.563,0,0,0-2.561,2.561v3.414a2.563,2.563,0,0,0,2.561,2.561H310.3a2.563,2.563,0,0,0,2.561-2.561v-3.414A2.563,2.563,0,0,0,310.3,407Zm.854,5.975a.854.854,0,0,1-.854.853H300.061a.854.854,0,0,1-.854-.853v-3.414a.854.854,0,0,1,.854-.854H310.3a.854.854,0,0,1,.854.854Z" transform="translate(-269.277 -360.683)"/>
        <path id="Trazado_1218405" data-name="Trazado 1218405" d="M339.044,189.207a.854.854,0,0,0,0-1.707h-5.69a.854.854,0,0,0,0,1.707Z" transform="translate(-300.294 -166.162)"/>
        <path id="Trazado_1218406" data-name="Trazado 1218406" d="M312.01,221.2H298.354a.854.854,0,1,0,0,1.707H312.01a.854.854,0,0,0,0-1.707Z" transform="translate(-269.277 -196.031)"/>
        <path id="Trazado_1218407" data-name="Trazado 1218407" d="M312.01,251.2H298.354a.854.854,0,0,0,0,1.707H312.01a.854.854,0,0,0,0-1.707Z" transform="translate(-269.277 -222.617)"/>
        <path id="Trazado_1218408" data-name="Trazado 1218408" d="M312.01,333.5H298.354a.854.854,0,0,0,0,1.707H312.01a.854.854,0,0,0,0-1.707Z" transform="translate(-269.277 -295.547)"/>
        <path id="Trazado_1218409" data-name="Trazado 1218409" d="M312.01,363.5H298.354a.854.854,0,0,0,0,1.707H312.01a.854.854,0,0,0,0-1.707Z" transform="translate(-269.277 -322.133)"/>
        <path id="Trazado_1218410" data-name="Trazado 1218410" d="M325.569,282.911a.854.854,0,0,0,0-1.707h-9.66a.854.854,0,0,0,0,1.707Z" transform="translate(-284.834 -249.203)"/>
        <path id="Trazado_1218411" data-name="Trazado 1218411" d="M346.242,76.205a.853.853,0,0,0-1.207,0l-1.27,1.27-1.27-1.27a.853.853,0,1,0-1.207,1.207l1.27,1.27-1.27,1.27a.853.853,0,1,0,1.207,1.207l1.27-1.27,1.27,1.27a.853.853,0,0,0,1.207-1.207l-1.27-1.27,1.27-1.27A.854.854,0,0,0,346.242,76.205Z" transform="translate(-307.861 -67.311)"/>
      </g>
    </g>
  </g>
</svg>
