<svg xmlns="http://www.w3.org/2000/svg" xmlns:xlink="http://www.w3.org/1999/xlink" width="108" height="108" viewBox="0 0 108 108">
  <defs>
    <filter id="Trazado_904820" x="0" y="0" width="108" height="108" filterUnits="userSpaceOnUse">
      <feOffset dy="3" input="SourceAlpha"/>
      <feGaussianBlur stdDeviation="3" result="blur"/>
      <feFlood flood-opacity="0.161"/>
      <feComposite operator="in" in2="blur"/>
      <feComposite in="SourceGraphic"/>
    </filter>
  </defs>
  <g id="Grupo_1229965" data-name="Grupo 1229965" transform="translate(-195 -6107.204)">
    <g id="Grupo_1228731" data-name="Grupo 1228731" transform="translate(0 5341.204)">
      <g id="Grupo_1227366" data-name="Grupo 1227366" transform="translate(0 268)">
        <g id="Grupo_1224979" data-name="Grupo 1224979" transform="translate(204 504)">
          <g id="Grupo_1173585" data-name="Grupo 1173585" transform="translate(0 0)">
            <g id="Grupo_1173428" data-name="Grupo 1173428">
              <g id="Grupo_1171958" data-name="Grupo 1171958">
                <g id="Grupo_1167341" data-name="Grupo 1167341">
                  <g id="Grupo_1166792" data-name="Grupo 1166792">
                    <g transform="matrix(1, 0, 0, 1, -9, -6)" filter="url(#Trazado_904820)">
                      <g id="Trazado_904820-2" data-name="Trazado 904820" transform="translate(9 6)" fill="#f6ecfe">
                        <path d="M 44.99999618530273 88.50003051757812 C 39.12687301635742 88.50003051757812 33.43022155761719 87.35010528564453 28.06829643249512 85.08219146728516 C 22.88852119445801 82.89134216308594 18.23629570007324 79.75461578369141 14.24084663391113 75.75916290283203 C 10.24540901184082 71.76371765136719 7.108683586120605 67.11148834228516 4.917821407318115 61.93171691894531 C 2.649921178817749 56.56978988647461 1.499996185302734 50.87313842773438 1.499996185302734 45.00001525878906 C 1.499996185302734 39.12689208984375 2.649921178817749 33.43024063110352 4.917821407318115 28.06830215454102 C 7.108683586120605 22.88852691650391 10.24540901184082 18.23631477355957 14.24084663391113 14.24086570739746 C 18.23629570007324 10.24541568756104 22.88852119445801 7.10869026184082 28.06829643249512 4.917827606201172 C 33.43022155761719 2.649927854537964 39.12687301635742 1.50000274181366 44.99999618530273 1.50000274181366 C 50.87311935424805 1.50000274181366 56.56977081298828 2.649927854537964 61.93169784545898 4.917827606201172 C 67.11147308349609 7.10869026184082 71.76369476318359 10.24541568756104 75.75914764404297 14.24086570739746 C 79.75458526611328 18.23631477355957 82.89131164550781 22.88852691650391 85.08216857910156 28.06830215454102 C 87.35007476806641 33.43024063110352 88.5 39.12689208984375 88.5 45.00001525878906 C 88.5 50.87313842773438 87.35007476806641 56.56978988647461 85.08216857910156 61.93171691894531 C 82.89131164550781 67.11148834228516 79.75458526611328 71.76371765136719 75.75914764404297 75.75916290283203 C 71.76369476318359 79.75461578369141 67.11147308349609 82.89134216308594 61.93169784545898 85.08219146728516 C 56.56977081298828 87.35010528564453 50.87311935424805 88.50003051757812 44.99999618530273 88.50003051757812 Z" stroke="none"/>
                        <path d="M 44.99999618530273 3 C 39.32870864868164 3 33.82865142822266 4.110061645507812 28.65262603759766 6.299346923828125 C 23.65165710449219 8.414573669433594 19.15968322753906 11.44334411621094 15.301513671875 15.301513671875 C 11.44333648681641 19.15968322753906 8.414566040039062 23.65165710449219 6.299339294433594 28.65262985229492 C 4.110054016113281 33.82867050170898 2.999992370605469 39.32872772216797 2.999992370605469 45.00001525878906 C 2.999992370605469 50.67130279541016 4.110054016113281 56.17136001586914 6.299339294433594 61.34738922119141 C 8.414566040039062 66.34837341308594 11.44333648681641 70.84033203125 15.301513671875 74.69850158691406 C 19.15968322753906 78.55668640136719 23.65165710449219 81.58545684814453 28.65262603759766 83.70068359375 C 33.82865142822266 85.88996887207031 39.32870864868164 87.00003051757812 44.99999618530273 87.00003051757812 C 50.67128372192383 87.00003051757812 56.17134094238281 85.88996887207031 61.34736633300781 83.70068359375 C 66.34834289550781 81.58545684814453 70.84030914306641 78.55668640136719 74.69847869873047 74.69850158691406 C 78.55665588378906 70.84033203125 81.58542633056641 66.34837341308594 83.70065307617188 61.34738922119141 C 85.88993835449219 56.17136001586914 87 50.67130279541016 87 45.00001525878906 C 87 39.32872772216797 85.88993835449219 33.82867050170898 83.70065307617188 28.65262985229492 C 81.58542633056641 23.65165710449219 78.55665588378906 19.15968322753906 74.69847869873047 15.301513671875 C 70.84030914306641 11.44334411621094 66.34834289550781 8.414573669433594 61.34736633300781 6.299346923828125 C 56.17134094238281 4.110061645507812 50.67128372192383 3 44.99999618530273 3 M 44.99999618530273 0 C 69.85281372070312 0 90 20.14718627929688 90 45.00001525878906 C 90 69.85282897949219 69.85281372070312 90.00003051757812 44.99999618530273 90.00003051757812 C 20.14717864990234 90.00003051757812 -7.62939453125e-06 69.85282897949219 -7.62939453125e-06 45.00001525878906 C -7.62939453125e-06 20.14718627929688 20.14717864990234 0 44.99999618530273 0 Z" stroke="none" fill="#aa52f9"/>
                      </g>
                    </g>
                  </g>
                </g>
              </g>
            </g>
          </g>
        </g>
      </g>
    </g>
    <g id="programador" transform="translate(218.93 6125.079)">
      <path id="Trazado_1218412" data-name="Trazado 1218412" d="M130.145,223.848v6.811l7.5.236v0l.008-.005v-7.07A8.989,8.989,0,0,1,130.145,223.848Z" transform="translate(-114.839 -197.56)" fill="#eab883"/>
      <path id="Trazado_1218413" data-name="Trazado 1218413" d="M133.666,224.887a8.682,8.682,0,0,1-3.521-.805v6.811l4.307.135-.545-1.507C133.517,228.446,133.723,227.855,133.666,224.887Z" transform="translate(-114.839 -197.794)" fill="#dda36f"/>
      <path id="Trazado_1218414" data-name="Trazado 1218414" d="M141.355,268.777a5.369,5.369,0,0,1-6.3-.037l-.048-.036v7.512h6.449V268.7Z" transform="translate(-119.131 -237.181)" fill="#efefef"/>
      <path id="Trazado_1218415" data-name="Trazado 1218415" d="M140.314,274.756l-1.8-4.985a5.593,5.593,0,0,1-3.5-1.067v7.512h3.542C139.166,275.768,140.314,274.756,140.314,274.756Z" transform="translate(-119.132 -237.182)" fill="#ddd"/>
      <path id="Trazado_1218416" data-name="Trazado 1218416" d="M43.768,288.487l-3.095-19.234a4.227,4.227,0,0,0-3.228-3.281h0l-3.456-.956-.422-.249-6.93,6.212,0,0a1.034,1.034,0,0,1-1.935,0l0,0-6.929-6.212-.422.249-3.456.956h0a4.227,4.227,0,0,0-3.228,3.281L7.577,288.487a3.732,3.732,0,0,0,3.659,4.4H40.109A3.732,3.732,0,0,0,43.768,288.487Z" transform="translate(-6.603 -233.706)" fill="#70b5e8"/>
      <g id="Grupo_1229960" data-name="Grupo 1229960" transform="translate(0.92 28.623)">
        <path id="Trazado_1218417" data-name="Trazado 1218417" d="M11.089,294.914l3.095-20.876a4.056,4.056,0,0,1,.983-1.99L13.9,272.4h0a4.227,4.227,0,0,0-3.228,3.281L7.577,294.914a3.732,3.732,0,0,0,3.659,4.4h3.513A3.732,3.732,0,0,1,11.089,294.914Z" transform="translate(-7.524 -268.756)" fill="#52a5d8"/>
        <path id="Trazado_1218418" data-name="Trazado 1218418" d="M98.677,252.635l-7.351-5.964,4.554-2.687v1.427Z" transform="translate(-81.495 -243.985)" fill="#52a5d8"/>
        <path id="Trazado_1218419" data-name="Trazado 1218419" d="M170.455,252.635l7.351-5.964-4.57-2.687v1.427Z" transform="translate(-151.34 -243.985)" fill="#52a5d8"/>
      </g>
      <path id="Trazado_1218420" data-name="Trazado 1218420" d="M109.273,415.765v4.283h9.085v-4.283a2.535,2.535,0,0,1,1.921-2.455,5.148,5.148,0,0,1-2.449-3.641,1.057,1.057,0,0,0-1.033-.846h-6.029a1.058,1.058,0,0,0-1.034.847,5.159,5.159,0,0,1-2.426,3.628A2.536,2.536,0,0,1,109.273,415.765Z" transform="translate(-94.682 -360.861)" fill="#a4d9f4"/>
      <path id="Trazado_1218421" data-name="Trazado 1218421" d="M112.309,420.048v-4.183a2.7,2.7,0,0,0-.512-1.587,2.212,2.212,0,0,1,.021-2.533,6.918,6.918,0,0,0,.987-2.434,1.149,1.149,0,0,1,.231-.488h-2.267a1.058,1.058,0,0,0-1.034.847,5.159,5.159,0,0,1-2.426,3.628,2.536,2.536,0,0,1,1.965,2.467v4.283Z" transform="translate(-94.682 -360.861)" fill="#84c7ef"/>
      <g id="Grupo_1229961" data-name="Grupo 1229961" transform="translate(13.947 54.281)">
        <path id="Trazado_1218422" data-name="Trazado 1218422" d="M167.357,462.688h-.231a4.92,4.92,0,0,0-4.905,4.905h5.136v-4.905Z" transform="translate(-157.099 -462.688)" fill="#eab883"/>
        <path id="Trazado_1218423" data-name="Trazado 1218423" d="M118.563,462.688v4.905h5.122a4.92,4.92,0,0,0-4.905-4.905Z" transform="translate(-118.563 -462.688)" fill="#eab883"/>
      </g>
      <g id="Grupo_1229962" data-name="Grupo 1229962" transform="translate(13.947 56.733)">
        <path id="Trazado_1218424" data-name="Trazado 1218424" d="M162.222,486.047h5.136v-2.453h-4.473A4.862,4.862,0,0,0,162.222,486.047Z" transform="translate(-157.1 -483.594)" fill="#dda36f"/>
        <path id="Trazado_1218425" data-name="Trazado 1218425" d="M118.563,483.594v2.453h5.122a4.864,4.864,0,0,0-.663-2.453Z" transform="translate(-118.563 -483.594)" fill="#dda36f"/>
      </g>
      <path id="Trazado_1218426" data-name="Trazado 1218426" d="M84.289,10.718a1.371,1.371,0,0,1-.78-.477c-3.052-3.8-11.169-3.489-15.389.732-3.889,3.889-1.738,10.093-1.738,10.093h21.5C89.766,13.178,85.732,11.034,84.289,10.718Z" transform="translate(-58.034 -6.696)" fill="#93482b"/>
      <path id="Trazado_1218427" data-name="Trazado 1218427" d="M73.455,10.975a11.933,11.933,0,0,1,5.972-3.1,12.7,12.7,0,0,0-11.307,3.1c-3.889,3.889-1.738,10.093-1.738,10.093h5.334S69.566,14.863,73.455,10.975Z" transform="translate(-58.034 -6.697)" fill="#843d26"/>
      <g id="Grupo_1229963" data-name="Grupo 1229963" transform="translate(7.313 13.311)">
        <path id="Trazado_1218428" data-name="Trazado 1218428" d="M63.068,113.977l0,0a2.124,2.124,0,0,0,0,3.662l0,0a3.142,3.142,0,0,0,1.75.515v-4.685h0A3.142,3.142,0,0,0,63.068,113.977Z" transform="translate(-62.018 -113.462)" fill="#eab883"/>
        <path id="Trazado_1218429" data-name="Trazado 1218429" d="M240.824,113.979l0,0a2.3,2.3,0,0,1,1.014,1.473l0,.01c.006.035.012.07.016.1,0,.01,0,.019,0,.029,0,.03.006.06.008.09s0,.053,0,.08,0,.027,0,.04v.006c0,.014,0,.027,0,.04s0,.054,0,.08-.005.06-.008.09c0,.01,0,.02,0,.029,0,.035-.01.07-.016.1l0,.01a2.294,2.294,0,0,1-1.014,1.473l0,0a3.142,3.142,0,0,1-1.75.515v-4.685A3.173,3.173,0,0,1,240.824,113.979Z" transform="translate(-218.302 -113.464)" fill="#eab883"/>
      </g>
      <g id="Grupo_1229964" data-name="Grupo 1229964" transform="translate(7.313 14.599)">
        <path id="Trazado_1218430" data-name="Trazado 1218430" d="M63.06,125.223a2.486,2.486,0,0,1-.747-.777,2.105,2.105,0,0,0,.747,2.885l0,0a3.142,3.142,0,0,0,1.75.515v-2.108a3.141,3.141,0,0,1-1.75-.515Z" transform="translate(-62.013 -124.446)" fill="#dda36f"/>
        <path id="Trazado_1218431" data-name="Trazado 1218431" d="M241.873,125.456c0-.027,0-.054,0-.08s-.005-.06-.008-.09c0-.01,0-.02,0-.029,0-.035-.01-.07-.016-.1l0-.01a2.071,2.071,0,0,0-.267-.7,2.482,2.482,0,0,1-.747.777l0,0a3.142,3.142,0,0,1-1.75.515v2.108a3.142,3.142,0,0,0,1.75-.515l0,0a2.294,2.294,0,0,0,1.014-1.473l0-.01c.006-.035.012-.07.016-.1,0-.01,0-.019,0-.029,0-.03.006-.06.008-.09s0-.053,0-.08,0-.027,0-.04V125.5C241.874,125.482,241.873,125.469,241.873,125.456Z" transform="translate(-218.302 -124.445)" fill="#dda36f"/>
      </g>
      <path id="Trazado_1218432" data-name="Trazado 1218432" d="M103.67,103.637V100.62a3.872,3.872,0,0,1-3.574-1.394.8.8,0,0,0-1.1-.163c-2.127,1.542-8.121,3.927-13.325,1.557v1.723h-.01a36.8,36.8,0,0,0,.252,5.845,9,9,0,0,0,17.754-2.081c0-1.018,0-1.825,0-2.47h0Z" transform="translate(-75.571 -87.309)" fill="#f7cf9c"/>
      <path id="Trazado_1218433" data-name="Trazado 1218433" d="M89.4,121.031a36.8,36.8,0,0,1-.252-5.845h.01v-.792a11.17,11.17,0,0,1-3.488-.932v1.723h-.01a36.814,36.814,0,0,0,.252,5.845,8.931,8.931,0,0,0,10.407,6.748A9.042,9.042,0,0,1,89.4,121.031Z" transform="translate(-75.571 -100.152)" fill="#eab883"/>
      <path id="Trazado_1218434" data-name="Trazado 1218434" d="M260.482,229.265c-31.713,0-29.6-.061-30.035.174a1.445,1.445,0,0,0-.757,1.271v23.1a1.446,1.446,0,0,0,1.446,1.446h29.346a1.446,1.446,0,0,0,1.446-1.446v-23.1A1.639,1.639,0,0,0,260.482,229.265Z" transform="translate(-202.707 -202.362)" fill="#efefef"/>
      <path id="Trazado_1218435" data-name="Trazado 1218435" d="M234.72,253.824v-23.1a1.446,1.446,0,0,1,1.446-1.446c-5.095.058-5.153-.132-5.719.174a1.445,1.445,0,0,0-.757,1.271v23.1a1.446,1.446,0,0,0,1.446,1.446h5.029A1.446,1.446,0,0,1,234.72,253.824Z" transform="translate(-202.707 -202.372)" fill="#ddd"/>
      <path id="Trazado_1218436" data-name="Trazado 1218436" d="M319.778,79.936H300.986a1.412,1.412,0,0,0-1.408,1.408v9.5a1.412,1.412,0,0,0,1.408,1.408h16.541a1.546,1.546,0,0,1,1.04.4l1.371,1.246a.746.746,0,0,0,1.248-.552v-12A1.412,1.412,0,0,0,319.778,79.936Z" transform="translate(-264.395 -70.558)" fill="#ffb70d"/>
      <path id="Trazado_1218437" data-name="Trazado 1218437" d="M303.49,90.845v-9.5a1.412,1.412,0,0,1,1.408-1.408h-3.911a1.412,1.412,0,0,0-1.408,1.408v9.5a1.412,1.412,0,0,0,1.408,1.408H304.9A1.412,1.412,0,0,1,303.49,90.845Z" transform="translate(-264.396 -70.558)" fill="#f4a403"/>
      <circle id="Elipse_13591" data-name="Elipse 13591" cx="1.908" cy="1.908" r="1.908" transform="translate(41.172 31.623)" fill="#ccc"/>
      <path id="Trazado_1218438" data-name="Trazado 1218438" d="M352.525,269.56a1.907,1.907,0,1,0,1.651,2.859A1.906,1.906,0,0,1,352.525,269.56Z" transform="translate(-309.443 -237.936)" fill="#bcbbb8"/>
      <path id="Trazado_1218439" data-name="Trazado 1218439" d="M346.437,356.314V338.425a0,0,0,0,0,0,0h-6.6a0,0,0,0,0,0,0v17.888Z" transform="translate(-299.926 -298.72)" fill="#ddd"/>
      <path id="Trazado_1218440" data-name="Trazado 1218440" d="M343.134,338.425a0,0,0,0,1,0,0h-3.3a0,0,0,0,0,0,0v17.888h3.3Z" transform="translate(-299.926 -298.72)" fill="#ccc"/>
      <path id="Trazado_1218441" data-name="Trazado 1218441" d="M326.486,478.95h0a1.592,1.592,0,0,0-1.592-1.592h-9.261a1.592,1.592,0,0,0-1.592,1.592h0a1.592,1.592,0,0,0,1.592,1.592h9.261A1.592,1.592,0,0,0,326.486,478.95Z" transform="translate(-277.161 -421.356)" fill="#efefef"/>
      <path id="Trazado_1218442" data-name="Trazado 1218442" d="M318.775,478.95h0a1.592,1.592,0,0,1,1.592-1.592h-4.734a1.592,1.592,0,0,0-1.592,1.592h0a1.592,1.592,0,0,0,1.592,1.592h4.734A1.592,1.592,0,0,1,318.775,478.95Z" transform="translate(-277.161 -421.356)" fill="#ddd"/>
      <path id="Trazado_1218443" data-name="Trazado 1218443" d="M343.117,264.836a2.788,2.788,0,1,0,2.788-2.788A2.791,2.791,0,0,0,343.117,264.836Zm3.817,0a1.029,1.029,0,1,1-1.029-1.029A1.03,1.03,0,0,1,346.934,264.836Z" transform="translate(-302.826 -231.306)"/>
      <path id="Trazado_1218444" data-name="Trazado 1218444" d="M254.381,410.5a.88.88,0,0,0,0,1.76h2.708a.88.88,0,0,0,0-1.76Z" transform="translate(-223.724 -362.344)"/>
      <path id="Trazado_1218445" data-name="Trazado 1218445" d="M303.456,410.762a.888.888,0,0,0-.794-.241.875.875,0,0,0-.164.05.9.9,0,0,0-.152.081.857.857,0,0,0-.243.243.905.905,0,0,0-.131.317.876.876,0,0,0,.527.984.878.878,0,0,0,1.148-1.148A1.174,1.174,0,0,0,303.456,410.762Z" transform="translate(-266.493 -362.346)"/>
      <path id="Trazado_1218446" data-name="Trazado 1218446" d="M336.566,105.027a.88.88,0,0,0-1.244,0l-2.171,2.171a.88.88,0,0,0,0,1.244l2.171,2.171a.88.88,0,1,0,1.244-1.244l-1.549-1.549,1.549-1.549A.88.88,0,0,0,336.566,105.027Z" transform="translate(-293.802 -92.478)"/>
      <path id="Trazado_1218447" data-name="Trazado 1218447" d="M414.114,110.871c.63,0,.681-.431,2.793-2.429a.88.88,0,0,0,0-1.244l-2.171-2.171a.88.88,0,0,0-1.244,1.244l1.549,1.549-1.549,1.549A.881.881,0,0,0,414.114,110.871Z" transform="translate(-364.716 -92.478)"/>
      <path id="Trazado_1218448" data-name="Trazado 1218448" d="M373.607,96.952l-2.439,6.7a.88.88,0,1,0,1.653.6l2.439-6.7a.88.88,0,1,0-1.653-.6Z" transform="translate(-327.54 -85.067)"/>
      <path id="Trazado_1218449" data-name="Trazado 1218449" d="M57.773,26.023c-30.582.1-29.485-.246-30.455.281A2.325,2.325,0,0,0,26.1,28.348v1.244l-2.408-1.464v-.619A9.691,9.691,0,0,0,28.96,18.8v-.013a3.9,3.9,0,0,0,1.276-.516.872.872,0,0,0,.09-.053,3.1,3.1,0,0,0,1.434-2.483,2.961,2.961,0,0,0-.949-2.246c.7-3.283.463-5.888-.7-7.745a5.783,5.783,0,0,0-3.683-2.577.494.494,0,0,1-.281-.168C23.664-.094,18.16-.911,13.34,1.1a.88.88,0,0,0,.676,1.624C18.072,1.032,22.8,1.636,24.771,4.1a2.259,2.259,0,0,0,1.278.786,4.035,4.035,0,0,1,2.569,1.794c.857,1.364,1.05,3.348.58,5.905a3.734,3.734,0,0,0-1.34-.127A2.966,2.966,0,0,1,25.2,11.372a1.677,1.677,0,0,0-2.3-.331c-1.957,1.418-7.52,3.631-12.328,1.519a.87.87,0,0,0-.469-.128.574.574,0,0,0-.074,0,4.148,4.148,0,0,0-1.128.17c-.663-2.873-.2-5.789,1.93-7.835h0A.88.88,0,1,0,9.607,3.5C6.852,6.14,6.3,9.939,7.312,13.526c-1.818,1.818-.777,4.71,1.923,5.264a14.118,14.118,0,0,0,.234,2.292,9.766,9.766,0,0,0,2.116,4.148,10.066,10.066,0,0,0,2.839,2.3v.588L10.4,30.493l-3.409.945A5.028,5.028,0,0,0,3.2,35.375c0,.011,0,.022-.006.032L.1,54.642a4.682,4.682,0,0,0,4.621,5.424H33.5A4.579,4.579,0,0,0,36.44,59a2.47,2.47,0,0,0,2.029,1.064h9.261a2.472,2.472,0,0,0,0-4.944h-.342V53.778h3.529a.88.88,0,0,0,0-1.76H47.388V40.464a.88.88,0,0,0-.434-1.645h-7.6a.88.88,0,0,0-.33,1.695v11.5c-11.7,0-10.779.051-11-.166-.24-.24-.166,1.177-.166-23.5a.566.566,0,0,1,.566-.566c31.263.024,29.378-.061,29.615.068a.567.567,0,0,1,.3.5v23.1a.566.566,0,0,1-.3.5c-.219.119-.151.046-3.019.068a.88.88,0,1,0,0,1.76c2.617-.072,3.435.278,4.394-.681a2.31,2.31,0,0,0,.681-1.645v-23.1A2.325,2.325,0,0,0,57.773,26.023ZM23.6,53.415a5.788,5.788,0,0,0-4.529,2.71,5.788,5.788,0,0,0-4.514-2.709,2.549,2.549,0,0,0-.64-.809,6.545,6.545,0,0,0,2-3.765h6.316a6.539,6.539,0,0,0,2,3.771A2.546,2.546,0,0,0,23.6,53.415ZM18.918,36.946,17.494,33.27a6.2,6.2,0,0,0,3.2,0l-1.448,3.678a.158.158,0,0,1-.161.11C18.963,37.061,18.947,37.019,18.918,36.946Zm3.017-8.712V30.11l-.332.844a4.479,4.479,0,0,1-5,0l-.416-1.073V28.268A9.838,9.838,0,0,0,21.935,28.234Zm3.944,3.282-3.8,3.023c1.654-4.207,1.633-4.044,1.611-4.351ZM28.96,16.95V14.357A1.329,1.329,0,0,1,28.96,16.95ZM9.2,14.357c-.012.687-.022,1.62-.013,2.587A1.326,1.326,0,0,1,9.2,14.357Zm3.716,9.727c-2.417-2.816-1.891-5.406-1.956-9.492a15.882,15.882,0,0,0,12.895-2.077,4.6,4.6,0,0,0,3.343,1.7c0,.429-.005,2.031,0,4.58A8.131,8.131,0,0,1,12.92,24.084Zm1.511,6.076c.031.246.123.327,1.655,4.346l-3.8-3.081ZM7,31.436q-.037.013-.073.029A.627.627,0,0,1,7,31.436ZM1.84,54.921,4.932,35.7c.547-2.684,3.062-2.567,5.616-3.426l3,2.432v5.651a.88.88,0,1,0,1.76,0V36.139l2.089,1.695a1.933,1.933,0,0,0,3.371,0l2.092-1.666v4.19a.88.88,0,1,0,1.76,0V34.771L26.1,33.588c.008,19.066-.018,17.845.02,18.152a3.33,3.33,0,0,1-1.649-1.655,6.25,6.25,0,0,1-.6-2.168.88.88,0,0,0-.879-.835H15.142a.882.882,0,0,0-.878.832,6.251,6.251,0,0,1-.6,2.17c-1.3,2.583-3.66,1.785-4.586,1.934l1.682-11.367a.88.88,0,0,0-1.741-.258L7.3,52.019H6.39a.88.88,0,1,0,0,1.76h5.9a.774.774,0,0,1,.773.771v3.757H4.724A2.922,2.922,0,0,1,1.84,54.921Zm12.985,3.385V55.215a4.037,4.037,0,0,1,3.265,3.091Zm8.5-3.094v3.094h-3.28A4.037,4.037,0,0,1,23.323,55.213Zm25.12,2.381a.713.713,0,0,1-.712.712H38.469a.712.712,0,1,1,0-1.425h9.261A.713.713,0,0,1,48.443,57.594Zm-7.66-2.472V40.582h4.846v14.54Zm-1.76,0a5.716,5.716,0,0,0-.945.034c-.026-.37-.062-.476-.2-1.378h1.147Zm-2.929-1.344.2,1.251A2.828,2.828,0,0,1,33.5,58.306h-8.42V54.549a.774.774,0,0,1,.773-.771Z" transform="translate(0 0)"/>
      <path id="Trazado_1218450" data-name="Trazado 1218450" d="M294.346,86.513h16.541c.437,0,.525.308,1.819,1.419a1.626,1.626,0,0,0,2.719-1.2V81.645a.88.88,0,1,0-1.759,0v4.781c-.851-.655-1.411-1.673-2.779-1.673H294.346a.535.535,0,0,1-.528-.528v-9.5a.535.535,0,0,1,.528-.528h18.792a.535.535,0,0,1,.528.528v2.815a.88.88,0,0,0,1.76,0V74.724a2.29,2.29,0,0,0-2.287-2.287H294.346a2.29,2.29,0,0,0-2.287,2.287v9.5A2.29,2.29,0,0,0,294.346,86.513Z" transform="translate(-257.758 -63.939)"/>
    </g>
  </g>
</svg>
