<svg xmlns="http://www.w3.org/2000/svg" xmlns:xlink="http://www.w3.org/1999/xlink" width="400" height="306" viewBox="0 0 400 306">
  <defs>
    <clipPath id="clip-path">
      <rect id="Rectángulo_422642" data-name="Rectángulo 422642" width="400" height="306" transform="translate(180 6900)" fill="#fff" stroke="#707070" stroke-width="1"/>
    </clipPath>
    <linearGradient id="linear-gradient" x1="2.535" y1="0.536" x2="3.537" y2="0.536" gradientUnits="objectBoundingBox">
      <stop offset="0.242" stop-color="#ffd14f"/>
      <stop offset="0.734" stop-color="#ffd14f"/>
    </linearGradient>
    <linearGradient id="linear-gradient-2" x1="0.667" y1="0.5" x2="1.667" y2="0.5" xlink:href="#linear-gradient"/>
  </defs>
  <g id="Grupo_1230070" data-name="Grupo 1230070" transform="translate(-180 -6900)">
    <rect id="Rectángulo_422678" data-name="Rectángulo 422678" width="400" height="142" rx="13" transform="translate(180 7020)" fill="#fceeb5"/>
    <g id="Enmascarar_grupo_1208507" data-name="Enmascarar grupo 1208507" clip-path="url(#clip-path)">
      <g id="_5568483_2888871" data-name="5568483_2888871" transform="translate(71.567 6880.655)">
        <g id="OBJECTS" transform="translate(121.319 34.26)">
          <g id="Grupo_1229967" data-name="Grupo 1229967" transform="translate(90.784 160.192)">
            <g id="Grupo_1229966" data-name="Grupo 1229966">
              <path id="Trazado_1218451" data-name="Trazado 1218451" d="M258.936,368.286a1.311,1.311,0,0,0,1.286-1.041L283.048,256.9a1.313,1.313,0,0,0-2.574-.522L257.649,366.724a1.309,1.309,0,0,0,1.288,1.563Z" transform="translate(-257.622 -255.338)" fill="#68a69d"/>
              <path id="Trazado_1218452" data-name="Trazado 1218452" d="M288.965,271.166H321.9a1.3,1.3,0,1,0,0-2.6H288.965a1.3,1.3,0,1,0,0,2.6Z" transform="translate(-265.892 -258.98)" fill="#95cacc"/>
              <path id="Trazado_1218453" data-name="Trazado 1218453" d="M284.528,290.754h32.936a1.3,1.3,0,1,0,0-2.6H284.528a1.3,1.3,0,1,0,0,2.6Z" transform="translate(-264.67 -264.375)" fill="#95cacc"/>
              <path id="Trazado_1218454" data-name="Trazado 1218454" d="M280.719,310.342h32.936a1.3,1.3,0,1,0,0-2.6H280.719a1.3,1.3,0,1,0,0,2.6Z" transform="translate(-263.621 -269.769)" fill="#95cacc"/>
              <path id="Trazado_1218455" data-name="Trazado 1218455" d="M276.6,329.93h32.937a1.3,1.3,0,1,0,0-2.6H276.6a1.3,1.3,0,1,0,0,2.6Z" transform="translate(-262.487 -275.164)" fill="#95cacc"/>
              <path id="Trazado_1218456" data-name="Trazado 1218456" d="M272.72,349.517h32.936a1.3,1.3,0,1,0,0-2.6H272.72a1.3,1.3,0,1,0,0,2.6Z" transform="translate(-261.418 -280.558)" fill="#95cacc"/>
              <path id="Trazado_1218457" data-name="Trazado 1218457" d="M268.865,369.105H301.8a1.3,1.3,0,1,0,0-2.6H268.865a1.3,1.3,0,1,0,0,2.6Z" transform="translate(-260.356 -285.953)" fill="#95cacc"/>
              <path id="Trazado_1218458" data-name="Trazado 1218458" d="M264.938,388.693h32.936a1.3,1.3,0,1,0,0-2.6H264.938a1.3,1.3,0,1,0,0,2.6Z" transform="translate(-259.275 -291.347)" fill="#95cacc"/>
              <path id="Trazado_1218459" data-name="Trazado 1218459" d="M307.589,368.286a1.311,1.311,0,0,0,1.286-1.041L331.7,256.9a1.313,1.313,0,0,0-2.574-.522L306.3,366.724a1.3,1.3,0,0,0,1.023,1.537A1.322,1.322,0,0,0,307.589,368.286Z" transform="translate(-271.021 -255.338)" fill="#68a69d"/>
            </g>
          </g>
          <g id="Grupo_1229968" data-name="Grupo 1229968" transform="translate(185.676 99.137)">
            <path id="Trazado_1218460" data-name="Trazado 1218460" d="M389.163,171.626c-.086.093-.275.057-.425-.079s-.2-.323-.117-.417.275-.058.425.079S389.249,171.532,389.163,171.626Z" transform="translate(-388.58 -171.078)" fill="#131313"/>
          </g>
          <g id="Grupo_1229970" data-name="Grupo 1229970" transform="translate(185.256 64.981)">
            <g id="Grupo_1229969" data-name="Grupo 1229969">
              <path id="Trazado_1218461" data-name="Trazado 1218461" d="M393.654,130.754l-3.63-1.922a1.76,1.76,0,0,1-.729-.589c-.553-.774-1.6-2.415-.681-2.577,1.21-.213,6.439,2.342,6.439,2.342" transform="translate(-388.069 -124.412)" fill="#ffbe8a"/>
              <path id="Trazado_1218462" data-name="Trazado 1218462" d="M393.571,134.393l-3.63-1.922a1.765,1.765,0,0,1-.729-.589c-.553-.774-1.6-2.415-.681-2.577,1.21-.213,5.719,1.851,5.719,1.851" transform="translate(-388.046 -125.413)" fill="#ffbe8a"/>
              <path id="Trazado_1218463" data-name="Trazado 1218463" d="M393.488,138.032l-3.63-1.922a1.765,1.765,0,0,1-.729-.589c-.553-.774-1.6-2.415-.681-2.577,1.21-.213,5.718,1.851,5.718,1.851" transform="translate(-388.023 -126.416)" fill="#ffbe8a"/>
              <path id="Trazado_1218464" data-name="Trazado 1218464" d="M391.969,134.814s-2.4-1.92-3.6-1.707c-.921.162.128,1.8.681,2.577a1.767,1.767,0,0,0,.73.589l2.031,1.075a2.155,2.155,0,0,0,2.79-.67,11.983,11.983,0,0,0,2.249-6.929,43.4,43.4,0,0,0-.4-5.809l-1.438,2.694C393.983,128.735,391.969,134.814,391.969,134.814Z" transform="translate(-388 -123.94)" fill="#ffbe8a"/>
            </g>
            <path id="Trazado_1218465" data-name="Trazado 1218465" d="M389.957,129.268a.116.116,0,0,1,.071.019l2.674,1.806a.113.113,0,0,1-.126.187l-2.674-1.806a.112.112,0,0,1-.03-.156A.109.109,0,0,1,389.957,129.268Z" transform="translate(-388.51 -125.407)" fill="#0b3332"/>
            <path id="Trazado_1218466" data-name="Trazado 1218466" d="M389.638,133.024a.117.117,0,0,1,.07.019l2.674,1.806a.113.113,0,0,1-.126.187l-2.674-1.806a.113.113,0,0,1,.055-.206Z" transform="translate(-388.422 -126.442)" fill="#0b3332"/>
            <path id="Trazado_1218467" data-name="Trazado 1218467" d="M389.565,136.564a.117.117,0,0,1,.072.017l2.737,1.71a.113.113,0,1,1-.12.191l-2.736-1.71a.113.113,0,0,1-.036-.155A.107.107,0,0,1,389.565,136.564Z" transform="translate(-388.403 -127.417)" fill="#0b3332"/>
          </g>
          <g id="Grupo_1229972" data-name="Grupo 1229972" transform="translate(303.692 81.743)">
            <g id="Grupo_1229971" data-name="Grupo 1229971" transform="translate(0)">
              <path id="Trazado_1218468" data-name="Trazado 1218468" d="M610.063,187.021a12.588,12.588,0,1,0-4.317-24.617,20.056,20.056,0,0,0-38.927-.225A12.585,12.585,0,1,0,563.051,187Z" transform="translate(-551.452 -147.072)" fill="#cdeced"/>
            </g>
            <path id="Trazado_1218469" data-name="Trazado 1218469" d="M604.979,168.847l-7.822-7.822a.341.341,0,0,0-.481,0l-7.822,7.822a1.283,1.283,0,0,0,.209,1.98,1.3,1.3,0,0,0,1.625-.2l4.948-4.948v15.508a1.3,1.3,0,0,0,1.011,1.289,1.282,1.282,0,0,0,1.548-1.252V165.683l4.974,4.974a1.279,1.279,0,1,0,1.809-1.809Z" transform="translate(-561.65 -150.887)" fill="#fff"/>
          </g>
          <g id="Grupo_1229974" data-name="Grupo 1229974" transform="translate(13.356 50.41)">
            <g id="Grupo_1229973" data-name="Grupo 1229973">
              <path id="Trazado_1218470" data-name="Trazado 1218470" d="M207.3,121.419l-3.293.7a25.893,25.893,0,0,0-8.955-10.127l1.073-3.289a1.1,1.1,0,0,0-.7-1.386l-10.505-3.428a1.1,1.1,0,0,0-1.386.7l-1.046,3.2a25.822,25.822,0,0,0-13.244,2.69l-2.314-2.577a1.1,1.1,0,0,0-1.552-.083l-8.221,7.384a1.1,1.1,0,0,0-.083,1.552l2.244,2.5a25.812,25.812,0,0,0-4.282,12.822l-3.391.716a1.1,1.1,0,0,0-.849,1.3l2.284,10.812a1.1,1.1,0,0,0,1.3.848l3.293-.7a25.893,25.893,0,0,0,8.955,10.128l-1.073,3.289a1.1,1.1,0,0,0,.7,1.386l10.505,3.428a1.1,1.1,0,0,0,1.386-.7l1.046-3.2a25.819,25.819,0,0,0,13.243-2.69l2.314,2.577a1.1,1.1,0,0,0,1.552.083l8.221-7.384a1.1,1.1,0,0,0,.083-1.552l-2.245-2.5a25.81,25.81,0,0,0,4.282-12.822l3.391-.717a1.1,1.1,0,0,0,.848-1.3L208.6,122.268A1.1,1.1,0,0,0,207.3,121.419ZM191.81,145.807a16.422,16.422,0,1,1,1.245-23.191A16.422,16.422,0,0,1,191.81,145.807Z" transform="translate(-150.764 -103.83)" fill="#cdeced"/>
            </g>
          </g>
          <g id="Grupo_1229987" data-name="Grupo 1229987" transform="translate(60.356 51.762)">
            <path id="Trazado_1218477" data-name="Trazado 1218477" d="M396.324,368.42V334.833H366.439V368.42c0,2.966-2.823,5.37-6.3,5.37h0c-3.482,0-6.3,2.4-6.3,5.37v11.2h57.012v-11.2c0-2.966-2.823-5.37-6.3-5.37h-1.909C399.146,373.791,396.324,371.387,396.324,368.42Z" transform="translate(-253.69 -168.801)" fill="#adadad"/>
            <g id="Grupo_1229979" data-name="Grupo 1229979" transform="translate(112.749 166.032)">
              <rect id="Rectángulo_422643" data-name="Rectángulo 422643" width="29.884" height="9.763" fill="#6d6d6d"/>
            </g>
            <g id="Grupo_1229986" data-name="Grupo 1229986">
              <g id="Grupo_1229980" data-name="Grupo 1229980">
                <path id="Trazado_1218478" data-name="Trazado 1218478" d="M461.376,271.728H219.64a4.011,4.011,0,0,1-4.011-4.011V109.707a4.011,4.011,0,0,1,4.011-4.011H461.375a4.011,4.011,0,0,1,4.011,4.011V267.716A4.01,4.01,0,0,1,461.376,271.728Z" transform="translate(-215.629 -105.696)" fill="#adadad"/>
              </g>
              <rect id="Rectángulo_422644" data-name="Rectángulo 422644" width="224.214" height="130.555" transform="translate(12.896 12.762)" fill="#fff"/>
              <g id="Grupo_1229981" data-name="Grupo 1229981" transform="translate(12.596 12.771)">
                <rect id="Rectángulo_422645" data-name="Rectángulo 422645" width="224.514" height="12.375" fill="#6d6d6d"/>
              </g>
              <g id="Grupo_1229985" data-name="Grupo 1229985" transform="translate(216.263 17.048)">
                <g id="Grupo_1229982" data-name="Grupo 1229982">
                  <path id="Trazado_1218479" data-name="Trazado 1218479" d="M517.91,131.134a1.91,1.91,0,1,1-1.91-1.91A1.91,1.91,0,0,1,517.91,131.134Z" transform="translate(-514.09 -129.224)" fill="#adadad"/>
                </g>
                <g id="Grupo_1229983" data-name="Grupo 1229983" transform="translate(6.446)">
                  <path id="Trazado_1218480" data-name="Trazado 1218480" d="M526.806,131.134a1.91,1.91,0,1,1-1.91-1.91A1.91,1.91,0,0,1,526.806,131.134Z" transform="translate(-522.986 -129.224)" fill="#adadad"/>
                </g>
                <g id="Grupo_1229984" data-name="Grupo 1229984" transform="translate(12.893)">
                  <path id="Trazado_1218481" data-name="Trazado 1218481" d="M535.7,131.134a1.91,1.91,0,1,1-1.91-1.91A1.91,1.91,0,0,1,535.7,131.134Z" transform="translate(-531.883 -129.224)" fill="#adadad"/>
                </g>
              </g>
            </g>
            <rect id="Rectángulo_422646" data-name="Rectángulo 422646" width="55.392" height="50.17" transform="translate(33.036 83.015)" fill="none" stroke="#67dbcb" stroke-miterlimit="10" stroke-width="1" stroke-dasharray="3"/>
          </g>
          <g id="Grupo_1229990" data-name="Grupo 1229990" transform="translate(166.423 134.777)">
            <g id="Grupo_1229988" data-name="Grupo 1229988">
              <rect id="Rectángulo_422647" data-name="Rectángulo 422647" width="55.392" height="50.17" fill="#67dbcb"/>
            </g>
            <g id="Grupo_1229989" data-name="Grupo 1229989" transform="translate(8.713 8.469)">
              <line id="Línea_2508" data-name="Línea 2508" x2="16.819" fill="none" stroke="#fff" stroke-linecap="round" stroke-miterlimit="10" stroke-width="3"/>
              <line id="Línea_2509" data-name="Línea 2509" x2="30.972" transform="translate(0 5.674)" fill="none" stroke="#fff" stroke-linecap="round" stroke-miterlimit="10" stroke-width="1"/>
              <line id="Línea_2510" data-name="Línea 2510" x2="30.972" transform="translate(0 11.346)" fill="none" stroke="#fff" stroke-linecap="round" stroke-miterlimit="10" stroke-width="1"/>
              <line id="Línea_2511" data-name="Línea 2511" x2="36.8" transform="translate(0 17.02)" fill="none" stroke="#fff" stroke-linecap="round" stroke-miterlimit="10" stroke-width="1"/>
              <line id="Línea_2512" data-name="Línea 2512" x2="33.636" transform="translate(0 22.694)" fill="none" stroke="#fff" stroke-linecap="round" stroke-miterlimit="10" stroke-width="1"/>
              <line id="Línea_2513" data-name="Línea 2513" x2="30.972" transform="translate(0 28.367)" fill="none" stroke="#fff" stroke-linecap="round" stroke-miterlimit="10" stroke-width="1"/>
              <line id="Línea_2514" data-name="Línea 2514" x2="30.972" transform="translate(0 34.041)" fill="none" stroke="#fff" stroke-linecap="round" stroke-miterlimit="10" stroke-width="1"/>
            </g>
          </g>
          <rect id="Rectángulo_422648" data-name="Rectángulo 422648" width="55.392" height="50.17" transform="translate(229.923 134.777)" fill="#e356af"/>
          <g id="Grupo_1229991" data-name="Grupo 1229991" transform="translate(233.475 146.497)">
            <path id="Trazado_1218482" data-name="Trazado 1218482" d="M454.547,272.363h31.092l-15.546-26.446Z" transform="translate(-454.547 -239.049)" fill="#fff"/>
            <path id="Trazado_1218483" data-name="Trazado 1218483" d="M477.98,275.389h31.092L493.526,256.9Z" transform="translate(-461.001 -242.074)" fill="#fff"/>
            <path id="Trazado_1218484" data-name="Trazado 1218484" d="M506.323,240.871a4.433,4.433,0,1,1-4.433-4.433A4.433,4.433,0,0,1,506.323,240.871Z" transform="translate(-466.365 -236.438)" fill="#fff"/>
          </g>
          <line id="Línea_2515" data-name="Línea 2515" x1="7.102" y2="4.703" transform="translate(150.97 175.911)" fill="none" stroke="#3e0091" stroke-linecap="round" stroke-miterlimit="10" stroke-width="0.5"/>
          <g id="Grupo_1230002" data-name="Grupo 1230002" transform="translate(226.58 -12.609)">
            <g id="Grupo_1230001" data-name="Grupo 1230001" transform="translate(89.562)">
              <g id="Grupo_1229992" data-name="Grupo 1229992" transform="translate(0 4.252)">
                <path id="Trazado_1218485" data-name="Trazado 1218485" d="M586.629,43.747s-8.335-5.237-17.5-2.053a.772.772,0,0,0,.072,1.462c2.771.819,7.536,2.669,10.883,6.347Z" transform="translate(-568.634 -40.667)" fill="#82cfc4"/>
              </g>
              <g id="Grupo_1229993" data-name="Grupo 1229993" transform="translate(14.855 19.944)">
                <path id="Trazado_1218486" data-name="Trazado 1218486" d="M598.822,62.324s-.544,9.771-8.483,15.321a.778.778,0,0,1-1.159-.908c.938-2.712,2.188-7.634,1.114-12.473Z" transform="translate(-589.136 -62.324)" fill="#82cfc4"/>
              </g>
              <g id="Grupo_1229994" data-name="Grupo 1229994" transform="translate(5.795)">
                <path id="Trazado_1218487" data-name="Trazado 1218487" d="M617.253,35.6a41.148,41.148,0,0,0-40.621,15.236l2.259,4.352,2.259,4.352C608.519,58.159,617.253,35.6,617.253,35.6Z" transform="translate(-576.632 -34.8)" fill="#cdeced"/>
              </g>
              <g id="Grupo_1229995" data-name="Grupo 1229995" transform="translate(37.027 0.002)">
                <path id="Trazado_1218488" data-name="Trazado 1218488" d="M619.734,34.829a16.461,16.461,0,0,0,4.565,8.794,35.717,35.717,0,0,0,4.824-8.026A36.384,36.384,0,0,0,619.734,34.829Z" transform="translate(-619.734 -34.802)" fill="#82cfc4"/>
              </g>
              <g id="Grupo_1229996" data-name="Grupo 1229996" transform="translate(4.276 16.033)">
                <path id="Trazado_1218489" data-name="Trazado 1218489" d="M576.055,56.926l4.519,8.7-1.519.775-4.518-8.7Z" transform="translate(-574.536 -56.926)" fill="#82cfc4"/>
              </g>
              <g id="Grupo_1229997" data-name="Grupo 1229997" transform="translate(25.64 5.104)">
                <path id="Trazado_1218490" data-name="Trazado 1218490" d="M610.161,49.8a4.211,4.211,0,1,1,1.814-5.672A4.211,4.211,0,0,1,610.161,49.8Z" transform="translate(-604.02 -41.843)" fill="#82cfc4"/>
              </g>
              <g id="Grupo_1229998" data-name="Grupo 1229998" transform="translate(26.639 6.103)">
                <path id="Trazado_1218491" data-name="Trazado 1218491" d="M610.083,49.289a3.212,3.212,0,1,1,1.383-4.326A3.212,3.212,0,0,1,610.083,49.289Z" transform="translate(-605.399 -43.222)" fill="#fff"/>
              </g>
              <g id="Grupo_1229999" data-name="Grupo 1229999" transform="translate(17.545 10.698)">
                <path id="Trazado_1218492" data-name="Trazado 1218492" d="M597.759,55.926a3.368,3.368,0,1,1,1.451-4.537A3.368,3.368,0,0,1,597.759,55.926Z" transform="translate(-592.847 -49.564)" fill="#82cfc4"/>
              </g>
              <g id="Grupo_1230000" data-name="Grupo 1230000" transform="translate(18.56 11.712)">
                <path id="Trazado_1218493" data-name="Trazado 1218493" d="M597.68,55.409a2.353,2.353,0,1,1,1.014-3.17A2.354,2.354,0,0,1,597.68,55.409Z" transform="translate(-594.248 -50.963)" fill="#fff"/>
              </g>
            </g>
            <path id="Trazado_1218494" data-name="Trazado 1218494" d="M445.031,80.586c14.518-20.013,25.857-24,33.787-23.591,10.5.543,15.2,8.8,29.482,11.521,11.838,2.253,22.475-.784,29.786-3.831" transform="translate(-445.031 -40.905)" fill="none" stroke="#82cfc4" stroke-miterlimit="10" stroke-width="1" stroke-dasharray="3"/>
          </g>
          <g id="Grupo_1230019" data-name="Grupo 1230019" transform="translate(41.648 82.302)">
            <g id="Grupo_1230003" data-name="Grupo 1230003" transform="translate(0 187.709)">
              <path id="Trazado_1218495" data-name="Trazado 1218495" d="M201.853,408.927l14.725,9.3a1.781,1.781,0,0,1-1.093,3.282l-24.661-1.847c-1.863-.209,1.622-12.767,1.622-12.767l.875,1.163a5.84,5.84,0,0,0,8.533.867Z" transform="translate(-189.938 -406.897)" fill="url(#linear-gradient)"/>
              <path id="Trazado_1218496" data-name="Trazado 1218496" d="M218.552,424.8l-.143,1.975a.814.814,0,0,1-.87.753l-26.973-1.959a.814.814,0,0,1-.753-.87l.143-1.974a.814.814,0,0,1,.87-.753l26.973,1.959A.812.812,0,0,1,218.552,424.8Z" transform="translate(-189.81 -411.049)" fill="#0b3327"/>
              <path id="Trazado_1218497" data-name="Trazado 1218497" d="M206.705,415.4a.768.768,0,0,1-.546-1.25l1.815-2.238a.768.768,0,0,1,1.193.967l-1.815,2.238A.767.767,0,0,1,206.705,415.4Z" transform="translate(-194.265 -408.201)" fill="#0b3327"/>
              <path id="Trazado_1218498" data-name="Trazado 1218498" d="M210.06,417.686a.768.768,0,0,1-.546-1.25l1.815-2.238a.768.768,0,0,1,1.193.967l-1.815,2.238A.767.767,0,0,1,210.06,417.686Z" transform="translate(-195.189 -408.829)" fill="#0b3327"/>
              <path id="Trazado_1218499" data-name="Trazado 1218499" d="M213.68,420.035a.769.769,0,0,1-.546-1.25l1.816-2.239a.768.768,0,0,1,1.193.967l-1.815,2.239A.772.772,0,0,1,213.68,420.035Z" transform="translate(-196.186 -409.476)" fill="#0b3327"/>
            </g>
            <g id="Grupo_1230004" data-name="Grupo 1230004" transform="translate(25.396 192.393)">
              <path id="Trazado_1218500" data-name="Trazado 1218500" d="M236.053,414.778l15.3,8.331a1.781,1.781,0,0,1-.879,3.346l-24.729-.248c-1.873-.087.792-12.846.792-12.846l.948,1.1a5.84,5.84,0,0,0,8.572.314Z" transform="translate(-224.918 -413.361)" fill="url(#linear-gradient-2)"/>
              <path id="Trazado_1218501" data-name="Trazado 1218501" d="M253.545,429.571l-.015,1.98a.813.813,0,0,1-.82.807l-27.043-.21a.814.814,0,0,1-.807-.82l.015-1.98a.814.814,0,0,1,.82-.807l27.043.21A.814.814,0,0,1,253.545,429.571Z" transform="translate(-224.859 -417.542)" fill="#0b3327"/>
              <path id="Trazado_1218502" data-name="Trazado 1218502" d="M241.12,420.918a.755.755,0,0,1-.443-.142.768.768,0,0,1-.183-1.07l1.667-2.351a.768.768,0,0,1,1.253.888l-1.667,2.351A.768.768,0,0,1,241.12,420.918Z" transform="translate(-229.126 -414.371)" fill="#0b3327"/>
              <path id="Trazado_1218503" data-name="Trazado 1218503" d="M244.616,422.977a.759.759,0,0,1-.443-.141.767.767,0,0,1-.183-1.07l1.667-2.351a.768.768,0,0,1,1.253.888l-1.667,2.351A.768.768,0,0,1,244.616,422.977Z" transform="translate(-230.089 -414.939)" fill="#0b3327"/>
              <path id="Trazado_1218504" data-name="Trazado 1218504" d="M248.38,425.087a.756.756,0,0,1-.443-.142.768.768,0,0,1-.183-1.07l1.667-2.352a.768.768,0,0,1,1.253.888l-1.667,2.352A.769.769,0,0,1,248.38,425.087Z" transform="translate(-231.126 -415.519)" fill="#0b3327"/>
            </g>
            <g id="Grupo_1230018" data-name="Grupo 1230018" transform="translate(1.286 0)">
              <g id="Grupo_1230017" data-name="Grupo 1230017" transform="translate(0 0)">
                <g id="Grupo_1230007" data-name="Grupo 1230007" transform="translate(11.095 12.605)">
                  <path id="Trazado_1218505" data-name="Trazado 1218505" d="M232.2,196.858l18.353-19.334,6.256,4.042-16.737,22.77Z" transform="translate(-213.866 -168.623)" fill="#d68351"/>
                  <g id="Grupo_1230005" data-name="Grupo 1230005" transform="translate(0 28.235)">
                    <path id="Trazado_1218506" data-name="Trazado 1218506" d="M233.1,211.685l-7.871-7.479L206.9,220.9l10.3,8.322Z" transform="translate(-206.897 -204.206)" fill="#ffd14f"/>
                  </g>
                  <g id="Grupo_1230006" data-name="Grupo 1230006" transform="translate(35.753)">
                    <path id="Trazado_1218507" data-name="Trazado 1218507" d="M261.455,181.03l6.992-5.714a1.693,1.693,0,0,0,.436-.652l2.648-7.145a1.692,1.692,0,0,0-.567-1.938h0a1.691,1.691,0,0,0-2.1.046l-4.963,4.1-7.275,5.442Z" transform="translate(-256.346 -165.24)" fill="#d68351"/>
                    <path id="Trazado_1218508" data-name="Trazado 1218508" d="M256.239,176.941l3.295-6.624a.469.469,0,0,1,.836-.014c.333.659.6,1.909-.01,4.122C259.3,178.224,256.239,176.941,256.239,176.941Z" transform="translate(-256.239 -166.565)" fill="#d68351"/>
                  </g>
                  <path id="Trazado_1218509" data-name="Trazado 1218509" d="M265.279,179.253a.1.1,0,0,1-.033.037.1.1,0,0,1-.143-.025c-1.3-1.856-2.769-1.135-2.832-1.1a.1.1,0,0,1-.138-.044.1.1,0,0,1,.044-.138c.016-.009,1.686-.84,3.094,1.168A.1.1,0,0,1,265.279,179.253Z" transform="translate(-222.106 -168.699)" fill="#0b3327"/>
                  <path id="Trazado_1218510" data-name="Trazado 1218510" d="M264.226,177.312a2.16,2.16,0,0,1-.116.2.1.1,0,0,1-.142.028.094.094,0,0,1-.029-.142,1.779,1.779,0,0,0,.275-1.3.1.1,0,0,1,.076-.124.1.1,0,0,1,.123.075A1.971,1.971,0,0,1,264.226,177.312Z" transform="translate(-222.601 -168.193)" fill="#0b3327"/>
                  <path id="Trazado_1218511" data-name="Trazado 1218511" d="M275.027,168.664a.107.107,0,0,1,.079.179l-3.844,4.116a.106.106,0,1,1-.155-.145l3.844-4.116A.107.107,0,0,1,275.027,168.664Z" transform="translate(-224.573 -166.183)" fill="#0b3327"/>
                  <path id="Trazado_1218512" data-name="Trazado 1218512" d="M271.489,169.949a.1.1,0,0,1-.049-.172l3.274-3.45a.1.1,0,1,1,.151.143l-3.274,3.45A.1.1,0,0,1,271.489,169.949Z" transform="translate(-224.665 -165.53)" fill="#0b3327"/>
                  <path id="Trazado_1218513" data-name="Trazado 1218513" d="M270.849,176.365a.1.1,0,0,1-.05-.171l2.671-2.921a.1.1,0,0,1,.154.141l-2.671,2.921A.105.105,0,0,1,270.849,176.365Z" transform="translate(-224.488 -167.443)" fill="#0b3327"/>
                </g>
                <g id="Grupo_1230010" data-name="Grupo 1230010" transform="translate(0 84.35)">
                  <g id="Grupo_1230008" data-name="Grupo 1230008" transform="translate(0 11.517)">
                    <path id="Trazado_1218514" data-name="Trazado 1218514" d="M212.413,280.147l-17.318,14.306s-2.08,12.605-.149,18.665c3.53,11.08,4.113,33.078-3.361,61.644l12.409,4.163c2.7-7.913,11.537-29.783,13.5-44.952C219.642,317.4,212.413,280.147,212.413,280.147Z" transform="translate(-191.585 -280.147)" fill="#3e0091"/>
                  </g>
                  <g id="Grupo_1230009" data-name="Grupo 1230009" transform="translate(11.095)">
                    <path id="Trazado_1218515" data-name="Trazado 1218515" d="M235.237,284.774l-19.412-20.521s-17.021,30.967-4.058,42.23c11.91,10.349,8.605,43.908,8.449,69.372h12.878c1.911-8.14,6.776-40.628,6.458-46.347C238.424,309.207,235.237,284.774,235.237,284.774Z" transform="translate(-206.897 -264.253)" fill="#3e0091"/>
                  </g>
                </g>
                <path id="Trazado_1218516" data-name="Trazado 1218516" d="M210.357,201.984l-2.315,14.382c-.171,1.444,4.011,5.64,7.677,7.1a3.382,3.382,0,0,0,4.6-3.012l.78-15.511Z" transform="translate(-196.116 -162.754)" fill="#d68351"/>
                <path id="Trazado_1218517" data-name="Trazado 1218517" d="M223.021,208.72l.2-4.675-7.39-5.3-.063,1.878S216.324,203.874,223.021,208.72Z" transform="translate(-198.245 -161.862)" fill="#b56f45"/>
                <path id="Trazado_1218518" data-name="Trazado 1218518" d="M211,201.141l13.033.748a5.4,5.4,0,0,0,4.993-1.469,5.339,5.339,0,0,0,1.443-3.791l-.857-12.073-19.25,2.838Z" transform="translate(-196.756 -157.954)" fill="#d68351"/>
                <path id="Trazado_1218519" data-name="Trazado 1218519" d="M231.143,178.266c-1.434,8.418-8.068,2.346-8.656,5.967-1.981,12.2-12.269,10.354-12.269,10.354s-6.12-18.245,2.174-18.55S233.263,165.823,231.143,178.266Z" transform="translate(-196.118 -154.499)" fill="#0b3327"/>
                <path id="Trazado_1218520" data-name="Trazado 1218520" d="M219.639,195.038a3.5,3.5,0,1,0,2.4-4.327A3.5,3.5,0,0,0,219.639,195.038Z" transform="translate(-199.274 -159.612)" fill="#d68351"/>
                <path id="Trazado_1218521" data-name="Trazado 1218521" d="M236.31,186.985l2.727,4.59c.406.683-.165,1.412-1.066,1.358l-1.851-.11Z" transform="translate(-203.85 -158.623)" fill="#d68351"/>
                <path id="Trazado_1218522" data-name="Trazado 1218522" d="M234.889,191.371a.507.507,0,1,0,.6-.386A.507.507,0,0,0,234.889,191.371Z" transform="translate(-203.508 -159.721)" fill="#0b3327"/>
                <path id="Trazado_1218523" data-name="Trazado 1218523" d="M232.563,189.726a.346.346,0,0,0,.209-.018l1.988-.815a.351.351,0,1,0-.267-.649l-1.988.815a.351.351,0,0,0-.191.457A.347.347,0,0,0,232.563,189.726Z" transform="translate(-202.795 -158.963)" fill="#0b3327"/>
                <path id="Trazado_1218524" data-name="Trazado 1218524" d="M233,198.65a4.358,4.358,0,0,1-1.81-1.241.117.117,0,0,1,.007-.164.115.115,0,0,1,.164.007c2,2.177,3.9,1.073,3.977,1.026a.116.116,0,0,1,.12.2A3.127,3.127,0,0,1,233,198.65Z" transform="translate(-202.484 -161.44)" fill="#0b3327"/>
                <path id="Trazado_1218525" data-name="Trazado 1218525" d="M216.754,214.708l-11.33-.882c-11.955,0-11.959,7.605-12.989,17.142l1.206,29.806-.166,16.448,1.818.414c11.254,2.56,19.355,2.228,27.222-.075a40.854,40.854,0,0,0,10.244-4.238s-2.765-21.314-1.685-41.454c.057-1.054-2.179-8.418-5.542-13.578C225.032,217.524,222.937,215.458,216.754,214.708Z" transform="translate(-191.819 -166.015)" fill="#ffd14f"/>
                <path id="Trazado_1218526" data-name="Trazado 1218526" d="M224.023,194.476a.081.081,0,0,0-.048-.023c-.024-.009-.045-.026-.07-.033a1.977,1.977,0,0,0-1.6.49.089.089,0,0,0,.118.134,2.01,2.01,0,0,1,1.249-.478,1.064,1.064,0,0,0-.591,1.149.089.089,0,0,0,.1.067l.011,0a.089.089,0,0,0,.065-.108.9.9,0,0,1,.693-1.035,1.676,1.676,0,0,1,.847,1.164.09.09,0,0,0,.1.063l.016,0a.09.09,0,0,0,.059-.112A1.839,1.839,0,0,0,224.023,194.476Z" transform="translate(-200.038 -160.659)" fill="#0b3327"/>
                <path id="Trazado_1218527" data-name="Trazado 1218527" d="M221.092,349.358s-.741-9.352-1.689-12.761-3.235-6.192-7.61-11.038a13.791,13.791,0,0,1-3.2-10.994" transform="translate(-196.229 -193.759)" fill="none" stroke="#ffd14f" stroke-linecap="round" stroke-miterlimit="10" stroke-width="0.5"/>
                <g id="Grupo_1230012" data-name="Grupo 1230012" transform="translate(46.488)">
                  <rect id="Rectángulo_422649" data-name="Rectángulo 422649" width="55.392" height="50.17" transform="matrix(0.984, 0.176, -0.176, 0.984, 8.81, 0)" fill="#ffd14f"/>
                  <g id="Grupo_1230011" data-name="Grupo 1230011" transform="translate(9.919 9.859)">
                    <line id="Línea_2516" data-name="Línea 2516" x2="13.739" y2="2.451" transform="translate(5.976)" fill="none" stroke="#fff" stroke-linecap="round" stroke-miterlimit="10" stroke-width="3"/>
                    <line id="Línea_2517" data-name="Línea 2517" x2="30.491" y2="5.438" transform="translate(4.981 5.586)" fill="none" stroke="#fff" stroke-linecap="round" stroke-miterlimit="10" stroke-width="1"/>
                    <line id="Línea_2518" data-name="Línea 2518" x2="30.491" y2="5.438" transform="translate(3.985 11.171)" fill="none" stroke="#fff" stroke-linecap="round" stroke-miterlimit="10" stroke-width="1"/>
                    <line id="Línea_2519" data-name="Línea 2519" x2="36.228" y2="6.462" transform="translate(2.988 16.756)" fill="none" stroke="#fff" stroke-linecap="round" stroke-miterlimit="10" stroke-width="1"/>
                    <line id="Línea_2520" data-name="Línea 2520" x2="33.114" y2="5.905" transform="translate(1.992 22.342)" fill="none" stroke="#fff" stroke-linecap="round" stroke-miterlimit="10" stroke-width="1"/>
                    <line id="Línea_2521" data-name="Línea 2521" x2="30.491" y2="5.438" transform="translate(0.996 27.927)" fill="none" stroke="#fff" stroke-linecap="round" stroke-miterlimit="10" stroke-width="1"/>
                    <line id="Línea_2522" data-name="Línea 2522" x2="30.491" y2="5.438" transform="translate(0 33.513)" fill="none" stroke="#fff" stroke-linecap="round" stroke-miterlimit="10" stroke-width="1"/>
                  </g>
                </g>
                <g id="Grupo_1230016" data-name="Grupo 1230016" transform="translate(12.912 23.088)">
                  <path id="Trazado_1218528" data-name="Trazado 1218528" d="M254.245,210.93,270.074,192l6.169,4.175L263,219.642Z" transform="translate(-221.753 -183.094)" fill="#d68351"/>
                  <g id="Grupo_1230013" data-name="Grupo 1230013" transform="translate(0 27.837)">
                    <path id="Trazado_1218529" data-name="Trazado 1218529" d="M248.28,231.83l11.977-5-8.759-8.711-7.228,1.587" transform="translate(-219.006 -218.124)" fill="#d68351"/>
                    <path id="Trazado_1218530" data-name="Trazado 1218530" d="M234.668,220.314,209.4,225.861l14.9,12.57,14.376-6" transform="translate(-209.404 -218.727)" fill="#ffd14f"/>
                  </g>
                  <g id="Grupo_1230015" data-name="Grupo 1230015" transform="translate(44.487)">
                    <g id="Grupo_1230014" data-name="Grupo 1230014" transform="translate(1.322)">
                      <path id="Trazado_1218531" data-name="Trazado 1218531" d="M286.2,189.471l2.4-6.265a1.147,1.147,0,0,1,.392-.465c.51-.348,2.094-.978,2.186-.378.121.788-2.887,7.594-2.887,7.594" transform="translate(-276.361 -180.37)" fill="#d68351"/>
                      <path id="Trazado_1218532" data-name="Trazado 1218532" d="M275.138,188.436l1.846-1.1a3.222,3.222,0,0,0,.855-.744l3.043-4.3a2.1,2.1,0,0,1,1.841-.92.775.775,0,0,1,.738.435c.308.824-2.673,6.288-2.673,6.288l3.357-7.212a.932.932,0,0,1,.312-.37c.533-.372,1.9-1.246,2.008-.524.138.9-3.293,8.66-3.293,8.66" transform="translate(-273.316 -179.707)" fill="#d68351"/>
                      <path id="Trazado_1218533" data-name="Trazado 1218533" d="M287.627,185.025a3.22,3.22,0,0,0-1.144.94l-1.974,4.042-4.6-.82-5.46.7-1.822,3.293s2.065,5.053,9.508,2.522a2.876,2.876,0,0,0,1.307-.918l2.9-3.6a1.194,1.194,0,0,0,.112-.25c.28-.874,2.12-5.319,2.065-5.677C288.488,185.053,287.926,184.922,287.627,185.025Z" transform="translate(-272.623 -181.162)" fill="#d68351"/>
                    </g>
                    <path id="Trazado_1218534" data-name="Trazado 1218534" d="M276.463,188.392l-1.58,1.028a.786.786,0,0,1-1.046-.147,12.048,12.048,0,0,1-.683-1.295l-.893-2.184a.42.42,0,0,0-.689-.136,4.21,4.21,0,0,0-.646,3.432l1.1,5.071Z" transform="translate(-270.799 -181.311)" fill="#d68351"/>
                  </g>
                  <path id="Trazado_1218535" data-name="Trazado 1218535" d="M282.974,189.3a.11.11,0,0,1-.084,0,.113.113,0,0,1-.057-.15l2.559-5.64a.113.113,0,0,1,.207.093l-2.559,5.64A.115.115,0,0,1,282.974,189.3Z" transform="translate(-229.624 -180.736)" fill="#0b3327"/>
                  <path id="Trazado_1218536" data-name="Trazado 1218536" d="M285.935,189.651a.113.113,0,0,1-.141-.154l2.919-6.434a.113.113,0,0,1,.207.093L286,189.591A.113.113,0,0,1,285.935,189.651Z" transform="translate(-230.439 -180.613)" fill="#0b3327"/>
                  <path id="Trazado_1218537" data-name="Trazado 1218537" d="M288.963,190.937a.115.115,0,0,1-.085,0,.113.113,0,0,1-.057-.15l2.185-4.816a.113.113,0,1,1,.207.093l-2.185,4.816A.115.115,0,0,1,288.963,190.937Z" transform="translate(-231.273 -181.413)" fill="#0b3327"/>
                </g>
                <line id="Línea_2523" data-name="Línea 2523" x1="15.062" y2="6.863" transform="translate(22.11 66.669)" fill="none" stroke="#3e0091" stroke-linecap="round" stroke-miterlimit="10" stroke-width="0.5"/>
                <line id="Línea_2524" data-name="Línea 2524" x1="18.458" y2="4.053" transform="translate(12.782 54.006)" fill="none" stroke="#3e0091" stroke-linecap="round" stroke-miterlimit="10" stroke-width="0.5"/>
                <path id="Trazado_1218538" data-name="Trazado 1218538" d="M225.818,215.043c1.071.149,4.551-.078,7.247,2.233" transform="translate(-201.013 -166.35)" fill="none" stroke="#3e0091" stroke-linecap="round" stroke-miterlimit="10" stroke-width="0.5"/>
              </g>
            </g>
          </g>
          <g id="Grupo_1230037" data-name="Grupo 1230037" transform="translate(231.878 223.878)">
            <g id="Grupo_1230034" data-name="Grupo 1230034">
              <rect id="Rectángulo_422650" data-name="Rectángulo 422650" width="50.52" height="60.085" fill="#8c37ff"/>
              <g id="Grupo_1230021" data-name="Grupo 1230021" transform="translate(8.059 3.724)">
                <rect id="Rectángulo_422651" data-name="Rectángulo 422651" width="34.401" height="11.178" fill="#fff"/>
                <g id="Grupo_1230020" data-name="Grupo 1230020" transform="translate(4.444 4.374)">
                  <circle id="Elipse_13592" data-name="Elipse 13592" cx="1.272" cy="1.272" r="1.272" transform="translate(0 0.001)" fill="#ffd14f"/>
                  <circle id="Elipse_13593" data-name="Elipse 13593" cx="1.272" cy="1.272" r="1.272" transform="translate(5.734 0.001)" fill="#ffd14f"/>
                  <circle id="Elipse_13594" data-name="Elipse 13594" cx="1.272" cy="1.272" r="1.272" transform="translate(11.467)" fill="#ffd14f"/>
                  <rect id="Rectángulo_422652" data-name="Rectángulo 422652" width="2.544" height="2.544" transform="translate(17.887)" fill="#7ddb68"/>
                  <rect id="Rectángulo_422653" data-name="Rectángulo 422653" width="2.544" height="2.544" transform="translate(22.97)" fill="#7ddb68"/>
                </g>
              </g>
              <g id="Grupo_1230023" data-name="Grupo 1230023" transform="translate(8.059 44.815)">
                <rect id="Rectángulo_422654" data-name="Rectángulo 422654" width="16.514" height="11.178" fill="#fff"/>
                <g id="Grupo_1230022" data-name="Grupo 1230022" transform="translate(4.118 4.628)">
                  <path id="Trazado_1218539" data-name="Trazado 1218539" d="M471.693,412.737a1.272,1.272,0,1,1-1.272-1.272A1.272,1.272,0,0,1,471.693,412.737Z" transform="translate(-469.148 -411.465)" fill="#ffd14f"/>
                  <circle id="Elipse_13595" data-name="Elipse 13595" cx="1.272" cy="1.272" r="1.272" transform="translate(5.734)" fill="#ffd14f"/>
                </g>
              </g>
              <g id="Grupo_1230029" data-name="Grupo 1230029" transform="translate(8.059 24.454)">
                <rect id="Rectángulo_422655" data-name="Rectángulo 422655" width="16.514" height="11.178" fill="#fff"/>
                <g id="Grupo_1230024" data-name="Grupo 1230024" transform="translate(19.345)">
                  <rect id="Rectángulo_422656" data-name="Rectángulo 422656" width="1.934" height="11.178" fill="#3e0091"/>
                </g>
                <g id="Grupo_1230025" data-name="Grupo 1230025" transform="translate(23.315)">
                  <rect id="Rectángulo_422657" data-name="Rectángulo 422657" width="1.934" height="11.178" fill="#3e0091"/>
                </g>
                <g id="Grupo_1230026" data-name="Grupo 1230026" transform="translate(27.286)">
                  <rect id="Rectángulo_422658" data-name="Rectángulo 422658" width="1.933" height="11.178" fill="#3e0091"/>
                </g>
                <g id="Grupo_1230027" data-name="Grupo 1230027" transform="translate(31.257)">
                  <rect id="Rectángulo_422659" data-name="Rectángulo 422659" width="1.934" height="11.178" fill="#3e0091"/>
                </g>
                <g id="Grupo_1230028" data-name="Grupo 1230028" transform="translate(4.444 4.317)">
                  <rect id="Rectángulo_422660" data-name="Rectángulo 422660" width="2.544" height="2.544" transform="translate(7.627 2.544) rotate(180)" fill="#7ddb68"/>
                  <rect id="Rectángulo_422661" data-name="Rectángulo 422661" width="2.544" height="2.544" transform="translate(2.544 2.544) rotate(180)" fill="#7ddb68"/>
                </g>
              </g>
              <line id="Línea_2525" data-name="Línea 2525" x2="50.52" transform="translate(0 19.145)" fill="none" stroke="#3e0091" stroke-miterlimit="10" stroke-width="1"/>
              <line id="Línea_2526" data-name="Línea 2526" x2="50.52" transform="translate(0 40.022)" fill="none" stroke="#3e0091" stroke-miterlimit="10" stroke-width="1"/>
              <g id="Grupo_1230030" data-name="Grupo 1230030" transform="translate(27.403 44.815)">
                <rect id="Rectángulo_422662" data-name="Rectángulo 422662" width="1.934" height="11.178" fill="#3e0091"/>
              </g>
              <g id="Grupo_1230031" data-name="Grupo 1230031" transform="translate(31.374 44.815)">
                <rect id="Rectángulo_422663" data-name="Rectángulo 422663" width="1.934" height="11.178" fill="#3e0091"/>
              </g>
              <g id="Grupo_1230032" data-name="Grupo 1230032" transform="translate(35.345 44.815)">
                <rect id="Rectángulo_422664" data-name="Rectángulo 422664" width="1.933" height="11.178" fill="#3e0091"/>
              </g>
              <g id="Grupo_1230033" data-name="Grupo 1230033" transform="translate(39.316 44.815)">
                <rect id="Rectángulo_422665" data-name="Rectángulo 422665" width="1.934" height="11.178" fill="#3e0091"/>
              </g>
            </g>
            <g id="Grupo_1230035" data-name="Grupo 1230035" transform="translate(0 60.085)">
              <rect id="Rectángulo_422666" data-name="Rectángulo 422666" width="10.758" height="5.64" fill="#3e0091"/>
            </g>
            <g id="Grupo_1230036" data-name="Grupo 1230036" transform="translate(39.761 60.085)">
              <rect id="Rectángulo_422667" data-name="Rectángulo 422667" width="10.758" height="5.64" fill="#3e0091"/>
            </g>
          </g>
          <g id="Grupo_1230052" data-name="Grupo 1230052" transform="translate(113.716 146.449)">
            <g id="Grupo_1230051" data-name="Grupo 1230051">
              <path id="Trazado_1218540" data-name="Trazado 1218540" d="M358.6,244.507c8.576,1.958,11.645,5.286,12.828,8.042,2.5,5.819-2.745,10.64.383,17.04,2.235,4.574,6.082,4.5,7.467,9,1.138,3.693-2.061,5.069-2.106,10.722-.038,4.856,2,5.963,1.723,8.807-.629,6.531-12.646,13.972-21.636,12.062-14.341-3.047-25.6-30.87-16.083-49.781C345.837,251.141,354.225,246.5,358.6,244.507Z" transform="translate(-302.595 -238.612)" fill="#0b3327"/>
              <g id="Grupo_1230042" data-name="Grupo 1230042" transform="translate(34.177 77.374)">
                <g id="Grupo_1230039" data-name="Grupo 1230039" transform="translate(46.491 44.64)">
                  <path id="Trazado_1218541" data-name="Trazado 1218541" d="M400.6,427.788l13.367-.955,1.175-4.116-2.981-4.967-7.66,3.827Z" transform="translate(-400.597 -408.339)" fill="#ffbe8a"/>
                  <g id="Grupo_1230038" data-name="Grupo 1230038" transform="translate(3.9)">
                    <path id="Trazado_1218542" data-name="Trazado 1218542" d="M415.446,423.694l19.357,3.044a2,2,0,0,0,1.507-3.587l-22.238-16.719c-1.731-1.2-8.093,12.007-8.093,12.007l1.6-.336a6.57,6.57,0,0,1,7.865,5.592Z" transform="translate(-405.979 -405.201)" fill="#ffd14f"/>
                    <path id="Trazado_1218543" data-name="Trazado 1218543" d="M439.146,426.466l1.465-1.94a.814.814,0,0,0-.159-1.14l-24.441-18.461a.814.814,0,0,0-1.14.159l-1.464,1.939a.814.814,0,0,0,.159,1.14l24.441,18.461A.812.812,0,0,0,439.146,426.466Z" transform="translate(-407.979 -404.762)" fill="#0b3327"/>
                    <path id="Trazado_1218544" data-name="Trazado 1218544" d="M422.758,425.51a.864.864,0,0,0-1.388.653l-.124,3.24a.864.864,0,0,0,1.726.066l.124-3.24A.859.859,0,0,0,422.758,425.51Z" transform="translate(-410.183 -410.427)" fill="#0b3327"/>
                    <path id="Trazado_1218545" data-name="Trazado 1218545" d="M427.289,426.067a.864.864,0,0,0-1.388.653l-.124,3.24a.864.864,0,0,0,1.726.066l.124-3.24A.862.862,0,0,0,427.289,426.067Z" transform="translate(-411.431 -410.58)" fill="#0b3327"/>
                    <path id="Trazado_1218546" data-name="Trazado 1218546" d="M432.093,426.762a.864.864,0,0,0-1.388.653l-.124,3.24a.864.864,0,0,0,1.726.066l.124-3.241A.864.864,0,0,0,432.093,426.762Z" transform="translate(-412.754 -410.772)" fill="#ffd14f"/>
                  </g>
                </g>
                <g id="Grupo_1230041" data-name="Grupo 1230041" transform="translate(53.14 45.655)">
                  <path id="Trazado_1218547" data-name="Trazado 1218547" d="M409.773,429.189l13.367-.956,1.175-4.115-2.981-4.967-7.661,3.826Z" transform="translate(-409.773 -409.74)" fill="#ffbe8a"/>
                  <g id="Grupo_1230040" data-name="Grupo 1230040" transform="translate(3.9)">
                    <path id="Trazado_1218548" data-name="Trazado 1218548" d="M424.622,425.094l19.357,3.044a2,2,0,0,0,1.507-3.587l-22.238-16.719c-1.731-1.2-8.093,12.007-8.093,12.007l1.6-.336a6.57,6.57,0,0,1,7.865,5.592Z" transform="translate(-415.155 -406.601)" fill="#ffd14f"/>
                    <path id="Trazado_1218549" data-name="Trazado 1218549" d="M448.32,427.867l1.465-1.939a.814.814,0,0,0-.159-1.14l-24.441-18.461a.814.814,0,0,0-1.14.159l-1.465,1.939a.813.813,0,0,0,.159,1.14l24.44,18.461A.814.814,0,0,0,448.32,427.867Z" transform="translate(-417.155 -406.163)" fill="#0b3327"/>
                    <path id="Trazado_1218550" data-name="Trazado 1218550" d="M431.934,426.91a.864.864,0,0,0-1.388.653l-.124,3.24a.864.864,0,0,0,1.726.066l.124-3.24A.862.862,0,0,0,431.934,426.91Z" transform="translate(-419.359 -411.828)" fill="#0b3327"/>
                    <path id="Trazado_1218551" data-name="Trazado 1218551" d="M436.464,427.467a.864.864,0,0,0-1.388.653l-.124,3.24a.864.864,0,0,0,1.726.066l.124-3.24A.861.861,0,0,0,436.464,427.467Z" transform="translate(-420.607 -411.981)" fill="#0b3327"/>
                    <path id="Trazado_1218552" data-name="Trazado 1218552" d="M441.268,428.162a.855.855,0,0,0-.493-.177.864.864,0,0,0-.9.83l-.124,3.24a.864.864,0,0,0,1.726.066l.124-3.24A.858.858,0,0,0,441.268,428.162Z" transform="translate(-421.93 -412.173)" fill="#0b3327"/>
                  </g>
                </g>
                <path id="Trazado_1218553" data-name="Trazado 1218553" d="M363.556,343.155s6.105,19.208-1.89,26.2c-4.948,4.329-5.372,18.07-5.372,18.07s19.782,3.334,29.54,5.792l-2.38,16c-2.061-3.019-37.679,4.039-42.834-8.5-4.833-11.754-4.15-56.618-4.15-56.618Z" transform="translate(-336.436 -343.155)" fill="#e356af"/>
                <path id="Trazado_1218554" data-name="Trazado 1218554" d="M369.3,348.264s9.158,17.955,2.411,26.162c-4.174,5.078-2.351,18.7-2.351,18.7s20.061.061,30.089.894l.263,16.178c-2.526-2.642-46.29,7.531-50.684-10.008-3.088-12.328-6.3-46.568-6.3-46.568Z" transform="translate(-338.171 -344.562)" fill="#e356af"/>
              </g>
              <g id="Grupo_1230050" data-name="Grupo 1230050">
                <g id="Grupo_1230043" data-name="Grupo 1230043" transform="translate(13.069 16.516)">
                  <path id="Trazado_1218555" data-name="Trazado 1218555" d="M307.306,261.56l5.554-2.395,11.73,15.447,7.937-.524,1.551,12.289-14.993-.256Z" transform="translate(-307.306 -259.165)" fill="#ffbe8a"/>
                  <path id="Trazado_1218556" data-name="Trazado 1218556" d="M352.606,276.938l13.23,5.262-4.718,4.879c-3.663,3.621-5.946,4.536-11.239,4.3l-6.213-.106-1.551-12.288Z" transform="translate(-316.893 -264.06)" fill="#3e0091"/>
                </g>
                <path id="Trazado_1218557" data-name="Trazado 1218557" d="M348.508,278.964l13.518,1.97a12.626,12.626,0,0,1,3.633,1.075c6.167,2.953,6.725,11.212,5.825,15.166l-5.239,22.284,2.3,11.546-6.292,2.065a39,39,0,0,1-14.388,1.957c-4.821-.278-7.31-1.427-11.574-3.945h0l2.141-20.653c-5.858-11.03,1.544-25.84,5.2-29.906a5.059,5.059,0,0,1,2.225-1.483A4.816,4.816,0,0,1,348.508,278.964Z" transform="translate(-302.209 -248.061)" fill="#3e0091"/>
                <path id="Trazado_1218558" data-name="Trazado 1218558" d="M365.685,264.581l.485,12.253c-.109,1.323-3.463,4.55-7,5.185a3.087,3.087,0,0,1-3.57-3.529l1.47-9.36Z" transform="translate(-307.525 -244.141)" fill="#ffbe8a"/>
                <path id="Trazado_1218559" data-name="Trazado 1218559" d="M356.754,274.8l.48-3.057,4.3-1.4.025,1.5S361.594,273.9,356.754,274.8Z" transform="translate(-307.855 -245.729)" fill="#e39161"/>
                <path id="Trazado_1218560" data-name="Trazado 1218560" d="M360.922,268.261l-11.656-3.969a4.926,4.926,0,0,1-3.216-3.495,4.873,4.873,0,0,1,.652-3.643l4.66-9.363,3.5-.769,10.415,6.708Z" transform="translate(-304.874 -239.305)" fill="#ffbe8a"/>
                <path id="Trazado_1218561" data-name="Trazado 1218561" d="M351.873,249.246c-.033.161,3.4-2.3,3.4-2.3s-1.344,5.363,1.22,8.105c3.133,3.351,4.908,3.543,6.838,3.541l2.779,6.56a12.732,12.732,0,0,0,4.652-15.487C368.541,243.832,353.57,240.974,351.873,249.246Z" transform="translate(-306.511 -238.499)" fill="#0b3327"/>
                <path id="Trazado_1218562" data-name="Trazado 1218562" d="M367.672,268.047a3.1,3.1,0,1,1,.87-4.292A3.1,3.1,0,0,1,367.672,268.047Z" transform="translate(-309.538 -243.532)" fill="#ffbe8a"/>
                <path id="Trazado_1218563" data-name="Trazado 1218563" d="M366.026,265.372a.091.091,0,0,1,.052-.03c.026-.012.048-.033.075-.043A2.234,2.234,0,0,1,368,265.7a.1.1,0,1,1-.12.162,2.272,2.272,0,0,0-1.453-.424,1.2,1.2,0,0,1,.772,1.241.1.1,0,0,1-.1.085h-.012a.1.1,0,0,1-.084-.116,1.015,1.015,0,0,0-.877-1.1,1.9,1.9,0,0,0-.849,1.391.1.1,0,0,1-.1.08l-.018,0a.1.1,0,0,1-.078-.12A2.09,2.09,0,0,1,366.026,265.372Z" transform="translate(-310.146 -244.316)" fill="#0b3332"/>
                <path id="Trazado_1218564" data-name="Trazado 1218564" d="M366.548,270.11a1.111,1.111,0,1,0,1.147-1.075A1.112,1.112,0,0,0,366.548,270.11Z" transform="translate(-310.552 -245.368)" fill="#fff"/>
                <path id="Trazado_1218565" data-name="Trazado 1218565" d="M353.124,255.348a.462.462,0,1,1-.291-.585A.462.462,0,0,1,353.124,255.348Z" transform="translate(-306.607 -241.43)" fill="#0b3332"/>
                <path id="Trazado_1218566" data-name="Trazado 1218566" d="M350.01,261.546a4.019,4.019,0,0,0,1.969-.446.107.107,0,0,0-.093-.192c-2.452,1.181-3.7-.406-3.749-.473a.107.107,0,1,0-.17.128A2.894,2.894,0,0,0,350.01,261.546Z" transform="translate(-305.429 -242.987)" fill="#0b3332"/>
                <path id="Trazado_1218567" data-name="Trazado 1218567" d="M350.392,252.216l-2.532,1.938a.827.827,0,0,0-.217,1.064l.668,1.179Z" transform="translate(-305.316 -240.736)" fill="#ffbe8a"/>
                <g id="Grupo_1230044" data-name="Grupo 1230044" transform="translate(10.877 40.352)">
                  <path id="Trazado_1218568" data-name="Trazado 1218568" d="M304.28,302.371l5.088-4.877,21.669,12.975,5.676-4.454,9.537,10.762-14.538,9.578Z" transform="translate(-304.28 -293.558)" fill="#ffbe8a"/>
                  <path id="Trazado_1218569" data-name="Trazado 1218569" d="M351.631,302.485l22.252-10.424-1.325,7.767c-1.138,5.87-2.727,8.243-7.956,11.483l-6.025,3.969-9.537-10.762Z" transform="translate(-316.607 -292.061)" fill="#3e0091"/>
                </g>
                <g id="Grupo_1230046" data-name="Grupo 1230046" transform="translate(0 38.034)">
                  <g id="Grupo_1230045" data-name="Grupo 1230045" transform="translate(0 0.491)">
                    <path id="Trazado_1218570" data-name="Trazado 1218570" d="M296.539,297.635l-4.261-4.884a1.111,1.111,0,0,0-.511-.291c-.578-.146-2.225-.191-2.109.385.152.755,5.145,5.927,5.145,5.927" transform="translate(-289.375 -290.318)" fill="#ffbe8a"/>
                    <path id="Trazado_1218571" data-name="Trazado 1218571" d="M304.037,293.854,302,293.468a3.093,3.093,0,0,1-1.023-.391l-4.192-2.889a2.024,2.024,0,0,0-1.976-.222.748.748,0,0,0-.525.641c-.005.85,4.517,4.814,4.517,4.814L293.352,290a.9.9,0,0,0-.407-.232c-.607-.16-2.135-.5-2,.193.174.861,5.869,6.76,5.869,6.76" transform="translate(-289.73 -289.54)" fill="#ffbe8a"/>
                    <path id="Trazado_1218572" data-name="Trazado 1218572" d="M290,295.456a3.1,3.1,0,0,1,1.351.472l3.136,3.009,3.9-2.275,5.187-1.178,2.749,2.38s-.191,5.271-7.784,5.452a2.784,2.784,0,0,1-1.491-.4l-3.832-2.3a1.173,1.173,0,0,1-.185-.189c-.545-.7-3.693-4.119-3.762-4.462C289.231,295.768,289.7,295.462,290,295.456Z" transform="translate(-289.269 -291.169)" fill="#ffbe8a"/>
                  </g>
                  <path id="Trazado_1218573" data-name="Trazado 1218573" d="M305.1,293.01l1.775.407a.758.758,0,0,0,.9-.482,11.616,11.616,0,0,0,.188-1.4l.084-2.278a.405.405,0,0,1,.579-.353,4.07,4.07,0,0,1,1.728,2.9l.557,4.666Z" transform="translate(-293.63 -288.862)" fill="#ffbe8a"/>
                </g>
                <path id="Trazado_1218574" data-name="Trazado 1218574" d="M300.145,296.213a.106.106,0,0,0,.075-.032.108.108,0,0,0,0-.154l-4.2-4.264a.109.109,0,1,0-.156.153l4.2,4.264A.1.1,0,0,0,300.145,296.213Z" transform="translate(-291.078 -251.618)" fill="#0b3332"/>
                <path id="Trazado_1218575" data-name="Trazado 1218575" d="M297.449,297.56a.108.108,0,0,0,.075-.032.11.11,0,0,0,0-.155l-4.788-4.864a.109.109,0,0,0-.156.153l4.788,4.864A.106.106,0,0,0,297.449,297.56Z" transform="translate(-290.173 -251.823)" fill="#0b3332"/>
                <path id="Trazado_1218576" data-name="Trazado 1218576" d="M295.385,299.641a.106.106,0,0,0,.075-.032.109.109,0,0,0,0-.154l-3.584-3.641a.109.109,0,1,0-.156.153l3.584,3.641A.1.1,0,0,0,295.385,299.641Z" transform="translate(-289.936 -252.734)" fill="#0b3332"/>
                <g id="Grupo_1230049" data-name="Grupo 1230049" transform="translate(8.109)">
                  <g id="Grupo_1230047" data-name="Grupo 1230047">
                    <path id="Trazado_1218577" data-name="Trazado 1218577" d="M305.421,255.283l-1.1-.946a3.072,3.072,0,0,1-.793-1.049l-2.964-6.435a1.8,1.8,0,0,1-.083-.835l1.1-8.079a1.809,1.809,0,0,1,1.511-1.544h0a1.81,1.81,0,0,1,1.957,1.1l5.711,11.749a4.582,4.582,0,0,1,.371,2.9l-.149.741Z" transform="translate(-300.461 -236.372)" fill="#ffbe8a"/>
                    <path id="Trazado_1218578" data-name="Trazado 1218578" d="M313.445,253.907l1.536-7.765a.5.5,0,0,0-.7-.558c-.713.341-1.759,1.223-2.684,3.5C310.009,252.991,313.445,253.907,313.445,253.907Z" transform="translate(-303.413 -238.896)" fill="#ffbe8a"/>
                  </g>
                  <g id="Grupo_1230048" data-name="Grupo 1230048" transform="translate(3.55 11.227)">
                    <path id="Trazado_1218579" data-name="Trazado 1218579" d="M305.361,254.013a.1.1,0,0,0,.011.046.1.1,0,0,0,.131.043c1.915-.971,2.82.286,2.858.34a.1.1,0,1,0,.159-.111c-.009-.014-1.035-1.454-3.106-.4A.094.094,0,0,0,305.361,254.013Z" transform="translate(-305.361 -252.328)" fill="#0b3327"/>
                    <path id="Trazado_1218580" data-name="Trazado 1218580" d="M308.028,253.041a2.042,2.042,0,0,0,.009.217.1.1,0,0,0,.106.087.089.089,0,0,0,.088-.106,1.683,1.683,0,0,1,.351-1.212.1.1,0,0,0-.146-.129A1.87,1.87,0,0,0,308.028,253.041Z" transform="translate(-306.095 -251.866)" fill="#0b3327"/>
                  </g>
                  <path id="Trazado_1218581" data-name="Trazado 1218581" d="M301.818,240.794a.1.1,0,0,0-.133.129l1.907,4.981a.1.1,0,1,0,.187-.072l-1.907-4.981A.093.093,0,0,0,301.818,240.794Z" transform="translate(-300.796 -237.588)" fill="#0b3327"/>
                  <path id="Trazado_1218582" data-name="Trazado 1218582" d="M305.511,243.377a.094.094,0,0,0,.049-.006.1.1,0,0,0,.056-.128l-2.5-6.345a.1.1,0,0,0-.128-.056.1.1,0,0,0-.056.128l2.5,6.345A.1.1,0,0,0,305.511,243.377Z" transform="translate(-301.141 -236.5)" fill="#0b3327"/>
                  <path id="Trazado_1218583" data-name="Trazado 1218583" d="M302.452,250.128a.1.1,0,0,0,.047-.005.1.1,0,0,0,.059-.127l-1.3-3.514a.1.1,0,0,0-.185.069l1.3,3.514A.1.1,0,0,0,302.452,250.128Z" transform="translate(-300.627 -239.139)" fill="#0b3327"/>
                </g>
              </g>
              <path id="Trazado_1218584" data-name="Trazado 1218584" d="M348.174,408.289h0a.228.228,0,0,0,.224-.231L347.815,372a.225.225,0,0,0-.231-.224.227.227,0,0,0-.224.231l.586,36.062A.228.228,0,0,0,348.174,408.289Z" transform="translate(-305.268 -273.662)" fill="#3e0091"/>
              <path id="Trazado_1218585" data-name="Trazado 1218585" d="M348.954,306.715a.23.23,0,0,0,.157-.062l7.4-7.053a.228.228,0,1,0-.314-.33l-7.4,7.053a.227.227,0,0,0,.156.392Z" transform="translate(-305.644 -253.677)" fill="#ffd14f"/>
            </g>
          </g>
          <g id="Grupo_1230053" data-name="Grupo 1230053" transform="translate(0 115.486)">
            <path id="Trazado_1218586" data-name="Trazado 1218586" d="M157.443,201.453l-1.463.309a11.5,11.5,0,0,0-3.977-4.5l.477-1.461a.489.489,0,0,0-.313-.616l-4.666-1.523a.489.489,0,0,0-.616.313l-.464,1.423a11.474,11.474,0,0,0-5.882,1.195l-1.028-1.144a.487.487,0,0,0-.689-.037l-3.652,3.28a.488.488,0,0,0-.037.69l1,1.11a11.462,11.462,0,0,0-1.9,5.7l-1.506.318a.488.488,0,0,0-.377.578l1.014,4.8a.488.488,0,0,0,.578.377l1.463-.309a11.5,11.5,0,0,0,3.977,4.5l-.477,1.461a.489.489,0,0,0,.313.616l4.666,1.523a.489.489,0,0,0,.616-.313l.464-1.423a11.478,11.478,0,0,0,5.883-1.195l1.028,1.144a.488.488,0,0,0,.689.037l3.652-3.28a.488.488,0,0,0,.037-.689l-1-1.11a11.462,11.462,0,0,0,1.9-5.7l1.506-.318a.488.488,0,0,0,.377-.578l-1.014-4.8A.489.489,0,0,0,157.443,201.453Zm-6.879,10.833a7.295,7.295,0,1,1,.552-10.3A7.3,7.3,0,0,1,150.564,212.285Z" transform="translate(-132.332 -193.64)" fill="#cdeced"/>
          </g>
          <g id="Grupo_1230069" data-name="Grupo 1230069" transform="translate(133.923)">
            <path id="Trazado_1218587" data-name="Trazado 1218587" d="M359.966,72.317A44.477,44.477,0,0,0,356.2,86.022h31.218c.318-7.85-1.07-17.614,1.419-26.777,4.044-14.888-3.827-24.4-12.473-24.962-7.538-.486-14.847,6.594-15.56,12.976-.613,5.488,4.19,8.553,3.419,15.635C363.8,66.847,362.1,67.694,359.966,72.317Z" transform="translate(-327.911 -34.26)" fill="#d68351"/>
            <g id="Grupo_1230068" data-name="Grupo 1230068" transform="translate(0 0.869)">
              <g id="Grupo_1230055" data-name="Grupo 1230055" transform="translate(34.282 32.954)">
                <g id="Grupo_1230054" data-name="Grupo 1230054" transform="translate(5.316 4.085)">
                  <path id="Trazado_1218588" data-name="Trazado 1218588" d="M402.633,133.252l5.291-3.955-16.837-23.733-7.5-17.878-11.78-1.11,11.3,24.767Z" transform="translate(-371.806 -86.576)" fill="#ffbe8a"/>
                </g>
                <path id="Trazado_1218589" data-name="Trazado 1218589" d="M379.383,80.938l5.531,12.927-14.762,3.975-5.682-14.03Z" transform="translate(-364.469 -80.938)" fill="#3e0091"/>
              </g>
              <path id="Trazado_1218590" data-name="Trazado 1218590" d="M359.944,94.009c5.489-7.052,6.642-12.393,6.608-16.466a5.466,5.466,0,0,0-.739-2.8,5.2,5.2,0,0,0-2.088-1.959L349.088,65.04c-8.18-3.6-14.135-1.29-16.471,2.982l-13.664,23.21-1.8,2.777Z" transform="translate(-317.157 -43.116)" fill="#3e0091"/>
              <path id="Trazado_1218591" data-name="Trazado 1218591" d="M367.888,77.114l4.456-4.694,3.288,3.293-3.375.359,1.325,2.935Z" transform="translate(-331.129 -45.638)" fill="#8c37ff"/>
              <g id="Grupo_1230058" data-name="Grupo 1230058" transform="translate(30.474)">
                <path id="Trazado_1218592" data-name="Trazado 1218592" d="M367.583,50.5l-8.231,11.983c-.666,1.272,1.126,5,3.995,7.635a3.422,3.422,0,0,0,5.41-1.069l4.072-9.4Z" transform="translate(-359.213 -39.603)" fill="#ffbe8a"/>
                <path id="Trazado_1218593" data-name="Trazado 1218593" d="M372.209,68.644l1.83-4.24-4.953-7.484-.719,1.71S367.738,61.819,372.209,68.644Z" transform="translate(-361.726 -41.369)" fill="#e39161"/>
                <path id="Trazado_1218594" data-name="Trazado 1218594" d="M366.4,53.885l5.047,8.092a5.329,5.329,0,0,0,4.4,2.648,5.27,5.27,0,0,0,3.719-1.483l8.907-6.974-9.319-13.451Z" transform="translate(-361.194 -37.458)" fill="#ffbe8a"/>
                <path id="Trazado_1218595" data-name="Trazado 1218595" d="M388.821,54.169c-.317.724-13.723-3.577-14.393-6.861-1.314-6.442-6.778,2.324-6.778,2.324s.338-19.822,16.3-12.583C390.1,39.84,391.473,48.123,388.821,54.169Z" transform="translate(-361.537 -35.459)" fill="#d68351"/>
                <path id="Trazado_1218596" data-name="Trazado 1218596" d="M388.821,62.843a.5.5,0,1,0,.683.18A.5.5,0,0,0,388.821,62.843Z" transform="translate(-367.299 -42.982)" fill="#0b3332"/>
                <path id="Trazado_1218597" data-name="Trazado 1218597" d="M391.4,64.244l-1.5,3.1a.9.9,0,0,1-1.08.462l-1.394-.451Z" transform="translate(-366.982 -43.387)" fill="#ffbe8a"/>
                <path id="Trazado_1218598" data-name="Trazado 1218598" d="M384.412,67.87s-2.443-1.264-2.289-3.664C382.123,64.206,380.064,67.681,384.412,67.87Z" transform="translate(-365.389 -43.376)" fill="#fff"/>
                <rect id="Rectángulo_422668" data-name="Rectángulo 422668" width="0.846" height="9.618" transform="translate(11.989 10.524) rotate(-47.561)" fill="#3e0091"/>
                <g id="Grupo_1230057" data-name="Grupo 1230057" transform="translate(17.593 15.585)">
                  <g id="Grupo_1230056" data-name="Grupo 1230056">
                    <path id="Trazado_1218599" data-name="Trazado 1218599" d="M383.738,62.047A3.753,3.753,0,0,1,385.3,57.5h0a3.746,3.746,0,1,1-1.566,4.542Zm1.952-3.9a3,3,0,1,0,4.113,1.019,3,3,0,0,0-4.113-1.019Z" transform="translate(-383.493 -56.968)" fill="#3e0091"/>
                  </g>
                </g>
                <path id="Trazado_1218600" data-name="Trazado 1218600" d="M371.462,46.843a3.179,3.179,0,1,0,4.346,1.15A3.179,3.179,0,0,0,371.462,46.843Z" transform="translate(-362.151 -38.475)" fill="#ffbe8a"/>
                <path id="Trazado_1218601" data-name="Trazado 1218601" d="M373.985,50.162a.091.091,0,0,0-.033-.052c-.018-.023-.028-.053-.048-.075a2.275,2.275,0,0,0-1.856-.5.1.1,0,1,0,.033.2,2.317,2.317,0,0,1,1.511.3,1.225,1.225,0,0,0-1.281.757.1.1,0,0,0,.053.125l.012.005a.1.1,0,0,0,.13-.065,1.033,1.033,0,0,1,1.311-.583,1.931,1.931,0,0,1,.111,1.655.1.1,0,0,0,.054.12l.017.007a.1.1,0,0,0,.126-.072A2.123,2.123,0,0,0,373.985,50.162Z" transform="translate(-362.724 -39.327)" fill="#0b3332"/>
                <path id="Trazado_1218602" data-name="Trazado 1218602" d="M371.575,53.359a1.384,1.384,0,1,1-.4-1.916A1.383,1.383,0,0,1,371.575,53.359Z" transform="translate(-361.918 -39.799)" fill="#fff"/>
              </g>
              <g id="Grupo_1230063" data-name="Grupo 1230063" transform="translate(34.039 75.072)">
                <g id="Grupo_1230062" data-name="Grupo 1230062" transform="translate(0 0)">
                  <g id="Grupo_1230060" data-name="Grupo 1230060" transform="translate(2.093 2.118)">
                    <rect id="Rectángulo_422669" data-name="Rectángulo 422669" width="32.846" height="114.731" transform="translate(0 32.777) rotate(-86.061)" fill="#fff"/>
                    <g id="Grupo_1230059" data-name="Grupo 1230059" transform="translate(0.014)">
                      <path id="Trazado_1218603" data-name="Trazado 1218603" d="M524.668,196.6l-.075,1.085-1.084-.075" transform="translate(-410.134 -157.027)" fill="none" stroke="#67dbcb" stroke-miterlimit="10" stroke-width="1"/>
                      <line id="Línea_2527" data-name="Línea 2527" x1="108.988" y1="7.509" transform="translate(2.185 32.919)" fill="none" stroke="#67dbcb" stroke-miterlimit="10" stroke-width="1" stroke-dasharray="3.046 3.046"/>
                      <path id="Trazado_1218604" data-name="Trazado 1218604" d="M368.126,186.872l-1.084-.075.075-1.085" transform="translate(-367.042 -154.029)" fill="none" stroke="#67dbcb" stroke-miterlimit="10" stroke-width="1"/>
                      <line id="Línea_2528" data-name="Línea 2528" y1="27.54" x2="1.897" transform="translate(0.215 2.104)" fill="none" stroke="#67dbcb" stroke-miterlimit="10" stroke-width="1" stroke-dasharray="2.822 2.822"/>
                      <path id="Trazado_1218605" data-name="Trazado 1218605" d="M370.055,143.072l.075-1.085,1.084.075" transform="translate(-367.872 -141.987)" fill="none" stroke="#67dbcb" stroke-miterlimit="10" stroke-width="1"/>
                      <line id="Línea_2529" data-name="Línea 2529" x2="108.988" y2="7.509" transform="translate(5.544 0.227)" fill="none" stroke="#67dbcb" stroke-miterlimit="10" stroke-width="1" stroke-dasharray="3.046 3.046"/>
                      <path id="Trazado_1218606" data-name="Trazado 1218606" d="M526.625,152.768l1.084.075-.075,1.084" transform="translate(-410.992 -144.956)" fill="none" stroke="#67dbcb" stroke-miterlimit="10" stroke-width="1"/>
                      <line id="Línea_2530" data-name="Línea 2530" x1="1.898" y2="27.539" transform="translate(114.604 11.011)" fill="none" stroke="#67dbcb" stroke-miterlimit="10" stroke-width="1" stroke-dasharray="2.822 2.822"/>
                    </g>
                  </g>
                  <g id="Grupo_1230061" data-name="Grupo 1230061">
                    <rect id="Rectángulo_422670" data-name="Rectángulo 422670" width="3.945" height="3.945" transform="translate(2.527 0) rotate(3.939)" fill="#fff" stroke="#67dbcb" stroke-miterlimit="10" stroke-width="1"/>
                    <rect id="Rectángulo_422671" data-name="Rectángulo 422671" width="3.945" height="3.945" transform="translate(59.755 3.941) rotate(3.939)" fill="#fff" stroke="#67dbcb" stroke-miterlimit="10" stroke-width="1"/>
                    <rect id="Rectángulo_422672" data-name="Rectángulo 422672" width="3.945" height="3.945" transform="translate(116.98 7.888) rotate(3.939)" fill="#fff" stroke="#67dbcb" stroke-miterlimit="10" stroke-width="1"/>
                    <rect id="Rectángulo_422673" data-name="Rectángulo 422673" width="3.945" height="3.945" transform="translate(1.393 16.471) rotate(3.939)" fill="#fff" stroke="#67dbcb" stroke-miterlimit="10" stroke-width="1"/>
                    <rect id="Rectángulo_422674" data-name="Rectángulo 422674" width="3.945" height="3.945" transform="translate(115.849 24.352) rotate(3.939)" fill="#fff" stroke="#67dbcb" stroke-miterlimit="10" stroke-width="1"/>
                    <rect id="Rectángulo_422675" data-name="Rectángulo 422675" width="3.945" height="3.945" transform="translate(0.271 32.766) rotate(3.939)" fill="#fff" stroke="#67dbcb" stroke-miterlimit="10" stroke-width="1"/>
                    <rect id="Rectángulo_422676" data-name="Rectángulo 422676" width="3.945" height="3.945" transform="translate(57.499 36.707) rotate(3.939)" fill="#fff" stroke="#67dbcb" stroke-miterlimit="10" stroke-width="1"/>
                    <rect id="Rectángulo_422677" data-name="Rectángulo 422677" width="3.945" height="3.945" transform="translate(114.727 40.648) rotate(3.939)" fill="#fff" stroke="#67dbcb" stroke-miterlimit="10" stroke-width="1"/>
                  </g>
                </g>
                <text id="_h1_hello_world_h1_" data-name="&lt;h1&gt;hello world&lt;h1/&gt;" transform="translate(16.61 21.98) rotate(3.939)" fill="#67dbcb" font-size="7" font-family="Montserrat-Regular, Montserrat"><tspan x="0" y="0">&lt;h1&gt;hello world&lt;h1/&gt;</tspan></text>
              </g>
              <g id="Grupo_1230067" data-name="Grupo 1230067" transform="translate(17.642 41.633)">
                <g id="Grupo_1230064" data-name="Grupo 1230064" transform="translate(0 0)">
                  <path id="Trazado_1218607" data-name="Trazado 1218607" d="M369.727,133.211l4.445-5.632-15.258-20.692-3.577-13.972L341.5,95.956l4.836,15.182Z" transform="translate(-341.504 -92.916)" fill="#ffbe8a"/>
                </g>
                <g id="Grupo_1230066" data-name="Grupo 1230066" transform="translate(26.812 33.457)">
                  <g id="Grupo_1230065" data-name="Grupo 1230065" transform="translate(0 0.191)">
                    <path id="Trazado_1218608" data-name="Trazado 1218608" d="M385.228,153.27l5.364,3.842a1.128,1.128,0,0,1,.345.489c.2.572.409,2.235-.184,2.174-.78-.081-6.507-4.636-6.507-4.636" transform="translate(-380.087 -143.186)" fill="#ffbe8a"/>
                    <path id="Trazado_1218609" data-name="Trazado 1218609" d="M388.005,142.877l.591,2.031a3.143,3.143,0,0,0,.5,1l3.336,3.966a2.061,2.061,0,0,1,.417,1.98c-.108.311-.291.563-.6.594-.861.088-5.318-4.108-5.318-4.108l6.027,4.988a.923.923,0,0,1,.275.39c.222.6.714,2.115,0,2.041-.889-.092-7.421-5.287-7.421-5.287" transform="translate(-380.518 -140.324)" fill="#ffbe8a"/>
                    <path id="Trazado_1218610" data-name="Trazado 1218610" d="M387.345,155.659a3.173,3.173,0,0,0-.609-1.322l-3.354-2.884,1.925-4.177.688-5.37-2.68-2.553s-5.321.707-4.766,8.419a2.83,2.83,0,0,0,.548,1.472l2.7,3.659a1.2,1.2,0,0,0,.209.169c.762.484,4.533,3.34,4.888,3.377C387.1,156.471,387.369,155.969,387.345,155.659Z" transform="translate(-378.507 -139.353)" fill="#ffbe8a"/>
                  </g>
                  <path id="Trazado_1218611" data-name="Trazado 1218611" d="M388.593,144.642l-.585-1.759a.772.772,0,0,1,.4-.959,11.842,11.842,0,0,1,1.4-.328l2.3-.307a.412.412,0,0,0,.3-.621,4.142,4.142,0,0,0-3.1-1.469l-4.782-.11Z" transform="translate(-380.164 -139.089)" fill="#ffbe8a"/>
                </g>
                <path id="Trazado_1218612" data-name="Trazado 1218612" d="M387.089,150.4a.113.113,0,0,1,.025-.08.11.11,0,0,1,.157-.016L392,154.138a.112.112,0,0,1-.141.173l-4.729-3.837A.113.113,0,0,1,387.089,150.4Z" transform="translate(-354.058 -108.713)" fill="#0b3332"/>
                <path id="Trazado_1218613" data-name="Trazado 1218613" d="M385.735,153.054a.113.113,0,0,1,.025-.08.111.111,0,0,1,.157-.016l5.4,4.377a.111.111,0,1,1-.14.172l-5.4-4.377A.108.108,0,0,1,385.735,153.054Z" transform="translate(-353.685 -109.445)" fill="#0b3332"/>
                <path id="Trazado_1218614" data-name="Trazado 1218614" d="M384.343,155.767a.112.112,0,0,1,.181-.1l4.038,3.277a.111.111,0,1,1-.14.172l-4.038-3.277A.1.1,0,0,1,384.343,155.767Z" transform="translate(-353.302 -110.192)" fill="#0b3332"/>
              </g>
              <line id="Línea_2531" data-name="Línea 2531" x1="2.604" y1="10.557" transform="translate(15.038 33.981)" fill="none" stroke="#ffd14f" stroke-linecap="round" stroke-miterlimit="10" stroke-width="0.5"/>
              <line id="Línea_2532" data-name="Línea 2532" x1="2.604" y1="10.556" transform="translate(28.746 31.077)" fill="none" stroke="#ffd14f" stroke-linecap="round" stroke-miterlimit="10" stroke-width="0.5"/>
              <line id="Línea_2533" data-name="Línea 2533" y1="5.352" x2="3.04" transform="translate(45.51 41.633)" fill="none" stroke="#ffd14f" stroke-linecap="round" stroke-miterlimit="10" stroke-width="0.5"/>
            </g>
            <path id="Trazado_1218615" data-name="Trazado 1218615" d="M358.013,65.375l-6.341,2.01,5.6,4.072-2.319,2.022,8.466,1.694-2.05-1.954a10.833,10.833,0,0,1-3.36-7.844Z" transform="translate(-326.663 -42.829)" fill="#8c37ff"/>
          </g>
        </g>
      </g>
    </g>
  </g>
</svg>
