<svg xmlns="http://www.w3.org/2000/svg" xmlns:xlink="http://www.w3.org/1999/xlink" width="108" height="108" viewBox="0 0 108 108">
  <defs>
    <filter id="Trazado_904820" x="0" y="0" width="108" height="108" filterUnits="userSpaceOnUse">
      <feOffset dy="3" input="SourceAlpha"/>
      <feGaussianBlur stdDeviation="3" result="blur"/>
      <feFlood flood-opacity="0.161"/>
      <feComposite operator="in" in2="blur"/>
      <feComposite in="SourceGraphic"/>
    </filter>
  </defs>
  <g id="Grupo_1229888" data-name="Grupo 1229888" transform="translate(-195 -811)">
    <g id="Grupo_1228101" data-name="Grupo 1228101" transform="translate(204 817)">
      <g id="Grupo_1227366" data-name="Grupo 1227366">
        <g id="Grupo_1224979" data-name="Grupo 1224979">
          <g id="Grupo_1173585" data-name="Grupo 1173585" transform="translate(0 0)">
            <g id="Grupo_1173428" data-name="Grupo 1173428">
              <g id="Grupo_1171958" data-name="Grupo 1171958">
                <g id="Grupo_1167341" data-name="Grupo 1167341">
                  <g id="Grupo_1166792" data-name="Grupo 1166792">
                    <g transform="matrix(1, 0, 0, 1, -9, -6)" filter="url(#Trazado_904820)">
                      <g id="Trazado_904820-2" data-name="Trazado 904820" transform="translate(9 6)" fill="#e5fdfa">
                        <path d="M 44.99999618530273 88.50003051757812 C 39.12687301635742 88.50003051757812 33.43022155761719 87.35010528564453 28.06829643249512 85.08219146728516 C 22.88852119445801 82.89134216308594 18.23629570007324 79.75461578369141 14.24084663391113 75.75916290283203 C 10.24540901184082 71.76371765136719 7.108683586120605 67.11148834228516 4.917821407318115 61.93171691894531 C 2.649921178817749 56.56978988647461 1.499996185302734 50.87313842773438 1.499996185302734 45.00001525878906 C 1.499996185302734 39.12689208984375 2.649921178817749 33.43024063110352 4.917821407318115 28.06830215454102 C 7.108683586120605 22.88852691650391 10.24540901184082 18.23631477355957 14.24084663391113 14.24086570739746 C 18.23629570007324 10.24541568756104 22.88852119445801 7.10869026184082 28.06829643249512 4.917827606201172 C 33.43022155761719 2.649927854537964 39.12687301635742 1.50000274181366 44.99999618530273 1.50000274181366 C 50.87311935424805 1.50000274181366 56.56977081298828 2.649927854537964 61.93169784545898 4.917827606201172 C 67.11147308349609 7.10869026184082 71.76369476318359 10.24541568756104 75.75914764404297 14.24086570739746 C 79.75458526611328 18.23631477355957 82.89131164550781 22.88852691650391 85.08216857910156 28.06830215454102 C 87.35007476806641 33.43024063110352 88.5 39.12689208984375 88.5 45.00001525878906 C 88.5 50.87313842773438 87.35007476806641 56.56978988647461 85.08216857910156 61.93171691894531 C 82.89131164550781 67.11148834228516 79.75458526611328 71.76371765136719 75.75914764404297 75.75916290283203 C 71.76369476318359 79.75461578369141 67.11147308349609 82.89134216308594 61.93169784545898 85.08219146728516 C 56.56977081298828 87.35010528564453 50.87311935424805 88.50003051757812 44.99999618530273 88.50003051757812 Z" stroke="none"/>
                        <path d="M 44.99999618530273 3 C 39.32870864868164 3 33.82865142822266 4.110061645507812 28.65262603759766 6.299346923828125 C 23.65165710449219 8.414573669433594 19.15968322753906 11.44334411621094 15.301513671875 15.301513671875 C 11.44333648681641 19.15968322753906 8.414566040039062 23.65165710449219 6.299339294433594 28.65262985229492 C 4.110054016113281 33.82867050170898 2.999992370605469 39.32872772216797 2.999992370605469 45.00001525878906 C 2.999992370605469 50.67130279541016 4.110054016113281 56.17136001586914 6.299339294433594 61.34738922119141 C 8.414566040039062 66.34837341308594 11.44333648681641 70.84033203125 15.301513671875 74.69850158691406 C 19.15968322753906 78.55668640136719 23.65165710449219 81.58545684814453 28.65262603759766 83.70068359375 C 33.82865142822266 85.88996887207031 39.32870864868164 87.00003051757812 44.99999618530273 87.00003051757812 C 50.67128372192383 87.00003051757812 56.17134094238281 85.88996887207031 61.34736633300781 83.70068359375 C 66.34834289550781 81.58545684814453 70.84030914306641 78.55668640136719 74.69847869873047 74.69850158691406 C 78.55665588378906 70.84033203125 81.58542633056641 66.34837341308594 83.70065307617188 61.34738922119141 C 85.88993835449219 56.17136001586914 87 50.67130279541016 87 45.00001525878906 C 87 39.32872772216797 85.88993835449219 33.82867050170898 83.70065307617188 28.65262985229492 C 81.58542633056641 23.65165710449219 78.55665588378906 19.15968322753906 74.69847869873047 15.301513671875 C 70.84030914306641 11.44334411621094 66.34834289550781 8.414573669433594 61.34736633300781 6.299346923828125 C 56.17134094238281 4.110061645507812 50.67128372192383 3 44.99999618530273 3 M 44.99999618530273 0 C 69.85281372070312 0 90 20.14718627929688 90 45.00001525878906 C 90 69.85282897949219 69.85281372070312 90.00003051757812 44.99999618530273 90.00003051757812 C 20.14717864990234 90.00003051757812 -7.62939453125e-06 69.85282897949219 -7.62939453125e-06 45.00001525878906 C -7.62939453125e-06 20.14718627929688 20.14717864990234 0 44.99999618530273 0 Z" stroke="none" fill="#098576"/>
                      </g>
                    </g>
                  </g>
                </g>
              </g>
            </g>
          </g>
        </g>
      </g>
    </g>
    <g id="requisito_1_" data-name="requisito (1)" transform="translate(182.322 816.666)">
      <path id="Trazado_1218241" data-name="Trazado 1218241" d="M105.922,135.65a11.5,11.5,0,0,1,7.622-15.71v-8.735l-4.1.974a.78.78,0,0,1-.916-1.017l.625-2.091a.756.756,0,0,1,.032-.089l.674-1.944a.774.774,0,0,1,.217-.359l3.472-3.277v-9.51a.532.532,0,0,0-.529-.529h-7.346v.79a.78.78,0,0,1-.78.78H89.1a.78.78,0,0,1-.78-.78v-.79H80.973a.532.532,0,0,0-.529.529v41.229a.533.533,0,0,0,.529.529Z" transform="translate(-33.153 -67.897)" fill="#f7f7f8" fill-rule="evenodd"/>
      <g id="Grupo_1229887" data-name="Grupo 1229887" transform="translate(51.072 31.835)">
        <path id="Trazado_1218242" data-name="Trazado 1218242" d="M112.334,341.722a.778.778,0,1,1,.829-1.317l1.08.682,1.722-1.879a2.811,2.811,0,1,0,.911,1.305l-1.9,2.07a.778.778,0,0,1-1.018.167Z" transform="translate(-111.399 -315.005)" fill="#41ba7d" fill-rule="evenodd"/>
        <path id="Trazado_1218243" data-name="Trazado 1218243" d="M112.339,245.174a.778.778,0,1,1,.829-1.317l1.08.682,1.722-1.879a2.811,2.811,0,1,0,.911,1.3l-1.9,2.07a.778.778,0,0,1-1.018.167Z" transform="translate(-111.404 -230.251)" fill="#41ba7d" fill-rule="evenodd"/>
        <path id="Trazado_1218244" data-name="Trazado 1218244" d="M112.339,148.625a.778.778,0,1,1,.829-1.317l1.08.682,1.722-1.879a2.811,2.811,0,1,0,.911,1.3l-1.9,2.07a.778.778,0,0,1-1.018.167Z" transform="translate(-111.404 -145.496)" fill="#41ba7d" fill-rule="evenodd"/>
      </g>
      <path id="Trazado_1218245" data-name="Trazado 1218245" d="M161.491,32h-3.809v4.64h14.229V32H168.1v0a.777.777,0,0,1-.777-.768,2.529,2.529,0,0,0-5.055-.058c0,.016,0,.032,0,.049a.78.78,0,0,1-.78.78Z" transform="translate(-100.956 -11.163)" fill="#6298c6" fill-rule="evenodd"/>
      <path id="Trazado_1218246" data-name="Trazado 1218246" d="M349.049,125.27l-1.59-1.685a.225.225,0,0,0-.157-.07.231.231,0,0,0-.165.063l-7.581,7.156a.786.786,0,0,1-.078.073l-3.113,2.939,1.9,2.017.141-.133a.785.785,0,0,1,.078-.073l10.554-9.963a.225.225,0,0,0,.07-.158A.231.231,0,0,0,349.049,125.27Z" transform="translate(-257.811 -94.366)" fill="#f5ca81" fill-rule="evenodd"/>
      <path id="Trazado_1218247" data-name="Trazado 1218247" d="M326.461,220.451l.846-.2-1.166-1.235-.271.78-.007.024-.249.833Z" transform="translate(-248.375 -178.2)" fill="#9c9c9c" fill-rule="evenodd"/>
      <path id="Trazado_1218248" data-name="Trazado 1218248" d="M296.38,79.993l1.492-1.408V71.956a3.594,3.594,0,0,0-3.582-3.581h-7.346v1.492h7.346a2.093,2.093,0,0,1,2.089,2.089Z" transform="translate(-214.429 -45.961)" fill="#85beed" fill-rule="evenodd"/>
      <path id="Trazado_1218249" data-name="Trazado 1218249" d="M310.916,323.558a9.93,9.93,0,1,0,2.908,7.021A9.93,9.93,0,0,0,310.916,323.558Z" transform="translate(-220.59 -267.419)" fill="#2fa369" fill-rule="evenodd"/>
      <path id="Trazado_1218250" data-name="Trazado 1218250" d="M85.943,116.766a11.545,11.545,0,0,1-1.128-1.492H59.036a2.094,2.094,0,0,1-2.089-2.089V71.956a2.093,2.093,0,0,1,2.089-2.089h7.346V68.375H59.036a3.593,3.593,0,0,0-3.581,3.581v41.229a3.594,3.594,0,0,0,3.581,3.581Z" transform="translate(-11.216 -45.961)" fill="#85beed" fill-rule="evenodd"/>
      <path id="Trazado_1218251" data-name="Trazado 1218251" d="M365.537,229.182h.139V218.231l-1.492,1.408v9.621A11.613,11.613,0,0,1,365.537,229.182Z" transform="translate(-282.233 -177.511)" fill="#85beed" fill-rule="evenodd"/>
      <path id="Trazado_1218252" data-name="Trazado 1218252" d="M60.986,56.79a.78.78,0,0,1,0-1.561H71.239a.78.78,0,0,1,0,1.561Zm0,3.768a.78.78,0,0,1,0-1.561H69.6a.78.78,0,1,1,0,1.561ZM56.7,54.886l.55-.6a.777.777,0,1,1,1.146,1.049l-.7.758a4.381,4.381,0,1,1-1-1.207Zm-4.687,3.666a.778.778,0,1,1,.829-1.317l1.08.682,1.722-1.879a2.811,2.811,0,1,0,.911,1.305l-1.9,2.07a.778.778,0,0,1-1.018.167l-1.627-1.028ZM60.986,45a.78.78,0,1,1,0-1.561H72.835a.78.78,0,0,1,0,1.561Zm0,3.768a.78.78,0,1,1,0-1.561H76.831a.78.78,0,0,1,0,1.561Zm-4.291-5.672.55-.6a.777.777,0,0,1,1.146,1.048l-.7.758a4.381,4.381,0,1,1-1-1.207Zm-4.687,3.666a.778.778,0,1,1,.829-1.317l1.08.682,1.722-1.879a2.811,2.811,0,1,0,.911,1.3l-1.9,2.07a.778.778,0,0,1-1.018.167l-1.627-1.028ZM60.985,33.2a.78.78,0,0,1,0-1.561H76.831a.78.78,0,0,1,0,1.561Zm0,3.768a.78.78,0,0,1,0-1.561H76.831a.78.78,0,1,1,0,1.561ZM56.7,31.3l.55-.6a.777.777,0,1,1,1.146,1.048l-.7.758a4.381,4.381,0,1,1-1-1.207Zm-4.687,3.666a.778.778,0,1,1,.829-1.317l1.08.682,1.722-1.879a2.811,2.811,0,1,0,.911,1.3l-1.9,2.07a.778.778,0,0,1-1.018.167l-1.627-1.028Zm8.528-14.127H56.726v4.64H70.956v-4.64H67.147v0a.777.777,0,0,1-.777-.768,2.529,2.529,0,0,0-5.055-.058c0,.016,0,.032,0,.049a.78.78,0,0,1-.78.78ZM91.238,30.9l-1.59-1.685a.225.225,0,0,0-.157-.07.231.231,0,0,0-.165.063l-7.581,7.156a.782.782,0,0,1-.078.073l-3.113,2.939,1.9,2.017.141-.133a.788.788,0,0,1,.078-.073L91.23,31.228a.225.225,0,0,0,.07-.158.231.231,0,0,0-.063-.165ZM78.086,42.251l-.846.2.249-.833L77.5,41.6l.271-.78,1.166,1.235Zm3.865-8.219,1.492-1.408V26a3.594,3.594,0,0,0-3.582-3.581H72.516v1.492h7.346a2.093,2.093,0,0,1,2.089,2.089v8.037Zm8.374,22.107a9.93,9.93,0,1,0,2.908,7.021A9.93,9.93,0,0,0,90.325,56.139ZM72.769,67.753a11.5,11.5,0,0,1,7.622-15.71V43.308l-4.1.974a.78.78,0,0,1-.916-1.017L76,41.174a.759.759,0,0,1,.032-.089l.674-1.944a.774.774,0,0,1,.217-.359l3.472-3.277V26a.532.532,0,0,0-.529-.529H72.516v.79a.78.78,0,0,1-.78.78H55.946a.78.78,0,0,1-.78-.78v-.79H47.82a.532.532,0,0,0-.529.529V67.224a.533.533,0,0,0,.529.529Zm1.958,3.052A11.546,11.546,0,0,1,73.6,69.314H47.82a2.094,2.094,0,0,1-2.089-2.089V26a2.093,2.093,0,0,1,2.089-2.089h7.346V22.414H47.82A3.593,3.593,0,0,0,44.239,26V67.224a3.594,3.594,0,0,0,3.581,3.581ZM85,51.8V39.246L92.3,32.361a1.79,1.79,0,0,0,.075-2.523l-1.59-1.685a1.79,1.79,0,0,0-2.523-.075L85,31.151V26a5.155,5.155,0,0,0-5.142-5.143H72.516v-.8a.78.78,0,0,0-.78-.78h-3.9a4.084,4.084,0,0,0-8,0h-3.9a.78.78,0,0,0-.78.78v.8H47.82A5.155,5.155,0,0,0,42.678,26V67.224a5.155,5.155,0,0,0,5.142,5.142H76.428A11.49,11.49,0,1,0,85,51.8Zm-1.7-.125a11.623,11.623,0,0,0-1.354.079V42.128l1.492-1.408V51.671H83.3ZM78.087,64.777a.778.778,0,1,1,.829-1.317L82,65.411l5.529-6.032a.777.777,0,0,1,1.146,1.049l-5.938,6.478a.778.778,0,0,1-1.018.167Z" transform="translate(0)" fill-rule="evenodd"/>
    </g>
  </g>
</svg>
