<svg xmlns="http://www.w3.org/2000/svg" xmlns:xlink="http://www.w3.org/1999/xlink" width="295" height="295" viewBox="0 0 295 295">
  <defs>
    <clipPath id="clip-path">
      <rect id="Rectángulo_422371" data-name="Rectángulo 422371" width="295" height="295" transform="translate(180 1702)" fill="#fff" stroke="#707070" stroke-width="1"/>
    </clipPath>
    <clipPath id="clip-path-2">
      <rect id="Rectángulo_422641" data-name="Rectángulo 422641" width="394.589" height="295" fill="none"/>
    </clipPath>
    <clipPath id="clip-path-4">
      <rect id="Rectángulo_422570" data-name="Rectángulo 422570" width="153.079" height="156.201" fill="none"/>
    </clipPath>
  </defs>
  <g id="Enmascarar_grupo_1208506" data-name="Enmascarar grupo 1208506" transform="translate(-180 -1702)" clip-path="url(#clip-path)">
    <g id="Grupo_1229895" data-name="Grupo 1229895" transform="translate(126.727 1702)">
      <g id="Grupo_1229894" data-name="Grupo 1229894" clip-path="url(#clip-path-2)">
        <g id="Grupo_1229893" data-name="Grupo 1229893">
          <g id="Grupo_1229892" data-name="Grupo 1229892" clip-path="url(#clip-path-2)">
            <path id="Trazado_1218253" data-name="Trazado 1218253" d="M295.65,219.064c0,7.894-66.185,14.27-147.83,14.27S0,226.957,0,219.064,66.185,204.8,147.821,204.8s147.83,6.382,147.83,14.263" transform="translate(52.938 61.666)" fill="#d8d8d8"/>
            <rect id="Rectángulo_422503" data-name="Rectángulo 422503" width="227.386" height="212.541" transform="translate(49.844 0)" fill="#d3d5fd"/>
            <rect id="Rectángulo_422504" data-name="Rectángulo 422504" width="196.421" height="161.973" transform="translate(65.328 37.374)" fill="#bcc0ed"/>
            <rect id="Rectángulo_422505" data-name="Rectángulo 422505" width="227.386" height="23.445" transform="translate(49.844 0.001)" fill="#bcc0ed"/>
            <rect id="Rectángulo_422506" data-name="Rectángulo 422506" width="12.95" height="12.461" transform="translate(59.708 5.128)" fill="#fff"/>
            <rect id="Rectángulo_422507" data-name="Rectángulo 422507" width="12.955" height="12.461" transform="translate(253.192 5.128)" fill="#fff"/>
            <rect id="Rectángulo_422508" data-name="Rectángulo 422508" width="12.95" height="12.461" transform="translate(235.605 5.128)" fill="#fff"/>
            <rect id="Rectángulo_422509" data-name="Rectángulo 422509" width="12.95" height="12.461" transform="translate(218.016 5.128)" fill="#fff"/>
            <rect id="Rectángulo_422510" data-name="Rectángulo 422510" width="30.525" height="3.393" transform="translate(76.321 46.171)" fill="#fff"/>
            <rect id="Rectángulo_422511" data-name="Rectángulo 422511" width="12.212" height="3.402" transform="translate(91.583 56.34)" fill="#f08422"/>
            <rect id="Rectángulo_422512" data-name="Rectángulo 422512" width="12.203" height="3.402" transform="translate(107.869 56.34)" fill="#f08422"/>
            <rect id="Rectángulo_422513" data-name="Rectángulo 422513" width="12.207" height="3.402" transform="translate(124.151 56.34)" fill="#fff"/>
            <rect id="Rectángulo_422514" data-name="Rectángulo 422514" width="12.212" height="3.402" transform="translate(140.423 56.34)" fill="#fff"/>
            <rect id="Rectángulo_422515" data-name="Rectángulo 422515" width="12.203" height="3.402" transform="translate(155.694 56.34)" fill="#fff"/>
            <rect id="Rectángulo_422516" data-name="Rectángulo 422516" width="12.216" height="3.393" transform="translate(96.672 66.52)" fill="#f08422"/>
            <rect id="Rectángulo_422517" data-name="Rectángulo 422517" width="12.207" height="3.393" transform="translate(112.953 66.52)" fill="#f08422"/>
            <rect id="Rectángulo_422518" data-name="Rectángulo 422518" width="12.203" height="3.393" transform="translate(129.238 66.52)" fill="#fff"/>
            <rect id="Rectángulo_422519" data-name="Rectángulo 422519" width="12.212" height="3.393" transform="translate(145.514 66.52)" fill="#fff"/>
            <rect id="Rectángulo_422520" data-name="Rectángulo 422520" width="12.212" height="3.393" transform="translate(160.776 66.52)" fill="#fff"/>
            <rect id="Rectángulo_422521" data-name="Rectángulo 422521" width="12.216" height="3.393" transform="translate(181.122 66.52)" fill="#fff"/>
            <rect id="Rectángulo_422522" data-name="Rectángulo 422522" width="30.525" height="3.393" transform="translate(76.321 76.696)" fill="#fff"/>
            <rect id="Rectángulo_422523" data-name="Rectángulo 422523" width="12.212" height="3.389" transform="translate(91.583 86.875)" fill="#f08422"/>
            <rect id="Rectángulo_422524" data-name="Rectángulo 422524" width="12.203" height="3.389" transform="translate(107.869 86.875)" fill="#f08422"/>
            <rect id="Rectángulo_422525" data-name="Rectángulo 422525" width="12.207" height="3.389" transform="translate(124.151 86.875)" fill="#fff"/>
            <rect id="Rectángulo_422526" data-name="Rectángulo 422526" width="12.212" height="3.389" transform="translate(140.423 86.875)" fill="#fff"/>
            <rect id="Rectángulo_422527" data-name="Rectángulo 422527" width="12.203" height="3.389" transform="translate(155.694 86.875)" fill="#fff"/>
            <rect id="Rectángulo_422528" data-name="Rectángulo 422528" width="12.216" height="3.397" transform="translate(96.672 97.045)" fill="#f08422"/>
            <rect id="Rectángulo_422529" data-name="Rectángulo 422529" width="12.207" height="3.397" transform="translate(112.953 97.045)" fill="#f08422"/>
            <rect id="Rectángulo_422530" data-name="Rectángulo 422530" width="12.203" height="3.397" transform="translate(129.238 97.045)" fill="#fff"/>
            <rect id="Rectángulo_422531" data-name="Rectángulo 422531" width="12.212" height="3.397" transform="translate(145.514 97.045)" fill="#fff"/>
            <rect id="Rectángulo_422532" data-name="Rectángulo 422532" width="12.212" height="3.397" transform="translate(160.776 97.045)" fill="#fff"/>
            <rect id="Rectángulo_422533" data-name="Rectángulo 422533" width="12.216" height="3.397" transform="translate(181.122 97.045)" fill="#fff"/>
            <rect id="Rectángulo_422534" data-name="Rectángulo 422534" width="30.529" height="3.393" transform="translate(111.935 107.22)" fill="#fff"/>
            <rect id="Rectángulo_422535" data-name="Rectángulo 422535" width="12.212" height="3.397" transform="translate(127.196 117.396)" fill="#f08422"/>
            <rect id="Rectángulo_422536" data-name="Rectángulo 422536" width="12.212" height="3.397" transform="translate(143.482 117.396)" fill="#f08422"/>
            <rect id="Rectángulo_422537" data-name="Rectángulo 422537" width="12.212" height="3.397" transform="translate(159.758 117.396)" fill="#fff"/>
            <rect id="Rectángulo_422538" data-name="Rectángulo 422538" width="12.216" height="3.397" transform="translate(176.035 117.396)" fill="#fff"/>
            <rect id="Rectángulo_422539" data-name="Rectángulo 422539" width="12.216" height="3.397" transform="translate(191.302 117.396)" fill="#fff"/>
            <rect id="Rectángulo_422540" data-name="Rectángulo 422540" width="12.207" height="3.393" transform="translate(132.29 127.574)" fill="#f08422"/>
            <rect id="Rectángulo_422541" data-name="Rectángulo 422541" width="12.207" height="3.393" transform="translate(148.57 127.574)" fill="#f08422"/>
            <rect id="Rectángulo_422542" data-name="Rectángulo 422542" width="12.212" height="3.393" transform="translate(164.851 127.574)" fill="#fff"/>
            <rect id="Rectángulo_422543" data-name="Rectángulo 422543" width="12.216" height="3.393" transform="translate(181.122 127.574)" fill="#fff"/>
            <rect id="Rectángulo_422544" data-name="Rectángulo 422544" width="12.212" height="3.393" transform="translate(196.39 127.574)" fill="#fff"/>
            <rect id="Rectángulo_422545" data-name="Rectángulo 422545" width="12.212" height="3.393" transform="translate(216.739 127.574)" fill="#fff"/>
            <rect id="Rectángulo_422546" data-name="Rectángulo 422546" width="30.529" height="3.388" transform="translate(111.935 142.838)" fill="#fff"/>
            <rect id="Rectángulo_422547" data-name="Rectángulo 422547" width="12.212" height="3.389" transform="translate(127.196 153.016)" fill="#f08422"/>
            <rect id="Rectángulo_422548" data-name="Rectángulo 422548" width="12.212" height="3.389" transform="translate(143.482 153.016)" fill="#f08422"/>
            <rect id="Rectángulo_422549" data-name="Rectángulo 422549" width="12.212" height="3.389" transform="translate(159.758 153.016)" fill="#fff"/>
            <rect id="Rectángulo_422550" data-name="Rectángulo 422550" width="12.216" height="3.389" transform="translate(176.035 153.016)" fill="#fff"/>
            <rect id="Rectángulo_422551" data-name="Rectángulo 422551" width="12.216" height="3.389" transform="translate(191.302 153.016)" fill="#fff"/>
            <rect id="Rectángulo_422552" data-name="Rectángulo 422552" width="12.207" height="3.397" transform="translate(132.29 163.183)" fill="#f08422"/>
            <rect id="Rectángulo_422553" data-name="Rectángulo 422553" width="12.207" height="3.397" transform="translate(148.57 163.183)" fill="#f08422"/>
            <rect id="Rectángulo_422554" data-name="Rectángulo 422554" width="12.212" height="3.397" transform="translate(164.851 163.183)" fill="#fff"/>
            <rect id="Rectángulo_422555" data-name="Rectángulo 422555" width="12.216" height="3.397" transform="translate(181.122 163.183)" fill="#fff"/>
            <rect id="Rectángulo_422556" data-name="Rectángulo 422556" width="12.212" height="3.397" transform="translate(196.39 163.183)" fill="#fff"/>
            <rect id="Rectángulo_422557" data-name="Rectángulo 422557" width="12.212" height="3.397" transform="translate(216.739 163.183)" fill="#fff"/>
            <rect id="Rectángulo_422558" data-name="Rectángulo 422558" width="30.525" height="3.393" transform="translate(76.321 168.275)" fill="#fff"/>
            <rect id="Rectángulo_422559" data-name="Rectángulo 422559" width="12.212" height="3.402" transform="translate(91.583 178.445)" fill="#f08422"/>
            <rect id="Rectángulo_422560" data-name="Rectángulo 422560" width="12.203" height="3.402" transform="translate(107.869 178.445)" fill="#f08422"/>
            <rect id="Rectángulo_422561" data-name="Rectángulo 422561" width="12.207" height="3.402" transform="translate(124.151 178.445)" fill="#fff"/>
            <rect id="Rectángulo_422562" data-name="Rectángulo 422562" width="12.212" height="3.402" transform="translate(140.423 178.445)" fill="#fff"/>
            <rect id="Rectángulo_422563" data-name="Rectángulo 422563" width="12.203" height="3.402" transform="translate(155.694 178.445)" fill="#fff"/>
            <rect id="Rectángulo_422564" data-name="Rectángulo 422564" width="12.216" height="3.393" transform="translate(96.672 188.625)" fill="#f08422"/>
            <rect id="Rectángulo_422565" data-name="Rectángulo 422565" width="12.207" height="3.393" transform="translate(112.953 188.625)" fill="#f08422"/>
            <rect id="Rectángulo_422566" data-name="Rectángulo 422566" width="12.203" height="3.393" transform="translate(129.238 188.625)" fill="#fff"/>
            <rect id="Rectángulo_422567" data-name="Rectángulo 422567" width="12.212" height="3.393" transform="translate(145.514 188.625)" fill="#fff"/>
            <rect id="Rectángulo_422568" data-name="Rectángulo 422568" width="12.212" height="3.393" transform="translate(160.776 188.625)" fill="#fff"/>
            <rect id="Rectángulo_422569" data-name="Rectángulo 422569" width="12.216" height="3.393" transform="translate(181.122 188.625)" fill="#fff"/>
            <g id="Grupo_1229891" data-name="Grupo 1229891" transform="translate(124.15 56.34)" opacity="0.2">
              <g id="Grupo_1229890" data-name="Grupo 1229890">
                <g id="Grupo_1229889" data-name="Grupo 1229889" clip-path="url(#clip-path-4)">
                  <path id="Trazado_1218254" data-name="Trazado 1218254" d="M247.053,43.3H95.419V199.5H248.5Z" transform="translate(-95.419 -43.302)"/>
                </g>
              </g>
            </g>
            <rect id="Rectángulo_422571" data-name="Rectángulo 422571" width="211.905" height="212.545" transform="translate(132.288 65.396)" fill="#f5feff"/>
            <rect id="Rectángulo_422572" data-name="Rectángulo 422572" width="186.421" height="161.973" transform="translate(147.773 102.778)" fill="#bcc0ed"/>
            <rect id="Rectángulo_422573" data-name="Rectángulo 422573" width="211.905" height="23.454" transform="translate(132.288 65.396)" fill="#bcc0ed"/>
            <rect id="Rectángulo_422574" data-name="Rectángulo 422574" width="12.954" height="12.457" transform="translate(142.149 70.526)" fill="#fff"/>
            <rect id="Rectángulo_422575" data-name="Rectángulo 422575" width="12.955" height="12.457" transform="translate(315.86 70.526)" fill="#fff"/>
            <rect id="Rectángulo_422576" data-name="Rectángulo 422576" width="12.95" height="12.457" transform="translate(298.272 70.526)" fill="#fff"/>
            <rect id="Rectángulo_422577" data-name="Rectángulo 422577" width="12.95" height="12.457" transform="translate(280.684 70.526)" fill="#fff"/>
            <rect id="Rectángulo_422578" data-name="Rectángulo 422578" width="30.52" height="3.388" transform="translate(158.767 111.571)" fill="#fff"/>
            <rect id="Rectángulo_422579" data-name="Rectángulo 422579" width="12.216" height="3.397" transform="translate(174.025 121.741)" fill="#f08422"/>
            <rect id="Rectángulo_422580" data-name="Rectángulo 422580" width="12.198" height="3.397" transform="translate(190.315 121.741)" fill="#f08422"/>
            <rect id="Rectángulo_422581" data-name="Rectángulo 422581" width="12.207" height="3.397" transform="translate(206.591 121.741)" fill="#fff"/>
            <rect id="Rectángulo_422582" data-name="Rectángulo 422582" width="12.216" height="3.397" transform="translate(222.868 121.741)" fill="#fff"/>
            <rect id="Rectángulo_422583" data-name="Rectángulo 422583" width="12.207" height="3.397" transform="translate(238.135 121.741)" fill="#fff"/>
            <rect id="Rectángulo_422584" data-name="Rectángulo 422584" width="12.216" height="3.393" transform="translate(179.112 131.92)" fill="#f08422"/>
            <rect id="Rectángulo_422585" data-name="Rectángulo 422585" width="12.212" height="3.393" transform="translate(195.393 131.92)" fill="#f08422"/>
            <rect id="Rectángulo_422586" data-name="Rectángulo 422586" width="12.198" height="3.393" transform="translate(211.684 131.92)" fill="#fff"/>
            <rect id="Rectángulo_422587" data-name="Rectángulo 422587" width="12.212" height="3.393" transform="translate(227.954 131.92)" fill="#fff"/>
            <rect id="Rectángulo_422588" data-name="Rectángulo 422588" width="12.212" height="3.393" transform="translate(243.217 131.92)" fill="#fff"/>
            <rect id="Rectángulo_422589" data-name="Rectángulo 422589" width="12.216" height="3.393" transform="translate(263.568 131.92)" fill="#fff"/>
            <rect id="Rectángulo_422590" data-name="Rectángulo 422590" width="30.52" height="3.402" transform="translate(158.767 142.089)" fill="#fff"/>
            <rect id="Rectángulo_422591" data-name="Rectángulo 422591" width="12.216" height="3.393" transform="translate(174.025 152.269)" fill="#f08422"/>
            <rect id="Rectángulo_422592" data-name="Rectángulo 422592" width="12.198" height="3.393" transform="translate(190.315 152.269)" fill="#f08422"/>
            <rect id="Rectángulo_422593" data-name="Rectángulo 422593" width="12.207" height="3.393" transform="translate(206.591 152.269)" fill="#fff"/>
            <rect id="Rectángulo_422594" data-name="Rectángulo 422594" width="12.216" height="3.393" transform="translate(222.868 152.269)" fill="#fff"/>
            <rect id="Rectángulo_422595" data-name="Rectángulo 422595" width="12.207" height="3.393" transform="translate(238.135 152.269)" fill="#fff"/>
            <rect id="Rectángulo_422596" data-name="Rectángulo 422596" width="12.216" height="3.393" transform="translate(179.112 162.445)" fill="#f08422"/>
            <rect id="Rectángulo_422597" data-name="Rectángulo 422597" width="12.212" height="3.393" transform="translate(195.393 162.445)" fill="#f08422"/>
            <rect id="Rectángulo_422598" data-name="Rectángulo 422598" width="12.198" height="3.393" transform="translate(211.684 162.445)" fill="#fff"/>
            <rect id="Rectángulo_422599" data-name="Rectángulo 422599" width="12.212" height="3.393" transform="translate(227.954 162.445)" fill="#fff"/>
            <rect id="Rectángulo_422600" data-name="Rectángulo 422600" width="12.212" height="3.393" transform="translate(243.217 162.445)" fill="#fff"/>
            <rect id="Rectángulo_422601" data-name="Rectángulo 422601" width="12.216" height="3.393" transform="translate(263.568 162.445)" fill="#fff"/>
            <rect id="Rectángulo_422602" data-name="Rectángulo 422602" width="30.529" height="3.388" transform="translate(194.379 172.625)" fill="#fff"/>
            <rect id="Rectángulo_422603" data-name="Rectángulo 422603" width="12.212" height="3.397" transform="translate(209.641 182.796)" fill="#f08422"/>
            <rect id="Rectángulo_422604" data-name="Rectángulo 422604" width="12.212" height="3.397" transform="translate(225.922 182.796)" fill="#f08422"/>
            <rect id="Rectángulo_422605" data-name="Rectángulo 422605" width="12.212" height="3.397" transform="translate(242.204 182.796)" fill="#fff"/>
            <rect id="Rectángulo_422606" data-name="Rectángulo 422606" width="12.212" height="3.397" transform="translate(258.479 182.796)" fill="#fff"/>
            <rect id="Rectángulo_422607" data-name="Rectángulo 422607" width="12.212" height="3.397" transform="translate(273.747 182.796)" fill="#fff"/>
            <rect id="Rectángulo_422608" data-name="Rectángulo 422608" width="12.212" height="3.393" transform="translate(214.73 192.97)" fill="#f08422"/>
            <rect id="Rectángulo_422609" data-name="Rectángulo 422609" width="12.203" height="3.393" transform="translate(231.014 192.97)" fill="#f08422"/>
            <rect id="Rectángulo_422610" data-name="Rectángulo 422610" width="12.212" height="3.393" transform="translate(247.291 192.97)" fill="#fff"/>
            <rect id="Rectángulo_422611" data-name="Rectángulo 422611" width="12.216" height="3.393" transform="translate(263.568 192.97)" fill="#fff"/>
            <rect id="Rectángulo_422612" data-name="Rectángulo 422612" width="12.216" height="3.393" transform="translate(278.83 192.97)" fill="#fff"/>
            <rect id="Rectángulo_422613" data-name="Rectángulo 422613" width="12.207" height="3.393" transform="translate(299.186 192.97)" fill="#fff"/>
            <rect id="Rectángulo_422614" data-name="Rectángulo 422614" width="30.529" height="3.397" transform="translate(194.379 208.232)" fill="#fff"/>
            <rect id="Rectángulo_422615" data-name="Rectángulo 422615" width="12.212" height="3.393" transform="translate(209.641 218.412)" fill="#f08422"/>
            <rect id="Rectángulo_422616" data-name="Rectángulo 422616" width="12.212" height="3.393" transform="translate(225.922 218.412)" fill="#f08422"/>
            <rect id="Rectángulo_422617" data-name="Rectángulo 422617" width="12.212" height="3.393" transform="translate(242.204 218.412)" fill="#fff"/>
            <rect id="Rectángulo_422618" data-name="Rectángulo 422618" width="12.212" height="3.393" transform="translate(258.479 218.412)" fill="#fff"/>
            <rect id="Rectángulo_422619" data-name="Rectángulo 422619" width="12.212" height="3.393" transform="translate(273.747 218.412)" fill="#fff"/>
            <rect id="Rectángulo_422620" data-name="Rectángulo 422620" width="12.212" height="3.388" transform="translate(214.73 228.588)" fill="#f08422"/>
            <rect id="Rectángulo_422621" data-name="Rectángulo 422621" width="12.203" height="3.388" transform="translate(231.014 228.588)" fill="#f08422"/>
            <rect id="Rectángulo_422622" data-name="Rectángulo 422622" width="12.212" height="3.388" transform="translate(247.291 228.588)" fill="#fff"/>
            <rect id="Rectángulo_422623" data-name="Rectángulo 422623" width="12.216" height="3.388" transform="translate(263.568 228.588)" fill="#fff"/>
            <rect id="Rectángulo_422624" data-name="Rectángulo 422624" width="12.216" height="3.388" transform="translate(278.83 228.588)" fill="#fff"/>
            <rect id="Rectángulo_422625" data-name="Rectángulo 422625" width="12.207" height="3.388" transform="translate(299.186 228.588)" fill="#fff"/>
            <rect id="Rectángulo_422626" data-name="Rectángulo 422626" width="30.52" height="3.389" transform="translate(158.767 233.674)" fill="#fff"/>
            <rect id="Rectángulo_422627" data-name="Rectángulo 422627" width="12.216" height="3.393" transform="translate(174.025 243.849)" fill="#f08422"/>
            <rect id="Rectángulo_422628" data-name="Rectángulo 422628" width="12.198" height="3.393" transform="translate(190.315 243.849)" fill="#f08422"/>
            <rect id="Rectángulo_422629" data-name="Rectángulo 422629" width="12.207" height="3.393" transform="translate(206.591 243.849)" fill="#fff"/>
            <rect id="Rectángulo_422630" data-name="Rectángulo 422630" width="12.216" height="3.393" transform="translate(222.868 243.849)" fill="#fff"/>
            <rect id="Rectángulo_422631" data-name="Rectángulo 422631" width="12.207" height="3.393" transform="translate(238.135 243.849)" fill="#fff"/>
            <rect id="Rectángulo_422632" data-name="Rectángulo 422632" width="12.216" height="3.393" transform="translate(179.112 254.024)" fill="#f08422"/>
            <rect id="Rectángulo_422633" data-name="Rectángulo 422633" width="12.212" height="3.393" transform="translate(195.393 254.024)" fill="#f08422"/>
            <rect id="Rectángulo_422634" data-name="Rectángulo 422634" width="12.198" height="3.393" transform="translate(211.684 254.024)" fill="#fff"/>
            <rect id="Rectángulo_422635" data-name="Rectángulo 422635" width="12.212" height="3.393" transform="translate(227.954 254.024)" fill="#fff"/>
            <rect id="Rectángulo_422636" data-name="Rectángulo 422636" width="12.212" height="3.393" transform="translate(243.217 254.024)" fill="#fff"/>
            <rect id="Rectángulo_422637" data-name="Rectángulo 422637" width="12.216" height="3.393" transform="translate(263.568 254.024)" fill="#fff"/>
            <path id="Trazado_1218255" data-name="Trazado 1218255" d="M179.107,74.589A54.179,54.179,0,1,1,124.932,20.4a54.179,54.179,0,0,1,54.175,54.184" transform="translate(21.303 6.144)" fill="#f95f6b"/>
            <rect id="Rectángulo_422638" data-name="Rectángulo 422638" width="11.08" height="63.205" transform="translate(119.309 63.277) rotate(-47.112)" fill="#fff"/>
            <rect id="Rectángulo_422639" data-name="Rectángulo 422639" width="63.214" height="11.085" transform="matrix(0.678, -0.735, 0.735, 0.678, 120.716, 100.183)" fill="#fff"/>
            <path id="Trazado_1218256" data-name="Trazado 1218256" d="M195.063,187c1.41,19.865,8.775,50.777,9.8,67.489.081,1.161.25,1.379-3.984,2.362-4.9,1.135-1.129,3.465,6.546,3.4,7.2-.062,10.419-31.366,11.114-47.926.2-4.657-1.6-18.727.857-31.993.3,4.962.73,10.607,1.348,16.8,1.841,18.118,23.458,41.871,25.09,57.111.12,1.178-.035,1.632-3.824,2.814-3.807,1.171-.121,3.362,6.461,3.189s2.561-31.726-.855-46.5c-3-12.924-4.766-25.114-8.6-59.259.018,0,.044-.009.044-.013a.425.425,0,0,0-.044.009c-.031-.316-.068-.587-.1-.907-.671-12.012-1.587-19.7,4.4-30.321,8.6-15.236-3.495-19.883-10.806-22.885-7.307-3.02-27.665-5.821-29.832,5.959-1.823,9.952,7.066,24.6,1.37,39.918-.316.881-10.625,17.829-8.988,40.753" transform="translate(58.681 29.428)" fill="#ee9d7f"/>
            <path id="Trazado_1218257" data-name="Trazado 1218257" d="M223.661,101.194c-1.289-1.477-4.843-3.513-8.92.239-5.47,5.012-12.742,19.719-22.813,21.907s-14.765-2.952-18.353-5.99-3.612-5.937-5.893-7.466-4,1.24.6,7.475c2.211,2.98,11.273,19.021,23.752,18.638,16.374-.507,37.858-27.763,31.632-34.8" transform="translate(49.797 29.899)" fill="#ee9d7f"/>
            <path id="Trazado_1218258" data-name="Trazado 1218258" d="M202.094,138.042c13.106,9.637,29.973,6.643,37.111,5.124,1.935,17.182,13.217,81.573,14.541,90.427-5.763,2.086-7.679,2.544-9.343,2.544-30.755-45.213-24.7-62.975-25.006-67.938-1.049,5.714,2.492,40.363-3.522,67.938-2.019,1.429-8.116,3.283-12.479,0-.213-1.766-8.218-59.649-8.334-61.271a75.364,75.364,0,0,1,7.031-36.822" transform="translate(58.681 41.565)" fill="#c86cdb"/>
            <path id="Trazado_1218259" data-name="Trazado 1218259" d="M237.469,116.716s6.969-19.727-15.285-1.3c-3.287,2.7-1.858,15.73-1.858,15.73l9.231,4.865Z" transform="translate(66.247 32.383)" fill="#e67052"/>
            <path id="Trazado_1218260" data-name="Trazado 1218260" d="M233.888,101.142s-8.916,18.843-22.008,15.983c-3.927-.857-7.027-6.4,5.056-19.825l-4.363.973A86.425,86.425,0,0,0,197.2,132.512c-3.758,19.742-.049,28.76-.049,28.76s3.981,3.4,22.05,5.026c8.062.719,14.9.155,20.848-1.712,0,0-2.525-22.646-1.072-30.356,0,0-10.7-.018-9.583-14.325.933-11.811,7.991-17.4,7.991-17.4Z" transform="translate(58.87 29.297)" fill="#fcdcda"/>
            <path id="Trazado_1218261" data-name="Trazado 1218261" d="M225.919,91.728s-4.216,5.43-.658,9.61c3.629,4.291-15.4,9.512-14.182,6.075,1.57-4.456,4.506-6.64,3.452-12.407Z" transform="translate(63.539 27.619)" fill="#e67052"/>
            <path id="Trazado_1218262" data-name="Trazado 1218262" d="M219.336,81.472c-4.7,2.792-12.492,17.988-9.2,22.449,1.432,1.943,9.152,1.841,15.37-4.2,2.551-2.473,6.141-7.4,4.416-13.555-.774-2.788-5.092-7.938-10.584-4.692" transform="translate(63.035 24.219)" fill="#f3b294"/>
            <path id="Trazado_1218263" data-name="Trazado 1218263" d="M226.71,148.35c.956-2.917-.5-4.7-5.345-5.363-7.187-.943-18.34-5.92-12.337-4.785a59.022,59.022,0,0,0,21.075,0c6.818-1.392,8.494-12.519,8.494-12.519-1.453,7.712,1.072,30.357,1.072,30.357-5.95,1.867-12.786,2.432-20.848,1.711-18.068-1.622-22.05-5.025-22.05-5.025,23.9,3.572,29.12-1.952,29.938-4.376" transform="translate(59.248 37.843)" fill="#efbebd"/>
            <path id="Trazado_1218264" data-name="Trazado 1218264" d="M213.81,82.9c-1.317,1.828-1.17,2.358,4.718,4.635,5.861,2.3,6.987,2.13,6.049,3.441-2.753,3.86,1.757,3.993-1.606,8.578s2.446,2.637,5.612-1.01c.658-.743,4.114-4.26,2.562-11.242-1.806-8.166-12.5-11.109-17.335-4.4" transform="translate(64.175 23.846)" fill="#aa3c3c"/>
            <path id="Trazado_1218265" data-name="Trazado 1218265" d="M224.278,96.064s-1.214,1.276-4.252,0-7.2-5.435-8.893-5.26c-1.721.16-3.856,9-.774,11.126,3.077,2.113,12.358.027,15.44-3.721.671-.805-1.521-2.144-1.521-2.144" transform="translate(62.869 27.339)" fill="#aa3c3c"/>
            <path id="Trazado_1218266" data-name="Trazado 1218266" d="M215.03,96.642s-.761-2.838-2.8-3.434-2.211,1.953-1.962,2.891c.259.92,3.069,3.268,4.763,2.739s.383-1.2,0-2.2" transform="translate(63.285 28.038)" fill="#f3b294"/>
            <path id="Trazado_1218267" data-name="Trazado 1218267" d="M230.468,87.3a11.6,11.6,0,0,1-2.562,11.243,19.573,19.573,0,0,1-8.694,6.2c-.414.209,2.509-1.645,2.126-2.886-.441-1.49,3.566-1.12,3.268-4.944s2.251-4.056,2.371-7.289c.156-3.248-2.317-3.172-8.935-5.764-2.7-1.05-3-2.255-2.4-3.309,5.314-3.345,12.95-.12,14.826,6.746" transform="translate(64.852 23.854)" fill="#aa3c3c"/>
            <path id="Trazado_1218268" data-name="Trazado 1218268" d="M210.63,219.745s-5.727,2.509-9.259,0c0,0-6.444.965-2.393,2.691,4.07,1.73,11.9,3.167,11.651-2.691" transform="translate(59.51 66.166)" fill="#7585f8"/>
            <path id="Trazado_1218269" data-name="Trazado 1218269" d="M241.229,220.186s-5.727,2.5-9.259,0c0,0-6.457.965-2.389,2.691,4.052,1.725,11.887,3.158,11.647-2.691" transform="translate(68.722 66.298)" fill="#7585f8"/>
            <path id="Trazado_1218270" data-name="Trazado 1218270" d="M247.737,106.983s-4-3.989-8.876.471c-5.679,5.19-9.237,23.4-18.888,27.978-9.645,4.549-15.591.475-19.913-1.749-4.34-2.224-5.034-5.128-7.7-6.141s-3.73,2.188,2.362,7.4c2.918,2.49,15.837,16.542,28.342,13.226,16.378-4.353,32.6-35.542,24.673-41.185" transform="translate(57.283 31.719)" fill="#ee9d7f"/>
          </g>
        </g>
      </g>
    </g>
  </g>
</svg>
