<svg xmlns="http://www.w3.org/2000/svg" xmlns:xlink="http://www.w3.org/1999/xlink" width="106.16" height="106.16" viewBox="0 0 106.16 106.16">
  <defs>
    <filter id="Trazado_982547" x="0" y="0" width="106.16" height="106.16" filterUnits="userSpaceOnUse">
      <feOffset dy="3" input="SourceAlpha"/>
      <feGaussianBlur stdDeviation="3" result="blur"/>
      <feFlood flood-opacity="0.161"/>
      <feComposite operator="in" in2="blur"/>
      <feComposite in="SourceGraphic"/>
    </filter>
  </defs>
  <g id="Grupo_1229901" data-name="Grupo 1229901" transform="translate(-190.925 -2891)">
    <g id="Grupo_1225951" data-name="Grupo 1225951" transform="translate(-0.075 -570.464)">
      <g id="Grupo_1224851" data-name="Grupo 1224851" transform="translate(0 1738.464)">
        <g id="Grupo_1206130" data-name="Grupo 1206130" transform="translate(0 -59)">
          <g id="Grupo_1203672" data-name="Grupo 1203672" transform="translate(0.08 -4797.878)">
            <g id="Grupo_1203344" data-name="Grupo 1203344" transform="translate(-81.08 5174.875)">
              <g id="Grupo_1177900" data-name="Grupo 1177900" transform="translate(281 1411.003)">
                <g id="Grupo_1172010" data-name="Grupo 1172010" transform="translate(0)">
                  <g id="Grupo_1171046" data-name="Grupo 1171046">
                    <g id="Grupo_1148525" data-name="Grupo 1148525">
                      <g transform="matrix(1, 0, 0, 1, -9, -6)" filter="url(#Trazado_982547)">
                        <g id="Trazado_982547-2" data-name="Trazado 982547" transform="translate(9 6)" fill="#e5ebfb">
                          <path d="M 44.0802001953125 86.660400390625 C 38.33124923706055 86.660400390625 32.75506210327148 85.53479766845703 27.50652503967285 83.31484985351562 C 22.43628692626953 81.17032623291016 17.88242530822754 78.09992218017578 13.97144985198975 74.18894958496094 C 10.06047534942627 70.27797698974609 6.99007511138916 65.72411346435547 4.845550060272217 60.65387344360352 C 2.625600099563599 55.40533828735352 1.500000238418579 49.82915115356445 1.500000238418579 44.0802001953125 C 1.500000238418579 38.33124923706055 2.625600099563599 32.75506210327148 4.845550060272217 27.50652503967285 C 6.99007511138916 22.43628692626953 10.06047534942627 17.88242530822754 13.97144985198975 13.97144985198975 C 17.88242530822754 10.06047534942627 22.43628692626953 6.99007511138916 27.50652503967285 4.845550060272217 C 32.75506210327148 2.625600099563599 38.33124923706055 1.500000238418579 44.0802001953125 1.500000238418579 C 49.82915115356445 1.500000238418579 55.40533828735352 2.625600099563599 60.65387344360352 4.845550060272217 C 65.72411346435547 6.99007511138916 70.27797698974609 10.06047534942627 74.18894958496094 13.97144985198975 C 78.09992218017578 17.88242530822754 81.17032623291016 22.43628692626953 83.31484985351562 27.50652503967285 C 85.53479766845703 32.75506210327148 86.660400390625 38.33124923706055 86.660400390625 44.0802001953125 C 86.660400390625 49.82915115356445 85.53479766845703 55.40533828735352 83.31484985351562 60.65387344360352 C 81.17032623291016 65.72411346435547 78.09992218017578 70.27797698974609 74.18894958496094 74.18894958496094 C 70.27797698974609 78.09992218017578 65.72411346435547 81.17032623291016 60.65387344360352 83.31484985351562 C 55.40533828735352 85.53479766845703 49.82915115356445 86.660400390625 44.0802001953125 86.660400390625 Z" stroke="none"/>
                          <path d="M 44.0802001953125 3 C 38.53308486938477 3 33.15349960327148 4.085746765136719 28.09085845947266 6.227058410644531 C 23.19941711425781 8.29595947265625 18.80581665039062 11.25841522216797 15.03211212158203 15.03211212158203 C 11.25841522216797 18.80581665039062 8.29595947265625 23.19941711425781 6.227058410644531 28.09085845947266 C 4.085746765136719 33.15349960327148 3 38.53308486938477 3 44.0802001953125 C 3 49.62731552124023 4.085746765136719 55.00691604614258 6.227058410644531 60.06954193115234 C 8.29595947265625 64.96098327636719 11.25841522216797 69.35458374023438 15.03211212158203 73.12828826904297 C 18.80581665039062 76.90198516845703 23.19941711425781 79.86444091796875 28.09085845947266 81.93334197998047 C 33.15349960327148 84.07466125488281 38.53308486938477 85.160400390625 44.0802001953125 85.160400390625 C 49.62731552124023 85.160400390625 55.00691604614258 84.07466125488281 60.06954193115234 81.93334197998047 C 64.96099853515625 79.86444091796875 69.35458374023438 76.90198516845703 73.12828826904297 73.12828826904297 C 76.90198516845703 69.35458374023438 79.86444091796875 64.96099853515625 81.93334197998047 60.06954193115234 C 84.07466125488281 55.00691604614258 85.160400390625 49.62731552124023 85.160400390625 44.0802001953125 C 85.160400390625 38.53308486938477 84.07466125488281 33.15349960327148 81.93334197998047 28.09085845947266 C 79.86444091796875 23.19941711425781 76.90198516845703 18.80581665039062 73.12828826904297 15.03211212158203 C 69.35458374023438 11.25841522216797 64.96098327636719 8.29595947265625 60.06954193115234 6.227058410644531 C 55.00691604614258 4.085746765136719 49.62731552124023 3 44.0802001953125 3 M 44.0802001953125 0 C 68.42502593994141 0 88.160400390625 19.73538970947266 88.160400390625 44.0802001953125 C 88.160400390625 68.42502593994141 68.42502593994141 88.160400390625 44.0802001953125 88.160400390625 C 19.73538970947266 88.160400390625 0 68.42502593994141 0 44.0802001953125 C 0 19.73538970947266 19.73538970947266 0 44.0802001953125 0 Z" stroke="none" fill="#0b47db"/>
                        </g>
                      </g>
                    </g>
                  </g>
                </g>
              </g>
            </g>
          </g>
        </g>
      </g>
    </g>
    <g id="Grupo_1229899" data-name="Grupo 1229899" transform="translate(214.805 2913.878)">
      <g id="Grupo_1229896" data-name="Grupo 1229896" transform="translate(6.838)">
        <path id="Trazado_1218271" data-name="Trazado 1218271" d="M117.707,23.046V56.181a4.728,4.728,0,0,1-4.729,4.729H75.869a4.728,4.728,0,0,1-4.729-4.729V12.233A4.729,4.729,0,0,1,75.869,7.5h26.3a5.911,5.911,0,0,1,4.179,1.731l9.632,9.632A5.91,5.91,0,0,1,117.707,23.046Z" transform="translate(-71.14 -7.504)" fill="#f9f6f9"/>
        <path id="Trazado_1218272" data-name="Trazado 1218272" d="M367.015,23.048v1.009a3.458,3.458,0,0,0-3.458-3.458h-4.908a4.728,4.728,0,0,1-4.728-4.728V10.963a3.458,3.458,0,0,0-3.458-3.458h1.009a5.915,5.915,0,0,1,4.18,1.731l9.631,9.631A5.915,5.915,0,0,1,367.015,23.048Z" transform="translate(-320.448 -7.505)" fill="#dddaec"/>
      </g>
      <g id="Grupo_1229898" data-name="Grupo 1229898" transform="translate(0 3.068)">
        <path id="Trazado_1218273" data-name="Trazado 1218273" d="M27.863,40.066a1.811,1.811,0,0,0-.818-2.428l-2.806-1.39a1.811,1.811,0,0,0-2.428.818l-5.552,11.2-2.7-4.522a1.811,1.811,0,0,0-2.485-.625L8.384,44.727a1.812,1.812,0,0,0-.625,2.485l5.327,8.911A1.812,1.812,0,0,0,14.711,57l3.777-.149a1.809,1.809,0,0,0,1.551-1.005Z" transform="translate(-7.502 -36.059)" fill="#b3e59f"/>
        <g id="Grupo_1229897" data-name="Grupo 1229897" transform="translate(0 0)">
          <path id="Trazado_1218274" data-name="Trazado 1218274" d="M90.129,50.159l6.488-13.09a1.8,1.8,0,0,1,.61-.7l-.247-.122a1.811,1.811,0,0,0-2.428.818L89,48.27Z" transform="translate(-80.242 -36.061)" fill="#95d6a4"/>
          <path id="Trazado_1218275" data-name="Trazado 1218275" d="M15.151,112.65l-5.327-8.911a1.812,1.812,0,0,1,.625-2.485l2.579-1.541a1.81,1.81,0,0,0-1.958-.064l-2.687,1.606a1.812,1.812,0,0,0-.625,2.485l5.327,8.911a1.812,1.812,0,0,0,1.625.881l1.531-.06a1.814,1.814,0,0,1-1.09-.821Z" transform="translate(-7.502 -92.586)" fill="#95d6a4"/>
        </g>
      </g>
    </g>
    <g id="Grupo_1229900" data-name="Grupo 1229900" transform="translate(214 2913.071)">
      <path id="Trazado_1218276" data-name="Trazado 1218276" d="M55.025,16.348A6.672,6.672,0,0,0,53.058,11.6L43.426,1.968A6.672,6.672,0,0,0,38.677,0H12.38A5.541,5.541,0,0,0,6.846,5.535v4.836a2.622,2.622,0,0,0-2.876-.126L1.281,11.851a2.621,2.621,0,0,0-.9,3.59l5.327,8.91a2.62,2.62,0,0,0,1.14,1.029v24.1a5.541,5.541,0,0,0,5.534,5.535H49.49a5.541,5.541,0,0,0,5.534-5.535V47.521a.806.806,0,0,0-1.612,0v1.962a3.927,3.927,0,0,1-3.922,3.923H12.38a3.927,3.927,0,0,1-3.922-3.923V25.61l3.373-.133a2.611,2.611,0,0,0,2.241-1.452L21.9,8.24a2.618,2.618,0,0,0-1.183-3.509l-2.8-1.389A2.621,2.621,0,0,0,14.4,4.524L12.682,7.993a.806.806,0,0,0,1.444.716L15.845,5.24a1.008,1.008,0,0,1,1.349-.454L20,6.176a1.006,1.006,0,0,1,.455,1.348L12.628,23.309a1,1,0,0,1-.86.557l-3.776.149a1.011,1.011,0,0,1-.9-.49L1.763,14.614a1.007,1.007,0,0,1,.346-1.38L4.8,11.629a1.007,1.007,0,0,1,1.379.347L8.88,16.5a.806.806,0,0,0,1.414-.056L12.7,11.58a.806.806,0,1,0-1.444-.716L9.505,14.4,8.458,12.652V5.535A3.927,3.927,0,0,1,12.38,1.612h25.3a2.655,2.655,0,0,1,2.635,2.652V9.171a5.541,5.541,0,0,0,5.534,5.535h4.908a2.655,2.655,0,0,1,2.652,2.651V44.3a.806.806,0,0,0,1.612,0Zm-9.172-3.254a3.927,3.927,0,0,1-3.922-3.923V4.264a4.238,4.238,0,0,0-.387-1.771,5.16,5.16,0,0,1,.742.614l9.632,9.632a5.157,5.157,0,0,1,.615.743,4.238,4.238,0,0,0-1.772-.387Z" transform="translate(-0.009 0)"/>
      <path id="Trazado_1218277" data-name="Trazado 1218277" d="M167.556,339.894H136.468a.806.806,0,1,0,0,1.612h31.088a.806.806,0,1,0,0-1.612Z" transform="translate(-121.085 -303.37)"/>
      <path id="Trazado_1218278" data-name="Trazado 1218278" d="M168.362,394.073a.806.806,0,0,0-.806-.806H136.468a.806.806,0,1,0,0,1.612h31.088A.806.806,0,0,0,168.362,394.073Z" transform="translate(-121.085 -351.008)"/>
      <path id="Trazado_1218279" data-name="Trazado 1218279" d="M136.468,446.64a.806.806,0,0,0,0,1.612h15.846a.806.806,0,0,0,0-1.612Z" transform="translate(-121.085 -398.645)"/>
      <path id="Trazado_1218280" data-name="Trazado 1218280" d="M194.664,251.637a.806.806,0,0,0,.753-.519l.3-.778h2.074l.293.776a.806.806,0,1,0,1.508-.569l-1.965-5.208-.009-.022a.922.922,0,0,0-.856-.574h0a.923.923,0,0,0-.856.575l-.007.018-1.984,5.208a.807.807,0,0,0,.753,1.093Zm2.516-2.909h-.852l.428-1.124Z" transform="translate(-173.027 -218.443)"/>
      <path id="Trazado_1218281" data-name="Trazado 1218281" d="M364.395,251.637a.806.806,0,0,0,.753-.519l.3-.778h2.074l.293.776a.806.806,0,1,0,1.508-.569l-1.965-5.208-.009-.022a.922.922,0,0,0-.856-.574h0a.923.923,0,0,0-.856.575l-.007.018-1.984,5.208a.807.807,0,0,0,.753,1.093Zm2.516-2.909h-.852l.428-1.124Z" transform="translate(-324.519 -218.443)"/>
      <path id="Trazado_1218282" data-name="Trazado 1218282" d="M253.562,244.788a.806.806,0,0,0-.566.769v5.273a.806.806,0,0,0,1.612,0v-2.687l2.1,3.035a.873.873,0,0,0,.988.36.9.9,0,0,0,.618-.894l-.049-5.1a.806.806,0,0,0-.806-.8h-.008a.806.806,0,0,0-.8.814l.027,2.744-2.21-3.2A.806.806,0,0,0,253.562,244.788Z" transform="translate(-225.811 -218.443)"/>
      <path id="Trazado_1218283" data-name="Trazado 1218283" d="M124.216,248.641l.689,2.337.009.029a.924.924,0,0,0,.877.631h0a.924.924,0,0,0,.875-.64l.008-.028.665-2.334.441,2.306a.806.806,0,1,0,1.583-.3l-.985-5.156a.925.925,0,0,0-1.787-.1l-.009.028-.809,2.836-.839-2.844-.009-.029a.925.925,0,0,0-1.787.129l-.928,5.144a.806.806,0,1,0,1.586.286Z" transform="translate(-109.073 -218.444)"/>
      <path id="Trazado_1218284" data-name="Trazado 1218284" d="M424.677,250.822a.806.806,0,0,0-.806-.8h0l-1.039,0v-4.476a.806.806,0,1,0-1.612,0v5.278a.806.806,0,0,0,.669.794,4.631,4.631,0,0,0,.691.017c.285,0,.7,0,1.3,0a.806.806,0,0,0,.8-.811Z" transform="translate(-375.953 -218.444)"/>
      <path id="Trazado_1218285" data-name="Trazado 1218285" d="M312.286,244.743a.806.806,0,0,0-.806.806v3.635a2.344,2.344,0,0,0,1.2,2.048,2.576,2.576,0,0,0,1.406.405h0a2.712,2.712,0,0,0,1.232-.286,2.385,2.385,0,0,0,1.439-2.171v-3.631a.806.806,0,1,0-1.612,0v3.631c0,.224-.066.487-.552.732a1.1,1.1,0,0,1-.507.114h0a.976.976,0,0,1-.541-.152c-.382-.244-.457-.438-.457-.69v-3.635a.806.806,0,0,0-.806-.806Z" transform="translate(-278.01 -218.444)"/>
    </g>
  </g>
</svg>
