<svg xmlns="http://www.w3.org/2000/svg" xmlns:xlink="http://www.w3.org/1999/xlink" width="106.16" height="106.16" viewBox="0 0 106.16 106.16">
  <defs>
    <filter id="Trazado_982547" x="0" y="0" width="106.16" height="106.16" filterUnits="userSpaceOnUse">
      <feOffset dy="3" input="SourceAlpha"/>
      <feGaussianBlur stdDeviation="3" result="blur"/>
      <feFlood flood-opacity="0.161"/>
      <feComposite operator="in" in2="blur"/>
      <feComposite in="SourceGraphic"/>
    </filter>
  </defs>
  <g id="Grupo_1229903" data-name="Grupo 1229903" transform="translate(-505.925 -2891)">
    <g id="Grupo_1228604" data-name="Grupo 1228604" transform="translate(315 -939)">
      <g id="Grupo_1225951" data-name="Grupo 1225951" transform="translate(-0.075 368.536)">
        <g id="Grupo_1224851" data-name="Grupo 1224851" transform="translate(0 1738.464)">
          <g id="Grupo_1206130" data-name="Grupo 1206130" transform="translate(0 -59)">
            <g id="Grupo_1203672" data-name="Grupo 1203672" transform="translate(0.08 -4797.878)">
              <g id="Grupo_1203344" data-name="Grupo 1203344" transform="translate(-81.08 5174.875)">
                <g id="Grupo_1177900" data-name="Grupo 1177900" transform="translate(281 1411.003)">
                  <g id="Grupo_1172010" data-name="Grupo 1172010" transform="translate(0)">
                    <g id="Grupo_1171046" data-name="Grupo 1171046">
                      <g id="Grupo_1148525" data-name="Grupo 1148525">
                        <g transform="matrix(1, 0, 0, 1, -9, -6)" filter="url(#Trazado_982547)">
                          <g id="Trazado_982547-2" data-name="Trazado 982547" transform="translate(9 6)" fill="#e5ebfb">
                            <path d="M 44.0802001953125 86.660400390625 C 38.33124923706055 86.660400390625 32.75506210327148 85.53479766845703 27.50652503967285 83.31484985351562 C 22.43628692626953 81.17032623291016 17.88242530822754 78.09992218017578 13.97144985198975 74.18894958496094 C 10.06047534942627 70.27797698974609 6.99007511138916 65.72411346435547 4.845550060272217 60.65387344360352 C 2.625600099563599 55.40533828735352 1.500000238418579 49.82915115356445 1.500000238418579 44.0802001953125 C 1.500000238418579 38.33124923706055 2.625600099563599 32.75506210327148 4.845550060272217 27.50652503967285 C 6.99007511138916 22.43628692626953 10.06047534942627 17.88242530822754 13.97144985198975 13.97144985198975 C 17.88242530822754 10.06047534942627 22.43628692626953 6.99007511138916 27.50652503967285 4.845550060272217 C 32.75506210327148 2.625600099563599 38.33124923706055 1.500000238418579 44.0802001953125 1.500000238418579 C 49.82915115356445 1.500000238418579 55.40533828735352 2.625600099563599 60.65387344360352 4.845550060272217 C 65.72411346435547 6.99007511138916 70.27797698974609 10.06047534942627 74.18894958496094 13.97144985198975 C 78.09992218017578 17.88242530822754 81.17032623291016 22.43628692626953 83.31484985351562 27.50652503967285 C 85.53479766845703 32.75506210327148 86.660400390625 38.33124923706055 86.660400390625 44.0802001953125 C 86.660400390625 49.82915115356445 85.53479766845703 55.40533828735352 83.31484985351562 60.65387344360352 C 81.17032623291016 65.72411346435547 78.09992218017578 70.27797698974609 74.18894958496094 74.18894958496094 C 70.27797698974609 78.09992218017578 65.72411346435547 81.17032623291016 60.65387344360352 83.31484985351562 C 55.40533828735352 85.53479766845703 49.82915115356445 86.660400390625 44.0802001953125 86.660400390625 Z" stroke="none"/>
                            <path d="M 44.0802001953125 3 C 38.53308486938477 3 33.15349960327148 4.085746765136719 28.09085845947266 6.227058410644531 C 23.19941711425781 8.29595947265625 18.80581665039062 11.25841522216797 15.03211212158203 15.03211212158203 C 11.25841522216797 18.80581665039062 8.29595947265625 23.19941711425781 6.227058410644531 28.09085845947266 C 4.085746765136719 33.15349960327148 3 38.53308486938477 3 44.0802001953125 C 3 49.62731552124023 4.085746765136719 55.00691604614258 6.227058410644531 60.06954193115234 C 8.29595947265625 64.96098327636719 11.25841522216797 69.35458374023438 15.03211212158203 73.12828826904297 C 18.80581665039062 76.90198516845703 23.19941711425781 79.86444091796875 28.09085845947266 81.93334197998047 C 33.15349960327148 84.07466125488281 38.53308486938477 85.160400390625 44.0802001953125 85.160400390625 C 49.62731552124023 85.160400390625 55.00691604614258 84.07466125488281 60.06954193115234 81.93334197998047 C 64.96099853515625 79.86444091796875 69.35458374023438 76.90198516845703 73.12828826904297 73.12828826904297 C 76.90198516845703 69.35458374023438 79.86444091796875 64.96099853515625 81.93334197998047 60.06954193115234 C 84.07466125488281 55.00691604614258 85.160400390625 49.62731552124023 85.160400390625 44.0802001953125 C 85.160400390625 38.53308486938477 84.07466125488281 33.15349960327148 81.93334197998047 28.09085845947266 C 79.86444091796875 23.19941711425781 76.90198516845703 18.80581665039062 73.12828826904297 15.03211212158203 C 69.35458374023438 11.25841522216797 64.96098327636719 8.29595947265625 60.06954193115234 6.227058410644531 C 55.00691604614258 4.085746765136719 49.62731552124023 3 44.0802001953125 3 M 44.0802001953125 0 C 68.42502593994141 0 88.160400390625 19.73538970947266 88.160400390625 44.0802001953125 C 88.160400390625 68.42502593994141 68.42502593994141 88.160400390625 44.0802001953125 88.160400390625 C 19.73538970947266 88.160400390625 0 68.42502593994141 0 44.0802001953125 C 0 19.73538970947266 19.73538970947266 0 44.0802001953125 0 Z" stroke="none" fill="#0b47db"/>
                          </g>
                        </g>
                      </g>
                    </g>
                  </g>
                </g>
              </g>
            </g>
          </g>
        </g>
      </g>
    </g>
    <g id="lista-de-verificacion_3_" data-name="lista-de-verificacion (3)" transform="translate(535.001 2914.399)">
      <path id="Trazado_1218286" data-name="Trazado 1218286" d="M16.957,8,8,16.957V61.741H50.993V8Zm0,0" transform="translate(-7.105 -7.104)" fill="#e6e9ed"/>
      <path id="Trazado_1218287" data-name="Trazado 1218287" d="M16.957,8v8.957H8Zm0,0" transform="translate(-7.105 -7.104)" fill="#fcd770"/>
      <path id="Trazado_1218288" data-name="Trazado 1218288" d="M146.871,43.583v7.165a3.582,3.582,0,0,1-3.583,3.583H123.583A3.582,3.582,0,0,1,120,50.748V43.583A3.582,3.582,0,0,1,123.583,40h19.705A3.582,3.582,0,0,1,146.871,43.583Zm0,0" transform="translate(-106.565 -35.521)" fill="#ffeaa7"/>
      <g id="Grupo_1229902" data-name="Grupo 1229902" transform="translate(4.478 9.853)">
        <path id="Trazado_1218289" data-name="Trazado 1218289" d="M224,88h3.583v3.583H224Zm0,0" transform="translate(-203.399 -88)" fill="#b4dd7f"/>
        <path id="Trazado_1218290" data-name="Trazado 1218290" d="M296,88h3.583v3.583H296Zm0,0" transform="translate(-267.338 -88)" fill="#b4dd7f"/>
        <path id="Trazado_1218291" data-name="Trazado 1218291" d="M152,88h3.583v3.583H152Zm0,0" transform="translate(-139.46 -88)" fill="#b4dd7f"/>
        <path id="Trazado_1218292" data-name="Trazado 1218292" d="M49.79,362.311a5.315,5.315,0,0,1,.958,3.063,5.374,5.374,0,1,1-.958-3.063Zm0,0" transform="translate(-40 -329.547)" fill="#b4dd7f"/>
        <path id="Trazado_1218293" data-name="Trazado 1218293" d="M49.79,218.311a5.315,5.315,0,0,1,.958,3.063,5.374,5.374,0,1,1-.958-3.063Zm0,0" transform="translate(-40 -201.669)" fill="#b4dd7f"/>
        <path id="Trazado_1218294" data-name="Trazado 1218294" d="M332.293,296.4l-14.053,14.053L316,308.213l14.053-14.053Zm0,0" transform="translate(-285.099 -271.078)" fill="#b4dd7f"/>
      </g>
      <path id="Trazado_1218295" data-name="Trazado 1218295" d="M312.293,276.4l-14.053,14.053L296,288.214l10.748-10.748v-.009l3.305-3.3Zm0,0" transform="translate(-262.86 -243.465)" fill="#ff826e"/>
      <path id="Trazado_1218296" data-name="Trazado 1218296" d="M286.27,404.158,280,405.986l1.791-6.306Zm0,0" transform="translate(-248.652 -354.931)" fill="#f0d0b4"/>
      <path id="Trazado_1218297" data-name="Trazado 1218297" d="M428.963,250.842a3.138,3.138,0,0,1-.932,2.239L426,255.122l-4.478-4.478,2.033-2.041a3.171,3.171,0,0,1,5.41,2.239Zm0,0" transform="translate(-374.326 -219.949)" fill="#ffeaa7"/>
      <path id="Trazado_1218298" data-name="Trazado 1218298" d="M55.532,30.9A4.062,4.062,0,0,0,48.6,28.024l-3.814,3.814V0H9.481L0,9.482V55.533H44.784V43.327l9.559-9.559a4.036,4.036,0,0,0,1.19-2.872ZM33.585,46.459l2.331,2.331-3.262.952Zm4.033,1.5-.972-.972L49.434,34.2l.973.973Zm-2.239-2.238-.973-.973L47.2,31.958l.973.973ZM8.956,3.058v5.9h-5.9ZM42.992,53.741H1.791V10.748h8.957V1.792H42.992V33.629L32.342,44.278l-2.3,8.09,8.045-2.346,4.9-4.9ZM53.076,32.5l-1.4,1.4-3.212-3.212,1.4-1.4A2.271,2.271,0,0,1,53.076,32.5Zm0,0"/>
      <path id="Trazado_1218299" data-name="Trazado 1218299" d="M46.564,330.617l-3.855,4.241a6.276,6.276,0,1,0,1.087,1.467l4.094-4.5Zm-3.815,8.664a4.5,4.5,0,1,1-1.251-3.09L38.125,339.9l-2.045-1.363-.994,1.49,3.329,2.22,4.057-4.463a4.442,4.442,0,0,1,.276,1.5Zm0,0" transform="translate(-28.418 -293.601)"/>
      <path id="Trazado_1218300" data-name="Trazado 1218300" d="M42.708,190.858a6.276,6.276,0,1,0,1.087,1.467l4.094-4.5-1.326-1.205Zm.039,4.423a4.5,4.5,0,1,1-1.251-3.09L38.125,195.9l-2.045-1.363-.994,1.49,3.329,2.22,4.057-4.463a4.441,4.441,0,0,1,.276,1.5Zm0,0" transform="translate(-28.417 -165.723)"/>
      <path id="Trazado_1218301" data-name="Trazado 1218301" d="M352,256h1.791v1.791H352Zm0,0" transform="translate(-312.59 -227.338)"/>
      <path id="Trazado_1218302" data-name="Trazado 1218302" d="M176,256h17.914v1.791H176Zm0,0" transform="translate(-156.295 -227.338)"/>
      <path id="Trazado_1218303" data-name="Trazado 1218303" d="M176,224h21.5v1.791H176Zm0,0" transform="translate(-156.295 -198.921)"/>
      <path id="Trazado_1218304" data-name="Trazado 1218304" d="M176,288h21.5v1.791H176Zm0,0" transform="translate(-156.295 -255.755)"/>
      <path id="Trazado_1218305" data-name="Trazado 1218305" d="M176,400h9.853v1.791H176Zm0,0" transform="translate(-156.295 -355.216)"/>
      <path id="Trazado_1218306" data-name="Trazado 1218306" d="M176,432h9.853v1.791H176Zm0,0" transform="translate(-156.295 -383.633)"/>
      <path id="Trazado_1218307" data-name="Trazado 1218307" d="M176,368h9.853v1.791H176Zm0,0" transform="translate(-156.295 -326.798)"/>
      <path id="Trazado_1218308" data-name="Trazado 1218308" d="M116.478,48.122h19.705a4.484,4.484,0,0,0,4.478-4.478V36.478A4.484,4.484,0,0,0,136.183,32H116.478A4.484,4.484,0,0,0,112,36.478v7.165A4.484,4.484,0,0,0,116.478,48.122Zm-2.687-11.644a2.691,2.691,0,0,1,2.687-2.687h19.705a2.691,2.691,0,0,1,2.687,2.687v7.165a2.691,2.691,0,0,1-2.687,2.687H116.478a2.691,2.691,0,0,1-2.687-2.687Zm0,0" transform="translate(-99.461 -28.417)"/>
      <path id="Trazado_1218309" data-name="Trazado 1218309" d="M293.374,80H288v5.374h5.374Zm-1.791,3.583h-1.791V81.791h1.791Zm0,0" transform="translate(-255.756 -71.043)"/>
      <path id="Trazado_1218310" data-name="Trazado 1218310" d="M221.374,80H216v5.374h5.374Zm-1.791,3.583h-1.791V81.791h1.791Zm0,0" transform="translate(-191.817 -71.043)"/>
      <path id="Trazado_1218311" data-name="Trazado 1218311" d="M149.374,80H144v5.374h5.374Zm-1.791,3.583h-1.791V81.791h1.791Zm0,0" transform="translate(-127.878 -71.043)"/>
    </g>
  </g>
</svg>
