<svg xmlns="http://www.w3.org/2000/svg" xmlns:xlink="http://www.w3.org/1999/xlink" width="106.16" height="106.16" viewBox="0 0 106.16 106.16">
  <defs>
    <filter id="Trazado_982547" x="0" y="0" width="106.16" height="106.16" filterUnits="userSpaceOnUse">
      <feOffset dy="3" input="SourceAlpha"/>
      <feGaussianBlur stdDeviation="3" result="blur"/>
      <feFlood flood-opacity="0.161"/>
      <feComposite operator="in" in2="blur"/>
      <feComposite in="SourceGraphic"/>
    </filter>
  </defs>
  <g id="Grupo_1229910" data-name="Grupo 1229910" transform="translate(-820.925 -2891)">
    <g id="Grupo_1228605" data-name="Grupo 1228605" transform="translate(630 -939)">
      <g id="Grupo_1225951" data-name="Grupo 1225951" transform="translate(-0.075 368.536)">
        <g id="Grupo_1224851" data-name="Grupo 1224851" transform="translate(0 1738.464)">
          <g id="Grupo_1206130" data-name="Grupo 1206130" transform="translate(0 -59)">
            <g id="Grupo_1203672" data-name="Grupo 1203672" transform="translate(0.08 -4797.878)">
              <g id="Grupo_1203344" data-name="Grupo 1203344" transform="translate(-81.08 5174.875)">
                <g id="Grupo_1177900" data-name="Grupo 1177900" transform="translate(281 1411.003)">
                  <g id="Grupo_1172010" data-name="Grupo 1172010" transform="translate(0)">
                    <g id="Grupo_1171046" data-name="Grupo 1171046">
                      <g id="Grupo_1148525" data-name="Grupo 1148525">
                        <g transform="matrix(1, 0, 0, 1, -9, -6)" filter="url(#Trazado_982547)">
                          <g id="Trazado_982547-2" data-name="Trazado 982547" transform="translate(9 6)" fill="#e5ebfb">
                            <path d="M 44.0802001953125 86.660400390625 C 38.33124923706055 86.660400390625 32.75506210327148 85.53479766845703 27.50652503967285 83.31484985351562 C 22.43628692626953 81.17032623291016 17.88242530822754 78.09992218017578 13.97144985198975 74.18894958496094 C 10.06047534942627 70.27797698974609 6.99007511138916 65.72411346435547 4.845550060272217 60.65387344360352 C 2.625600099563599 55.40533828735352 1.500000238418579 49.82915115356445 1.500000238418579 44.0802001953125 C 1.500000238418579 38.33124923706055 2.625600099563599 32.75506210327148 4.845550060272217 27.50652503967285 C 6.99007511138916 22.43628692626953 10.06047534942627 17.88242530822754 13.97144985198975 13.97144985198975 C 17.88242530822754 10.06047534942627 22.43628692626953 6.99007511138916 27.50652503967285 4.845550060272217 C 32.75506210327148 2.625600099563599 38.33124923706055 1.500000238418579 44.0802001953125 1.500000238418579 C 49.82915115356445 1.500000238418579 55.40533828735352 2.625600099563599 60.65387344360352 4.845550060272217 C 65.72411346435547 6.99007511138916 70.27797698974609 10.06047534942627 74.18894958496094 13.97144985198975 C 78.09992218017578 17.88242530822754 81.17032623291016 22.43628692626953 83.31484985351562 27.50652503967285 C 85.53479766845703 32.75506210327148 86.660400390625 38.33124923706055 86.660400390625 44.0802001953125 C 86.660400390625 49.82915115356445 85.53479766845703 55.40533828735352 83.31484985351562 60.65387344360352 C 81.17032623291016 65.72411346435547 78.09992218017578 70.27797698974609 74.18894958496094 74.18894958496094 C 70.27797698974609 78.09992218017578 65.72411346435547 81.17032623291016 60.65387344360352 83.31484985351562 C 55.40533828735352 85.53479766845703 49.82915115356445 86.660400390625 44.0802001953125 86.660400390625 Z" stroke="none"/>
                            <path d="M 44.0802001953125 3 C 38.53308486938477 3 33.15349960327148 4.085746765136719 28.09085845947266 6.227058410644531 C 23.19941711425781 8.29595947265625 18.80581665039062 11.25841522216797 15.03211212158203 15.03211212158203 C 11.25841522216797 18.80581665039062 8.29595947265625 23.19941711425781 6.227058410644531 28.09085845947266 C 4.085746765136719 33.15349960327148 3 38.53308486938477 3 44.0802001953125 C 3 49.62731552124023 4.085746765136719 55.00691604614258 6.227058410644531 60.06954193115234 C 8.29595947265625 64.96098327636719 11.25841522216797 69.35458374023438 15.03211212158203 73.12828826904297 C 18.80581665039062 76.90198516845703 23.19941711425781 79.86444091796875 28.09085845947266 81.93334197998047 C 33.15349960327148 84.07466125488281 38.53308486938477 85.160400390625 44.0802001953125 85.160400390625 C 49.62731552124023 85.160400390625 55.00691604614258 84.07466125488281 60.06954193115234 81.93334197998047 C 64.96099853515625 79.86444091796875 69.35458374023438 76.90198516845703 73.12828826904297 73.12828826904297 C 76.90198516845703 69.35458374023438 79.86444091796875 64.96099853515625 81.93334197998047 60.06954193115234 C 84.07466125488281 55.00691604614258 85.160400390625 49.62731552124023 85.160400390625 44.0802001953125 C 85.160400390625 38.53308486938477 84.07466125488281 33.15349960327148 81.93334197998047 28.09085845947266 C 79.86444091796875 23.19941711425781 76.90198516845703 18.80581665039062 73.12828826904297 15.03211212158203 C 69.35458374023438 11.25841522216797 64.96098327636719 8.29595947265625 60.06954193115234 6.227058410644531 C 55.00691604614258 4.085746765136719 49.62731552124023 3 44.0802001953125 3 M 44.0802001953125 0 C 68.42502593994141 0 88.160400390625 19.73538970947266 88.160400390625 44.0802001953125 C 88.160400390625 68.42502593994141 68.42502593994141 88.160400390625 44.0802001953125 88.160400390625 C 19.73538970947266 88.160400390625 0 68.42502593994141 0 44.0802001953125 C 0 19.73538970947266 19.73538970947266 0 44.0802001953125 0 Z" stroke="none" fill="#0b47db"/>
                          </g>
                        </g>
                      </g>
                    </g>
                  </g>
                </g>
              </g>
            </g>
          </g>
        </g>
      </g>
    </g>
    <g id="Artboard51" transform="translate(818.013 2904.748)">
      <g id="Grupo_1229909" data-name="Grupo 1229909" transform="translate(33.987 7)">
        <g id="Grupo_1229908" data-name="Grupo 1229908" transform="translate(0.944 0.943)">
          <g id="Grupo_1229905" data-name="Grupo 1229905">
            <g id="Grupo_1229904" data-name="Grupo 1229904">
              <g id="CorelEMF">
                <path id="Trazado_1218312" data-name="Trazado 1218312" d="M82.3,14.976H49.23a1.219,1.219,0,0,0-.891.369l-6,6a1.219,1.219,0,0,0-.369.891V67.629a1.26,1.26,0,0,0,1.258,1.258H82.3a1.261,1.261,0,0,0,1.261-1.258V16.237A1.264,1.264,0,0,0,82.3,14.976Z" transform="translate(-41.968 -14.976)" fill="#eceff1" fill-rule="evenodd"/>
                <path id="Trazado_1218313" data-name="Trazado 1218313" d="M49.516,15.892v6a.632.632,0,0,1-.63.63h-6a1.26,1.26,0,0,1,.261-.369l6-6A1.324,1.324,0,0,1,49.516,15.892Z" transform="translate(-42.776 -15.784)" fill="#a79ba7" fill-rule="evenodd"/>
                <path id="Trazado_1218314" data-name="Trazado 1218314" d="M373.616,14.976h-1.258V68.887h1.258a1.261,1.261,0,0,0,1.261-1.258V16.237a1.264,1.264,0,0,0-1.261-1.261Z" transform="translate(-333.28 -14.976)" fill="#d1d1d6" fill-rule="evenodd"/>
              </g>
            </g>
            <path id="Trazado_1218315" data-name="Trazado 1218315" d="M158.006,74.183v7.639a.946.946,0,0,1-.946.946H140.418a.946.946,0,0,1-.946-.946V74.183a.946.946,0,0,1,.946-.946H157.06a.946.946,0,0,1,.946.946Z" transform="translate(-127.94 -66.346)" fill="#ffe177" fill-rule="evenodd"/>
            <path id="Trazado_1218316" data-name="Trazado 1218316" d="M141.719,82.769h-1.3a.946.946,0,0,1-.946-.946V74.183a.946.946,0,0,1,.946-.946h1.3a.946.946,0,0,0-.946.946v7.639a.946.946,0,0,0,.946.946Z" transform="translate(-127.939 -66.346)" fill="#ffd064" fill-rule="evenodd"/>
            <path id="Trazado_1218317" data-name="Trazado 1218317" d="M158.006,203.209v7.639a.946.946,0,0,1-.946.946H140.418a.946.946,0,0,1-.946-.946v-7.639a.946.946,0,0,1,.946-.946H157.06a.946.946,0,0,1,.946.946Z" transform="translate(-127.94 -180.111)" fill="#8ac9fe" fill-rule="evenodd"/>
            <path id="Trazado_1218318" data-name="Trazado 1218318" d="M141.719,211.795h-1.3a.946.946,0,0,1-.946-.946v-7.639a.946.946,0,0,1,.946-.946h1.3a.946.946,0,0,0-.946.946v7.639a.946.946,0,0,0,.946.946Z" transform="translate(-127.939 -180.111)" fill="#60b7ff" fill-rule="evenodd"/>
            <path id="Trazado_1218319" data-name="Trazado 1218319" d="M158.006,332.236v7.639a.946.946,0,0,1-.946.946H140.418a.946.946,0,0,1-.946-.946v-7.639a.946.946,0,0,1,.946-.946H157.06a.946.946,0,0,1,.946.946Z" transform="translate(-127.94 -293.877)" fill="#6cf5c2" fill-rule="evenodd"/>
            <path id="Trazado_1218320" data-name="Trazado 1218320" d="M141.719,340.822h-1.3a.946.946,0,0,1-.946-.946v-7.639a.946.946,0,0,1,.946-.946h1.3a.946.946,0,0,0-.946.946v7.639a.946.946,0,0,0,.946.946Z" transform="translate(-127.939 -293.877)" fill="#00e499" fill-rule="evenodd"/>
          </g>
          <g id="Grupo_1229907" data-name="Grupo 1229907" transform="translate(32.389 34.863)">
            <g id="Grupo_1229906" data-name="Grupo 1229906">
              <path id="Trazado_1218321" data-name="Trazado 1218321" d="M325.463,309.824l8.249,3.535a.833.833,0,0,1,.514.781v6.886a9.3,9.3,0,1,1-18.418,0V314.14a.833.833,0,0,1,.514-.781l8.249-3.535A1.1,1.1,0,0,1,325.463,309.824Z" transform="translate(-315.809 -309.73)" fill="#8ac9fe" fill-rule="evenodd"/>
              <path id="Trazado_1218322" data-name="Trazado 1218322" d="M460.855,337.7l.748.321a.833.833,0,0,1,.514.781v6.886a10.567,10.567,0,0,1-1.262,5.07Z" transform="translate(-443.699 -334.394)" fill="#60b7ff" fill-rule="evenodd"/>
            </g>
          </g>
        </g>
        <path id="Trazado_1218323" data-name="Trazado 1218323" d="M70.642,62.8H34.933a.946.946,0,0,1-.946-.946V14.685a.946.946,0,0,1,.277-.669L41,7.277A.946.946,0,0,1,41.672,7H76.531a.946.946,0,0,1,.946.946V42.187l8.218,3.519a.946.946,0,0,1,.574.87V54.16A11.742,11.742,0,0,1,76.7,65.65a.943.943,0,0,1-.345,0A11.635,11.635,0,0,1,70.642,62.8Zm4.943-20.619V8.892H42.618v5.792a.946.946,0,0,1-.946.946H35.879V60.912H68.963a11.631,11.631,0,0,1-2.17-6.752V50.917h-.847v3.975a.946.946,0,0,1-.946.946H46.466a.946.946,0,0,1-.946-.946V45.361a.946.946,0,0,1,.946-.946H65a.946.946,0,0,1,.946.946v3.664h.847V46.575a.946.946,0,0,1,.574-.87l.615-.264v-9.72H65.946v3.91a.946.946,0,0,1-.946.946H46.466a.946.946,0,0,1-.946-.946v-3.91s-3.064,0-3.1-.007a.947.947,0,0,1-.83-.939V19.634a.947.947,0,0,1,.946-.946l2.979.011v-3.86a.946.946,0,0,1,.946-.946H65a.946.946,0,0,1,.946.946V24.37a.946.946,0,0,1-.946.946H46.466a.946.946,0,0,1-.946-.946V20.591H43.487V33.829H45.52V30.1a.946.946,0,0,1,.946-.946H65a.946.946,0,0,1,.946.946v3.729h2.983a.947.947,0,0,1,.946.946v9.856ZM40.725,10.231l-3.508,3.508h3.508ZM64.054,46.307H47.412v7.639H64.054ZM50.8,49.562a.946.946,0,0,1,0-1.892h9.87a.946.946,0,0,1,0,1.892Zm0,3.022a.946.946,0,0,1,0-1.892h9.87a.946.946,0,1,1,0,1.892ZM64.054,31.046H47.412v7.639H64.054ZM50.8,34.3a.946.946,0,0,1,0-1.892h9.87a.946.946,0,0,1,0,1.892Zm0,3.022a.946.946,0,0,1,0-1.892h9.87a.946.946,0,1,1,0,1.892ZM76.53,43.84,68.686,47.2v6.96a9.843,9.843,0,0,0,7.844,9.6,9.843,9.843,0,0,0,7.846-9.6V47.2ZM71.823,54.678a.946.946,0,1,1,1.337-1.339l1.718,1.715,5.056-4.584a.946.946,0,0,1,1.271,1.4L75.483,57.06a.946.946,0,0,1-1.3-.031Zm-7.77-38.893H47.412v7.639H64.054ZM50.8,19.04a.946.946,0,0,1,0-1.892h9.87a.946.946,0,0,1,0,1.892Zm0,3.022a.946.946,0,1,1,0-1.892h9.87a.946.946,0,0,1,0,1.892Z" transform="translate(-33.987 -7)" fill-rule="evenodd"/>
      </g>
    </g>
  </g>
</svg>
