<svg xmlns="http://www.w3.org/2000/svg" xmlns:xlink="http://www.w3.org/1999/xlink" width="190" height="196" viewBox="0 0 190 196">
  <defs>
    <clipPath id="clip-path">
      <rect id="Rectángulo_422430" data-name="Rectángulo 422430" width="190" height="196" transform="translate(1194.42 1457.064)" fill="#fff" stroke="#707070" stroke-width="1"/>
    </clipPath>
  </defs>
  <g id="Enmascarar_grupo_1208502" data-name="Enmascarar grupo 1208502" transform="translate(-1194.42 -1457.064)" clip-path="url(#clip-path)">
    <g id="Grupo_1228757" data-name="Grupo 1228757" transform="translate(1214.33 1462.835)">
      <g id="Grupo_1228756" data-name="Grupo 1228756" transform="translate(0 0)">
        <g id="Grupo_1228754" data-name="Grupo 1228754" transform="translate(15.02)">
          <g id="Grupo_1228737" data-name="Grupo 1228737" transform="translate(0 25.334)">
            <g id="Grupo_1228733" data-name="Grupo 1228733" transform="translate(61.437 34.444)">
              <path id="Trazado_1217229" data-name="Trazado 1217229" d="M113.182,327.506s-8.25,31.08,2.685,40.289,23.214-5.18,27.243,18.418-71.177,13.622-83.84-3.838,10.361-18.993,19.76-17.267,9.017-8.25,9.976-22.255S113.182,327.506,113.182,327.506Z" transform="translate(-55.557 -327.506)" fill="#ea8d83"/>
              <path id="Trazado_1217230" data-name="Trazado 1217230" d="M111.807,356.551a68.4,68.4,0,0,1-24.523,5.838c2.194-3.766,2.277-10.879,2.869-19.535.96-14.006,24.174-15.348,24.174-15.348S109.942,344.029,111.807,356.551Z" transform="translate(-56.702 -327.506)" fill="#d36a62" opacity="0.5"/>
            </g>
            <g id="Grupo_1228736" data-name="Grupo 1228736">
              <g id="Grupo_1228734" data-name="Grupo 1228734">
                <path id="Trazado_1217231" data-name="Trazado 1217231" d="M153.261,309.773c4.145-28.637,4.15-2.752,4.15-2.752,3.592-31.407,3.759-.334,3.759-.334,4.928-35.417,3.759.919,3.759.919,7.518-28.735,3.028,1.414,3.028,1.414l-.376,4.521c17.709-19.97-.376,6.405-.376,6.405s-.181.493-.51,1.375c-.867,16.007-1.929,37.331-1.929,37.331l3.541.229c9.8.037,27.528.569,40.782,3.564-1.331,8.64-2.432,17.355-2.226,25.993a176.111,176.111,0,0,1-23.681-2.683c-24.435-4.1-39.373-4.729-42.228-11.484C137.285,372.191,149.388,336.539,153.261,309.773Z" transform="translate(-140.269 -291.182)" fill="#ea8d83"/>
                <path id="Trazado_1217232" data-name="Trazado 1217232" d="M140.758,363.469a142,142,0,0,1,19.345,2.716c-1.332,8.641-2.433,17.358-2.227,26a137.707,137.707,0,0,1-14.426-1.278C140.308,382.262,139.675,372.612,140.758,363.469Z" transform="translate(-91.284 -294.923)" fill="#d36a62" opacity="0.5"/>
              </g>
              <g id="Grupo_1228735" data-name="Grupo 1228735" transform="translate(50.967 69.519)">
                <path id="Trazado_1217233" data-name="Trazado 1217233" d="M129.919,371.594S116.968,392.272,92.24,389.3c-18.84-2.261-12.058-23.362-12.058-23.362s-10.928-2.261-12.058-1.13c-5.652,5.652-19.97,42.578-11.3,55.766s10.55,37.679,10.55,37.679l47.853-4.145s38.09-40.684,38.433-63.679C154.035,365.189,129.919,371.594,129.919,371.594Z" transform="translate(-54.1 -364.495)" fill="#fd8"/>
                <path id="Trazado_1217234" data-name="Trazado 1217234" d="M93.1,417.182c13.414-1.129,29.331-1.614,40.938-9.232,5.859-3.846,9.958-8.971,13.7-14.807,1.715-2.672,3.423-5.428,5.357-7.973a30.738,30.738,0,0,1,.507,6.334c-.343,22.994-38.433,63.679-38.433,63.679L67.32,459.328s-1.884-24.492-10.55-37.679a18.755,18.755,0,0,1-2.671-7.468C66.769,418.167,81.714,418.14,93.1,417.182Z" transform="translate(-54.048 -365.565)" fill="#f9cb64"/>
              </g>
              <path id="Trazado_1217235" data-name="Trazado 1217235" d="M56,448.39s-15.949,4.238,2.145-3.337c10.25-4.291,45.764-6.913,45.764-6.913l-.431-3.522c-2.973-16.087-8.7-54.133,2.549-59.166,14.319-6.405,20.347,2.261,21.1,39.564.665,32.914,4.259,48.222-12.5,44.124-16.707-.825-51-5.744-51-5.744S49.8,468.65,61.239,451.727c0,0-16.685,16.208-3.1-.953C58.142,450.774,39.788,461.737,56,448.39Z" transform="translate(27.168 -295.443)" fill="#ea8d83"/>
            </g>
          </g>
          <g id="Grupo_1228753" data-name="Grupo 1228753" transform="translate(50.187)">
            <g id="Grupo_1228739" data-name="Grupo 1228739" transform="translate(0)">
              <path id="Trazado_1217236" data-name="Trazado 1217236" d="M136.082,320.477s4.8-22.831-12.47-30.121-34.15,3.261-38.179,24.557,4.2,42.228,18.993,40.865C131.478,353.283,136.082,320.477,136.082,320.477Z" transform="translate(-65.097 -265.686)" fill="#ea8d83"/>
              <g id="Grupo_1228738" data-name="Grupo 1228738">
                <path id="Trazado_1217237" data-name="Trazado 1217237" d="M74.14,290.093c-3.837-6.523-7.29-3.645-7.29-3.645s1.535-4.221,8.441-1.343a17.573,17.573,0,0,0,5.147,1.315c-6.076-2.323-12.126-7.182-10.711-13.786,0,0,2.111,6.523,5.756,6.331s14.2-14.581,22.447-7.1,13.813-7.866,28.778,3.069a24.983,24.983,0,0,1,6.927,7.3c-.037-.085-.068-.168-.108-.254a19.869,19.869,0,0,0-2.352-3.67,11.088,11.088,0,0,0-.8-.925c-.287-.3-.552-.632-.869-.926-.645-.576-1.245-1.248-1.971-1.793l-1.065-.871c-.368-.29-.792-.566-1.192-.855l-1.2-.846c-.414-.254-.818-.54-1.249-.776a18.588,18.588,0,0,0-2.661-1.287,13.952,13.952,0,0,0-2.838-.719,12.93,12.93,0,0,0-5.927.8c-1.03.318-2.087.7-3.254.966a9.213,9.213,0,0,1-3.725.173A8.412,8.412,0,0,1,101,269.79c-.269-.174-.435-.329-.657-.493l-.34-.26-.292-.213c-.4-.271-.759-.6-1.173-.826a11.4,11.4,0,0,0-5.152-1.688,14.721,14.721,0,0,0-4.977.52,18.192,18.192,0,0,0-4.007,1.7,17.867,17.867,0,0,0-1.547,1,12.42,12.42,0,0,0-1.242.962c-.378.3-.662.6-.934.858a5.979,5.979,0,0,0-.653.689l-.517.6.408-.682a6.148,6.148,0,0,1,.532-.8,9.26,9.26,0,0,1,.819-1.023,13.144,13.144,0,0,1,1.135-1.166,14.67,14.67,0,0,1,1.48-1.233,16.84,16.84,0,0,1,4.075-2.251,14.814,14.814,0,0,1,5.516-1.018,12.589,12.589,0,0,1,6.16,1.647,16.661,16.661,0,0,1,1.418.913l.353.24.3.207c.209.142.446.335.632.436a6.849,6.849,0,0,0,2.488.981c1.748.319,3.691-.431,5.828-1.14a15.326,15.326,0,0,1,7-.81,15.943,15.943,0,0,1,6.312,2.514c.465.281.888.6,1.326.9.477.35.815.636,1.217.959.386.32.772.607,1.145.943l1.1,1.024a27.129,27.129,0,0,1,1.972,2.062c.305.342.561.723.835,1.071a12.225,12.225,0,0,1,.761,1.062,18.105,18.105,0,0,1,2.083,4.158,13.984,13.984,0,0,1,.659,3.208,13.466,13.466,0,0,1,1.527-1.712,12.829,12.829,0,0,1,1.47-1.18l.8-.5.836-.429a12.966,12.966,0,0,1,1.746-.666,13.38,13.38,0,0,1,1.805-.426,17.083,17.083,0,0,1,1.832-.175,15.45,15.45,0,0,1,1.827.008c.608.021,1.207.126,1.807.185.6.1,1.188.21,1.778.325.583.147,1.168.282,1.746.439l1.708.556-1.758-.337-1.762-.269-1.768-.155c-.59,0-1.179-.05-1.764-.015a17.244,17.244,0,0,0-1.747.118,16.2,16.2,0,0,0-1.714.281,15.752,15.752,0,0,0-1.651.491,11.778,11.778,0,0,0-1.565.684l-.738.424-.7.483a13.279,13.279,0,0,0-1.283,1.1c-.091.09-.174.187-.263.28a8.122,8.122,0,0,1,1.2-.485c.322-.078.643-.179.967-.233l.974-.128a14.358,14.358,0,0,1,1.937.012,16.106,16.106,0,0,1,1.87.223c.642.083,1.237.251,1.855.383.6.178,1.213.333,1.8.556l.883.328.86.388a15.217,15.217,0,0,1,1.641.922,8.8,8.8,0,0,1,.775.531,10.889,10.889,0,0,1,3.093,3.437,7.533,7.533,0,0,0-1.193-1.389,11.587,11.587,0,0,0-1.409-1.15,8.7,8.7,0,0,0-.761-.493,8.38,8.38,0,0,0-.792-.44,14.482,14.482,0,0,0-1.651-.734l-.846-.313-.866-.257c-.575-.175-1.17-.284-1.755-.415-.594-.08-1.192-.226-1.774-.268l-.917-.1c-.3-.028-.588-.019-.882-.031a13.253,13.253,0,0,0-1.746.072l-.4.064a11.214,11.214,0,0,1,10.386,5.642c9.4,14.964-2.111,24.365-6.907,30.121,0,0-3.454-5.372-6.715.767s0,8.825-8.25,9.976c0,0,4.412-.576,3.261-6.331s0-9.977,2.3-12.279c0,0-3.621-6.976-3.022-13.552-.034.075-.064.146-.1.223a14.26,14.26,0,0,1-1.646,2.74,10.325,10.325,0,0,1-2.843,2.613,9.219,9.219,0,0,1-1.978.878,8.606,8.606,0,0,1-2.244.336,10.293,10.293,0,0,1-2.318-.215c-.78-.163-1.477-.391-2.19-.563a26.326,26.326,0,0,0-4.349-.771,10.316,10.316,0,0,0-4.2.391,10.639,10.639,0,0,0-3.53,2.114c-.532.449-1.045.92-1.559,1.377a7.237,7.237,0,0,1-1.745,1.29,6.5,6.5,0,0,1-3.9.47,12.218,12.218,0,0,1-3.069-.938,18.04,18.04,0,0,1-2.157-1.135,15.757,15.757,0,0,1-1.732-1.2,20.415,20.415,0,0,0,1.87.945,22.036,22.036,0,0,0,2.221.867,13.111,13.111,0,0,0,2.965.621,5.823,5.823,0,0,0,3.293-.609,6.078,6.078,0,0,0,1.415-1.193c.485-.492.992-.991,1.538-1.483a11.557,11.557,0,0,1,3.924-2.5,10.432,10.432,0,0,1,3.131-.541c-7.246-1.312-6.038,1.74-10.573,4.655-4.845,3.114-10.552-6.523-16.115-.96s-10.36,3.262-13.622-1.727c0,0,5.756,3.838,8.634-.192s2.3-7.29,8.25-6.715c0,0-6.523-1.727-10.168,1.727s-5.18,3.837-7.866-.576a3.939,3.939,0,0,0,5.947-.576c1.422-1.707,2.189-3.694,3.574-5.153A6.6,6.6,0,0,1,74.14,290.093Zm57.285,7.369c-.025.068-.052.14-.079.211l.062-.121C131.414,297.522,131.419,297.491,131.425,297.462Z" transform="translate(-66.85 -264.465)" fill="#01334c"/>
                <path id="Trazado_1217238" data-name="Trazado 1217238" d="M67.566,308.368c.343.133.71.267,1.106.4a13.109,13.109,0,0,0,2.965.621,5.823,5.823,0,0,0,3.293-.609,6.078,6.078,0,0,0,1.415-1.193c.485-.492.992-.991,1.538-1.483a11.558,11.558,0,0,1,3.924-2.5,10.431,10.431,0,0,1,3.131-.541c-7.246-1.312-6.038,1.74-10.573,4.655a4.721,4.721,0,0,1-4.448.156,19.711,19.711,0,0,0,6.282-2.7c2.2-1.484,4.215-4.047,4.278-6.8.06-2.6-.486-5.356,2.933-6.041A7.1,7.1,0,0,0,86.7,290.96c6.066-4.915,7.2-11.855,6.845-19.162a22.63,22.63,0,0,1,6.147,3.307,24.983,24.983,0,0,1,6.927,7.3c-.037-.085-.068-.168-.108-.254a19.869,19.869,0,0,0-2.352-3.67,11.079,11.079,0,0,0-.8-.925c-.287-.3-.552-.632-.869-.926-.645-.576-1.245-1.248-1.971-1.793l-1.065-.871c-.368-.29-.792-.566-1.192-.855l-1.2-.846c-.414-.254-.818-.54-1.249-.776a18.576,18.576,0,0,0-2.361-1.157q-.1-1.289-.236-2.586a19.162,19.162,0,0,1,3.735,1.875c.465.281.888.6,1.326.9.477.35.815.636,1.217.959.386.32.772.607,1.145.943l1.1,1.024a27.119,27.119,0,0,1,1.972,2.062c.305.342.561.723.835,1.071a12.222,12.222,0,0,1,.761,1.062,18.106,18.106,0,0,1,2.083,4.158,13.984,13.984,0,0,1,.659,3.208,13.47,13.47,0,0,1,1.527-1.712,12.826,12.826,0,0,1,1.47-1.18l.8-.5.836-.429a12.957,12.957,0,0,1,1.746-.666,13.38,13.38,0,0,1,1.805-.426,17.076,17.076,0,0,1,1.832-.175,15.451,15.451,0,0,1,1.827.008c.608.021,1.207.126,1.807.185.6.1,1.188.211,1.778.325.583.147,1.168.282,1.746.439l1.708.556-1.758-.337-1.762-.269-1.768-.155c-.59,0-1.179-.05-1.764-.015a17.243,17.243,0,0,0-1.747.118,16.178,16.178,0,0,0-1.714.281,15.744,15.744,0,0,0-1.651.491,11.782,11.782,0,0,0-1.565.684l-.738.424-.7.483a13.289,13.289,0,0,0-1.283,1.1c-.091.09-.174.187-.263.28a8.125,8.125,0,0,1,1.2-.486c.322-.078.643-.179.967-.233l.974-.128a14.343,14.343,0,0,1,1.937.012,16.1,16.1,0,0,1,1.87.223c.642.083,1.237.251,1.855.383.6.178,1.213.333,1.8.556l.883.328.86.388a15.22,15.22,0,0,1,1.641.922,8.807,8.807,0,0,1,.775.531,10.888,10.888,0,0,1,3.093,3.437,7.533,7.533,0,0,0-1.193-1.389,11.582,11.582,0,0,0-1.409-1.15,8.7,8.7,0,0,0-.761-.493,8.373,8.373,0,0,0-.792-.44,14.48,14.48,0,0,0-1.651-.734l-.846-.313-.866-.257c-.575-.175-1.17-.284-1.755-.415-.594-.08-1.192-.226-1.774-.268l-.917-.1c-.3-.028-.588-.019-.882-.031a13.253,13.253,0,0,0-1.746.072l-.4.064a11.213,11.213,0,0,1,10.386,5.642c9.4,14.964-2.111,24.365-6.907,30.121,0,0-3.454-5.372-6.715.767s0,8.825-8.25,9.977c0,0,4.412-.576,3.261-6.331s0-9.976,2.3-12.279c0,0-3.621-6.976-3.022-13.552-.034.075-.064.146-.1.223a14.259,14.259,0,0,1-1.646,2.74,10.325,10.325,0,0,1-2.843,2.613,9.22,9.22,0,0,1-1.978.878,8.606,8.606,0,0,1-2.244.336,10.293,10.293,0,0,1-2.318-.215c-.78-.163-1.477-.391-2.19-.563a26.32,26.32,0,0,0-4.349-.771,10.315,10.315,0,0,0-4.2.391,10.638,10.638,0,0,0-3.53,2.114c-.532.449-1.045.92-1.559,1.377a7.235,7.235,0,0,1-1.745,1.29,6.5,6.5,0,0,1-3.9.47,12.217,12.217,0,0,1-3.069-.938,16.8,16.8,0,0,1-1.618-.818C67.09,308.441,67.329,308.408,67.566,308.368Z" transform="translate(-39.832 -264.635)" fill="#002838"/>
                <path id="Trazado_1217239" data-name="Trazado 1217239" d="M91.9,299.263c-.025.068-.052.14-.079.211l.062-.121C91.885,299.323,91.89,299.292,91.9,299.263Z" transform="translate(-27.321 -266.266)" fill="#002838"/>
              </g>
            </g>
            <g id="Grupo_1228752" data-name="Grupo 1228752" transform="translate(12.086 41.987)">
              <g id="Grupo_1228742" data-name="Grupo 1228742" transform="translate(18.03 6.28)">
                <g id="Grupo_1228740" data-name="Grupo 1228740" transform="translate(0)">
                  <path id="Trazado_1217240" data-name="Trazado 1217240" d="M127.708,315.366c-1.005,2.938-1.9,5.868-2.929,8.727-.271.708-.516,1.425-.806,2.119s-.588,1.382-.911,2.046a13.712,13.712,0,0,1-1.1,1.875,5.19,5.19,0,0,1-.655.788,3.016,3.016,0,0,1-.743.551l-1.109.635,1.047.5c2.169,1.044,4.353,2.059,6.634,2.9-1.941-1.462-3.977-2.75-6.029-4.008l-.064,1.139a4.09,4.09,0,0,0,1.166-.724,6.438,6.438,0,0,0,.885-.925,8.308,8.308,0,0,0,.7-1.013c.217-.344.4-.7.593-1.053a19.232,19.232,0,0,0,.96-2.172c.281-.735.543-1.473.759-2.225a40.336,40.336,0,0,0,1.072-4.54A34.565,34.565,0,0,0,127.708,315.366Z" transform="translate(-119.454 -315.366)" fill="#d36a62"/>
                </g>
                <g id="Grupo_1228741" data-name="Grupo 1228741" transform="translate(1.035 24.524)">
                  <path id="Trazado_1217241" data-name="Trazado 1217241" d="M110,341.229a5,5,0,0,0,.5.58,9.286,9.286,0,0,0,1.551,1.292,9.725,9.725,0,0,0,1.168.7,11.57,11.57,0,0,0,1.4.612,10.512,10.512,0,0,0,1.583.44,11.294,11.294,0,0,0,1.688.227,13.234,13.234,0,0,0,1.7-.028,14.31,14.31,0,0,0,1.623-.266,13.494,13.494,0,0,0,1.457-.459,7.5,7.5,0,0,0,1.234-.569,6.231,6.231,0,0,0,.985-.572c.279-.193.513-.376.706-.522.383-.3.59-.474.59-.474s-.273.07-.731.21c-.228.072-.5.155-.811.265s-.673.177-1.054.287c-.391.081-.788.24-1.237.3s-.9.171-1.382.233c-.483.036-.976.1-1.478.119a12.555,12.555,0,0,1-1.522-.023,9.954,9.954,0,0,1-1.515-.154c-.5-.064-.985-.174-1.458-.277-.465-.127-.924-.241-1.35-.377s-.833-.273-1.2-.425c-.741-.284-1.35-.565-1.779-.771S110,341.229,110,341.229Z" transform="translate(-110 -341.229)" fill="#d36a62"/>
                </g>
              </g>
              <g id="Grupo_1228749" data-name="Grupo 1228749" transform="translate(0)">
                <g id="Grupo_1228747" data-name="Grupo 1228747" transform="translate(0)">
                  <g id="Grupo_1228744" data-name="Grupo 1228744" transform="translate(26.686 2.302)">
                    <ellipse id="Elipse_13349" data-name="Elipse 13349" cx="10.072" cy="10.839" rx="10.072" ry="10.839" transform="translate(0.557 0.238)" fill="#fff"/>
                    <g id="Grupo_1228743" data-name="Grupo 1228743">
                      <path id="Trazado_1217242" data-name="Trazado 1217242" d="M117.869,322.394c-.723,14.44-20.527,13.905-21.234-.223-.324-6.481,5.333-11.339,11.494-10.982,5.781.335,9.471,5.791,9.738,11.135.02.406-1.072.172-1.088-.154-.317-6.331-5.147-12.07-12.273-9.962-3.966,1.173-6.147,5.2-6.722,9-1.029,6.8,5.316,13.113,12.212,11.074,4.4-1.3,6.57-5.967,6.781-10.185C116.793,321.8,117.888,322.008,117.869,322.394Z" transform="translate(-96.622 -311.171)" fill="#00d7cf"/>
                    </g>
                  </g>
                  <path id="Trazado_1217243" data-name="Trazado 1217243" d="M122.663,322.727s-1.727-4.8-4.221-.576" transform="translate(-95.42 -309.347)" fill="none" stroke="#00d7cf" stroke-miterlimit="10" stroke-width="1.589"/>
                  <line id="Línea_2140" data-name="Línea 2140" x1="12.087" y2="0.768" transform="translate(47.388 14.529)" fill="none" stroke="#00d7cf" stroke-miterlimit="10" stroke-width="1.589"/>
                  <line id="Línea_2141" data-name="Línea 2141" x2="7.411" y2="1.035" transform="translate(0 9.733)" fill="none" stroke="#00d7cf" stroke-miterlimit="10" stroke-width="1.589"/>
                  <g id="Grupo_1228746" data-name="Grupo 1228746" transform="translate(2.513)">
                    <ellipse id="Elipse_13350" data-name="Elipse 13350" cx="10.072" cy="10.839" rx="10.072" ry="10.839" transform="translate(0.557 0.238)" fill="#fff"/>
                    <g id="Grupo_1228745" data-name="Grupo 1228745" transform="translate(0)">
                      <path id="Trazado_1217244" data-name="Trazado 1217244" d="M143.362,319.966c-.723,14.44-20.527,13.905-21.234-.223-.324-6.481,5.333-11.339,11.494-10.982,5.78.335,9.47,5.791,9.738,11.135.02.406-1.072.172-1.088-.154-.317-6.331-5.147-12.07-12.273-9.962-3.967,1.173-6.147,5.2-6.722,9-1.029,6.8,5.316,13.113,12.212,11.074,4.4-1.3,6.57-5.967,6.782-10.185C142.286,319.368,143.381,319.579,143.362,319.966Z" transform="translate(-122.115 -308.743)" fill="#00d7cf"/>
                    </g>
                  </g>
                </g>
                <g id="Grupo_1228748" data-name="Grupo 1228748" transform="translate(10.666 11.24)">
                  <path id="Trazado_1217245" data-name="Trazado 1217245" d="M112.872,325.663c-.154,1.71.257,3.144.917,3.2s1.321-1.278,1.475-2.988-.256-3.144-.917-3.2S113.026,323.952,112.872,325.663Z" transform="translate(-93.408 -320.704)" fill="#01334c"/>
                  <path id="Trazado_1217246" data-name="Trazado 1217246" d="M133.364,323.587c-.155,1.71.256,3.144.917,3.2s1.321-1.278,1.475-2.988-.256-3.144-.917-3.2S133.518,321.877,133.364,323.587Z" transform="translate(-133.332 -320.597)" fill="#01334c"/>
                </g>
              </g>
              <g id="Grupo_1228751" data-name="Grupo 1228751" transform="translate(53.49 11.422)">
                <path id="Trazado_1217247" data-name="Trazado 1217247" d="M81.475,324.472s6.27-8.778,8.288.767c3.124,14.773-16.852,14.406-10.69,8.634C82.35,330.8,81.475,324.472,81.475,324.472Z" transform="translate(-77.885 -320.788)" fill="#ea8d83"/>
                <g id="Grupo_1228750" data-name="Grupo 1228750" transform="translate(3.105 3.052)">
                  <path id="Trazado_1217248" data-name="Trazado 1217248" d="M87.069,328.092a8.019,8.019,0,0,0-.495-1.79,4.791,4.791,0,0,0-1.042-1.655,2.193,2.193,0,0,0-.985-.576,1.567,1.567,0,0,0-.629-.048,1.517,1.517,0,0,0-.6.148,3.043,3.043,0,0,0-.974.639,6.364,6.364,0,0,0-.632.716,6.777,6.777,0,0,0-.566.857,9.076,9.076,0,0,0-.419.892,11.964,11.964,0,0,0-.564,1.847,17.251,17.251,0,0,0-.266,1.882,13.45,13.45,0,0,0-.018,1.908l.016.331.243.173c.2.141.415.32.616.488a7.428,7.428,0,0,1,.582.53,2.158,2.158,0,0,1,.67,1.068c.016.119-.075.249-.263.386a2.291,2.291,0,0,1-.693.307,12.482,12.482,0,0,1-1.658.339,7.267,7.267,0,0,0,1.744.169,2.917,2.917,0,0,0,.933-.179,1.318,1.318,0,0,0,.476-.3,1.14,1.14,0,0,0,.325-.562,1.818,1.818,0,0,0-.153-1.137,4.67,4.67,0,0,0-.505-.83,7.808,7.808,0,0,0-1.264-1.336l.26.5c.008-.55.079-1.147.134-1.719a15.7,15.7,0,0,1,.286-1.706,12.507,12.507,0,0,1,.46-1.633,8.7,8.7,0,0,1,.705-1.454,5.117,5.117,0,0,1,.516-.688c.127-.095.324-.35.492-.412a.872.872,0,0,1,.529-.136,1.41,1.41,0,0,1,.614.235,5.159,5.159,0,0,1,1.156,1.21A14.882,14.882,0,0,1,87.069,328.092Z" transform="translate(-79.393 -324.007)" fill="#d36a62"/>
                </g>
              </g>
            </g>
          </g>
        </g>
        <g id="Grupo_1228755" data-name="Grupo 1228755" transform="translate(0 133.182)">
          <path id="Trazado_1217249" data-name="Trazado 1217249" d="M91.555,462.612a2.223,2.223,0,0,0,2.223,2.223h84.459a2.223,2.223,0,0,0,2.223-2.223h0a2.223,2.223,0,0,0-2.223-2.223H93.778a2.223,2.223,0,0,0-2.223,2.223Z" transform="translate(-50.429 -407.787)" fill="#002838"/>
          <path id="Trazado_1217250" data-name="Trazado 1217250" d="M143.366,458.259a3.7,3.7,0,0,0,3.7,3.7h73.346a3.7,3.7,0,0,0,3.7-3.7l-2.847-49.639a3.7,3.7,0,0,0-3.7-3.7H144.223a3.7,3.7,0,0,0-3.7,3.7Z" transform="translate(-140.518 -404.916)" fill="#01334c"/>
          <path id="Trazado_1217251" data-name="Trazado 1217251" d="M147.068,458.259l-2.847-49.639a3.7,3.7,0,0,0-3.7-3.7h5.407a3.7,3.7,0,0,1,3.7,3.7l2.847,49.639a3.7,3.7,0,0,1-3.7,3.7h-5.407A3.7,3.7,0,0,0,147.068,458.259Z" transform="translate(-68.872 -404.916)" fill="#002838"/>
        </g>
      </g>
    </g>
  </g>
</svg>
