<svg xmlns="http://www.w3.org/2000/svg" xmlns:xlink="http://www.w3.org/1999/xlink" width="400" height="255" viewBox="0 0 400 255">
  <defs>
    <clipPath id="clip-path">
      <rect id="Rect치ngulo_422699" data-name="Rect치ngulo 422699" width="400" height="255" transform="translate(180 3564)" fill="#fff" stroke="#707070" stroke-width="1"/>
    </clipPath>
    <clipPath id="clip-path-2">
      <path id="Trazado_1218849" data-name="Trazado 1218849" d="M96.175,162.941c-2.843,12.418-6.528,46.948,6.136,60.225s22.264,15.116,43.915,15.524,32.477,1.632,48.409.611,40.851-1.583,43.506-37.582c4.8-65.025-44.044-95.028-83.261-91.556S101.537,139.515,96.175,162.941Z" transform="translate(-93.39 -109.893)"/>
    </clipPath>
    <clipPath id="clip-path-3">
      <path id="Trazado_1218881" data-name="Trazado 1218881" d="M434.944,51.91c-19.719,4.157-50.587,12.739-49.167,50.359s15.884,57.01,40.034,64.534,83.408,15.252,95.99-9.76,8.434-60.721,1.941-75.566S501.507,37.879,434.944,51.91Z" transform="translate(-385.729 -48.156)"/>
    </clipPath>
  </defs>
  <g id="Grupo_1230277" data-name="Grupo 1230277" transform="translate(-180 -3564)">
    <rect id="Rect치ngulo_422700" data-name="Rect치ngulo 422700" width="378" height="150" rx="15" transform="translate(191 3616)" fill="#fef9e5"/>
    <g id="Enmascarar_grupo_1208509" data-name="Enmascarar grupo 1208509" clip-path="url(#clip-path)">
      <g id="objects" transform="translate(126.746 3528.56)">
        <g id="Grupo_1230197" data-name="Grupo 1230197" transform="translate(120.006 53.261)">
          <g id="Grupo_1230189" data-name="Grupo 1230189" transform="translate(281.722 157.244)">
            <path id="Trazado_1218815" data-name="Trazado 1218815" d="M644.843,344.071a2.029,2.029,0,0,1-.4-.041,2.075,2.075,0,0,1-1.614-1.342,2.985,2.985,0,0,1,.314-2.773,5.7,5.7,0,0,1,2.691-2.273,2.112,2.112,0,0,0-.876-.682,4.671,4.671,0,0,0-3.328.13,1.921,1.921,0,0,0-1.1,1.109.282.282,0,1,1-.536-.179,2.494,2.494,0,0,1,1.4-1.442,5.286,5.286,0,0,1,3.774-.142,2.72,2.72,0,0,1,1.211.994,5.06,5.06,0,0,1,.6-.162,3.692,3.692,0,0,1,3.044.08,4.24,4.24,0,0,1,1.8,2.957.282.282,0,0,1-.552.122,3.725,3.725,0,0,0-1.53-2.589,3.2,3.2,0,0,0-2.621-.027,4.531,4.531,0,0,0-.454.117,5.929,5.929,0,0,1,.294,4.105C646.581,343.336,645.8,344.07,644.843,344.071Zm1.3-5.945a5.262,5.262,0,0,0-2.52,2.084,2.46,2.46,0,0,0-.269,2.268,1.526,1.526,0,0,0,1.192,1c1.2.237,1.714-1.04,1.881-1.6A5.352,5.352,0,0,0,646.143,338.126Z" transform="translate(-639.984 -336.152)"/>
          </g>
          <g id="Grupo_1230190" data-name="Grupo 1230190" transform="translate(43.518 169.638)">
            <path id="Trazado_1218816" data-name="Trazado 1218816" d="M226.712,369.94a5.041,5.041,0,0,1-3.658-1.564,4.754,4.754,0,0,1-.966-1.854,4.234,4.234,0,0,1-2.051-.743,4.866,4.866,0,0,1-2-3.355c-.215-1.716.377-2.772,1.3-4.187a.282.282,0,0,1,.472.309c-.881,1.345-1.411,2.248-1.216,3.8a4.3,4.3,0,0,0,1.761,2.965,3.672,3.672,0,0,0,1.6.625,5.253,5.253,0,0,1,.027-2.029,3.478,3.478,0,0,1,2.07-2.55,1.786,1.786,0,0,1,1.849.2,2.2,2.2,0,0,1,.653,2.175,4.263,4.263,0,0,1-3.109,2.693,4.5,4.5,0,0,1-.772.107,4.069,4.069,0,0,0,.794,1.46,4.5,4.5,0,0,0,3.483,1.376,4.825,4.825,0,0,0,3.54-1.827.282.282,0,0,1,.444.349,5.387,5.387,0,0,1-3.955,2.041C226.89,369.938,226.8,369.94,226.712,369.94Zm-1.867-8.182a1.451,1.451,0,0,0-.571.124,2.951,2.951,0,0,0-1.741,2.154,4.749,4.749,0,0,0,0,1.938,3.834,3.834,0,0,0,.786-.1A3.726,3.726,0,0,0,226,363.616a1.64,1.64,0,0,0-.454-1.616A1.109,1.109,0,0,0,224.845,361.757Z" transform="translate(-217.994 -358.11)"/>
          </g>
          <g id="Grupo_1230191" data-name="Grupo 1230191" transform="translate(54.246 8.909)">
            <path id="Trazado_1218817" data-name="Trazado 1218817" d="M237.282,84.168a.282.282,0,0,1-.282-.281,8.972,8.972,0,0,1,2.427-6.294,5.492,5.492,0,0,1,3.851-1.611,5.863,5.863,0,0,1,5.622-2.549,9.392,9.392,0,0,1,3.343,1.525c1.923,1.2,3.584,2.239,5.72-.015a.282.282,0,0,1,.41.388c-2.453,2.589-4.474,1.327-6.429.1a8.969,8.969,0,0,0-3.136-1.447,5.365,5.365,0,0,0-4.862,2.022,4.019,4.019,0,0,1,3.732,2.965,2.6,2.6,0,0,1-.861,2.9c-.464.262-1.458.486-2.9-.957a3.761,3.761,0,0,1-.954-4.36A4.867,4.867,0,0,0,239.823,78a8.4,8.4,0,0,0-2.257,5.889.282.282,0,0,1-.281.283Zm6.315-7.616-.03.058a3.181,3.181,0,0,0,.752,3.91c.857.861,1.667,1.176,2.219.864a2.075,2.075,0,0,0,.591-2.271A3.469,3.469,0,0,0,243.6,76.551Z" transform="translate(-237 -73.368)"/>
          </g>
          <g id="Grupo_1230192" data-name="Grupo 1230192" transform="translate(282.521 90.709)">
            <path id="Trazado_1218818" data-name="Trazado 1218818" d="M645.434,226.4a3.851,3.851,0,0,1-3.916-3.107,4.018,4.018,0,0,1,.725-3.507,4.248,4.248,0,0,1,3.293-1.508,4.341,4.341,0,0,1,4.067,2.777,3.46,3.46,0,0,1-.142,2.713A4.383,4.383,0,0,1,647.1,226.1,4.872,4.872,0,0,1,645.434,226.4Zm.1-7.558a3.68,3.68,0,0,0-2.855,1.3,3.5,3.5,0,0,0-.612,3.034,3.3,3.3,0,0,0,3.364,2.66,4.323,4.323,0,0,0,1.478-.266,3.808,3.808,0,0,0,2.033-2.029,2.9,2.9,0,0,0,.137-2.268A3.79,3.79,0,0,0,645.536,218.845Z" transform="translate(-641.401 -218.281)" fill="#f2ac30"/>
          </g>
          <g id="Grupo_1230193" data-name="Grupo 1230193" transform="translate(0 167.853)">
            <path id="Trazado_1218819" data-name="Trazado 1218819" d="M144.932,363.069a3.851,3.851,0,0,1-3.916-3.107,4.012,4.012,0,0,1,.726-3.507,4.246,4.246,0,0,1,3.293-1.509,4.341,4.341,0,0,1,4.067,2.777,3.461,3.461,0,0,1-.142,2.715,4.383,4.383,0,0,1-2.356,2.33A4.889,4.889,0,0,1,144.932,363.069Zm.1-7.558a3.676,3.676,0,0,0-2.854,1.3,3.5,3.5,0,0,0-.612,3.034,3.3,3.3,0,0,0,3.364,2.661,4.311,4.311,0,0,0,1.478-.267,3.806,3.806,0,0,0,2.033-2.028,2.9,2.9,0,0,0,.137-2.27A3.792,3.792,0,0,0,145.035,355.51Z" transform="translate(-140.9 -354.946)" fill="#70badb"/>
          </g>
          <g id="Grupo_1230194" data-name="Grupo 1230194" transform="translate(271.532 116.666)">
            <path id="Trazado_1218820" data-name="Trazado 1218820" d="M630.762,284.58a3.169,3.169,0,0,1-2.627-1.384l-5.658-8.329a3.177,3.177,0,0,1,.841-4.4l8.331-5.659a3.176,3.176,0,0,1,4.4.842l5.658,8.329a3.174,3.174,0,0,1-.841,4.4l-8.328,5.657A3.152,3.152,0,0,1,630.762,284.58Zm2.657-19.75a2.575,2.575,0,0,0-1.454.446l-8.331,5.659a2.609,2.609,0,0,0-.69,3.614l5.658,8.329a2.6,2.6,0,0,0,2.159,1.137,2.577,2.577,0,0,0,1.456-.447l8.328-5.657a2.607,2.607,0,0,0,.692-3.615l-5.658-8.328A2.605,2.605,0,0,0,633.419,264.83Z" transform="translate(-621.933 -264.266)" fill="#70badb"/>
          </g>
          <g id="Grupo_1230195" data-name="Grupo 1230195" transform="translate(28.247 193.328)">
            <path id="Trazado_1218821" data-name="Trazado 1218821" d="M194.838,417.05c-1.157,0-2.006-.92-2.216-2.4l-1.637-11.564a2.843,2.843,0,0,1,.52-2.326,2.524,2.524,0,0,1,2.96-.4l10.833,4.363a2.353,2.353,0,0,1,.62,4.377l-9.2,7.2A3.132,3.132,0,0,1,194.838,417.05Zm-1.723-16.413a1.51,1.51,0,0,0-1.184.492,2.339,2.339,0,0,0-.387,1.877l1.637,11.564c.17,1.2.789,1.915,1.656,1.915a2.579,2.579,0,0,0,1.537-.629l9.2-7.2a1.8,1.8,0,0,0-.484-3.409l-10.833-4.363A3.08,3.08,0,0,0,193.115,400.637Z" transform="translate(-190.94 -400.077)" fill="#f2ac30"/>
          </g>
          <g id="Grupo_1230196" data-name="Grupo 1230196" transform="translate(106.469)">
            <path id="Trazado_1218822" data-name="Trazado 1218822" d="M342.955,74.681a3.37,3.37,0,0,1-1.613-.465l-10.235-5.628a2.352,2.352,0,0,1-.093-4.419l9.992-6.049a3.3,3.3,0,0,1,1.693-.535c1.29,0,2.146,1.045,2.179,2.664l.244,11.676a2.926,2.926,0,0,1-.709,2.165A1.992,1.992,0,0,1,342.955,74.681ZM342.7,58.15a2.786,2.786,0,0,0-1.4.453l-9.992,6.049a1.8,1.8,0,0,0,.073,3.442l10.235,5.628a1.953,1.953,0,0,0,2.4-.026,2.389,2.389,0,0,0,.548-1.758l-.244-11.676C344.287,58.959,343.669,58.15,342.7,58.15Z" transform="translate(-329.515 -57.586)" fill="#f2c87e"/>
          </g>
        </g>
        <g id="Grupo_1230276" data-name="Grupo 1230276" transform="translate(92.926 47.656)">
          <g id="Grupo_1230198" data-name="Grupo 1230198" transform="translate(96.63 88.98)">
            <path id="Trazado_1218823" data-name="Trazado 1218823" d="M354.646,346.877h-.01c-23.349,0-43.611-1.754-57.053-4.938-15.3-3.623-25.488-9.9-30.285-18.671-4.055-7.408-4.241-16.506-.554-27.042.139-.4.281-.808.43-1.238,2.879-8.343,8.237-23.872,33.73-54.814,18.536-22.5,42.324-34.886,66.985-34.886a75.778,75.778,0,0,1,26.883,4.981c21.787,8.24,40.006,21.485,52.688,38.3,10.672,14.155,17.324,30.705,18.731,46.6,1.52,17.177-3.367,31.327-12.752,36.928C436.336,342.308,391.5,346.877,354.646,346.877Zm13.243-141.025c-24.489,0-48.123,12.317-66.55,34.681-25.428,30.863-30.765,46.329-33.633,54.639-.149.431-.291.844-.43,1.241-3.632,10.38-3.459,19.324.517,26.586,4.718,8.62,14.784,14.807,29.921,18.392,13.4,3.173,33.616,4.922,56.923,4.923h.01c36.776,0,81.492-4.543,98.5-14.695,9.2-5.489,13.979-19.434,12.478-36.393-2.431-27.471-22.5-66.065-71.056-84.429A75.191,75.191,0,0,0,367.888,205.852Z" transform="translate(-264.111 -205.288)"/>
          </g>
          <g id="Grupo_1230218" data-name="Grupo 1230218" transform="translate(0 34.85)">
            <g id="Grupo_1230216" data-name="Grupo 1230216" transform="translate(0.262 0.282)">
              <g id="Grupo_1230215" data-name="Grupo 1230215" clip-path="url(#clip-path-2)">
                <g id="Grupo_1230199" data-name="Grupo 1230199" transform="translate(48.698 28.478)">
                  <path id="Trazado_1218824" data-name="Trazado 1218824" d="M207.2,163.246a25.2,25.2,0,0,1,2.553,8.681c.358,2.5,1.022,2.758,3.472,3.881s3.014,3.268,1.686,4.493c-1.892,1.746-1.889.792-2.144,2.758-.171,1.311.185,2.358-1.579,1.793-.693-.222-2.125-1.074-2.328-.917-.611.472-.423,2.258,1.905,3.6.849.489,1.552.423.8,4.309-.654,3.384-4.749,3.906-8.809,3.14s-3.217,2.3-4.826,6.664-1.839,6.817.383,8.656,3.984,10.647,3.753,12.792-7.89,6.587-14.4-.613c-3.523-4.9-7.506-14.324-7.506-14.324s4.136-5.745,4.059-11.336-2.451-26.656,5.285-32.63S206.433,161.766,207.2,163.246Z" transform="translate(-179.878 -160.561)" fill="#fff"/>
                  <path id="Trazado_1218825" data-name="Trazado 1218825" d="M195.441,226.489c-2.075,0-5.182-.7-8.2-4.038-3.521-4.9-7.517-14.308-7.557-14.4a.282.282,0,0,1,.031-.275c.041-.057,4.081-5.736,4.006-11.168-.01-.772-.067-1.868-.131-3.136-.406-7.948-1.251-24.486,5.526-29.721a16.241,16.241,0,0,1,10-3.405c4.146,0,7.575,1.513,8.114,2.555a25.208,25.208,0,0,1,2.582,8.771c.329,2.3.874,2.549,3.167,3.6l.144.066a4.018,4.018,0,0,1,2.519,2.814,2.342,2.342,0,0,1-.76,2.143,9.776,9.776,0,0,1-1.409,1.1c-.487.319-.5.326-.647,1.482-.031.239-.044.469-.056.681-.051.891-.134,1.907-1.889,1.344a9.925,9.925,0,0,1-1.085-.473,7.825,7.825,0,0,0-1.034-.444.8.8,0,0,0-.137.567,3.6,3.6,0,0,0,2.059,2.517c.075.043.148.082.22.119.919.482,1.406.927.718,4.488-.458,2.371-2.592,3.678-6.008,3.678a16.977,16.977,0,0,1-3.13-.314,5.834,5.834,0,0,0-1.059-.112c-1.665,0-1.978,1.032-2.529,3.365a26.632,26.632,0,0,1-.921,3.232c-1.709,4.638-1.634,6.742.3,8.341,2.316,1.916,4.1,10.774,3.854,13.039C201.976,224.348,199.1,226.489,195.441,226.489Zm-15.176-18.517c.516,1.2,4.186,9.633,7.414,14.125,2.86,3.16,5.8,3.828,7.762,3.828,3.407,0,6.012-2,6.129-3.08.222-2.072-1.556-10.809-3.653-12.544-2.43-2.012-2.039-4.7-.467-8.971a26.208,26.208,0,0,0,.9-3.166c.52-2.206.9-3.8,3.078-3.8a6.274,6.274,0,0,1,1.163.122,16.439,16.439,0,0,0,3.026.3c2.2,0,4.94-.559,5.453-3.22.641-3.321.217-3.544-.426-3.88-.078-.041-.158-.083-.24-.13a4.152,4.152,0,0,1-2.34-2.968,1.242,1.242,0,0,1,.4-1.1c.245-.19.671,0,1.574.427a9.894,9.894,0,0,0,1.013.445,2.5,2.5,0,0,0,.709.143c.334,0,.4-.138.445-.982.012-.225.027-.469.06-.722.17-1.308.237-1.448.9-1.882a9.323,9.323,0,0,0,1.336-1.047,1.8,1.8,0,0,0,.585-1.64,3.522,3.522,0,0,0-2.2-2.389l-.143-.065c-2.332-1.068-3.118-1.427-3.491-4.032a24.666,24.666,0,0,0-2.514-8.574c-.358-.69-3.368-2.268-7.623-2.268a15.682,15.682,0,0,0-9.658,3.288c-6.544,5.054-5.709,21.393-5.308,29.246.065,1.274.121,2.375.132,3.157C184.357,201.818,180.9,207.061,180.265,207.972Z" transform="translate(-179.662 -160.343)"/>
                </g>
                <path id="Trazado_1218826" data-name="Trazado 1218826" d="M186.992,306.86c1.43.614,14.911,1.328,14.911,1.328a109.818,109.818,0,0,0,3.473-40.544c-4.9,4.289-10.417,3.267-15.932-1.226C192.915,277.039,191.282,298.893,186.992,306.86Z" transform="translate(-134.156 -178.063)"/>
                <path id="Trazado_1218827" data-name="Trazado 1218827" d="M223.629,187.976c.3.955.982,1.592,1.526,1.423s.743-1.083.446-2.039-.982-1.592-1.525-1.422S223.331,187.021,223.629,187.976Z" transform="translate(-150.052 -143.001)"/>
                <g id="Grupo_1230200" data-name="Grupo 1230200" transform="translate(74.212 41.095)">
                  <path id="Trazado_1218828" data-name="Trazado 1218828" d="M225.143,185a.281.281,0,0,1-.27-.362l.511-1.736a.282.282,0,0,1,.541.16l-.511,1.736A.282.282,0,0,1,225.143,185Z" transform="translate(-224.861 -182.695)"/>
                </g>
                <path id="Trazado_1218829" data-name="Trazado 1218829" d="M158.7,267.735c-1.577-11.628-6.775-19.321-11.374-26.449-.706-1.094-1.358-.938-1.658-.878-2.2.436-4.652,1.468-4.024,2.815a4.9,4.9,0,0,0,.593.9c-.954.193-2.1.432-3.452.73a21.322,21.322,0,0,0-11.433,6.309c-3.166,3.166-19.356,22.8-23.849,27.8,5.924,11.439,16.088,13.124,16.088,13.124s9.288-9.344,15.109-16.493c-.2,1.429-.918,14.707-2.961,19.915,3.608,2.093,13.635,1.993,19.213,1.754.916.84,4.481.084,4.481.084S160.33,279.786,158.7,267.735Z" transform="translate(-97.793 -166.716)" fill="#70badb"/>
                <path id="Trazado_1218830" data-name="Trazado 1218830" d="M163.37,159.063c-2.681,1-5.668,3.446-7.277,13.94-.778,5.074-2.661,10.523-2.306,15.7.332,4.844,4.527,6.165,8.8,7.02,3.767.754,18.41,4.245,19.333-2.06,1.077-7.355-10.516-11.049-8.853-17.875a5.042,5.042,0,0,1,3.167-3.433c1.831-.41,2.376,1.155,3.8,2.115,1.735,1.17,2.773.486,3.815-1.27.985-1.659.616-4.317.46-6.18-.2-2.441-.494-3.323,1.623-4.021,2.863-.944,5.315-2.883,2.559-6.156,3.676,4.365,5.515,3.676,8.5,1.761s3.14-3.677,1.991-6.97-4.672-8.349-10.877-7.583-5.592,2.451-13.021,3.983S162.911,151.786,163.37,159.063Z" transform="translate(-119.675 -124.735)"/>
                <g id="Grupo_1230201" data-name="Grupo 1230201" transform="translate(71.141 35.732)">
                  <path id="Trazado_1218831" data-name="Trazado 1218831" d="M219.7,177.51a.282.282,0,0,1-.266-.377c.2-.562,1.333-3.391,3.961-3.934a.282.282,0,0,1,.114.553c-2.332.482-3.361,3.059-3.544,3.571A.282.282,0,0,1,219.7,177.51Z" transform="translate(-219.42 -173.193)"/>
                </g>
                <g id="Grupo_1230202" data-name="Grupo 1230202" transform="translate(43.924 76.816)">
                  <path id="Trazado_1218832" data-name="Trazado 1218832" d="M180.218,299.465H180.2a.283.283,0,0,1-.264-.3c.015-.246.067-.914.143-1.887.442-5.678,1.617-20.761,1.186-24.205-.451-3.606.526-4.51,2.006-5.877.185-.171.379-.351.581-.545-.728-.464-2.641-1.679-4.088-2.563-1.512-.923-1.845-2.177-2.733-5.53-.265-1-.566-2.134-.965-3.518a19.374,19.374,0,0,0-4.085-7.7c-.281-.341-.523-.635-.725-.917a.282.282,0,0,1,.46-.329c.191.267.427.554.7.887a19.883,19.883,0,0,1,4.191,7.9c.4,1.39.715,2.576.968,3.53.847,3.192,1.164,4.387,2.482,5.192,1.82,1.113,4.371,2.744,4.4,2.761a.282.282,0,0,1,.048.437c-.3.3-.583.562-.848.807-1.447,1.337-2.244,2.074-1.829,5.392.438,3.5-.739,18.626-1.183,24.319-.076.969-.128,1.635-.142,1.879A.283.283,0,0,1,180.218,299.465Z" transform="translate(-171.203 -245.976)" fill="#fff"/>
                </g>
                <path id="Trazado_1218833" data-name="Trazado 1218833" d="M235.577,260.623l-2.145,6.332s-5.106-9.293-8.375-13.378a25.6,25.6,0,0,0-10.925-7.505,9.1,9.1,0,0,0-5.663-4.446,3.407,3.407,0,0,0,.223,2.083c.485,1.163,5.744,10.276,4.519,24.778a170.2,170.2,0,0,1-5.413,28.9h3.166l.069-.228c2.382.307,7.232.795,7.386-.282.2-1.43,2.962-12.868,4.6-16.443,4.9,9.089,9.45,10.943,16.031,8.179,4.7-1.976,8.582-17.779,9.092-24.009C248.24,264.5,235.577,260.623,235.577,260.623Z" transform="translate(-143.218 -167.266)" fill="#70badb"/>
                <g id="Grupo_1230203" data-name="Grupo 1230203" transform="translate(67.464 78.75)">
                  <path id="Trazado_1218834" data-name="Trazado 1218834" d="M213.189,301.059a.3.3,0,0,1-.082-.012.282.282,0,0,1-.187-.353c.063-.207,6.339-20.767,7.246-24.7.932-4.04.9-4.525.295-5.713-.764-1.492-1.42-2.8-1.42-2.8a.282.282,0,0,1,.1-.366c.689-.426,2.413-1.783,2.12-2.934-.652-2.558-3.136-11.033-4.951-14.254l-.059-.1a.282.282,0,1,1,.49-.28l.06.107c1.844,3.27,4.35,11.816,5.006,14.392.386,1.513-1.5,2.959-2.154,3.411.219.436.731,1.454,1.305,2.575.71,1.386.682,2.07-.247,6.1-.911,3.948-7.193,24.526-7.256,24.734A.284.284,0,0,1,213.189,301.059Z" transform="translate(-212.907 -249.403)" fill="#fff"/>
                </g>
                <g id="Grupo_1230204" data-name="Grupo 1230204" transform="translate(79.515 95.833)">
                  <path id="Trazado_1218835" data-name="Trazado 1218835" d="M234.537,297.286a.292.292,0,0,1-.117-.025.283.283,0,0,1-.139-.374c4.591-10.049,2.88-13.667,1.857-15.828a9.486,9.486,0,0,1-.438-1.021.282.282,0,0,1,.536-.179,9.074,9.074,0,0,0,.413.958c1.065,2.25,2.846,6.016-1.854,16.3A.281.281,0,0,1,234.537,297.286Z" transform="translate(-234.255 -279.665)"/>
                </g>
                <g id="Grupo_1230205" data-name="Grupo 1230205" transform="translate(89.447 98.439)">
                  <path id="Trazado_1218836" data-name="Trazado 1218836" d="M254.279,289.645a.282.282,0,0,1-.255-.16c-.011-.024-1.139-2.384-2.151-4.813a.282.282,0,1,1,.521-.217c1.006,2.416,2.128,4.764,2.139,4.787a.282.282,0,0,1-.133.377A.3.3,0,0,1,254.279,289.645Z" transform="translate(-251.851 -284.282)"/>
                </g>
                <g id="Grupo_1230206" data-name="Grupo 1230206" transform="translate(92.894 48.309)">
                  <path id="Trazado_1218837" data-name="Trazado 1218837" d="M258.457,238.317a131.627,131.627,0,0,0,3.217-16.928c.383-3.6-1.762-8.655.765-11.872s4.136-4.826,4.826-6.434,2.3-1.839,3.141-.23-.46,4.443-2.374,6.434c4.672-2.987,5.055-1.915,6.51-4.213s4.29-8.2,6.129-8.043c1.532-2.068,3.293-.92,3.6,1.915.92-.077,1.762,2.068,1.149,5.285,2.221,1.3,1.991,6.051-1.149,9.651s-9.115,5.745-10.417,8.656-3.447,19.992-3.447,19.992Z" transform="translate(-258.174 -195.694)" fill="#fff"/>
                  <path id="Trazado_1218838" data-name="Trazado 1218838" d="M270.188,242.594a.3.3,0,0,1-.094-.016l-11.949-4.213a.282.282,0,0,1-.175-.352,132.166,132.166,0,0,0,3.206-16.872,18.955,18.955,0,0,0-.211-4.056c-.339-2.834-.69-5.764,1.036-7.96.778-.99,1.465-1.823,2.071-2.558a17.912,17.912,0,0,0,2.717-3.812,2.17,2.17,0,0,1,1.9-1.5,2.046,2.046,0,0,1,1.751,1.249c.754,1.438-.015,3.615-1.33,5.449a25.622,25.622,0,0,1,2.656-1.33,3.968,3.968,0,0,0,2.322-1.918c.31-.49.695-1.165,1.1-1.88,1.935-3.393,3.658-6.21,5.125-6.3a2.283,2.283,0,0,1,1.763-1.054c1.113,0,1.974,1.166,2.228,2.993a1.166,1.166,0,0,1,.618.419c.564.682,1.048,2.392.591,4.989a3.506,3.506,0,0,1,1.363,2.423,9.87,9.87,0,0,1-2.611,7.549,26.478,26.478,0,0,1-5.507,4.342c-2.16,1.419-4.2,2.758-4.865,4.244-1.27,2.839-3.4,19.741-3.425,19.911a.284.284,0,0,1-.132.2A.278.278,0,0,1,270.188,242.594Zm-11.6-4.671,11.363,4.007c.32-2.51,2.209-17.005,3.425-19.724.732-1.636,2.839-3.02,5.07-4.485a26.1,26.1,0,0,0,5.391-4.241,9.289,9.289,0,0,0,2.479-7.088,2.877,2.877,0,0,0-1.26-2.135.281.281,0,0,1-.134-.3c.447-2.35.1-4.06-.437-4.712a.565.565,0,0,0-.387-.24.331.331,0,0,1-.328-.25c-.176-1.626-.857-2.718-1.7-2.718a1.905,1.905,0,0,0-1.4.941.276.276,0,0,1-.25.113h0c-1.321,0-3.384,3.617-4.749,6.01-.411.721-.8,1.4-1.117,1.9a4.49,4.49,0,0,1-2.571,2.132,26.359,26.359,0,0,0-4.025,2.167.282.282,0,0,1-.356-.433c1.735-1.8,3.14-4.558,2.328-6.108a1.49,1.49,0,0,0-1.251-.946,1.636,1.636,0,0,0-1.38,1.156,18.176,18.176,0,0,1-2.8,3.95c-.6.733-1.289,1.564-2.063,2.548-1.581,2.013-1.245,4.825-.92,7.544a19.328,19.328,0,0,1,.212,4.183A136.915,136.915,0,0,1,258.589,237.923Z" transform="translate(-257.956 -195.475)"/>
                </g>
                <g id="Grupo_1230207" data-name="Grupo 1230207" transform="translate(102.468 61.621)">
                  <path id="Trazado_1218839" data-name="Trazado 1218839" d="M277.958,224.6a.282.282,0,0,1-.274-.217c-.387-1.626-1.843-4.278-2.639-4.809a.282.282,0,0,1,.313-.47c.991.661,2.484,3.507,2.875,5.149a.282.282,0,0,1-.209.34A.275.275,0,0,1,277.958,224.6Z" transform="translate(-274.918 -219.057)"/>
                </g>
                <g id="Grupo_1230208" data-name="Grupo 1230208" transform="translate(109.438 59.859)">
                  <path id="Trazado_1218840" data-name="Trazado 1218840" d="M292.681,221.709a.282.282,0,0,1-.253-.156c-.285-.571-3.676-4.636-4.969-5.067a.282.282,0,1,1,.178-.535c1.482.495,4.985,4.731,5.3,5.35a.282.282,0,0,1-.252.408Z" transform="translate(-287.266 -215.936)"/>
                </g>
                <g id="Grupo_1230209" data-name="Grupo 1230209" transform="translate(113.88 56.675)">
                  <path id="Trazado_1218841" data-name="Trazado 1218841" d="M295.419,219.636a.282.282,0,0,1-.119-.538c.887-.409,2.838-2.91,3.364-5.77a3.961,3.961,0,0,1,1.377-2.783,2.118,2.118,0,0,1,1.735-.119.282.282,0,1,1-.155.543,1.524,1.524,0,0,0-1.282.055,3.554,3.554,0,0,0-1.12,2.406c-.542,2.943-2.576,5.668-3.683,6.179A.289.289,0,0,1,295.419,219.636Z" transform="translate(-295.136 -210.296)"/>
                </g>
                <g id="Grupo_1230210" data-name="Grupo 1230210" transform="translate(112.886 51.433)">
                  <path id="Trazado_1218842" data-name="Trazado 1218842" d="M293.655,213.063a.283.283,0,0,1-.185-.5c1.67-1.452,2.354-3.569,2.972-6.734.568-2.914,1.677-4.535,3.292-4.82a.282.282,0,1,1,.1.555c-1.363.24-2.317,1.711-2.836,4.372-.641,3.286-1.363,5.494-3.155,7.053A.282.282,0,0,1,293.655,213.063Z" transform="translate(-293.373 -201.009)"/>
                </g>
                <g id="Grupo_1230211" data-name="Grupo 1230211" transform="translate(111.124 49.136)">
                  <path id="Trazado_1218843" data-name="Trazado 1218843" d="M290.534,209.3a.277.277,0,0,1-.162-.051.282.282,0,0,1-.068-.393c.831-1.181,1.874-4.558,2.712-7.27a35.086,35.086,0,0,1,1.56-4.5.282.282,0,0,1,.5.27,36.137,36.137,0,0,0-1.516,4.4c-.895,2.894-1.908,6.174-2.79,7.429A.28.28,0,0,1,290.534,209.3Z" transform="translate(-290.252 -196.939)"/>
                </g>
                <g id="Grupo_1230212" data-name="Grupo 1230212" transform="translate(36.009 103.494)">
                  <path id="Trazado_1218844" data-name="Trazado 1218844" d="M157.464,299.521a.279.279,0,0,1-.182-.067.282.282,0,0,1-.032-.4c1.721-2.024,5.184-5.693,5.219-5.729a.282.282,0,1,1,.41.388c-.034.036-3.487,3.694-5.2,5.707A.279.279,0,0,1,157.464,299.521Z" transform="translate(-157.182 -293.238)"/>
                </g>
                <path id="Trazado_1218845" data-name="Trazado 1218845" d="M256.34,269.292c-1.129,2.117-1.782,5.55-1.552,5.856s8.608.988,14.324,5.08c1.3.612,1.718-5.421,1.515-6.119C270.09,272.271,257.03,268.526,256.34,269.292Z" transform="translate(-163.663 -179.271)"/>
                <g id="Grupo_1230213" data-name="Grupo 1230213" transform="translate(56.694 97.15)">
                  <path id="Trazado_1218846" data-name="Trazado 1218846" d="M197.935,285.638a.279.279,0,0,1-.185-.069c-.026-.022-2.6-2.256-3.8-3.054a.282.282,0,1,1,.313-.47c1.227.817,3.747,3,3.854,3.1a.282.282,0,0,1,.028.4A.279.279,0,0,1,197.935,285.638Z" transform="translate(-193.827 -281.998)" fill="#fff"/>
                </g>
                <g id="Grupo_1230214" data-name="Grupo 1230214" transform="translate(69.822 96.314)">
                  <path id="Trazado_1218847" data-name="Trazado 1218847" d="M217.366,283.845a.282.282,0,0,1-.2-.482,17.446,17.446,0,0,1,3.369-2.453c.226-.135.421-.252.568-.348a.282.282,0,1,1,.308.472c-.152.1-.352.219-.585.359a16.936,16.936,0,0,0-3.26,2.368A.282.282,0,0,1,217.366,283.845Z" transform="translate(-217.084 -280.517)" fill="#fff"/>
                </g>
                <path id="Trazado_1218848" data-name="Trazado 1218848" d="M197.48,211.9c-.3-2.785-2.493-5.639-5.1-3.974-2.266,1.447-2.956,5.344-.882,7.191a4.308,4.308,0,0,0,3.507.92C197.011,215.644,197.682,213.788,197.48,211.9Z" transform="translate(-135.579 -152.374)" fill="#f2ac30"/>
              </g>
            </g>
            <g id="Grupo_1230217" data-name="Grupo 1230217">
              <path id="Trazado_1218850" data-name="Trazado 1218850" d="M181.848,239.763h0c-5.508,0-10.9-.2-17.145-.439-5.364-.2-11.444-.432-18.682-.568-21.146-.4-31.057-1.921-44.114-15.611-12.219-12.81-9.458-46.28-6.208-60.483,7.408-32.358,27.243-50.189,58.956-53,2.031-.18,4.113-.271,6.188-.271A78.231,78.231,0,0,1,217.193,134c10.993,11.834,23.565,33.155,21.028,67.525-2.6,35.278-26.592,36.772-42.467,37.761l-1.3.082C190.222,239.636,186.217,239.763,181.848,239.763Zm-21.006-129.8c-2.058,0-4.123.09-6.139.269-31.441,2.784-51.109,20.468-58.455,52.56-3.229,14.106-6,47.323,6.066,59.967,12.91,13.534,22.737,15.041,43.716,15.436,7.244.137,13.326.366,18.693.569,6.239.235,11.627.439,17.124.439h0c4.357,0,8.35-.126,12.567-.4l1.3-.082c15.679-.977,39.373-2.453,41.939-37.24,1.995-27.045-5.225-50.248-20.879-67.1A77.655,77.655,0,0,0,160.842,109.958Z" transform="translate(-92.926 -109.394)"/>
            </g>
          </g>
          <g id="Grupo_1230221" data-name="Grupo 1230221" transform="translate(96.335 42.394)">
            <path id="Trazado_1218851" data-name="Trazado 1218851" d="M264.02,129.348c3.825-1,16.051-3.327,22.455-4.658s13.391-2.246,14.305-1.829-9.232,13.224-13.973,18.3c-1.58,1.081-3.743-.914-3.743-.914a24.741,24.741,0,0,1-10.4,6.571c-.832.166-1.248-4.99-1.331-8.068s.463-3.676-2.079-4.906C261.358,130.012,264.02,129.348,264.02,129.348Z" transform="translate(-263.589 -122.759)" fill="#70badb"/>
            <g id="Grupo_1230219" data-name="Grupo 1230219" transform="translate(8.298 0.9)">
              <path id="Trazado_1218852" data-name="Trazado 1218852" d="M279.072,147.79a.282.282,0,0,1-.074-.554c.417-.152,1.935-2.61,3.043-4.405a33.616,33.616,0,0,1,2.986-4.422c1.263-1.263,12.9-9.2,17.835-12.547l-24.184,9.6a.282.282,0,1,1-.209-.524l26.614-10.562a.282.282,0,0,1,.23.515c-.822.436-18.567,12.6-19.888,13.919a34.6,34.6,0,0,0-2.905,4.319c-1.927,3.12-2.828,4.5-3.374,4.653A.262.262,0,0,1,279.072,147.79Z" transform="translate(-278.29 -124.353)"/>
            </g>
            <g id="Grupo_1230220" data-name="Grupo 1230220" transform="translate(14.953 14.824)">
              <path id="Trazado_1218853" data-name="Trazado 1218853" d="M295.1,152.3a.281.281,0,0,1-.167-.054l-.121-.089c-1.705-1.247-3.828-2.8-4.326-2.549a.282.282,0,0,1-.252-.505c.768-.383,2.289.681,4.911,2.6l.121.089a.283.283,0,0,1-.167.511Z" transform="translate(-290.078 -149.021)"/>
            </g>
          </g>
          <g id="Grupo_1230225" data-name="Grupo 1230225" transform="translate(133.241 105.597)">
            <path id="Trazado_1218854" data-name="Trazado 1218854" d="M333.745,235.137c-3.2.293-5.015,2.28-4.694,7.934s-.961,11.492,1.28,13.679,7.894,2.191,13.124,2.281,12-.063,14-.091c4.721-.068,6.4-.888,7.042-4.583.377-2.174-.528-14.441-.56-15.731-.081-3.215-2.161-3.625-6.722-3.831C352.845,234.6,336.733,234.864,333.745,235.137Z" transform="translate(-328.971 -234.727)" fill="#f2ac30"/>
            <g id="Grupo_1230222" data-name="Grupo 1230222" transform="translate(2.613 0.867)">
              <path id="Trazado_1218855" data-name="Trazado 1218855" d="M348.6,250.777h-.063c-2.251-.034-4.08-1.927-5.423-3.573-2.481-3.043-8.063-9.283-9.42-10.442a.282.282,0,1,1,.367-.429c1.375,1.175,7,7.457,9.491,10.514,1.265,1.551,2.976,3.335,4.993,3.366,1.443.01,2.952-.866,4.487-2.638,4.226-4.876,10.5-11.018,10.561-11.08a.282.282,0,1,1,.395.4c-.063.062-6.318,6.187-10.529,11.045C351.812,249.849,350.221,250.777,348.6,250.777Z" transform="translate(-333.599 -236.264)"/>
            </g>
            <g id="Grupo_1230223" data-name="Grupo 1230223" transform="translate(1.078 11.71)">
              <path id="Trazado_1218856" data-name="Trazado 1218856" d="M331.163,266.067a.282.282,0,0,1-.126-.535,95.32,95.32,0,0,0,7.208-6.477c2.264-2.137,3.559-3.355,3.866-3.542a.283.283,0,0,1,.295.482c-.271.166-1.972,1.771-3.773,3.471-3.7,3.495-6.595,6.2-7.344,6.571A.28.28,0,0,1,331.163,266.067Z" transform="translate(-330.88 -255.472)"/>
            </g>
            <g id="Grupo_1230224" data-name="Grupo 1230224" transform="translate(22.781 11.28)">
              <path id="Trazado_1218857" data-name="Trazado 1218857" d="M379.811,266.648a.283.283,0,0,1-.244-.139c-.179-.306-2.282-2.584-4.315-4.786-2.684-2.907-5.459-5.913-5.879-6.58a.282.282,0,0,1,.477-.3c.392.623,3.274,3.745,5.816,6.5,2.59,2.805,4.187,4.542,4.388,4.883a.281.281,0,0,1-.243.424Z" transform="translate(-369.329 -254.71)"/>
            </g>
          </g>
          <g id="Grupo_1230246" data-name="Grupo 1230246" transform="translate(164.999)">
            <g id="Grupo_1230244" data-name="Grupo 1230244" transform="translate(0.281 0.282)">
              <g id="Grupo_1230243" data-name="Grupo 1230243" clip-path="url(#clip-path-3)">
                <path id="Trazado_1218858" data-name="Trazado 1218858" d="M532.9,99.058c-1.552-6.585-15.853-15.052-21.968-12.7s1.693,5.08,1.693,5.08c-9.408-1.693-13.923-.565-14.864,1.788s3.01,3.293,3.01,3.293c-6.4.189-13.547,5.175-12.512,8.656s5.268,2.21,5.268,2.21c-6.021,4.845-5.039,9.772,1.244,9.19-6.606,4.969-7.546,14.094-5.006,17.388s5.005-1.691,5.005-1.691c-2.654,7.336,1.3,12.134,5.061,6.019-.846,8.373,6.586,9.5,8.938,5.363,2.258,8,7.62,6.773,8.561,2.822,2.917,3.669,8.655,2.446,9.784-1.505,3.2,3.763,6.021.329,5.739-2.587,3.293,3.857,8.467,4.327,9.5-2.681,4.7,3.481,7.056,3.387,5.786-4.939,7.856,2.869,12-5.88,2.964-13.406,6.021,1.6,5.362-4.61-3.246-8.326,6.068-.141,6.82-4.281,3.81-7.338S543.574,96.706,532.9,99.058Z" transform="translate(-430.338 -64.619)"/>
                <g id="Grupo_1230226" data-name="Grupo 1230226" transform="translate(72.114 40.704)">
                  <path id="Trazado_1218859" data-name="Trazado 1218859" d="M514.24,130.289c-.919,5.515.715,7.15,2.349,11.03s-.65,7.97,3.7,12.816c4.059,4.519,10.187,4.239,10.187,4.239l1.736,7.047,15.013-3.881L543.96,147.4s3.064-1.684,2.144-7.711S545.084,118.749,530.479,121,515.568,125.9,514.24,130.289Z" transform="translate(-513.697 -120.484)" fill="#fff"/>
                  <path id="Trazado_1218860" data-name="Trazado 1218860" d="M532,165.485a.282.282,0,0,1-.274-.215l-1.682-6.829c-1.067,0-6.478-.218-10.176-4.336-2.8-3.114-2.923-5.994-3.034-8.535a12.248,12.248,0,0,0-.719-4.361c-.316-.752-.629-1.412-.932-2.05a12.86,12.86,0,0,1-1.434-9.136l.139-.473c1.276-4.275,2.046-6.856,16.335-9.053a19.017,19.017,0,0,1,2.868-.232c10.753,0,12.04,10.684,12.809,17.067.093.771.177,1.477.271,2.091.817,5.358-1.425,7.4-2.1,7.882l3.224,13.952a.283.283,0,0,1-.2.337l-15.013,3.881A.238.238,0,0,1,532,165.485Zm-1.736-7.611a.281.281,0,0,1,.274.214l1.667,6.77,14.471-3.741-3.206-13.877a.284.284,0,0,1,.139-.311c.028-.016,2.877-1.688,2-7.421-.094-.619-.18-1.33-.274-2.108-.746-6.2-2-16.57-12.248-16.57a18.39,18.39,0,0,0-2.782.225c-13.936,2.143-14.667,4.595-15.88,8.656l-.132.44c-.716,4.315.169,6.183,1.4,8.766.306.644.622,1.31.943,2.073a12.69,12.69,0,0,1,.763,4.555c.112,2.566.227,5.219,2.89,8.183,3.547,3.949,8.755,4.148,9.764,4.148C530.323,157.877,530.256,157.874,530.265,157.874Z" transform="translate(-513.483 -120.265)"/>
                </g>
                <path id="Trazado_1218861" data-name="Trazado 1218861" d="M547.549,132.9a24.852,24.852,0,0,0-2.726-8.731c-.981-1.691-1.867-3.431-3.525-4.558-4.659-3.166-10.932-2.976-16.234-1.876-4.21.874-8.9,2.365-12.16,5.268-1.084.964-5.475,5.342-2.632,6.607,1.665.741,3.5-.831,4.756-1.892a2.46,2.46,0,0,0,.277.528c.847,1.27,2.964,1.411,4.375,1.129,3.669-.564,7.2-2.964,9.878-5.645a4.132,4.132,0,0,0-.988,3.1c.564,1.27,1.835,1.411,2.964,1.411,2.4-.141,4.657-2.117,6.35-3.669-1.411,2.681-2.964,5.363-3.1,8.467a8.6,8.6,0,0,0,.565,4.234c.706,1.693,2.258,1.693,3.669.706-.706,2.258-1.129,4.375-.141,6.632.589,1.346,2.446,3.622,5.033,3.152,2.067-.375,2.449-5.223,3.2-6.915C548.5,137.7,548.118,136.339,547.549,132.9Z" transform="translate(-439.56 -78.143)"/>
                <g id="Grupo_1230227" data-name="Grupo 1230227" transform="translate(66.898 44.769)">
                  <path id="Trazado_1218862" data-name="Trazado 1218862" d="M507.172,135.179c-1.263,0-2.485-.449-2.826-1.73a4.472,4.472,0,0,1,.1-2.244,9.439,9.439,0,0,1,2.353-3.665.282.282,0,1,1,.377.419,8.929,8.929,0,0,0-2.188,3.405,3.881,3.881,0,0,0-.091,1.938c.424,1.592,2.673,1.315,3.12,1.242a9.373,9.373,0,0,0,3.123-.965.282.282,0,0,1,.276.493,9.916,9.916,0,0,1-3.309,1.03A5.931,5.931,0,0,1,507.172,135.179Z" transform="translate(-504.243 -127.467)" fill="#fff"/>
                </g>
                <g id="Grupo_1230228" data-name="Grupo 1230228" transform="translate(73.601 55.764)">
                  <path id="Trazado_1218863" data-name="Trazado 1218863" d="M527.24,160.24h-.015c-1.857-.1-3.018-.532-3.548-1.312-.659-.97-.238-2.235.17-3.459.08-.239.159-.477.229-.71.625-2.086-.807-4.6-2.4-6.061a4.291,4.291,0,0,0-3.9-1.071,1.477,1.477,0,0,0-1.1.907.282.282,0,1,1-.544-.153,2.018,2.018,0,0,1,1.492-1.3,4.87,4.87,0,0,1,4.432,1.2c1.78,1.625,3.262,4.308,2.563,6.641-.071.238-.152.482-.234.726-.364,1.094-.741,2.225-.238,2.964.419.617,1.467.975,3.112,1.067a.282.282,0,0,1-.016.563Z" transform="translate(-516.117 -146.944)"/>
                </g>
                <g id="Grupo_1230229" data-name="Grupo 1230229" transform="translate(83.578 53.895)">
                  <path id="Trazado_1218864" data-name="Trazado 1218864" d="M534.074,146.322a.282.282,0,0,1-.221-.458c.986-1.245,3.84-3.82,9.04-.86a.282.282,0,1,1-.279.491c-4.646-2.644-7.206-.684-8.319.72A.279.279,0,0,1,534.074,146.322Z" transform="translate(-533.791 -143.635)"/>
                </g>
                <path id="Trazado_1218865" data-name="Trazado 1218865" d="M544.372,155.214c.472.882.45,1.816-.053,2.086s-1.294-.226-1.768-1.109-.449-1.815.053-2.083S543.9,154.332,544.372,155.214Z" transform="translate(-453.88 -94.268)"/>
                <g id="Grupo_1230230" data-name="Grupo 1230230" transform="translate(87.188 58.844)">
                  <path id="Trazado_1218866" data-name="Trazado 1218866" d="M542.068,153.816a.28.28,0,0,1-.133-.033l-1.6-.851a.282.282,0,1,1,.266-.5l1.6.851a.282.282,0,0,1-.133.531Z" transform="translate(-540.188 -152.401)"/>
                </g>
                <path id="Trazado_1218867" data-name="Trazado 1218867" d="M525.51,156.843c.472.882.449,1.816-.054,2.086s-1.294-.227-1.767-1.11-.449-1.815.052-2.083S525.036,155.96,525.51,156.843Z" transform="translate(-445.666 -94.977)"/>
                <g id="Grupo_1230231" data-name="Grupo 1230231" transform="translate(76.542 59.762)">
                  <path id="Trazado_1218868" data-name="Trazado 1218868" d="M523.207,155.444a.28.28,0,0,1-.133-.033l-1.6-.851a.282.282,0,0,1,.266-.5l1.6.851a.283.283,0,0,1-.133.532Z" transform="translate(-521.327 -154.028)"/>
                </g>
                <g id="Grupo_1230232" data-name="Grupo 1230232" transform="translate(82.869 67.334)">
                  <path id="Trazado_1218869" data-name="Trazado 1218869" d="M536.288,173.969c-1.347,0-2.669-1.25-3.725-3.521a.282.282,0,0,1,.284-.4c.289.029.588.059.881.059,1.089,0,2.38-.428,5.754-2.619a.282.282,0,0,1,.435.262C539.563,171.586,538.173,173.969,536.288,173.969Zm-3-3.315c.9,1.755,1.98,2.75,3,2.75,1.456,0,2.609-1.99,3-5.123C535.752,170.533,534.568,170.744,533.292,170.654Z" transform="translate(-532.536 -167.442)"/>
                </g>
                <g id="Grupo_1230233" data-name="Grupo 1230233" transform="translate(85.549 70.175)">
                  <path id="Trazado_1218870" data-name="Trazado 1218870" d="M537.567,175.942a.264.264,0,0,1-.075-.01.282.282,0,0,1-.2-.347,4.431,4.431,0,0,1,3.856-3.108.282.282,0,0,1,.264.3.275.275,0,0,1-.3.264,3.834,3.834,0,0,0-3.277,2.693A.282.282,0,0,1,537.567,175.942Z" transform="translate(-537.284 -172.474)"/>
                </g>
                <path id="Trazado_1218871" data-name="Trazado 1218871" d="M477.673,230.367c2.681-2.6,15.472-19.531,20.451-25.583s10.723-6.2,18.536-6.281c-1.924-7.708-1.413-7.879-1.03-7.8a20.059,20.059,0,0,0,14.959-3.387c1.928-.517,1.85,7.207,3.688,8.2s14.093-1.532,20.145,4.52,10.264,20.374,10.264,20.374c-3.294,5.285-25.66,21.906-53.77,14.247-.536-2.375-4.366-6.052-5.516-10.723-4.749,6.2-8.119,10.8-8.119,10.8S482.192,233.738,477.673,230.367Z" transform="translate(-425.773 -108.752)" fill="#f2ac30"/>
                <g id="Grupo_1230234" data-name="Grupo 1230234" transform="translate(90.605 86.33)">
                  <path id="Trazado_1218872" data-name="Trazado 1218872" d="M552.385,206.837a8.691,8.691,0,0,1-6.065-2.126.282.282,0,1,1,.408-.39c1.583,1.655,8.076,4.628,16.843-3.156a.282.282,0,1,1,.375.422C559.413,205.611,555.439,206.837,552.385,206.837Z" transform="translate(-546.242 -201.093)"/>
                </g>
                <g id="Grupo_1230235" data-name="Grupo 1230235" transform="translate(92.086 82.092)">
                  <path id="Trazado_1218873" data-name="Trazado 1218873" d="M551.9,203.5a.283.283,0,0,1-.27-.2c-.1-.336-2.509-8.244-2.763-9.365a.282.282,0,0,1,.55-.125c.25,1.1,2.727,9.243,2.752,9.325a.282.282,0,0,1-.188.352A.293.293,0,0,1,551.9,203.5Z" transform="translate(-548.865 -193.587)"/>
                </g>
                <g id="Grupo_1230236" data-name="Grupo 1230236" transform="translate(95.201 81.939)">
                  <path id="Trazado_1218874" data-name="Trazado 1218874" d="M557.626,203.326a.284.284,0,0,1-.27-.2l-2.961-9.447a.282.282,0,0,1,.539-.168l2.961,9.446a.282.282,0,0,1-.185.353A.288.288,0,0,1,557.626,203.326Z" transform="translate(-554.382 -193.316)"/>
                </g>
                <g id="Grupo_1230237" data-name="Grupo 1230237" transform="translate(98.673 81.325)">
                  <path id="Trazado_1218875" data-name="Trazado 1218875" d="M563.778,201.831a.284.284,0,0,1-.269-.194l-2.962-9.038a.282.282,0,0,1,.537-.176l2.962,9.038a.283.283,0,0,1-.181.356A.276.276,0,0,1,563.778,201.831Z" transform="translate(-560.533 -192.228)"/>
                </g>
                <g id="Grupo_1230238" data-name="Grupo 1230238" transform="translate(102.299 80.253)">
                  <path id="Trazado_1218876" data-name="Trazado 1218876" d="M569.742,199.37a.282.282,0,0,1-.27-.2l-2.5-8.477a.282.282,0,0,1,.541-.16l2.5,8.477a.282.282,0,0,1-.191.351A.3.3,0,0,1,569.742,199.37Z" transform="translate(-566.957 -190.329)"/>
                </g>
                <g id="Grupo_1230239" data-name="Grupo 1230239" transform="translate(88.613 72.338)">
                  <path id="Trazado_1218877" data-name="Trazado 1218877" d="M543.076,182.9h-.089a.282.282,0,0,1-.275-.289.275.275,0,0,1,.29-.275c2,.07,7.375-1.686,10.8-5.921a.282.282,0,1,1,.438.355C550.742,181.091,545.228,182.9,543.076,182.9Z" transform="translate(-542.712 -176.307)"/>
                </g>
                <g id="Grupo_1230240" data-name="Grupo 1230240" transform="translate(78.427 108.159)">
                  <path id="Trazado_1218878" data-name="Trazado 1218878" d="M526.939,249.905a.282.282,0,0,1-.258-.169,25.493,25.493,0,0,1-2.015-9.688.282.282,0,1,1,.564,0,25.349,25.349,0,0,0,1.967,9.461.282.282,0,0,1-.145.372A.286.286,0,0,1,526.939,249.905Z" transform="translate(-524.666 -239.766)"/>
                </g>
                <g id="Grupo_1230241" data-name="Grupo 1230241" transform="translate(117.95 111.148)">
                  <path id="Trazado_1218879" data-name="Trazado 1218879" d="M598.566,257.572a.282.282,0,0,1-.27-.2c-.025-.086-2.539-8.689-3.6-11.94a.282.282,0,1,1,.537-.174c1.062,3.259,3.578,11.87,3.6,11.956a.281.281,0,0,1-.191.35A.3.3,0,0,1,598.566,257.572Z" transform="translate(-594.684 -245.06)"/>
                </g>
                <g id="Grupo_1230242" data-name="Grupo 1230242" transform="translate(100.206 61.964)">
                  <path id="Trazado_1218880" data-name="Trazado 1218880" d="M566.369,166.085a6.572,6.572,0,0,1-2.969-.857.282.282,0,1,1,.263-.5,5.111,5.111,0,0,0,3.335.728c2.1-.477,2.972-4.156,2.972-6.02a.282.282,0,0,1,.506-.172,4.223,4.223,0,0,0,3.555,1.831,3.751,3.751,0,0,0,2.989-2.923.283.283,0,0,1,.559.08,4.317,4.317,0,0,1-3.529,3.408h0a4.7,4.7,0,0,1-3.545-1.5c-.194,2.31-1.282,5.369-3.381,5.846A3.5,3.5,0,0,1,566.369,166.085Z" transform="translate(-563.249 -157.928)" fill="#fff"/>
                </g>
              </g>
            </g>
            <g id="Grupo_1230245" data-name="Grupo 1230245">
              <path id="Trazado_1218882" data-name="Trazado 1218882" d="M476.081,174.2h-.006a185.035,185.035,0,0,1-50.564-7.346c-25.729-8.016-38.89-29.21-40.232-64.792-.624-16.537,5.018-29.311,16.771-37.966,9.728-7.164,21.949-10.43,32.619-12.68a159.014,159.014,0,0,1,32.369-3.76c17.388,0,31.308,4.1,41.374,12.2,8.283,6.659,12.566,14.876,15.371,21.291,3.574,8.17,5.952,21.227,6.207,34.078.222,11.2-1.012,27.531-8.154,41.728C514.665,171.206,493,174.2,476.081,174.2ZM467.037,48.22a158.435,158.435,0,0,0-32.252,3.748c-24.939,5.258-50.255,15.318-48.943,50.072,1.333,35.314,14.363,56.339,39.836,64.275,11.693,3.643,31.811,7.32,50.4,7.32h.006c16.758,0,38.209-2.939,45.251-16.938,7.09-14.093,8.315-30.327,8.094-41.463-.253-12.781-2.614-25.757-6.16-33.863C519.3,72.3,508.764,48.22,467.037,48.22Z" transform="translate(-385.231 -47.656)"/>
            </g>
          </g>
          <g id="Grupo_1230248" data-name="Grupo 1230248" transform="translate(161.317 28.954)">
            <g id="Grupo_1230247" data-name="Grupo 1230247" transform="translate(0 0)">
              <path id="Trazado_1218883" data-name="Trazado 1218883" d="M407.9,99.45H385.771a6.692,6.692,0,0,0-6.55,7.308l.6,10.166a6.938,6.938,0,0,0,6.92,6.556l16.01-.241c.835,2.484,1.447,4.9,3.049,4.784,1.146-.113,1.637-2.536,1.963-4.875a6.814,6.814,0,0,0,6.249-6.6l.36-9.952A6.671,6.671,0,0,0,407.9,99.45Z" transform="translate(-378.925 -99.168)" fill="#fff"/>
              <path id="Trazado_1218884" data-name="Trazado 1218884" d="M405.467,128.092c-1.568,0-2.214-1.967-2.961-4.244q-.088-.268-.178-.541l-15.909.239a7.183,7.183,0,0,1-7.1-6.823l-.6-10.166a7.383,7.383,0,0,1,1.941-5.495,6.66,6.66,0,0,1,4.891-2.112h22.128a6.532,6.532,0,0,1,4.734,2.029,7.426,7.426,0,0,1,2.018,5.412l-.36,9.952a7.123,7.123,0,0,1-6.284,6.852c-.359,2.493-.884,4.764-2.183,4.892C405.555,128.09,405.51,128.092,405.467,128.092Zm-2.938-5.352a.282.282,0,0,1,.268.192c.084.248.165.5.246.74.7,2.122,1.309,3.946,2.515,3.852,1.073-.106,1.531-3.394,1.7-4.632a.283.283,0,0,1,.262-.243,6.541,6.541,0,0,0,5.985-6.327l.36-9.952a6.857,6.857,0,0,0-1.86-5,5.971,5.971,0,0,0-4.328-1.856H385.554a6.1,6.1,0,0,0-4.481,1.935,6.822,6.822,0,0,0-1.788,5.075l.6,10.166a6.7,6.7,0,0,0,6.538,6.291h.1l16.01-.241Z" transform="translate(-378.707 -98.95)"/>
            </g>
            <path id="Trazado_1218885" data-name="Trazado 1218885" d="M395.038,119.572a2.17,2.17,0,1,1-2.169-2.222A2.2,2.2,0,0,1,395.038,119.572Z" transform="translate(-383.93 -106.964)" fill="#70badb"/>
            <path id="Trazado_1218886" data-name="Trazado 1218886" d="M410.231,119.572a2.17,2.17,0,1,1-2.17-2.222A2.2,2.2,0,0,1,410.231,119.572Z" transform="translate(-390.547 -106.964)" fill="#70badb"/>
            <path id="Trazado_1218887" data-name="Trazado 1218887" d="M425.423,119.572a2.17,2.17,0,1,1-2.169-2.222A2.2,2.2,0,0,1,425.423,119.572Z" transform="translate(-397.163 -106.964)" fill="#70badb"/>
          </g>
          <g id="Grupo_1230275" data-name="Grupo 1230275" transform="translate(119.794 113.511)">
            <g id="Grupo_1230249" data-name="Grupo 1230249" transform="translate(119.411 106.331)">
              <path id="Trazado_1218888" data-name="Trazado 1218888" d="M538.942,437.682h-21.97a.282.282,0,0,1,0-.565h21.971a.282.282,0,1,1,0,.565Z" transform="translate(-516.69 -437.118)"/>
            </g>
            <path id="Trazado_1218889" data-name="Trazado 1218889" d="M437.129,275.672c-6.511-3.14-7.736-10.187,1.762-12.868-6.664-8.2.076-12.945,4.6-13.865s13.481,1.379,22.136,8.809,12.409,7.813,15.013,13.634,1.378,10.341-1.226,16.239-2.91,7.736,2.145,12.485,9.191,9.5,5.668,18.46-45.651,5.668-47.643-.46,2.757-28.57,2.757-28.57Z" transform="translate(-360.397 -248.748)"/>
            <path id="Trazado_1218890" data-name="Trazado 1218890" d="M432.3,345.48c-1-4.366.16-14.39,8.885-19.379,6.363-3.639,9.728,1.456,9.728,1.456l1,16.775S434.448,345.557,432.3,345.48Z" transform="translate(-360.397 -281.866)"/>
            <g id="Grupo_1230250" data-name="Grupo 1230250" transform="translate(19.308 36.145)">
              <path id="Trazado_1218891" data-name="Trazado 1218891" d="M343.147,315.267c-.765-1.072-1.913-2.54-2.985-1.774s.635,6.985,5.436,6.216A41.425,41.425,0,0,1,343.147,315.267Z" transform="translate(-339.571 -312.999)" fill="#fff"/>
              <path id="Trazado_1218892" data-name="Trazado 1218892" d="M344.576,319.84h0c-2.691,0-4.35-2.2-4.953-4.081-.313-.976-.459-2.271.158-2.712a1.347,1.347,0,0,1,.792-.265c.953,0,1.806,1.012,2.586,2.1a43.038,43.038,0,0,0,2.457,4.45.282.282,0,0,1-.19.435A5.346,5.346,0,0,1,344.576,319.84Zm-4-6.494a.782.782,0,0,0-.464.16c-.21.15-.308.956.052,2.081a4.831,4.831,0,0,0,4.416,3.689h0c.105,0,.212,0,.32-.011a44.477,44.477,0,0,1-2.222-4.095C342.3,314.655,341.365,313.345,340.572,313.345Z" transform="translate(-339.352 -312.781)"/>
            </g>
            <g id="Grupo_1230251" data-name="Grupo 1230251" transform="translate(32.494 33.622)">
              <path id="Trazado_1218893" data-name="Trazado 1218893" d="M366.878,314.01c-2.6-.843-4.289-2.91-3.446-4.6s3.6.536,5.515,2.068a9.048,9.048,0,0,0,3.753,1.839A9.183,9.183,0,0,1,366.878,314.01Z" transform="translate(-362.931 -308.529)" fill="#fff"/>
              <path id="Trazado_1218894" data-name="Trazado 1218894" d="M368.483,314.3a7.637,7.637,0,0,1-1.893-.231,5.859,5.859,0,0,1-3.658-2.91,2.437,2.437,0,0,1,.029-2.086,1.292,1.292,0,0,1,1.217-.759c1.31,0,3.184,1.5,4.69,2.7a8.955,8.955,0,0,0,3.661,1.81.282.282,0,0,1,.082.529A9.894,9.894,0,0,1,368.483,314.3Zm-4.3-5.422a.732.732,0,0,0-.712.447,1.865,1.865,0,0,0-.014,1.615,5.28,5.28,0,0,0,3.294,2.586,7.081,7.081,0,0,0,1.736.209,9.438,9.438,0,0,0,3.125-.572,9.978,9.978,0,0,1-3.056-1.677C367.154,310.366,365.29,308.875,364.179,308.875Z" transform="translate(-362.713 -308.311)"/>
            </g>
            <g id="Grupo_1230252" data-name="Grupo 1230252" transform="translate(21.98 31.926)">
              <path id="Trazado_1218895" data-name="Trazado 1218895" d="M361.5,336.218c-.2-4.494-.715-13.481-1.429-16.34s-5.21-2.044-5.515-2.146-5.9,2.017-8.655-3.574-.536-7.66,1-7.124c.536-1.838,2.068-1.3,2.91-.383.766-1.609,2.987.077,3.523,2.145s1.072,3.907,5.361,3.37,9.575-1.762,11.643,4.442a138.157,138.157,0,0,1,3.753,15.856S373.271,338.592,361.5,336.218Z" transform="translate(-344.306 -305.524)" fill="#fff"/>
              <path id="Trazado_1218896" data-name="Trazado 1218896" d="M366.189,336.828a25.41,25.41,0,0,1-4.965-.553.283.283,0,0,1-.226-.264c-.138-3.039-.648-13.192-1.421-16.285-.327-1.3-1.617-1.966-3.836-1.966-.361,0-.68.016-.922.029a2.782,2.782,0,0,1-.529,0c-.061,0-.169.029-.316.058a11.078,11.078,0,0,1-2.249.256,6.706,6.706,0,0,1-6.3-4.043c-1.919-3.892-1.362-5.83-.858-6.639a1.9,1.9,0,0,1,1.923-.948,1.562,1.562,0,0,1,1.479-1.17,2.461,2.461,0,0,1,1.562.678,1.2,1.2,0,0,1,.964-.475c1.123,0,2.472,1.4,2.886,3,.453,1.746.844,3.254,3.706,3.254a11,11,0,0,0,1.347-.092c.314-.039.634-.082.958-.126a29.042,29.042,0,0,1,3.841-.345c2.337,0,5.622.529,7.147,5.1a139.2,139.2,0,0,1,3.763,15.9.274.274,0,0,1,0,.086C374.141,332.328,373.456,336.828,366.189,336.828Zm-4.637-1.062a24.543,24.543,0,0,0,4.637.5c6.423,0,7.312-3.6,7.392-4.018a137.653,137.653,0,0,0-3.735-15.767c-1.394-4.182-4.266-4.718-6.611-4.718a28.689,28.689,0,0,0-3.766.34c-.325.044-.647.087-.963.127a11.566,11.566,0,0,1-1.417.1c-3.3,0-3.806-1.953-4.253-3.676-.376-1.45-1.566-2.575-2.34-2.575a.709.709,0,0,0-.656.48.281.281,0,0,1-.213.157.278.278,0,0,1-.25-.088,2.1,2.1,0,0,0-1.408-.752c-.481,0-.826.344-1.024,1.023a.281.281,0,0,1-.364.187,1.315,1.315,0,0,0-1.534.641c-.355.572-.98,2.309.885,6.092a6.1,6.1,0,0,0,5.791,3.727,10.561,10.561,0,0,0,2.138-.245,2.713,2.713,0,0,1,.441-.07.543.543,0,0,1,.121.018l.365-.019c.249-.012.579-.03.952-.03,2.511,0,3.987.806,4.384,2.393C360.892,322.662,361.4,332.471,361.552,335.766Z" transform="translate(-344.085 -305.306)"/>
            </g>
            <g id="Grupo_1230253" data-name="Grupo 1230253" transform="translate(22.158 37.205)">
              <path id="Trazado_1218897" data-name="Trazado 1218897" d="M348,321.008a.282.282,0,0,1-.172-.059,9.683,9.683,0,0,1-3.42-5.952.282.282,0,1,1,.553-.113,9.136,9.136,0,0,0,3.212,5.619.282.282,0,0,1-.173.505Z" transform="translate(-344.401 -314.658)"/>
            </g>
            <g id="Grupo_1230254" data-name="Grupo 1230254" transform="translate(27.128 32.769)">
              <path id="Trazado_1218898" data-name="Trazado 1218898" d="M359.074,316.557h-.012a5.051,5.051,0,0,1-3.884-2.006,11.289,11.289,0,0,1-1.9-7.521.282.282,0,0,1,.554.106,10.8,10.8,0,0,0,1.785,7.065,4.506,4.506,0,0,0,3.465,1.792.282.282,0,0,1-.012.564Z" transform="translate(-353.206 -306.8)"/>
            </g>
            <g id="Grupo_1230255" data-name="Grupo 1230255" transform="translate(24.206 33.153)">
              <path id="Trazado_1218899" data-name="Trazado 1218899" d="M353.832,318.92h-.024a5.011,5.011,0,0,1-3.657-2.043c-2.253-2.917-2.24-7.988-2.036-9.163a.279.279,0,0,1,.327-.229.282.282,0,0,1,.23.326c-.2,1.12-.211,5.954,1.927,8.721a4.466,4.466,0,0,0,3.258,1.826.282.282,0,0,1-.024.563Z" transform="translate(-348.03 -307.479)"/>
            </g>
            <path id="Trazado_1218900" data-name="Trazado 1218900" d="M452.345,368.635c2.528,1.149,9.881,3.753,23.208.383-.46,9.191-1.378,28.57-1.378,28.57s-11.107,6.281-18.537,3.677C453.57,397.742,452.345,368.635,452.345,368.635Z" transform="translate(-369.255 -300.961)"/>
            <g id="Grupo_1230256" data-name="Grupo 1230256" transform="translate(73.666 12.05)">
              <path id="Trazado_1218901" data-name="Trazado 1218901" d="M447.573,318.663c2.221-.306,4.619-1.152,4.388-4.829s-.842-8.5-.842-8.5a15.218,15.218,0,0,1-14.017-8.962c-2.6-5.9.842-8.962,2.757-15.089s5.516-11.183,13.557-10.647S465.748,275,465.748,275c-1.378,7.2-2.757,17.388.23,18s3.754-4.672,3.754-4.672c4.519-2.222,9.253.482,7.43,4.442-2.221,4.826-7.506,2.375-7.506,2.375-1.072,2.757-5.591,5.821-5.591,5.821.689,5.668,1.376,15.044,5.665,15.581-1.762,8.962-2.677,12.224-2.677,12.224s-15.4,3.753-20.988-1.762C446.293,325.094,447.573,318.663,447.573,318.663Z" transform="translate(-435.874 -270.312)" fill="#fff"/>
              <path id="Trazado_1218902" data-name="Trazado 1218902" d="M456.306,330.082c-5,0-8.586-1.04-10.665-3.09a.286.286,0,0,1-.082-.235c.228-1.9,1.46-8.1,1.513-8.367a.281.281,0,0,1,.238-.224c2.172-.3,4.362-1.072,4.146-4.532-.2-3.161-.685-7.22-.811-8.243a15.5,15.5,0,0,1-14.026-9.125c-1.916-4.339-.66-7.148.93-10.706a40.408,40.408,0,0,0,1.816-4.582c2.428-7.769,6.945-11.3,13.845-10.844,8.047.536,12.323,4.278,12.5,4.437a.283.283,0,0,1,.089.264c-2.069,10.8-2.065,17.245.01,17.671a2.043,2.043,0,0,0,.414.044c2.326,0,3-4.435,3-4.48a.283.283,0,0,1,.155-.213,7.842,7.842,0,0,1,3.43-.829,4.953,4.953,0,0,1,4.276,2.006,3.7,3.7,0,0,1,.1,3.636,5.023,5.023,0,0,1-4.8,3.162,8.136,8.136,0,0,1-2.808-.537c-1.139,2.481-4.673,5.05-5.442,5.588.052.432.1.885.158,1.352.648,5.635,1.537,13.35,5.241,13.814a.282.282,0,0,1,.242.335c-1.744,8.871-2.673,12.214-2.682,12.246a.282.282,0,0,1-.2.2A51.282,51.282,0,0,1,456.306,330.082Zm-10.169-3.4c1.986,1.879,5.405,2.831,10.169,2.831a50.664,50.664,0,0,0,10.293-1.2c.2-.749,1.079-4.183,2.573-11.759-3.892-.855-4.781-8.579-5.434-14.258-.06-.527-.119-1.036-.177-1.517a.284.284,0,0,1,.122-.268c.044-.03,4.458-3.046,5.487-5.69a.282.282,0,0,1,.381-.154,7.6,7.6,0,0,0,2.839.6,4.445,4.445,0,0,0,4.292-2.833,3.109,3.109,0,0,0-.067-3.1,4.4,4.4,0,0,0-3.8-1.746,7.237,7.237,0,0,0-3.05.708c-.147.844-.972,4.813-3.538,4.813a2.624,2.624,0,0,1-.528-.055c-2.516-.517-2.678-6.629-.481-18.167a21.977,21.977,0,0,0-12.043-4.195c-6.682-.444-10.9,2.86-13.269,10.45a41.71,41.71,0,0,1-1.84,4.644c-1.533,3.43-2.743,6.139-.929,10.247a14.963,14.963,0,0,0,13.763,8.793.282.282,0,0,1,.276.247c.006.048.616,4.876.844,8.52.242,3.863-2.353,4.779-4.432,5.1C447.377,319.759,446.377,324.856,446.137,326.686Z" transform="translate(-435.651 -270.095)"/>
            </g>
            <g id="Grupo_1230257" data-name="Grupo 1230257" transform="translate(78.773 19.742)">
              <path id="Trazado_1218903" data-name="Trazado 1218903" d="M449.473,298.693a.283.283,0,0,1-.139-.037c-1.616-.921-2.463-1.823-2.59-2.759-.157-1.162.785-2.105,1.7-3.019.178-.178.356-.357.523-.534,1.491-1.588,1.333-4.481.555-6.5a2.2,2.2,0,0,0-1.673-1.521,3.114,3.114,0,0,0-2.655.9.282.282,0,1,1-.418-.379,3.673,3.673,0,0,1,3.176-1.071,2.748,2.748,0,0,1,2.1,1.873c.867,2.248,1,5.311-.671,7.086-.171.181-.352.364-.534.546-.813.816-1.655,1.66-1.535,2.545.1.739.877,1.527,2.31,2.343a.282.282,0,0,1-.139.527Z" transform="translate(-444.698 -283.722)"/>
            </g>
            <g id="Grupo_1230258" data-name="Grupo 1230258" transform="translate(88.986 20.886)">
              <path id="Trazado_1218904" data-name="Trazado 1218904" d="M471.192,290.027a.282.282,0,0,1-.234-.125c-2.978-4.442-6.143-3.83-7.766-3.068a.282.282,0,1,1-.239-.511c1.438-.673,5.142-1.705,8.473,3.265a.281.281,0,0,1-.077.391A.274.274,0,0,1,471.192,290.027Z" transform="translate(-462.79 -285.748)"/>
            </g>
            <path id="Trazado_1218905" data-name="Trazado 1218905" d="M467.99,298.85c-.3.955-.982,1.592-1.527,1.423s-.743-1.083-.445-2.039.982-1.592,1.525-1.421S468.288,297.894,467.99,298.85Z" transform="translate(-375.15 -269.669)"/>
            <g id="Grupo_1230259" data-name="Grupo 1230259" transform="translate(91.743 25.468)">
              <path id="Trazado_1218906" data-name="Trazado 1218906" d="M468.468,296.166a.282.282,0,0,1-.27-.2l-.511-1.736a.282.282,0,0,1,.541-.16l.511,1.736a.281.281,0,0,1-.271.362Z" transform="translate(-467.675 -293.866)"/>
            </g>
            <path id="Trazado_1218907" data-name="Trazado 1218907" d="M448.224,295.141c-.3.955-.982,1.592-1.526,1.423s-.743-1.083-.446-2.038.982-1.592,1.526-1.422S448.522,294.185,448.224,295.141Z" transform="translate(-366.541 -268.054)"/>
            <g id="Grupo_1230260" data-name="Grupo 1230260" transform="translate(80.586 23.374)">
              <path id="Trazado_1218908" data-name="Trazado 1218908" d="M448.7,292.456a.282.282,0,0,1-.27-.2l-.511-1.737a.282.282,0,0,1,.541-.16l.511,1.737a.282.282,0,0,1-.191.35A.284.284,0,0,1,448.7,292.456Z" transform="translate(-447.909 -290.155)"/>
            </g>
            <g id="Grupo_1230261" data-name="Grupo 1230261" transform="translate(81.033 35.554)">
              <path id="Trazado_1218909" data-name="Trazado 1218909" d="M451.1,316.559a1.97,1.97,0,0,1-1.481-.61c-.686-.717-.992-2.045-.909-3.946a.282.282,0,0,1,.472-.2c.4.37,1.591.8,3.605.8a17.143,17.143,0,0,0,4-.51.282.282,0,0,1,.279.461C454.838,315.1,452.663,316.559,451.1,316.559Zm-1.839-4.022a4.462,4.462,0,0,0,.765,3.022c1.074,1.12,3.465-.025,6.021-2.719C453.319,313.375,450.57,313.218,449.266,312.536Z" transform="translate(-448.702 -311.733)"/>
            </g>
            <g id="Grupo_1230262" data-name="Grupo 1230262" transform="translate(81.965 37.933)">
              <path id="Trazado_1218910" data-name="Trazado 1218910" d="M450.634,317.886a.28.28,0,0,1-.141-.037.283.283,0,0,1-.1-.386c.664-1.155,3.36-1.875,4.97-1.329a.282.282,0,0,1-.181.535c-1.457-.494-3.807.22-4.3,1.076A.281.281,0,0,1,450.634,317.886Z" transform="translate(-450.352 -315.948)"/>
            </g>
            <g id="Grupo_1230263" data-name="Grupo 1230263" transform="translate(88.475 43.494)">
              <path id="Trazado_1218911" data-name="Trazado 1218911" d="M462.2,329.683a.3.3,0,0,1-.315-.283.282.282,0,0,1,.282-.281.338.338,0,0,1,.034,0c2.86,0,7.469-1.649,10.557-3.285a.282.282,0,0,1,.265.5C469.874,328,465.154,329.683,462.2,329.683Z" transform="translate(-461.886 -325.8)"/>
            </g>
            <path id="Trazado_1218912" data-name="Trazado 1218912" d="M374.185,355.482c1.3.459,7.659.459,12.792-2.452.842,4.672,3.983,18.613,3.983,18.613,4.366-4.749,10.417-10.34,13.175-12.715s6.97-4.672,11.106-4.519a48.94,48.94,0,0,0,6.281-.077s-3.293,5.821-1.608,21.983,2.221,18.307,2.221,18.307l-5.668-.536s1.149-3.6-2.3-7.736-4.442-6.74-4.9-9.8c-3.676,3.753-13.481,14.17-21.676,14.247s-11.107-7.277-12.255-16.469A175.041,175.041,0,0,1,374.185,355.482Z" transform="translate(-335.215 -294.165)" fill="#70badb"/>
            <g id="Grupo_1230264" data-name="Grupo 1230264" transform="translate(62.678 96.245)">
              <path id="Trazado_1218913" data-name="Trazado 1218913" d="M455.811,419.75c-2.3.689-12.181,3.624-16.7,3.317s-9.191-2.528-12.868-1.609-9.983,5.553-9.536,7.391c.344,1.417,2.03.651,2.03.651a1.275,1.275,0,0,0,1.839.612c.613,1.3,3.447.536,5.132-.919a6.051,6.051,0,0,1,6.358-1.3,39.983,39.983,0,0,0,11.413,2.451c4.749.23,15.933-.292,15.933-.292S461.1,423.426,455.811,419.75Z" transform="translate(-416.402 -419.468)" fill="#fff"/>
              <path id="Trazado_1218914" data-name="Trazado 1218914" d="M421.712,430.846a1.711,1.711,0,0,1-1.468-.594,1.862,1.862,0,0,1-.609.109,1.413,1.413,0,0,1-1.247-.727,2.717,2.717,0,0,1-.809.139,1.307,1.307,0,0,1-1.364-1.074c-.533-2.2,6.213-6.849,9.742-7.732a8.264,8.264,0,0,1,2.018-.23,26.031,26.031,0,0,1,5.661.9,34.118,34.118,0,0,0,5.277.933c3.976.274,12.216-1.992,16.6-3.306a.281.281,0,0,1,.242.038c5.383,3.745,3.728,10.535,3.711,10.6a.281.281,0,0,1-.26.212c-.076,0-7.579.351-12.85.351h0c-1.258,0-2.3-.02-3.11-.059a40.024,40.024,0,0,1-11.492-2.466,5.742,5.742,0,0,0-6.079,1.25A6.775,6.775,0,0,1,421.712,430.846Zm-1.355-1.231a.282.282,0,0,1,.255.161,1.144,1.144,0,0,0,1.1.505,6.16,6.16,0,0,0,3.593-1.518,6.3,6.3,0,0,1,6.636-1.354,39.475,39.475,0,0,0,11.332,2.435c.8.038,1.834.058,3.082.058,4.754,0,11.334-.283,12.606-.34.217-1.114,1.008-6.543-3.419-9.72-4.455,1.332-12.641,3.564-16.668,3.289a34.614,34.614,0,0,1-5.365-.947,25.65,25.65,0,0,0-5.535-.883,7.679,7.679,0,0,0-1.881.213c-3.7.924-9.715,5.47-9.33,7.05a.75.75,0,0,0,.816.643,2.3,2.3,0,0,0,.824-.182.284.284,0,0,1,.371.137.929.929,0,0,0,.86.633,1.372,1.372,0,0,0,.585-.147A.287.287,0,0,1,420.358,429.615Z" transform="translate(-416.185 -419.251)"/>
            </g>
            <g id="Grupo_1230265" data-name="Grupo 1230265" transform="translate(101.625 58.176)">
              <path id="Trazado_1218915" data-name="Trazado 1218915" d="M520.34,384.745c-3.37-9.038-6.281-18.842-9.038-23.285s-6.051-8.578-12.179-9.191c-4.442-.307-8.426-.459-8.426-.459-1.455,3.83-6.127,22.366-3.676,37.915a3.2,3.2,0,0,0-1.838.613c2.451,1.991,3.829,5.591,3.217,10.417a94.547,94.547,0,0,0,25.583-1.762C517.659,398.073,523.71,393.784,520.34,384.745Zm-21.6,2.834.536-6.433,1.762,5.974Z" transform="translate(-485.182 -351.809)" fill="#70badb"/>
            </g>
            <g id="Grupo_1230266" data-name="Grupo 1230266" transform="translate(34.576 37.893)">
              <path id="Trazado_1218916" data-name="Trazado 1218916" d="M366.682,316.882a.282.282,0,0,1-.017-.564c.526-.033,1.159-.093,1.849-.158,2.315-.219,5.2-.489,6.918-.046a.282.282,0,0,1-.141.546c-1.629-.421-4.454-.154-6.723.06-.7.065-1.336.126-1.867.159Z" transform="translate(-366.4 -315.876)"/>
            </g>
            <g id="Grupo_1230267" data-name="Grupo 1230267" transform="translate(73.809 75.587)">
              <path id="Trazado_1218917" data-name="Trazado 1218917" d="M436.375,391.031a.282.282,0,0,1-.276-.227,16.126,16.126,0,0,1,.856-7.967.282.282,0,1,1,.528.2,15.7,15.7,0,0,0-.83,7.658.282.282,0,0,1-.222.332A.312.312,0,0,1,436.375,391.031Z" transform="translate(-435.904 -382.653)"/>
            </g>
            <g id="Grupo_1230268" data-name="Grupo 1230268" transform="translate(101.514 92.055)">
              <path id="Trazado_1218918" data-name="Trazado 1218918" d="M485.266,416.554a.282.282,0,0,1-.072-.555c2.477-.656,18-3.7,23.469-4.17a.282.282,0,0,1,.049.562c-5.449.467-20.905,3.5-23.373,4.153A.268.268,0,0,1,485.266,416.554Z" transform="translate(-484.984 -411.828)"/>
            </g>
            <g id="Grupo_1230269" data-name="Grupo 1230269" transform="translate(113.062 77.655)">
              <path id="Trazado_1218919" data-name="Trazado 1218919" d="M508.482,397.453a.284.284,0,0,1-.269-.2c-.554-1.732-1.917-7.2-2.572-9.824l-.191-.763a.282.282,0,1,1,.548-.137l.191.764c.653,2.621,2.013,8.074,2.562,9.789a.283.283,0,0,1-.183.355A.292.292,0,0,1,508.482,397.453Z" transform="translate(-505.442 -386.318)"/>
            </g>
            <g id="Grupo_1230270" data-name="Grupo 1230270" transform="translate(66.568 101.323)">
              <path id="Trazado_1218920" data-name="Trazado 1218920" d="M423.36,434.1h-.026a.282.282,0,0,1-.256-.306c.093-1.026,4.218-4.467,7.939-5.531a.282.282,0,0,1,.155.542c-3.745,1.07-7.472,4.375-7.533,5.039A.281.281,0,0,1,423.36,434.1Z" transform="translate(-423.077 -428.246)"/>
            </g>
            <g id="Grupo_1230271" data-name="Grupo 1230271" transform="translate(64.73 100.174)">
              <path id="Trazado_1218921" data-name="Trazado 1218921" d="M420.1,432.6a.282.282,0,0,1-.282-.282c0-1.472,3.091-4.577,7.934-6.091a.282.282,0,0,1,.169.539c-4.973,1.554-7.538,4.6-7.538,5.552A.283.283,0,0,1,420.1,432.6Z" transform="translate(-419.82 -426.211)"/>
            </g>
            <g id="Grupo_1230274" data-name="Grupo 1230274" transform="translate(0 73.121)">
              <path id="Trazado_1218922" data-name="Trazado 1218922" d="M390.148,411.223H365.96l-9.734-28.429a7.148,7.148,0,0,0-6.309-4.507H308.61a3.2,3.2,0,0,0-3.22,4.507l10.027,29.286c1.1,2.843,1.225,5.184,4.076,5.184h70.656a3.02,3.02,0,1,0,0-6.04Z" transform="translate(-305.147 -378.286)" fill="#f2ac30"/>
              <g id="Grupo_1230272" data-name="Grupo 1230272" transform="translate(10.356 33.179)">
                <path id="Trazado_1218923" data-name="Trazado 1218923" d="M371.818,437.629H323.776a.282.282,0,1,1,0-.564h48.041a.282.282,0,0,1,0,.564Z" transform="translate(-323.494 -437.065)"/>
              </g>
              <g id="Grupo_1230273" data-name="Grupo 1230273" transform="translate(24.496 14.212)">
                <path id="Trazado_1218924" data-name="Trazado 1218924" d="M353.9,412.853c-2.087,0-4.383-2.071-5.118-4.617a4.235,4.235,0,0,1,.418-3.732,2.619,2.619,0,0,1,2.151-1.041c2.089,0,4.384,2.072,5.117,4.617a4.234,4.234,0,0,1-.419,3.732A2.617,2.617,0,0,1,353.9,412.853Zm-2.549-8.826a2.04,2.04,0,0,0-1.7.815,3.691,3.691,0,0,0-.327,3.236c.67,2.321,2.723,4.209,4.576,4.209a2.038,2.038,0,0,0,1.7-.815,3.688,3.688,0,0,0,.328-3.236C355.252,405.916,353.2,404.027,351.346,404.027Z" transform="translate(-348.543 -403.463)"/>
              </g>
            </g>
          </g>
        </g>
      </g>
    </g>
  </g>
</svg>
