<svg xmlns="http://www.w3.org/2000/svg" xmlns:xlink="http://www.w3.org/1999/xlink" width="399.5" height="327.653" viewBox="0 0 399.5 327.653">
  <defs>
    <clipPath id="clip-path">
      <rect id="Rectángulo_422431" data-name="Rectángulo 422431" width="399.5" height="327.653" transform="translate(180.5 798.5)" fill="#fff" stroke="#707070" stroke-width="1"/>
    </clipPath>
  </defs>
  <g id="Grupo_1230185" data-name="Grupo 1230185" transform="translate(-180.5 -798.5)">
    <rect id="Rectángulo_422698" data-name="Rectángulo 422698" width="326" height="214" rx="16" transform="translate(254 831)" fill="#cefcf7"/>
    <g id="Enmascarar_grupo_1208508" data-name="Enmascarar grupo 1208508" clip-path="url(#clip-path)">
      <g id="_33756670_8104936" data-name="33756670_8104936" transform="translate(154.552 730.975)">
        <g id="Background_complete" transform="translate(0 55.2)">
          <path id="Trazado_1218616" data-name="Trazado 1218616" d="M240.074,177.96c2.957-3.517,14.179-5.87,20.376-.315,0,0-2.135-3.3,0-6.116,0,0-2.818,1.83-5.337,0s-3.122-10.977-3.122-10.977-.592,9.291-4.734,10.14-6.794-5.043-6.794-5.043,2.252,6.463,1.126,7.472-3.378,0-3.378,0Z" transform="translate(-35.518 -70.908)" fill="#e0e0e0"/>
          <path id="Trazado_1218617" data-name="Trazado 1218617" d="M228.733,191.1s-4.077,7.914,0,14.991a6.51,6.51,0,0,0-5.737-.63,5.028,5.028,0,0,0,1.372-3.485c-.23-1.793-7.6-4.328-7.6-4.328s5.807.534,7.071-1.478-3.2-5.908-3.2-5.908,4.883,2.636,5.94,1.793,0-3.485,0-3.485Z" transform="translate(-32.321 -75.086)" fill="#e0e0e0"/>
          <path id="Trazado_1218618" data-name="Trazado 1218618" d="M273.7,207.457s4.12-5.71.843-14.383l2.828-1.7s-1.067,1.809-.422,2.957,6.65.352,6.65.352-4.75.956-4.957,3.463,5.908,6.175,5.908,6.175-5.593-1.4-6.751,0,1.318,4.109,1.318,4.109S276.341,206.443,273.7,207.457Z" transform="translate(-40.809 -75.505)" fill="#e0e0e0"/>
          <path id="Trazado_1218619" data-name="Trazado 1218619" d="M80.14,140.4a31.766,31.766,0,0,0-4.538,11l-6.14.579v11.891l6.141.579a31.764,31.764,0,0,0,4.538,11l-3.922,4.737,8.409,8.409,4.737-3.922a31.755,31.755,0,0,0,11,4.537l.578,6.141h11.891l.579-6.14a31.766,31.766,0,0,0,11-4.538l4.737,3.922,8.409-8.409-3.922-4.737a31.771,31.771,0,0,0,4.537-11l6.14-.579V151.973l-6.14-.579a31.778,31.778,0,0,0-4.539-11l3.922-4.738-8.409-8.409-4.737,3.922a31.782,31.782,0,0,0-11-4.539l-.579-6.141H100.937l-.578,6.14a31.752,31.752,0,0,0-11,4.538l-4.738-3.922-8.409,8.409Zm38.127,6.137a16.1,16.1,0,1,1-22.767,0A16.1,16.1,0,0,1,118.267,146.536Z" transform="translate(-10.357 -64.936)" fill="#e0e0e0"/>
          <path id="Trazado_1218620" data-name="Trazado 1218620" d="M167.363,74.521a17.293,17.293,0,0,0-2.471,5.989l-3.344.315V87.3l3.345.315a17.306,17.306,0,0,0,2.471,5.989l-2.136,2.58,4.58,4.58,2.58-2.136a17.292,17.292,0,0,0,5.989,2.471l.315,3.345h6.476l.315-3.344a17.315,17.315,0,0,0,5.989-2.471l2.58,2.136,4.58-4.58-2.136-2.58a17.3,17.3,0,0,0,2.471-5.989l3.344-.315V80.825l-3.344-.315a17.3,17.3,0,0,0-2.472-5.988l2.136-2.58-4.58-4.58-2.58,2.136a17.308,17.308,0,0,0-5.989-2.472l-.315-3.344h-6.476l-.315,3.344a17.306,17.306,0,0,0-5.989,2.471l-2.58-2.136-4.58,4.58Zm20.764,3.342a8.767,8.767,0,1,1-12.4,0A8.767,8.767,0,0,1,188.127,77.863Z" transform="translate(-24.087 -46.635)" fill="#f0f0f0"/>
          <path id="Trazado_1218621" data-name="Trazado 1218621" d="M307.288,219.38a12.176,12.176,0,0,0-1.738,4.209l-2.351.221v4.552l2.351.221a12.15,12.15,0,0,0,1.738,4.209l-1.5,1.813,3.219,3.219,1.813-1.5a12.148,12.148,0,0,0,4.209,1.737l.221,2.351H319.8l.221-2.35a12.149,12.149,0,0,0,4.209-1.738l1.813,1.5,3.219-3.219-1.5-1.813a12.163,12.163,0,0,0,1.737-4.209l2.35-.221v-4.552l-2.35-.221a12.155,12.155,0,0,0-1.738-4.209l1.5-1.813-3.219-3.219-1.813,1.5a12.166,12.166,0,0,0-4.209-1.738l-.221-2.351h-4.552l-.221,2.35a12.164,12.164,0,0,0-4.209,1.737l-1.813-1.5-3.219,3.219Zm14.595,2.349a6.162,6.162,0,1,1-8.715,0A6.163,6.163,0,0,1,321.882,221.729Z" transform="translate(-45.208 -78.544)" fill="#e0e0e0"/>
          <path id="Trazado_1218622" data-name="Trazado 1218622" d="M292.266,263.358a17.311,17.311,0,0,0-2.472,5.989l-3.344.315v6.476l3.345.315a17.305,17.305,0,0,0,2.471,5.989l-2.136,2.58,4.579,4.58,2.58-2.136a17.293,17.293,0,0,0,5.989,2.471l.315,3.345h6.476l.315-3.344a17.284,17.284,0,0,0,5.989-2.472l2.58,2.136,4.58-4.58-2.136-2.58a17.293,17.293,0,0,0,2.471-5.989l3.344-.315v-6.476l-3.344-.316a17.3,17.3,0,0,0-2.472-5.988l2.136-2.58-4.58-4.58-2.58,2.136a17.308,17.308,0,0,0-5.989-2.472l-.315-3.344h-6.476l-.315,3.344a17.306,17.306,0,0,0-5.989,2.471l-2.58-2.136-4.579,4.58ZM313.03,266.7a8.768,8.768,0,1,1-12.4,0A8.769,8.769,0,0,1,313.03,266.7Z" transform="translate(-42.711 -84.621)" fill="#e0e0e0"/>
          <path id="Trazado_1218623" data-name="Trazado 1218623" d="M348.4,247.644a24.442,24.442,0,0,0-3.491,8.459l-4.724.445V265.7l4.724.445a24.426,24.426,0,0,0,3.491,8.46l-3.017,3.644,6.469,6.469L355.5,281.7a24.431,24.431,0,0,0,8.459,3.49l.445,4.724h9.147l.445-4.723a24.446,24.446,0,0,0,8.46-3.491l3.644,3.017,6.469-6.469-3.017-3.644a24.431,24.431,0,0,0,3.49-8.459l4.723-.445v-9.148l-4.723-.445a24.45,24.45,0,0,0-3.491-8.459L392.565,244l-6.469-6.469-3.644,3.017a24.439,24.439,0,0,0-8.459-3.491l-.445-4.724H364.4l-.445,4.724a24.446,24.446,0,0,0-8.459,3.49l-3.644-3.017L345.383,244Zm29.33,4.722a12.384,12.384,0,1,1-17.514,0A12.386,12.386,0,0,1,377.73,252.366Z" transform="translate(-50.723 -81.611)" fill="#f0f0f0"/>
          <path id="Trazado_1218624" data-name="Trazado 1218624" d="M294.469,83.835a20.248,20.248,0,0,0-2.894,7.011l-3.916.368V98.8l3.916.369a20.231,20.231,0,0,0,2.894,7.011l-2.5,3.021,5.362,5.362,3.021-2.5a20.245,20.245,0,0,0,7.011,2.893l.368,3.916h7.582l.369-3.915a20.258,20.258,0,0,0,7.012-2.894l3.021,2.5,5.362-5.362-2.5-3.021a20.245,20.245,0,0,0,2.893-7.011l3.915-.369V91.214l-3.915-.369a20.278,20.278,0,0,0-2.894-7.011l2.5-3.021-5.362-5.361-3.021,2.5a20.277,20.277,0,0,0-7.011-2.894l-.368-3.916h-7.583l-.368,3.916a20.247,20.247,0,0,0-7.011,2.894l-3.021-2.5-5.362,5.362Zm24.312,3.913a10.265,10.265,0,1,1-14.517,0A10.266,10.266,0,0,1,318.781,87.748Z" transform="translate(-42.891 -57.577)" fill="#f0f0f0"/>
          <path id="Trazado_1218625" data-name="Trazado 1218625" d="M66.928,276.128a19.107,19.107,0,0,0-2.731,6.618l-3.7.348v7.157l3.7.348a19.115,19.115,0,0,0,2.731,6.618l-2.36,2.851,5.061,5.061,2.851-2.36A19.106,19.106,0,0,0,79.1,305.5l.348,3.7H86.6l.348-3.7a19.107,19.107,0,0,0,6.618-2.731l2.851,2.36,5.061-5.061-2.36-2.851a19.122,19.122,0,0,0,2.731-6.618l3.7-.348v-7.157l-3.7-.348a19.126,19.126,0,0,0-2.731-6.617l2.36-2.851-5.061-5.061-2.851,2.36a19.13,19.13,0,0,0-6.618-2.731l-.348-3.7H79.447l-.348,3.7a19.1,19.1,0,0,0-6.617,2.731l-2.851-2.36-5.061,5.061Zm22.948,3.694a9.689,9.689,0,1,1-13.7,0A9.689,9.689,0,0,1,89.876,279.822Z" transform="translate(-9.021 -86.355)" fill="#f0f0f0"/>
          <g id="Grupo_1230079" data-name="Grupo 1230079">
            <g id="Grupo_1230078" data-name="Grupo 1230078">
              <g id="Grupo_1230075" data-name="Grupo 1230075" transform="translate(41.595)">
                <g id="Grupo_1230072" data-name="Grupo 1230072" transform="translate(177.351)">
                  <g id="Grupo_1230071" data-name="Grupo 1230071">
                    <path id="Trazado_1218626" data-name="Trazado 1218626" d="M416.1,289.195H262.3a4.994,4.994,0,0,1-4.988-4.988V60.188A4.994,4.994,0,0,1,262.3,55.2H416.1a4.993,4.993,0,0,1,4.988,4.988V284.206A4.993,4.993,0,0,1,416.1,289.195ZM262.3,55.413a4.781,4.781,0,0,0-4.775,4.775V284.206a4.781,4.781,0,0,0,4.775,4.775H416.1a4.781,4.781,0,0,0,4.775-4.775V60.188a4.781,4.781,0,0,0-4.775-4.775Z" transform="translate(-257.312 -55.2)" fill="#e0e0e0"/>
                  </g>
                </g>
                <g id="Grupo_1230074" data-name="Grupo 1230074">
                  <g id="Grupo_1230073" data-name="Grupo 1230073">
                    <path id="Trazado_1218627" data-name="Trazado 1218627" d="M207.669,289.195H53.872a4.994,4.994,0,0,1-4.988-4.988V60.188A4.993,4.993,0,0,1,53.872,55.2h153.8a4.993,4.993,0,0,1,4.988,4.988V284.206A4.994,4.994,0,0,1,207.669,289.195ZM53.872,55.413A4.781,4.781,0,0,0,49.1,60.188V284.206a4.781,4.781,0,0,0,4.775,4.775h153.8a4.781,4.781,0,0,0,4.775-4.775V60.188a4.781,4.781,0,0,0-4.775-4.775Z" transform="translate(-48.884 -55.2)" fill="#e0e0e0"/>
                  </g>
                </g>
              </g>
              <g id="Grupo_1230077" data-name="Grupo 1230077" transform="translate(0 285.958)">
                <g id="Grupo_1230076" data-name="Grupo 1230076">
                  <rect id="Rectángulo_422679" data-name="Rectángulo 422679" width="425.448" height="0.213" fill="#e0e0e0"/>
                </g>
              </g>
            </g>
            <rect id="Rectángulo_422680" data-name="Rectángulo 422680" width="13.665" height="0.213" transform="translate(43.968 298.095)" fill="#e0e0e0"/>
            <rect id="Rectángulo_422681" data-name="Rectángulo 422681" width="45.548" height="0.213" transform="translate(144.952 295.789)" fill="#e0e0e0"/>
            <rect id="Rectángulo_422682" data-name="Rectángulo 422682" width="30.845" height="0.213" transform="translate(58.484 306)" fill="#e0e0e0"/>
            <rect id="Rectángulo_422683" data-name="Rectángulo 422683" width="36.75" height="0.213" transform="translate(321.938 295.679)" fill="#e0e0e0"/>
            <rect id="Rectángulo_422684" data-name="Rectángulo 422684" width="5.386" height="0.213" transform="translate(366.27 295.679)" fill="#e0e0e0"/>
            <rect id="Rectángulo_422685" data-name="Rectángulo 422685" width="45.855" height="0.213" transform="translate(269.064 300.98)" fill="#e0e0e0"/>
          </g>
        </g>
        <g id="Shadow" transform="translate(34.993 381.436)">
          <g id="Grupo_1230081" data-name="Grupo 1230081">
            <g id="Grupo_1230080" data-name="Grupo 1230080">
              <path id="Trazado_1218628" data-name="Trazado 1218628" d="M396.587,443.821c0,2.882-79.573,5.218-177.731,5.218S41.125,446.7,41.125,443.821,120.7,438.6,218.856,438.6,396.587,440.939,396.587,443.821Z" transform="translate(-41.125 -438.603)" fill="#f5f5f5"/>
            </g>
          </g>
        </g>
        <g id="Light_Bulb" transform="translate(197.293 162.253)">
          <g id="freepik--light-bulb--inject-2">
            <g id="Grupo_1230086" data-name="Grupo 1230086">
              <g id="Grupo_1230082" data-name="Grupo 1230082">
                <path id="Trazado_1218629" data-name="Trazado 1218629" d="M258.235,231.812c0,2.16-3,3.893-6.657,3.835s-6.586-1.823-6.56-3.984,3-3.893,6.651-3.828S258.26,229.657,258.235,231.812Z" transform="translate(-233.826 -187.993)" fill="#263238"/>
                <path id="Trazado_1218630" data-name="Trazado 1218630" d="M260.487,223.217a1.948,1.948,0,0,0,.6-1.3c0-2.115-4.458-3.893-10.012-3.945s-10.077,1.6-10.1,3.718a1.943,1.943,0,0,0,.578,1.3,1.556,1.556,0,0,0-.175.649,1.835,1.835,0,0,0,.591,1.3,1.476,1.476,0,0,0-.188.688,1.8,1.8,0,0,0,.61,1.3,1.371,1.371,0,0,0-.208.7,1.764,1.764,0,0,0,.648,1.258,1.366,1.366,0,0,0-.22.707c0,1.759,3.7,3.244,8.325,3.284s8.377-1.3,8.4-3.095a1.35,1.35,0,0,0-.208-.714,1.749,1.749,0,0,0,.648-1.246,1.458,1.458,0,0,0-.188-.7,1.838,1.838,0,0,0,.649-1.258,1.509,1.509,0,0,0-.175-.694,1.856,1.856,0,0,0,.648-1.265A1.584,1.584,0,0,0,260.487,223.217Z" transform="translate(-233.223 -186.523)" fill="#263238"/>
                <path id="Trazado_1218631" data-name="Trazado 1218631" d="M260.487,223.217a1.948,1.948,0,0,0,.6-1.3c0-2.115-4.458-3.893-10.012-3.945s-10.077,1.6-10.1,3.718a1.943,1.943,0,0,0,.578,1.3,1.556,1.556,0,0,0-.175.649,1.835,1.835,0,0,0,.591,1.3,1.476,1.476,0,0,0-.188.688,1.8,1.8,0,0,0,.61,1.3,1.371,1.371,0,0,0-.208.7,1.764,1.764,0,0,0,.648,1.258,1.366,1.366,0,0,0-.22.707c0,1.759,3.7,3.244,8.325,3.284s8.377-1.3,8.4-3.095a1.35,1.35,0,0,0-.208-.714,1.749,1.749,0,0,0,.648-1.246,1.458,1.458,0,0,0-.188-.7,1.838,1.838,0,0,0,.649-1.258,1.509,1.509,0,0,0-.175-.694,1.856,1.856,0,0,0,.648-1.265A1.584,1.584,0,0,0,260.487,223.217Z" transform="translate(-233.223 -186.523)" fill="#fff" opacity="0.3"/>
                <path id="Trazado_1218632" data-name="Trazado 1218632" d="M267.46,199.019a17.8,17.8,0,1,0-29.238,13.425,2.925,2.925,0,0,1,1.051,2.543,1.007,1.007,0,0,0,0,.143c0,2.148,4.542,3.945,10.174,4.01s10.233-1.629,10.258-3.783v-.136a2.952,2.952,0,0,1,1.11-2.576A17.752,17.752,0,0,0,267.46,199.019Z" transform="translate(-231.865 -181.012)" fill="#407bff"/>
                <path id="Trazado_1218633" data-name="Trazado 1218633" d="M267.473,199.019a17.8,17.8,0,1,0-29.238,13.425,2.925,2.925,0,0,1,1.051,2.543,1,1,0,0,0,0,.143c0,2.148,4.542,3.945,10.174,4.01s10.233-1.629,10.258-3.783v-.136a2.952,2.952,0,0,1,1.11-2.576A17.747,17.747,0,0,0,267.473,199.019Z" transform="translate(-231.866 -181.012)" fill="#fff" opacity="0.5"/>
                <path id="Trazado_1218634" data-name="Trazado 1218634" d="M260.242,188.924c0,3.465-4.055,6.281-9.084,6.281s-9.084-2.816-9.084-6.281,4.055-6.287,9.084-6.287S260.242,185.453,260.242,188.924Z" transform="translate(-233.387 -181.254)" fill="#fff" opacity="0.2"/>
              </g>
              <path id="Trazado_1218635" data-name="Trazado 1218635" d="M236.518,206.918a13.674,13.674,0,0,1,2.494-16.9" transform="translate(-232.281 -182.355)" fill="none" stroke="#fff" stroke-linecap="round" stroke-linejoin="round" stroke-miterlimit="10" stroke-width="0.5"/>
              <g id="Grupo_1230083" data-name="Grupo 1230083" transform="translate(9.579 42.401)">
                <path id="Trazado_1218636" data-name="Trazado 1218636" d="M243.122,230.842a22.185,22.185,0,0,0,16.26.2,19.878,19.878,0,0,1-16.26-.2Z" transform="translate(-243.122 -230.842)" fill="#263238"/>
              </g>
              <g id="Grupo_1230084" data-name="Grupo 1230084" transform="translate(9.458 40.49)">
                <path id="Trazado_1218637" data-name="Trazado 1218637" d="M242.98,228.6a22.185,22.185,0,0,0,16.26.2,19.878,19.878,0,0,1-16.26-.2Z" transform="translate(-242.98 -228.597)" fill="#263238"/>
              </g>
              <g id="Grupo_1230085" data-name="Grupo 1230085" transform="translate(9.337 38.58)">
                <path id="Trazado_1218638" data-name="Trazado 1218638" d="M242.838,226.352a22.185,22.185,0,0,0,16.26.2,19.878,19.878,0,0,1-16.26-.2Z" transform="translate(-242.838 -226.352)" fill="#263238"/>
              </g>
              <path id="Trazado_1218639" data-name="Trazado 1218639" d="M247.948,218.385a31.163,31.163,0,0,0,.687-14.505c-.149-.773-.5-1.706-1.192-1.723-.621-.015-1.03.748-1.163,1.44-.474,2.446.794,4.931,2.417,6.62a4.967,4.967,0,0,0,3.131,1.771,4.265,4.265,0,0,0,3.194-1.588,8.125,8.125,0,0,0,1.877-7.131c-.253-1.063-1.007-2.2-1.956-2a1.724,1.724,0,0,0-1.138,1.368,5.688,5.688,0,0,0,.009,1.976,60.4,60.4,0,0,0,3.426,13.76" transform="translate(-233.999 -184.028)" fill="none" stroke="#263238" stroke-linecap="round" stroke-linejoin="round" stroke-miterlimit="10" stroke-width="0.5"/>
            </g>
          </g>
        </g>
        <g id="Speech_Bubble" transform="translate(269.592 89.099)">
          <g id="Grupo_1230090" data-name="Grupo 1230090">
            <g id="Grupo_1230087" data-name="Grupo 1230087" transform="translate(32.046 48.737)">
              <path id="Trazado_1218640" data-name="Trazado 1218640" d="M354.494,152.726c.529.106,8,8.879,8,8.879l6.4-9.289Z" transform="translate(-354.494 -152.316)" fill="#407bff"/>
              <path id="Trazado_1218641" data-name="Trazado 1218641" d="M354.494,152.726c.529.106,8,8.879,8,8.879l6.4-9.289Z" transform="translate(-354.494 -152.316)" fill="#fff" opacity="0.5"/>
            </g>
            <g id="Grupo_1230089" data-name="Grupo 1230089">
              <g id="Grupo_1230088" data-name="Grupo 1230088">
                <path id="Trazado_1218642" data-name="Trazado 1218642" d="M396.331,144.287H320.317a3.484,3.484,0,0,1-3.484-3.484V98.523a3.485,3.485,0,0,1,3.484-3.484h76.014a3.485,3.485,0,0,1,3.484,3.484V140.8A3.484,3.484,0,0,1,396.331,144.287Z" transform="translate(-316.833 -95.039)" fill="#407bff"/>
                <path id="Trazado_1218643" data-name="Trazado 1218643" d="M396.331,144.287H320.317a3.484,3.484,0,0,1-3.484-3.484V98.523a3.485,3.485,0,0,1,3.484-3.484h76.014a3.485,3.485,0,0,1,3.484,3.484V140.8A3.484,3.484,0,0,1,396.331,144.287Z" transform="translate(-316.833 -95.039)" fill="#fff" opacity="0.5"/>
              </g>
              <path id="Trazado_1218644" data-name="Trazado 1218644" d="M331.5,124.347c.36-.324,10.073-9.914,10.073-9.914l9.579,4.715,9.363-11.017,9.579,13.8,9.343-6.1" transform="translate(-319.019 -96.991)" fill="none" stroke="#263238" stroke-miterlimit="10" stroke-width="0.5"/>
              <rect id="Rectángulo_422686" data-name="Rectángulo 422686" width="4.491" height="9.95" transform="translate(10.986 31.672)" fill="#407bff"/>
              <rect id="Rectángulo_422687" data-name="Rectángulo 422687" width="4.491" height="16.526" transform="translate(20.233 25.097)" fill="#407bff"/>
              <rect id="Rectángulo_422688" data-name="Rectángulo 422688" width="4.491" height="14.864" transform="translate(29.655 26.759)" fill="#407bff"/>
              <rect id="Rectángulo_422689" data-name="Rectángulo 422689" width="4.491" height="24.182" transform="translate(39.246 17.441)" fill="#407bff"/>
              <rect id="Rectángulo_422690" data-name="Rectángulo 422690" width="4.491" height="11.359" transform="translate(48.94 30.264)" fill="#407bff"/>
              <path id="Trazado_1218645" data-name="Trazado 1218645" d="M334.373,125.44a2.413,2.413,0,1,1-2.413-2.413A2.413,2.413,0,0,1,334.373,125.44Z" transform="translate(-318.729 -99.212)" fill="#407bff"/>
              <path id="Trazado_1218646" data-name="Trazado 1218646" d="M345.239,115.113a2.413,2.413,0,1,1-2.413-2.413A2.413,2.413,0,0,1,345.239,115.113Z" transform="translate(-320.349 -97.672)" fill="#407bff"/>
              <path id="Trazado_1218647" data-name="Trazado 1218647" d="M356.581,119.769a2.413,2.413,0,1,1-2.413-2.413A2.413,2.413,0,0,1,356.581,119.769Z" transform="translate(-322.04 -98.367)" fill="#407bff"/>
              <path id="Trazado_1218648" data-name="Trazado 1218648" d="M367.585,107.707a2.413,2.413,0,1,1-2.413-2.413A2.413,2.413,0,0,1,367.585,107.707Z" transform="translate(-323.681 -96.568)" fill="#407bff"/>
              <path id="Trazado_1218649" data-name="Trazado 1218649" d="M378.843,123.929a2.413,2.413,0,1,1-2.413-2.413A2.413,2.413,0,0,1,378.843,123.929Z" transform="translate(-325.359 -98.987)" fill="#407bff"/>
              <rect id="Rectángulo_422691" data-name="Rectángulo 422691" width="4.491" height="17.055" transform="translate(58.538 24.569)" fill="#407bff"/>
              <rect id="Rectángulo_422692" data-name="Rectángulo 422692" width="4.491" height="16.526" transform="translate(20.233 25.097)" opacity="0.3"/>
              <rect id="Rectángulo_422693" data-name="Rectángulo 422693" width="4.491" height="24.182" transform="translate(39.246 17.441)" opacity="0.3"/>
              <rect id="Rectángulo_422694" data-name="Rectángulo 422694" width="4.491" height="17.055" transform="translate(58.538 24.569)" opacity="0.3"/>
              <rect id="Rectángulo_422695" data-name="Rectángulo 422695" width="4.491" height="11.359" transform="translate(68.473 30.264)" fill="#407bff"/>
              <line id="Línea_2534" data-name="Línea 2534" x2="10.306" y2="5.723" transform="translate(60.413 18.846)" fill="none" stroke="#263238" stroke-miterlimit="10" stroke-width="0.5"/>
              <path id="Trazado_1218650" data-name="Trazado 1218650" d="M390.454,116.764a2.413,2.413,0,1,1-2.413-2.413A2.413,2.413,0,0,1,390.454,116.764Z" transform="translate(-327.091 -97.918)" fill="#407bff"/>
              <path id="Trazado_1218651" data-name="Trazado 1218651" d="M401.934,123.49a2.413,2.413,0,1,1-2.413-2.412A2.413,2.413,0,0,1,401.934,123.49Z" transform="translate(-328.802 -98.922)" fill="#407bff"/>
            </g>
          </g>
        </g>
        <g id="Character_1" transform="translate(78.103 95.071)">
          <g id="Grupo_1230131" data-name="Grupo 1230131">
            <g id="Grupo_1230099" data-name="Grupo 1230099">
              <g id="Grupo_1230093" data-name="Grupo 1230093" transform="translate(90.791 198.675)">
                <g id="Grupo_1230091" data-name="Grupo 1230091" transform="translate(114.63)">
                  <path id="Trazado_1218652" data-name="Trazado 1218652" d="M333.206,377.3V337.711a2.16,2.16,0,0,1,3.495-1.7l25.164,19.8a2.159,2.159,0,0,1,0,3.394L336.7,379A2.159,2.159,0,0,1,333.206,377.3Z" transform="translate(-333.206 -335.548)" fill="#407bff"/>
                </g>
                <g id="Grupo_1230092" data-name="Grupo 1230092" transform="translate(0 10.191)">
                  <rect id="Rectángulo_422696" data-name="Rectángulo 422696" width="118.712" height="23.538" fill="#407bff"/>
                </g>
              </g>
              <g id="Grupo_1230094" data-name="Grupo 1230094" transform="translate(0.268 10.834)">
                <path id="Trazado_1218653" data-name="Trazado 1218653" d="M203.435,336.4H92.1l12.71-11.988L92.1,312.273H203.435a86.678,86.678,0,0,0,0-173.357V114.79a110.805,110.805,0,0,1,0,221.61Z" transform="translate(-92.104 -114.79)" fill="#407bff"/>
              </g>
              <g id="Grupo_1230095" data-name="Grupo 1230095" transform="translate(0.268 10.834)" opacity="0.4">
                <path id="Trazado_1218654" data-name="Trazado 1218654" d="M203.435,336.4H92.1l12.71-11.988L92.1,312.273H203.435a86.678,86.678,0,0,0,0-173.357V114.79a110.805,110.805,0,0,1,0,221.61Z" transform="translate(-92.104 -114.79)" fill="#fff"/>
              </g>
              <g id="Grupo_1230097" data-name="Grupo 1230097" transform="translate(0 14.478)">
                <g id="Grupo_1230096" data-name="Grupo 1230096">
                  <path id="Trazado_1218655" data-name="Trazado 1218655" d="M120.79,303.658A112.811,112.811,0,0,1,175.8,119.073l-8.312,10.435,14.563,13.315a88.254,88.254,0,0,0-43.02,144.39Z" transform="translate(-91.789 -119.073)" fill="#407bff"/>
                </g>
                <path id="Trazado_1218656" data-name="Trazado 1218656" d="M128.3,334.527c.911-.228,30.974,0,30.974,0l-15.16-17.851-18.239,16.445Z" transform="translate(-96.871 -148.536)" fill="#407bff"/>
              </g>
              <g id="Grupo_1230098" data-name="Grupo 1230098" transform="translate(83.745)">
                <path id="Trazado_1218657" data-name="Trazado 1218657" d="M218.534,104.1l2.229,39.529a2.159,2.159,0,0,1-3.393,1.892L191.13,127.172a2.16,2.16,0,0,1-.191-3.389l24.01-21.181A2.16,2.16,0,0,1,218.534,104.1Z" transform="translate(-190.208 -102.058)" fill="#407bff"/>
                <path id="Trazado_1218658" data-name="Trazado 1218658" d="M218.534,104.1l2.229,39.529a2.159,2.159,0,0,1-3.393,1.892L191.13,127.172a2.16,2.16,0,0,1-.191-3.389l24.01-21.181A2.16,2.16,0,0,1,218.534,104.1Z" transform="translate(-190.208 -102.058)" fill="#fff" opacity="0.4"/>
              </g>
            </g>
            <g id="Grupo_1230130" data-name="Grupo 1230130" transform="translate(62.761 81.011)">
              <g id="Grupo_1230126" data-name="Grupo 1230126">
                <g id="Grupo_1230118" data-name="Grupo 1230118">
                  <g id="Grupo_1230105" data-name="Grupo 1230105" transform="translate(6.08)">
                    <path id="Trazado_1218659" data-name="Trazado 1218659" d="M207.38,203.1a12.624,12.624,0,0,1,5.9,10.764c-.575,4.349-2.083,7.427-3.257,11.655L198.49,200.067C201.184,200.6,202.4,200.048,207.38,203.1Z" transform="translate(-176.539 -197.682)" fill="#263238"/>
                    <path id="Trazado_1218660" data-name="Trazado 1218660" d="M199.318,200.85c-4.517-2.1-8.951.378-11.535,2.1a12.983,12.983,0,0,0-4.58,9.6c0,3.467,0,7.669,2.1,9.476a5.612,5.612,0,0,0,4.307,1.387l17.145-15.822A20.01,20.01,0,0,0,199.318,200.85Z" transform="translate(-174.26 -197.679)" fill="#263238"/>
                    <g id="Grupo_1230102" data-name="Grupo 1230102" transform="translate(7.587 4.763)">
                      <path id="Trazado_1218661" data-name="Trazado 1218661" d="M200.369,252.36c-1.318,1.36-2.522.906-4.281.186-10.469-3.765-7.371-8.82-7.371-8.82,1.986-2.331,2.073-5.118,1.35-9.367a2.608,2.608,0,0,1-.016-.374,2.745,2.745,0,0,1,.522-1.578,2.807,2.807,0,0,1,3.9-.733l0,0,4.687,1.339h0l.04.2c.013,2.324-.054,4.129-.037,5.548a3.389,3.389,0,0,1,.011.516h0a2.7,2.7,0,0,1,.021.523c.112,1.944,3.4,4.8,4.742,5.477C204.753,245.747,204.842,247.774,200.369,252.36Z" transform="translate(-182.605 -207.085)" fill="#b97964"/>
                      <path id="Trazado_1218662" data-name="Trazado 1218662" d="M199.483,233h0a.679.679,0,0,0,.042.209c.013,2.324-.054,4.129-.037,5.548a3.488,3.488,0,0,0,.011.516h0a3.973,3.973,0,0,0,.066.539h0a18.054,18.054,0,0,1-9.11-5.836h0a2.871,2.871,0,0,1,.482-1.569,2.815,2.815,0,0,1,3.895-.779Z" transform="translate(-182.928 -207.081)" opacity="0.2"/>
                      <path id="Trazado_1218663" data-name="Trazado 1218663" d="M186.218,213.988c.18,8.015.078,11.4,3.886,15.752,5.734,6.537,15.337,4.792,17.546-3.073,1.932-7.081,1.353-18.976-6.2-22.653S186.046,205.963,186.218,213.988Z" transform="translate(-182.296 -202.862)" fill="#b97964"/>
                      <path id="Trazado_1218664" data-name="Trazado 1218664" d="M181.983,223.191a6.5,6.5,0,0,0,3.653,3.371c2.084.714,3.473-2.617,2.927-4.812a4.3,4.3,0,0,0-4.585-3.181C181.9,218.81,181.056,221.212,181.983,223.191Z" transform="translate(-181.609 -205.2)" fill="#b97964"/>
                      <path id="Trazado_1218665" data-name="Trazado 1218665" d="M186.877,223.426a2.932,2.932,0,0,0-2.871-2.984" transform="translate(-181.966 -205.483)" fill="none" stroke="#000" stroke-linecap="round" stroke-linejoin="round" stroke-miterlimit="10" stroke-width="0.5" opacity="0.2"/>
                      <g id="Grupo_1230101" data-name="Grupo 1230101" transform="translate(12.599 9.947)">
                        <g id="Grupo_1230100" data-name="Grupo 1230100">
                          <path id="Trazado_1218666" data-name="Trazado 1218666" d="M198.491,219.738c-.032.854.369,1.592.9,1.648s.982-.591,1.015-1.447-.369-1.592-.9-1.648S198.524,218.884,198.491,219.738Z" transform="translate(-196.725 -215.109)" fill="#263238"/>
                          <path id="Trazado_1218667" data-name="Trazado 1218667" d="M207.817,220.506c-.03.828.374,1.544.9,1.6s.978-.571,1.007-1.4-.374-1.544-.9-1.6S207.847,219.678,207.817,220.506Z" transform="translate(-198.115 -215.231)" fill="#263238"/>
                          <path id="Trazado_1218668" data-name="Trazado 1218668" d="M196.754,216.074a.36.36,0,0,0,.294-.067,2.914,2.914,0,0,1,2.714-.516.363.363,0,0,0,.486-.229.432.432,0,0,0-.252-.521,3.635,3.635,0,0,0-3.438.612.4.4,0,0,0-.054.561A.418.418,0,0,0,196.754,216.074Z" transform="translate(-196.415 -214.552)" fill="#263238"/>
                          <path id="Trazado_1218669" data-name="Trazado 1218669" d="M210.763,216.028a.3.3,0,0,0,.2-.16.433.433,0,0,0-.156-.534,3.329,3.329,0,0,0-3.241-.488.366.366,0,0,0-.13.5.378.378,0,0,0,.484.205,2.67,2.67,0,0,1,2.565.417A.346.346,0,0,0,210.763,216.028Z" transform="translate(-198.051 -214.563)" fill="#263238"/>
                          <path id="Trazado_1218670" data-name="Trazado 1218670" d="M205.273,220.077a27.394,27.394,0,0,0,2.265,5.115.623.623,0,0,1-.372.924,4,4,0,0,1-2.159-.147Z" transform="translate(-197.697 -215.375)" fill="#a24e3f"/>
                        </g>
                        <path id="Trazado_1218671" data-name="Trazado 1218671" d="M199.325,218.255l1.883-.28S200.081,219.266,199.325,218.255Z" transform="translate(-196.849 -215.062)" fill="#263238"/>
                        <path id="Trazado_1218672" data-name="Trazado 1218672" d="M208.776,219.063l1.883-.28S209.533,220.074,208.776,219.063Z" transform="translate(-198.258 -215.183)" fill="#263238"/>
                      </g>
                    </g>
                    <g id="Grupo_1230103" data-name="Grupo 1230103" transform="translate(22.115 24.793)">
                      <path id="Trazado_1218673" data-name="Trazado 1218673" d="M203.542,229.112a18.919,18.919,0,0,0-1.557,2.251c-.151-.056-.3-.112-.45-.177-2.028-.814-2.7-1.863-2.829-2.777a2.818,2.818,0,0,1,.159-1.325,2.715,2.715,0,0,1,.342-.682,10.3,10.3,0,0,0,3.648,2.422C203.271,229.013,203.542,229.112,203.542,229.112Z" transform="translate(-198.683 -226.401)" fill="#263238"/>
                      <path id="Trazado_1218674" data-name="Trazado 1218674" d="M202.886,228.824l-.477.652c-1.909-.772-3.148-1.572-3.513-2.391a2.715,2.715,0,0,1,.342-.682A10.3,10.3,0,0,0,202.886,228.824Z" transform="translate(-198.714 -226.401)" fill="#fff"/>
                      <path id="Trazado_1218675" data-name="Trazado 1218675" d="M201.538,231.538c-2.028-.814-2.7-1.863-2.829-2.777a7.036,7.036,0,0,1,2.073,1.351A2.634,2.634,0,0,1,201.538,231.538Z" transform="translate(-198.686 -226.753)" fill="#de5753"/>
                    </g>
                    <path id="Trazado_1218676" data-name="Trazado 1218676" d="M188.887,215.853s4.58-5.231,4.722-9.707c0,0,16.383-3.635,14.873,10.505,0,0,3.541-12.228-9.844-14.224S182.49,217.912,188.557,224C188.58,223.942,186.055,219.13,188.887,215.853Z" transform="translate(-174.602 -198.01)" fill="#263238"/>
                    <path id="Trazado_1218677" data-name="Trazado 1218677" d="M172.7,204.457a6.628,6.628,0,1,0,6.6-7.193A6.933,6.933,0,0,0,172.7,204.457Z" transform="translate(-172.693 -197.264)" fill="#263238"/>
                    <path id="Trazado_1218678" data-name="Trazado 1218678" d="M206.159,204.063a11.5,11.5,0,0,1,3.362,6.3c0,1.743-2.374,3-2.374,3l-2.9-3.8v3.341a10.569,10.569,0,0,1-9.119-6.681l2.647-4.728S204.583,202.7,206.159,204.063Z" transform="translate(-176.038 -197.896)" fill="#263238"/>
                    <g id="Grupo_1230104" data-name="Grupo 1230104" transform="translate(4.408 10.589)">
                      <path id="Trazado_1218679" data-name="Trazado 1218679" d="M180.958,210.134a8.1,8.1,0,0,1-3.085,4.767,3.977,3.977,0,0,0,2.412-.582,6.014,6.014,0,0,1-.447,1.993,8.439,8.439,0,0,0,2.991-6.6Z" transform="translate(-177.873 -209.709)" fill="#263238"/>
                    </g>
                  </g>
                  <g id="Grupo_1230112" data-name="Grupo 1230112" transform="translate(4.334 84.665)">
                    <g id="Grupo_1230111" data-name="Grupo 1230111">
                      <g id="Grupo_1230110" data-name="Grupo 1230110" transform="translate(0.078 0.816)">
                        <path id="Trazado_1218680" data-name="Trazado 1218680" d="M273.676,395.771l-7.944.227s-14.18-27.3-20.99-42.61c-8.046-18.091-6.275-23.917-8.688-24.022-4.455-.195-49.92,20.709-61.31,9.116s5.087-39.534,5.087-39.534,25.378-3.919,27.448,2.272c.507,1.829,1.612,3.72,1.879,5.6.306,1.857.924,4.6.924,4.6h0a269.332,269.332,0,0,1,28.789-1.587A16.659,16.659,0,0,1,253.756,319.9C263.514,342.4,273.676,395.771,273.676,395.771Z" transform="translate(-170.733 -297.724)" fill="#263238"/>
                        <path id="Trazado_1218681" data-name="Trazado 1218681" d="M197.663,346.174s1.857,0,30.631-1.3c0,0-3.951,9.33-5.05,28.546-.453,7.9.809,33.507-.18,44.838.5.707,5.789,3.05,9.014.682,0,0,18.67-67.374,18.484-76.517s-10.786-11.835-10.786-11.835S219.356,342.424,197.663,346.174Z" transform="translate(-174.748 -302.624)" fill="#263238"/>
                        <path id="Trazado_1218682" data-name="Trazado 1218682" d="M224.7,338.927q5.908-2.382,11.6-5.251c6.577-3.316,14.664.95,15.281,8.29q.031.366.04.748c.093,3.713-3.221,17.637-7.965,32.777a25.535,25.535,0,0,1,.511-2.664c4.706-18.908,7.064-28.729,4.706-33.3a14.16,14.16,0,0,0-7.129-6.257L216.033,345.8c-14.165.622-16.281.65-16.532.65A126.58,126.58,0,0,0,224.7,338.927Z" transform="translate(-175.022 -302.915)" opacity="0.2"/>
                        <g id="Grupo_1230107" data-name="Grupo 1230107" transform="translate(45.739 111.745)">
                          <g id="Grupo_1230106" data-name="Grupo 1230106">
                            <path id="Trazado_1218683" data-name="Trazado 1218683" d="M237.424,429.8a.717.717,0,0,0-.728-.747h-2.42c-.611-.014-1.275,1.076-1.648,1.56-1.608,2.088-2.759,1.257-4.4-.783-1.073-.151-1.393,1.077-1.489,1.407l-2.2,7.292a1.156,1.156,0,0,0,1.093,1.5l8.91.215,12.478.3c3.4.082,4.19-3.329,2.8-3.68-6.268-1.544-10.685-3.507-12.588-5.386C236.962,431.227,237.366,430.547,237.424,429.8Z" transform="translate(-224.486 -429.051)" fill="#407bff"/>
                            <path id="Trazado_1218684" data-name="Trazado 1218684" d="M240.546,432.816a3.273,3.273,0,0,0-2.328,1.421" transform="translate(-226.534 -429.612)" fill="none" stroke="#fff" stroke-linecap="round" stroke-linejoin="round" stroke-miterlimit="10" stroke-width="0.5"/>
                            <path id="Trazado_1218685" data-name="Trazado 1218685" d="M242.605,434.1a3.27,3.27,0,0,0-2.328,1.422" transform="translate(-226.841 -429.803)" fill="none" stroke="#fff" stroke-linecap="round" stroke-linejoin="round" stroke-miterlimit="10" stroke-width="0.5"/>
                            <path id="Trazado_1218686" data-name="Trazado 1218686" d="M245.15,435.4a3.274,3.274,0,0,0-2.328,1.421" transform="translate(-227.22 -429.998)" fill="none" stroke="#fff" stroke-linecap="round" stroke-linejoin="round" stroke-miterlimit="10" stroke-width="0.5"/>
                          </g>
                        </g>
                        <g id="Grupo_1230109" data-name="Grupo 1230109" transform="translate(93.552 92.725)">
                          <g id="Grupo_1230108" data-name="Grupo 1230108">
                            <path id="Trazado_1218687" data-name="Trazado 1218687" d="M289.684,406.7l-2.541.916a1.917,1.917,0,0,0-1.174,1.275c-.744,2.529-2.117,2.169-4.389.863-1.055.247-.909,1.508-.879,1.85l.591,7.593a1.156,1.156,0,0,0,1.23,1.075,1.136,1.136,0,0,0,.331-.072l8.385-3.022,11.743-4.232c3.2-1.154,2.7-4.619,1.275-4.443-6.4.827-11.229.6-13.684-.469C290.123,407.852,290.39,407.5,289.684,406.7Z" transform="translate(-280.677 -406.697)" fill="#407bff"/>
                            <path id="Trazado_1218688" data-name="Trazado 1218688" d="M293.875,408.654a3.273,3.273,0,0,0-1.657,2.167" transform="translate(-282.398 -406.989)" fill="none" stroke="#fff" stroke-linecap="round" stroke-linejoin="round" stroke-miterlimit="10" stroke-width="0.5"/>
                            <path id="Trazado_1218689" data-name="Trazado 1218689" d="M296.234,408.982a3.273,3.273,0,0,0-1.657,2.167" transform="translate(-282.75 -407.038)" fill="none" stroke="#fff" stroke-linecap="round" stroke-linejoin="round" stroke-miterlimit="10" stroke-width="0.5"/>
                            <path id="Trazado_1218690" data-name="Trazado 1218690" d="M298.966,409.324a3.273,3.273,0,0,0-1.657,2.167" transform="translate(-283.157 -407.089)" fill="none" stroke="#fff" stroke-linecap="round" stroke-linejoin="round" stroke-miterlimit="10" stroke-width="0.5"/>
                          </g>
                        </g>
                      </g>
                      <path id="Trazado_1218691" data-name="Trazado 1218691" d="M214.621,310.81l-3.652.351s-.3-2.511-.607-4.368c-.266-1.88-2.331-8.2-2.838-10.029-10.449,1.037-28.176.409-28.176.409s-16,29.588-4.627,41.154c6.832,6.934,26.956,2.875,41.856-3.217Z" transform="translate(-170.641 -296.765)" fill="#263238"/>
                      <path id="Trazado_1218692" data-name="Trazado 1218692" d="M215.229,311.916l-16.022,3.341s8.768-4.756,15.415-6.686C214.928,310.465,215.229,311.916,215.229,311.916Z" transform="translate(-174.9 -298.525)" opacity="0.3"/>
                    </g>
                  </g>
                  <g id="Grupo_1230117" data-name="Grupo 1230117" transform="translate(0 37.113)">
                    <g id="Grupo_1230113" data-name="Grupo 1230113" transform="translate(57.024 19.32)">
                      <path id="Trazado_1218693" data-name="Trazado 1218693" d="M243.7,267.548c.089-1.411-4.087,6.66-4.087,6.66l-7.05-4.977,5.613-5.646s5.7,3.721,5.612,3.842" transform="translate(-232.564 -263.585)" fill="#b97964"/>
                    </g>
                    <path id="Trazado_1218694" data-name="Trazado 1218694" d="M212.322,246.734a15.7,15.7,0,0,1,7.974,9.133,93.6,93.6,0,0,1,3.429,15.747l8.906-7.932,6.634,4.928s-8.714,13.206-14.578,18.356c-4.87,4.276-10.389-4.019-10.389-4.019l-2.4-36.42Z" transform="translate(-172.459 -241.722)" fill="#407bff"/>
                    <path id="Trazado_1218695" data-name="Trazado 1218695" d="M188.819,302.34,186.9,332.367l-17.173-2.047v-3.086Z" transform="translate(-166.171 -250.044)" opacity="0.2"/>
                    <g id="Grupo_1230114" data-name="Grupo 1230114" transform="translate(6.039 5.605)">
                      <path id="Trazado_1218696" data-name="Trazado 1218696" d="M180.946,294.909c-.671-7.617-3.376-21.577-8.034-36.237-1.515-4.768,3.9-10.038,3.9-10.038s3.495-.276,4.135-.347c.7-.083,1.424-.154,2.146-.215a102.545,102.545,0,0,1,14.746-.5c1.22.071,2.471.174,3.7.277.4.041,2.971.08,3.358.121,0,0,6.975,8.162,7.351,13.923.2,3.219,1.759,4.6,1.586,12.3-.031,5.229-3.826,12.846-4.171,20.2Z" transform="translate(-172.644 -247.467)" fill="#fff"/>
                    </g>
                    <path id="Trazado_1218697" data-name="Trazado 1218697" d="M189.416,269A124.714,124.714,0,0,0,187,246.553a1.51,1.51,0,0,0-1.663-1.172l-4.619.973c-4.523,1.206-6.949.555-9.467,3.917-.488.651-.9,5.658-.859,6.344a83.351,83.351,0,0,0,2.054,9.555c.783,3.158,1.709,6.705,2.594,10.047,1.135,4.26,2.082,5.37,2.448,6.736l-11.713,34.554a1.513,1.513,0,0,0,1.268,2.014l16.812,1.757a1.511,1.511,0,0,0,1.66-1.321C186.35,312.94,189.837,282.74,189.416,269Z" transform="translate(-165.567 -241.549)" fill="#407bff"/>
                    <path id="Trazado_1218698" data-name="Trazado 1218698" d="M216.975,292.235s3.529-21.861,2.59-27.332-9.091-18.734-9.091-18.734l-3.721-.256-4.4-1.786s10.167,12.267,12.663,21.118c1.642,5.82-1.632,24.216-1.254,28.654l1.892,9.186,4.677-.208Z" transform="translate(-171.035 -241.364)" fill="#407bff"/>
                    <g id="Grupo_1230115" data-name="Grupo 1230115" transform="translate(15.147 1.766)">
                      <path id="Trazado_1218699" data-name="Trazado 1218699" d="M189,243.136s4.573,9.025,2.843,31.737l-7.6-16.326,2.75-4.461-3.649-7.292s3.9-2.511,5.544-3.838Z" transform="translate(-183.349 -242.955)" fill="#407bff"/>
                    </g>
                    <g id="Grupo_1230116" data-name="Grupo 1230116" transform="translate(15.147 1.766)" opacity="0.2">
                      <path id="Trazado_1218700" data-name="Trazado 1218700" d="M189,243.136s4.573,9.025,2.843,31.737l-7.6-16.326,2.75-4.461-3.649-7.292s3.9-2.511,5.544-3.838Z" transform="translate(-183.349 -242.955)"/>
                    </g>
                    <path id="Trazado_1218701" data-name="Trazado 1218701" d="M215.127,275a28.842,28.842,0,0,0,1.39-9.631c-.311-4.622-.383-8.071-.383-8.071l-5.245-3.876.69-4.725s-2.529-1.553-4.878-3.144c-1.606-1.087-4.755-2.731-5.168-2.6,0,0,13.393,16.949,13.461,23.884C215.059,273.526,215.127,275,215.127,275Z" transform="translate(-170.913 -241.188)" fill="#407bff"/>
                    <path id="Trazado_1218702" data-name="Trazado 1218702" d="M215.127,275a28.842,28.842,0,0,0,1.39-9.631c-.311-4.622-.383-8.071-.383-8.071l-5.245-3.876.69-4.725s-2.529-1.553-4.878-3.144c-1.606-1.087-4.755-2.731-5.168-2.6,0,0,13.393,16.949,13.461,23.884C215.059,273.526,215.127,275,215.127,275Z" transform="translate(-170.913 -241.188)" opacity="0.3"/>
                    <path id="Trazado_1218703" data-name="Trazado 1218703" d="M220.536,291.326l1.827-16.861.676,17.408A7.163,7.163,0,0,1,220.536,291.326Z" transform="translate(-173.746 -245.888)" opacity="0.3"/>
                    <path id="Trazado_1218704" data-name="Trazado 1218704" d="M203.174,247.166l-3.6-4.948-1.715,2.945-7.109-4.283-.883,1.766,2.525,7.409s6.312,2.583,6.646,2.583S203.174,247.166,203.174,247.166Z" transform="translate(-169.173 -240.88)" fill="#fff"/>
                    <path id="Trazado_1218705" data-name="Trazado 1218705" d="M203.711,248.539l-1.474,3.645-3.664-3.645-2.494,4.281L192.356,251l3.969,3.143,2.3-4.69,4.2,3.958Z" transform="translate(-169.545 -242.022)" opacity="0.3"/>
                    <path id="Trazado_1218706" data-name="Trazado 1218706" d="M182.191,286.172l-1.436-16.1-1.105,17.537,16.642,6.766Z" transform="translate(-167.65 -245.232)" opacity="0.3"/>
                    <path id="Trazado_1218707" data-name="Trazado 1218707" d="M173.5,248.539a8.961,8.961,0,0,0-6.3,7.068c-1.016,5.772-2.362,34.624-1.213,36.451s33.3,12.168,33.3,12.168l3.443-8.93-24.291-11.751s.2-8.244.4-14.669c.1-3.4.209-6.284.285-7.175C179.344,259.126,173.5,248.539,173.5,248.539Z" transform="translate(-165.547 -242.022)" fill="#407bff"/>
                    <path id="Trazado_1218708" data-name="Trazado 1218708" d="M208.6,304.144s10.108,2.427,12.452,4.445a3.318,3.318,0,0,1,1.011,2.361l-16.369.729Z" transform="translate(-171.534 -250.313)" fill="#b97964"/>
                    <path id="Trazado_1218709" data-name="Trazado 1218709" d="M174.663,303.6c.324.121,14.228,5.07,14.228,5.07v1.745l-14.938-4.72Z" transform="translate(-166.801 -250.231)" opacity="0.3"/>
                    <path id="Trazado_1218710" data-name="Trazado 1218710" d="M199.72,249.608c7.574,13.208,7.155,30.386,7.574,44.972" transform="translate(-170.643 -242.181)" fill="none" stroke="#000" stroke-linecap="round" stroke-linejoin="round" stroke-miterlimit="10" stroke-width="0.5" opacity="0.2"/>
                  </g>
                </g>
                <g id="Grupo_1230125" data-name="Grupo 1230125" transform="translate(62.025 44.54)">
                  <g id="Grupo_1230124" data-name="Grupo 1230124">
                    <g id="Grupo_1230123" data-name="Grupo 1230123">
                      <g id="Grupo_1230122" data-name="Grupo 1230122">
                        <g id="Grupo_1230121" data-name="Grupo 1230121">
                          <g id="Grupo_1230120" data-name="Grupo 1230120">
                            <g id="Grupo_1230119" data-name="Grupo 1230119">
                              <path id="Trazado_1218711" data-name="Trazado 1218711" d="M239.424,262.328a6.394,6.394,0,0,1-.873-4.259c.5-2.074.345-3.863.824-5.379s1.328.454,1.567,1.594.523,2.429,1.35,2.11,5.632-6.234,6.829-6.545.718.888.718.888,1.206-1.406,1.892-1.079c.179.084.456.571.007,1.3-1.011,1.635-3.307,4.956-3.307,4.956.128-.193,3.256-4.09,3.8-4.613.712-.682,1.4-.642,1.778-.216.545.606-3.17,5.569-3.18,5.888,0,0,2.042-2.929,3.087-2.816s-.14,2.028-1.506,3.517c-1.252,1.365-3.35,4.371-4.757,5.635-1.734,1.558-3.248,2.215-5.251,1.338A7.428,7.428,0,0,1,239.424,262.328Z" transform="translate(-238.441 -249.609)" fill="#b97964"/>
                            </g>
                          </g>
                        </g>
                      </g>
                    </g>
                  </g>
                  <path id="Trazado_1218712" data-name="Trazado 1218712" d="M251.144,251.114q-1.407,1.726-2.653,3.575" transform="translate(-239.94 -249.833)" fill="none" stroke="#000" stroke-linecap="round" stroke-linejoin="round" stroke-miterlimit="10" stroke-width="0.5" opacity="0.3"/>
                  <path id="Trazado_1218713" data-name="Trazado 1218713" d="M251.329,259.023a9.867,9.867,0,0,0-4.493-3.46" transform="translate(-239.693 -250.497)" fill="none" stroke="#000" stroke-linecap="round" stroke-linejoin="round" stroke-miterlimit="10" stroke-width="0.5" opacity="0.3"/>
                  <path id="Trazado_1218714" data-name="Trazado 1218714" d="M243.251,258.67a3.387,3.387,0,0,1,.2,4.318" transform="translate(-239.159 -250.96)" fill="none" stroke="#000" stroke-linecap="round" stroke-linejoin="round" stroke-miterlimit="10" stroke-width="0.5" opacity="0.3"/>
                </g>
              </g>
              <g id="Grupo_1230129" data-name="Grupo 1230129" transform="translate(30.499 69.132)">
                <g id="Grupo_1230128" data-name="Grupo 1230128" transform="translate(20.457)">
                  <g id="Grupo_1230127" data-name="Grupo 1230127">
                    <path id="Trazado_1218715" data-name="Trazado 1218715" d="M252.467,307.407H226.246a.749.749,0,0,1-.813-.663.534.534,0,0,1,.042-.2L237.14,279.8a2.278,2.278,0,0,1,2.169-1.289h26.237a.738.738,0,0,1,.8.645.53.53,0,0,1-.048.219l-11.665,26.743A2.3,2.3,0,0,1,252.467,307.407Z" transform="translate(-225.433 -278.51)" fill="#263238"/>
                    <path id="Trazado_1218716" data-name="Trazado 1218716" d="M265.546,278.51H239.309a2.279,2.279,0,0,0-2.169,1.29l-11.665,26.743a.549.549,0,0,0-.042.2.748.748,0,0,0,.813.663h26.221a2.3,2.3,0,0,0,2.169-1.289L266.3,279.375a.533.533,0,0,0,.048-.219A.737.737,0,0,0,265.546,278.51Z" transform="translate(-225.433 -278.51)" fill="#fff" opacity="0.7"/>
                    <path id="Trazado_1218717" data-name="Trazado 1218717" d="M252.88,295.727c-.567,1.283-1.715,2.165-2.571,1.985s-1.085-1.349-.534-2.636,1.712-2.148,2.568-1.969S253.454,294.41,252.88,295.727Z" transform="translate(-229.018 -280.683)" fill="#fff"/>
                  </g>
                  <path id="Trazado_1218718" data-name="Trazado 1218718" d="M239.464,278.51h-.156a2.279,2.279,0,0,0-2.169,1.29l-11.665,26.743a.549.549,0,0,0-.042.2.748.748,0,0,0,.813.663h.84Z" transform="translate(-225.433 -278.51)" opacity="0.3"/>
                </g>
                <path id="Trazado_1218719" data-name="Trazado 1218719" d="M201.391,312.27v2.166l20.889-2.13.313-2.748Z" transform="translate(-201.391 -283.139)" fill="#263238"/>
                <path id="Trazado_1218720" data-name="Trazado 1218720" d="M201.391,312.27v2.166l20.889-2.13.313-2.748Z" transform="translate(-201.391 -283.139)" fill="#fff" opacity="0.7"/>
              </g>
            </g>
            <path id="Trazado_1218721" data-name="Trazado 1218721" d="M134.494,147.329H149.84a3.461,3.461,0,0,0,3.461-3.461V133.287S140.2,141.673,134.494,147.329Z" transform="translate(-98.156 -106.714)" opacity="0.3"/>
          </g>
          <path id="Trazado_1218722" data-name="Trazado 1218722" d="M339.914,204.171a3.89,3.89,0,0,0-1.98,3.319c.006,2.3,2.891,6.227,2.739,7.527s-.3,5.212,1.063,6.9,8.287,3.086,8.28,3.037-.773-4.838-1.72-9.938-8.382-10.846-8.382-10.846" transform="translate(-128.49 -117.283)" opacity="0.2"/>
        </g>
        <g id="Plant" transform="translate(53.512 267.026)">
          <g id="Grupo_1230149" data-name="Grupo 1230149">
            <g id="Grupo_1230148" data-name="Grupo 1230148">
              <g id="Grupo_1230132" data-name="Grupo 1230132" transform="translate(19.702)">
                <path id="Trazado_1218723" data-name="Trazado 1218723" d="M98.434,304.144a53.381,53.381,0,0,0-8.94,53c7.622-6.8,12.99-17.173,13.329-26.242S100.788,312.909,98.434,304.144Z" transform="translate(-86.044 -304.144)" fill="#407bff"/>
              </g>
              <g id="Grupo_1230133" data-name="Grupo 1230133" transform="translate(24.302 40.844)">
                <path id="Trazado_1218724" data-name="Trazado 1218724" d="M97.107,365.958a35.114,35.114,0,0,0-5.56,21.672c6.611-2.3,12.439-9.769,15.933-15.835s5.447-12.879,7.226-19.65A35.112,35.112,0,0,0,97.107,365.958Z" transform="translate(-91.449 -352.145)" fill="#407bff"/>
              </g>
              <g id="Grupo_1230135" data-name="Grupo 1230135" transform="translate(20.966 24.738)">
                <g id="Grupo_1230134" data-name="Grupo 1230134">
                  <path id="Trazado_1218725" data-name="Trazado 1218725" d="M94.932,333.442a202.4,202.4,0,0,0-7.4,54.347q.008,7.8.623,15.592c.031.407.671.41.638,0A201.818,201.818,0,0,1,91.982,348.6q1.493-7.557,3.565-14.983a.319.319,0,0,0-.615-.17Z" transform="translate(-87.529 -333.217)" fill="#263238"/>
                </g>
              </g>
              <g id="Grupo_1230137" data-name="Grupo 1230137" transform="translate(21.217 48.28)">
                <g id="Grupo_1230136" data-name="Grupo 1230136">
                  <path id="Trazado_1218726" data-name="Trazado 1218726" d="M88.466,394.932A167.328,167.328,0,0,1,107.7,361.344c.243-.333-.311-.651-.551-.322a167.939,167.939,0,0,0-19.3,33.74c-.159.379.458.544.615.17Z" transform="translate(-87.824 -360.884)" fill="#263238"/>
                </g>
              </g>
              <g id="Grupo_1230138" data-name="Grupo 1230138" transform="translate(0 53.046)">
                <path id="Trazado_1218727" data-name="Trazado 1218727" d="M77.564,378a29.28,29.28,0,0,1,4.636,18.07c-5.513-1.919-10.372-8.146-13.286-13.2s-4.543-10.739-6.025-16.385A29.284,29.284,0,0,1,77.564,378Z" transform="translate(-62.889 -366.485)" fill="#407bff"/>
              </g>
              <g id="Grupo_1230140" data-name="Grupo 1230140" transform="translate(5.282 59.197)">
                <g id="Grupo_1230139" data-name="Grupo 1230139">
                  <path id="Trazado_1218728" data-name="Trazado 1218728" d="M85.523,401.317a136.869,136.869,0,0,0-15.816-27.464c-.24-.328-.794-.01-.551.322a136.17,136.17,0,0,1,15.751,27.312c.157.373.776.208.616-.17Z" transform="translate(-69.096 -373.715)" fill="#263238"/>
                </g>
              </g>
              <g id="Grupo_1230142" data-name="Grupo 1230142" transform="translate(21.342 65.723)">
                <g id="Grupo_1230141" data-name="Grupo 1230141">
                  <path id="Trazado_1218729" data-name="Trazado 1218729" d="M88.514,405.78c7.78-8,15.722-15.845,23.5-23.849.287-.294-.164-.746-.451-.451-7.78,8-15.722,15.845-23.5,23.849-.287.294.164.746.451.451Z" transform="translate(-87.971 -381.384)" fill="#263238"/>
                </g>
              </g>
              <g id="Grupo_1230143" data-name="Grupo 1230143" transform="translate(27.287 62.546)">
                <path id="Trazado_1218730" data-name="Trazado 1218730" d="M113.3,377.65a153.123,153.123,0,0,0-18.344,21.272h1.235A18.225,18.225,0,0,0,113.3,377.65Z" transform="translate(-94.957 -377.65)" fill="#407bff"/>
              </g>
              <g id="Grupo_1230147" data-name="Grupo 1230147" transform="translate(4.482 23.095)">
                <g id="Grupo_1230145" data-name="Grupo 1230145" transform="translate(9.094 23.488)">
                  <g id="Grupo_1230144" data-name="Grupo 1230144">
                    <path id="Trazado_1218731" data-name="Trazado 1218731" d="M78.892,359.364q4.347,7.109,8.186,14.509c.189.365.74.043.551-.322q-3.837-7.4-8.186-14.509c-.214-.35-.767-.03-.551.322Z" transform="translate(-78.844 -358.89)" fill="#263238"/>
                  </g>
                </g>
                <g id="Grupo_1230146" data-name="Grupo 1230146">
                  <path id="Trazado_1218732" data-name="Trazado 1218732" d="M70.368,331.286A84.407,84.407,0,0,0,68.156,347.9c-.011,5.177,1.568,10.228,4.51,13.7s8.879,4.988,11.274,3Z" transform="translate(-68.156 -331.286)" fill="#407bff"/>
                </g>
              </g>
            </g>
            <rect id="Rectángulo_422697" data-name="Rectángulo 422697" width="29.484" height="5.464" transform="translate(6.543 92.383)" fill="#263238"/>
            <path id="Trazado_1218733" data-name="Trazado 1218733" d="M95.825,438.383H77.517L74.19,417.665H98.453Z" transform="translate(-64.574 -321.07)" fill="#263238"/>
            <path id="Trazado_1218734" data-name="Trazado 1218734" d="M74.446,419.256H98.32l-.3,2.345h-23.2Z" transform="translate(-64.612 -321.308)" opacity="0.2"/>
          </g>
        </g>
        <g id="Screen" transform="translate(63.218 75.969)">
          <g id="Grupo_1230154" data-name="Grupo 1230154">
            <g id="Grupo_1230152" data-name="Grupo 1230152">
              <g id="Grupo_1230150" data-name="Grupo 1230150">
                <path id="Trazado_1218735" data-name="Trazado 1218735" d="M136.713,135.626H78.5a4.2,4.2,0,0,1-4.2-4.2V83.808a4.2,4.2,0,0,1,4.2-4.2h58.217a4.2,4.2,0,0,1,4.2,4.2v47.618A4.2,4.2,0,0,1,136.713,135.626Z" transform="translate(-74.296 -79.608)" fill="#407bff"/>
                <path id="Trazado_1218736" data-name="Trazado 1218736" d="M136.713,135.626H78.5a4.2,4.2,0,0,1-4.2-4.2V83.808a4.2,4.2,0,0,1,4.2-4.2h58.217a4.2,4.2,0,0,1,4.2,4.2v47.618A4.2,4.2,0,0,1,136.713,135.626Z" transform="translate(-74.296 -79.608)" fill="#fff" opacity="0.5"/>
                <path id="Trazado_1218737" data-name="Trazado 1218737" d="M140.913,89.376H74.3V83.545a3.937,3.937,0,0,1,3.937-3.937h58.812a3.868,3.868,0,0,1,3.868,3.868v5.9Z" transform="translate(-74.296 -79.608)" fill="#407bff"/>
              </g>
              <g id="Grupo_1230151" data-name="Grupo 1230151" transform="translate(46.47 3.464)">
                <path id="Trazado_1218738" data-name="Trazado 1218738" d="M147.418,85.811a2.132,2.132,0,1,1-2.132-2.132A2.132,2.132,0,0,1,147.418,85.811Z" transform="translate(-131.033 -83.679)" fill="#fff" opacity="0.5"/>
                <path id="Trazado_1218739" data-name="Trazado 1218739" d="M140.3,85.811a2.132,2.132,0,1,1-2.132-2.132A2.132,2.132,0,0,1,140.3,85.811Z" transform="translate(-129.971 -83.679)" fill="#fff" opacity="0.5"/>
                <path id="Trazado_1218740" data-name="Trazado 1218740" d="M133.174,85.811a2.132,2.132,0,1,1-2.132-2.132A2.132,2.132,0,0,1,133.174,85.811Z" transform="translate(-128.909 -83.679)" fill="#fff" opacity="0.5"/>
              </g>
            </g>
            <g id="Grupo_1230153" data-name="Grupo 1230153" transform="translate(15.37 15.846)">
              <path id="Trazado_1218741" data-name="Trazado 1218741" d="M112.21,115.3l5.778-15.872a16.889,16.889,0,0,1,9.708,9.126Z" transform="translate(-95.319 -98.41)" fill="#f5f5f5"/>
              <path id="Trazado_1218742" data-name="Trazado 1218742" d="M109.25,115.122l4.923,16.158a16.891,16.891,0,1,1,.779-32.058Z" transform="translate(-92.359 -98.231)" fill="#407bff"/>
              <path id="Trazado_1218743" data-name="Trazado 1218743" d="M112.21,116.913l15.517-6.673a16.89,16.89,0,0,1-10.53,22.811Z" transform="translate(-95.319 -100.022)" fill="#407bff"/>
              <path id="Trazado_1218744" data-name="Trazado 1218744" d="M112.21,116.913l15.517-6.673a16.89,16.89,0,0,1-10.53,22.811Z" transform="translate(-95.319 -100.022)" opacity="0.3"/>
            </g>
          </g>
        </g>
        <g id="Character_2_00000083798181020747381990000002522276009728083075_" transform="translate(280.563 119.466)">
          <g id="Grupo_1230184" data-name="Grupo 1230184">
            <path id="Trazado_1218745" data-name="Trazado 1218745" d="M380.724,184.235c-2.856.573-3.987,2.868-6.852,8.852-3.61,7.543-8.874,21.142-10.066,21.256-1.676.16-23.1-8.191-23.1-8.191l-3.333,3.766s11.222,15.007,28.988,19.771c3.192.857,7.221-2.759,11.063-7.7.753-.961,1.487-1.977,2.222-3.022a154.106,154.106,0,0,0,10.611-18.33l-9.527-16.4Z" transform="translate(-330.866 -138.706)" fill="#407bff"/>
            <path id="Trazado_1218746" data-name="Trazado 1218746" d="M386.408,195.483a106.294,106.294,0,0,1-4.3,13.054,7.437,7.437,0,0,0-.483,3.965,58.4,58.4,0,0,0,2.674,10.154c.619,1.8,3.4,1.668,3.482,3.567.753-.961,1.487-1.977,2.222-3.022l1.638-6.477Z" transform="translate(-337.452 -140.383)" opacity="0.2"/>
            <path id="Trazado_1218747" data-name="Trazado 1218747" d="M366.637,216.861a1.883,1.883,0,0,0,1.3-2.325l-7.165-30.127a3.483,3.483,0,0,0-3.2-2.485l-22.962-.48a1.883,1.883,0,0,0-2.043,2.382l7.165,30.127a3.493,3.493,0,0,0,3.2,2.495l22.962.471A1.865,1.865,0,0,0,366.637,216.861Z" transform="translate(-330.139 -138.288)" fill="#263238"/>
            <path id="Trazado_1218748" data-name="Trazado 1218748" d="M366.637,216.861a1.883,1.883,0,0,0,1.3-2.325l-7.165-30.127a3.483,3.483,0,0,0-3.2-2.485l-22.962-.48a1.883,1.883,0,0,0-2.043,2.382l7.165,30.127a3.493,3.493,0,0,0,3.2,2.495l22.962.471A1.865,1.865,0,0,0,366.637,216.861Z" transform="translate(-330.139 -138.288)" fill="#fff" opacity="0.2"/>
            <path id="Trazado_1218749" data-name="Trazado 1218749" d="M363.869,216.806a1.883,1.883,0,0,0,1.3-2.324L358,184.355a3.5,3.5,0,0,0-3.192-2.495l-22.972-.471a1.883,1.883,0,0,0-2.043,2.382l7.174,30.127a3.5,3.5,0,0,0,3.192,2.495l22.972.471A1.889,1.889,0,0,0,363.869,216.806Z" transform="translate(-329.727 -138.28)" fill="#263238"/>
            <path id="Trazado_1218750" data-name="Trazado 1218750" d="M363.869,216.806a1.883,1.883,0,0,0,1.3-2.324L358,184.355a3.5,3.5,0,0,0-3.192-2.495l-22.972-.471a1.883,1.883,0,0,0-2.043,2.382l7.174,30.127a3.5,3.5,0,0,0,3.192,2.495l22.972.471A1.889,1.889,0,0,0,363.869,216.806Z" transform="translate(-329.727 -138.28)" fill="#fff" opacity="0.3"/>
            <path id="Trazado_1218751" data-name="Trazado 1218751" d="M347.1,199.389a1.729,1.729,0,0,1,1.885-1.558,3.141,3.141,0,0,1,2.855,2.3,1.715,1.715,0,0,1-1.817,2.2,3.146,3.146,0,0,1-2.862-2.291A1.726,1.726,0,0,1,347.1,199.389Z" transform="translate(-332.315 -140.732)" fill="#fff" opacity="0.2"/>
            <path id="Trazado_1218752" data-name="Trazado 1218752" d="M335.741,203.33c.452-.037,2.372.913,3.276.283s.056-1.149.056-1.149c-1.657-.405-3.474-2.476-4.482-1.883s-2.674,1.337-2.429,2.279a20.948,20.948,0,0,0,1,2.552,1.48,1.48,0,0,0-.094,1.394,1.647,1.647,0,0,0,1.214,1.007,1.573,1.573,0,0,0-.452,1.2c.075.716,1.958,1.657,1.958,1.657s-.368,1.12.066,1.554a3.021,3.021,0,0,0,2.636.6c1.1-.264,1.855-.64,1.779-1.751s-2.062-1.111-2.062-1.111,3.729-1.13,2.937-1.836-3.766-.621-3.766-.621,5.047-1,4.246-2.034-5.828-.753-5.828-.753S335.289,203.367,335.741,203.33Z" transform="translate(-330.086 -141.127)" fill="#e9b376"/>
            <g id="Grupo_1230182" data-name="Grupo 1230182" transform="translate(25.524)">
              <g id="Grupo_1230157" data-name="Grupo 1230157" transform="translate(11.726 240.931)">
                <g id="Grupo_1230156" data-name="Grupo 1230156">
                  <g id="Grupo_1230155" data-name="Grupo 1230155">
                    <path id="Trazado_1218753" data-name="Trazado 1218753" d="M384.812,413.878l2.147,18.281-6.559.907-6.9-17.18Z" transform="translate(-373.504 -413.878)" fill="#e9b376"/>
                  </g>
                </g>
              </g>
              <path id="Trazado_1218754" data-name="Trazado 1218754" d="M373.139,430.782c-.1-1.116-.024-2.046,1.281-2.114l1.848-.1a3.3,3.3,0,0,1,1.758.785c4.237,2.7,5.975-.787,7.619-.785,2.113,0,.753,6.193.853,6.518l2.309,7.188c.2.6-.205,1.9-.906,2.068a1.53,1.53,0,0,1-.384.043H363.05c-3.891,0-3.936-4.371-2.333-4.682a28.158,28.158,0,0,0,12.426-5.109A27.587,27.587,0,0,0,373.139,430.782Z" transform="translate(-359.724 -175.138)" fill="#407bff"/>
              <path id="Trazado_1218755" data-name="Trazado 1218755" d="M363.085,446.826h24.468a1.526,1.526,0,0,0,.384-.043c.477-.117.81-.75.916-1.334l-.01-.547H359.961A3.076,3.076,0,0,0,363.085,446.826Z" transform="translate(-359.759 -177.572)" fill="#fff" opacity="0.4"/>
              <g id="Grupo_1230159" data-name="Grupo 1230159" transform="translate(9.505 261.569)">
                <g id="Grupo_1230158" data-name="Grupo 1230158">
                  <path id="Trazado_1218756" data-name="Trazado 1218756" d="M370.987,438.673a6.409,6.409,0,0,1,.821.83c.03.036.059.072.087.109l.007.009.046.062c.058.078.114.158.168.239.108.161.207.328.3.5a.319.319,0,1,0,.55-.322,6.521,6.521,0,0,0-1.529-1.875.326.326,0,0,0-.451,0,.322.322,0,0,0,0,.45Z" transform="translate(-370.895 -438.132)" fill="#263238"/>
                </g>
              </g>
              <g id="Grupo_1230161" data-name="Grupo 1230161" transform="translate(11.755 260.315)">
                <g id="Grupo_1230160" data-name="Grupo 1230160">
                  <path id="Trazado_1218757" data-name="Trazado 1218757" d="M373.631,437.2a7.068,7.068,0,0,1,.762.777c.028.034.056.067.083.1l.037.046c.014.017.04.052.013.016.053.07.1.14.155.211q.158.225.3.462a.322.322,0,0,0,.437.114.326.326,0,0,0,.115-.437,7.2,7.2,0,0,0-1.448-1.743.319.319,0,0,0-.452.451Z" transform="translate(-373.539 -436.659)" fill="#263238"/>
                </g>
              </g>
              <g id="Grupo_1230163" data-name="Grupo 1230163" transform="translate(13.355 259.228)">
                <g id="Grupo_1230162" data-name="Grupo 1230162">
                  <path id="Trazado_1218758" data-name="Trazado 1218758" d="M375.574,435.972a3.057,3.057,0,0,1,.377.224c.03.02.059.043.088.065s-.054-.043-.01-.008l.046.037c.055.046.109.094.161.144s.1.1.148.155c.021.024.043.048.063.074s.024.031.037.045c-.009-.011-.017-.023-.026-.034l.023.031a2.587,2.587,0,0,1,.223.357.321.321,0,0,0,.436.114.326.326,0,0,0,.115-.437,3.112,3.112,0,0,0-1.357-1.319.319.319,0,0,0-.323.551Z" transform="translate(-375.419 -435.381)" fill="#263238"/>
                </g>
              </g>
              <g id="Grupo_1230165" data-name="Grupo 1230165" transform="translate(13.352 256.941)">
                <g id="Grupo_1230164" data-name="Grupo 1230164">
                  <path id="Trazado_1218759" data-name="Trazado 1218759" d="M375.736,433.33c.167,0,.334.01.5.027.137.014.249.03.409.06a5.481,5.481,0,0,1,.92.263.32.32,0,0,0,.392-.223.327.327,0,0,0-.223-.392,5.806,5.806,0,0,0-2-.373.319.319,0,1,0,0,.637Z" transform="translate(-375.416 -432.693)" fill="#263238"/>
                </g>
              </g>
              <g id="Grupo_1230166" data-name="Grupo 1230166" transform="translate(20.553 253.663)" opacity="0.3">
                <path id="Trazado_1218760" data-name="Trazado 1218760" d="M383.887,432.987a1.861,1.861,0,0,0,.905,1.645,2.79,2.79,0,0,0,1.275.166l3.9-.1.016-.034c.205-1.692.756-5.82-.854-5.818-1.267,0-2.6,2.369-5.246,1.677C383.9,431.413,383.862,432.554,383.887,432.987Z" transform="translate(-383.878 -428.841)"/>
              </g>
              <g id="Grupo_1230167" data-name="Grupo 1230167" transform="translate(2.687 116.199)">
                <path id="Trazado_1218761" data-name="Trazado 1218761" d="M362.972,335.242c1.167-10.572,15.9-66.683,15.9-66.683l18.73-.455,28.816-.814s1.664,15.04,1.686,34.736c0,0-1.395,84.095-2.536,104.11l-15.826.611c-1.8-15.727-4.18-64.795-4.18-64.795-1.085-8.89-2.063-35.132-2.841-42.625-.323-1.658-.641-3.33-.95-4.994-3.073,8.127-17.18,42.9-18.269,47.883l5.788,66.133-17.022-.651S361.8,345.814,362.972,335.242Z" transform="translate(-362.881 -267.289)" fill="#263238"/>
                <path id="Trazado_1218762" data-name="Trazado 1218762" d="M391.164,271.314a17.6,17.6,0,0,1-12.095,11.308.238.238,0,1,0,.133.457,18.11,18.11,0,0,0,12.444-11.639c.094-.292-.389-.417-.482-.126Z" transform="translate(-365.269 -267.864)"/>
                <path id="Trazado_1218763" data-name="Trazado 1218763" d="M409.4,272.117q-.507,7.082-1.006,14.173c-.016.3-.515.3-.5,0q.266-3.633.515-7.281c-1.231.9-2.671-.191-3.073-1.394a11.187,11.187,0,0,1,.1-6.214c.081-.3.563-.168.482.122a12.642,12.642,0,0,0-.41,4.181,5.452,5.452,0,0,0,.475,2.194,1.481,1.481,0,0,0,2.189.686.247.247,0,0,1,.266-.038c.153-2.14.305-4.288.459-6.428C408.919,271.812,409.418,271.812,409.4,272.117Z" transform="translate(-369.152 -267.877)"/>
                <path id="Trazado_1218764" data-name="Trazado 1218764" d="M423.98,271.211c-.071,6.259,5.02,11.5,11.6,11.993.316.024.314-.442,0-.465a11.718,11.718,0,0,1-11.111-11.528c0-.3-.488-.3-.492,0Z" transform="translate(-371.991 -267.84)"/>
              </g>
              <g id="Grupo_1230169" data-name="Grupo 1230169" transform="translate(52.288 241.817)">
                <g id="Grupo_1230168" data-name="Grupo 1230168">
                  <path id="Trazado_1218765" data-name="Trazado 1218765" d="M421.174,414.919l2.788,18.762,6.666.31,2.158-18.088Z" transform="translate(-421.174 -414.919)" fill="#263238"/>
                </g>
              </g>
              <g id="Grupo_1230170" data-name="Grupo 1230170" transform="translate(52.376 255.591)">
                <path id="Trazado_1218766" data-name="Trazado 1218766" d="M436.318,444.806H421.409a3.176,3.176,0,0,1,.047-2.1c.057-.238.131-.5.227-.785.005-.014.009-.028.014-.043.14-.423.3-.944.47-1.506a55.626,55.626,0,0,0,1.148-7.558s2.819-2.6,5.721-1.379c2.546,1.067,2.15,2.42,2.15,2.42s.041,3.494,1.972,5.075c1.194.977,2.381,1.733,2.952,2.948a3.644,3.644,0,0,1,.251.731c.007.031.014.065.019.1A5.227,5.227,0,0,1,436.318,444.806Z" transform="translate(-421.277 -431.107)" fill="#407bff"/>
              </g>
              <path id="Trazado_1218767" data-name="Trazado 1218767" d="M421.455,444.735a3.177,3.177,0,0,0-.047,2.1h14.909a5.232,5.232,0,0,0,.06-2.1Z" transform="translate(-368.901 -177.548)" fill="#fff" opacity="0.4"/>
              <g id="Grupo_1230172" data-name="Grupo 1230172" transform="translate(58.405 260)">
                <g id="Grupo_1230171" data-name="Grupo 1230171" transform="translate(0 0)">
                  <path id="Trazado_1218768" data-name="Trazado 1218768" d="M431.433,437.092a2.139,2.139,0,0,0-2.693.153c-.2.181-.514-.1-.311-.286a2.619,2.619,0,0,1,3.315-.153c.224.16-.09.443-.311.286Z" transform="translate(-428.363 -436.289)" fill="#263238"/>
                </g>
              </g>
              <g id="Grupo_1230174" data-name="Grupo 1230174" transform="translate(58.825 261.279)">
                <g id="Grupo_1230173" data-name="Grupo 1230173">
                  <path id="Trazado_1218769" data-name="Trazado 1218769" d="M431.927,438.593a2.139,2.139,0,0,0-2.693.153c-.2.181-.514-.1-.311-.285a2.619,2.619,0,0,1,3.315-.153c.224.159-.089.442-.311.285Z" transform="translate(-428.857 -437.791)" fill="#263238"/>
                </g>
              </g>
              <g id="Grupo_1230176" data-name="Grupo 1230176" transform="translate(59.248 262.453)">
                <g id="Grupo_1230175" data-name="Grupo 1230175" transform="translate(0 0)">
                  <path id="Trazado_1218770" data-name="Trazado 1218770" d="M432.424,439.973a2.138,2.138,0,0,0-2.693.153c-.2.181-.514-.1-.311-.285a2.619,2.619,0,0,1,3.315-.153c.224.159-.089.442-.311.285Z" transform="translate(-429.354 -439.171)" fill="#263238"/>
                </g>
              </g>
              <path id="Trazado_1218771" data-name="Trazado 1218771" d="M381.468,251.492c-2.655,4.361-2.655,7.863-.124,8.756,0,0,23,3.9,46.524,1.227,5.664.312,2.892-4.939,2.892-4.939l.126-72.608c-17.877-3.795-39.507-.288-43.886,0Z" transform="translate(-362.667 -138.399)" fill="#407bff"/>
              <path id="Trazado_1218772" data-name="Trazado 1218772" d="M439.811,229.644V205.629s3.52,24.613,1.748,30.719Z" transform="translate(-371.665 -141.896)" opacity="0.2"/>
              <g id="Grupo_1230180" data-name="Grupo 1230180" transform="translate(30.492)">
                <path id="Trazado_1218773" data-name="Trazado 1218773" d="M400.724,144.134s-8.686-4.891-3.53-10.138c4.067-4.138,7.664-3.535,13.1-2.544,13.332,2.428,12.556,7.983,12.556,7.983Z" transform="translate(-395.559 -130.728)" fill="#263238"/>
                <g id="Grupo_1230177" data-name="Grupo 1230177" transform="translate(10.532 23.74)">
                  <path id="Trazado_1218774" data-name="Trazado 1218774" d="M419.546,176.267s-.713-5.114,2.281-13.978c0-.009-.464-.24-.464-.249.414-1.24.846-2.383,1.25-3.374a.157.157,0,0,0,.009-.038l-12.61,7.055c.163,2.884-1.109,8.386-1.825,10.7,0,0-1.735,4.175,3.9,4.607C416.206,181.305,419.546,176.267,419.546,176.267Z" transform="translate(-407.936 -158.628)" fill="#e9b376"/>
                  <path id="Trazado_1218775" data-name="Trazado 1218775" d="M409.819,171.426l7.137-1.286c-.737,2.17-2.8,4.691-7.724,4.689A21.826,21.826,0,0,0,409.819,171.426Z" transform="translate(-408.129 -160.344)" opacity="0.2"/>
                </g>
                <g id="Grupo_1230178" data-name="Grupo 1230178" transform="translate(2.623 3.443)">
                  <path id="Trazado_1218776" data-name="Trazado 1218776" d="M421.591,149.424c-1.167,7.749-1.669,12.143-5.962,15.759-6.457,5.437-15.559,1.126-16.733-6.84-1.057-7.17,1.029-18.638,8.939-20.99A10.811,10.811,0,0,1,421.591,149.424Z" transform="translate(-398.641 -135.089)" fill="#e9b376"/>
                  <path id="Trazado_1218777" data-name="Trazado 1218777" d="M423.735,139.828c-9.514-9.163-19.192-4.023-22.9,1l16.6.2c.726-.013,1.137.743.979,2.125,0,0-5.755,10.32,2.178,16.112,2.838-1.087,3.415-5.807,4.522-8.551C426.764,146.622,428.847,140.606,423.735,139.828Z" transform="translate(-398.969 -134.774)" fill="#263238"/>
                  <path id="Trazado_1218778" data-name="Trazado 1218778" d="M427.363,158.721a7.356,7.356,0,0,1-4.043,3.973c-2.428.95-3.069-1.669-2.633-4.1.393-2.192,1.276-4.826,3.826-4.735A3.382,3.382,0,0,1,427.363,158.721Z" transform="translate(-401.909 -137.619)" fill="#e9b376"/>
                  <path id="Trazado_1218779" data-name="Trazado 1218779" d="M411.13,153.077c-.071.8-.551,1.4-1.072,1.351s-.887-.739-.817-1.537.551-1.4,1.071-1.351S411.2,152.28,411.13,153.077Z" transform="translate(-400.221 -137.274)" fill="#263238"/>
                  <path id="Trazado_1218780" data-name="Trazado 1218780" d="M402.384,152.636c-.071.8-.551,1.4-1.071,1.351s-.887-.739-.817-1.537.551-1.4,1.071-1.35S402.454,151.839,402.384,152.636Z" transform="translate(-398.916 -137.208)" fill="#263238"/>
                  <path id="Trazado_1218781" data-name="Trazado 1218781" d="M405.432,152.222s-2.874,3.739-3.826,5.281a3.782,3.782,0,0,0,2.974.808Z" transform="translate(-399.083 -137.376)" fill="#d58745"/>
                  <path id="Trazado_1218782" data-name="Trazado 1218782" d="M414.353,148.593a.378.378,0,0,1-.37-.086,3.017,3.017,0,0,0-2.586-.835.379.379,0,0,1-.455-.276.371.371,0,0,1,.273-.451,3.757,3.757,0,0,1,3.279,1.019.371.371,0,0,1,.02.528A.35.35,0,0,1,414.353,148.593Z" transform="translate(-400.474 -136.58)" fill="#263238"/>
                  <path id="Trazado_1218783" data-name="Trazado 1218783" d="M407.908,162.4a4.666,4.666,0,0,0,3.439-1.307" transform="translate(-400.023 -138.699)" fill="none" stroke="#263238" stroke-linecap="round" stroke-linejoin="round" stroke-miterlimit="10" stroke-width="0.75"/>
                </g>
                <path id="Trazado_1218784" data-name="Trazado 1218784" d="M426.027,156.743a1.425,1.425,0,0,0-1.455-.635,2.458,2.458,0,0,0-1.416.858,3.918,3.918,0,0,0-.893,1.8" transform="translate(-399.54 -134.51)" fill="none" stroke="#000" stroke-linecap="round" stroke-linejoin="round" stroke-miterlimit="10" stroke-width="0.5" opacity="0.2"/>
                <path id="Trazado_1218785" data-name="Trazado 1218785" d="M399.314,147.893a.379.379,0,0,1-.13-.651,3.691,3.691,0,0,1,3.313-.78.379.379,0,0,1,.245.472.37.37,0,0,1-.465.244,2.878,2.878,0,0,0-2.617.646A.364.364,0,0,1,399.314,147.893Z" transform="translate(-396.079 -133.057)" fill="#263238"/>
                <path id="Trazado_1218786" data-name="Trazado 1218786" d="M429.081,149.175l-9.524.234a19.936,19.936,0,0,1,1.022-3.221h9.14A13.718,13.718,0,0,1,429.081,149.175Z" transform="translate(-399.137 -133.033)" fill="#fff" opacity="0.3"/>
                <g id="Grupo_1230179" data-name="Grupo 1230179" transform="translate(14.572 24.04)" opacity="0.2">
                  <path id="Trazado_1218787" data-name="Trazado 1218787" d="M412.684,158.98a3.808,3.808,0,0,1,.992,2.784,2.5,2.5,0,0,0,.258-1.646C413.729,159.271,412.684,158.98,412.684,158.98Z" transform="translate(-412.684 -158.98)"/>
                </g>
              </g>
              <g id="Grupo_1230181" data-name="Grupo 1230181" transform="translate(36.649 38.528)">
                <path id="Trazado_1218788" data-name="Trazado 1218788" d="M407.706,176.794l-4.911,4.419,8.2,9.942,11.844-9.986-3.511-5.162-7.4,6.183Z" transform="translate(-402.795 -176.007)" fill="#407bff"/>
                <path id="Trazado_1218789" data-name="Trazado 1218789" d="M407.706,176.794l-4.911,4.419,8.2,9.942,11.844-9.986-3.511-5.162-7.4,6.183Z" transform="translate(-402.795 -176.007)" fill="#fff" opacity="0.8"/>
              </g>
            </g>
            <path id="Trazado_1218790" data-name="Trazado 1218790" d="M433.091,242.908v8.535s-18.884-5.512-30.009-15.46c-7.921-7.083-6.682-10.066-6.682-10.066l8.972.866Z" transform="translate(-339.657 -144.921)" opacity="0.2"/>
            <path id="Trazado_1218791" data-name="Trazado 1218791" d="M432.569,208.072l1.207,20.065c3.351,2.132,5.569-.823,6.079-3.876v-5.777Z" transform="translate(-345.061 -142.26)" opacity="0.2"/>
            <path id="Trazado_1218792" data-name="Trazado 1218792" d="M428.084,205.772s6.067,15.832,4.551,16.792-26.192-3.713-26.192-3.713l-3.813,5.47c.819,3.6,42.563,26.254,45.971,7.3,1.775-9.865-5.1-33.162-7.7-40.4-.727-2.027-4.385-6.355-6.446-6.98a4.6,4.6,0,0,0-2.128-.193C424.442,185.524,428.084,205.772,428.084,205.772Z" transform="translate(-340.597 -138.67)" fill="#407bff"/>
            <path id="Trazado_1218793" data-name="Trazado 1218793" d="M435.525,231.609" transform="translate(-345.502 -145.77)" fill="#976827"/>
            <path id="Trazado_1218794" data-name="Trazado 1218794" d="M400.074,228.946c-2.86.226-2.96-4.082-4.448-4.251a8.507,8.507,0,0,1-2.514-.64s.942,2.589,0,2.382-3.963-.358-4.707-2.824,1.949-7.739,2.561-8.473,3.832-.509,3.832-.509-3.465-.894-5.367-1.158-2.263-2.437.391-1.956c1.09.2,9.693.261,10.624,1.147s4.387,9.582,4.387,9.582C406.114,222.979,402.861,230.273,400.074,228.946Z" transform="translate(-338.403 -142.763)" fill="#e9b376"/>
            <g id="Grupo_1230183" data-name="Grupo 1230183" transform="translate(50.619 71.571)" opacity="0.3">
              <path id="Trazado_1218795" data-name="Trazado 1218795" d="M396,214.864a9.926,9.926,0,0,1,2.636.169.245.245,0,0,1-.085.48,9.664,9.664,0,0,0-2.495-.169C395.751,215.344,395.694,214.883,396,214.864Z" transform="translate(-390.197 -214.84)"/>
              <path id="Trazado_1218796" data-name="Trazado 1218796" d="M390.761,217.782c-.273.141-.556-.254-.283-.4,1.61-.857,3.3-.377,4.934.169.292.094.085.537-.207.442C393.774,217.518,392.192,217.057,390.761,217.782Z" transform="translate(-389.388 -215.15)"/>
              <path id="Trazado_1218797" data-name="Trazado 1218797" d="M389.327,220.314a4.8,4.8,0,0,1,4.557-.2.245.245,0,0,1-.2.442,4.341,4.341,0,0,0-4.086.151C389.337,220.87,389.054,220.474,389.327,220.314Z" transform="translate(-389.216 -215.555)"/>
              <path id="Trazado_1218798" data-name="Trazado 1218798" d="M391.78,224.48a3.906,3.906,0,0,1-.293-.8c-.066-.3.386-.471.461-.169a3.416,3.416,0,0,0,1.591,2.212c.273.151.066.593-.2.442h.028a3.913,3.913,0,0,1-1.269-1.161c-.032,0-.06.017-.1,0a1.309,1.309,0,0,0-1.422.377c-.207.236-.574-.076-.367-.311A1.8,1.8,0,0,1,391.78,224.48Z" transform="translate(-389.356 -216.11)"/>
            </g>
          </g>
        </g>
      </g>
    </g>
  </g>
</svg>
