<svg xmlns="http://www.w3.org/2000/svg" xmlns:xlink="http://www.w3.org/1999/xlink" width="113" height="113" viewBox="0 0 113 113">
  <defs>
    <filter id="Trazado_982547" x="0" y="0" width="113" height="113" filterUnits="userSpaceOnUse">
      <feOffset dy="3" input="SourceAlpha"/>
      <feGaussianBlur stdDeviation="3" result="blur"/>
      <feFlood flood-opacity="0.161"/>
      <feComposite operator="in" in2="blur"/>
      <feComposite in="SourceGraphic"/>
    </filter>
  </defs>
  <g id="Grupo_1230280" data-name="Grupo 1230280" transform="translate(-271.425 -7764.223)">
    <g id="Grupo_1229014" data-name="Grupo 1229014" transform="translate(0 2131.042)">
      <g id="Grupo_1227502" data-name="Grupo 1227502" transform="translate(0 2048.198)">
        <g id="Grupo_1225350" data-name="Grupo 1225350" transform="translate(-0.575 -393.641)">
          <g id="Grupo_1208121" data-name="Grupo 1208121" transform="translate(0 -1922.377)">
            <g id="Grupo_1202432" data-name="Grupo 1202432" transform="translate(0 1255.486)">
              <g id="Grupo_1202055" data-name="Grupo 1202055" transform="translate(0 3240.511)">
                <g id="Grupo_1177900" data-name="Grupo 1177900" transform="translate(281 1411.003)">
                  <g id="Grupo_1172010" data-name="Grupo 1172010" transform="translate(0)">
                    <g id="Grupo_1171046" data-name="Grupo 1171046">
                      <g id="Grupo_1148525" data-name="Grupo 1148525">
                        <g transform="matrix(1, 0, 0, 1, -9, -6)" filter="url(#Trazado_982547)">
                          <g id="Trazado_982547-2" data-name="Trazado 982547" transform="translate(9 6)" fill="#cefcf7">
                            <path d="M 47.5 93.5 C 41.28937149047852 93.5 35.26533508300781 92.28397369384766 29.59518623352051 89.88570404052734 C 24.11771965026855 87.56893157958984 19.19813346862793 84.25196075439453 14.97309303283691 80.02691650390625 C 10.74804019927979 75.80186462402344 7.431066513061523 70.88229370117188 5.114293098449707 65.40481567382812 C 2.716026782989502 59.73468017578125 1.5 53.71062850952148 1.5 47.5 C 1.5 41.28937149047852 2.716026782989502 35.26533508300781 5.114293098449707 29.59518623352051 C 7.431066513061523 24.11771965026855 10.74804019927979 19.19813346862793 14.97309303283691 14.97309303283691 C 19.19813346862793 10.74804019927979 24.11771965026855 7.431066513061523 29.59518623352051 5.114293098449707 C 35.26533508300781 2.716026782989502 41.28937149047852 1.5 47.5 1.5 C 53.71062850952148 1.5 59.73468017578125 2.716026782989502 65.40481567382812 5.114293098449707 C 70.88229370117188 7.431066513061523 75.80186462402344 10.74804019927979 80.02691650390625 14.97309303283691 C 84.25196075439453 19.19813346862793 87.56893157958984 24.11771965026855 89.88570404052734 29.59518623352051 C 92.28397369384766 35.26533508300781 93.5 41.28937149047852 93.5 47.5 C 93.5 53.71062850952148 92.28397369384766 59.73468017578125 89.88570404052734 65.40481567382812 C 87.56893157958984 70.88229370117188 84.25196075439453 75.80186462402344 80.02691650390625 80.02691650390625 C 75.80186462402344 84.25196075439453 70.88229370117188 87.56893157958984 65.40481567382812 89.88570404052734 C 59.73468017578125 92.28397369384766 53.71062850952148 93.5 47.5 93.5 Z" stroke="none"/>
                            <path d="M 47.5 3 C 41.49121475219727 3 35.66376876831055 4.176155090332031 30.17950439453125 6.495796203613281 C 24.88084411621094 8.736953735351562 20.12152099609375 11.94598388671875 16.03375244140625 16.03375244140625 C 11.94598388671875 20.12152099609375 8.736953735351562 24.88084411621094 6.495796203613281 30.17950439453125 C 4.176155090332031 35.66376876831055 3 41.49121475219727 3 47.5 C 3 53.50878524780273 4.176155090332031 59.33623123168945 6.495796203613281 64.82049560546875 C 8.736953735351562 70.11915588378906 11.94598388671875 74.87847900390625 16.03375244140625 78.96624755859375 C 20.12152099609375 83.05401611328125 24.88084411621094 86.26304626464844 30.17950439453125 88.50419616699219 C 35.66376876831055 90.82384490966797 41.49121475219727 92 47.5 92 C 53.50878524780273 92 59.33623123168945 90.82384490966797 64.82049560546875 88.50419616699219 C 70.11915588378906 86.26304626464844 74.87847900390625 83.05401611328125 78.96624755859375 78.96624755859375 C 83.05401611328125 74.87847900390625 86.26304626464844 70.11915588378906 88.50419616699219 64.82049560546875 C 90.82384490966797 59.33623123168945 92 53.50878524780273 92 47.5 C 92 41.49121475219727 90.82384490966797 35.66376876831055 88.50419616699219 30.17950439453125 C 86.26304626464844 24.88084411621094 83.05401611328125 20.12152099609375 78.96624755859375 16.03375244140625 C 74.87847900390625 11.94598388671875 70.11915588378906 8.736953735351562 64.82049560546875 6.495796203613281 C 59.33623123168945 4.176155090332031 53.50878524780273 3 47.5 3 M 47.5 0 C 73.7335205078125 0 95 21.2664794921875 95 47.5 C 95 73.7335205078125 73.7335205078125 95 47.5 95 C 21.2664794921875 95 0 73.7335205078125 0 47.5 C 0 21.2664794921875 21.2664794921875 0 47.5 0 Z" stroke="none" fill="#098576"/>
                          </g>
                        </g>
                      </g>
                    </g>
                  </g>
                </g>
              </g>
            </g>
          </g>
        </g>
      </g>
    </g>
    <g id="claridad" transform="translate(294.659 7769.38)">
      <g id="Grupo_1230278" data-name="Grupo 1230278" transform="translate(1.026 29.4)">
        <path id="Trazado_1218925" data-name="Trazado 1218925" d="M103.548,161.054c-5.418-13.112,2.771-14.92,5.58-23.3a16.2,16.2,0,0,0-.423-11.369c-6.784-17.531-36.719-12.781-38.36,5.358-.3,3.258.925,4.9-3.8,10.967-2.322,3.763,1.179,3.787,2.82,3.833-1.691,1.457-.121,2.735.833,3.015-1.878.762-1.33,2.481.346,3.053-2.753,6.467,2.11,6.7,8.972,5.3l1.044,4.295a1.848,1.848,0,0,0,1.814,1.429h19.448a1.869,1.869,0,0,0,1.727-2.585Z" transform="translate(-58.361 -115.423)" fill="#fbbd80" fill-rule="evenodd"/>
        <path id="Trazado_1218926" data-name="Trazado 1218926" d="M167.135,169.866c1.373,1.673,4.239,2.362,4.6,6.1a.506.506,0,0,0,.5.459h1.129a.5.5,0,0,0,.5-.455,11.968,11.968,0,0,0-.868-6.008,3.951,3.951,0,0,0,2.118-3.223,3.925,3.925,0,0,0,2.076-3.414,3.854,3.854,0,0,0-1.455-3,5.063,5.063,0,0,0,.307-1.733,5.517,5.517,0,0,0-5.248-5.351,4.237,4.237,0,0,0-3.886-2.418,4.356,4.356,0,0,0-2.912,1.094,4.317,4.317,0,0,0-3.367-1.574,4.241,4.241,0,0,0-3.855,2.348,6.093,6.093,0,0,0-1.058-.092,5.55,5.55,0,0,0-5.715,5.365,5.082,5.082,0,0,0,.756,2.664,5.075,5.075,0,0,0-.42,2.026,5.547,5.547,0,0,0,5.711,5.369,6.172,6.172,0,0,0,1.409-.166,6.287,6.287,0,0,0,5.736,3.142,7.091,7.091,0,0,0,3.933-1.139Z" transform="translate(-131.792 -145.869)" fill="#ff4646" fill-rule="evenodd"/>
        <path id="Trazado_1218927" data-name="Trazado 1218927" d="M221.907,188.474a5.415,5.415,0,1,1-7.4,1.981A5.417,5.417,0,0,1,221.907,188.474Z" transform="translate(-187.383 -178.469)" fill="#e2e7f0" fill-rule="evenodd"/>
        <path id="Trazado_1218928" data-name="Trazado 1218928" d="M20.478,136.846a4.051,4.051,0,1,0-8.1,0H11.2a3.2,3.2,0,1,0,0,6.392h9.29a3.2,3.2,0,1,0-.01-6.392Z" transform="translate(-8 -130.44)" fill="#e2e7f0" fill-rule="evenodd"/>
        <path id="Trazado_1218929" data-name="Trazado 1218929" d="M394.2,136.846a4.051,4.051,0,1,0-8.1,0h-1.183a3.2,3.2,0,1,0,0,6.392h9.293a3.2,3.2,0,1,0-.013-6.392Z" transform="translate(-333.777 -130.44)" fill="#e2e7f0" fill-rule="evenodd"/>
      </g>
      <g id="Grupo_1230279" data-name="Grupo 1230279" transform="translate(0 16.74)">
        <path id="Trazado_1218930" data-name="Trazado 1218930" d="M24.767,19.2a1.027,1.027,0,0,1,1.985-.532L28.45,25a1.028,1.028,0,0,1-.726,1.258,1.012,1.012,0,0,1-.267.036,1.027,1.027,0,0,1-.992-.762Zm9.877,6.147a1.027,1.027,0,0,0,1.028-1.028V17.768a1.028,1.028,0,0,0-2.055,0v6.557A1.027,1.027,0,0,0,34.643,25.352Zm6.92.91a1,1,0,0,0,.267.035,1.027,1.027,0,0,0,.992-.762l1.693-6.33a1.028,1.028,0,1,0-1.986-.531L40.835,25a1.029,1.029,0,0,0,.729,1.257Zm6.446,2.672a1.026,1.026,0,0,0,1.4-.375l3.28-5.677a1.027,1.027,0,1,0-1.779-1.028l-3.28,5.677A1.026,1.026,0,0,0,48.01,28.934Zm-28.137-.376a1.028,1.028,0,0,0,1.779-1.029l-3.28-5.675a1.027,1.027,0,0,0-1.779,1.028ZM34.651,41.267,32.2,43.718l-1.175-1.173A1.028,1.028,0,1,0,29.575,44l1.9,1.9a1.028,1.028,0,0,0,1.453,0l3.175-3.178a1.028,1.028,0,0,0-1.455-1.453ZM46.146,43.04a4.847,4.847,0,0,1,1.317,3.306,4.937,4.937,0,0,1-2.142,4.023A4.915,4.915,0,0,1,43.5,53.382a13.156,13.156,0,0,1,.634,5.711A1.53,1.53,0,0,1,42.6,60.476H41.475a1.531,1.531,0,0,1-1.528-1.389c-.212-2.173-1.406-3.078-2.672-4.036-.366-.277-.738-.559-1.084-.872a8.328,8.328,0,0,1-3.755.872,7.531,7.531,0,0,1-6.251-3.033,7.153,7.153,0,0,1-.89.058,6.582,6.582,0,0,1-6.74-6.4,6.089,6.089,0,0,1,.322-1.955,6.091,6.091,0,0,1-.656-2.736,6.582,6.582,0,0,1,6.74-6.4c.172,0,.343.006.512.018a5.421,5.421,0,0,1,7.877-1.022,5.424,5.424,0,0,1,2.8-.77,5.3,5.3,0,0,1,4.541,2.489,6.543,6.543,0,0,1,5.62,6.305,6.124,6.124,0,0,1-.168,1.425Zm-.736,3.306a2.839,2.839,0,0,0-1.056-2.178,3.339,3.339,0,0,0-2.139-.761,1.028,1.028,0,1,1,0-2.055,5.46,5.46,0,0,1,2.042.394c0-.044,0-.087,0-.131a4.514,4.514,0,0,0-4.3-4.325,1.029,1.029,0,0,1-.857-.6,3.207,3.207,0,0,0-2.952-1.815,3.336,3.336,0,0,0-2.228.833,1.027,1.027,0,0,1-1.484-.122,3.265,3.265,0,0,0-2.567-1.192,3.349,3.349,0,0,0-2.145.763A6.816,6.816,0,0,1,28.9,35.8a1.027,1.027,0,0,1-1.16,1.7,4.894,4.894,0,0,0-2.776-.847,4.528,4.528,0,0,0-4.685,4.34,4.089,4.089,0,0,0,.58,2.1c.009.013.017.027.024.04A4.566,4.566,0,0,0,22.9,44.887a1.027,1.027,0,0,1-.428,1.961,1.006,1.006,0,0,1-.426-.094,6.736,6.736,0,0,1-1.428-.883,4.546,4.546,0,0,0,4.68,4.146h.049a4.941,4.941,0,0,1-.087-.928,1.028,1.028,0,1,1,2.055,0,3.065,3.065,0,0,0,.305,1.326l.023.046a5.275,5.275,0,0,0,4.8,2.531,5.459,5.459,0,0,0,4.634-2.242,1.027,1.027,0,0,1,1.745,1.085,6.043,6.043,0,0,1-.9,1.111c.19.154.393.307.6.464a7.322,7.322,0,0,1,3.419,5.008h.19a10.874,10.874,0,0,0-.8-4.974,10.393,10.393,0,0,0-.78-1.5,1.027,1.027,0,1,1,1.741-1.092c.114.182.222.368.327.557a2.789,2.789,0,0,0,.726-1.706,1.028,1.028,0,0,1,.527-.839,2.881,2.881,0,0,0,1.546-2.516ZM38.42,46.8a6.4,6.4,0,0,1-3.911,3,6.49,6.49,0,0,1-1.679.223A6.446,6.446,0,1,1,38.42,46.8Zm-3.385-7.02a4.389,4.389,0,1,0,1.606,5.993A4.364,4.364,0,0,0,35.035,39.781Zm30.647-1.293a4.228,4.228,0,0,1-4.223,4.223H53.292a16.512,16.512,0,0,1-.525,8.835,25.008,25.008,0,0,1-3.832,6.835c-2.935,4.09-5.255,7.32-1.77,15.744a2.9,2.9,0,0,1-2.677,4H25.035a2.889,2.889,0,0,1-2.812-2.209l-.812-3.347c-5.1.943-7.893.622-9.244-1.034-.939-1.152-1.025-2.783-.254-4.968a2.7,2.7,0,0,1-1.258-2.105,2.178,2.178,0,0,1,.416-1.343A2.661,2.661,0,0,1,10.3,61.8a2.216,2.216,0,0,1-.01-.879,3.314,3.314,0,0,1-2.6-1.489c-.534-.989-.323-2.23.643-3.792a.9.9,0,0,1,.064-.091c3.547-4.552,3.538-6.378,3.529-8.5,0-.6-.005-1.225.059-1.937a17.526,17.526,0,0,1,.387-2.4H4.226a4.224,4.224,0,0,1,0-8.449H4.45a5.081,5.081,0,0,1,10.024.113,4.23,4.23,0,0,1,1.773.9,21.333,21.333,0,0,1,7.7-5.423,25.531,25.531,0,0,1,10.676-1.982c6.322.2,11.78,2.777,15.171,7.122a4.2,4.2,0,0,1,2.368-.727h.227a5.08,5.08,0,0,1,10.024.112A4.233,4.233,0,0,1,65.682,38.488ZM13.515,40.658a2.169,2.169,0,1,0-1.727-3.483,1.027,1.027,0,1,1-1.631-1.25,4.209,4.209,0,0,1,2.23-1.507,3.023,3.023,0,0,0-5.955.836,1.028,1.028,0,0,1-1.026,1.065H4.224a2.169,2.169,0,1,0,0,4.339Zm37.642,1.931a4.219,4.219,0,0,1-2.747-6.027c-2.992-4.044-8-6.453-13.847-6.637-6.691-.212-13.32,2.554-17.094,7.083a4.177,4.177,0,0,1,.269,1.482,4.231,4.231,0,0,1-3.216,4.1,15.413,15.413,0,0,0-.494,2.708c-.055.614-.053,1.188-.05,1.742.012,2.386.022,4.641-3.927,9.721C9.3,58,9.474,58.41,9.5,58.452c.25.464,1.918.511,2.466.526l.095,0a1.028,1.028,0,0,1,.641,1.806c-.267.23-.416.449-.389.573a1.35,1.35,0,0,0,.835.672,1.027,1.027,0,0,1,.1,1.937c-.358.146-.543.33-.539.434.005.169.273.511.833.7a1.028,1.028,0,0,1,.612,1.375c-.541,1.27-1.049,2.953-.393,3.759.836,1.026,3.6,1.07,8.214.131a1.027,1.027,0,0,1,1.2.765l1.043,4.3a.818.818,0,0,0,.816.64H44.488a.842.842,0,0,0,.776-1.166c-1.774-4.29-2.283-7.723-1.6-10.8.612-2.758,2.064-4.782,3.6-6.926a23.322,23.322,0,0,0,3.554-6.29,14.608,14.608,0,0,0,.337-8.305Zm12.471-4.1a2.17,2.17,0,0,0-3.9-1.314,1.027,1.027,0,1,1-1.631-1.25,4.2,4.2,0,0,1,2.23-1.507,3.024,3.024,0,0,0-5.956.838,1.028,1.028,0,0,1-1.026,1.065H52.166a2.169,2.169,0,0,0,0,4.339h9.29a2.174,2.174,0,0,0,2.171-2.171Z" transform="translate(0 -16.74)"/>
      </g>
    </g>
  </g>
</svg>
