<svg xmlns="http://www.w3.org/2000/svg" xmlns:xlink="http://www.w3.org/1999/xlink" width="113" height="113" viewBox="0 0 113 113">
  <defs>
    <filter id="Trazado_982547" x="0" y="0" width="113" height="113" filterUnits="userSpaceOnUse">
      <feOffset dy="3" input="SourceAlpha"/>
      <feGaussianBlur stdDeviation="3" result="blur"/>
      <feFlood flood-opacity="0.161"/>
      <feComposite operator="in" in2="blur"/>
      <feComposite in="SourceGraphic"/>
    </filter>
  </defs>
  <g id="Grupo_1230290" data-name="Grupo 1230290" transform="translate(-586 -7764.241)">
    <g id="Grupo_1229015" data-name="Grupo 1229015" transform="translate(1 2131.042)">
      <g id="Grupo_1227503" data-name="Grupo 1227503" transform="translate(0 2048.198)">
        <g id="Grupo_1225351" data-name="Grupo 1225351" transform="translate(-1 -393.91)">
          <g id="Grupo_1208122" data-name="Grupo 1208122" transform="translate(0 -1922.377)">
            <g id="Grupo_1202433" data-name="Grupo 1202433" transform="translate(-0.56 1255.773)">
              <g id="Grupo_1202054" data-name="Grupo 1202054" transform="translate(0 3240.511)">
                <g id="Grupo_1177897" data-name="Grupo 1177897" transform="translate(595.561 1411.003)">
                  <g id="Grupo_1172010" data-name="Grupo 1172010" transform="translate(0)">
                    <g id="Grupo_1171046" data-name="Grupo 1171046">
                      <g id="Grupo_1148525" data-name="Grupo 1148525">
                        <g transform="matrix(1, 0, 0, 1, -9, -6)" filter="url(#Trazado_982547)">
                          <g id="Trazado_982547-2" data-name="Trazado 982547" transform="translate(9 6)" fill="#cefcf7">
                            <path d="M 47.5 93.5 C 41.28937149047852 93.5 35.26533508300781 92.28397369384766 29.59518623352051 89.88570404052734 C 24.11771965026855 87.56893157958984 19.19813346862793 84.25196075439453 14.97309303283691 80.02691650390625 C 10.74804019927979 75.80186462402344 7.431066513061523 70.88229370117188 5.114293098449707 65.40481567382812 C 2.716026782989502 59.73468017578125 1.5 53.71062850952148 1.5 47.5 C 1.5 41.28937149047852 2.716026782989502 35.26533508300781 5.114293098449707 29.59518623352051 C 7.431066513061523 24.11771965026855 10.74804019927979 19.19813346862793 14.97309303283691 14.97309303283691 C 19.19813346862793 10.74804019927979 24.11771965026855 7.431066513061523 29.59518623352051 5.114293098449707 C 35.26533508300781 2.716026782989502 41.28937149047852 1.5 47.5 1.5 C 53.71062850952148 1.5 59.73468017578125 2.716026782989502 65.40481567382812 5.114293098449707 C 70.88229370117188 7.431066513061523 75.80186462402344 10.74804019927979 80.02691650390625 14.97309303283691 C 84.25196075439453 19.19813346862793 87.56893157958984 24.11771965026855 89.88570404052734 29.59518623352051 C 92.28397369384766 35.26533508300781 93.5 41.28937149047852 93.5 47.5 C 93.5 53.71062850952148 92.28397369384766 59.73468017578125 89.88570404052734 65.40481567382812 C 87.56893157958984 70.88229370117188 84.25196075439453 75.80186462402344 80.02691650390625 80.02691650390625 C 75.80186462402344 84.25196075439453 70.88229370117188 87.56893157958984 65.40481567382812 89.88570404052734 C 59.73468017578125 92.28397369384766 53.71062850952148 93.5 47.5 93.5 Z" stroke="none"/>
                            <path d="M 47.5 3 C 41.49121475219727 3 35.66376876831055 4.176155090332031 30.17950439453125 6.495796203613281 C 24.88084411621094 8.736953735351562 20.12152099609375 11.94598388671875 16.03375244140625 16.03375244140625 C 11.94598388671875 20.12152099609375 8.736953735351562 24.88084411621094 6.495796203613281 30.17950439453125 C 4.176155090332031 35.66376876831055 3 41.49121475219727 3 47.5 C 3 53.50878524780273 4.176155090332031 59.33623123168945 6.495796203613281 64.82049560546875 C 8.736953735351562 70.11915588378906 11.94598388671875 74.87847900390625 16.03375244140625 78.96624755859375 C 20.12152099609375 83.05401611328125 24.88084411621094 86.26304626464844 30.17950439453125 88.50419616699219 C 35.66376876831055 90.82384490966797 41.49121475219727 92 47.5 92 C 53.50878524780273 92 59.33623123168945 90.82384490966797 64.82049560546875 88.50419616699219 C 70.11915588378906 86.26304626464844 74.87847900390625 83.05401611328125 78.96624755859375 78.96624755859375 C 83.05401611328125 74.87847900390625 86.26304626464844 70.11915588378906 88.50419616699219 64.82049560546875 C 90.82384490966797 59.33623123168945 92 53.50878524780273 92 47.5 C 92 41.49121475219727 90.82384490966797 35.66376876831055 88.50419616699219 30.17950439453125 C 86.26304626464844 24.88084411621094 83.05401611328125 20.12152099609375 78.96624755859375 16.03375244140625 C 74.87847900390625 11.94598388671875 70.11915588378906 8.736953735351562 64.82049560546875 6.495796203613281 C 59.33623123168945 4.176155090332031 53.50878524780273 3 47.5 3 M 47.5 0 C 73.7335205078125 0 95 21.2664794921875 95 47.5 C 95 73.7335205078125 73.7335205078125 95 47.5 95 C 21.2664794921875 95 0 73.7335205078125 0 47.5 C 0 21.2664794921875 21.2664794921875 0 47.5 0 Z" stroke="none" fill="#098576"/>
                          </g>
                        </g>
                      </g>
                    </g>
                  </g>
                </g>
              </g>
            </g>
          </g>
        </g>
      </g>
    </g>
    <g id="pregunta" transform="translate(609.549 7766.996)">
      <g id="Grupo_1230288" data-name="Grupo 1230288" transform="translate(0.953 15.956)">
        <g id="Grupo_1230282" data-name="Grupo 1230282" transform="translate(14.108 0)">
          <path id="Trazado_1218931" data-name="Trazado 1218931" d="M153.47,39.966A17.473,17.473,0,1,1,136,22.5,17.465,17.465,0,0,1,153.47,39.966Z" transform="translate(-118.539 -22.5)" fill="#ffe85f"/>
          <path id="Trazado_1218932" data-name="Trazado 1218932" d="M259.935,39.966A17.473,17.473,0,0,1,240.5,57.321a17.466,17.466,0,0,0,0-34.71,17.473,17.473,0,0,1,19.436,17.356Z" transform="translate(-225.003 -22.5)" fill="#ffcf48"/>
          <g id="Grupo_1230281" data-name="Grupo 1230281" transform="translate(10.451 5.396)">
            <path id="Trazado_1218933" data-name="Trazado 1218933" d="M214.652,71.466a6.937,6.937,0,0,0-13.86.439,1.906,1.906,0,0,0,3.812,0,3.126,3.126,0,0,1,3.328-3.119,3.159,3.159,0,0,1,2.916,2.916,3.108,3.108,0,0,1-2.068,3.148,4.414,4.414,0,0,0-2.957,4.124,1.906,1.906,0,1,0,3.812,0,.591.591,0,0,1,.426-.535A6.976,6.976,0,0,0,214.652,71.466Z" transform="translate(-200.792 -64.968)" fill="#616270"/>
            <circle id="Elipse_13596" data-name="Elipse 13596" cx="1.906" cy="1.906" r="1.906" transform="translate(5.031 19.656)" fill="#616270"/>
          </g>
        </g>
        <g id="Grupo_1230287" data-name="Grupo 1230287" transform="translate(0 22.529)">
          <g id="Grupo_1230286" data-name="Grupo 1230286">
            <path id="Trazado_1218934" data-name="Trazado 1218934" d="M35.8,416.97a26.488,26.488,0,0,1-28.3,0,5.865,5.865,0,0,1,5.861-5.866H29.935A5.864,5.864,0,0,1,35.8,416.97Z" transform="translate(-7.5 -384.259)" fill="#f35"/>
            <path id="Trazado_1218935" data-name="Trazado 1218935" d="M35.8,416.97a26.488,26.488,0,0,1-28.3,0,5.876,5.876,0,0,1,.053-.8,45.494,45.494,0,0,0,14.1,2.349,23.868,23.868,0,0,0,11.342-2.854c-.507-1.189-2.384-4.566-4.316-4.566h1.26A5.864,5.864,0,0,1,35.8,416.97Z" transform="translate(-7.5 -384.259)" fill="#e52870"/>
            <path id="Trazado_1218936" data-name="Trazado 1218936" d="M321.827,228.118h-24.3c1.31-2.466,1.805-20.017,1.805-20.017v-.06c0-5.419,4.095-7.8,8.945-8.17q.69-.053,1.4-.053c5.453,0,10.377,2.3,10.344,8.283C320.021,208.1,320.517,225.652,321.827,228.118Z" transform="translate(-260.68 -199.818)" fill="#ff8150"/>
            <path id="Trazado_1218937" data-name="Trazado 1218937" d="M395.687,228.118h-2.8c-1.31-2.466-1.805-20.017-1.805-20.017.03-5.462-4.077-7.857-8.946-8.229q.69-.053,1.4-.053c5.453,0,10.377,2.3,10.344,8.283C393.881,208.1,394.377,225.652,395.687,228.118Z" transform="translate(-334.54 -199.818)" fill="#f55"/>
            <g id="Grupo_1230283" data-name="Grupo 1230283" transform="translate(7.121 7.071)">
              <path id="Trazado_1218938" data-name="Trazado 1218938" d="M73.365,272.653a10.077,10.077,0,0,0,.027,2.594,2.82,2.82,0,0,1-2.819,2.823,2.784,2.784,0,0,1-1.016-.189,2.821,2.821,0,0,1-1.8-2.634,10.086,10.086,0,0,0,.027-2.6c-2.809-2.274-4.233-4.279-4.233-5.956,0-.178.006-.357.022-.527.072-.738.089-3.18.05-5.362l6.956-5.334,4.9,3.758,2.053,1.574c-.039,2.181-.023,4.621.05,5.359.015.174.022.353.022.531C77.6,268.373,76.174,270.376,73.365,272.653Z" transform="translate(-63.545 -255.473)" fill="#ffdcc5"/>
              <path id="Trazado_1218939" data-name="Trazado 1218939" d="M114.664,298.475a10.077,10.077,0,0,0,.027,2.594,2.82,2.82,0,0,1-2.819,2.823,2.785,2.785,0,0,1-1.016-.189,2.821,2.821,0,0,0,1.8-2.634,16.84,16.84,0,0,1-.027-3.357c2.809-2.277,4-4.023,4.233-5.2a1.9,1.9,0,0,0-.022-.531c-.048-.493-.071-4-.07-6.933l2.053,1.574c-.039,2.182-.023,4.621.05,5.359.015.174.022.353.022.531C118.9,294.195,117.473,296.2,114.664,298.475Z" transform="translate(-104.844 -281.295)" fill="#ffc6bb"/>
            </g>
            <path id="Trazado_1218940" data-name="Trazado 1218940" d="M63.059,208.576a3.678,3.678,0,0,1-7.111,1.324,3.978,3.978,0,0,1-4.786,0,3.679,3.679,0,1,1-5.288-4.5,2.549,2.549,0,0,1,2.945-4.108,2.736,2.736,0,0,1,4.728-.217h.017l0,0a2.739,2.739,0,0,1,4.944.772,2.151,2.151,0,0,1,2.453,3.409A3.683,3.683,0,0,1,63.059,208.576Z" transform="translate(-39.406 -199.818)" fill="#9e5c47"/>
            <path id="Trazado_1218941" data-name="Trazado 1218941" d="M128.416,208.576a3.679,3.679,0,0,1-3.187,3.648,3.683,3.683,0,0,0-1.211-5.717,2.151,2.151,0,0,0-2.455-3.409,2.74,2.74,0,0,0-2.644-2.024l0,0a2.739,2.739,0,0,1,4.944.772,2.151,2.151,0,0,1,2.453,3.409,3.683,3.683,0,0,1,2.1,3.325Z" transform="translate(-104.764 -199.818)" fill="#893636"/>
            <g id="Grupo_1230284" data-name="Grupo 1230284" transform="translate(34.85 26.846)">
              <path id="Trazado_1218942" data-name="Trazado 1218942" d="M310.086,416.979a26.488,26.488,0,0,1-28.3,0,5.865,5.865,0,0,1,5.861-5.866h16.574A5.864,5.864,0,0,1,310.086,416.979Z" transform="translate(-281.79 -411.113)" fill="#33cfff"/>
              <path id="Trazado_1218943" data-name="Trazado 1218943" d="M310.086,416.979a26.488,26.488,0,0,1-28.3,0,5.879,5.879,0,0,1,.053-.8,45.494,45.494,0,0,0,14.1,2.349,23.868,23.868,0,0,0,11.342-2.854c-.507-1.189-2.384-4.566-4.316-4.566h1.26A5.864,5.864,0,0,1,310.086,416.979Z" transform="translate(-281.79 -411.113)" fill="#33a8ff"/>
            </g>
            <g id="Grupo_1230285" data-name="Grupo 1230285" transform="translate(41.971 9.55)">
              <path id="Trazado_1218944" data-name="Trazado 1218944" d="M347.662,289.686a10.077,10.077,0,0,0,.027,2.594,2.82,2.82,0,0,1-2.821,2.823,2.771,2.771,0,0,1-1.014-.189h0a2.82,2.82,0,0,1-1.8-2.634,10.084,10.084,0,0,0,.027-2.6c-2.809-2.274-4.233-4.279-4.233-5.956,0-.178.006-.357.022-.527.072-.738.089-3.18.05-5.362h6.766a2.852,2.852,0,0,0,2.85-2.854,2.852,2.852,0,0,0,2.244,2.788,2.814,2.814,0,0,0,.607.066h1.445c-.039,2.182-.023,4.621.05,5.359.015.174.022.353.022.531,0,1.677-1.424,3.681-4.233,5.958Z" transform="translate(-337.842 -274.986)" fill="#ffdcc5"/>
              <path id="Trazado_1218945" data-name="Trazado 1218945" d="M388.97,308.839a10.076,10.076,0,0,0,.027,2.594,2.82,2.82,0,0,1-2.821,2.823,2.771,2.771,0,0,1-1.014-.189,2.823,2.823,0,0,0,1.8-2.634,16.838,16.838,0,0,1-.027-3.357c2.809-2.277,4.233-4.238,4.233-5.2,0-.178-.006-.357-.022-.531-.041-.41-.062-2.908-.069-5.424a2.814,2.814,0,0,0,.607.066h1.445c-.039,2.182-.023,4.621.05,5.359.015.174.022.353.022.531,0,1.677-1.424,3.681-4.233,5.958Z" transform="translate(-379.15 -294.138)" fill="#ffc6bb"/>
            </g>
          </g>
        </g>
      </g>
      <g id="Grupo_1230289" data-name="Grupo 1230289" transform="translate(0 15.004)">
        <path id="Trazado_1218946" data-name="Trazado 1218946" d="M23.389,219.16h-4.6A9.12,9.12,0,0,1,18.8,218c2.877-2.395,4.277-4.505,4.277-6.444,0-.21-.009-.416-.026-.625-.06-.615-.082-2.689-.052-4.769a4.634,4.634,0,0,0,.8-7.777,3.106,3.106,0,0,0-2.894-4.226q-.145,0-.287.013a3.694,3.694,0,0,0-5.516-1.052,3.692,3.692,0,0,0-5.1.464,3.5,3.5,0,0,0-3.911,5.074,4.632,4.632,0,0,0,1.109,7.5c.029,2.081.008,4.157-.053,4.782-.017.192-.025.4-.025.611,0,1.939,1.4,4.049,4.277,6.443a9.132,9.132,0,0,1,.017,1.157h-4.6A6.824,6.824,0,0,0,0,225.979a.953.953,0,0,0,.443.8,27.383,27.383,0,0,0,4.812,2.421.953.953,0,0,0,.684-1.779,25.472,25.472,0,0,1-4.006-1.962,4.917,4.917,0,0,1,4.881-4.4h4.635a3.774,3.774,0,0,0,7.3,0h4.636a4.917,4.917,0,0,1,4.881,4.4A25.444,25.444,0,0,1,15.1,229.12a25.709,25.709,0,0,1-5.186-.527.953.953,0,1,0-.385,1.866,27.624,27.624,0,0,0,5.572.566,27.342,27.342,0,0,0,14.658-4.242.953.953,0,0,0,.443-.8A6.824,6.824,0,0,0,23.389,219.16ZM7.9,199.669a.953.953,0,0,0,.172-1.516,1.6,1.6,0,0,1,1.842-2.573.953.953,0,0,0,1.294-.4,1.784,1.784,0,0,1,3.083-.142.953.953,0,0,0,.8.436h.016a.953.953,0,0,0,.8-.436,1.786,1.786,0,0,1,3.226.5.953.953,0,0,0,1.3.626,1.185,1.185,0,0,1,.472-.1,1.2,1.2,0,0,1,.893,2,.953.953,0,0,0,.3,1.494,2.728,2.728,0,1,1-3.715,3.445.953.953,0,0,0-1.464-.418,3.023,3.023,0,0,1-3.639,0,.953.953,0,0,0-1.464.418A2.726,2.726,0,1,1,7.9,199.669Zm7.2,22.314a1.869,1.869,0,0,1-1.867-1.812,11.007,11.007,0,0,0,.019-2.768.953.953,0,0,0-.346-.628c-3.207-2.6-3.88-4.27-3.88-5.216,0-.158.006-.307.017-.434.07-.717.086-2.669.068-4.47l.163,0a4.664,4.664,0,0,0,3.8-1.99,4.951,4.951,0,0,0,4.051,0,4.664,4.664,0,0,0,3.8,1.99l.163,0c-.018,1.8,0,3.749.067,4.454.012.143.018.294.018.451,0,.946-.673,2.619-3.88,5.217a.954.954,0,0,0-.346.628,11,11,0,0,0,.02,2.767,1.871,1.871,0,0,1-1.867,1.812Z" transform="translate(0 -169.787)"/>
        <path id="Trazado_1218947" data-name="Trazado 1218947" d="M302.321,220.992c-.757-1.837-1.4-11.27-1.634-19.454a8.359,8.359,0,0,0-2.346-6.171c-1.958-1.968-5.136-3.052-8.95-3.052s-6.992,1.084-8.95,3.052a8.358,8.358,0,0,0-2.346,6.172c-.231,8.184-.878,17.617-1.634,19.454a6.8,6.8,0,0,0-2.171,4.987.953.953,0,0,0,.443.8,27.341,27.341,0,0,0,14.658,4.242,27.626,27.626,0,0,0,5.572-.566.953.953,0,0,0-.385-1.866,25.711,25.711,0,0,1-5.186.527,25.444,25.444,0,0,1-13.168-3.655,4.917,4.917,0,0,1,4.881-4.4h4.635a3.774,3.774,0,0,0,7.3,0h4.636a4.917,4.917,0,0,1,4.881,4.4,25.474,25.474,0,0,1-4.006,1.962.953.953,0,1,0,.684,1.779,27.39,27.39,0,0,0,4.812-2.421.953.953,0,0,0,.443-.8,6.8,6.8,0,0,0-2.171-4.987Zm-12.93.991a1.869,1.869,0,0,1-1.867-1.812,11.006,11.006,0,0,0,.019-2.768.953.953,0,0,0-.346-.628c-3.207-2.6-3.88-4.27-3.88-5.216,0-.157.006-.306.017-.434.071-.721.086-2.692.067-4.5h5.8a3.794,3.794,0,0,0,2.851-1.289,3.794,3.794,0,0,0,2.851,1.289h.479c-.019,1.809,0,3.776.066,4.486.012.142.018.294.018.45,0,.946-.673,2.619-3.881,5.217a.953.953,0,0,0-.346.628,11.016,11.016,0,0,0,.019,2.767A1.871,1.871,0,0,1,289.391,221.983Zm3.686-2.823a9.114,9.114,0,0,1,.017-1.156c2.877-2.395,4.277-4.505,4.277-6.444,0-.211-.009-.417-.026-.624-.065-.663-.085-3.017-.045-5.248h0c0-.006,0-.011,0-.017a.953.953,0,0,0-.953-.953H294.9a1.9,1.9,0,0,1-1.9-1.9.953.953,0,0,0-1.906,0,1.9,1.9,0,0,1-1.9,1.9h-6.765a.953.953,0,0,0-.953.953c0,.006,0,.012,0,.017h0c.04,2.232.02,4.588-.046,5.261-.017.193-.025.4-.025.611,0,1.939,1.4,4.049,4.277,6.443a9.132,9.132,0,0,1,.017,1.157h-4.6a6.777,6.777,0,0,0-2.374.427c.863-5.09,1.2-15.576,1.271-18.01q0-.016,0-.032a6.527,6.527,0,0,1,1.792-4.834c1.6-1.606,4.3-2.491,7.6-2.491s6,.884,7.6,2.491a6.528,6.528,0,0,1,1.792,4.834q0,.016,0,.032c0,.044.128,4.457.413,9.115.279,4.553.573,7.25.847,8.891a6.775,6.775,0,0,0-2.363-.423h-4.6Z" transform="translate(-239.44 -169.786)"/>
        <path id="Trazado_1218948" data-name="Trazado 1218948" d="M209.055,64.859a7.89,7.89,0,0,0-15.764.5,2.859,2.859,0,1,0,5.717,0,2.173,2.173,0,0,1,2.316-2.168,2.192,2.192,0,0,1,2.024,2.024,2.163,2.163,0,0,1-1.437,2.191,5.369,5.369,0,0,0-3.589,5.022,2.859,2.859,0,0,0,5.7.292,7.936,7.936,0,0,0,5.03-7.859Zm-5.862,6.135a1.531,1.531,0,0,0-1.059,1.432.953.953,0,0,1-1.906,0,3.459,3.459,0,0,1,2.324-3.227,4.053,4.053,0,0,0,2.7-4.1,4.125,4.125,0,0,0-3.809-3.808q-.132-.008-.262-.008a4.078,4.078,0,0,0-4.078,4.078.953.953,0,0,1-1.906,0A6.008,6.008,0,0,1,197.083,61a5.984,5.984,0,0,1,10.07,3.981,6.019,6.019,0,0,1-3.96,6.017Z" transform="translate(-168.733 -52.071)"/>
        <path id="Trazado_1218949" data-name="Trazado 1218949" d="M219.415,285.4a.953.953,0,0,0-1.117-.754,16.647,16.647,0,0,1-7.887-.382.953.953,0,0,0-.544,1.827,18.556,18.556,0,0,0,8.794.427A.953.953,0,0,0,219.415,285.4Z" transform="translate(-182.608 -250.023)"/>
        <path id="Trazado_1218950" data-name="Trazado 1218950" d="M156.307,21.351a16.513,16.513,0,0,1,27.78,12.072c0,.41-.015.825-.045,1.234a.953.953,0,0,0,.88,1.02l.071,0a.953.953,0,0,0,.949-.883c.034-.455.051-.917.051-1.374a18.419,18.419,0,0,0-30.986-13.465.953.953,0,0,0,1.3,1.393Z" transform="translate(-135.048 -15.004)"/>
        <path id="Trazado_1218951" data-name="Trazado 1218951" d="M112.083,89.132a.964.964,0,0,0,.1-.005.953.953,0,0,0,.848-1.047,16.765,16.765,0,0,1-.092-1.751,16.429,16.429,0,0,1,2.819-9.232.953.953,0,1,0-1.579-1.067,18.328,18.328,0,0,0-3.146,10.3,18.74,18.74,0,0,0,.1,1.95A.953.953,0,0,0,112.083,89.132Z" transform="translate(-96.927 -67.91)"/>
        <path id="Trazado_1218952" data-name="Trazado 1218952" d="M235.745,212.171a2.859,2.859,0,1,0,2.859,2.859A2.862,2.862,0,0,0,235.745,212.171Zm0,3.812a.953.953,0,1,1,.953-.953A.954.954,0,0,1,235.745,215.983Z" transform="translate(-203.297 -187.12)"/>
      </g>
    </g>
  </g>
</svg>
