<svg xmlns="http://www.w3.org/2000/svg" xmlns:xlink="http://www.w3.org/1999/xlink" width="113" height="113" viewBox="0 0 113 113">
  <defs>
    <filter id="Trazado_982547" x="0" y="0" width="113" height="113" filterUnits="userSpaceOnUse">
      <feOffset dy="3" input="SourceAlpha"/>
      <feGaussianBlur stdDeviation="3" result="blur"/>
      <feFlood flood-opacity="0.161"/>
      <feComposite operator="in" in2="blur"/>
      <feComposite in="SourceGraphic"/>
    </filter>
  </defs>
  <g id="Grupo_1230297" data-name="Grupo 1230297" transform="translate(-901 -7764.51)">
    <g id="Grupo_1229016" data-name="Grupo 1229016" transform="translate(0.575 2131.042)">
      <g id="Grupo_1227504" data-name="Grupo 1227504" transform="translate(0 2048.198)">
        <g id="Grupo_1225352" data-name="Grupo 1225352" transform="translate(-0.575 -393.641)">
          <g id="Grupo_1208123" data-name="Grupo 1208123" transform="translate(0 -1922.377)">
            <g id="Grupo_1202434" data-name="Grupo 1202434" transform="translate(-0.56 1255.773)">
              <g id="Grupo_1202053" data-name="Grupo 1202053" transform="translate(0 3240.511)">
                <g id="Grupo_1177898" data-name="Grupo 1177898" transform="translate(910.561 1411.003)">
                  <g id="Grupo_1172010" data-name="Grupo 1172010" transform="translate(0)">
                    <g id="Grupo_1171046" data-name="Grupo 1171046">
                      <g id="Grupo_1148525" data-name="Grupo 1148525">
                        <g transform="matrix(1, 0, 0, 1, -9, -6)" filter="url(#Trazado_982547)">
                          <g id="Trazado_982547-2" data-name="Trazado 982547" transform="translate(9 6)" fill="#cefcf7">
                            <path d="M 47.5 93.5 C 41.28937149047852 93.5 35.26533508300781 92.28397369384766 29.59518623352051 89.88570404052734 C 24.11771965026855 87.56893157958984 19.19813346862793 84.25196075439453 14.97309303283691 80.02691650390625 C 10.74804019927979 75.80186462402344 7.431066513061523 70.88229370117188 5.114293098449707 65.40481567382812 C 2.716026782989502 59.73468017578125 1.5 53.71062850952148 1.5 47.5 C 1.5 41.28937149047852 2.716026782989502 35.26533508300781 5.114293098449707 29.59518623352051 C 7.431066513061523 24.11771965026855 10.74804019927979 19.19813346862793 14.97309303283691 14.97309303283691 C 19.19813346862793 10.74804019927979 24.11771965026855 7.431066513061523 29.59518623352051 5.114293098449707 C 35.26533508300781 2.716026782989502 41.28937149047852 1.5 47.5 1.5 C 53.71062850952148 1.5 59.73468017578125 2.716026782989502 65.40481567382812 5.114293098449707 C 70.88229370117188 7.431066513061523 75.80186462402344 10.74804019927979 80.02691650390625 14.97309303283691 C 84.25196075439453 19.19813346862793 87.56893157958984 24.11771965026855 89.88570404052734 29.59518623352051 C 92.28397369384766 35.26533508300781 93.5 41.28937149047852 93.5 47.5 C 93.5 53.71062850952148 92.28397369384766 59.73468017578125 89.88570404052734 65.40481567382812 C 87.56893157958984 70.88229370117188 84.25196075439453 75.80186462402344 80.02691650390625 80.02691650390625 C 75.80186462402344 84.25196075439453 70.88229370117188 87.56893157958984 65.40481567382812 89.88570404052734 C 59.73468017578125 92.28397369384766 53.71062850952148 93.5 47.5 93.5 Z" stroke="none"/>
                            <path d="M 47.5 3 C 41.49121475219727 3 35.66376876831055 4.176155090332031 30.17950439453125 6.495796203613281 C 24.88084411621094 8.736953735351562 20.12152099609375 11.94598388671875 16.03375244140625 16.03375244140625 C 11.94598388671875 20.12152099609375 8.736953735351562 24.88084411621094 6.495796203613281 30.17950439453125 C 4.176155090332031 35.66376876831055 3 41.49121475219727 3 47.5 C 3 53.50878524780273 4.176155090332031 59.33623123168945 6.495796203613281 64.82049560546875 C 8.736953735351562 70.11915588378906 11.94598388671875 74.87847900390625 16.03375244140625 78.96624755859375 C 20.12152099609375 83.05401611328125 24.88084411621094 86.26304626464844 30.17950439453125 88.50419616699219 C 35.66376876831055 90.82384490966797 41.49121475219727 92 47.5 92 C 53.50878524780273 92 59.33623123168945 90.82384490966797 64.82049560546875 88.50419616699219 C 70.11915588378906 86.26304626464844 74.87847900390625 83.05401611328125 78.96624755859375 78.96624755859375 C 83.05401611328125 74.87847900390625 86.26304626464844 70.11915588378906 88.50419616699219 64.82049560546875 C 90.82384490966797 59.33623123168945 92 53.50878524780273 92 47.5 C 92 41.49121475219727 90.82384490966797 35.66376876831055 88.50419616699219 30.17950439453125 C 86.26304626464844 24.88084411621094 83.05401611328125 20.12152099609375 78.96624755859375 16.03375244140625 C 74.87847900390625 11.94598388671875 70.11915588378906 8.736953735351562 64.82049560546875 6.495796203613281 C 59.33623123168945 4.176155090332031 53.50878524780273 3 47.5 3 M 47.5 0 C 73.7335205078125 0 95 21.2664794921875 95 47.5 C 95 73.7335205078125 73.7335205078125 95 47.5 95 C 21.2664794921875 95 0 73.7335205078125 0 47.5 C 0 21.2664794921875 21.2664794921875 0 47.5 0 Z" stroke="none" fill="#098576"/>
                          </g>
                        </g>
                      </g>
                    </g>
                  </g>
                </g>
              </g>
            </g>
          </g>
        </g>
      </g>
    </g>
    <g id="prueba_1_" data-name="prueba (1)" transform="translate(924.445 7761.938)">
      <g id="Grupo_1230295" data-name="Grupo 1230295" transform="translate(0.983 34.678)">
        <path id="Trazado_1218953" data-name="Trazado 1218953" d="M40.141,235.713v24.431H10.677A3.177,3.177,0,0,1,7.5,256.967V238.89a3.177,3.177,0,0,1,3.177-3.177Z" transform="translate(-7.5 -219.456)" fill="#bbec6c"/>
        <path id="Trazado_1218954" data-name="Trazado 1218954" d="M289.032,238.891v18.076a3.177,3.177,0,0,1-3.177,3.177H256.53V235.714h29.325A3.177,3.177,0,0,1,289.032,238.891Z" transform="translate(-223.889 -219.456)" fill="#fe76a8"/>
        <path id="Trazado_1218955" data-name="Trazado 1218955" d="M454.121,235.713h-3.943a3.177,3.177,0,0,1,3.177,3.177v18.076a3.177,3.177,0,0,1-3.177,3.177h3.943a3.177,3.177,0,0,0,3.177-3.177V238.89A3.177,3.177,0,0,0,454.121,235.713Z" transform="translate(-392.155 -219.456)" fill="#fe5694"/>
        <g id="Grupo_1230291" data-name="Grupo 1230291" transform="translate(17.708 0)">
          <path id="Trazado_1218956" data-name="Trazado 1218956" d="M172.327,126.544a14.864,14.864,0,1,0-26.045,9.791,18.031,18.031,0,0,1,4.611,11.86v.044h13.141v-.045a17.25,17.25,0,0,1,4.417-11.641,14.8,14.8,0,0,0,3.877-10.008Z" transform="translate(-142.6 -111.68)" fill="#fee97d"/>
          <path id="Trazado_1218957" data-name="Trazado 1218957" d="M243.189,111.681a14.689,14.689,0,0,0-2.122.131,14.862,14.862,0,0,1,9,24.74,17.25,17.25,0,0,0-4.417,11.641v.045h3.943v-.045a17.25,17.25,0,0,1,4.417-11.641,14.862,14.862,0,0,0-10.822-24.871Z" transform="translate(-228.161 -111.68)" fill="#fee45a"/>
          <path id="Trazado_1218958" data-name="Trazado 1218958" d="M212.443,402.5a6.57,6.57,0,0,0,6.57-6.57V390.6H205.873v5.337A6.57,6.57,0,0,0,212.443,402.5Z" transform="translate(-197.58 -354.037)" fill="#7ca1b1"/>
          <path id="Trazado_1218959" data-name="Trazado 1218959" d="M245.558,390.6v5.337a6.573,6.573,0,0,1-4.6,6.269,6.574,6.574,0,0,0,8.542-6.269V390.6Z" transform="translate(-228.067 -354.037)" fill="#678d98"/>
        </g>
        <g id="Grupo_1230293" data-name="Grupo 1230293" transform="translate(23.965 9.129)">
          <path id="Trazado_1218960" data-name="Trazado 1218960" d="M198.11,192.408h-6.94a.833.833,0,0,1-.833-.833v-9.413a.833.833,0,0,1,.833-.833h5.168a2.606,2.606,0,0,1,2.606,2.606v7.641A.833.833,0,0,1,198.11,192.408Z" transform="translate(-190.337 -181.328)" fill="#fff5c6"/>
          <g id="Grupo_1230292" data-name="Grupo 1230292" transform="translate(8.607)">
            <path id="Trazado_1218961" data-name="Trazado 1218961" d="M263.774,192.407h-6.94a.833.833,0,0,1-.833-.833v-7.641a2.606,2.606,0,0,1,2.606-2.606h5.168a.833.833,0,0,1,.833.833v9.413A.833.833,0,0,1,263.774,192.407Z" transform="translate(-256.001 -181.327)" fill="#fff9e2"/>
            <path id="Trazado_1218962" data-name="Trazado 1218962" d="M263.774,192.407h-6.94a.833.833,0,0,1-.833-.833v-7.641a2.606,2.606,0,0,1,2.606-2.606h5.168a.833.833,0,0,1,.833.833v9.413A.833.833,0,0,1,263.774,192.407Z" transform="translate(-256.001 -181.327)" fill="#fff9e2"/>
            <path id="Trazado_1218963" data-name="Trazado 1218963" d="M263.774,192.407h-6.94a.833.833,0,0,1-.833-.833v-7.641a2.606,2.606,0,0,1,2.606-2.606h5.168a.833.833,0,0,1,.833.833v9.413A.833.833,0,0,1,263.774,192.407Z" transform="translate(-256.001 -181.327)" fill="#fff9e2"/>
          </g>
        </g>
        <g id="Grupo_1230294" data-name="Grupo 1230294" transform="translate(4.638 24.121)">
          <path id="Trazado_1218964" data-name="Trazado 1218964" d="M47.5,304.936a1.77,1.77,0,0,1-1.251-.518L43.4,301.57a1.77,1.77,0,1,1,2.5-2.5l1.6,1.6,4.443-4.443a1.77,1.77,0,1,1,2.5,2.5l-5.694,5.694A1.769,1.769,0,0,1,47.5,304.936Z" transform="translate(-42.885 -295.703)" fill="#7ca1b1"/>
        </g>
        <path id="Trazado_1218965" data-name="Trazado 1218965" d="M384.542,297.184l2.069-2.069a1.77,1.77,0,1,0-2.5-2.5l-2.069,2.069-2.069-2.069a1.77,1.77,0,0,0-2.5,2.5l2.069,2.069-2.069,2.069a1.769,1.769,0,1,0,2.5,2.5l2.069-2.069,2.069,2.069a1.77,1.77,0,1,0,2.5-2.5Z" transform="translate(-328.525 -268.447)" fill="#eef5f6"/>
      </g>
      <g id="Grupo_1230296" data-name="Grupo 1230296" transform="translate(0 23.062)">
        <path id="Trazado_1218966" data-name="Trazado 1218966" d="M195.032,173.828a3.579,3.579,0,0,0-2.606,1.125,3.578,3.578,0,0,0-2.606-1.125h-5.168a1.818,1.818,0,0,0-1.816,1.816v9.413a1.818,1.818,0,0,0,1.816,1.816h6.94a1.8,1.8,0,0,1,1.667,0h6.94a1.818,1.818,0,0,0,1.816-1.816v-9.413a1.818,1.818,0,0,0-1.816-1.816Zm-10.23,1.966h5.018a1.625,1.625,0,0,1,1.623,1.623v7.491H184.8Zm15.248,9.114h-6.641v-7.491a1.625,1.625,0,0,1,1.623-1.623h5.018Z" transform="translate(-158.871 -154.067)"/>
        <path id="Trazado_1218967" data-name="Trazado 1218967" d="M50.478,151.747l2.463,1.08a.983.983,0,0,0,.79-1.8l-2.463-1.08a.983.983,0,0,0-.79,1.8Z" transform="translate(-43.35 -133.243)"/>
        <path id="Trazado_1218968" data-name="Trazado 1218968" d="M91.236,93.623a.983.983,0,0,0,1.332-1.447l-1.978-1.821A.983.983,0,1,0,89.257,91.8Z" transform="translate(-77.282 -81.309)"/>
        <path id="Trazado_1218969" data-name="Trazado 1218969" d="M146.675,50.061a.983.983,0,1,0,1.729-.936l-1.28-2.365a.983.983,0,0,0-1.729.936Z" transform="translate(-126.235 -43.206)"/>
        <path id="Trazado_1218970" data-name="Trazado 1218970" d="M213.259,26.86a.983.983,0,0,0,.968.821.984.984,0,0,0,.971-1.145l-.443-2.652a.983.983,0,1,0-1.939.324Z" transform="translate(-184.91 -23.062)"/>
        <path id="Trazado_1218971" data-name="Trazado 1218971" d="M281.641,27.668a.982.982,0,0,0,1.131-.808l.443-2.652a.983.983,0,1,0-1.939-.324l-.443,2.652A.983.983,0,0,0,281.641,27.668Z" transform="translate(-244.011 -23.062)"/>
        <path id="Trazado_1218972" data-name="Trazado 1218972" d="M342.471,50.456a.983.983,0,0,0,1.332-.4l1.28-2.365a.983.983,0,0,0-1.729-.936l-1.28,2.365A.983.983,0,0,0,342.471,50.456Z" transform="translate(-297.135 -43.204)"/>
        <path id="Trazado_1218973" data-name="Trazado 1218973" d="M393.95,93.883a.979.979,0,0,0,.665-.26l1.978-1.821a.983.983,0,0,0-1.332-1.446l-1.978,1.821a.983.983,0,0,0,.666,1.706Z" transform="translate(-341.459 -81.31)"/>
        <path id="Trazado_1218974" data-name="Trazado 1218974" d="M429.3,152.911a.98.98,0,0,0,.394-.083l2.462-1.08a.983.983,0,1,0-.79-1.8l-2.462,1.08a.983.983,0,0,0,.4,1.884Z" transform="translate(-372.177 -133.244)"/>
        <path id="Trazado_1218975" data-name="Trazado 1218975" d="M62.95,120.432H49.4a16.182,16.182,0,0,0-1.786-7.737.983.983,0,0,0-1.743.91,14.032,14.032,0,0,1,1.508,7.719,13.832,13.832,0,0,1-3.559,8.043,18.1,18.1,0,0,0-4.65,11.366H36.454l1.892-8.786a.983.983,0,0,0-1.922-.414l-1.981,9.2H32.668l-1.981-9.2a.983.983,0,0,0-1.922.414l1.892,8.786H27.943a19.166,19.166,0,0,0-4.83-11.569,13.835,13.835,0,0,1-3.43-9.634,13.98,13.98,0,0,1,14.027-13.388,13.807,13.807,0,0,1,9.6,4.009.983.983,0,1,0,1.382-1.4,15.764,15.764,0,0,0-10.966-4.577,15.951,15.951,0,0,0-16.016,16.257H4.16A4.165,4.165,0,0,0,0,124.592v18.076a4.165,4.165,0,0,0,4.16,4.16h18.2a.983.983,0,0,0,0-1.966H4.16a2.2,2.2,0,0,1-2.194-2.194V124.592A2.2,2.2,0,0,1,4.16,122.4H17.887a15.772,15.772,0,0,0,3.748,8.062A17.206,17.206,0,0,1,26,141.716v5.337a7.555,7.555,0,1,0,15.107-.224H62.95a4.165,4.165,0,0,0,4.16-4.16V124.592A4.165,4.165,0,0,0,62.95,120.432ZM27.968,147.053v-.234H39.142a6.171,6.171,0,0,1-.357,2.2H28.324a5.56,5.56,0,0,1-.357-1.963ZM39.142,142.7v2.153H27.968V142.7Zm-5.587,9.941a5.57,5.57,0,0,1-3.968-1.658h7.936A5.57,5.57,0,0,1,33.555,152.64Zm31.589-9.971a2.2,2.2,0,0,1-2.194,2.194H41.108v-3.147a16.339,16.339,0,0,1,4.16-11.024,15.8,15.8,0,0,0,3.954-8.294H62.95a2.2,2.2,0,0,1,2.194,2.194Z" transform="translate(0 -93.542)"/>
        <path id="Trazado_1218976" data-name="Trazado 1218976" d="M44.733,289.018l-3.747,3.748-.9-.9a2.753,2.753,0,0,0-3.893,3.893l2.847,2.847a2.753,2.753,0,0,0,3.893,0l5.694-5.694a2.753,2.753,0,0,0-3.893-3.893Zm2.5,1.39a.786.786,0,0,1,0,1.112l-5.694,5.694a.781.781,0,0,1-.556.23.792.792,0,0,1-.556-.23l-2.847-2.847a.787.787,0,1,1,1.112-1.112l1.6,1.6a.983.983,0,0,0,1.39,0l4.443-4.443A.787.787,0,0,1,47.235,290.409Z" transform="translate(-30.748 -253.459)"/>
        <path id="Trazado_1218977" data-name="Trazado 1218977" d="M381.6,287.347a2.753,2.753,0,0,0-4.7-1.946l-1.374,1.374-1.374-1.374a2.753,2.753,0,0,0-3.893,3.893l1.374,1.374-1.374,1.374a2.753,2.753,0,0,0,3.893,3.893l1.374-1.374,1.374,1.374a2.753,2.753,0,0,0,3.893-3.893l-1.374-1.374,1.374-1.374A2.734,2.734,0,0,0,381.6,287.347Zm-2.2.556-2.069,2.069a.983.983,0,0,0,0,1.39l2.069,2.069a.786.786,0,1,1-1.112,1.112l-2.069-2.069a.983.983,0,0,0-1.39,0l-2.069,2.069a.786.786,0,1,1-1.112-1.112l2.069-2.069a.983.983,0,0,0,0-1.39l-2.069-2.069a.786.786,0,0,1,1.112-1.112l2.069,2.069a.983.983,0,0,0,1.39,0l2.069-2.069A.786.786,0,1,1,379.4,287.9Z" transform="translate(-321.025 -250.314)"/>
      </g>
    </g>
  </g>
</svg>
