<svg xmlns="http://www.w3.org/2000/svg" xmlns:xlink="http://www.w3.org/1999/xlink" width="113" height="113" viewBox="0 0 113 113">
  <defs>
    <filter id="Trazado_982547" x="0" y="0" width="113" height="113" filterUnits="userSpaceOnUse">
      <feOffset dy="3" input="SourceAlpha"/>
      <feGaussianBlur stdDeviation="3" result="blur"/>
      <feFlood flood-opacity="0.161"/>
      <feComposite operator="in" in2="blur"/>
      <feComposite in="SourceGraphic"/>
    </filter>
  </defs>
  <g id="Grupo_1230302" data-name="Grupo 1230302" transform="translate(-1216 -7764.223)">
    <g id="Grupo_1229017" data-name="Grupo 1229017" transform="translate(0 2131.042)">
      <g id="Grupo_1227505" data-name="Grupo 1227505" transform="translate(0.575 2048.198)">
        <g id="Grupo_1225353" data-name="Grupo 1225353" transform="translate(-0.575 -393.641)">
          <g id="Grupo_1208124" data-name="Grupo 1208124" transform="translate(0 -1922.377)">
            <g id="Grupo_1202435" data-name="Grupo 1202435" transform="translate(-0.56 1255.486)">
              <g id="Grupo_1202052" data-name="Grupo 1202052" transform="translate(1225.561 4651.514)">
                <g id="Grupo_1172010" data-name="Grupo 1172010" transform="translate(0)">
                  <g id="Grupo_1171046" data-name="Grupo 1171046">
                    <g id="Grupo_1148525" data-name="Grupo 1148525">
                      <g transform="matrix(1, 0, 0, 1, -9, -6)" filter="url(#Trazado_982547)">
                        <g id="Trazado_982547-2" data-name="Trazado 982547" transform="translate(9 6)" fill="#cefcf7">
                          <path d="M 47.5 93.5 C 41.28937149047852 93.5 35.26533508300781 92.28397369384766 29.59518623352051 89.88570404052734 C 24.11771965026855 87.56893157958984 19.19813346862793 84.25196075439453 14.97309303283691 80.02691650390625 C 10.74804019927979 75.80186462402344 7.431066513061523 70.88229370117188 5.114293098449707 65.40481567382812 C 2.716026782989502 59.73468017578125 1.5 53.71062850952148 1.5 47.5 C 1.5 41.28937149047852 2.716026782989502 35.26533508300781 5.114293098449707 29.59518623352051 C 7.431066513061523 24.11771965026855 10.74804019927979 19.19813346862793 14.97309303283691 14.97309303283691 C 19.19813346862793 10.74804019927979 24.11771965026855 7.431066513061523 29.59518623352051 5.114293098449707 C 35.26533508300781 2.716026782989502 41.28937149047852 1.5 47.5 1.5 C 53.71062850952148 1.5 59.73468017578125 2.716026782989502 65.40481567382812 5.114293098449707 C 70.88229370117188 7.431066513061523 75.80186462402344 10.74804019927979 80.02691650390625 14.97309303283691 C 84.25196075439453 19.19813346862793 87.56893157958984 24.11771965026855 89.88570404052734 29.59518623352051 C 92.28397369384766 35.26533508300781 93.5 41.28937149047852 93.5 47.5 C 93.5 53.71062850952148 92.28397369384766 59.73468017578125 89.88570404052734 65.40481567382812 C 87.56893157958984 70.88229370117188 84.25196075439453 75.80186462402344 80.02691650390625 80.02691650390625 C 75.80186462402344 84.25196075439453 70.88229370117188 87.56893157958984 65.40481567382812 89.88570404052734 C 59.73468017578125 92.28397369384766 53.71062850952148 93.5 47.5 93.5 Z" stroke="none"/>
                          <path d="M 47.5 3 C 41.49121475219727 3 35.66376876831055 4.176155090332031 30.17950439453125 6.495796203613281 C 24.88084411621094 8.736953735351562 20.12152099609375 11.94598388671875 16.03375244140625 16.03375244140625 C 11.94598388671875 20.12152099609375 8.736953735351562 24.88084411621094 6.495796203613281 30.17950439453125 C 4.176155090332031 35.66376876831055 3 41.49121475219727 3 47.5 C 3 53.50878524780273 4.176155090332031 59.33623123168945 6.495796203613281 64.82049560546875 C 8.736953735351562 70.11915588378906 11.94598388671875 74.87847900390625 16.03375244140625 78.96624755859375 C 20.12152099609375 83.05401611328125 24.88084411621094 86.26304626464844 30.17950439453125 88.50419616699219 C 35.66376876831055 90.82384490966797 41.49121475219727 92 47.5 92 C 53.50878524780273 92 59.33623123168945 90.82384490966797 64.82049560546875 88.50419616699219 C 70.11915588378906 86.26304626464844 74.87847900390625 83.05401611328125 78.96624755859375 78.96624755859375 C 83.05401611328125 74.87847900390625 86.26304626464844 70.11915588378906 88.50419616699219 64.82049560546875 C 90.82384490966797 59.33623123168945 92 53.50878524780273 92 47.5 C 92 41.49121475219727 90.82384490966797 35.66376876831055 88.50419616699219 30.17950439453125 C 86.26304626464844 24.88084411621094 83.05401611328125 20.12152099609375 78.96624755859375 16.03375244140625 C 74.87847900390625 11.94598388671875 70.11915588378906 8.736953735351562 64.82049560546875 6.495796203613281 C 59.33623123168945 4.176155090332031 53.50878524780273 3 47.5 3 M 47.5 0 C 73.7335205078125 0 95 21.2664794921875 95 47.5 C 95 73.7335205078125 73.7335205078125 95 47.5 95 C 21.2664794921875 95 0 73.7335205078125 0 47.5 C 0 21.2664794921875 21.2664794921875 0 47.5 0 Z" stroke="none" fill="#098576"/>
                        </g>
                      </g>
                    </g>
                  </g>
                </g>
              </g>
            </g>
          </g>
        </g>
      </g>
    </g>
    <g id="proyecto_1_" data-name="proyecto (1)" transform="translate(1239.488 7789.521)">
      <g id="Grupo_1230300" data-name="Grupo 1230300" transform="translate(8.482 0.826)">
        <path id="Trazado_1218978" data-name="Trazado 1218978" d="M60.291,9.574V54.317s-38.9,7.873-41.057,7.93h-.108a3.966,3.966,0,0,1-3.966-3.966V9.574A2.074,2.074,0,0,1,17.234,7.5H58.216a2.074,2.074,0,0,1,2.074,2.074Z" transform="translate(-15.16 -7.5)" fill="#faf7f7"/>
        <path id="Trazado_1218979" data-name="Trazado 1218979" d="M60.291,399.96v3.585s-38.9,7.873-41.057,7.93h-.108a3.966,3.966,0,0,1-3.966-3.966v-7.55Z" transform="translate(-15.16 -356.727)" fill="#dedbee"/>
        <g id="Grupo_1230298" data-name="Grupo 1230298" transform="translate(28.902 25.979)">
          <path id="Trazado_1218980" data-name="Trazado 1218980" d="M297.111,256.819,295.7,256a8.187,8.187,0,0,0,0-3.492l1.409-.814a1.491,1.491,0,0,0,.545-2.037l-1-1.732a1.492,1.492,0,0,0-2.037-.546l-1.41.814a8.182,8.182,0,0,0-3.025-1.748v-1.626a1.491,1.491,0,0,0-1.49-1.49h-2a1.491,1.491,0,0,0-1.49,1.49v1.626a8.182,8.182,0,0,0-3.025,1.748l-1.409-.814a1.491,1.491,0,0,0-2.037.546l-1,1.732a1.491,1.491,0,0,0,.545,2.037l1.41.814a8.185,8.185,0,0,0,0,3.492l-1.41.814a1.491,1.491,0,0,0-.545,2.037l1,1.732a1.491,1.491,0,0,0,2.037.546l1.409-.814a8.181,8.181,0,0,0,3.025,1.748v1.626a1.491,1.491,0,0,0,1.49,1.49h2a1.491,1.491,0,0,0,1.49-1.49v-1.626a8.181,8.181,0,0,0,3.025-1.748l1.41.814a1.492,1.492,0,0,0,2.037-.546l1-1.732A1.491,1.491,0,0,0,297.111,256.819Zm-9.416.9a3.462,3.462,0,1,1,3.462-3.462A3.462,3.462,0,0,1,287.695,257.721Z" transform="translate(-277.533 -243.333)" fill="#7a6d79"/>
        </g>
        <path id="Trazado_1218981" data-name="Trazado 1218981" d="M98.182,432.5a2.075,2.075,0,0,1,2.075,2.075v1.891a3.964,3.964,0,0,1-3.966,3.966H51.16a3.965,3.965,0,0,0,3.965-3.966v-1.891A2.075,2.075,0,0,1,57.2,432.5Z" transform="translate(-47.194 -385.683)" fill="#faf7f7"/>
        <path id="Trazado_1218982" data-name="Trazado 1218982" d="M65.526,183.548H51.711a2.324,2.324,0,0,1-2.324-2.324v-7.441a2.324,2.324,0,0,1,2.324-2.324H65.526a2.324,2.324,0,0,1,2.324,2.324v7.441A2.324,2.324,0,0,1,65.526,183.548Z" transform="translate(-45.617 -153.398)" fill="#ffd15b"/>
        <g id="Grupo_1230299" data-name="Grupo 1230299" transform="translate(6.599 21.175)">
          <path id="Trazado_1218983" data-name="Trazado 1218983" d="M75.067,227.327H80.22v3.3H75.067Z" transform="translate(-75.067 -224.287)" fill="#fe646f"/>
          <path id="Trazado_1218984" data-name="Trazado 1218984" d="M144.53,199.726h5.153v6.337H144.53Z" transform="translate(-136.878 -199.726)" fill="#bbec6c"/>
        </g>
      </g>
      <g id="Grupo_1230301" data-name="Grupo 1230301" transform="translate(7.655 0)">
        <path id="Trazado_1218985" data-name="Trazado 1218985" d="M8.481,10.35a.826.826,0,0,0,.826-.826V2.9a1.25,1.25,0,0,1,1.248-1.248H51.539A1.25,1.25,0,0,1,52.787,2.9V23.152a.826.826,0,1,0,1.652,0V2.9a2.9,2.9,0,0,0-2.9-2.9H10.555a2.9,2.9,0,0,0-2.9,2.9V9.524a.826.826,0,0,0,.826.826Z" transform="translate(-7.655 0)"/>
        <path id="Trazado_1218986" data-name="Trazado 1218986" d="M339.436,307.88a4.288,4.288,0,1,0-4.288,4.288A4.293,4.293,0,0,0,339.436,307.88Zm-6.923,0a2.636,2.636,0,1,1,2.635,2.636A2.638,2.638,0,0,1,332.512,307.88Z" transform="translate(-295.256 -270.15)"/>
        <path id="Trazado_1218987" data-name="Trazado 1218987" d="M59.469,148.206h-5.03v-1.323a2.32,2.32,0,0,0,2.785-1.023l1-1.731a2.317,2.317,0,0,0-.847-3.166l-.906-.523a8.976,8.976,0,0,0,0-2.643l.906-.523a2.32,2.32,0,0,0,.847-3.165l-1-1.732a2.32,2.32,0,0,0-2.785-1.023v-2.961a.826.826,0,0,0-1.652,0v3.382a8.906,8.906,0,0,0-1.924-1.048v-1.044a2.319,2.319,0,0,0-2.317-2.317h-2a2.319,2.319,0,0,0-2.317,2.317v1.044a8.91,8.91,0,0,0-2.29,1.323l-.905-.523a2.321,2.321,0,0,0-3.164.849l-1,1.732a2.321,2.321,0,0,0,.848,3.165l.906.523a8.973,8.973,0,0,0,0,2.643l-.907.523a2.32,2.32,0,0,0-.847,3.165l1,1.731a2.322,2.322,0,0,0,3.166.849l.9-.522a8.913,8.913,0,0,0,2.29,1.323v.7H18.487a2.9,2.9,0,0,0-2.9,2.9v1.827a3.194,3.194,0,0,1-3.057,3.2h-.081A3.14,3.14,0,0,1,9.307,153V114.766a.826.826,0,1,0-1.652,0V153a4.792,4.792,0,0,0,4.794,4.792H31.2a.826.826,0,0,0,0-1.652H16.033a4.873,4.873,0,0,0,1.206-3.2v-1.827a1.25,1.25,0,0,1,1.249-1.248H59.469a1.25,1.25,0,0,1,1.248,1.248V153a3.138,3.138,0,0,1-3.14,3.14H35.059a.826.826,0,0,0,0,1.652H57.577A4.79,4.79,0,0,0,62.369,153v-1.891a2.9,2.9,0,0,0-2.9-2.9Zm-6.683,0H50.863v-.7a8.9,8.9,0,0,0,1.923-1.048Zm-7.48-2.065a7.305,7.305,0,0,1-2.72-1.572.826.826,0,0,0-.97-.1l-1.408.813a.667.667,0,0,1-.909-.244l-1-1.732a.666.666,0,0,1,.243-.908l1.41-.814a.826.826,0,0,0,.394-.891,7.361,7.361,0,0,1,0-3.142.826.826,0,0,0-.394-.891l-1.41-.814a.666.666,0,0,1-.243-.908l1-1.732a.667.667,0,0,1,.908-.244l1.409.814a.826.826,0,0,0,.97-.1,7.3,7.3,0,0,1,2.72-1.572.826.826,0,0,0,.575-.787v-1.626a.665.665,0,0,1,.664-.664h2a.665.665,0,0,1,.664.664v1.626a.826.826,0,0,0,.575.787,7.305,7.305,0,0,1,2.72,1.572.826.826,0,0,0,.97.1l1.409-.814a.666.666,0,0,1,.909.243l1,1.732a.666.666,0,0,1-.243.908l-1.409.814a.826.826,0,0,0-.394.891,7.36,7.36,0,0,1,0,3.141.826.826,0,0,0,.394.891l1.409.814a.665.665,0,0,1,.243.909l-1,1.732a.666.666,0,0,1-.908.244l-1.409-.814a.826.826,0,0,0-.97.1,7.3,7.3,0,0,1-2.72,1.572.826.826,0,0,0-.575.787v1.278H45.881v-1.278a.826.826,0,0,0-.575-.787Z" transform="translate(-7.655 -101.389)"/>
        <path id="Trazado_1218988" data-name="Trazado 1218988" d="M215.878,52.7a2.048,2.048,0,0,0,1.046-1.794V46.086a.826.826,0,1,0-1.652,0v4.822a.4.4,0,0,1-.2.35c-.214.119-.493-.127-.524-.156a.826.826,0,0,0-1.116,1.219,2.329,2.329,0,0,0,1.523.623A1.872,1.872,0,0,0,215.878,52.7Z" transform="translate(-190.529 -40.274)"/>
        <path id="Trazado_1218989" data-name="Trazado 1218989" d="M261.835,47.412a.826.826,0,1,0,0-1.652h-2.519a.826.826,0,0,0-.826.826v5.978a.826.826,0,0,0,.826.826h2.519a.826.826,0,1,0,0-1.652h-1.693V50.4h1.507a.826.826,0,0,0,0-1.652h-1.507V47.412Z" transform="translate(-230.859 -40.719)"/>
        <path id="Trazado_1218990" data-name="Trazado 1218990" d="M303.6,46.912a2.179,2.179,0,0,1,1.224.374.826.826,0,1,0,.925-1.369,3.843,3.843,0,1,0-2.149,7.029,3.2,3.2,0,0,0,2.533-1.147.826.826,0,0,0-1.266-1.061,1.584,1.584,0,0,1-.161.166,1.609,1.609,0,0,1-1.106.39,2.19,2.19,0,1,1,0-4.381Z" transform="translate(-267.584 -40.274)"/>
        <path id="Trazado_1218991" data-name="Trazado 1218991" d="M368.678,46.086a.826.826,0,0,0-.826-.826H364.52a.826.826,0,0,0,0,1.652h.833v5.207a.826.826,0,1,0,1.652,0V46.912h.846A.826.826,0,0,0,368.678,46.086Z" transform="translate(-324.473 -40.274)"/>
        <path id="Trazado_1218992" data-name="Trazado 1218992" d="M92.741,52.119a.826.826,0,0,0,1.652,0V50.6l1.815,2.062a.826.826,0,0,0,1.24-1.092l-1.46-1.659a2.406,2.406,0,0,0,1.666-2.26,2.442,2.442,0,0,0-2.483-2.394h-1.6a.826.826,0,0,0-.826.829S92.741,52.119,92.741,52.119Zm2.431-5.207a.746.746,0,1,1,0,1.483l-.77,0c0-.282,0-1.19,0-1.486Z" transform="translate(-83.368 -40.274)"/>
        <path id="Trazado_1218993" data-name="Trazado 1218993" d="M39.071,52.119a.826.826,0,1,0,1.652,0v-1.8l.854,0a2.529,2.529,0,1,0,0-5.057H39.9a.826.826,0,0,0-.826.829Zm2.506-5.207a.877.877,0,1,1,0,1.753l-.847,0c0-.328,0-1.412,0-1.755h.851Z" transform="translate(-35.61 -40.274)"/>
        <path id="Trazado_1218994" data-name="Trazado 1218994" d="M149.631,49.1a3.843,3.843,0,1,0-3.843,3.843A3.847,3.847,0,0,0,149.631,49.1Zm-6.033,0a2.19,2.19,0,1,1,2.19,2.19A2.193,2.193,0,0,1,143.6,49.1Z" transform="translate(-127.153 -40.273)"/>
        <path id="Trazado_1218995" data-name="Trazado 1218995" d="M55.878,130.867a.826.826,0,0,0,.826.826H91.212a.826.826,0,1,0,0-1.652H56.7A.826.826,0,0,0,55.878,130.867Z" transform="translate(-50.566 -115.716)"/>
        <path id="Trazado_1218996" data-name="Trazado 1218996" d="M58.852,163.96H45.037a3.153,3.153,0,0,0-3.15,3.15v7.442a3.153,3.153,0,0,0,3.15,3.15H58.852a3.153,3.153,0,0,0,3.15-3.15V167.11A3.153,3.153,0,0,0,58.852,163.96Zm1.5,10.591a1.5,1.5,0,0,1-1.5,1.5H45.037a1.5,1.5,0,0,1-1.5-1.5V167.11a1.5,1.5,0,0,1,1.5-1.5H58.852a1.5,1.5,0,0,1,1.5,1.5Z" transform="translate(-38.116 -145.899)"/>
        <path id="Trazado_1218997" data-name="Trazado 1218997" d="M260.445,193.717a.826.826,0,0,0-.826-.826H244.233a.826.826,0,0,0,0,1.652h15.385A.826.826,0,0,0,260.445,193.717Z" transform="translate(-217.437 -171.643)"/>
        <path id="Trazado_1218998" data-name="Trazado 1218998" d="M254.51,222.648a.826.826,0,0,0-.826-.826h-9.451a.826.826,0,0,0,0,1.652h9.451A.826.826,0,0,0,254.51,222.648Z" transform="translate(-217.437 -197.387)"/>
        <path id="Trazado_1218999" data-name="Trazado 1218999" d="M41.888,308.443a.826.826,0,0,0,.826.826h22.2a.826.826,0,0,0,0-1.652h-22.2a.826.826,0,0,0-.826.826Z" transform="translate(-38.117 -273.731)"/>
        <path id="Trazado_1219000" data-name="Trazado 1219000" d="M65.739,366.306a.826.826,0,0,0-.826-.826h-22.2a.826.826,0,0,0,0,1.652h22.2A.826.826,0,0,0,65.739,366.306Z" transform="translate(-38.117 -325.219)"/>
        <path id="Trazado_1219001" data-name="Trazado 1219001" d="M42.714,395.24a.826.826,0,1,0,0,1.652h10.66a.826.826,0,1,0,0-1.652Z" transform="translate(-38.117 -351.701)"/>
        <path id="Trazado_1219002" data-name="Trazado 1219002" d="M67.168,337.375a.826.826,0,0,0-.826-.826H42.714a.826.826,0,0,0,0,1.652H66.342A.826.826,0,0,0,67.168,337.375Z" transform="translate(-38.117 -299.475)"/>
        <path id="Trazado_1219003" data-name="Trazado 1219003" d="M73.545,219.827H68.392a.826.826,0,0,0-.826.826v3.3a.826.826,0,0,0,.826.826h5.153a.826.826,0,0,0,.826-.826v-3.3A.826.826,0,0,0,73.545,219.827Zm-.826,3.3h-3.5v-1.645h3.5v1.645Z" transform="translate(-60.966 -195.611)"/>
        <path id="Trazado_1219004" data-name="Trazado 1219004" d="M143.009,192.226h-5.153a.826.826,0,0,0-.826.826v6.337a.826.826,0,0,0,.826.826h5.153a.826.826,0,0,0,.826-.826v-6.337A.826.826,0,0,0,143.009,192.226Zm-.826,6.337h-3.5v-4.685h3.5Z" transform="translate(-122.778 -171.051)"/>
      </g>
    </g>
  </g>
</svg>
