<svg xmlns="http://www.w3.org/2000/svg" xmlns:xlink="http://www.w3.org/1999/xlink" width="106" height="106" viewBox="0 0 106 106">
  <defs>
    <filter id="Trazado_982547" x="0" y="0" width="106" height="106" filterUnits="userSpaceOnUse">
      <feOffset dy="3" input="SourceAlpha"/>
      <feGaussianBlur stdDeviation="3" result="blur"/>
      <feFlood flood-opacity="0.161"/>
      <feComposite operator="in" in2="blur"/>
      <feComposite in="SourceGraphic"/>
    </filter>
  </defs>
  <g id="Grupo_1230188" data-name="Grupo 1230188" transform="translate(-171 -1203)">
    <g id="Grupo_1228758" data-name="Grupo 1228758" transform="translate(0 -179)">
      <g id="Grupo_1173169" data-name="Grupo 1173169" transform="translate(0 -2329)">
        <g id="Grupo_1172017" data-name="Grupo 1172017" transform="translate(0 2654)">
          <g id="Grupo_1167337" data-name="Grupo 1167337" transform="translate(180 1063)">
            <g id="Grupo_1166720" data-name="Grupo 1166720" transform="translate(0)">
              <g id="Grupo_1164305" data-name="Grupo 1164305">
                <g id="Grupo_1163948" data-name="Grupo 1163948">
                  <g id="Grupo_1158168" data-name="Grupo 1158168">
                    <g id="Grupo_1152576" data-name="Grupo 1152576">
                      <g id="Grupo_1148633" data-name="Grupo 1148633">
                        <g id="Grupo_1148525" data-name="Grupo 1148525">
                          <g transform="matrix(1, 0, 0, 1, -9, -6)" filter="url(#Trazado_982547)">
                            <g id="Trazado_982547-2" data-name="Trazado 982547" transform="translate(9 6)" fill="#f6ecfe">
                              <path d="M 44 86.5 C 38.26187515258789 86.5 32.69618606567383 85.37651062011719 27.45755004882812 83.16075897216797 C 22.3968505859375 81.020263671875 17.85157585144043 77.95565032958984 13.94796276092529 74.05204010009766 C 10.04434967041016 70.1484375 6.979737281799316 65.6031494140625 4.839250087738037 60.54246139526367 C 2.62348747253418 55.30381393432617 1.5 49.73812484741211 1.5 44 C 1.5 38.26187515258789 2.62348747253418 32.69618606567383 4.839250087738037 27.45755004882812 C 6.979737281799316 22.3968505859375 10.04434967041016 17.85157585144043 13.94796276092529 13.94796276092529 C 17.85157585144043 10.04434967041016 22.3968505859375 6.979737281799316 27.45755004882812 4.839250087738037 C 32.69618606567383 2.62348747253418 38.26187515258789 1.5 44 1.5 C 49.73812484741211 1.5 55.30381393432617 2.62348747253418 60.54246139526367 4.839250087738037 C 65.6031494140625 6.979737281799316 70.1484375 10.04434967041016 74.05204010009766 13.94796276092529 C 77.95565032958984 17.85157585144043 81.020263671875 22.3968505859375 83.16075897216797 27.45755004882812 C 85.37651062011719 32.69618606567383 86.5 38.26187515258789 86.5 44 C 86.5 49.73812484741211 85.37651062011719 55.30381393432617 83.16075897216797 60.54246139526367 C 81.020263671875 65.6031494140625 77.95565032958984 70.1484375 74.05204010009766 74.05204010009766 C 70.1484375 77.95565032958984 65.6031494140625 81.020263671875 60.54246139526367 83.16075897216797 C 55.30381393432617 85.37651062011719 49.73812484741211 86.5 44 86.5 Z" stroke="none"/>
                              <path d="M 44 3 C 38.46371459960938 3 33.09462738037109 4.083610534667969 28.0418701171875 6.220756530761719 C 23.15997314453125 8.285614013671875 18.77495574951172 11.24228668212891 15.00862884521484 15.00862884521484 C 11.24228668212891 18.77495574951172 8.285614013671875 23.15997314453125 6.220756530761719 28.0418701171875 C 4.083610534667969 33.09462738037109 3 38.46371459960938 3 44 C 3 49.53628540039062 4.083610534667969 54.9053840637207 6.220756530761719 59.9581298828125 C 8.285614013671875 64.84002685546875 11.24228668212891 69.22504425048828 15.00862884521484 72.99138641357422 C 18.77495574951172 76.75771331787109 23.15997314453125 79.71438598632812 28.0418701171875 81.77925872802734 C 33.09462738037109 83.9163818359375 38.46371459960938 85 44 85 C 49.53628540039062 85 54.9053840637207 83.9163818359375 59.95814514160156 81.77925872802734 C 64.84002685546875 79.71438598632812 69.22504425048828 76.75771331787109 72.99138641357422 72.99138641357422 C 76.75771331787109 69.22504425048828 79.71438598632812 64.84002685546875 81.77925872802734 59.95814514160156 C 83.9163818359375 54.9053840637207 85 49.53628540039062 85 44 C 85 38.46371459960938 83.9163818359375 33.09462738037109 81.77925872802734 28.0418701171875 C 79.71438598632812 23.15997314453125 76.75771331787109 18.77495574951172 72.99138641357422 15.00862884521484 C 69.22504425048828 11.24228668212891 64.84002685546875 8.285614013671875 59.9581298828125 6.220756530761719 C 54.9053840637207 4.083610534667969 49.53628540039062 3 44 3 M 44 0 C 68.30054473876953 0 88 19.69947052001953 88 44 C 88 68.30054473876953 68.30054473876953 88 44 88 C 19.69947052001953 88 0 68.30054473876953 0 44 C 0 19.69947052001953 19.69947052001953 0 44 0 Z" stroke="none" fill="#aa52f9"/>
                            </g>
                          </g>
                        </g>
                      </g>
                    </g>
                  </g>
                </g>
              </g>
            </g>
          </g>
        </g>
      </g>
    </g>
    <g id="idea_3_" data-name="idea (3)" transform="translate(185.782 1214.75)">
      <g id="Grupo_1230186" data-name="Grupo 1230186" transform="translate(6.18 11.466)">
        <path id="Trazado_1218799" data-name="Trazado 1218799" d="M75.147,58.433h8.974v5.724a1.337,1.337,0,0,1-1.337,1.337h-6.3a1.337,1.337,0,0,1-1.337-1.337Z" transform="translate(-38.916 -36.374)" fill="#e1e4fb"/>
        <path id="Trazado_1218800" data-name="Trazado 1218800" d="M79.177,39l.312-1.154a7.008,7.008,0,0,1,2.02-3.349,10.1,10.1,0,1,0-13.64,0,7.026,7.026,0,0,1,2.023,3.354L70.2,39Z" transform="translate(-33.972 -16.942)" fill="#ffd92e"/>
        <path id="Trazado_1218801" data-name="Trazado 1218801" d="M66.965,76.439a3.14,3.14,0,0,0-4.4-.592l-12.547,9.57a3.141,3.141,0,0,0-1.256-5.559L35.138,76.933a10.077,10.077,0,0,0-8.453-2.8A10.182,10.182,0,0,0,21.7,76.179L7,87.394l8.861,11.613,5.4-4.12,24.953,0a5.187,5.187,0,0,0,3.143-1.063L66.372,80.84a3.14,3.14,0,0,0,.592-4.4Z" transform="translate(-7 -43.684)" fill="#ffd3c2"/>
      </g>
      <g id="Grupo_1230187" data-name="Grupo 1230187" transform="translate(5.249 5.25)">
        <path id="Trazado_1218802" data-name="Trazado 1218802" d="M81.989,25.815a.931.931,0,0,0-1.276.314l-2.742,4.529a.93.93,0,0,0,.8,1.412h2.6l-1.886,3.117a.93.93,0,1,0,1.592.963l2.741-4.528a.931.931,0,0,0-.8-1.413H80.415L82.3,27.093a.93.93,0,0,0-.312-1.278Z" transform="translate(-39.245 -14.819)"/>
        <path id="Trazado_1218803" data-name="Trazado 1218803" d="M82.767,8.924a.93.93,0,0,0,.93-.93V6.18a.93.93,0,0,0-1.861,0V7.993a.93.93,0,0,0,.93.93Z" transform="translate(-41.119 -5.25)"/>
        <path id="Trazado_1218804" data-name="Trazado 1218804" d="M64.527,20.365A11.011,11.011,0,0,0,66.417,34.36a6.082,6.082,0,0,1,1.754,2.911l.28,1.035v5.6a2.27,2.27,0,0,0,2.268,2.267h6.3a2.27,2.27,0,0,0,2.266-2.267v-5.6l.28-1.035a6.07,6.07,0,0,1,1.748-2.907,11.026,11.026,0,0,0-13.139-17.58.93.93,0,1,0,.964,1.591A9.167,9.167,0,0,1,80.057,32.991a7.926,7.926,0,0,0-2.286,3.794l-.126.466H70.1l-.127-.466a7.941,7.941,0,0,0-2.292-3.8A9.149,9.149,0,0,1,66.1,21.359a.93.93,0,1,0-1.573-.994Zm12.49,23.946h-6.3a.407.407,0,0,1-.405-.405V42.642h7.114v1.264A.407.407,0,0,1,77.017,44.311Zm.407-5.2v1.669H70.312V39.112Z" transform="translate(-32.219 -9.907)"/>
        <path id="Trazado_1218805" data-name="Trazado 1218805" d="M59.263,104.689l-3.485,2.658a4.27,4.27,0,0,1-2.578.872l-24.953,0a.93.93,0,0,0-.565.191l-5.4,4.12a.93.93,0,1,0,1.129,1.479l5.15-3.93H53.2a6.142,6.142,0,0,0,3.707-1.253l3.485-2.658a.93.93,0,1,0-1.129-1.48Z" transform="translate(-13.055 -51.734)"/>
        <path id="Trazado_1218806" data-name="Trazado 1218806" d="M101.219,96.117l-2.11,1.608a.93.93,0,1,0,1.129,1.479l2.108-1.608a.93.93,0,1,0-1.129-1.479Z" transform="translate(-49.037 -47.718)"/>
        <path id="Trazado_1218807" data-name="Trazado 1218807" d="M90.51,76.078a4.07,4.07,0,0,0-5.706-.768l-9.842,7.508a4.077,4.077,0,0,0-3.2-3.668l-8.882-1.909a.93.93,0,1,0-.391,1.819l8.882,1.914a2.21,2.21,0,1,1-.928,4.321l-13.623-2.93a.93.93,0,0,0-.391,1.819l13.623,2.927a4.045,4.045,0,0,0,3.306-.735L85.934,76.79A2.21,2.21,0,1,1,88.615,80.3l-3.693,2.818A.93.93,0,1,0,86.05,84.6l3.693-2.818a4.072,4.072,0,0,0,.768-5.706Z" transform="translate(-28.875 -37.672)"/>
        <path id="Trazado_1218808" data-name="Trazado 1218808" d="M25.982,74.236a9.075,9.075,0,0,1,7.646,2.5.93.93,0,1,0,1.382-1.245,10.948,10.948,0,0,0-9.265-3.1,11.088,11.088,0,0,0-5.429,2.225L5.616,85.831A.93.93,0,1,0,6.744,87.31l14.7-11.218a9.251,9.251,0,0,1,4.534-1.857Z" transform="translate(-5.249 -36.645)"/>
        <path id="Trazado_1218809" data-name="Trazado 1218809" d="M108.3,36.061h1.813a.93.93,0,0,0,0-1.861H108.3a.93.93,0,0,0,0,1.861Z" transform="translate(-53.079 -18.809)"/>
        <path id="Trazado_1218810" data-name="Trazado 1218810" d="M53.82,36.061h1.813a.93.93,0,0,0,0-1.861H53.82a.93.93,0,1,0,0,1.861Z" transform="translate(-27.562 -18.809)"/>
        <path id="Trazado_1218811" data-name="Trazado 1218811" d="M101.483,52.528a.93.93,0,1,0-1.316,1.315l1.282,1.282a.93.93,0,0,0,1.316-1.316Z" transform="translate(-49.576 -27.265)"/>
        <path id="Trazado_1218812" data-name="Trazado 1218812" d="M62.923,16.6a.93.93,0,0,0,1.316-1.316L62.956,14a.93.93,0,1,0-1.315,1.316Z" transform="translate(-31.532 -9.221)"/>
        <path id="Trazado_1218813" data-name="Trazado 1218813" d="M100.825,16.871a.928.928,0,0,0,.658-.273l1.282-1.282A.93.93,0,0,0,101.449,14l-1.282,1.282a.931.931,0,0,0,.658,1.589Z" transform="translate(-49.577 -9.221)"/>
        <path id="Trazado_1218814" data-name="Trazado 1218814" d="M62.3,55.4a.926.926,0,0,0,.658-.273l1.282-1.282a.93.93,0,1,0-1.316-1.315L61.641,53.81A.93.93,0,0,0,62.3,55.4Z" transform="translate(-31.533 -27.265)"/>
      </g>
    </g>
  </g>
</svg>
