<svg xmlns="http://www.w3.org/2000/svg" xmlns:xlink="http://www.w3.org/1999/xlink" width="106" height="106" viewBox="0 0 106 106">
  <defs>
    <filter id="Trazado_982547" x="0" y="0" width="106" height="106" filterUnits="userSpaceOnUse">
      <feOffset dy="3" input="SourceAlpha"/>
      <feGaussianBlur stdDeviation="3" result="blur"/>
      <feFlood flood-opacity="0.161"/>
      <feComposite operator="in" in2="blur"/>
      <feComposite in="SourceGraphic"/>
    </filter>
  </defs>
  <g id="Grupo_1230498" data-name="Grupo 1230498" transform="translate(-215 -10901)">
    <g id="Grupo_1229145" data-name="Grupo 1229145" transform="translate(224 10907)">
      <g id="Grupo_1173169" data-name="Grupo 1173169">
        <g id="Grupo_1172017" data-name="Grupo 1172017">
          <g id="Grupo_1167337" data-name="Grupo 1167337" transform="translate(0)">
            <g id="Grupo_1166720" data-name="Grupo 1166720">
              <g id="Grupo_1164305" data-name="Grupo 1164305">
                <g id="Grupo_1163948" data-name="Grupo 1163948">
                  <g id="Grupo_1158168" data-name="Grupo 1158168">
                    <g id="Grupo_1152576" data-name="Grupo 1152576">
                      <g id="Grupo_1148633" data-name="Grupo 1148633">
                        <g id="Grupo_1148525" data-name="Grupo 1148525">
                          <g transform="matrix(1, 0, 0, 1, -9, -6)" filter="url(#Trazado_982547)">
                            <g id="Trazado_982547-2" data-name="Trazado 982547" transform="translate(9 6)" fill="#f6ecfe">
                              <path d="M 44 86.5 C 38.26187515258789 86.5 32.69618606567383 85.37651062011719 27.45755004882812 83.16075897216797 C 22.3968505859375 81.020263671875 17.85157585144043 77.95565032958984 13.94796276092529 74.05204010009766 C 10.04434967041016 70.1484375 6.979737281799316 65.6031494140625 4.839250087738037 60.54246139526367 C 2.62348747253418 55.30381393432617 1.5 49.73812484741211 1.5 44 C 1.5 38.26187515258789 2.62348747253418 32.69618606567383 4.839250087738037 27.45755004882812 C 6.979737281799316 22.3968505859375 10.04434967041016 17.85157585144043 13.94796276092529 13.94796276092529 C 17.85157585144043 10.04434967041016 22.3968505859375 6.979737281799316 27.45755004882812 4.839250087738037 C 32.69618606567383 2.62348747253418 38.26187515258789 1.5 44 1.5 C 49.73812484741211 1.5 55.30381393432617 2.62348747253418 60.54246139526367 4.839250087738037 C 65.6031494140625 6.979737281799316 70.1484375 10.04434967041016 74.05204010009766 13.94796276092529 C 77.95565032958984 17.85157585144043 81.020263671875 22.3968505859375 83.16075897216797 27.45755004882812 C 85.37651062011719 32.69618606567383 86.5 38.26187515258789 86.5 44 C 86.5 49.73812484741211 85.37651062011719 55.30381393432617 83.16075897216797 60.54246139526367 C 81.020263671875 65.6031494140625 77.95565032958984 70.1484375 74.05204010009766 74.05204010009766 C 70.1484375 77.95565032958984 65.6031494140625 81.020263671875 60.54246139526367 83.16075897216797 C 55.30381393432617 85.37651062011719 49.73812484741211 86.5 44 86.5 Z" stroke="none"/>
                              <path d="M 44 3 C 38.46371459960938 3 33.09462738037109 4.083610534667969 28.0418701171875 6.220756530761719 C 23.15997314453125 8.285614013671875 18.77495574951172 11.24228668212891 15.00862884521484 15.00862884521484 C 11.24228668212891 18.77495574951172 8.285614013671875 23.15997314453125 6.220756530761719 28.0418701171875 C 4.083610534667969 33.09462738037109 3 38.46371459960938 3 44 C 3 49.53628540039062 4.083610534667969 54.9053840637207 6.220756530761719 59.9581298828125 C 8.285614013671875 64.84002685546875 11.24228668212891 69.22504425048828 15.00862884521484 72.99138641357422 C 18.77495574951172 76.75771331787109 23.15997314453125 79.71438598632812 28.0418701171875 81.77925872802734 C 33.09462738037109 83.9163818359375 38.46371459960938 85 44 85 C 49.53628540039062 85 54.9053840637207 83.9163818359375 59.95814514160156 81.77925872802734 C 64.84002685546875 79.71438598632812 69.22504425048828 76.75771331787109 72.99138641357422 72.99138641357422 C 76.75771331787109 69.22504425048828 79.71438598632812 64.84002685546875 81.77925872802734 59.95814514160156 C 83.9163818359375 54.9053840637207 85 49.53628540039062 85 44 C 85 38.46371459960938 83.9163818359375 33.09462738037109 81.77925872802734 28.0418701171875 C 79.71438598632812 23.15997314453125 76.75771331787109 18.77495574951172 72.99138641357422 15.00862884521484 C 69.22504425048828 11.24228668212891 64.84002685546875 8.285614013671875 59.9581298828125 6.220756530761719 C 54.9053840637207 4.083610534667969 49.53628540039062 3 44 3 M 44 0 C 68.30054473876953 0 88 19.69947052001953 88 44 C 88 68.30054473876953 68.30054473876953 88 44 88 C 19.69947052001953 88 0 68.30054473876953 0 44 C 0 19.69947052001953 19.69947052001953 0 44 0 Z" stroke="none" fill="#aa52f9"/>
                            </g>
                          </g>
                        </g>
                      </g>
                    </g>
                  </g>
                </g>
              </g>
            </g>
          </g>
        </g>
      </g>
    </g>
    <g id="carpeta_1_" data-name="carpeta (1)" transform="translate(225.17 10921.911)">
      <path id="Trazado_1219309" data-name="Trazado 1219309" d="M135.027,251.564H119.655a1.79,1.79,0,0,1-1.266-.524l-2.27-2.27a2.685,2.685,0,0,0-1.9-.787h-7.84a2.686,2.686,0,0,0-2.686,2.686v23.275a2.686,2.686,0,0,0,2.686,2.686h28.646a2.686,2.686,0,0,0,2.686-2.686V254.25a2.686,2.686,0,0,0-2.686-2.686Z" transform="translate(-77.873 -220.289)" fill="#ffe09f"/>
      <path id="Trazado_1219310" data-name="Trazado 1219310" d="M137.547,273.945H110.856a4.481,4.481,0,0,1-4.476-4.476V247.984a2.686,2.686,0,0,0-2.686,2.686v23.275a2.686,2.686,0,0,0,2.686,2.686h28.646a2.686,2.686,0,0,0,2.686-2.686h-.164Z" transform="translate(-77.872 -220.29)" fill="#f6d190"/>
      <path id="Trazado_1219311" data-name="Trazado 1219311" d="M141.657,331.761l6.157-18.47a.9.9,0,0,0-.849-1.178h-30.84a2.686,2.686,0,0,0-2.548,1.836l-6.131,18.391a2.677,2.677,0,0,0,2.267,1.257h29.4A2.686,2.686,0,0,0,141.657,331.761Z" transform="translate(-81.205 -277.258)" fill="#ecbd83"/>
      <path id="Trazado_1219312" data-name="Trazado 1219312" d="M31.589,7.5H24.427a.9.9,0,0,0-.9.9V22.718a.9.9,0,0,0,.9.9H35.17a.9.9,0,0,0,.9-.9V11.976Z" transform="translate(-6.662 -6.662)" fill="#eceaec"/>
      <circle id="Elipse_13597" data-name="Elipse 13597" cx="1.79" cy="1.79" r="1.79" transform="translate(41.04 20.532)" fill="#b6b1b7"/>
      <path id="Trazado_1219313" data-name="Trazado 1219313" d="M26.218,18.242V7.5h-1.79a.9.9,0,0,0-.9.9V22.718a.9.9,0,0,0,.9.9H35.17a.9.9,0,0,0,.9-.9v-1.79H28.9a2.686,2.686,0,0,1-2.686-2.686Z" transform="translate(-6.662 -6.662)" fill="#dad8db"/>
      <path id="Trazado_1219314" data-name="Trazado 1219314" d="M95.677,11.081a.9.9,0,0,0,.9.9h3.581L95.677,7.5Z" transform="translate(-70.751 -6.662)" fill="#dad8db"/>
      <path id="Trazado_1219315" data-name="Trazado 1219315" d="M114.188,437.726a4.481,4.481,0,0,1-4.476-4.476v-.9l-2.267,6.8a2.678,2.678,0,0,0,2.267,1.257h29.4a2.686,2.686,0,0,0,2.548-1.836l.283-.849Z" transform="translate(-81.204 -384.072)" fill="#e2a975"/>
      <path id="Trazado_1219316" data-name="Trazado 1219316" d="M207.944,7.5h-7.162a.9.9,0,0,0-.9.9V22.718a.9.9,0,0,0,.9.9h10.742a.9.9,0,0,0,.9-.9V11.976Z" transform="translate(-163.323 -6.662)" fill="#eceaec"/>
      <path id="Trazado_1219317" data-name="Trazado 1219317" d="M202.573,18.242V7.5h-1.79a.9.9,0,0,0-.9.9V22.718a.9.9,0,0,0,.9.9h10.742a.9.9,0,0,0,.9-.9v-1.79h-7.162A2.686,2.686,0,0,1,202.573,18.242Z" transform="translate(-163.323 -6.662)" fill="#dad8db"/>
      <path id="Trazado_1219318" data-name="Trazado 1219318" d="M272.032,11.081a.9.9,0,0,0,.9.9h3.581L272.032,7.5Z" transform="translate(-227.411 -6.662)" fill="#dad8db"/>
      <path id="Trazado_1219319" data-name="Trazado 1219319" d="M384.3,7.5h-7.162a.9.9,0,0,0-.9.9V22.718a.9.9,0,0,0,.9.9H387.88a.9.9,0,0,0,.9-.9V11.976Z" transform="translate(-319.984 -6.662)" fill="#eceaec"/>
      <path id="Trazado_1219320" data-name="Trazado 1219320" d="M378.928,18.242V7.5h-1.79a.9.9,0,0,0-.9.9V22.718a.9.9,0,0,0,.9.9H387.88a.9.9,0,0,0,.9-.9v-1.79h-7.162A2.686,2.686,0,0,1,378.928,18.242Z" transform="translate(-319.984 -6.662)" fill="#dad8db"/>
      <path id="Trazado_1219321" data-name="Trazado 1219321" d="M448.387,11.081a.9.9,0,0,0,.9.9h3.581L448.387,7.5Z" transform="translate(-384.072 -6.662)" fill="#dad8db"/>
      <path id="Trazado_1219322" data-name="Trazado 1219322" d="M319.733,456.919h-6.266a.838.838,0,1,0,0,1.675h6.266a.838.838,0,1,0,0-1.675Z" transform="translate(-263.474 -405.893)"/>
      <path id="Trazado_1219323" data-name="Trazado 1219323" d="M335.765,424.854H329.5a.838.838,0,0,0,0,1.675h6.266a.838.838,0,0,0,0-1.675Z" transform="translate(-277.716 -377.408)"/>
      <path id="Trazado_1219324" data-name="Trazado 1219324" d="M48.935,73.82h4.476a.838.838,0,0,0,0-1.675H48.935a.838.838,0,0,0,0,1.675Z" transform="translate(-28.484 -64.088)"/>
      <path id="Trazado_1219325" data-name="Trazado 1219325" d="M54.248,105.047a.838.838,0,0,0-.838-.838H48.935a.838.838,0,1,0,0,1.675h4.476A.837.837,0,0,0,54.248,105.047Z" transform="translate(-28.484 -92.571)"/>
      <path id="Trazado_1219326" data-name="Trazado 1219326" d="M225.29,73.82h4.476a.838.838,0,1,0,0-1.675H225.29a.838.838,0,1,0,0,1.675Z" transform="translate(-185.145 -64.088)"/>
      <path id="Trazado_1219327" data-name="Trazado 1219327" d="M230.6,105.047a.838.838,0,0,0-.838-.838h-4.476a.838.838,0,0,0,0,1.675h4.476A.838.838,0,0,0,230.6,105.047Z" transform="translate(-185.144 -92.571)"/>
      <path id="Trazado_1219328" data-name="Trazado 1219328" d="M69.384,4.721,64.908.245A.837.837,0,0,0,64.315,0H57.154a1.735,1.735,0,0,0-1.733,1.733V16.056a1.735,1.735,0,0,0,1.733,1.733h4.534v2.743a.954.954,0,0,1-.953.953H45.321a2.64,2.64,0,0,0-1.653-1.653V17.789H48.2a1.735,1.735,0,0,0,1.733-1.733V5.314a.837.837,0,0,0-.245-.592L45.213.245A.837.837,0,0,0,44.621,0H37.459a1.735,1.735,0,0,0-1.733,1.733V16.056a1.735,1.735,0,0,0,1.733,1.733h4.534v2.043a2.64,2.64,0,0,0-1.653,1.653H24.926a.954.954,0,0,1-.953-.953V17.789h4.534a1.735,1.735,0,0,0,1.733-1.733V5.314a.837.837,0,0,0-.245-.592L25.519.245A.837.837,0,0,0,24.926,0H17.765a1.735,1.735,0,0,0-1.733,1.733V16.056a1.735,1.735,0,0,0,1.733,1.733H22.3v2.743a2.631,2.631,0,0,0,2.628,2.628H40.34a2.64,2.64,0,0,0,1.653,1.653v5.616a1.833,1.833,0,0,1-1.147-.534l-2.008-2.008a3.5,3.5,0,0,0-2.491-1.032h-7.84a3.527,3.527,0,0,0-3.523,3.523V53.654a3.527,3.527,0,0,0,3.522,3.523H57.9a3.519,3.519,0,0,0,3.342-2.409L67.4,36.3a1.733,1.733,0,0,0-1.644-2.281H60.677V33.96a3.527,3.527,0,0,0-3.523-3.523H46.411a.838.838,0,1,0,0,1.675H57.154A1.85,1.85,0,0,1,59,33.96v.058H43.668v-9.2a2.64,2.64,0,0,0,1.653-1.653H60.735a2.631,2.631,0,0,0,2.628-2.628V17.789H67.9a1.735,1.735,0,0,0,1.733-1.733V5.314a.837.837,0,0,0-.245-.592ZM45.458,2.86l1.616,1.616H45.516a.058.058,0,0,1-.058-.058ZM37.4,16.056V1.733a.058.058,0,0,1,.058-.058h6.324V4.418a1.735,1.735,0,0,0,1.733,1.733h2.743v9.9a.058.058,0,0,1-.058.058H37.459A.058.058,0,0,1,37.4,16.056ZM25.764,2.86,27.38,4.476H25.822a.058.058,0,0,1-.058-.058Zm-8.057,13.2V1.733a.058.058,0,0,1,.058-.058h6.324V4.418a1.735,1.735,0,0,0,1.733,1.733h2.743v9.9a.058.058,0,0,1-.058.058H17.765A.058.058,0,0,1,17.707,16.056ZM42.83,21.37a.954.954,0,0,1,.953.951v0a.953.953,0,1,1-.953-.954ZM65.806,35.717a.052.052,0,0,1,.008.052l-6.157,18.47A1.846,1.846,0,0,1,57.9,55.5h-29.4a1.841,1.841,0,0,1-1.333-.571l5.992-17.975a1.846,1.846,0,0,1,1.753-1.264h30.84A.052.052,0,0,1,65.806,35.717Zm-30.887-1.7a3.519,3.519,0,0,0-3.342,2.409L26.659,51.179v-20.8a1.85,1.85,0,0,1,1.848-1.848h7.84a1.836,1.836,0,0,1,1.307.541l2.008,2.008a3.5,3.5,0,0,0,2.332,1.028v1.91ZM65.153,2.86l1.616,1.616H65.21a.058.058,0,0,1-.058-.058ZM67.9,16.114H57.154a.058.058,0,0,1-.058-.058V1.733a.058.058,0,0,1,.058-.058h6.324V4.418a1.735,1.735,0,0,0,1.733,1.733h2.743v9.9a.058.058,0,0,1-.058.058Z" transform="translate(0 0)"/>
      <path id="Trazado_1219329" data-name="Trazado 1219329" d="M406.12,72.145h-4.476a.838.838,0,1,0,0,1.675h4.476a.838.838,0,0,0,0-1.675Z" transform="translate(-341.804 -64.088)"/>
      <path id="Trazado_1219330" data-name="Trazado 1219330" d="M406.12,104.209h-4.476a.838.838,0,1,0,0,1.675h4.476a.838.838,0,0,0,0-1.675Z" transform="translate(-341.804 -92.571)"/>
    </g>
  </g>
</svg>
