<svg xmlns="http://www.w3.org/2000/svg" xmlns:xlink="http://www.w3.org/1999/xlink" width="106" height="106" viewBox="0 0 106 106">
  <defs>
    <filter id="Trazado_982547" x="0" y="0" width="106" height="106" filterUnits="userSpaceOnUse">
      <feOffset dy="3" input="SourceAlpha"/>
      <feGaussianBlur stdDeviation="3" result="blur"/>
      <feFlood flood-opacity="0.161"/>
      <feComposite operator="in" in2="blur"/>
      <feComposite in="SourceGraphic"/>
    </filter>
  </defs>
  <g id="Grupo_1230992" data-name="Grupo 1230992" transform="translate(-171 -2957)">
    <g id="Grupo_1230702" data-name="Grupo 1230702" transform="translate(0 1754)">
      <g id="Grupo_1228758" data-name="Grupo 1228758" transform="translate(0 -179)">
        <g id="Grupo_1173169" data-name="Grupo 1173169" transform="translate(0 -2329)">
          <g id="Grupo_1172017" data-name="Grupo 1172017" transform="translate(0 2654)">
            <g id="Grupo_1167337" data-name="Grupo 1167337" transform="translate(180 1063)">
              <g id="Grupo_1166720" data-name="Grupo 1166720" transform="translate(0)">
                <g id="Grupo_1164305" data-name="Grupo 1164305">
                  <g id="Grupo_1163948" data-name="Grupo 1163948">
                    <g id="Grupo_1158168" data-name="Grupo 1158168">
                      <g id="Grupo_1152576" data-name="Grupo 1152576">
                        <g id="Grupo_1148633" data-name="Grupo 1148633">
                          <g id="Grupo_1148525" data-name="Grupo 1148525">
                            <g transform="matrix(1, 0, 0, 1, -9, -6)" filter="url(#Trazado_982547)">
                              <g id="Trazado_982547-2" data-name="Trazado 982547" transform="translate(9 6)" fill="#e5fdfa">
                                <path d="M 44 86.5 C 38.26187515258789 86.5 32.69618606567383 85.37651062011719 27.45755004882812 83.16075897216797 C 22.3968505859375 81.020263671875 17.85157585144043 77.95565032958984 13.94796276092529 74.05204010009766 C 10.04434967041016 70.1484375 6.979737281799316 65.6031494140625 4.839250087738037 60.54246139526367 C 2.62348747253418 55.30381393432617 1.5 49.73812484741211 1.5 44 C 1.5 38.26187515258789 2.62348747253418 32.69618606567383 4.839250087738037 27.45755004882812 C 6.979737281799316 22.3968505859375 10.04434967041016 17.85157585144043 13.94796276092529 13.94796276092529 C 17.85157585144043 10.04434967041016 22.3968505859375 6.979737281799316 27.45755004882812 4.839250087738037 C 32.69618606567383 2.62348747253418 38.26187515258789 1.5 44 1.5 C 49.73812484741211 1.5 55.30381393432617 2.62348747253418 60.54246139526367 4.839250087738037 C 65.6031494140625 6.979737281799316 70.1484375 10.04434967041016 74.05204010009766 13.94796276092529 C 77.95565032958984 17.85157585144043 81.020263671875 22.3968505859375 83.16075897216797 27.45755004882812 C 85.37651062011719 32.69618606567383 86.5 38.26187515258789 86.5 44 C 86.5 49.73812484741211 85.37651062011719 55.30381393432617 83.16075897216797 60.54246139526367 C 81.020263671875 65.6031494140625 77.95565032958984 70.1484375 74.05204010009766 74.05204010009766 C 70.1484375 77.95565032958984 65.6031494140625 81.020263671875 60.54246139526367 83.16075897216797 C 55.30381393432617 85.37651062011719 49.73812484741211 86.5 44 86.5 Z" stroke="none"/>
                                <path d="M 44 3 C 38.46371459960938 3 33.09462738037109 4.083610534667969 28.0418701171875 6.220756530761719 C 23.15997314453125 8.285614013671875 18.77495574951172 11.24228668212891 15.00862884521484 15.00862884521484 C 11.24228668212891 18.77495574951172 8.285614013671875 23.15997314453125 6.220756530761719 28.0418701171875 C 4.083610534667969 33.09462738037109 3 38.46371459960938 3 44 C 3 49.53628540039062 4.083610534667969 54.9053840637207 6.220756530761719 59.9581298828125 C 8.285614013671875 64.84002685546875 11.24228668212891 69.22504425048828 15.00862884521484 72.99138641357422 C 18.77495574951172 76.75771331787109 23.15997314453125 79.71438598632812 28.0418701171875 81.77925872802734 C 33.09462738037109 83.9163818359375 38.46371459960938 85 44 85 C 49.53628540039062 85 54.9053840637207 83.9163818359375 59.95814514160156 81.77925872802734 C 64.84002685546875 79.71438598632812 69.22504425048828 76.75771331787109 72.99138641357422 72.99138641357422 C 76.75771331787109 69.22504425048828 79.71438598632812 64.84002685546875 81.77925872802734 59.95814514160156 C 83.9163818359375 54.9053840637207 85 49.53628540039062 85 44 C 85 38.46371459960938 83.9163818359375 33.09462738037109 81.77925872802734 28.0418701171875 C 79.71438598632812 23.15997314453125 76.75771331787109 18.77495574951172 72.99138641357422 15.00862884521484 C 69.22504425048828 11.24228668212891 64.84002685546875 8.285614013671875 59.9581298828125 6.220756530761719 C 54.9053840637207 4.083610534667969 49.53628540039062 3 44 3 M 44 0 C 68.30054473876953 0 88 19.69947052001953 88 44 C 88 68.30054473876953 68.30054473876953 88 44 88 C 19.69947052001953 88 0 68.30054473876953 0 44 C 0 19.69947052001953 19.69947052001953 0 44 0 Z" stroke="none" fill="#098576"/>
                              </g>
                            </g>
                          </g>
                        </g>
                      </g>
                    </g>
                  </g>
                </g>
              </g>
            </g>
          </g>
        </g>
      </g>
    </g>
    <g id="programacion_1_" data-name="programacion (1)" transform="translate(194.032 2977.032)">
      <g id="Grupo_1230990" data-name="Grupo 1230990" transform="translate(1.934 1.934)">
        <g id="Grupo_1230981" data-name="Grupo 1230981" transform="translate(0 20.558)">
          <path id="Trazado_1220062" data-name="Trazado 1220062" d="M2,53.9V24H31.3c.121.262.252.523.392.776l-1.14,2.205,3.971,3.962,2.205-1.131a13.577,13.577,0,0,0,2.822,1.159l.757,2.374h2.8V48.3a5.614,5.614,0,0,0-5.289,7.476H3.869A1.874,1.874,0,0,1,2,53.9Z" transform="translate(-2 -24)" fill="#e6e9ed"/>
        </g>
        <g id="Grupo_1230982" data-name="Grupo 1230982" transform="translate(0 9.345)">
          <path id="Trazado_1220063" data-name="Trazado 1220063" d="M31.3,23.213H2V13.869A1.874,1.874,0,0,1,3.869,12H31.3a12.79,12.79,0,0,0-.766,2.046l-2.374.757V20.41l2.374.757A12.79,12.79,0,0,0,31.3,23.213Z" transform="translate(-2 -12)" fill="#5cd6b3"/>
        </g>
        <g id="Grupo_1230983" data-name="Grupo 1230983" transform="translate(3.738 13.082)">
          <path id="Trazado_1220064" data-name="Trazado 1220064" d="M16.279,19.738H6.934A.935.935,0,0,1,6,18.8V16.934A.935.935,0,0,1,6.934,16h9.345a.935.935,0,0,1,.934.934V18.8A.935.935,0,0,1,16.279,19.738Z" transform="translate(-6 -16)" fill="#e6e9ed"/>
        </g>
        <g id="Grupo_1230984" data-name="Grupo 1230984" transform="translate(35.509 44.854)">
          <path id="Trazado_1220065" data-name="Trazado 1220065" d="M45.607,50A5.614,5.614,0,1,1,40,55.607,5.611,5.611,0,0,1,45.607,50Z" transform="translate(-40 -50)" fill="#ff826e"/>
        </g>
        <g id="Grupo_1230985" data-name="Grupo 1230985" transform="translate(39.247 48.592)">
          <ellipse id="Elipse_14602" data-name="Elipse 14602" cx="2" cy="1.5" rx="2" ry="1.5" transform="translate(-0.182 0.474)" fill="#fc6e51"/>
        </g>
        <g id="Grupo_1230986" data-name="Grupo 1230986" transform="translate(50.461 44.854)">
          <circle id="Elipse_14603" data-name="Elipse 14603" cx="2" cy="2" r="2" transform="translate(-0.395 0.212)" fill="#ff826e"/>
        </g>
        <g id="Grupo_1230987" data-name="Grupo 1230987" transform="translate(28.034 44.854)">
          <circle id="Elipse_14604" data-name="Elipse 14604" cx="2" cy="2" r="2" transform="translate(0.032 0.212)" fill="#ff826e"/>
        </g>
        <g id="Grupo_1230988" data-name="Grupo 1230988" transform="translate(26.165)">
          <path id="Trazado_1220066" data-name="Trazado 1220066" d="M59.9,14.148v5.607l-2.374.757a13.577,13.577,0,0,1-1.159,2.822l1.14,2.205L53.539,29.5,51.334,28.37a13.577,13.577,0,0,1-2.822,1.159L47.755,31.9H42.148l-.757-2.374a13.577,13.577,0,0,1-2.822-1.159L36.364,29.5l-3.971-3.962,1.14-2.205c-.14-.252-.271-.514-.392-.776a12.789,12.789,0,0,1-.766-2.046L30,19.755V14.148l2.374-.757a12.79,12.79,0,0,1,.766-2.046c.121-.262.252-.523.392-.776l-1.14-2.205,3.971-3.971,2.205,1.14a13.577,13.577,0,0,1,2.822-1.159L42.148,2h5.607l.757,2.374a13.577,13.577,0,0,1,2.822,1.159l2.205-1.14L57.51,8.364l-1.14,2.205a13.577,13.577,0,0,1,1.159,2.822Z" transform="translate(-30 -2)" fill="#fcd770"/>
        </g>
        <g id="Grupo_1230989" data-name="Grupo 1230989" transform="translate(31.772 5.607)">
          <circle id="Elipse_14605" data-name="Elipse 14605" cx="9" cy="9" r="9" transform="translate(0.294 0.459)" fill="#ffeaa7"/>
        </g>
      </g>
      <g id="Grupo_1230991" data-name="Grupo 1230991" transform="translate(1 1)">
        <path id="Trazado_1220067" data-name="Trazado 1220067" d="M45.279,7A10.279,10.279,0,1,0,55.558,17.279,10.291,10.291,0,0,0,45.279,7Zm0,18.689a8.41,8.41,0,1,1,8.41-8.41A8.42,8.42,0,0,1,45.279,25.689Z" transform="translate(-3.228 -1.393)"/>
        <path id="Trazado_1220068" data-name="Trazado 1220068" d="M56.381,12.582a13.956,13.956,0,0,0-.859-2.083l1.226-2.382L51.82,3.188,49.438,4.415a13.956,13.956,0,0,0-2.083-.859L46.535,1h-6.97l-.819,2.555a13.956,13.956,0,0,0-2.083.859L34.282,3.188,29.353,8.116,30.5,10.345H3.8a2.807,2.807,0,0,0-2.8,2.8V52.4a2.807,2.807,0,0,0,2.8,2.8H37.149a6.536,6.536,0,1,0,6.836-9.27V32.772h2.55l.819-2.555a13.956,13.956,0,0,0,2.083-.859l2.382,1.226,4.928-4.928-1.226-2.381a13.974,13.974,0,0,0,.859-2.083l2.557-.821V13.4ZM3.8,12.213H29.855c-.044.123-.094.243-.135.368l-2.556.82v6.97l2.555.819c.04.125.092.245.135.368H2.869v-8.41a.936.936,0,0,1,.934-.934ZM47.723,52.4a4.672,4.672,0,1,1-4.672-4.672A4.678,4.678,0,0,1,47.723,52.4Zm-5.607-6.466a6.477,6.477,0,0,0-5.532,7.4H3.8a.936.936,0,0,1-.934-.934V23.427H30.5l-1.147,2.228,4.928,4.928,2.382-1.226a13.956,13.956,0,0,0,2.083.859l.82,2.556h2.55ZM57.067,19.008l-2.2.706-.136.483a12.03,12.03,0,0,1-1.077,2.612l-.246.438L54.462,25.3l-3,3L49.41,27.243l-.437.245a12.068,12.068,0,0,1-2.613,1.077l-.483.136-.7,2.2H40.929l-.706-2.2-.483-.136a12.115,12.115,0,0,1-2.613-1.077l-.437-.245L34.639,28.3l-3-3,1.056-2.051-.246-.438A12.049,12.049,0,0,1,31.372,20.2l-.136-.483-2.2-.7V14.765l2.2-.706.136-.483a12.115,12.115,0,0,1,1.077-2.613l.245-.437L31.639,8.475l3-3,2.051,1.055.437-.245a12.068,12.068,0,0,1,2.613-1.077l.483-.136.7-2.2h4.243l.706,2.2.483.136a12.115,12.115,0,0,1,2.613,1.077l.437.245,2.051-1.055,3,3-1.055,2.051.245.437a12.068,12.068,0,0,1,1.077,2.613l.136.483,2.2.7Z" transform="translate(-1 -1)"/>
        <path id="Trazado_1220069" data-name="Trazado 1220069" d="M48.2,14.521,50.583,17.7,48.2,20.876,49.7,22l3.224-4.3L49.7,13.4Z" transform="translate(-4.094 -1.813)"/>
        <path id="Trazado_1220070" data-name="Trazado 1220070" d="M41.974,13.4,38.75,17.7,41.974,22l1.5-1.121L41.086,17.7l2.383-3.177Z" transform="translate(-3.474 -1.813)"/>
        <path id="Trazado_1220071" data-name="Trazado 1220071" d="M0,0H13.215V1.869H0Z" transform="translate(40.205 22.297) rotate(-81.837)"/>
        <path id="Trazado_1220072" data-name="Trazado 1220072" d="M6.869,20.607h9.345a1.871,1.871,0,0,0,1.869-1.869V16.869A1.871,1.871,0,0,0,16.213,15H6.869A1.871,1.871,0,0,0,5,16.869v1.869A1.871,1.871,0,0,0,6.869,20.607Zm3.738-1.869V16.869h1.869v1.869Zm5.608,0h-1.87V16.869h1.869ZM6.869,16.869H8.738v1.869H6.869Z" transform="translate(-1.262 -1.918)"/>
        <path id="Trazado_1220073" data-name="Trazado 1220073" d="M43,55.8A2.8,2.8,0,1,0,45.8,53,2.807,2.807,0,0,0,43,55.8Zm3.738,0a.934.934,0,1,1-.934-.934A.936.936,0,0,1,46.738,55.8Z" transform="translate(-3.753 -4.408)"/>
        <path id="Trazado_1220074" data-name="Trazado 1220074" d="M58.607,48.189V44.827l-3.738-3.738V34H53v7.863L56.738,45.6v2.588a2.8,2.8,0,1,0,1.869,0Zm-.934,3.566a.934.934,0,1,1,.934-.934A.936.936,0,0,1,57.672,51.755Z" transform="translate(-4.408 -3.163)"/>
        <path id="Trazado_1220075" data-name="Trazado 1220075" d="M36.607,41.089l-3.738,3.738v3.362a2.8,2.8,0,1,0,1.869,0V45.6l3.738-3.738V34H36.607ZM33.8,51.755a.934.934,0,1,1,.934-.934A.936.936,0,0,1,33.8,51.755Z" transform="translate(-2.966 -3.163)"/>
        <path id="Trazado_1220076" data-name="Trazado 1220076" d="M6.869,33.541a2.807,2.807,0,0,0,2.8,2.8h.934V34.476H9.672a.936.936,0,0,1-.934-.934,2.785,2.785,0,0,0-.729-1.869A2.785,2.785,0,0,0,8.738,29.8a.936.936,0,0,1,.934-.934h.934V27H9.672a2.807,2.807,0,0,0-2.8,2.8.936.936,0,0,1-.934.934H5v1.869h.934A.936.936,0,0,1,6.869,33.541Z" transform="translate(-1.262 -2.704)"/>
        <path id="Trazado_1220077" data-name="Trazado 1220077" d="M13,27H24.213v1.869H13Z" transform="translate(-1.787 -2.704)"/>
        <path id="Trazado_1220078" data-name="Trazado 1220078" d="M13,31H24.213v1.869H13Z" transform="translate(-1.787 -2.966)"/>
        <path id="Trazado_1220079" data-name="Trazado 1220079" d="M23,35h1.869v1.869H23Z" transform="translate(-2.442 -3.228)"/>
        <path id="Trazado_1220080" data-name="Trazado 1220080" d="M13,35h7.476v1.869H13Z" transform="translate(-1.787 -3.228)"/>
        <path id="Trazado_1220081" data-name="Trazado 1220081" d="M26.738,45.8a2.807,2.807,0,0,0-2.8-2.8H23v1.869h.934a.936.936,0,0,1,.934.934,2.785,2.785,0,0,0,.729,1.869,2.781,2.781,0,0,0-.729,1.869.936.936,0,0,1-.934.934H23v1.869h.934a2.807,2.807,0,0,0,2.8-2.8.936.936,0,0,1,.934-.934h.934V46.738h-.934A.936.936,0,0,1,26.738,45.8Z" transform="translate(-2.442 -3.753)"/>
        <path id="Trazado_1220082" data-name="Trazado 1220082" d="M9,51H20.213v1.869H9Z" transform="translate(-1.524 -4.277)"/>
        <path id="Trazado_1220083" data-name="Trazado 1220083" d="M13,47h7.476v1.869H13Z" transform="translate(-1.787 -4.015)"/>
        <path id="Trazado_1220084" data-name="Trazado 1220084" d="M9,47h1.869v1.869H9Z" transform="translate(-1.524 -4.015)"/>
        <path id="Trazado_1220085" data-name="Trazado 1220085" d="M9,43H20.213v1.869H9Z" transform="translate(-1.524 -3.753)"/>
        <path id="Trazado_1220086" data-name="Trazado 1220086" d="M5,39H23.689v1.869H5Z" transform="translate(-1.262 -3.491)"/>
      </g>
    </g>
  </g>
</svg>
