<svg xmlns="http://www.w3.org/2000/svg" xmlns:xlink="http://www.w3.org/1999/xlink" width="400" height="326" viewBox="0 0 400 326">
  <defs>
    <clipPath id="clip-path">
      <rect id="Rectángulo_422875" data-name="Rectángulo 422875" width="400" height="326" transform="translate(180 3345)" fill="#fff" stroke="#707070" stroke-width="1"/>
    </clipPath>
  </defs>
  <g id="Grupo_1231122" data-name="Grupo 1231122" transform="translate(-180 -3345)">
    <rect id="Rectángulo_422903" data-name="Rectángulo 422903" width="254" height="214" transform="translate(326 3389)" fill="#cdd9f7"/>
    <g id="Enmascarar_grupo_1208514" data-name="Enmascarar grupo 1208514" clip-path="url(#clip-path)">
      <g id="_21665294_6500381" data-name="21665294_6500381" transform="translate(209.058 3335.304)">
        <g id="OBJECTS" transform="translate(24 41.609)">
          <g id="Grupo_1231121" data-name="Grupo 1231121">
            <g id="Grupo_1231120" data-name="Grupo 1231120">
              <g id="Grupo_1231119" data-name="Grupo 1231119" transform="translate(5.179 10.902)">
                <g id="Grupo_1230995" data-name="Grupo 1230995" transform="translate(0 48.696)">
                  <path id="Trazado_1220088" data-name="Trazado 1220088" d="M87.3,324.218q-.519,0-1.037-.009a.353.353,0,0,1-.347-.359.339.339,0,0,1,.359-.347c1.395.024,2.807,0,4.211-.073a.364.364,0,0,1,.371.335.353.353,0,0,1-.335.371C89.454,324.191,88.369,324.218,87.3,324.218Zm-5.261-.229h-.031c-1.423-.127-2.846-.308-4.23-.536a.353.353,0,1,1,.115-.7c1.367.226,2.772.4,4.177.53a.353.353,0,0,1-.031.7Zm12.687-.2a.353.353,0,0,1-.039-.7c1.369-.154,2.774-.352,4.174-.59a.353.353,0,1,1,.118.7c-1.414.239-2.831.44-4.213.6A.274.274,0,0,1,94.73,323.792ZM73.69,322.6a.335.335,0,0,1-.087-.011c-1.367-.346-2.74-.763-4.083-1.237a.353.353,0,1,1,.235-.667c1.323.467,2.675.878,4.021,1.219a.353.353,0,0,1-.086.7Zm29.391-.214a.353.353,0,0,1-.076-.7c1.332-.3,2.711-.634,4.1-1.006a.353.353,0,1,1,.184.682c-1.4.376-2.787.717-4.129,1.014A.349.349,0,0,1,103.081,322.383Zm8.182-2.192a.353.353,0,0,1-.1-.69c1.309-.408,2.658-.854,4.012-1.327a.353.353,0,1,1,.233.667c-1.361.476-2.719.924-4.035,1.334A.367.367,0,0,1,111.264,320.191Zm-45.553-.41a.363.363,0,0,1-.146-.031c-1.281-.585-2.56-1.236-3.8-1.936a.353.353,0,1,1,.347-.615c1.224.691,2.485,1.332,3.747,1.908a.353.353,0,0,1-.146.674Zm53.554-2.378a.353.353,0,0,1-.126-.683c1.273-.487,2.6-1.013,3.931-1.562a.353.353,0,1,1,.269.653c-1.34.551-2.668,1.079-3.947,1.569A.365.365,0,0,1,119.266,317.4Zm-60.93-1.777a.344.344,0,0,1-.2-.061c-1.163-.787-2.318-1.64-3.432-2.532a.353.353,0,0,1,.442-.551c1.1.88,2.239,1.721,3.387,2.5a.353.353,0,0,1-.2.645Zm68.771-1.443a.353.353,0,0,1-.142-.676q1.942-.846,3.866-1.726a.354.354,0,0,1,.293.644q-1.93.88-3.877,1.73A.341.341,0,0,1,127.107,314.185Zm7.717-3.512a.354.354,0,0,1-.151-.673q1.922-.906,3.824-1.826a.353.353,0,1,1,.307.636q-1.905.92-3.829,1.83A.373.373,0,0,1,134.824,310.673Zm-83.1-.335a.353.353,0,0,1-.241-.1c-1.031-.964-2.04-1.983-3-3.028a.353.353,0,1,1,.52-.478c.95,1.031,1.947,2.037,2.965,2.99a.353.353,0,0,1-.241.611Zm90.937-3.4-.2-.3-.155-.317.046-.022,3.761-1.84a.353.353,0,0,1,.31.634Zm-96.673-2.828a.351.351,0,0,1-.277-.133c-.878-1.105-1.728-2.26-2.528-3.432a.353.353,0,0,1,.584-.4c.791,1.159,1.631,2.3,2.5,3.391a.354.354,0,0,1-.056.5A.36.36,0,0,1,45.988,304.106Zm104.088-.84a.353.353,0,0,1-.155-.67l3.807-1.863a.353.353,0,1,1,.31.634l-3.806,1.863A.359.359,0,0,1,150.075,303.266Zm7.614-3.725a.353.353,0,0,1-.155-.671l3.807-1.863a.353.353,0,1,1,.31.634l-3.806,1.863A.359.359,0,0,1,157.689,299.541ZM41.213,297.11a.353.353,0,0,1-.306-.176c-.712-1.222-1.388-2.486-2.01-3.759a.353.353,0,0,1,.634-.31c.615,1.256,1.283,2.505,1.987,3.713a.352.352,0,0,1-.127.482A.346.346,0,0,1,41.213,297.11Zm163.444-1.154a.346.346,0,0,1-.132-.026,6.8,6.8,0,0,1-3.267-2.93.353.353,0,0,1,.607-.36,6.111,6.111,0,0,0,2.924,2.635.353.353,0,0,1-.132.68Zm4.11-.125a.353.353,0,0,1-.152-.672,6.7,6.7,0,0,0,2.844-2.761.353.353,0,1,1,.613.35,7.418,7.418,0,0,1-3.154,3.048A.345.345,0,0,1,208.766,295.831Zm-43.464-.016a.353.353,0,0,1-.155-.671l3.807-1.863a.353.353,0,1,1,.31.634l-3.807,1.863A.345.345,0,0,1,165.3,295.815Zm7.614-3.724a.353.353,0,0,1-.156-.67l3.807-1.863a.353.353,0,0,1,.31.634l-3.806,1.863A.359.359,0,0,1,172.917,292.091ZM37.49,289.5a.354.354,0,0,1-.328-.221c-.531-1.319-1.016-2.668-1.444-4.011a.353.353,0,1,1,.673-.214c.423,1.326.9,2.659,1.426,3.961a.353.353,0,0,1-.2.459A.344.344,0,0,1,37.49,289.5Zm162.9-.361a.352.352,0,0,1-.353-.344l0-.237c0-.109,0-.218.007-.327a11.76,11.76,0,0,1,.794-3.71.353.353,0,1,1,.66.251,11.087,11.087,0,0,0-.749,3.488c0,.1-.007.2-.007.3l0,.219a.354.354,0,0,1-.344.362Zm12.416-.27a.353.353,0,0,1-.353-.342,5.924,5.924,0,0,0-.342-1.836,7.889,7.889,0,0,0-1-1.9.353.353,0,1,1,.575-.41,8.568,8.568,0,0,1,1.088,2.071,6.632,6.632,0,0,1,.384,2.053.353.353,0,0,1-.342.364Zm-32.281-.507a.353.353,0,0,1-.155-.67l3.807-1.863a.353.353,0,0,1,.31.634l-3.807,1.863A.357.357,0,0,1,180.529,288.366Zm7.614-3.726a.353.353,0,0,1-.155-.67c1.285-.629,2.546-1.24,3.849-1.81a.353.353,0,1,1,.283.647c-1.291.565-2.545,1.172-3.822,1.8A.349.349,0,0,1,188.143,284.64Zm20.118-2.492a.346.346,0,0,1-.176-.047,12.775,12.775,0,0,0-3.849-1.427.354.354,0,0,1-.278-.281c-.176.244-.343.484-.506.724a.353.353,0,1,1-.586-.394c.4-.588.827-1.178,1.318-1.8.419-.536.855-1.069,1.3-1.581a.353.353,0,0,1,.536.46c-.433.505-.861,1.028-1.275,1.556q-.248.318-.478.623a.349.349,0,0,1,.111,0,13.3,13.3,0,0,1,4.064,1.509.353.353,0,0,1-.177.659Zm-173.338-.714a.352.352,0,0,1-.343-.272c-.328-1.386-.6-2.793-.819-4.185a.353.353,0,1,1,.7-.108c.213,1.373.485,2.763.808,4.13a.353.353,0,0,1-.262.424A.314.314,0,0,1,34.922,281.435Zm161.02-.09a.353.353,0,0,1-.1-.691,21.548,21.548,0,0,1,4.213-.866.362.362,0,0,1,.386.318.354.354,0,0,1-.318.386,20.809,20.809,0,0,0-4.075.838A.327.327,0,0,1,195.943,281.344Zm12.714-6.5a.353.353,0,0,1-.245-.607c1.018-.981,2.1-1.929,3.208-2.817a.353.353,0,1,1,.441.552c-1.093.874-2.156,1.807-3.159,2.774A.354.354,0,0,1,208.657,274.84ZM33.629,273.068a.354.354,0,0,1-.352-.327c-.089-1.224-.133-2.459-.133-3.67q0-.3,0-.594a.353.353,0,0,1,.353-.349h0a.353.353,0,0,1,.349.357q0,.293,0,.587c0,1.193.044,2.412.132,3.619a.353.353,0,0,1-.327.378Zm181.636-3.517a.353.353,0,0,1-.2-.648c1.178-.779,2.41-1.517,3.661-2.194a.353.353,0,1,1,.335.621c-1.233.667-2.446,1.394-3.608,2.162A.345.345,0,0,1,215.266,269.551Zm7.447-4.024a.353.353,0,0,1-.14-.677c1.3-.561,2.646-1.069,3.992-1.511a.354.354,0,1,1,.22.672c-1.326.435-2.649.936-3.933,1.488A.352.352,0,0,1,222.712,265.527ZM33.736,264.6H33.7a.353.353,0,0,1-.316-.387c.141-1.416.348-2.837.614-4.224a.353.353,0,1,1,.693.133c-.262,1.365-.466,2.765-.6,4.161A.353.353,0,0,1,33.736,264.6Zm234.905-.018h-.01c-1.342-.037-2.732-.123-4.251-.262a.353.353,0,0,1,.064-.7c1.5.138,2.88.224,4.206.26a.353.353,0,0,1-.01.706Zm4.239-.07a.353.353,0,0,1-.022-.705c1.386-.089,2.792-.248,4.176-.472a.353.353,0,0,1,.113.7c-1.407.228-2.834.389-4.244.479Zm-12.678-.672a.281.281,0,0,1-.047,0c-1.4-.185-2.8-.39-4.2-.6a.352.352,0,0,1-.3-.4.357.357,0,0,1,.4-.3c1.4.205,2.793.41,4.191.6a.353.353,0,0,1-.046.7Zm21.034-.672a.353.353,0,0,1-.088-.695c1.345-.346,2.7-.76,4.02-1.231a.353.353,0,0,1,.237.665c-1.344.478-2.716.9-4.081,1.25A.357.357,0,0,1,281.236,263.172Zm-50.481-.281a.353.353,0,0,1-.079-.7c1.39-.32,2.8-.577,4.2-.764a.353.353,0,1,1,.093.7c-1.376.184-2.767.438-4.136.752A.3.3,0,0,1,230.756,262.892Zm21.056-.251a.319.319,0,0,1-.049,0c-1.6-.222-2.933-.386-4.193-.518a.352.352,0,0,1-.314-.388.356.356,0,0,1,.388-.314c1.269.132,2.609.3,4.218.52a.353.353,0,0,1-.049.7Zm-8.431-.844h-.016c-1.256-.057-2.456-.072-3.647-.043l-.56.018a.36.36,0,0,1-.367-.34.354.354,0,0,1,.34-.367l.568-.018c1.21-.03,2.425-.014,3.7.043a.353.353,0,0,1-.016.707Zm45.831-1.452a.353.353,0,0,1-.146-.674c1.264-.575,2.528-1.215,3.753-1.9a.353.353,0,1,1,.344.616c-1.243.695-2.523,1.343-3.806,1.927A.363.363,0,0,1,289.212,260.345ZM43.044,259.229a.353.353,0,0,1-.045-.7,6.946,6.946,0,0,0,.854-.166,5.189,5.189,0,0,0,2.572-1.662.353.353,0,1,1,.534.463,5.885,5.885,0,0,1-2.927,1.882,7.438,7.438,0,0,1-.943.184A.251.251,0,0,1,43.044,259.229Zm-4.133-.653a.356.356,0,0,1-.142-.03,10.94,10.94,0,0,1-3.278-2.281.348.348,0,0,1-.253.013.353.353,0,0,1-.226-.445,17.732,17.732,0,0,1,1.842-3.9.353.353,0,0,1,.6.378,17.07,17.07,0,0,0-1.615,3.3,10.3,10.3,0,0,0,3.218,2.292.353.353,0,0,1-.143.676ZM296.6,256.218a.353.353,0,0,1-.2-.646c1.155-.773,2.3-1.606,3.4-2.477a.353.353,0,1,1,.437.555c-1.118.882-2.278,1.726-3.448,2.509A.351.351,0,0,1,296.6,256.218ZM48.387,253.461a.379.379,0,0,1-.047,0,.354.354,0,0,1-.3-.4,6.384,6.384,0,0,0,.056-.844,4.716,4.716,0,0,0-.907-2.919.353.353,0,1,1,.559-.432,5.411,5.411,0,0,1,1.054,3.35,7.238,7.238,0,0,1-.062.937A.353.353,0,0,1,48.387,253.461Zm-15.177-.889a.353.353,0,0,1-.327-.22q-.087-.215-.164-.43a15.845,15.845,0,0,1-.823-3.78.353.353,0,1,1,.7-.068,15.142,15.142,0,0,0,.786,3.611c.048.135.1.27.153.4a.353.353,0,0,1-.195.46A.335.335,0,0,1,33.211,252.572Zm270.042-1.6a.353.353,0,0,1-.24-.613c1.029-.949,2.033-1.949,2.984-2.971a.353.353,0,1,1,.518.481c-.964,1.036-1.981,2.048-3.022,3.009A.352.352,0,0,1,303.253,250.975Zm-263.345-1.7a.353.353,0,0,1-.222-.627A6.563,6.563,0,0,1,43.753,247h0a.353.353,0,0,1,0,.706,5.88,5.88,0,0,0-3.628,1.491A.349.349,0,0,1,39.909,249.273Zm269.113-4.5a.353.353,0,0,1-.276-.573c.873-1.1,1.711-2.238,2.492-3.394a.353.353,0,1,1,.586.4c-.792,1.17-1.641,2.328-2.526,3.437A.35.35,0,0,1,309.021,244.774Zm-276.748-.547H32.24a.353.353,0,0,1-.319-.385,39.522,39.522,0,0,1,.656-4.224.353.353,0,1,1,.691.142,38.763,38.763,0,0,0-.644,4.148A.353.353,0,0,1,32.273,244.227Zm281.49-6.471a.352.352,0,0,1-.308-.527c.693-1.222,1.339-2.481,1.924-3.743a.353.353,0,0,1,.641.3c-.591,1.28-1.247,2.557-1.949,3.8A.354.354,0,0,1,313.764,237.757ZM33.882,235.915a.336.336,0,0,1-.087-.011.353.353,0,0,1-.256-.428c.348-1.376.726-2.755,1.124-4.1a.353.353,0,1,1,.677.2c-.394,1.338-.77,2.709-1.116,4.075A.354.354,0,0,1,33.882,235.915Zm283.432-5.845a.352.352,0,0,1-.332-.473c.479-1.319.9-2.668,1.262-4.012a.353.353,0,1,1,.683.182c-.365,1.363-.8,2.733-1.281,4.071A.352.352,0,0,1,317.314,230.07ZM36.281,227.784a.36.36,0,0,1-.113-.018.353.353,0,0,1-.221-.448c.457-1.35.945-2.694,1.449-4a.353.353,0,1,1,.659.255c-.5,1.3-.985,2.631-1.439,3.971A.353.353,0,0,1,36.281,227.784Zm283.21-5.891a.313.313,0,0,1-.06-.005.352.352,0,0,1-.288-.407c.236-1.378.408-2.78.512-4.169a.353.353,0,1,1,.7.052c-.106,1.411-.282,2.836-.522,4.235A.352.352,0,0,1,319.491,221.893ZM39.34,219.881a.361.361,0,0,1-.142-.03.354.354,0,0,1-.182-.466c.574-1.307,1.18-2.6,1.8-3.854a.353.353,0,0,1,.633.314c-.616,1.241-1.217,2.528-1.786,3.825A.352.352,0,0,1,39.34,219.881Zm280.779-6.424a.353.353,0,0,1-.353-.345,37.162,37.162,0,0,0-.319-4.184.353.353,0,0,1,.7-.1,37.817,37.817,0,0,1,.325,4.264.353.353,0,0,1-.345.361ZM43.111,212.3a.349.349,0,0,1-.173-.045.354.354,0,0,1-.136-.481c.7-1.244,1.432-2.474,2.18-3.656a.353.353,0,1,1,.6.378c-.742,1.171-1.469,2.39-2.16,3.623A.354.354,0,0,1,43.111,212.3ZM303.6,209.125c-.129,0-.258,0-.385-.01a.354.354,0,0,1-.336-.37.348.348,0,0,1,.37-.335,9.106,9.106,0,0,0,3.972-.781.353.353,0,1,1,.272.651A10.127,10.127,0,0,1,303.6,209.125Zm-4.255-1.5a.355.355,0,0,1-.226-.081c-.152-.127-.3-.26-.449-.4a6.466,6.466,0,0,1-1.821-3.35.353.353,0,0,1,.691-.148,5.767,5.767,0,0,0,1.624,2.991q.2.194.407.367a.353.353,0,0,1-.226.625Zm11.625-1.506a.354.354,0,0,1-.222-.629,16.861,16.861,0,0,0,2.882-2.975.353.353,0,1,1,.564.425,17.56,17.56,0,0,1-3,3.1A.353.353,0,0,1,310.975,206.12Zm-263.325-.976a.353.353,0,0,1-.287-.559c.832-1.159,1.7-2.3,2.586-3.383a.353.353,0,1,1,.548.445c-.875,1.075-1.737,2.2-2.56,3.349A.352.352,0,0,1,47.651,205.145Zm271.264-.053a.354.354,0,0,1-.339-.252,19.759,19.759,0,0,0-1.59-3.84.353.353,0,0,1,.619-.34,20.5,20.5,0,0,1,1.647,3.977.353.353,0,0,1-.236.44A.342.342,0,0,1,318.915,205.092Zm-21.456-5.2a.354.354,0,0,1-.337-.46,9.571,9.571,0,0,1,2.223-3.755.353.353,0,1,1,.508.491,8.846,8.846,0,0,0-2.056,3.477A.353.353,0,0,1,297.459,199.888ZM316,199.405a.353.353,0,0,1-.324-.493A24.581,24.581,0,0,0,317,194.953a.353.353,0,1,1,.686.166,25.352,25.352,0,0,1-1.357,4.073A.352.352,0,0,1,316,199.405Zm-263-.822a.353.353,0,0,1-.258-.594c.972-1.045,1.983-2.061,3.005-3.02a.353.353,0,0,1,.484.515c-1.011.948-2.01,1.952-2.971,2.986A.355.355,0,0,1,53,198.583Zm261.792-.806a.354.354,0,0,1-.251-.1,13.551,13.551,0,0,0-3.306-2.45.353.353,0,0,1,.33-.625,14.282,14.282,0,0,1,3.478,2.578.353.353,0,0,1-.251.6ZM303.2,194.149a.353.353,0,0,1-.1-.693,10.4,10.4,0,0,1,4.348-.234.353.353,0,1,1-.1.7,9.715,9.715,0,0,0-4.053.217A.335.335,0,0,1,303.2,194.149ZM59.186,192.8a.353.353,0,0,1-.222-.628c1.105-.9,2.253-1.756,3.41-2.559a.353.353,0,1,1,.4.581c-1.143.793-2.277,1.642-3.368,2.527A.349.349,0,0,1,59.186,192.8ZM318,191.207h-.028a.353.353,0,0,1-.325-.379c.053-.684.079-1.387.08-2.091s-.026-1.393-.077-2.089a.353.353,0,0,1,.7-.052c.052.713.079,1.433.079,2.141s-.028,1.443-.081,2.145A.353.353,0,0,1,318,191.207Zm-.6-8.423a.353.353,0,0,1-.344-.279,32.061,32.061,0,0,0-1.146-4.028.353.353,0,1,1,.665-.237,32.906,32.906,0,0,1,1.172,4.117.353.353,0,0,1-.271.419A.373.373,0,0,1,317.394,182.784Zm-2.831-7.965a.352.352,0,0,1-.315-.194,33.585,33.585,0,0,0-2.125-3.614.354.354,0,0,1,.586-.4,34.388,34.388,0,0,1,2.17,3.69.354.354,0,0,1-.155.475A.361.361,0,0,1,314.563,174.819Zm-4.742-7a.353.353,0,0,1-.264-.119,30.586,30.586,0,0,0-2.982-2.94.353.353,0,1,1,.46-.536,31.258,31.258,0,0,1,3.051,3.008.353.353,0,0,1-.264.587Zm-6.423-5.491a.353.353,0,0,1-.188-.054,26.267,26.267,0,0,0-3.7-1.941.353.353,0,0,1,.277-.649,27.059,27.059,0,0,1,3.8,1.992.353.353,0,0,1-.189.652Zm-7.764-3.293a.355.355,0,0,1-.082-.01c-.777-.185-1.572-.332-2.36-.438-.563-.075-1.142-.137-1.771-.188a.352.352,0,0,1-.323-.381.362.362,0,0,1,.38-.323c.642.052,1.233.115,1.808.192.812.109,1.629.26,2.43.451a.354.354,0,0,1-.082.7Zm-8.417-.819h-.007l-1.174-.02c-1.026-.016-2.052-.033-3.07-.072a.353.353,0,0,1,.012-.707h.013c1.014.038,2.034.054,3.055.072l1.177.02a.353.353,0,0,1-.007.707Zm-8.462-.432a.421.421,0,0,1-.05,0,21.429,21.429,0,0,1-4.184-.985.353.353,0,1,1,.235-.667,20.749,20.749,0,0,0,4.049.953.353.353,0,0,1-.049.7Zm-7.872-2.9a.353.353,0,0,1-.2-.065,18.487,18.487,0,0,1-3.186-2.9.353.353,0,0,1,.529-.468,17.781,17.781,0,0,0,3.064,2.789.354.354,0,0,1-.2.642Zm-5.687-6.214a.352.352,0,0,1-.293-.157c-.8-1.2-1.557-2.438-2.261-3.606a.353.353,0,0,1,.6-.365c.7,1.161,1.449,2.393,2.243,3.577a.354.354,0,0,1-.294.55Zm-4.466-7.207a.351.351,0,0,1-.3-.163A36.68,36.68,0,0,0,258,137.887a.353.353,0,1,1,.547-.446,37.085,37.085,0,0,1,2.484,3.481.354.354,0,0,1-.3.545Zm-5.446-6.44a.352.352,0,0,1-.218-.076,13.576,13.576,0,0,0-3.023-1.822.353.353,0,1,1,.282-.648A14.25,14.25,0,0,1,255.5,134.4a.353.353,0,0,1-.219.63Z" transform="translate(-31.894 -132.452)" fill="#a39686"/>
                </g>
                <g id="Grupo_1231016" data-name="Grupo 1231016" transform="translate(21.882 142.649)">
                  <g id="Grupo_1231002" data-name="Grupo 1231002">
                    <g id="Grupo_1231001" data-name="Grupo 1231001">
                      <g id="Grupo_1230996" data-name="Grupo 1230996">
                        <path id="Trazado_1220089" data-name="Trazado 1220089" d="M155.507,337.522H65.249V279.437a3.776,3.776,0,0,1,3.776-3.776h82.706a3.776,3.776,0,0,1,3.776,3.776Z" transform="translate(-65.249 -275.661)" fill="#eae2d3"/>
                      </g>
                      <g id="Grupo_1230997" data-name="Grupo 1230997" transform="translate(0 0)">
                        <path id="Trazado_1220090" data-name="Trazado 1220090" d="M155.507,284.472H65.249v-5.035a3.776,3.776,0,0,1,3.776-3.776h82.706a3.776,3.776,0,0,1,3.776,3.776Z" transform="translate(-65.249 -275.661)" fill="#5d9dc1"/>
                      </g>
                      <g id="Grupo_1230998" data-name="Grupo 1230998" transform="translate(5.899 3.128)">
                        <circle id="Elipse_14606" data-name="Elipse 14606" cx="1.58" cy="1.58" r="1.58" fill="#fff"/>
                      </g>
                      <g id="Grupo_1230999" data-name="Grupo 1230999" transform="translate(10.534 3.128)">
                        <circle id="Elipse_14607" data-name="Elipse 14607" cx="1.58" cy="1.58" r="1.58" fill="#f84558"/>
                      </g>
                      <g id="Grupo_1231000" data-name="Grupo 1231000" transform="translate(15.169 3.128)">
                        <circle id="Elipse_14608" data-name="Elipse 14608" cx="1.58" cy="1.58" r="1.58" fill="#ffca7a"/>
                      </g>
                    </g>
                  </g>
                  <g id="Grupo_1231015" data-name="Grupo 1231015" transform="translate(16.682 18.886)">
                    <g id="Grupo_1231006" data-name="Grupo 1231006">
                      <g id="Grupo_1231004" data-name="Grupo 1231004">
                        <g id="Grupo_1231003" data-name="Grupo 1231003">
                          <path id="Trazado_1220091" data-name="Trazado 1220091" d="M94.549,332.843a2.868,2.868,0,0,1-.037-.535c.033-6.927,4.506-13.221,4.708-20.146a4.912,4.912,0,0,0-.626-2.935,2.092,2.092,0,0,0-2.65-.8,2.123,2.123,0,0,0-.894,1.9,6.25,6.25,0,0,0,.575,2.113,4.306,4.306,0,0,1-3.242.808c-1.612-.5-2.026-2.687-1.476-4.282,1.439-4.18,7.485-6.048,10.877-3.045,2.243,1.985,2.574,5.434,1.842,8.339s-2.322,5.51-3.408,8.3A25.079,25.079,0,0,0,98.6,333.576a9.177,9.177,0,0,1-2.881.132,1.444,1.444,0,0,1-.932-.361A1.014,1.014,0,0,1,94.549,332.843Z" transform="translate(-90.677 -304.449)" fill="#f84558"/>
                        </g>
                      </g>
                      <g id="Grupo_1231005" data-name="Grupo 1231005" transform="translate(3.39 30.403)">
                        <circle id="Elipse_14609" data-name="Elipse 14609" cx="2.429" cy="2.429" r="2.429" fill="#f84558"/>
                      </g>
                    </g>
                    <g id="Grupo_1231010" data-name="Grupo 1231010" transform="translate(21.833)">
                      <g id="Grupo_1231008" data-name="Grupo 1231008">
                        <g id="Grupo_1231007" data-name="Grupo 1231007">
                          <path id="Trazado_1220092" data-name="Trazado 1220092" d="M127.828,332.843a2.814,2.814,0,0,1-.037-.535c.033-6.927,4.506-13.221,4.708-20.146a4.912,4.912,0,0,0-.626-2.935,2.092,2.092,0,0,0-2.65-.8,2.123,2.123,0,0,0-.894,1.9,6.249,6.249,0,0,0,.575,2.113,4.306,4.306,0,0,1-3.242.808c-1.612-.5-2.026-2.687-1.476-4.282,1.439-4.18,7.485-6.048,10.877-3.045,2.243,1.985,2.574,5.434,1.842,8.339s-2.322,5.51-3.408,8.3a25.079,25.079,0,0,0-1.623,11.013,9.177,9.177,0,0,1-2.881.132,1.444,1.444,0,0,1-.932-.361A1.014,1.014,0,0,1,127.828,332.843Z" transform="translate(-123.956 -304.449)" fill="#f84558"/>
                        </g>
                      </g>
                      <g id="Grupo_1231009" data-name="Grupo 1231009" transform="translate(3.39 30.403)">
                        <circle id="Elipse_14610" data-name="Elipse 14610" cx="2.429" cy="2.429" r="2.429" fill="#f84558"/>
                      </g>
                    </g>
                    <g id="Grupo_1231014" data-name="Grupo 1231014" transform="translate(43.596)">
                      <g id="Grupo_1231012" data-name="Grupo 1231012">
                        <g id="Grupo_1231011" data-name="Grupo 1231011">
                          <path id="Trazado_1220093" data-name="Trazado 1220093" d="M161,332.843a2.812,2.812,0,0,1-.037-.535c.033-6.927,4.506-13.221,4.708-20.146a4.912,4.912,0,0,0-.626-2.935,2.092,2.092,0,0,0-2.65-.8,2.123,2.123,0,0,0-.894,1.9,6.249,6.249,0,0,0,.575,2.113,4.306,4.306,0,0,1-3.242.808c-1.612-.5-2.026-2.687-1.476-4.282,1.439-4.18,7.485-6.048,10.877-3.045,2.243,1.985,2.574,5.434,1.842,8.339s-2.322,5.51-3.408,8.3a25.079,25.079,0,0,0-1.623,11.013,9.177,9.177,0,0,1-2.881.132,1.444,1.444,0,0,1-.932-.361A1.008,1.008,0,0,1,161,332.843Z" transform="translate(-157.128 -304.449)" fill="#f84558"/>
                        </g>
                      </g>
                      <g id="Grupo_1231013" data-name="Grupo 1231013" transform="translate(3.39 30.403)">
                        <circle id="Elipse_14611" data-name="Elipse 14611" cx="2.429" cy="2.429" r="2.429" fill="#f84558"/>
                      </g>
                    </g>
                  </g>
                </g>
                <g id="Grupo_1231051" data-name="Grupo 1231051" transform="translate(14.117)">
                  <g id="Grupo_1231023" data-name="Grupo 1231023">
                    <g id="Grupo_1231017" data-name="Grupo 1231017" transform="translate(0 2.227)">
                      <path id="Trazado_1220094" data-name="Trazado 1220094" d="M215.83,188.652H67.624A14.212,14.212,0,0,1,53.413,174.44V75.832A14.212,14.212,0,0,1,67.624,61.621H215.831a14.212,14.212,0,0,1,14.211,14.211V174.44A14.212,14.212,0,0,1,215.83,188.652Z" transform="translate(-53.413 -61.621)" fill="#eae2d3"/>
                    </g>
                    <g id="Grupo_1231018" data-name="Grupo 1231018" transform="translate(0)">
                      <path id="Trazado_1220095" data-name="Trazado 1220095" d="M230.042,80.18H53.413V70.21A11.984,11.984,0,0,1,65.4,58.226h152.66A11.984,11.984,0,0,1,230.041,70.21v9.97Z" transform="translate(-53.413 -58.226)" fill="#5d9dc1"/>
                    </g>
                    <g id="Grupo_1231022" data-name="Grupo 1231022" transform="translate(13.898 7.509)">
                      <g id="Grupo_1231019" data-name="Grupo 1231019">
                        <circle id="Elipse_14612" data-name="Elipse 14612" cx="3.469" cy="3.469" r="3.469" fill="#fff"/>
                      </g>
                      <g id="Grupo_1231020" data-name="Grupo 1231020" transform="translate(10.227)">
                        <circle id="Elipse_14613" data-name="Elipse 14613" cx="3.469" cy="3.469" r="3.469" fill="#fff"/>
                      </g>
                      <g id="Grupo_1231021" data-name="Grupo 1231021" transform="translate(19.898)">
                        <circle id="Elipse_14614" data-name="Elipse 14614" cx="3.469" cy="3.469" r="3.469" fill="#fff"/>
                      </g>
                    </g>
                  </g>
                  <g id="Grupo_1231047" data-name="Grupo 1231047" transform="translate(10.336 35.459)">
                    <g id="Grupo_1231024" data-name="Grupo 1231024">
                      <rect id="Rectángulo_422877" data-name="Rectángulo 422877" width="9.95" height="3.875" fill="#5d9dc1"/>
                    </g>
                    <g id="Grupo_1231025" data-name="Grupo 1231025" transform="translate(0 7.703)">
                      <rect id="Rectángulo_422878" data-name="Rectángulo 422878" width="28.833" height="3.875" fill="#5d9dc1"/>
                    </g>
                    <g id="Grupo_1231026" data-name="Grupo 1231026" transform="translate(0 15.405)">
                      <rect id="Rectángulo_422879" data-name="Rectángulo 422879" width="19.898" height="3.875" fill="#5d9dc1"/>
                    </g>
                    <g id="Grupo_1231027" data-name="Grupo 1231027" transform="translate(0 23.108)">
                      <rect id="Rectángulo_422880" data-name="Rectángulo 422880" width="8.031" height="3.875" fill="#5d9dc1"/>
                    </g>
                    <g id="Grupo_1231028" data-name="Grupo 1231028" transform="translate(0 30.811)">
                      <rect id="Rectángulo_422881" data-name="Rectángulo 422881" width="36.057" height="3.875" fill="#5d9dc1"/>
                    </g>
                    <g id="Grupo_1231029" data-name="Grupo 1231029" transform="translate(0 38.514)">
                      <rect id="Rectángulo_422882" data-name="Rectángulo 422882" width="24.971" height="3.875" fill="#5d9dc1"/>
                    </g>
                    <g id="Grupo_1231030" data-name="Grupo 1231030" transform="translate(0 46.216)">
                      <rect id="Rectángulo_422883" data-name="Rectángulo 422883" width="13.695" height="3.875" fill="#5d9dc1"/>
                    </g>
                    <g id="Grupo_1231031" data-name="Grupo 1231031" transform="translate(13.512)">
                      <rect id="Rectángulo_422884" data-name="Rectángulo 422884" width="30.642" height="3.875" fill="#f84558"/>
                    </g>
                    <g id="Grupo_1231032" data-name="Grupo 1231032" transform="translate(32.196 7.703)">
                      <rect id="Rectángulo_422885" data-name="Rectángulo 422885" width="19.058" height="3.875" fill="#f84558"/>
                    </g>
                    <g id="Grupo_1231033" data-name="Grupo 1231033" transform="translate(39.794 30.811)">
                      <rect id="Rectángulo_422886" data-name="Rectángulo 422886" width="19.058" height="3.875" fill="#f84558"/>
                    </g>
                    <g id="Grupo_1231034" data-name="Grupo 1231034" transform="translate(62.776 30.811)">
                      <rect id="Rectángulo_422887" data-name="Rectángulo 422887" width="11.211" height="3.875" fill="#f84558"/>
                    </g>
                    <g id="Grupo_1231035" data-name="Grupo 1231035" transform="translate(54.867 7.703)">
                      <rect id="Rectángulo_422888" data-name="Rectángulo 422888" width="9.529" height="3.875" fill="#f84558"/>
                    </g>
                    <g id="Grupo_1231036" data-name="Grupo 1231036" transform="translate(23.228 15.405)">
                      <rect id="Rectángulo_422889" data-name="Rectángulo 422889" width="16.567" height="3.875" fill="#f84558"/>
                    </g>
                    <g id="Grupo_1231037" data-name="Grupo 1231037" transform="translate(42.971 15.405)">
                      <rect id="Rectángulo_422890" data-name="Rectángulo 422890" width="31.445" height="3.875" fill="#f84558"/>
                    </g>
                    <g id="Grupo_1231038" data-name="Grupo 1231038" transform="translate(11.112 23.108)">
                      <rect id="Rectángulo_422891" data-name="Rectángulo 422891" width="31.445" height="3.875" fill="#f84558"/>
                    </g>
                    <g id="Grupo_1231039" data-name="Grupo 1231039" transform="translate(45.989 23.108)">
                      <rect id="Rectángulo_422892" data-name="Rectángulo 422892" width="14.565" height="3.875" fill="#f84558"/>
                    </g>
                    <g id="Grupo_1231040" data-name="Grupo 1231040" transform="translate(64.395 23.108)">
                      <rect id="Rectángulo_422893" data-name="Rectángulo 422893" width="22.317" height="3.875" fill="#f84558"/>
                    </g>
                    <g id="Grupo_1231041" data-name="Grupo 1231041" transform="translate(17.674 46.216)">
                      <rect id="Rectángulo_422894" data-name="Rectángulo 422894" width="22.317" height="3.875" fill="#f84558"/>
                    </g>
                    <g id="Grupo_1231042" data-name="Grupo 1231042" transform="translate(43.708 46.216)">
                      <rect id="Rectángulo_422895" data-name="Rectángulo 422895" width="22.317" height="3.875" fill="#f84558"/>
                    </g>
                    <g id="Grupo_1231043" data-name="Grupo 1231043" transform="translate(69.284 46.216)">
                      <rect id="Rectángulo_422896" data-name="Rectángulo 422896" width="11.159" height="3.875" fill="#f84558"/>
                    </g>
                    <g id="Grupo_1231044" data-name="Grupo 1231044" transform="translate(28.833 38.514)">
                      <rect id="Rectángulo_422897" data-name="Rectángulo 422897" width="22.317" height="3.875" fill="#f84558"/>
                    </g>
                    <g id="Grupo_1231045" data-name="Grupo 1231045" transform="translate(54.867 38.514)">
                      <rect id="Rectángulo_422898" data-name="Rectángulo 422898" width="7.909" height="3.875" fill="#f84558"/>
                    </g>
                    <g id="Grupo_1231046" data-name="Grupo 1231046" transform="translate(66.077 38.514)">
                      <rect id="Rectángulo_422899" data-name="Rectángulo 422899" width="18.56" height="3.875" fill="#f84558"/>
                    </g>
                  </g>
                  <g id="Grupo_1231048" data-name="Grupo 1231048" transform="translate(104.15 31.032)">
                    <path id="Trazado_1220096" data-name="Trazado 1220096" d="M265.461,121.724a7.85,7.85,0,0,0-1.192.1,11.831,11.831,0,0,0-16.956-9.978,11.825,11.825,0,0,0-22.253,4.585,10.67,10.67,0,1,0-2.225,21.106h42.626a7.906,7.906,0,0,0,0-15.812Z" transform="translate(-212.165 -105.527)" fill="#00ac64"/>
                  </g>
                  <g id="Grupo_1231049" data-name="Grupo 1231049" transform="translate(13.567 65.381)">
                    <path id="Trazado_1220097" data-name="Trazado 1220097" d="M174.5,208.251h-3.975a.331.331,0,1,1,0-.663H174.5a.331.331,0,1,1,0,.663Zm-7.951,0h-3.976a.331.331,0,1,1,0-.663h3.976a.331.331,0,1,1,0,.663Zm-7.951,0h-3.975a.331.331,0,0,1,0-.663H158.6a.331.331,0,1,1,0,.663Zm-7.951,0h-3.976a.331.331,0,1,1,0-.663h3.976a.331.331,0,1,1,0,.663Zm-7.951,0h-3.975a.331.331,0,0,1,0-.663H142.7a.331.331,0,1,1,0,.663Zm-7.95,0h-3.976a.331.331,0,0,1,0-.663h3.976a.331.331,0,1,1,0,.663Zm-7.951,0h-3.976a.331.331,0,1,1,0-.663H126.8a.331.331,0,1,1,0,.663Zm-7.951,0h-3.976a.331.331,0,0,1,0-.663h3.976a.331.331,0,0,1,0,.663Zm-7.951,0h-3.976a.331.331,0,0,1,0-.663H110.9a.331.331,0,0,1,0,.663Zm-7.951,0H98.971a.331.331,0,0,1,0-.663h3.975a.331.331,0,0,1,0,.663Zm-7.951,0H91.019a.331.331,0,0,1,0-.663h3.976a.331.331,0,0,1,0,.663Zm-7.951,0H83.069a.331.331,0,0,1,0-.663h3.975a.331.331,0,0,1,0,.663Zm-7.951,0H75.118a.331.331,0,0,1,0-.663h3.976a.331.331,0,0,1,0,.663Zm-4.669-3.281a.331.331,0,0,1-.331-.331v-3.976a.331.331,0,1,1,.663,0v3.976A.331.331,0,0,1,74.424,204.97Zm0-7.951a.331.331,0,0,1-.331-.331v-3.976a.331.331,0,1,1,.663,0v3.976A.331.331,0,0,1,74.424,197.02Zm140.747-5.865h-3.5a.331.331,0,1,1,0-.663h2.839v-.474a.331.331,0,0,1,.663,0Zm-7.476,0H203.72a.331.331,0,1,1,0-.663H207.7a.331.331,0,1,1,0,.663Zm-7.951,0h-3.976a.331.331,0,1,1,0-.663h3.976a.331.331,0,1,1,0,.663Zm-7.951,0h-3.975a.331.331,0,1,1,0-.663h3.975a.331.331,0,1,1,0,.663Zm-7.951,0h-3.976a.331.331,0,1,1,0-.663h3.976a.331.331,0,1,1,0,.663Zm-7.951,0h-3.976a.331.331,0,1,1,0-.663h3.976a.331.331,0,1,1,0,.663Zm-7.95,0h-3.976a.331.331,0,1,1,0-.663h3.976a.331.331,0,1,1,0,.663Zm-7.951,0h-3.975a.331.331,0,0,1,0-.663h3.975a.331.331,0,1,1,0,.663Zm-7.951,0h-3.976a.331.331,0,1,1,0-.663h3.976a.331.331,0,1,1,0,.663Zm-7.951,0h-3.975a.331.331,0,1,1,0-.663h3.975a.331.331,0,1,1,0,.663Zm-7.951,0h-3.976a.331.331,0,1,1,0-.663h3.976a.331.331,0,1,1,0,.663Zm-7.951,0h-3.976a.331.331,0,1,1,0-.663h3.976a.331.331,0,1,1,0,.663Zm-7.951,0h-3.976a.331.331,0,1,1,0-.663h3.976a.331.331,0,1,1,0,.663Zm-7.95,0h-3.976a.331.331,0,1,1,0-.663h3.976a.331.331,0,1,1,0,.663Zm-7.951,0h-3.975a.331.331,0,1,1,0-.663h3.975a.331.331,0,1,1,0,.663Zm-7.951,0H92.411a.331.331,0,1,1,0-.663h3.976a.331.331,0,1,1,0,.663Zm-7.951,0H84.461a.331.331,0,1,1,0-.663h3.975a.331.331,0,1,1,0,.663Zm-7.951,0H76.509a.331.331,0,1,1,0-.663h3.976a.331.331,0,1,1,0,.663Zm134.356-4.781a.331.331,0,0,1-.331-.331v-3.976a.331.331,0,1,1,.663,0v3.976A.332.332,0,0,1,214.841,186.374Zm0-7.95a.331.331,0,0,1-.331-.331v-3.976a.331.331,0,0,1,.663,0v3.976A.332.332,0,0,1,214.841,178.424Zm0-7.951a.331.331,0,0,1-.331-.331v-3.976a.331.331,0,0,1,.663,0v3.976A.332.332,0,0,1,214.841,170.473Zm0-7.951a.331.331,0,0,1-.331-.331v-3.976a.331.331,0,1,1,.663,0v3.976A.332.332,0,0,1,214.841,162.522Z" transform="translate(-74.093 -157.884)" fill="#a39686"/>
                  </g>
                  <g id="Grupo_1231050" data-name="Grupo 1231050" transform="translate(53.713 65.918)">
                    <path id="Trazado_1220098" data-name="Trazado 1220098" d="M198.293,202.813H195a.331.331,0,0,1,0-.663h3.289a.331.331,0,1,1,0,.663Zm-7.264,0h-3.975a.331.331,0,0,1,0-.663h3.975a.331.331,0,0,1,0,.663Zm-7.951,0H179.1a.331.331,0,0,1,0-.663h3.976a.331.331,0,0,1,0,.663Zm-7.951,0h-3.975a.331.331,0,0,1,0-.663h3.975a.331.331,0,0,1,0,.663Zm-7.951,0H163.2a.331.331,0,0,1,0-.663h3.976a.331.331,0,0,1,0,.663Zm-7.951,0H155.25a.331.331,0,0,1,0-.663h3.976a.331.331,0,1,1,0,.663Zm-7.951,0H147.3a.331.331,0,0,1,0-.663h3.976a.331.331,0,0,1,0,.663Zm-7.95,0h-3.976a.331.331,0,0,1,0-.663h3.976a.331.331,0,0,1,0,.663Zm-7.709-.243a.331.331,0,0,1-.331-.331v-3.975a.331.331,0,1,1,.663,0v3.975A.331.331,0,0,1,135.616,202.57Zm0-7.95a.331.331,0,0,1-.331-.331v-3.976a.331.331,0,1,1,.663,0v3.976A.332.332,0,0,1,135.616,194.62Zm0-7.951a.331.331,0,0,1-.331-.331v-.878h3.759a.331.331,0,1,1,0,.663h-3.1v.216A.33.33,0,0,1,135.616,186.668Zm64.46-.547h-1.4a.331.331,0,0,1,0-.663h.74v-2.573a.331.331,0,1,1,.663,0Zm-5.378,0h-3.975a.331.331,0,0,1,0-.663H194.7a.331.331,0,0,1,0,.663Zm-7.951,0h-3.976a.331.331,0,0,1,0-.663h3.976a.331.331,0,0,1,0,.663Zm-7.951,0h-3.975a.331.331,0,1,1,0-.663H178.8a.331.331,0,0,1,0,.663Zm-7.951,0h-3.976a.331.331,0,0,1,0-.663h3.976a.331.331,0,0,1,0,.663Zm-7.95,0h-3.976a.331.331,0,1,1,0-.663H162.9a.331.331,0,0,1,0,.663Zm-7.951,0H150.97a.331.331,0,0,1,0-.663h3.976a.331.331,0,1,1,0,.663Zm-7.951,0h-3.976a.331.331,0,1,1,0-.663h3.976a.331.331,0,0,1,0,.663Zm52.75-6.879a.331.331,0,0,1-.331-.331v-3.976a.331.331,0,0,1,.663,0v3.976A.331.331,0,0,1,199.745,179.242Zm0-7.951a.331.331,0,0,1-.331-.331v-3.976a.331.331,0,0,1,.663,0v3.976A.331.331,0,0,1,199.745,171.291Zm0-7.951a.331.331,0,0,1-.331-.331v-3.976a.331.331,0,0,1,.663,0v3.976A.331.331,0,0,1,199.745,163.34Z" transform="translate(-135.285 -158.702)" fill="#a39686"/>
                  </g>
                </g>
                <g id="Grupo_1231054" data-name="Grupo 1231054" transform="translate(250.473 204.148)">
                  <g id="Grupo_1231052" data-name="Grupo 1231052">
                    <path id="Trazado_1220099" data-name="Trazado 1220099" d="M428.888,386.926a2.311,2.311,0,0,1-1.639-.679l-12.888-12.888a2.319,2.319,0,0,1,3.279-3.279l12.888,12.888a2.318,2.318,0,0,1-1.639,3.958Z" transform="translate(-413.681 -369.4)" fill="#ffca7a"/>
                  </g>
                  <g id="Grupo_1231053" data-name="Grupo 1231053">
                    <path id="Trazado_1220100" data-name="Trazado 1220100" d="M416,386.926a2.318,2.318,0,0,1-1.639-3.958l12.888-12.888a2.319,2.319,0,0,1,3.279,3.279L417.64,386.247A2.31,2.31,0,0,1,416,386.926Z" transform="translate(-413.681 -369.4)" fill="#ffca7a"/>
                  </g>
                </g>
                <g id="Grupo_1231057" data-name="Grupo 1231057" transform="translate(63.583 243.545)">
                  <g id="Grupo_1231055" data-name="Grupo 1231055">
                    <path id="Trazado_1220101" data-name="Trazado 1220101" d="M140.717,443.174a1.811,1.811,0,0,1-1.284-.532l-10.089-10.09a1.815,1.815,0,1,1,2.567-2.568L142,440.074a1.816,1.816,0,0,1-1.283,3.1Z" transform="translate(-128.811 -429.453)" fill="#ffca7a"/>
                  </g>
                  <g id="Grupo_1231056" data-name="Grupo 1231056">
                    <path id="Trazado_1220102" data-name="Trazado 1220102" d="M130.627,443.174a1.816,1.816,0,0,1-1.284-3.1l10.089-10.089A1.815,1.815,0,1,1,142,432.552l-10.089,10.09A1.81,1.81,0,0,1,130.627,443.174Z" transform="translate(-128.811 -429.453)" fill="#ffca7a"/>
                  </g>
                </g>
                <g id="Grupo_1231058" data-name="Grupo 1231058" transform="translate(124.095 237.594)">
                  <path id="Trazado_1220103" data-name="Trazado 1220103" d="M234.266,436.057l-13.218-9.686,15.856-5.99ZM223.8,426.746l9.513,6.972,1.9-11.282Z" transform="translate(-221.048 -420.381)" fill="#f84558"/>
                </g>
                <g id="Grupo_1231059" data-name="Grupo 1231059" transform="translate(272.614 45.776)">
                  <path id="Trazado_1220104" data-name="Trazado 1220104" d="M459.69,144.727l-12.26-10.119,15-6.608Zm-9.758-9.773,8.823,7.283,1.969-12.039Z" transform="translate(-447.43 -128)" fill="#f84558"/>
                </g>
                <g id="Grupo_1231060" data-name="Grupo 1231060" transform="translate(36.056 120.544)">
                  <path id="Trazado_1220105" data-name="Trazado 1220105" d="M86.853,256.45l6.555-14.483,10.305,12.741Zm6.875-11.978-4.717,10.423,12.134-1.254Z" transform="translate(-86.853 -241.967)" fill="#f84558"/>
                </g>
                <g id="Grupo_1231061" data-name="Grupo 1231061" transform="translate(230.492 4.3)">
                  <path id="Trazado_1220106" data-name="Trazado 1220106" d="M388.813,75.955a5.588,5.588,0,1,1,5.588-5.588A5.594,5.594,0,0,1,388.813,75.955Zm0-9.85a4.263,4.263,0,1,0,4.263,4.262A4.268,4.268,0,0,0,388.813,66.105Z" transform="translate(-383.225 -64.78)" fill="#00ac64"/>
                </g>
                <g id="Grupo_1231062" data-name="Grupo 1231062" transform="translate(8.53 189.008)">
                  <path id="Trazado_1220107" data-name="Trazado 1220107" d="M50.484,357.5a5.588,5.588,0,1,1,5.588-5.588A5.594,5.594,0,0,1,50.484,357.5Zm0-9.851a4.263,4.263,0,1,0,4.263,4.263A4.268,4.268,0,0,0,50.484,347.649Z" transform="translate(-44.896 -346.324)" fill="#00ac64"/>
                </g>
                <g id="Grupo_1231063" data-name="Grupo 1231063" transform="translate(173.315 29.872)">
                  <path id="Trazado_1220108" data-name="Trazado 1220108" d="M301.66,114.933a5.588,5.588,0,1,1,5.588-5.588A5.594,5.594,0,0,1,301.66,114.933Zm0-9.85a4.263,4.263,0,1,0,4.263,4.263A4.268,4.268,0,0,0,301.66,105.083Z" transform="translate(-296.072 -103.758)" fill="#00ac64"/>
                </g>
                <g id="Grupo_1231064" data-name="Grupo 1231064" transform="translate(16.601 214.339)">
                  <path id="Trazado_1220109" data-name="Trazado 1220109" d="M99.016,402.481H94.725a15.985,15.985,0,0,0-1.368-3.528l2.968-2.968a2.11,2.11,0,0,0,0-2.985l-3.263-3.263a2.11,2.11,0,0,0-2.985,0l-2.833,2.833a16.02,16.02,0,0,0-3.663-1.577v-3.946a2.111,2.111,0,0,0-2.111-2.111H76.855a2.111,2.111,0,0,0-2.111,2.111v3.913a16.026,16.026,0,0,0-3.705,1.568l-2.79-2.79a2.11,2.11,0,0,0-2.985,0L62,393a2.11,2.11,0,0,0,0,2.985l2.892,2.892a16,16,0,0,0-1.407,3.6H59.309a2.111,2.111,0,0,0-2.111,2.111v4.615a2.111,2.111,0,0,0,2.111,2.111h4.417a16.073,16.073,0,0,0,1.47,3.3l-3.2,3.2a2.11,2.11,0,0,0,0,2.985l3.263,3.263a2.11,2.11,0,0,0,2.985,0l3.333-3.333A16.013,16.013,0,0,0,74.744,422v4.758a2.111,2.111,0,0,0,2.111,2.111h4.615a2.111,2.111,0,0,0,2.111-2.111v-4.791a16.041,16.041,0,0,0,3.124-1.271l3.371,3.371a2.11,2.11,0,0,0,2.985,0l3.263-3.263a2.11,2.11,0,0,0,0-2.985l-3.27-3.27a16.059,16.059,0,0,0,1.428-3.225h4.533a2.111,2.111,0,0,0,2.111-2.111v-4.615A2.112,2.112,0,0,0,99.016,402.481ZM79.1,419.877a13.4,13.4,0,1,1,13.4-13.4A13.415,13.415,0,0,1,79.1,419.877Z" transform="translate(-57.198 -384.935)" fill="#ffca7a"/>
                </g>
                <g id="Grupo_1231065" data-name="Grupo 1231065" transform="translate(249.852 134.545)">
                  <path id="Trazado_1220110" data-name="Trazado 1220110" d="M439.742,274.641h-2.771a10.342,10.342,0,0,0-.883-2.278L438,270.446a1.364,1.364,0,0,0,0-1.928L435.9,266.41a1.364,1.364,0,0,0-1.928,0l-1.829,1.829a10.382,10.382,0,0,0-2.366-1.019v-2.549a1.363,1.363,0,0,0-1.363-1.363h-2.98a1.363,1.363,0,0,0-1.363,1.363V267.2a10.371,10.371,0,0,0-2.393,1.012l-1.8-1.8a1.364,1.364,0,0,0-1.928,0l-2.108,2.108a1.364,1.364,0,0,0,0,1.928l1.868,1.868a10.375,10.375,0,0,0-.909,2.328h-2.7A1.363,1.363,0,0,0,412.734,276v2.98a1.363,1.363,0,0,0,1.363,1.363h2.853a10.324,10.324,0,0,0,.95,2.13l-2.065,2.065a1.364,1.364,0,0,0,0,1.928l2.108,2.108a1.364,1.364,0,0,0,1.928,0l2.153-2.152a10.369,10.369,0,0,0,2.043.817v3.073a1.363,1.363,0,0,0,1.363,1.363h2.98a1.363,1.363,0,0,0,1.363-1.363v-3.094a10.357,10.357,0,0,0,2.018-.821l2.177,2.177a1.364,1.364,0,0,0,1.928,0l2.108-2.108a1.364,1.364,0,0,0,0-1.928l-2.112-2.112a10.353,10.353,0,0,0,.922-2.083h2.927a1.363,1.363,0,0,0,1.363-1.363V276A1.365,1.365,0,0,0,439.742,274.641Zm-12.86,11.235a8.654,8.654,0,1,1,8.654-8.654A8.664,8.664,0,0,1,426.882,285.876Z" transform="translate(-412.734 -263.308)" fill="#ffca7a"/>
                </g>
                <g id="Grupo_1231066" data-name="Grupo 1231066" transform="translate(68.719 212.91)">
                  <path id="Trazado_1220111" data-name="Trazado 1220111" d="M162.23,393.494H159.6a9.787,9.787,0,0,0-.837-2.159l1.817-1.816a1.292,1.292,0,0,0,0-1.827l-2-2a1.291,1.291,0,0,0-1.826,0l-1.733,1.733a9.8,9.8,0,0,0-2.242-.965v-2.415a1.292,1.292,0,0,0-1.292-1.292h-2.824a1.292,1.292,0,0,0-1.292,1.292v2.395a9.807,9.807,0,0,0-2.267.959l-1.708-1.708a1.291,1.291,0,0,0-1.826,0l-2,2a1.292,1.292,0,0,0,0,1.827l1.769,1.769a9.811,9.811,0,0,0-.861,2.206h-2.555a1.292,1.292,0,0,0-1.292,1.292v2.824a1.292,1.292,0,0,0,1.292,1.292h2.7a9.81,9.81,0,0,0,.9,2.019l-1.956,1.956a1.291,1.291,0,0,0,0,1.826l2,2a1.291,1.291,0,0,0,1.826,0l2.039-2.039a9.768,9.768,0,0,0,1.936.774v2.912a1.292,1.292,0,0,0,1.292,1.292h2.824a1.292,1.292,0,0,0,1.292-1.292v-2.932a9.782,9.782,0,0,0,1.912-.778l2.063,2.063a1.291,1.291,0,0,0,1.826,0l2-2a1.291,1.291,0,0,0,0-1.826l-2-2a9.806,9.806,0,0,0,.874-1.974h2.774a1.292,1.292,0,0,0,1.292-1.292v-2.824A1.29,1.29,0,0,0,162.23,393.494Zm-12.184,10.646a8.2,8.2,0,1,1,8.2-8.2A8.209,8.209,0,0,1,150.046,404.139Z" transform="translate(-136.64 -382.756)" fill="#ffca7a"/>
                </g>
                <g id="Grupo_1231076" data-name="Grupo 1231076" transform="translate(186.563 169.248)">
                  <g id="Grupo_1231069" data-name="Grupo 1231069">
                    <g id="Grupo_1231067" data-name="Grupo 1231067">
                      <rect id="Rectángulo_422900" data-name="Rectángulo 422900" width="87.52" height="25.349" fill="#ffca7a"/>
                    </g>
                    <g id="Grupo_1231068" data-name="Grupo 1231068" transform="translate(5.65 3.066)">
                      <path id="Trazado_1220112" data-name="Trazado 1220112" d="M325.267,339.841c-.26-.146-.39-.316-.39-.512a.736.736,0,0,1,.146-.475.5.5,0,0,1,.415-.183,2.033,2.033,0,0,1,.707.2,2.764,2.764,0,0,0,.634.195,1.135,1.135,0,0,0,.841-.4,2.817,2.817,0,0,0,.6-1.06,6.554,6.554,0,0,0,.439-2.194,8.055,8.055,0,0,0-.329-2.206,12.414,12.414,0,0,0-.889-2.255l-.39-.78q-.609-1.218-.939-1.926a10.966,10.966,0,0,1-.573-1.536,7.6,7.6,0,0,1-.366-2.267,4.494,4.494,0,0,1,.305-1.657,3.341,3.341,0,0,1,.915-1.316,2.094,2.094,0,0,1,1.511-.585,1.606,1.606,0,0,1,.854.256,1.445,1.445,0,0,1,.585.646l-.415.512a1.541,1.541,0,0,1-.95-.243,1.178,1.178,0,0,0-.768.426,2.623,2.623,0,0,0-.5.865,3.079,3.079,0,0,0-.146.926,7.342,7.342,0,0,0,.256,1.889,10.1,10.1,0,0,0,.671,1.816l1.706,3.413a9.4,9.4,0,0,1,.658,1.974,10.114,10.114,0,0,1,.244,2.194,6.157,6.157,0,0,1-.78,3.022,3.272,3.272,0,0,1-1.073,1.158,2.63,2.63,0,0,1-1.462.426A3.344,3.344,0,0,1,325.267,339.841Z" transform="translate(-324.877 -320.878)" fill="#473632"/>
                      <path id="Trazado_1220113" data-name="Trazado 1220113" d="M337.578,339.592a1.682,1.682,0,0,1-.207-.865q0-.8.1-1.975l.049-.634.049-1.292q0-.853-.171-3.8t-.171-3.8c0-.049,0-.142.012-.28s.012-.354.012-.646c.016-.325.025-.724.025-1.195a6.375,6.375,0,0,0-.244-2.267,5.659,5.659,0,0,0-.634.073l-.682.049a.91.91,0,0,1-.56-.182.568.568,0,0,1-.244-.476c0-.195.195-.366.585-.512a12.306,12.306,0,0,1,2.9-.415q.829-.048,1-.049a.84.84,0,0,1,.536.2.6.6,0,0,1,.243.487.607.607,0,0,1-.207.476.764.764,0,0,1-.524.182l-.439-.024a3.682,3.682,0,0,0-.439-.024h-.244a29.44,29.44,0,0,1,.171,3l-.024,1.56q-.025.707-.024,1.584,0,1.17.1,2.8.122,2.023.122,2.8,0,.926.1,2.194.1,1.292.1,2.194,0,1.195-.707,1.194A.635.635,0,0,1,337.578,339.592Z" transform="translate(-328.327 -321.031)" fill="#473632"/>
                      <path id="Trazado_1220114" data-name="Trazado 1220114" d="M350.354,339.322v-.073a17.344,17.344,0,0,0-.439-2.876q-.366-1.584-1.073-3.827-.537-1.682-.9-3.022v9.6a.976.976,0,0,1-.134.573.618.618,0,0,1-.524.182.6.6,0,0,1-.463-.182.668.668,0,0,1-.171-.476v-.195l.049-7.167q.048-3.169.049-7.142v-3a.529.529,0,0,1,.122-.4.82.82,0,0,1,.512-.11,2.684,2.684,0,0,1,1.121.232,2.57,2.57,0,0,1,.878.646,4.153,4.153,0,0,1,.975,2.048,5.767,5.767,0,0,1,.1,1.121,5.89,5.89,0,0,1-.061.8c-.041.293-.07.48-.086.56a6.114,6.114,0,0,1-.219.732q-.171.487-.219.634l-.293.682-.243.634a12.95,12.95,0,0,0,.3,2.219q.279,1.34.621,2.486.244.8.878,2.681l.707,2.145v.049a2.967,2.967,0,0,1-.073.707.455.455,0,0,1-.512.39Q350.793,339.98,350.354,339.322Zm-1.634-11.846.366-2.1a1.891,1.891,0,0,0,.024-.342,6.008,6.008,0,0,0-.268-1.633,2.573,2.573,0,0,0-.378-.743.724.724,0,0,0-.476-.329l-.049,2.438q-.073,1.633-.073,2.535,0,.853.024,1.121A11.9,11.9,0,0,0,348.72,327.476Z" transform="translate(-332.365 -320.993)" fill="#473632"/>
                      <path id="Trazado_1220115" data-name="Trazado 1220115" d="M359.208,338.936a8.486,8.486,0,0,1-1.34-3.291,28.41,28.41,0,0,1-.56-4.436q-.123-2.145-.123-4.656V324.53q.024-.852.024-1.8a.661.661,0,0,1-.195-.487.741.741,0,0,1,.22-.524.66.66,0,0,1,.487-.232q.879,0,.878,1.731,0,1.122.122,4.241t.123,4.241a6.3,6.3,0,0,1,.232,1.267,14.049,14.049,0,0,1,.11,1.56,6.527,6.527,0,0,0,.171,1.328,10.3,10.3,0,0,0,.488,1.6,4.123,4.123,0,0,0,.829,1.4,1.474,1.474,0,0,0,1.073.548.8.8,0,0,0,.573-.219,1.111,1.111,0,0,0,.305-.634,6.412,6.412,0,0,0,.146-1.341v-4.753a19.54,19.54,0,0,0-.171-2.291q-.147-1.536-.147-2.315v-.171c0-.26-.009-.5-.024-.707l-.024-.707q0-.682-.073-2.072-.1-1.244-.1-2.1a.561.561,0,0,1,.28-.463,1.067,1.067,0,0,1,.622-.2l.609.561v.414a3.2,3.2,0,0,1-.1.707c-.066.455-.1.715-.1.779q0,2.218.244,6.118.219,4.095.219,6.362a8.5,8.5,0,0,1-.243,2.145,2.588,2.588,0,0,1-.4.9,2.148,2.148,0,0,1-.695.585,2.1,2.1,0,0,1-1.073.244A2.735,2.735,0,0,1,359.208,338.936Z" transform="translate(-335.93 -321.07)" fill="#473632"/>
                      <path id="Trazado_1220116" data-name="Trazado 1220116" d="M374.337,339.758a3.174,3.174,0,0,1-.987-.853,5.557,5.557,0,0,1-.658-1.3,9.176,9.176,0,0,1-.439-1.645,24.791,24.791,0,0,1-.39-3.778q-.025-.56-.024-1.926v-1.536q.024-.657.024-1.365a11.812,11.812,0,0,1,.171-2.267,3.867,3.867,0,0,1-.073-.756,2.914,2.914,0,0,1,1.1-2.364,4.233,4.233,0,0,1,2.779-.9,2.135,2.135,0,0,1,1.17.342,1,1,0,0,1,.536.853.465.465,0,0,1-.2.39.787.787,0,0,1-.487.146,2.1,2.1,0,0,1-.524-.073.514.514,0,0,1-.353-.219h-.317v-.049a2.752,2.752,0,0,0-1.512.39,2.037,2.037,0,0,0-.682,1.048,3.044,3.044,0,0,0-.146.683,6.435,6.435,0,0,0-.049.755,7.792,7.792,0,0,0-.024.78l.049.853.024.829a4.475,4.475,0,0,1-.1.853,5.1,5.1,0,0,0-.123.854v.585q0,.951.073,2.608a14.678,14.678,0,0,0,.316,2.778,5.512,5.512,0,0,0,.829,2.194,1.793,1.793,0,0,0,1.584.926,1.9,1.9,0,0,0,1.024-.439,2.168,2.168,0,0,1,.926-.439,1.039,1.039,0,0,1,.707.366,1.606,1.606,0,0,1-.683,1.39,3.459,3.459,0,0,1-1.511.56q-.488.048-.78.049A2.569,2.569,0,0,1,374.337,339.758Z" transform="translate(-341.029 -320.941)" fill="#473632"/>
                      <path id="Trazado_1220117" data-name="Trazado 1220117" d="M385.468,339.592a1.682,1.682,0,0,1-.207-.865q0-.8.1-1.975l.049-.634.049-1.292q0-.853-.171-3.8t-.171-3.8c0-.049,0-.142.012-.28s.012-.354.012-.646c.016-.325.025-.724.025-1.195a6.375,6.375,0,0,0-.244-2.267,5.659,5.659,0,0,0-.634.073l-.682.049a.91.91,0,0,1-.56-.182.568.568,0,0,1-.244-.476c0-.195.195-.366.585-.512a12.306,12.306,0,0,1,2.9-.415q.829-.048,1-.049a.84.84,0,0,1,.536.2.6.6,0,0,1,.243.487.607.607,0,0,1-.207.476.764.764,0,0,1-.524.182l-.439-.024a3.681,3.681,0,0,0-.439-.024h-.244a29.43,29.43,0,0,1,.171,3l-.024,1.56q-.025.707-.024,1.584,0,1.17.1,2.8.122,2.023.122,2.8,0,.926.1,2.194.1,1.292.1,2.194,0,1.195-.707,1.194A.635.635,0,0,1,385.468,339.592Z" transform="translate(-344.799 -321.031)" fill="#473632"/>
                      <path id="Trazado_1220118" data-name="Trazado 1220118" d="M396.361,338.936a8.486,8.486,0,0,1-1.34-3.291,28.4,28.4,0,0,1-.56-4.436q-.123-2.145-.123-4.656V324.53q.024-.852.024-1.8a.661.661,0,0,1-.195-.487.741.741,0,0,1,.22-.524.66.66,0,0,1,.487-.232q.879,0,.878,1.731,0,1.122.122,4.241T396,331.7a6.3,6.3,0,0,1,.232,1.267,14.049,14.049,0,0,1,.11,1.56,6.524,6.524,0,0,0,.171,1.328,10.3,10.3,0,0,0,.487,1.6,4.124,4.124,0,0,0,.829,1.4,1.474,1.474,0,0,0,1.073.548.8.8,0,0,0,.573-.219,1.111,1.111,0,0,0,.305-.634,6.412,6.412,0,0,0,.146-1.341v-4.753a19.546,19.546,0,0,0-.171-2.291q-.147-1.536-.147-2.315v-.171c0-.26-.009-.5-.024-.707l-.024-.707q0-.682-.073-2.072-.1-1.244-.1-2.1a.561.561,0,0,1,.28-.463,1.067,1.067,0,0,1,.622-.2l.609.561v.414a3.2,3.2,0,0,1-.1.707c-.066.455-.1.715-.1.779q0,2.218.244,6.118.219,4.095.219,6.362a8.5,8.5,0,0,1-.243,2.145,2.589,2.589,0,0,1-.4.9,2.148,2.148,0,0,1-.695.585,2.1,2.1,0,0,1-1.073.244A2.735,2.735,0,0,1,396.361,338.936Z" transform="translate(-348.709 -321.07)" fill="#473632"/>
                      <path id="Trazado_1220119" data-name="Trazado 1220119" d="M413.143,339.322v-.073a17.337,17.337,0,0,0-.439-2.876q-.366-1.584-1.073-3.827-.537-1.682-.9-3.022v9.6a.976.976,0,0,1-.134.573.618.618,0,0,1-.524.182.6.6,0,0,1-.463-.182.668.668,0,0,1-.171-.476v-.195l.049-7.167q.048-3.169.049-7.142v-3a.529.529,0,0,1,.122-.4.82.82,0,0,1,.512-.11,2.684,2.684,0,0,1,1.121.232,2.57,2.57,0,0,1,.878.646,4.153,4.153,0,0,1,.975,2.048,5.765,5.765,0,0,1,.1,1.121,5.88,5.88,0,0,1-.061.8c-.041.293-.07.48-.086.56a6.124,6.124,0,0,1-.219.732q-.171.487-.219.634l-.293.682-.243.634a12.943,12.943,0,0,0,.3,2.219q.279,1.34.621,2.486.244.8.878,2.681l.707,2.145v.049a2.969,2.969,0,0,1-.073.707.455.455,0,0,1-.512.39Q413.582,339.98,413.143,339.322Zm-1.634-11.846.366-2.1a1.889,1.889,0,0,0,.024-.342,6.009,6.009,0,0,0-.268-1.633,2.575,2.575,0,0,0-.378-.743.724.724,0,0,0-.476-.329l-.049,2.438q-.073,1.633-.073,2.535,0,.853.024,1.121A11.9,11.9,0,0,0,411.509,327.476Z" transform="translate(-353.961 -320.993)" fill="#473632"/>
                      <path id="Trazado_1220120" data-name="Trazado 1220120" d="M420.83,339.8q-.415-.122-.415-.682V324.955a7.844,7.844,0,0,0-.146-1.243,5.854,5.854,0,0,1-.171-1.244v-.073a5.429,5.429,0,0,1,.61-.877,5.59,5.59,0,0,0,.9-.1,4.853,4.853,0,0,1,.9-.1,1.389,1.389,0,0,1,.755.232.656.656,0,0,1,.366.548q0,.731-1.121.731h-.342a2.159,2.159,0,0,0-.341-.024.847.847,0,0,0-.268.024q0,.83.1,2l.049.682.049,1.341q0,.463-.073,1.413l-.049,1.365.342-.073a2.936,2.936,0,0,1,.8-.146.694.694,0,0,1,.487.207.636.636,0,0,1,.22.476.825.825,0,0,1-.183.524.556.556,0,0,1-.451.232l-.293-.024h-.317a.643.643,0,0,0-.511.171v7.532l1.365-.073q1.39,0,1.39.634v.1a1.081,1.081,0,0,1-.536.476,2.591,2.591,0,0,1-.756.232l-.8.024h-.756A2.423,2.423,0,0,1,420.83,339.8Z" transform="translate(-357.628 -321.031)" fill="#473632"/>
                      <path id="Trazado_1220121" data-name="Trazado 1220121" d="M430.875,339.591a.683.683,0,0,1-.354-.609q.535-.536.536-2.853,0-1.389-.22-4.046-.243-2.535-.243-4l.049-1.34c.016-.39.024-.836.024-1.341a7.977,7.977,0,0,0-.243-1.731,7.069,7.069,0,0,1-.293-1.536q0-.853,1.877-.854h.365a3.489,3.489,0,0,1,2.292.8,5.24,5.24,0,0,1,1.316,1.975,11.77,11.77,0,0,1,.634,2.437q.146,1.366.147,2.145v1.926a.42.42,0,0,0-.049.195,1.282,1.282,0,0,0,.025.293,1.09,1.09,0,0,1,.024.243,9.118,9.118,0,0,1-.232,1.865,14.257,14.257,0,0,1-.67,2.206,9.543,9.543,0,0,1-2.462,3.8,2.678,2.678,0,0,1-1.681.634A1.559,1.559,0,0,1,430.875,339.591Zm2.937-2.816a8.671,8.671,0,0,0,1.048-2.352,18.085,18.085,0,0,0,.658-4.826,18.778,18.778,0,0,0-.243-2.876,6.581,6.581,0,0,0-1.145-2.73,2.917,2.917,0,0,0-1.048-.914,3.072,3.072,0,0,0-1.438-.329v.024q0,2.194.292,6.63.293,4.412.293,6.679V338.4A5.123,5.123,0,0,0,433.812,336.775Z" transform="translate(-361.078 -321.018)" fill="#473632"/>
                    </g>
                  </g>
                  <g id="Grupo_1231072" data-name="Grupo 1231072" transform="translate(0 31.755)">
                    <g id="Grupo_1231070" data-name="Grupo 1231070">
                      <rect id="Rectángulo_422901" data-name="Rectángulo 422901" width="53.82" height="25.349" fill="#00ac64"/>
                    </g>
                    <g id="Grupo_1231071" data-name="Grupo 1231071" transform="translate(8.105 1.712)">
                      <path id="Trazado_1220122" data-name="Trazado 1220122" d="M333.591,389.008v-.024a1.711,1.711,0,0,1-.926-1.073q-.171-.635-.317-1.487c-.066-.39-.106-.617-.122-.682h-1a5.09,5.09,0,0,1-1.9-2.243,6.824,6.824,0,0,1-.438-1.34,9.654,9.654,0,0,1-.22-1.487q-.049-.439-.049-1.512l.049-2q.073-1.316.073-1.974l-.024-.78v-.951a22.4,22.4,0,0,1,.1-2.339,9.909,9.909,0,0,1,.512-2.218,2.579,2.579,0,0,1,1.17-1.462,1.9,1.9,0,0,1,.9-.219,2.792,2.792,0,0,1,1.219.268,3.091,3.091,0,0,1,.974.732,6.211,6.211,0,0,1,1.073,2.534,21.148,21.148,0,0,1,.342,3.217q.024.513.024,1.682v1.316q-.025.561-.024,1.17v1.1a16.042,16.042,0,0,1-.281,3.413,7.066,7.066,0,0,1-1.206,2.51l.1.487a10.381,10.381,0,0,0,.317,1.487c.162.585.366.878.609.878h.1a3.655,3.655,0,0,1,.683.049.509.509,0,0,1,.365.536q0,.756-1.073.755A2.192,2.192,0,0,1,333.591,389.008Zm-1.487-4a.678.678,0,0,1,.658-.316v.024a3.42,3.42,0,0,0,.9-2.633v-6.557q0-1.56-.073-2.608a12.577,12.577,0,0,0-.438-2.559,3.616,3.616,0,0,0-.426-1,2.4,2.4,0,0,0-.646-.658,1.6,1.6,0,0,0-.878-.268q-.439,0-.732,1.267a32.237,32.237,0,0,0-.609,6.289q-.049,1.706-.049,2.218,0,1.048.122,2.414a10.822,10.822,0,0,0,.634,2.876,2.949,2.949,0,0,0,.634,1.084,1.414,1.414,0,0,0,.9.451v-.026Z" transform="translate(-328.619 -367.216)" fill="#473632"/>
                      <path id="Trazado_1220123" data-name="Trazado 1220123" d="M345.673,385.312a8.486,8.486,0,0,1-1.34-3.291,28.4,28.4,0,0,1-.56-4.436q-.123-2.145-.123-4.656v-2.023q.024-.852.024-1.8a.662.662,0,0,1-.195-.487.741.741,0,0,1,.22-.524.66.66,0,0,1,.487-.232q.879,0,.878,1.731,0,1.122.122,4.241t.123,4.241a6.293,6.293,0,0,1,.232,1.267,14.042,14.042,0,0,1,.11,1.56,6.525,6.525,0,0,0,.171,1.328,10.3,10.3,0,0,0,.487,1.6,4.123,4.123,0,0,0,.829,1.4,1.474,1.474,0,0,0,1.073.548.8.8,0,0,0,.573-.219,1.111,1.111,0,0,0,.305-.634,6.414,6.414,0,0,0,.146-1.341v-4.753a19.551,19.551,0,0,0-.171-2.291q-.147-1.536-.147-2.315v-.171c0-.26-.008-.5-.024-.707l-.024-.707q0-.682-.073-2.072-.1-1.244-.1-2.1a.561.561,0,0,1,.28-.463,1.067,1.067,0,0,1,.622-.2l.609.561v.414a3.2,3.2,0,0,1-.1.707c-.066.455-.1.715-.1.779q0,2.218.244,6.118.219,4.095.219,6.362a8.5,8.5,0,0,1-.243,2.145,2.59,2.59,0,0,1-.4.9,2.149,2.149,0,0,1-.695.585,2.1,2.1,0,0,1-1.073.244A2.733,2.733,0,0,1,345.673,385.312Z" transform="translate(-333.73 -367.421)" fill="#473632"/>
                      <path id="Trazado_1220124" data-name="Trazado 1220124" d="M359.406,386.175q-.415-.122-.415-.682V371.331a7.839,7.839,0,0,0-.146-1.243,5.852,5.852,0,0,1-.171-1.244v-.073a5.425,5.425,0,0,1,.61-.877,5.586,5.586,0,0,0,.9-.1,4.85,4.85,0,0,1,.9-.1,1.389,1.389,0,0,1,.755.232.656.656,0,0,1,.366.548q0,.731-1.121.731h-.342a2.155,2.155,0,0,0-.341-.024.847.847,0,0,0-.268.024q0,.83.1,2l.049.682.049,1.341q0,.464-.073,1.413l-.049,1.365.342-.073a2.934,2.934,0,0,1,.8-.146.694.694,0,0,1,.487.207.636.636,0,0,1,.22.476.825.825,0,0,1-.183.524.556.556,0,0,1-.451.232l-.293-.024h-.317a.643.643,0,0,0-.511.171v7.531l1.365-.073q1.389,0,1.389.634v.1a1.081,1.081,0,0,1-.536.476,2.6,2.6,0,0,1-.756.232l-.8.024h-.756A2.421,2.421,0,0,1,359.406,386.175Z" transform="translate(-338.956 -367.382)" fill="#473632"/>
                      <path id="Trazado_1220125" data-name="Trazado 1220125" d="M372.783,385.7v-.073a17.337,17.337,0,0,0-.439-2.876q-.366-1.584-1.073-3.827-.537-1.682-.9-3.022v9.6a.976.976,0,0,1-.134.573.618.618,0,0,1-.524.182.6.6,0,0,1-.463-.182.668.668,0,0,1-.171-.476v-.195l.049-7.167q.048-3.169.049-7.142v-3a.529.529,0,0,1,.122-.4.82.82,0,0,1,.512-.11,2.685,2.685,0,0,1,1.121.232,2.572,2.572,0,0,1,.878.646,4.153,4.153,0,0,1,.975,2.048,5.765,5.765,0,0,1,.1,1.121,5.876,5.876,0,0,1-.061.8c-.041.293-.07.48-.086.56a6.127,6.127,0,0,1-.219.732q-.171.487-.219.634l-.293.682-.243.634a12.949,12.949,0,0,0,.3,2.219q.28,1.34.621,2.486.244.8.878,2.681l.707,2.145v.049a2.969,2.969,0,0,1-.073.707.455.455,0,0,1-.512.39Q373.223,386.356,372.783,385.7Zm-1.634-11.846.366-2.1a1.888,1.888,0,0,0,.024-.342,6.011,6.011,0,0,0-.268-1.633,2.576,2.576,0,0,0-.378-.743.724.724,0,0,0-.476-.329l-.049,2.438q-.073,1.633-.073,2.535,0,.853.024,1.121A11.907,11.907,0,0,0,371.15,373.852Z" transform="translate(-342.535 -367.344)" fill="#473632"/>
                      <path id="Trazado_1220126" data-name="Trazado 1220126" d="M380.692,386.285a.546.546,0,0,1-.182-.415l.049-2.364q.073-1.583.073-2.364a14.665,14.665,0,0,0-.219-2.1,12.928,12.928,0,0,1-.244-2.12,9.823,9.823,0,0,0-.268-2.12,17.1,17.1,0,0,0-.683-2.292,17.125,17.125,0,0,1-.658-2.255,9.906,9.906,0,0,1-.268-2.109.347.347,0,0,1,.195-.292.769.769,0,0,1,.415-.123q.268,0,.512.56a9.754,9.754,0,0,1,.56,1.78q.268,1.145.316,1.365l.317,1.682.243,1.073a9.846,9.846,0,0,0,.123-1.024q.146-2.023.365-3.364a6.486,6.486,0,0,1,.39-1.413q.243-.536.585-.536.658,0,.658.243a21.191,21.191,0,0,1-.585,4.1,21.272,21.272,0,0,0-.585,4.119l-.049.39a1.5,1.5,0,0,0-.024.439v.39q0,1.048.073,3.217l.049,3.242.049.56.049.585v.609a.635.635,0,0,1-.244.5.876.876,0,0,1-.585.207A.6.6,0,0,1,380.692,386.285Z" transform="translate(-345.704 -367.395)" fill="#473632"/>
                    </g>
                  </g>
                  <g id="Grupo_1231075" data-name="Grupo 1231075" transform="translate(0 64.677)">
                    <g id="Grupo_1231073" data-name="Grupo 1231073">
                      <rect id="Rectángulo_422902" data-name="Rectángulo 422902" width="79.558" height="25.349" fill="#5d9dc1"/>
                    </g>
                    <g id="Grupo_1231074" data-name="Grupo 1231074" transform="translate(7.299 2.536)">
                      <path id="Trazado_1220127" data-name="Trazado 1220127" d="M327.964,437.835a.715.715,0,0,1-.257-.548,1.9,1.9,0,0,1,.1-.536,2.66,2.66,0,0,0,.073-.512q0-2.169-.244-8.336-.244-5.265-.243-8.312a.428.428,0,0,1,.171-.354.651.651,0,0,1,.415-.134.723.723,0,0,1,.512.207.663.663,0,0,1,.219.5q0,1.462.146,4.388.122,3.243.123,4.388l.024.292v.585q.073,2.121.073,6.337v.634h1.876q.513.366.512.732a.7.7,0,0,1-.182.476.554.554,0,0,1-.426.207,1.305,1.305,0,0,1-.268-.049l-.1-.024a3.119,3.119,0,0,1-.463.024h-.415a2.873,2.873,0,0,0-.39-.024.884.884,0,0,1-1.255.06Z" transform="translate(-327.391 -418.808)" fill="#473632"/>
                      <path id="Trazado_1220128" data-name="Trazado 1220128" d="M340.422,437.83a.588.588,0,0,1-.183-.487V434.15a3.466,3.466,0,0,0-1.194-.39,13.046,13.046,0,0,0-1.657-.219,4.15,4.15,0,0,0-.39,1.243l-.1.487c-.016.114-.066.366-.146.755a8.434,8.434,0,0,1-.268,1.012,3.593,3.593,0,0,1-.292.67q-.926,0-1.073-.487a8.071,8.071,0,0,0,.609-2.292l.8-4.461q.536-3.169.987-5.411a30.856,30.856,0,0,1,.963-3.754q.56-1.682,1.073-1.681a1.316,1.316,0,0,1,.78.195q0,.975.462,4.7a45.687,45.687,0,0,1,.487,5,36.059,36.059,0,0,0,.268,3.7q.243,2.462.243,3.924a.722.722,0,0,1-.8.829A.906.906,0,0,1,340.422,437.83Zm-.208-5.168q-.073-1.073-.243-2.657-.561-5.509-.56-6.752v-.195a7.107,7.107,0,0,0-.67,2.206q-.427,1.962-.793,4.2a29.839,29.839,0,0,0-.39,2.974,7.871,7.871,0,0,0,2.17.292A1.981,1.981,0,0,0,340.214,432.662Z" transform="translate(-330.05 -418.987)" fill="#473632"/>
                      <path id="Trazado_1220129" data-name="Trazado 1220129" d="M353.666,432.988q-1.705-5.874-2.949-10.8v8q0,1.023.195,3.486.17,2.682.171,3.461a.45.45,0,0,1-.268.378,1.174,1.174,0,0,1-.609.158c-.342,0-.512-.13-.512-.39l.049-.707q.048-.779.049-1.024,0-1.292-.146-4.1-.146-2.851-.147-3.461v-3.12q0-.756.073-2.242.1-1.292.1-2.242v-.147q0-1.218.536-1.218.316,0,.8,1.073a47.251,47.251,0,0,1,2.048,6.289q.708,2.632,1.657,6.776-.024-.1.39,1.681l.024.122q0-2.364.049-4.241l.049-4.241v-7.215a.688.688,0,0,1,.78-.609q.658,0,.658.951v.146a1.575,1.575,0,0,0-.146.707q0,1.487-.073,4.485-.074,3.022-.073,4.534v7.434a1.451,1.451,0,0,1-.207.743.593.593,0,0,1-.5.354Q355.177,438.01,353.666,432.988Z" transform="translate(-334.994 -418.654)" fill="#473632"/>
                      <path id="Trazado_1220130" data-name="Trazado 1220130" d="M366.5,437.5a5.111,5.111,0,0,1-1.292-2,11.49,11.49,0,0,1-.585-2.608,20.915,20.915,0,0,1-.171-2.584q-.025-.316-.024-1.1v-1.8q0-1.048.073-2.511a17.769,17.769,0,0,1,.39-2.535,6.472,6.472,0,0,1,.926-2.145,3.332,3.332,0,0,1,1.633-1.316,4.263,4.263,0,0,1,1.145-.171q1.023,0,1.024.683a.536.536,0,0,1-.183.426.7.7,0,0,1-.475.158,1.423,1.423,0,0,1-.342-.073l-.342-.049a1.328,1.328,0,0,0-.829.28,2.087,2.087,0,0,0-.609.817,8.661,8.661,0,0,0-.756,2.559,22.228,22.228,0,0,0-.292,2.974q-.05,1.1-.049,2.315v.659q-.024.341-.024.853a23.778,23.778,0,0,0,.123,2.438,7.483,7.483,0,0,0,.536,2.437,2.693,2.693,0,0,0,1.268,1.609,1.987,1.987,0,0,0,1.024.244,2.16,2.16,0,0,0,1.8-1.024q-.024-.853-.122-1.67a2.808,2.808,0,0,0-.292-1.109.968.968,0,0,0-.11.012l-.256.037-.585.049q-.83,0-.829-.707a.48.48,0,0,1,.244-.39,1.635,1.635,0,0,1,.658-.244,5.1,5.1,0,0,1,1.218-.171.883.883,0,0,1,.756.366,1.53,1.53,0,0,1,.268.926,13.468,13.468,0,0,0,.244,2.194,13.089,13.089,0,0,1,.243,2.17.684.684,0,0,1-.171.463.535.535,0,0,1-.415.195.822.822,0,0,1-.829-.512v-.024l-.536.268a2.649,2.649,0,0,1-1.243.415A3.153,3.153,0,0,1,366.5,437.5Z" transform="translate(-340.131 -418.68)" fill="#473632"/>
                      <path id="Trazado_1220131" data-name="Trazado 1220131" d="M380.485,437.086a8.486,8.486,0,0,1-1.34-3.291,28.408,28.408,0,0,1-.56-4.436q-.123-2.145-.123-4.656V422.68q.024-.852.024-1.8a.662.662,0,0,1-.195-.487.741.741,0,0,1,.22-.524.66.66,0,0,1,.487-.232q.879,0,.878,1.731,0,1.122.122,4.241t.123,4.241a6.3,6.3,0,0,1,.232,1.267,14.057,14.057,0,0,1,.11,1.56,6.523,6.523,0,0,0,.171,1.328,10.3,10.3,0,0,0,.487,1.6,4.123,4.123,0,0,0,.829,1.4,1.474,1.474,0,0,0,1.073.548.8.8,0,0,0,.573-.219,1.111,1.111,0,0,0,.305-.634,6.415,6.415,0,0,0,.146-1.341V430.6a19.545,19.545,0,0,0-.171-2.291q-.147-1.536-.147-2.315v-.171c0-.26-.009-.5-.024-.707l-.024-.707q0-.682-.073-2.072-.1-1.244-.1-2.1a.561.561,0,0,1,.28-.463,1.066,1.066,0,0,1,.622-.2l.609.561v.414a3.2,3.2,0,0,1-.1.707c-.066.455-.1.715-.1.779q0,2.218.244,6.118.219,4.095.219,6.362a8.5,8.5,0,0,1-.243,2.145,2.589,2.589,0,0,1-.4.9,2.148,2.148,0,0,1-.695.585,2.1,2.1,0,0,1-1.073.244A2.733,2.733,0,0,1,380.485,437.086Z" transform="translate(-344.898 -418.974)" fill="#473632"/>
                      <path id="Trazado_1220132" data-name="Trazado 1220132" d="M397.415,437.83a.588.588,0,0,1-.183-.487V434.15a3.466,3.466,0,0,0-1.194-.39,13.045,13.045,0,0,0-1.657-.219,4.151,4.151,0,0,0-.39,1.243l-.1.487c-.016.114-.066.366-.146.755a8.428,8.428,0,0,1-.268,1.012,3.593,3.593,0,0,1-.292.67q-.926,0-1.073-.487a8.073,8.073,0,0,0,.609-2.292l.8-4.461q.536-3.169.987-5.411a30.856,30.856,0,0,1,.963-3.754q.56-1.682,1.073-1.681a1.316,1.316,0,0,1,.78.195q0,.975.462,4.7a45.687,45.687,0,0,1,.487,5,36.052,36.052,0,0,0,.268,3.7q.243,2.462.243,3.924a.722.722,0,0,1-.8.829A.908.908,0,0,1,397.415,437.83Zm-.207-5.168q-.073-1.073-.243-2.657-.561-5.509-.56-6.752v-.195a7.108,7.108,0,0,0-.67,2.206q-.427,1.962-.793,4.2a29.839,29.839,0,0,0-.39,2.974,7.871,7.871,0,0,0,2.17.292A1.985,1.985,0,0,0,397.208,432.662Z" transform="translate(-349.652 -418.987)" fill="#473632"/>
                      <path id="Trazado_1220133" data-name="Trazado 1220133" d="M408.19,437.5a5.111,5.111,0,0,1-1.292-2,11.494,11.494,0,0,1-.585-2.608,20.909,20.909,0,0,1-.171-2.584q-.025-.316-.024-1.1v-1.8q0-1.048.073-2.511a17.773,17.773,0,0,1,.39-2.535,6.472,6.472,0,0,1,.926-2.145,3.332,3.332,0,0,1,1.633-1.316,4.263,4.263,0,0,1,1.146-.171q1.023,0,1.024.683a.536.536,0,0,1-.183.426.7.7,0,0,1-.475.158,1.424,1.424,0,0,1-.342-.073l-.342-.049a1.328,1.328,0,0,0-.829.28,2.087,2.087,0,0,0-.609.817,8.661,8.661,0,0,0-.756,2.559,22.232,22.232,0,0,0-.292,2.974q-.05,1.1-.049,2.315v.659q-.024.341-.024.853a23.8,23.8,0,0,0,.123,2.438,7.485,7.485,0,0,0,.536,2.437,2.693,2.693,0,0,0,1.268,1.609,1.987,1.987,0,0,0,1.024.244,2.159,2.159,0,0,0,1.8-1.024q-.024-.853-.122-1.67a2.808,2.808,0,0,0-.292-1.109.967.967,0,0,0-.11.012l-.256.037-.585.049q-.83,0-.829-.707a.48.48,0,0,1,.244-.39,1.635,1.635,0,0,1,.658-.244,5.1,5.1,0,0,1,1.218-.171.883.883,0,0,1,.756.366,1.53,1.53,0,0,1,.268.926,13.469,13.469,0,0,0,.244,2.194,13.093,13.093,0,0,1,.243,2.17.684.684,0,0,1-.171.463.535.535,0,0,1-.415.195.822.822,0,0,1-.829-.512v-.024l-.536.268a2.649,2.649,0,0,1-1.243.415A3.153,3.153,0,0,1,408.19,437.5Z" transform="translate(-354.469 -418.68)" fill="#473632"/>
                      <path id="Trazado_1220134" data-name="Trazado 1220134" d="M421.005,437.949q-.415-.122-.415-.682V423.1a7.838,7.838,0,0,0-.146-1.243,5.854,5.854,0,0,1-.171-1.244v-.073a5.432,5.432,0,0,1,.61-.877,5.586,5.586,0,0,0,.9-.1,4.853,4.853,0,0,1,.9-.1,1.389,1.389,0,0,1,.755.232.656.656,0,0,1,.366.548q0,.731-1.121.731h-.342a2.154,2.154,0,0,0-.341-.024.846.846,0,0,0-.268.024q0,.83.1,2l.049.682.049,1.341q0,.463-.073,1.413l-.049,1.365.342-.073a2.934,2.934,0,0,1,.8-.146.694.694,0,0,1,.487.207.636.636,0,0,1,.22.476.824.824,0,0,1-.183.524.556.556,0,0,1-.451.232l-.293-.024h-.317a.643.643,0,0,0-.511.171v7.532l1.365-.073q1.389,0,1.39.634v.1a1.081,1.081,0,0,1-.536.476,2.593,2.593,0,0,1-.756.232l-.8.024h-.756A2.406,2.406,0,0,1,421.005,437.949Z" transform="translate(-359.337 -418.936)" fill="#473632"/>
                    </g>
                  </g>
                </g>
                <g id="Grupo_1231104" data-name="Grupo 1231104" transform="translate(82.612 13.136)">
                  <g id="Grupo_1231077" data-name="Grupo 1231077" transform="translate(85.821 81.005)">
                    <path id="Trazado_1220135" data-name="Trazado 1220135" d="M297.447,202.9l-8.817,10.21,19.838,6.933,1.1-18.322Z" transform="translate(-288.63 -201.721)" fill="#e28c52"/>
                  </g>
                  <g id="Grupo_1231078" data-name="Grupo 1231078" transform="translate(90.78 61.191)">
                    <path id="Trazado_1220136" data-name="Trazado 1220136" d="M323.207,171.52s-7.914,1.781-27.018,20.992c0,0,9.384,6.169,13.509,5.618S323.207,171.52,323.207,171.52Z" transform="translate(-296.189 -171.52)" fill="#db2e47"/>
                  </g>
                  <g id="Grupo_1231085" data-name="Grupo 1231085" transform="translate(0 121.803)">
                    <g id="Grupo_1231079" data-name="Grupo 1231079" transform="translate(66.256 103.733)">
                      <path id="Trazado_1220137" data-name="Trazado 1220137" d="M276.054,436.321a26.576,26.576,0,0,1-6.279,6.425,23.005,23.005,0,0,1-6.255,3.668,3.492,3.492,0,0,1-4.269-4.93c2.174-3.906,5.807-7.307,7.65-11.479.844-1.91,1.323-4.012,2.542-5.708a5.271,5.271,0,0,1,3.76-2.267c1.694-.1,2.756,1.1,3.718,2.33,1.472,1.879,1.594,3.612,1.242,5.914A15.208,15.208,0,0,1,276.054,436.321Z" transform="translate(-258.808 -422.025)" fill="#473632"/>
                    </g>
                    <g id="Grupo_1231080" data-name="Grupo 1231080" transform="translate(0 108.236)">
                      <path id="Trazado_1220138" data-name="Trazado 1220138" d="M174.7,441.152a26.584,26.584,0,0,1-8.853-1.53,23.011,23.011,0,0,1-6.568-3.073,3.492,3.492,0,0,1,1.641-6.312c4.451-.424,9.312.641,13.793-.205,2.052-.388,4.055-1.185,6.143-1.142a5.272,5.272,0,0,1,4,1.812c1.04,1.34.654,2.9.188,4.384-.713,2.278-2.072,3.36-4.167,4.376A15.214,15.214,0,0,1,174.7,441.152Z" transform="translate(-157.817 -428.889)" fill="#473632"/>
                    </g>
                    <g id="Grupo_1231081" data-name="Grupo 1231081" transform="translate(49.678)">
                      <path id="Trazado_1220139" data-name="Trazado 1220139" d="M278.828,263.908a254.866,254.866,0,0,0-25.122,9.1c-4.9,2.07-9.865,4.389-13.488,8.28-3.853,4.138-5.843,9.752-6.451,15.373-1.031,9.529,1.619,19.03,4.244,28.249q7.833,27.516,15.667,55.033a33.977,33.977,0,0,0,18.682-7.078c-.413-12.027-3.1-25.308-8.239-36.191-3.309-7.011-7.594-13.76-8.825-21.414-.875-5.437-1.552-11.511,2.109-15.623s8.766-6.58,13.334-9.654a55.882,55.882,0,0,0,11.432-10.241,15.116,15.116,0,0,0,3.722-6.693C286.754,268.493,281.5,267.695,278.828,263.908Z" transform="translate(-233.539 -263.908)" fill="#3881a0"/>
                    </g>
                    <g id="Grupo_1231082" data-name="Grupo 1231082" transform="translate(10.989 2.722)">
                      <path id="Trazado_1220140" data-name="Trazado 1220140" d="M309.048,283.142c-5.405,11.795-19.922,15.711-32.641,18.269-13.967,2.809-28.3,5.626-42.363,3.328-2.244-.367-5.052-.637-6.3,1.266a5.783,5.783,0,0,0-.7,2.359,123.853,123.853,0,0,1-6.741,25.736c-6.564,17.236-16.871,32.751-27.093,48.1-6.688-1.378-13.439-3.641-18.646-8.059a431.591,431.591,0,0,0,24.945-56.557c4.191-11.973,8.528-25.065,19.09-32.09,8-5.323,18.1-6.091,27.19-9.208,7.4-2.539,14.322-6.706,22.061-7.883,14.6-2.221,28.5,6.555,39.92,15.916C308.581,284.108,308.24,283.354,309.048,283.142Z" transform="translate(-174.567 -268.058)" fill="#5d9dc1"/>
                    </g>
                    <g id="Grupo_1231084" data-name="Grupo 1231084" transform="translate(24.724 19.422)">
                      <g id="Grupo_1231083" data-name="Grupo 1231083">
                        <path id="Trazado_1220141" data-name="Trazado 1220141" d="M296.848,293.8c-2.847,3.92-7.6,5.761-12.044,7.206a120.594,120.594,0,0,1-33.331,5.84q-4.263.14-8.529-.022c-2.067-.079-4.283-.244-6.219.636a4.69,4.69,0,0,0-2.059,1.785c-.457.731-.777,2.223-1.79,2.322a6.61,6.61,0,0,1-1.746-.394,2.831,2.831,0,0,0-1.407.06,3.046,3.046,0,0,0-1.7,1.636c-.943,1.935-.814,4.325-1.075,6.414-.323,2.586-.786,5.154-1.36,7.695a114.044,114.044,0,0,1-11.231,28.707,302.119,302.119,0,0,1-16.578,26.556q-1.079,1.585-2.16,3.167c-.474.694.654,1.346,1.125.657,5.887-8.612,11.741-17.267,16.879-26.354a126.413,126.413,0,0,0,12.164-28.187,83.754,83.754,0,0,0,2.75-14.908,9.076,9.076,0,0,1,.611-3.091c.525-1.117,1.273-1.225,2.4-.892a2.714,2.714,0,0,0,2.809-.363,10.646,10.646,0,0,0,1.442-2.368c1.168-1.855,3.757-1.882,5.7-1.832,2.708.071,5.408.172,8.119.125a122.657,122.657,0,0,0,16.85-1.468,121.37,121.37,0,0,0,16.468-3.768c4.5-1.366,9.253-2.876,12.84-6.051a15.084,15.084,0,0,0,2.2-2.451c.493-.68-.637-1.331-1.126-.659Z" transform="translate(-195.502 -293.513)" fill="#fff"/>
                      </g>
                    </g>
                  </g>
                  <g id="Grupo_1231086" data-name="Grupo 1231086" transform="translate(88.318 56.849)">
                    <path id="Trazado_1220142" data-name="Trazado 1220142" d="M360.332,195.721c-1.2-7.192-3.42-14.372-7.753-20.237s-11.032-10.276-18.316-10.583c-7.583.63-15,5.115-19.95,10.893s-8.211,12.8-11.07,19.848a239.018,239.018,0,0,0-10.806,33.6c7.112,8.842,17.263,14.113,28.2,17.142s22.4,3.555,33.751,3.458C355.841,245.113,362.565,209.053,360.332,195.721Z" transform="translate(-292.436 -164.901)" fill="#f84558"/>
                  </g>
                  <g id="Grupo_1231095" data-name="Grupo 1231095" transform="translate(122.256)">
                    <g id="Grupo_1231087" data-name="Grupo 1231087">
                      <path id="Trazado_1220143" data-name="Trazado 1220143" d="M349.781,105.557c-1.645.108-2.847-1.5-3.542-3a22.723,22.723,0,0,1-.684-17.3,11.363,11.363,0,0,1,4.392-5.955c3.545-2.145,8.51-.846,11.179,2.325s3.248,7.732,2.285,11.762c.062-1.79.538-3.553,2.283-3.956a2.8,2.8,0,0,1,2.971,1.739,6.492,6.492,0,0,1,.241,3.671,10.739,10.739,0,0,1-1.176,3.68c1.164-1.413,3.9-.089,4.347,1.687s-.538,3.592-1.687,5.017a4.968,4.968,0,0,1,4.077,2.184,4.659,4.659,0,0,1,.6,4.434c-.507,1.281-1.577,2.3-1.987,3.611-.7,2.245.684,4.737.023,6.994-.943,3.221-5.139,3.93-7.714,6.082-1.025.857-1.923,2.04-3.242,2.256a3.917,3.917,0,0,1-3.289-1.436c-3.292-3.46-2.976-8.863-4.2-13.481A29.068,29.068,0,0,0,349.781,105.557Z" transform="translate(-344.167 -78.249)" fill="#473632"/>
                    </g>
                    <g id="Grupo_1231094" data-name="Grupo 1231094" transform="translate(0.235 22.461)">
                      <g id="Grupo_1231091" data-name="Grupo 1231091">
                        <g id="Grupo_1231088" data-name="Grupo 1231088">
                          <path id="Trazado_1220144" data-name="Trazado 1220144" d="M345.136,122.835c-1.925,7.58.819,14.646,6.521,17.092s12.552-2.7,15.639-9.9-.312-14.379-6.013-16.825S347.2,114.7,345.136,122.835Z" transform="translate(-344.525 -112.485)" fill="#f4ab7a"/>
                        </g>
                        <g id="Grupo_1231089" data-name="Grupo 1231089" transform="translate(18.588 17.112)">
                          <path id="Trazado_1220145" data-name="Trazado 1220145" d="M375.141,140.721c-1.516,1.992-3.159,3.914-1.745,4.99s5.348.9,6.864-1.095,1.6-4.479.186-5.555S376.657,138.729,375.141,140.721Z" transform="translate(-372.857 -138.568)" fill="#f4ab7a"/>
                        </g>
                        <g id="Grupo_1231090" data-name="Grupo 1231090" transform="translate(19.876 18.469)">
                          <path id="Trazado_1220146" data-name="Trazado 1220146" d="M376.218,141.953c-.928,1.219-1.933,2.4-1.068,3.053a3.6,3.6,0,0,0,4.2-.67c.928-1.219.979-2.74.113-3.4S377.146,140.735,376.218,141.953Z" transform="translate(-374.82 -140.636)" fill="#e28c52"/>
                        </g>
                      </g>
                      <g id="Grupo_1231092" data-name="Grupo 1231092" transform="translate(5.641 23.75)">
                        <path id="Trazado_1220147" data-name="Trazado 1220147" d="M366.186,148.686l-4.273,13.231a17.052,17.052,0,0,1-7.213.306,1.978,1.978,0,0,1-1.4-2.744l4.577-10.185Z" transform="translate(-353.123 -148.686)" fill="#f4ab7a"/>
                      </g>
                      <g id="Grupo_1231093" data-name="Grupo 1231093" transform="translate(7.161 24.16)">
                        <path id="Trazado_1220148" data-name="Trazado 1220148" d="M357.063,153.088s6.209.266,9.368-3.778c0,0-1.8,5.636-10.991,7.389Z" transform="translate(-355.44 -149.31)" fill="#e28c52"/>
                      </g>
                    </g>
                  </g>
                  <g id="Grupo_1231096" data-name="Grupo 1231096" transform="translate(109.813 82.184)">
                    <path id="Trazado_1220149" data-name="Trazado 1220149" d="M325.2,259.3c.672-1.985,6.435-7.931,8.457-7.378s3.8,1.83,5.845,2.284c3.457.768,6.936-.922,10.076-2.561l20.883-10.9c2.507-1.309,5.352-3.123,5.462-5.949a8.14,8.14,0,0,0-1.279-3.982l-11.856-22.484c5.455-2.288,12.227-4.709,18.141-4.807A127.693,127.693,0,0,1,391.5,228.85c.668,2.393,1.267,4.907.763,7.341-.874,4.215-4.743,7.042-8.378,9.347-8.7,5.516-17.93,10.528-28.017,12.6S333.571,265.3,325.2,259.3Z" transform="translate(-325.2 -203.518)" fill="#f4ab7a"/>
                  </g>
                  <g id="Grupo_1231101" data-name="Grupo 1231101" transform="translate(33.563 90.346)">
                    <g id="Grupo_1231097" data-name="Grupo 1231097" transform="translate(3.148)">
                      <path id="Trazado_1220150" data-name="Trazado 1220150" d="M224.709,267.512h64.227L278,215.959H213.774Z" transform="translate(-213.774 -215.959)" fill="#2b1f1d"/>
                    </g>
                    <g id="Grupo_1231098" data-name="Grupo 1231098">
                      <path id="Trazado_1220151" data-name="Trazado 1220151" d="M219.91,267.512h64.227L273.2,215.959H208.975Z" transform="translate(-208.975 -215.959)" fill="#473632"/>
                    </g>
                    <g id="Grupo_1231099" data-name="Grupo 1231099" transform="translate(10.935 45.888)">
                      <path id="Trazado_1220152" data-name="Trazado 1220152" d="M225.643,291.57h86.363v-.85a4.815,4.815,0,0,0-4.815-4.815H225.643Z" transform="translate(-225.643 -285.905)" fill="#473632"/>
                    </g>
                    <g id="Grupo_1231100" data-name="Grupo 1231100" transform="translate(32.698 22.936)">
                      <ellipse id="Elipse_14615" data-name="Elipse 14615" cx="1.794" cy="2.644" rx="1.794" ry="2.644" transform="matrix(0.981, -0.194, 0.194, 0.981, 0, 0.696)" fill="#2b1f1d"/>
                    </g>
                  </g>
                  <g id="Grupo_1231102" data-name="Grupo 1231102" transform="translate(141.939 62.735)">
                    <path id="Trazado_1220153" data-name="Trazado 1220153" d="M376.328,173.873s20.34,8.9,29.524,31.128A69.625,69.625,0,0,1,381.9,213.42S369.232,192.4,376.328,173.873Z" transform="translate(-374.17 -173.873)" fill="#f84558"/>
                  </g>
                  <g id="Grupo_1231103" data-name="Grupo 1231103" transform="translate(140.204 69.33)">
                    <path id="Trazado_1220154" data-name="Trazado 1220154" d="M373.686,183.925s.077,22.452,7.308,32.952l5.357-1.044,1.14,2.544-1.809,15.993S364.91,212.73,373.686,183.925Z" transform="translate(-371.524 -183.925)" fill="#db2e47"/>
                  </g>
                </g>
                <g id="Grupo_1231111" data-name="Grupo 1231111" transform="translate(241.905 19.459)">
                  <g id="Grupo_1231105" data-name="Grupo 1231105">
                    <path id="Trazado_1220155" data-name="Trazado 1220155" d="M428.292,114.649H411.357a10.736,10.736,0,0,1-10.736-10.736v-5.29a10.736,10.736,0,0,1,10.736-10.736h16.935a10.736,10.736,0,0,1,10.736,10.736v5.29A10.735,10.735,0,0,1,428.292,114.649Z" transform="translate(-400.621 -87.887)" fill="#ffca7a"/>
                  </g>
                  <g id="Grupo_1231106" data-name="Grupo 1231106" transform="translate(16.275 26.762)">
                    <path id="Trazado_1220156" data-name="Trazado 1220156" d="M435.03,128.679l-9.6,9.112,1.248-9.112Z" transform="translate(-425.429 -128.679)" fill="#ffca7a"/>
                  </g>
                  <g id="Grupo_1231110" data-name="Grupo 1231110" transform="translate(10.046 8.148)">
                    <g id="Grupo_1231107" data-name="Grupo 1231107">
                      <path id="Trazado_1220157" data-name="Trazado 1220157" d="M433.445,101.915H416.738a.8.8,0,0,1,0-1.609h16.707a.8.8,0,0,1,0,1.609Z" transform="translate(-415.934 -100.306)" fill="#fff"/>
                    </g>
                    <g id="Grupo_1231108" data-name="Grupo 1231108" transform="translate(0 4.422)">
                      <path id="Trazado_1220158" data-name="Trazado 1220158" d="M433.445,108.655H416.738a.8.8,0,0,1,0-1.609h16.707a.8.8,0,0,1,0,1.609Z" transform="translate(-415.934 -107.046)" fill="#fff"/>
                    </g>
                    <g id="Grupo_1231109" data-name="Grupo 1231109" transform="translate(0 8.844)">
                      <path id="Trazado_1220159" data-name="Trazado 1220159" d="M433.445,115.4H416.738a.8.8,0,0,1,0-1.609h16.707a.8.8,0,0,1,0,1.609Z" transform="translate(-415.934 -113.787)" fill="#fff"/>
                    </g>
                  </g>
                </g>
                <g id="Grupo_1231118" data-name="Grupo 1231118" transform="translate(241.906 58.998)">
                  <g id="Grupo_1231112" data-name="Grupo 1231112">
                    <path id="Trazado_1220160" data-name="Trazado 1220160" d="M411.358,174.916h16.935a10.736,10.736,0,0,0,10.736-10.736v-5.29a10.736,10.736,0,0,0-10.736-10.736H411.358a10.736,10.736,0,0,0-10.736,10.736v5.29A10.735,10.735,0,0,0,411.358,174.916Z" transform="translate(-400.622 -148.154)" fill="#00ac64"/>
                  </g>
                  <g id="Grupo_1231113" data-name="Grupo 1231113" transform="translate(12.53 26.762)">
                    <path id="Trazado_1220161" data-name="Trazado 1220161" d="M419.721,188.946l9.6,9.112-1.248-9.112Z" transform="translate(-419.721 -188.946)" fill="#00ac64"/>
                  </g>
                  <g id="Grupo_1231117" data-name="Grupo 1231117" transform="translate(10.046 8.148)">
                    <g id="Grupo_1231114" data-name="Grupo 1231114">
                      <path id="Trazado_1220162" data-name="Trazado 1220162" d="M433.445,162.182H416.738a.8.8,0,0,1,0-1.609h16.707a.8.8,0,0,1,0,1.609Z" transform="translate(-415.934 -160.573)" fill="#fff"/>
                    </g>
                    <g id="Grupo_1231115" data-name="Grupo 1231115" transform="translate(0 4.422)">
                      <path id="Trazado_1220163" data-name="Trazado 1220163" d="M433.445,168.922H416.738a.8.8,0,1,1,0-1.609h16.707a.8.8,0,1,1,0,1.609Z" transform="translate(-415.934 -167.313)" fill="#fff"/>
                    </g>
                    <g id="Grupo_1231116" data-name="Grupo 1231116" transform="translate(0 8.844)">
                      <path id="Trazado_1220164" data-name="Trazado 1220164" d="M433.445,175.663H416.738a.8.8,0,0,1,0-1.609h16.707a.8.8,0,0,1,0,1.609Z" transform="translate(-415.934 -174.054)" fill="#fff"/>
                    </g>
                  </g>
                </g>
              </g>
            </g>
          </g>
        </g>
      </g>
    </g>
  </g>
</svg>
