<svg xmlns="http://www.w3.org/2000/svg" xmlns:xlink="http://www.w3.org/1999/xlink" width="190" height="184" viewBox="0 0 190 184">
  <defs>
    <clipPath id="clip-path">
      <rect id="Rectángulo_421610" data-name="Rectángulo 421610" width="190" height="184" transform="translate(180 314)" fill="#fff" stroke="#707070" stroke-width="1"/>
    </clipPath>
  </defs>
  <g id="Enmascarar_grupo_1098793" data-name="Enmascarar grupo 1098793" transform="translate(-180 -314)" clip-path="url(#clip-path)">
    <g id="Grupo_1223889" data-name="Grupo 1223889" transform="translate(-1270.54 222.572)">
      <path id="Trazado_1176511" data-name="Trazado 1176511" d="M1464.461,241.437c-4.28-.494-2.842-110.918.306-112.613s121.268-16.169,125.18-13.822,2.784,123.217-1.573,125.88S1468.74,241.93,1464.461,241.437Z" transform="translate(0 0)" fill="#f6c810"/>
      <g id="Grupo_1223888" data-name="Grupo 1223888" transform="translate(1474.301 127.3)">
        <path id="Trazado_1176512" data-name="Trazado 1176512" d="M1800.815,266.562a36.946,36.946,0,0,1,6.985-1.164c2.561,0,7.335,4.308,5.938,5.821s-9.663-1.747-9.663-1.747-3.958,3.143-3.958,2.794S1800.815,266.562,1800.815,266.562Z" transform="translate(-1647.751 -204.535)" fill="#f6a383"/>
        <path id="Trazado_1176513" data-name="Trazado 1176513" d="M1632.289,240.6c.577,2.41-9.1,12.417-14.438,16.748s-2.166,38.694,8.374,36.962c6.137-1.009,19.019-1.511,18.985-8.03-.024-4.676-12.343-16.045-12.343-16.226,0-.433,12.85-20.069,12.417-20.213S1632.289,240.6,1632.289,240.6Z" transform="translate(-1553.001 -191.821)" fill="#f6a383"/>
        <path id="Trazado_1176514" data-name="Trazado 1176514" d="M1619.267,272.156c.09.271,5.145,20.761,10.02,19.677s5.235-4.784,5.325-4.513,0,20.851-3.43,21.032-16.428-6.048-16.338-10.922S1619.267,272.156,1619.267,272.156Z" transform="translate(-1552.767 -208)" fill="#fff"/>
        <path id="Trazado_1176515" data-name="Trazado 1176515" d="M1658.429,255.591c2.013-3.214,3.52-5.7,3.366-5.752-.433-.144-12.994-9.24-12.994-9.24.258,1.078,1.245,2.237-1.3,5.169C1651.46,262.2,1658.351,255.709,1658.429,255.591Z" transform="translate(-1569.511 -191.821)"/>
        <path id="Trazado_1176516" data-name="Trazado 1176516" d="M1627.992,207.116c-.147.44,19.643,17.151,30.051,13.34s2.614-45.872,1.613-47.348c-8.523-12.569-36.207-2.638-34.3,24.92,0,0-2.719-4.4-4.7-5.52-2.705-1.533-6.819-.679-8.22,2.273C1609.156,201.681,1626.54,209.039,1627.992,207.116Z" transform="translate(-1551.321 -154.464)" fill="#f6a383"/>
        <path id="Trazado_1176517" data-name="Trazado 1176517" d="M1641.348,188.836s9.434,2.713,17.984,1.178,3.732-3.661,3.732-3.661l12.763.5-1.773-8.326s-33.787-.409-33.933-.117S1641.348,188.836,1641.348,188.836Z" transform="translate(-1565.719 -159.887)"/>
        <path id="Trazado_1176518" data-name="Trazado 1176518" d="M1703.508,208.5c-2.626,1.238-1.988,8.365,1.163,7.315S1706.135,207.264,1703.508,208.5Z" transform="translate(-1597.382 -175.296)"/>
        <path id="Trazado_1176519" data-name="Trazado 1176519" d="M1673.268,223.962c-2.626,1.238-1.988,8.365,1.163,7.315S1675.895,222.724,1673.268,223.962Z" transform="translate(-1581.879 -183.222)"/>
        <path id="Trazado_1176520" data-name="Trazado 1176520" d="M1694.09,227.906c-.374,0-.728-.02-1.039-.047a.487.487,0,0,1,.086-.971c1.092.1,3.684.158,4.144-1.337.488-1.584-2.509-5.755-4.513-8.011a.488.488,0,0,1,.729-.648c.567.639,5.523,6.32,4.715,8.944C1697.692,227.54,1695.7,227.906,1694.09,227.906Z" transform="translate(-1592.633 -179.584)"/>
        <path id="Trazado_1176521" data-name="Trazado 1176521" d="M1682.362,251.309a4.882,4.882,0,0,1-1.5-.238,6.883,6.883,0,0,1-3.989-3.863.487.487,0,0,1,.889-.4,5.914,5.914,0,0,0,3.4,3.334,3.756,3.756,0,0,0,3.115-.331.487.487,0,0,1,.489.843A4.78,4.78,0,0,1,1682.362,251.309Z" transform="translate(-1584.545 -194.857)"/>
        <path id="Trazado_1176522" data-name="Trazado 1176522" d="M1660.038,221.014c-.39,0-.785-.011-1.187-.032a1.218,1.218,0,0,1,.13-2.433,13.3,13.3,0,0,0,8.978-2.332,1.218,1.218,0,0,1,1.454,1.955A15.325,15.325,0,0,1,1660.038,221.014Z" transform="translate(-1574.736 -179.197)"/>
        <path id="Trazado_1176523" data-name="Trazado 1176523" d="M1701.571,201.866a1.215,1.215,0,0,1-.542-.128,12.448,12.448,0,0,0-8.248-.985,1.218,1.218,0,1,1-.418-2.4,14.889,14.889,0,0,1,9.753,1.2,1.218,1.218,0,0,1-.544,2.309Z" transform="translate(-1591.99 -170.004)"/>
        <path id="Trazado_1176524" data-name="Trazado 1176524" d="M1625.157,170.033c.978,2.7,6.077,11.674,1.739,18.93-1.54.88-3.816-.89-5.669-4.892-2.9-5.14-13.91-7.134-10.866,1.026,3.442,7.125,13.421,8.062,13.421,8.062l.485.465a26.278,26.278,0,0,1-4.654,5.317,5.929,5.929,0,0,0-2.889-4.466c-2.872-1.947-10.658-6.067-12.34-9.094-2.2-3.96,5.187-14.524,5.187-14.524s8.729-29.294,29.077-30.319,28.556,23.94,27.9,24.38c-.328.219-7.327.736-14.035.573-6.767-.165-13.241-1.013-13.241-1.013s7.156,1.653,5.47,3.155S1625.157,170.033,1625.157,170.033Z" transform="translate(-1547.194 -140.507)" fill="#530202"/>
        <path id="Trazado_1176525" data-name="Trazado 1176525" d="M1605.44,185.4s-4.839.38-6.736-2.182-3.036-7.211-3.036-7.211,4.744,1.138,6.736,3.226a17.264,17.264,0,0,1,3.131,5.218s-4.46-15.374-3.132-17.176S1609.227,184.784,1605.44,185.4Z" transform="translate(-1542.936 -154.17)" fill="#530202"/>
        <path id="Trazado_1176526" data-name="Trazado 1176526" d="M1764.01,248.684c0,.514,1.548,10.881,2.28,21.257.646,9.163.487,18.514.487,18.514l12.519,2.075s-1.874-10.115-1.245-18.4c.06-.792,2.362-1.646,2.421-2.421a62.53,62.53,0,0,0-.242-12.07L1767.157,240.7Z" transform="translate(-1629.24 -191.87)" fill="#f6a383"/>
        <path id="Trazado_1176527" data-name="Trazado 1176527" d="M1778.948,271.138c.675-.484,1.492-.969,1.527-1.427a62.529,62.529,0,0,0-.242-12.07l-13.073-16.946-3.147,7.989c0,.208.252,2.018.6,4.784C1771.96,255.716,1776.941,261.9,1778.948,271.138Z" transform="translate(-1629.241 -191.87)"/>
        <path id="Trazado_1176528" data-name="Trazado 1176528" d="M1530.76,371.008s5.331,11.394,7.184,10.2-.362-6.274-.362-6.274,3.81,9.722,5.819,5.805c1.324-1.721.271-7.261.271-7.261s4.165,9.378,5.488,7.127.468-6.465.468-6.465,3.509,8.323,5.759,6.867.2-8.853.2-8.853Z" transform="translate(-1509.659 -258.678)"/>
        <path id="Trazado_1176530" data-name="Trazado 1176530" d="M1644.848,252.161c-1.384-.588-13.764-1.487-14.871.173s-1.107,22.583-14.906,25c-3.994.7-12.765-11.131-22.284-19.631-5.693-5.083-14.035-8.03-15.163-9.017-2.488-6.428-4.627-4.4-4.627-4.4s-.584,11.3-4.248,10.748-8.538-19.737-8.6-24.175c.212-1.752,3.663-4.593,3.663-4.593s-4.719-5.08-7.337-4.088c-7.237-5.789-20.1-17.327-31.182-24.547-8.774-5.716-16.164-8.127-20.633-7.033-14.149,3.465,5,42.472,11.643,39.584s9.165,12.428,8.443,16.326-25.93,33.513-26.219,34.091c.1.026,22.67.341,42.456.521,14.691.134,28.151.149,28.151.149s27.541,36.5,51.507,32.381S1646.232,252.749,1644.848,252.161Z" transform="translate(-1493.133 -166.055)" fill="#490075"/>
        <path id="Trazado_1176531" data-name="Trazado 1176531" d="M1628.872,232.658a.488.488,0,0,1-.464-.338,4.968,4.968,0,0,0-4.609-3.735,1.465,1.465,0,0,0-1.468,1.11.487.487,0,1,1-.96-.164,2.378,2.378,0,0,1,2.359-1.918c2.038-.152,4.614,1.322,5.607,4.409a.487.487,0,0,1-.315.613A.518.518,0,0,1,1628.872,232.658Z" transform="translate(-1556.109 -185.158)"/>
        <path id="Trazado_1176532" data-name="Trazado 1176532" d="M1630.779,235.13a5.109,5.109,0,0,1-1.239-.17.487.487,0,1,1,.238-.945c1.065.269,1.785.157,2.2-.339a.487.487,0,0,1,.746.627A2.4,2.4,0,0,1,1630.779,235.13Z" transform="translate(-1560.112 -188.183)"/>
        <path id="Trazado_1176533" data-name="Trazado 1176533" d="M1502.92,314.4l6.174,23.138,31.107.529-4.715-6.646s-14.014-.082-16.458-2.148-7.008-27.969-7.008-27.969Z" transform="translate(-1495.386 -222.941)" fill="#f6a383"/>
        <path id="Trazado_1176534" data-name="Trazado 1176534" d="M1534.244,205.022s-36.2-31.61-43.463-18.053-.446,70.678.229,71.682c1.877,2.791,17.988,2.523,17.569-.962-.149-1.239-4.912-32.677,4.393-31.5s13.993,13.735,13.993,12.524S1534.244,205.022,1534.244,205.022Z" transform="translate(-1487.461 -162.594)" fill="#490075"/>
        <path id="Trazado_1176535" data-name="Trazado 1176535" d="M1533,371.577c1.684,2.582.842,8.924-.225,9.2s-3.394-7.368-4.658-7.69a74.682,74.682,0,0,0-8.013-.241S1531.322,368.995,1533,371.577Z" transform="translate(-1504.198 -258.513)" fill="#f6a383"/>
        <path id="Trazado_1176536" data-name="Trazado 1176536" d="M1541.5,368.881c.337-.169,6.23-3.424,8.419-1.066s.73,9.822-.673,10.608-4.658-7.016-4.658-7.016Z" transform="translate(-1515.165 -256.603)" fill="#f6a383"/>
        <path id="Trazado_1176537" data-name="Trazado 1176537" d="M1553.48,368.65c.337-.169,6.23-3.424,8.419-1.066s.729,9.822-.673,10.608-4.658-7.016-4.658-7.016Z" transform="translate(-1521.307 -256.485)" fill="#f6a383"/>
        <path id="Trazado_1176538" data-name="Trazado 1176538" d="M1554.06,362.323s11.226-1.01,12.516-.786c2.189,2.357,2.763,13.676,1.36,14.462s-3.942-8.007-3.942-8.007Z" transform="translate(-1521.604 -253.806)" fill="#f6a383"/>
        <path id="Trazado_1176539" data-name="Trazado 1176539" d="M1627.279,298.808c-.062,0-.122,0-.185,0-2.268-.107-4.442-1.66-6.462-4.618-6.274-9.188-9.15-28.963-5.7-39.185a.487.487,0,0,1,.923.312c-3.374,9.994-.558,29.334,5.58,38.323,1.813,2.654,3.784,4.1,5.7,4.194.045,0,.091,0,.136,0,4.748,0,7.952-11.7,8.792-16.254a.487.487,0,1,1,.958.177C1636.9,282.459,1633.809,298.807,1627.279,298.808Z" transform="translate(-1552.055 -199.035)"/>
        <path id="Trazado_1176540" data-name="Trazado 1176540" d="M1642.907,365.543a.487.487,0,0,1-.185-.938,30.32,30.32,0,0,0,12.916-10.624.488.488,0,0,1,.8.556,31.322,31.322,0,0,1-13.346,10.969A.511.511,0,0,1,1642.907,365.543Z" transform="translate(-1566.904 -249.841)"/>
        <path id="Trazado_1176541" data-name="Trazado 1176541" d="M1531.284,260.754c-.4,0-.865-.614-5.182-10.243a.487.487,0,0,1,.889-.4c1.225,2.732,3.1,6.815,4.066,8.744.295-1.953.823-5.575,1.061-7.218a.487.487,0,0,1,.964.14c-.048.328-1.168,8.054-1.275,8.567a.522.522,0,0,1-.438.4A.63.63,0,0,1,1531.284,260.754Z" transform="translate(-1507.249 -196.551)"/>
        <path id="Trazado_1176542" data-name="Trazado 1176542" d="M1735.409,179.66c-15.624.464-20.087,37.3-7.816,40.9.9.265,5.457.933,5.457.933s10.627-7.183,13.689-16.88c2.644-8.374-4.735-23.97-4.735-23.97S1736.042,179.641,1735.409,179.66Zm-3.981,34.021c-10.479-.348-6.522-28.171,4.539-26.072S1741.905,214.029,1731.427,213.681Z" transform="translate(-1606.954 -160.579)" fill="#490075"/>
        <path id="Trazado_1176543" data-name="Trazado 1176543" d="M1732.168,247.627a39.883,39.883,0,0,1-6.528-1.21c.2,4.688-2.792,3.323-3.655-.542,1,4.359,3.08,7.676,6.348,8.636.9.265,5.457.933,5.457.933s.48-.325,1.26-.925C1735.121,252.013,1732.894,247.651,1732.168,247.627Z" transform="translate(-1607.695 -194.525)"/>
        <path id="Trazado_1176544" data-name="Trazado 1176544" d="M1754.71,191.727c3.061,1.179,4.584,4.345,4.9,8.073.476-5.345,2.641-2.943,5.038,1.5a58.7,58.7,0,0,0-4.011-14.3A15.924,15.924,0,0,0,1754.71,191.727Z" transform="translate(-1624.472 -164.345)"/>
        <path id="Trazado_1176545" data-name="Trazado 1176545" d="M1765.77,246.594s19.2,24.6,21.291,25.07,5.949-4.086,3.116-7.247-20.9-23.284-20.9-23.284Z" transform="translate(-1630.142 -192.095)" fill="#5f3924"/>
        <path id="Trazado_1176546" data-name="Trazado 1176546" d="M1744.906,181.131c-18.4-2.89-23.233,42.863-6.783,41C1753.756,220.363,1760.632,183.593,1744.906,181.131Zm-5.931,33.894c-10.48-.348-6.521-28.171,4.539-26.072S1749.453,215.373,1738.975,215.025Z" transform="translate(-1610.822 -161.266)" fill="#b231fa"/>
        <path id="Trazado_1176547" data-name="Trazado 1176547" d="M1758.07,266.48s5.2-13.539,8.848-13.5-2.612,23.48-3.674,23.262S1758.07,266.48,1758.07,266.48Z" transform="translate(-1626.194 -198.166)" fill="#f6a383"/>
        <path id="Trazado_1176548" data-name="Trazado 1176548" d="M1781.93,250.078s8.515-4.217,9.8-2.7-3.385,21.2-5.244,18.925-2.324-13.337-2.324-13.337Z" transform="translate(-1638.427 -195.127)" fill="#f6a383"/>
        <path id="Trazado_1176549" data-name="Trazado 1176549" d="M1775.05,240.272s9.474-4.2,10.754-2.685-3.385,21.2-5.244,18.925-2.486-12.87-2.486-12.87Z" transform="translate(-1634.899 -190.108)" fill="#f6a383"/>
        <path id="Trazado_1176550" data-name="Trazado 1176550" d="M1792.71,260.363s7.8-2.91,9.081-1.4-3.385,21.2-5.244,18.925-.578-13.337-.578-13.337Z" transform="translate(-1643.953 -201.014)" fill="#f6a383"/>
        <path id="Trazado_1176551" data-name="Trazado 1176551" d="M1773.6,352.622c-5.7,0-12.743-3.346-13.885-4.192a.487.487,0,1,1,.58-.782c1.765,1.309,12.848,6.136,17.586,2.939a.488.488,0,1,1,.545.808A8.59,8.59,0,0,1,1773.6,352.622Z" transform="translate(-1626.935 -246.652)"/>
        <path id="Trazado_1176552" data-name="Trazado 1176552" d="M1778.706,337.795h-.031a.488.488,0,0,1-.457-.517c.451-7.3,1.013-16.067,1.126-16.406a.487.487,0,0,1,.935.272c-.1.614-.706,10-1.088,16.193A.483.483,0,0,1,1778.706,337.795Z" transform="translate(-1636.523 -232.803)"/>
        <path id="Trazado_1176553" data-name="Trazado 1176553" d="M1785.957,341.664h-.039a.488.488,0,0,1-.447-.524l1.063-13.462a.487.487,0,0,1,.972.077l-1.063,13.462A.485.485,0,0,1,1785.957,341.664Z" transform="translate(-1640.241 -236.233)"/>
        <path id="Trazado_1176554" data-name="Trazado 1176554" d="M1501.235,299.86a37.478,37.478,0,0,1-11.626-2.059.487.487,0,0,1,.3-.926c6.926,2.264,12.848,2.612,18.11,1.062a.487.487,0,0,1,.275.935A24.8,24.8,0,0,1,1501.235,299.86Z" transform="translate(-1488.39 -220.659)"/>
        <path id="Trazado_1176555" data-name="Trazado 1176555" d="M1504.65,318.5a.487.487,0,0,1-.484-.44c-.643-6.652-1.626-16.678-1.724-17.326a.486.486,0,0,1,.55-.6c.388.063.388.063.7,3.154.165,1.633.381,3.807.595,5.982.428,4.349.848,8.7.848,8.7a.487.487,0,0,1-.438.532Z" transform="translate(-1495.133 -222.338)"/>
        <path id="Trazado_1176556" data-name="Trazado 1176556" d="M1512.047,319.138a.487.487,0,0,1-.483-.432l-1.979-17.245a.487.487,0,0,1,.968-.111l1.979,17.245a.486.486,0,0,1-.428.539A.529.529,0,0,1,1512.047,319.138Z" transform="translate(-1498.802 -222.745)"/>
        <path id="Trazado_1176557" data-name="Trazado 1176557" d="M1506.665,344.5c.11-.914,11.047-4.074,11.752-3.29s2.062,7.828,2.062,7.828-10.851,5.252-11.413,4.584S1506.553,345.41,1506.665,344.5Z" transform="translate(-1497.304 -243.335)" fill="#7b0632"/>
        <path id="Trazado_1176558" data-name="Trazado 1176558" d="M1517.5,342.157c-7.146,1.582-3.516,13.116,2.9,10.185C1525.783,349.881,1523.59,340.809,1517.5,342.157Z" transform="translate(-1500.852 -243.817)" fill="#fff"/>
        <path id="Trazado_1176559" data-name="Trazado 1176559" d="M1519.836,352.738a3.854,3.854,0,0,1-3.554-1.892,5.124,5.124,0,0,1,.282-5.12,3.406,3.406,0,0,1,3.234-1.657,5.042,5.042,0,0,1,4.282,5.123c-.054,1.645-1.141,3.439-4.033,3.542C1519.977,352.737,1519.9,352.738,1519.836,352.738Zm-.385-7.712a2.51,2.51,0,0,0-2.073,1.233,4.173,4.173,0,0,0-.249,4.108,2.953,2.953,0,0,0,2.882,1.393c1.914-.068,3.041-1.016,3.093-2.6a4.094,4.094,0,0,0-3.406-4.121C1519.616,345.031,1519.534,345.026,1519.451,345.026Z" transform="translate(-1501.951 -244.858)"/>
        <path id="Trazado_1176560" data-name="Trazado 1176560" d="M1524.977,351.2a.487.487,0,0,1-.156-.026l-1.769-.6a.487.487,0,0,1-.319-.357c-.5-2.245-.5-2.292-.5-2.359a.487.487,0,0,1,.971-.056c.026.15.249,1.17.417,1.936l1.509.512a.487.487,0,0,1-.156.949Zm-1.769-3.341h0Z" transform="translate(-1505.29 -246.56)"/>
        <path id="Trazado_1176561" data-name="Trazado 1176561" d="M1628.688,328.192a.487.487,0,0,1-.387-.783l5.262-6.885a.487.487,0,1,1,.775.592L1629.076,328A.486.486,0,0,1,1628.688,328.192Z" transform="translate(-1559.615 -232.698)"/>
        <path id="Trazado_1176562" data-name="Trazado 1176562" d="M1640.977,335.822h-.039a.487.487,0,0,1-.447-.525l.64-7.972a.487.487,0,0,1,.972.078l-.64,7.972A.487.487,0,0,1,1640.977,335.822Z" transform="translate(-1565.914 -236.053)"/>
        <path id="Trazado_1176563" data-name="Trazado 1176563" d="M1622.108,318.289a.487.487,0,0,1-.332-.843l4.388-4.1a.487.487,0,0,1,.665.712l-4.388,4.1A.482.482,0,0,1,1622.108,318.289Z" transform="translate(-1556.241 -229.049)"/>
        <path id="Trazado_1176564" data-name="Trazado 1176564" d="M1644.527,194.7a.487.487,0,0,1-.01-.975c9.269-.193,19.313-.939,20.284-1.857-.018-.723-2.926-2.044-6.348-2.871a.487.487,0,0,1,.191-.955,107.744,107.744,0,0,0,28.387.761.487.487,0,1,1,.1.969,108.013,108.013,0,0,1-23.6-.083c1.353.66,2.387,1.476,2.227,2.4-.1.558-.26,1.493-10.94,2.177-5.1.326-10.229.436-10.28.437Z" transform="translate(-1567.734 -164.872)"/>
        <path id="Trazado_1176565" data-name="Trazado 1176565" d="M1633.362,297.4a2.27,2.27,0,0,1-1.385-.546c-3.4-2.647-7.33-15.964-7.89-24.356a.487.487,0,0,1,.454-.519.5.5,0,0,1,.519.454c.536,8.027,4.35,21.189,7.516,23.651a1.2,1.2,0,0,0,.913.329c1.154-.212,2.706-2.819,3.441-7.392a.487.487,0,1,1,.962.155c-.747,4.643-2.406,7.86-4.227,8.195A1.686,1.686,0,0,1,1633.362,297.4Z" transform="translate(-1557.504 -207.907)"/>
        <path id="Trazado_1176566" data-name="Trazado 1176566" d="M1549.418,293.568a.487.487,0,0,1-.386-.783l12.177-15.972a.487.487,0,1,1,.775.591l-12.177,15.972A.5.5,0,0,1,1549.418,293.568Z" transform="translate(-1518.975 -210.288)"/>
        <path id="Trazado_1176567" data-name="Trazado 1176567" d="M1543.542,377.347a.487.487,0,0,1-.463-.64c.972-2.958.524-7.307-.939-9.125a1.912,1.912,0,0,0-1.756-.84.488.488,0,0,1-.1-.97,2.9,2.9,0,0,1,2.615,1.2c1.843,2.29,2.061,7.13,1.106,10.041A.488.488,0,0,1,1543.542,377.347Z" transform="translate(-1514.317 -255.986)"/>
        <path id="Trazado_1176568" data-name="Trazado 1176568" d="M1553.924,377.228a.487.487,0,0,1-.349-.827c.783-.807,1.713-9.307,1.143-10.455-.37-.745-2.9-.469-3.709-.237a.492.492,0,0,1-.6-.323.482.482,0,0,1,.307-.6c.04-.012,4.016-1.011,4.88.732.7,1.412-.116,10.33-1.316,11.566A.494.494,0,0,1,1553.924,377.228Z" transform="translate(-1519.719 -255.334)"/>
        <path id="Trazado_1176569" data-name="Trazado 1176569" d="M1567.073,374.941a.491.491,0,0,1-.083-.007.486.486,0,0,1-.4-.562c.012-.074,1.261-7.43.64-9.643-.394-1.4-2.147-1.393-3.548-1.138a1.55,1.55,0,0,1-.208.028.487.487,0,0,1-.044-.973l.077-.014c3.43-.625,4.394.88,4.662,1.833.68,2.423-.564,9.76-.618,10.072A.491.491,0,0,1,1567.073,374.941Z" transform="translate(-1526.182 -254.308)"/>
        <path id="Trazado_1176570" data-name="Trazado 1176570" d="M1768.178,268.9a.487.487,0,0,1-.472-.61c1.832-7.052,2.893-14.963,1.41-15.445a1.273,1.273,0,0,0-1.036.165c-2.086,1.148-4.281,6.2-4.458,6.842a.487.487,0,0,1-.465.414.48.48,0,0,1-.5-.47c-.014-.4,2.117-5.552,4.479-7.329a2.459,2.459,0,0,1,2.286-.55c3.036.991.179,12.97-.769,16.618A.485.485,0,0,1,1768.178,268.9Z" transform="translate(-1628.544 -197.575)"/>
        <path id="Trazado_1176571" data-name="Trazado 1176571" d="M1787.658,257.458a.487.487,0,0,1-.42-.733c2.088-3.578,3.518-9.228,4.5-17.782a.487.487,0,1,1,.968.111c-1,8.692-2.466,14.464-4.624,18.162A.482.482,0,0,1,1787.658,257.458Z" transform="translate(-1641.113 -190.751)"/>
        <path id="Trazado_1176572" data-name="Trazado 1176572" d="M1792.808,269.009a.487.487,0,0,1-.434-.707c2.008-3.972,3.428-9.16,4.34-15.861a.487.487,0,1,1,.966.131c-.927,6.81-2.378,12.1-4.436,16.17A.487.487,0,0,1,1792.808,269.009Z" transform="translate(-1643.754 -197.676)"/>
        <path id="Trazado_1176573" data-name="Trazado 1176573" d="M1803.567,278.844a.487.487,0,0,1-.45-.674,59.7,59.7,0,0,0,3.7-15.176.493.493,0,0,1,.546-.421.487.487,0,0,1,.421.546,60.65,60.65,0,0,1-3.764,15.424A.49.49,0,0,1,1803.567,278.844Z" transform="translate(-1649.269 -203.085)"/>
        <path id="Trazado_1176574" data-name="Trazado 1176574" d="M1781.773,284.839a.487.487,0,0,1-.486-.461c-.154-2.922-.927-5.008-2.3-6.2a4.513,4.513,0,0,0-3.364-1.077c-.047,0-.078.005-.093.005a.487.487,0,0,1-.016-.974,5.493,5.493,0,0,1,4.114,1.311c1.576,1.374,2.46,3.691,2.63,6.886a.488.488,0,0,1-.461.513Z" transform="translate(-1634.897 -210.025)"/>
        <path id="Trazado_1176575" data-name="Trazado 1176575" d="M1744,223.272c-10.479-.348-6.521-28.171,4.539-26.072S1754.474,223.621,1744,223.272Z" transform="translate(-1615.844 -169.514)" fill="#00c2ba" opacity="0.3"/>
        <path id="Trazado_1176576" data-name="Trazado 1176576" d="M1748.971,202.7c-4.743.678-4.279,11.043-.966,7.868S1750.905,202.425,1748.971,202.7Z" transform="translate(-1619.731 -172.387)" fill="#fff"/>
        <path id="Trazado_1176577" data-name="Trazado 1176577" d="M1745.918,224.523c-2.347,0-1.615,4.078-.6,4.11S1748.267,224.523,1745.918,224.523Z" transform="translate(-1619.164 -183.579)" fill="#fff"/>
        <path id="Trazado_1176578" data-name="Trazado 1176578" d="M1524.943,375.723h-.005l-9.871-.1a.487.487,0,0,1,.005-.975h0l9.871.1a.487.487,0,0,1,0,.975Z" transform="translate(-1501.366 -260.546)"/>
      </g>
    </g>
  </g>
</svg>
