<svg xmlns="http://www.w3.org/2000/svg" xmlns:xlink="http://www.w3.org/1999/xlink" width="400" height="305" viewBox="0 0 400 305">
  <defs>
    <clipPath id="clip-path">
      <rect id="Rectángulo_422921" data-name="Rectángulo 422921" width="400" height="305" transform="translate(1020 4533)" fill="#fff" stroke="#707070" stroke-width="1"/>
    </clipPath>
    <clipPath id="clip-path-3">
      <rect id="Rectángulo_422919" data-name="Rectángulo 422919" width="494.03" height="352.926" transform="translate(0 0)" fill="none"/>
    </clipPath>
  </defs>
  <g id="Enmascarar_grupo_1208516" data-name="Enmascarar grupo 1208516" transform="translate(-1020 -4533)" clip-path="url(#clip-path)">
    <g id="Grupo_1231125" data-name="Grupo 1231125">
      <rect id="Rectángulo_422920" data-name="Rectángulo 422920" width="242" height="247" transform="translate(1138 4559)" fill="#f6ecfe"/>
      <g id="Enmascarar_grupo_1208515" data-name="Enmascarar grupo 1208515" transform="translate(0 -26)" clip-path="url(#clip-path)">
        <g id="Grupo_1231124" data-name="Grupo 1231124" transform="translate(963.326 4548.259)">
          <g id="Grupo_1231123" data-name="Grupo 1231123" transform="translate(0 0.001)" clip-path="url(#clip-path-3)">
            <path id="Trazado_1220166" data-name="Trazado 1220166" d="M659.351,760.177H467.5a12.54,12.54,0,0,0-12.5,12.5V886.1a12.54,12.54,0,0,0,12.5,12.5H659.351a12.54,12.54,0,0,0,12.5-12.5V884.5h0V772.681a12.541,12.541,0,0,0-12.5-12.5" transform="translate(-380.827 -636.26)" fill="#7ba9e3" fill-rule="evenodd"/>
            <path id="Trazado_1220167" data-name="Trazado 1220167" d="M485.16,802.307H692.1a.048.048,0,0,1,.051.043V914.166a.048.048,0,0,1-.051.043H485.16a.048.048,0,0,1-.051-.043V802.35a.048.048,0,0,1,.051-.043" transform="translate(-406.031 -671.522)" fill="#355298" fill-rule="evenodd"/>
            <rect id="Rectángulo_422906" data-name="Rectángulo 422906" width="68.064" height="102.425" transform="translate(214.09 135.457)" fill="#506aaa"/>
            <path id="Trazado_1220168" data-name="Trazado 1220168" d="M916.566,1590.24c-.881,15.923-3.211,19.95-19.358,29.024h71.58c-16.147-9.074-18.477-13.1-19.358-29.024L933,1588.946Z" transform="translate(-750.953 -1329.93)" fill="#7ba9e3" fill-rule="evenodd"/>
            <path id="Trazado_1220169" data-name="Trazado 1220169" d="M1098.567,1515.849a4.206,4.206,0,1,1-4.206,4.206,4.206,4.206,0,0,1,4.206-4.206" transform="translate(-915.968 -1268.749)" fill="#b1cbef" fill-rule="evenodd"/>
            <rect id="Rectángulo_422907" data-name="Rectángulo 422907" width="34.053" height="4.529" transform="translate(165.059 262.34)" fill="#355298"/>
            <rect id="Rectángulo_422908" data-name="Rectángulo 422908" width="359.207" height="0.638" transform="translate(68.481 289.334)" fill="#000446"/>
            <path id="Trazado_1220170" data-name="Trazado 1220170" d="M662.685,889.239l-3.345-6.153H625.982v67.889H711.26V889.239Z" transform="translate(-523.94 -739.133)" fill="#f79646" fill-rule="evenodd"/>
            <rect id="Rectángulo_422909" data-name="Rectángulo 422909" width="79.813" height="58.932" transform="translate(104.775 152.91)" fill="#c3dcfa"/>
            <path id="Trazado_1220171" data-name="Trazado 1220171" d="M636.633,956.479h81.884l-1.075,55.925H637.629Z" transform="translate(-532.855 -800.563)" fill="#fff" fill-rule="evenodd"/>
            <path id="Trazado_1220172" data-name="Trazado 1220172" d="M707.162,1359.318H659.691a3.341,3.341,0,0,0-1.978.611,1.852,1.852,0,0,0-.824,1.467v3.936a1.853,1.853,0,0,0,.824,1.468,3.343,3.343,0,0,0,1.978.611h47.471Z" transform="translate(-549.809 -1137.734)" fill="#77bb2c" fill-rule="evenodd"/>
            <path id="Trazado_1220173" data-name="Trazado 1220173" d="M965.292,1359.318v8.092h19.849a3.344,3.344,0,0,0,1.978-.611,1.853,1.853,0,0,0,.824-1.468V1361.4a1.852,1.852,0,0,0-.824-1.467,3.342,3.342,0,0,0-1.978-.611Z" transform="translate(-807.939 -1137.734)" fill="#c3dcfa" fill-rule="evenodd"/>
            <path id="Trazado_1220174" data-name="Trazado 1220174" d="M1393.453,907.952l-.765-1.406h-7.625v15.519h19.494V907.952Z" transform="translate(-1159.282 -758.768)" fill="#f79646" fill-rule="evenodd"/>
            <rect id="Rectángulo_422910" data-name="Rectángulo 422910" width="18.244" height="13.471" transform="translate(226.405 149.824)" fill="#c3dcfa"/>
            <path id="Trazado_1220175" data-name="Trazado 1220175" d="M1387.5,923.322h18.718l-.246,12.784h-18.244Z" transform="translate(-1161.32 -772.81)" fill="#fff" fill-rule="evenodd"/>
            <path id="Trazado_1220176" data-name="Trazado 1220176" d="M1381.086,927.924h20.707l-.565,12.034h-19.493Z" transform="translate(-1155.954 -776.662)" fill="#fbb44a" fill-rule="evenodd"/>
            <path id="Trazado_1220177" data-name="Trazado 1220177" d="M1566.544,907.952l-.765-1.406h-7.625v15.519h19.493V907.952Z" transform="translate(-1304.157 -758.768)" fill="#f79646" fill-rule="evenodd"/>
            <rect id="Rectángulo_422911" data-name="Rectángulo 422911" width="18.244" height="13.471" transform="translate(254.621 149.824)" fill="#c3dcfa"/>
            <path id="Trazado_1220178" data-name="Trazado 1220178" d="M1560.588,923.322h18.718l-.246,12.784h-18.245Z" transform="translate(-1306.195 -772.81)" fill="#fff" fill-rule="evenodd"/>
            <path id="Trazado_1220179" data-name="Trazado 1220179" d="M1554.177,927.924h20.707l-.565,12.034h-19.494Z" transform="translate(-1300.829 -776.662)" fill="#fbb44a" fill-rule="evenodd"/>
            <path id="Trazado_1220180" data-name="Trazado 1220180" d="M1393.453,1058.886l-.765-1.406h-7.625V1073h19.494v-14.112Z" transform="translate(-1159.282 -885.099)" fill="#f79646" fill-rule="evenodd"/>
            <path id="Trazado_1220181" data-name="Trazado 1220181" d="M1393.453,1209.82l-.765-1.406h-7.625v15.519h19.494V1209.82Z" transform="translate(-1159.282 -1011.429)" fill="#f79646" fill-rule="evenodd"/>
            <rect id="Rectángulo_422912" data-name="Rectángulo 422912" width="18.244" height="13.471" transform="translate(226.405 174.428)" fill="#c3dcfa"/>
            <rect id="Rectángulo_422913" data-name="Rectángulo 422913" width="18.244" height="13.471" transform="translate(226.405 199.032)" fill="#c3dcfa"/>
            <path id="Trazado_1220182" data-name="Trazado 1220182" d="M1387.5,1074.256h18.718l-.246,12.784h-18.244Z" transform="translate(-1161.32 -899.141)" fill="#fff" fill-rule="evenodd"/>
            <path id="Trazado_1220183" data-name="Trazado 1220183" d="M1387.5,1225.19h18.718l-.246,12.784h-18.244Z" transform="translate(-1161.32 -1025.471)" fill="#fff" fill-rule="evenodd"/>
            <path id="Trazado_1220184" data-name="Trazado 1220184" d="M1381.086,1078.858h20.707l-.565,12.034h-19.493Z" transform="translate(-1155.954 -902.992)" fill="#fbb44a" fill-rule="evenodd"/>
            <path id="Trazado_1220185" data-name="Trazado 1220185" d="M1381.086,1229.792h20.707l-.565,12.034h-19.493Z" transform="translate(-1155.954 -1029.322)" fill="#fbb44a" fill-rule="evenodd"/>
            <path id="Trazado_1220186" data-name="Trazado 1220186" d="M1566.544,1058.886l-.765-1.406h-7.625V1073h19.493v-14.112Z" transform="translate(-1304.157 -885.099)" fill="#f79646" fill-rule="evenodd"/>
            <path id="Trazado_1220187" data-name="Trazado 1220187" d="M1566.544,1209.82l-.765-1.406h-7.625v15.519h19.493V1209.82Z" transform="translate(-1304.157 -1011.429)" fill="#f79646" fill-rule="evenodd"/>
            <rect id="Rectángulo_422914" data-name="Rectángulo 422914" width="18.244" height="13.471" transform="translate(254.621 174.428)" fill="#c3dcfa"/>
            <rect id="Rectángulo_422915" data-name="Rectángulo 422915" width="18.244" height="13.471" transform="translate(254.621 199.032)" fill="#c3dcfa"/>
            <path id="Trazado_1220188" data-name="Trazado 1220188" d="M1560.588,1074.256h18.718l-.246,12.784h-18.245Z" transform="translate(-1306.195 -899.141)" fill="#fff" fill-rule="evenodd"/>
            <path id="Trazado_1220189" data-name="Trazado 1220189" d="M1560.588,1225.19h18.718l-.246,12.784h-18.245Z" transform="translate(-1306.195 -1025.471)" fill="#fff" fill-rule="evenodd"/>
            <path id="Trazado_1220190" data-name="Trazado 1220190" d="M1554.177,1078.858h20.707l-.565,12.034h-19.494Z" transform="translate(-1300.829 -902.992)" fill="#fbb44a" fill-rule="evenodd"/>
            <path id="Trazado_1220191" data-name="Trazado 1220191" d="M1554.177,1229.792h20.707l-.565,12.034h-19.494Z" transform="translate(-1300.829 -1029.322)" fill="#fbb44a" fill-rule="evenodd"/>
            <path id="Trazado_1220192" data-name="Trazado 1220192" d="M2021.854,1167.311H1909.822c-2.748,0-4.268,2.636-5,5.613l-20.978,85.867c-.727,2.977,2.248,5.614,5,5.614h115.83c2.747,0,4.393-2.6,5-5.614l17.18-85.867c.6-3.012-2.248-5.613-5-5.613" transform="translate(-1576.667 -977.026)" fill="#6192ce" fill-rule="evenodd"/>
            <path id="Trazado_1220193" data-name="Trazado 1220193" d="M2001.593,1167.311H1889.561c-2.748,0-4.269,2.636-5,5.613l-20.978,85.867c-.727,2.977,2.248,5.614,5,5.614h115.83c2.748,0,4.394-2.6,5-5.614l17.18-85.867c.6-3.012-2.248-5.613-5-5.613" transform="translate(-1559.708 -977.026)" fill="#7ba9e3" fill-rule="evenodd"/>
            <path id="Trazado_1220194" data-name="Trazado 1220194" d="M2031.077,1195.038h-109.8c-.792,0-1.222.763-1.439,1.617l-19.575,77.058a1.43,1.43,0,0,0,1.439,1.617h113.48c.791,0,1.26-.75,1.439-1.617l15.89-77.058a1.445,1.445,0,0,0-1.439-1.617" transform="translate(-1590.474 -1000.234)" fill="#355298" fill-rule="evenodd"/>
            <path id="Trazado_1220195" data-name="Trazado 1220195" d="M1849.338,1725.29H1696.291v4.046a4.058,4.058,0,0,0,4.046,4.046h144.954a4.058,4.058,0,0,0,4.047-4.046Z" transform="translate(-1419.777 -1444.049)" fill="#6192ce" fill-rule="evenodd"/>
            <path id="Trazado_1220196" data-name="Trazado 1220196" d="M1523.223,1725.29H1409.66v4.046a4.058,4.058,0,0,0,4.046,4.046h105.47a4.058,4.058,0,0,0,4.046-4.046Z" transform="translate(-1179.87 -1444.049)" fill="#a8c9f1" fill-rule="evenodd"/>
            <path id="Trazado_1220197" data-name="Trazado 1220197" d="M1642.872,1744.655h-34.816a.77.77,0,0,0,0,1.541h34.816a.77.77,0,0,0,0-1.541" transform="translate(-1345.28 -1460.257)" fill="#355298" fill-rule="evenodd"/>
            <rect id="Rectángulo_422916" data-name="Rectángulo 422916" width="38.369" height="2.315" transform="translate(377.766 284.181)" fill="#355298"/>
            <rect id="Rectángulo_422917" data-name="Rectángulo 422917" width="10.08" height="2.315" transform="translate(365.669 284.181)" fill="#355298"/>
            <path id="Trazado_1220198" data-name="Trazado 1220198" d="M2126.51,1249.29l-2.756-5.068h-27.479v55.925h70.25V1249.29Z" transform="translate(-1754.558 -1041.4)" fill="#f79646" fill-rule="evenodd"/>
            <rect id="Rectángulo_422918" data-name="Rectángulo 422918" width="65.747" height="48.546" transform="translate(343.967 210.2)" fill="#c3dcfa"/>
            <path id="Trazado_1220199" data-name="Trazado 1220199" d="M2105.049,1304.681H2172.5l-.885,46.069H2105.87Z" transform="translate(-1761.903 -1092.003)" fill="#fff" fill-rule="evenodd"/>
            <path id="Trazado_1220200" data-name="Trazado 1220200" d="M769.945,626.024h34.346V697.07H750.909V645.06Z" transform="translate(-628.502 -523.976)" fill="#7ba9e3" fill-rule="evenodd"/>
            <path id="Trazado_1220201" data-name="Trazado 1220201" d="M811.441,778.747h14.478a1.672,1.672,0,1,1,0,3.344H811.441a1.672,1.672,0,1,1,0-3.344" transform="translate(-677.768 -651.803)" fill="#7ba9e3" fill-rule="evenodd"/>
            <path id="Trazado_1220202" data-name="Trazado 1220202" d="M769.945,626.024V645.06H750.909Z" transform="translate(-628.502 -523.976)" fill="#7ba9e3" fill-rule="evenodd"/>
            <path id="Trazado_1220203" data-name="Trazado 1220203" d="M811.441,823.337h30.848a1.672,1.672,0,0,1,0,3.344H811.441a1.672,1.672,0,1,1,0-3.344" transform="translate(-677.768 -689.124)" fill="#7ba9e3" fill-rule="evenodd"/>
            <path id="Trazado_1220204" data-name="Trazado 1220204" d="M811.441,867.928h30.848a1.672,1.672,0,0,1,0,3.344H811.441a1.672,1.672,0,1,1,0-3.344" transform="translate(-677.768 -726.446)" fill="#7ba9e3" fill-rule="evenodd"/>
            <path id="Trazado_1220205" data-name="Trazado 1220205" d="M811.441,912.518h30.848a1.672,1.672,0,0,1,0,3.344H811.441a1.672,1.672,0,1,1,0-3.344" transform="translate(-677.768 -763.767)" fill="#7ba9e3" fill-rule="evenodd"/>
            <path id="Trazado_1220206" data-name="Trazado 1220206" d="M811.441,957.109h30.848a1.672,1.672,0,0,1,0,3.344H811.441a1.672,1.672,0,1,1,0-3.344" transform="translate(-677.768 -801.09)" fill="#7ba9e3" fill-rule="evenodd"/>
            <path id="Trazado_1220207" data-name="Trazado 1220207" d="M751.107,613.055h34.346V684.1H732.071V632.091Z" transform="translate(-612.735 -513.12)" fill="#c6deff" fill-rule="evenodd"/>
            <path id="Trazado_1220208" data-name="Trazado 1220208" d="M792.6,765.777h14.478a1.672,1.672,0,1,1,0,3.344H792.6a1.672,1.672,0,0,1,0-3.344" transform="translate(-662.002 -640.947)" fill="#7ba9e3" fill-rule="evenodd"/>
            <path id="Trazado_1220209" data-name="Trazado 1220209" d="M751.107,613.055v19.036H732.071Z" transform="translate(-612.735 -513.12)" fill="#95beea" fill-rule="evenodd"/>
            <path id="Trazado_1220210" data-name="Trazado 1220210" d="M792.6,810.367h30.848a1.672,1.672,0,0,1,0,3.344H792.6a1.672,1.672,0,0,1,0-3.344" transform="translate(-662.002 -678.268)" fill="#7ba9e3" fill-rule="evenodd"/>
            <path id="Trazado_1220211" data-name="Trazado 1220211" d="M792.6,854.958h30.848a1.672,1.672,0,0,1,0,3.344H792.6a1.672,1.672,0,0,1,0-3.344" transform="translate(-662.002 -715.59)" fill="#7ba9e3" fill-rule="evenodd"/>
            <path id="Trazado_1220212" data-name="Trazado 1220212" d="M792.6,899.549h30.848a1.672,1.672,0,0,1,0,3.344H792.6a1.672,1.672,0,0,1,0-3.344" transform="translate(-662.002 -752.913)" fill="#7ba9e3" fill-rule="evenodd"/>
            <path id="Trazado_1220213" data-name="Trazado 1220213" d="M792.6,944.139h30.848a1.672,1.672,0,0,1,0,3.344H792.6a1.672,1.672,0,0,1,0-3.344" transform="translate(-662.002 -790.234)" fill="#7ba9e3" fill-rule="evenodd"/>
            <path id="Trazado_1220214" data-name="Trazado 1220214" d="M2231.56,1088.024h21.656v44.8h-33.659v-32.793Z" transform="translate(-1857.745 -910.664)" fill="#7ba9e3" fill-rule="evenodd"/>
            <path id="Trazado_1220215" data-name="Trazado 1220215" d="M2257.724,1184.32h9.129a1.057,1.057,0,0,1,1.054,1.054h0a1.057,1.057,0,0,1-1.054,1.054h-9.129a1.057,1.057,0,0,1-1.054-1.054h0a1.057,1.057,0,0,1,1.054-1.054" transform="translate(-1888.808 -991.263)" fill="#7ba9e3" fill-rule="evenodd"/>
            <path id="Trazado_1220216" data-name="Trazado 1220216" d="M2231.56,1088.024v12h-12Z" transform="translate(-1857.745 -910.664)" fill="#7ba9e3" fill-rule="evenodd"/>
            <path id="Trazado_1220217" data-name="Trazado 1220217" d="M2257.724,1212.436h19.45a1.057,1.057,0,0,1,1.054,1.054h0a1.057,1.057,0,0,1-1.054,1.054h-19.45a1.057,1.057,0,0,1-1.054-1.054h0a1.057,1.057,0,0,1,1.054-1.054" transform="translate(-1888.808 -1014.796)" fill="#7ba9e3" fill-rule="evenodd"/>
            <path id="Trazado_1220218" data-name="Trazado 1220218" d="M2257.724,1240.551h19.45a1.057,1.057,0,0,1,1.054,1.054h0a1.058,1.058,0,0,1-1.054,1.054h-19.45a1.057,1.057,0,0,1-1.054-1.054h0a1.057,1.057,0,0,1,1.054-1.054" transform="translate(-1888.808 -1038.328)" fill="#7ba9e3" fill-rule="evenodd"/>
            <path id="Trazado_1220219" data-name="Trazado 1220219" d="M2257.724,1268.667h19.45a1.054,1.054,0,1,1,0,2.109h-19.45a1.054,1.054,0,0,1,0-2.109" transform="translate(-1888.808 -1061.86)" fill="#7ba9e3" fill-rule="evenodd"/>
            <path id="Trazado_1220220" data-name="Trazado 1220220" d="M2257.724,1296.783h19.753a1.054,1.054,0,0,1,0,2.109h-19.753a1.054,1.054,0,0,1,0-2.109" transform="translate(-1888.808 -1085.393)" fill="#7ba9e3" fill-rule="evenodd"/>
            <path id="Trazado_1220221" data-name="Trazado 1220221" d="M2220.511,1074.256h21.656v44.8h-33.659v-32.793Z" transform="translate(-1848.497 -899.141)" fill="#c6deff" fill-rule="evenodd"/>
            <path id="Trazado_1220222" data-name="Trazado 1220222" d="M2246.677,1170.552h9.128a1.057,1.057,0,0,1,1.054,1.054h0a1.057,1.057,0,0,1-1.054,1.054h-9.128a1.057,1.057,0,0,1-1.054-1.054h0a1.057,1.057,0,0,1,1.054-1.054" transform="translate(-1879.562 -979.739)" fill="#7ba9e3" fill-rule="evenodd"/>
            <path id="Trazado_1220223" data-name="Trazado 1220223" d="M2220.511,1074.256v12h-12Z" transform="translate(-1848.497 -899.141)" fill="#95beea" fill-rule="evenodd"/>
            <path id="Trazado_1220224" data-name="Trazado 1220224" d="M2246.677,1198.668h19.45a1.054,1.054,0,0,1,0,2.109h-19.45a1.054,1.054,0,1,1,0-2.109" transform="translate(-1879.561 -1003.272)" fill="#7ba9e3" fill-rule="evenodd"/>
            <path id="Trazado_1220225" data-name="Trazado 1220225" d="M2246.677,1226.783h19.45a1.054,1.054,0,0,1,0,2.109h-19.45a1.054,1.054,0,1,1,0-2.109" transform="translate(-1879.561 -1026.804)" fill="#7ba9e3" fill-rule="evenodd"/>
            <path id="Trazado_1220226" data-name="Trazado 1220226" d="M2246.677,1254.9h19.45a1.057,1.057,0,0,1,1.054,1.054h0a1.057,1.057,0,0,1-1.054,1.054h-19.45a1.057,1.057,0,0,1-1.054-1.054h0a1.057,1.057,0,0,1,1.054-1.054" transform="translate(-1879.561 -1050.337)" fill="#7ba9e3" fill-rule="evenodd"/>
            <path id="Trazado_1220227" data-name="Trazado 1220227" d="M2246.677,1283.015h19.753a1.054,1.054,0,1,1,0,2.109h-19.753a1.054,1.054,0,1,1,0-2.109" transform="translate(-1879.562 -1073.869)" fill="#7ba9e3" fill-rule="evenodd"/>
            <path id="Trazado_1220228" data-name="Trazado 1220228" d="M2081.944,1321.264h74.622l-2.037,43.366h-70.25Z" transform="translate(-1742.564 -1105.883)" fill="#fbb44a" fill-rule="evenodd"/>
            <path id="Trazado_1220229" data-name="Trazado 1220229" d="M2237.864,1399.383l.82-.543a.916.916,0,0,0,.369-1.046,9.469,9.469,0,0,1-.446-2.3.916.916,0,0,0-.734-.832l-.963-.2a.923.923,0,0,1-.722-1.088l.376-1.846a.924.924,0,0,1,1.09-.72l.964.2a.916.916,0,0,0,1-.479,9.436,9.436,0,0,1,1.313-1.946.913.913,0,0,0,.068-1.106l-.542-.82a.924.924,0,0,1,.26-1.28l1.571-1.039a.923.923,0,0,1,1.28.26l.542.82a.917.917,0,0,0,1.045.37,9.464,9.464,0,0,1,2.3-.447.916.916,0,0,0,.833-.734l.2-.964a.922.922,0,0,1,1.089-.719l1.846.375a.924.924,0,0,1,.72,1.09l-.2.964a.914.914,0,0,0,.48,1,9.575,9.575,0,0,1,1.945,1.313.914.914,0,0,0,1.106.07l.82-.543a.923.923,0,0,1,1.28.26l1.039,1.571a.924.924,0,0,1-.26,1.28l-.82.542a.916.916,0,0,0-.369,1.046,9.428,9.428,0,0,1,.447,2.3.916.916,0,0,0,.733.834l.964.2a.924.924,0,0,1,.72,1.09l-.375,1.845a.925.925,0,0,1-1.091.721l-.963-.2a.916.916,0,0,0-1,.481,9.472,9.472,0,0,1-1.312,1.944.916.916,0,0,0-.07,1.107l.542.82a.923.923,0,0,1-.26,1.28l-1.571,1.04a.926.926,0,0,1-1.281-.261l-.542-.82a.917.917,0,0,0-1.047-.369,9.485,9.485,0,0,1-2.3.447.916.916,0,0,0-.833.733l-.2.964a.925.925,0,0,1-1.09.722l-1.845-.377a.923.923,0,0,1-.721-1.09l.2-.964a.916.916,0,0,0-.479-1,9.343,9.343,0,0,1-1.945-1.312.914.914,0,0,0-1.106-.069l-.821.542a.923.923,0,0,1-1.28-.26l-1.039-1.571a.922.922,0,0,1,.261-1.279m6.52-1.04a5.114,5.114,0,1,0,1.668-8.184,5.108,5.108,0,0,0-1.668,8.184" transform="translate(-1871.648 -1157.472)" fill="#f79646" fill-rule="evenodd"/>
            <path id="Trazado_1220230" data-name="Trazado 1220230" d="M608.584,976.61h90.586l-2.472,52.643H611.42Z" transform="translate(-509.378 -817.412)" fill="#fbb44a" fill-rule="evenodd"/>
            <path id="Trazado_1220231" data-name="Trazado 1220231" d="M797.861,1071.441l1-.658a1.112,1.112,0,0,0,.447-1.269,11.493,11.493,0,0,1-.542-2.8,1.112,1.112,0,0,0-.891-1.01l-1.169-.24a1.121,1.121,0,0,1-.877-1.321l.457-2.24a1.122,1.122,0,0,1,1.323-.875l1.17.238a1.112,1.112,0,0,0,1.215-.582,11.46,11.46,0,0,1,1.593-2.361,1.108,1.108,0,0,0,.083-1.343l-.657-1a1.121,1.121,0,0,1,.316-1.554l1.907-1.261a1.121,1.121,0,0,1,1.554.316l.658,1a1.113,1.113,0,0,0,1.269.449,11.5,11.5,0,0,1,2.8-.543,1.111,1.111,0,0,0,1.012-.891l.238-1.17a1.119,1.119,0,0,1,1.322-.874l2.241.455a1.121,1.121,0,0,1,.874,1.323l-.238,1.17a1.11,1.11,0,0,0,.583,1.214,11.638,11.638,0,0,1,2.362,1.593,1.109,1.109,0,0,0,1.342.085l.995-.659a1.121,1.121,0,0,1,1.554.316l1.261,1.907a1.122,1.122,0,0,1-.316,1.554l-1,.658a1.113,1.113,0,0,0-.448,1.27,11.444,11.444,0,0,1,.543,2.794,1.113,1.113,0,0,0,.89,1.013l1.171.237a1.121,1.121,0,0,1,.874,1.323l-.455,2.239a1.123,1.123,0,0,1-1.324.875l-1.169-.239a1.111,1.111,0,0,0-1.215.583,11.485,11.485,0,0,1-1.593,2.36,1.112,1.112,0,0,0-.085,1.344l.658.995a1.12,1.12,0,0,1-.316,1.554l-1.906,1.262a1.125,1.125,0,0,1-1.555-.318l-.657-1a1.114,1.114,0,0,0-1.271-.448,11.51,11.51,0,0,1-2.794.542,1.112,1.112,0,0,0-1.011.89l-.238,1.17a1.123,1.123,0,0,1-1.323.876l-2.24-.457a1.12,1.12,0,0,1-.875-1.323l.239-1.17a1.113,1.113,0,0,0-.582-1.215,11.336,11.336,0,0,1-2.361-1.593,1.109,1.109,0,0,0-1.342-.084l-1,.658a1.12,1.12,0,0,1-1.553-.316l-1.261-1.907a1.119,1.119,0,0,1,.317-1.553m7.915-1.262a6.208,6.208,0,1,0,2.025-9.934,6.2,6.2,0,0,0-2.025,9.934" transform="translate(-666.078 -880.037)" fill="#f79646" fill-rule="evenodd"/>
            <path id="Trazado_1220232" data-name="Trazado 1220232" d="M2617.329,1090.611a16.749,16.749,0,1,0,16.749,16.749,16.749,16.749,0,0,0-16.749-16.749" transform="translate(-2176.656 -912.829)" fill="#77bb2c" fill-rule="evenodd"/>
            <path id="Trazado_1220233" data-name="Trazado 1220233" d="M2645.773,1157.05l10.1-9.379a2.544,2.544,0,0,1,3.464,3.726l-12.043,11.178-.037.031a2.552,2.552,0,0,1-3.586-.238l-4.981-5.679a2.542,2.542,0,0,1,3.824-3.35Z" transform="translate(-2208.033 -960.02)" fill="#fff" fill-rule="evenodd"/>
            <path id="Trazado_1220234" data-name="Trazado 1220234" d="M391.379,693.268a16.749,16.749,0,1,0,16.749,16.749,16.749,16.749,0,0,0-16.749-16.749" transform="translate(-313.561 -580.258)" fill="#71bdf8" fill-rule="evenodd"/>
            <path id="Trazado_1220235" data-name="Trazado 1220235" d="M442.247,744.767h0l5.426,5.426a1.644,1.644,0,0,1-2.325,2.326l-2.619-2.619v11.659a1.644,1.644,0,1,1-3.289,0V749.9l-2.619,2.619a1.644,1.644,0,0,1-2.325-2.326l5.426-5.426a1.649,1.649,0,0,1,2.326,0" transform="translate(-363.267 -622.961)" fill="#fff" fill-rule="evenodd"/>
            <path id="Trazado_1220236" data-name="Trazado 1220236" d="M2227.808,724.314H2247.8v41.36h-31.077V735.4Z" transform="translate(-1855.375 -606.243)" fill="#7ba9e3" fill-rule="evenodd"/>
            <path id="Trazado_1220237" data-name="Trazado 1220237" d="M2251.967,813.225h8.428a.973.973,0,1,1,0,1.947h-8.428a.973.973,0,1,1,0-1.947" transform="translate(-1884.056 -680.66)" fill="#7ba9e3" fill-rule="evenodd"/>
            <path id="Trazado_1220238" data-name="Trazado 1220238" d="M2227.808,724.314V735.4h-11.082Z" transform="translate(-1855.375 -606.243)" fill="#7ba9e3" fill-rule="evenodd"/>
            <path id="Trazado_1220239" data-name="Trazado 1220239" d="M2251.966,839.184h17.958a.973.973,0,1,1,0,1.947h-17.958a.973.973,0,0,1,0-1.947" transform="translate(-1884.056 -702.388)" fill="#7ba9e3" fill-rule="evenodd"/>
            <path id="Trazado_1220240" data-name="Trazado 1220240" d="M2251.966,865.143h17.958a.973.973,0,1,1,0,1.947h-17.958a.973.973,0,0,1,0-1.947" transform="translate(-1884.056 -724.115)" fill="#7ba9e3" fill-rule="evenodd"/>
            <path id="Trazado_1220241" data-name="Trazado 1220241" d="M2251.966,891.1h17.958a.973.973,0,1,1,0,1.947h-17.958a.973.973,0,0,1,0-1.947" transform="translate(-1884.056 -745.843)" fill="#7ba9e3" fill-rule="evenodd"/>
            <path id="Trazado_1220242" data-name="Trazado 1220242" d="M2251.966,917.062h17.958a.976.976,0,0,1,.974.973h0a.976.976,0,0,1-.974.973h-17.958a.976.976,0,0,1-.973-.973h0a.976.976,0,0,1,.973-.973" transform="translate(-1884.056 -767.571)" fill="#7ba9e3" fill-rule="evenodd"/>
            <path id="Trazado_1220243" data-name="Trazado 1220243" d="M2051.187,311.275h24.289v50.243h-37.752V324.737Z" transform="translate(-1705.552 -260.534)" fill="#7ba9e3" fill-rule="evenodd"/>
            <path id="Trazado_1220244" data-name="Trazado 1220244" d="M2080.533,419.28h10.239a1.182,1.182,0,0,1,0,2.365h-10.239a1.182,1.182,0,0,1,0-2.365" transform="translate(-1740.394 -350.933)" fill="#7ba9e3" fill-rule="evenodd"/>
            <path id="Trazado_1220245" data-name="Trazado 1220245" d="M2051.187,311.275v13.462h-13.462Z" transform="translate(-1705.552 -260.534)" fill="#7ba9e3" fill-rule="evenodd"/>
            <path id="Trazado_1220246" data-name="Trazado 1220246" d="M2080.533,450.815h21.816a1.182,1.182,0,0,1,0,2.365h-21.816a1.182,1.182,0,0,1,0-2.365" transform="translate(-1740.394 -377.327)" fill="#7ba9e3" fill-rule="evenodd"/>
            <path id="Trazado_1220247" data-name="Trazado 1220247" d="M2080.533,482.349h21.816a1.186,1.186,0,0,1,1.182,1.183h0a1.186,1.186,0,0,1-1.182,1.182h-21.816a1.186,1.186,0,0,1-1.182-1.182h0a1.186,1.186,0,0,1,1.182-1.183" transform="translate(-1740.394 -403.721)" fill="#7ba9e3" fill-rule="evenodd"/>
            <path id="Trazado_1220248" data-name="Trazado 1220248" d="M2080.533,513.884h21.816a1.186,1.186,0,0,1,1.182,1.182h0a1.186,1.186,0,0,1-1.182,1.182h-21.816a1.186,1.186,0,0,1-1.182-1.182h0a1.186,1.186,0,0,1,1.182-1.182" transform="translate(-1740.394 -430.115)" fill="#7ba9e3" fill-rule="evenodd"/>
            <path id="Trazado_1220249" data-name="Trazado 1220249" d="M2080.533,545.419h21.816a1.182,1.182,0,0,1,0,2.365h-21.816a1.182,1.182,0,0,1,0-2.365" transform="translate(-1740.394 -456.51)" fill="#7ba9e3" fill-rule="evenodd"/>
            <path id="Trazado_1220250" data-name="Trazado 1220250" d="M1657.47,171.456h25.381v52.5H1643.4V185.524Z" transform="translate(-1375.509 -143.507)" fill="#7ba9e3" fill-rule="evenodd"/>
            <path id="Trazado_1220251" data-name="Trazado 1220251" d="M1688.136,284.317h10.7a1.236,1.236,0,1,1,0,2.471h-10.7a1.236,1.236,0,1,1,0-2.471" transform="translate(-1411.916 -237.97)" fill="#7ba9e3" fill-rule="evenodd"/>
            <path id="Trazado_1220252" data-name="Trazado 1220252" d="M1657.47,171.456v14.067H1643.4Z" transform="translate(-1375.509 -143.507)" fill="#7ba9e3" fill-rule="evenodd"/>
            <path id="Trazado_1220253" data-name="Trazado 1220253" d="M1688.136,317.269h22.8a1.236,1.236,0,1,1,0,2.471h-22.8a1.236,1.236,0,1,1,0-2.471" transform="translate(-1411.916 -265.551)" fill="#7ba9e3" fill-rule="evenodd"/>
            <path id="Trazado_1220254" data-name="Trazado 1220254" d="M1688.136,350.222h22.8a1.236,1.236,0,1,1,0,2.471h-22.8a1.236,1.236,0,1,1,0-2.471" transform="translate(-1411.916 -293.132)" fill="#7ba9e3" fill-rule="evenodd"/>
            <path id="Trazado_1220255" data-name="Trazado 1220255" d="M1688.136,383.174h22.8a1.236,1.236,0,1,1,0,2.471h-22.8a1.236,1.236,0,1,1,0-2.471" transform="translate(-1411.916 -320.713)" fill="#7ba9e3" fill-rule="evenodd"/>
            <path id="Trazado_1220256" data-name="Trazado 1220256" d="M1688.136,416.126h23.708a1.236,1.236,0,0,1,0,2.471h-23.708a1.236,1.236,0,1,1,0-2.471" transform="translate(-1411.916 -348.293)" fill="#7ba9e3" fill-rule="evenodd"/>
            <path id="Trazado_1220257" data-name="Trazado 1220257" d="M1220.856,225.588h28.49V284.52h-44.28V241.379Z" transform="translate(-1008.626 -188.815)" fill="#7ba9e3" fill-rule="evenodd"/>
            <path id="Trazado_1220258" data-name="Trazado 1220258" d="M1255.278,352.271h12.009a1.387,1.387,0,1,1,0,2.774h-12.009a1.387,1.387,0,0,1,0-2.774" transform="translate(-1049.493 -294.847)" fill="#7ba9e3" fill-rule="evenodd"/>
            <path id="Trazado_1220259" data-name="Trazado 1220259" d="M1220.856,225.588v15.79h-15.79Z" transform="translate(-1008.626 -188.815)" fill="#95beea" fill-rule="evenodd"/>
            <path id="Trazado_1220260" data-name="Trazado 1220260" d="M1255.278,389.259h25.588a1.387,1.387,0,0,1,0,2.774h-25.588a1.387,1.387,0,0,1,0-2.774" transform="translate(-1049.493 -325.806)" fill="#7ba9e3" fill-rule="evenodd"/>
            <path id="Trazado_1220261" data-name="Trazado 1220261" d="M1255.278,426.247h25.588a1.387,1.387,0,0,1,0,2.774h-25.588a1.387,1.387,0,0,1,0-2.774" transform="translate(-1049.493 -356.764)" fill="#7ba9e3" fill-rule="evenodd"/>
            <path id="Trazado_1220262" data-name="Trazado 1220262" d="M1255.278,463.235h25.588a1.387,1.387,0,0,1,0,2.774h-25.588a1.387,1.387,0,0,1,0-2.774" transform="translate(-1049.493 -387.723)" fill="#7ba9e3" fill-rule="evenodd"/>
            <path id="Trazado_1220263" data-name="Trazado 1220263" d="M1255.278,500.223h25.588a1.387,1.387,0,0,1,0,2.774h-25.588a1.387,1.387,0,0,1,0-2.774" transform="translate(-1049.493 -418.681)" fill="#7ba9e3" fill-rule="evenodd"/>
            <path id="Trazado_1220264" data-name="Trazado 1220264" d="M1210.768,213.275h28.49v58.932h-44.28V229.065Z" transform="translate(-1000.183 -178.509)" fill="#c6deff" fill-rule="evenodd"/>
            <path id="Trazado_1220265" data-name="Trazado 1220265" d="M1245.19,339.957H1257.2a1.387,1.387,0,1,1,0,2.774H1245.19a1.387,1.387,0,0,1,0-2.774" transform="translate(-1041.049 -284.54)" fill="#7ba9e3" fill-rule="evenodd"/>
            <path id="Trazado_1220266" data-name="Trazado 1220266" d="M1210.768,213.275v15.79h-15.79Z" transform="translate(-1000.183 -178.509)" fill="#95beea" fill-rule="evenodd"/>
            <path id="Trazado_1220267" data-name="Trazado 1220267" d="M1245.19,376.945h25.588a1.387,1.387,0,0,1,0,2.774H1245.19a1.387,1.387,0,0,1,0-2.774" transform="translate(-1041.049 -315.499)" fill="#7ba9e3" fill-rule="evenodd"/>
            <path id="Trazado_1220268" data-name="Trazado 1220268" d="M1245.19,413.933h25.588a1.387,1.387,0,0,1,0,2.774H1245.19a1.387,1.387,0,0,1,0-2.774" transform="translate(-1041.049 -346.457)" fill="#7ba9e3" fill-rule="evenodd"/>
            <path id="Trazado_1220269" data-name="Trazado 1220269" d="M1245.19,450.921h25.588a1.387,1.387,0,0,1,0,2.774H1245.19a1.387,1.387,0,0,1,0-2.774" transform="translate(-1041.049 -377.416)" fill="#7ba9e3" fill-rule="evenodd"/>
            <path id="Trazado_1220270" data-name="Trazado 1220270" d="M1245.19,487.909h25.588a1.387,1.387,0,0,1,0,2.774H1245.19a1.387,1.387,0,0,1,0-2.774" transform="translate(-1041.049 -408.375)" fill="#7ba9e3" fill-rule="evenodd"/>
            <path id="Trazado_1220271" data-name="Trazado 1220271" d="M1645.935,159.981h25.381v52.5h-39.449V174.049Z" transform="translate(-1365.855 -133.903)" fill="#c6deff" fill-rule="evenodd"/>
            <path id="Trazado_1220272" data-name="Trazado 1220272" d="M1676.6,272.842h10.7a1.236,1.236,0,0,1,0,2.471h-10.7a1.236,1.236,0,1,1,0-2.471" transform="translate(-1402.262 -228.366)" fill="#7ba9e3" fill-rule="evenodd"/>
            <path id="Trazado_1220273" data-name="Trazado 1220273" d="M1645.935,159.981v14.067h-14.067Z" transform="translate(-1365.855 -133.903)" fill="#95beea" fill-rule="evenodd"/>
            <path id="Trazado_1220274" data-name="Trazado 1220274" d="M1676.6,305.8h22.8a1.236,1.236,0,0,1,0,2.471h-22.8a1.236,1.236,0,1,1,0-2.471" transform="translate(-1402.262 -255.947)" fill="#7ba9e3" fill-rule="evenodd"/>
            <path id="Trazado_1220275" data-name="Trazado 1220275" d="M1676.6,338.747h22.8a1.236,1.236,0,0,1,0,2.471h-22.8a1.236,1.236,0,1,1,0-2.471" transform="translate(-1402.262 -283.528)" fill="#7ba9e3" fill-rule="evenodd"/>
            <path id="Trazado_1220276" data-name="Trazado 1220276" d="M1676.6,371.7h22.8a1.236,1.236,0,0,1,0,2.471h-22.8a1.236,1.236,0,1,1,0-2.471" transform="translate(-1402.262 -311.108)" fill="#7ba9e3" fill-rule="evenodd"/>
            <path id="Trazado_1220277" data-name="Trazado 1220277" d="M1676.6,404.651h23.708a1.236,1.236,0,1,1,0,2.471H1676.6a1.236,1.236,0,0,1,0-2.471" transform="translate(-1402.262 -338.689)" fill="#7ba9e3" fill-rule="evenodd"/>
            <path id="Trazado_1220278" data-name="Trazado 1220278" d="M2040.776,300.344h24.289v50.243h-37.752V313.806Z" transform="translate(-1696.839 -251.385)" fill="#c6deff" fill-rule="evenodd"/>
            <path id="Trazado_1220279" data-name="Trazado 1220279" d="M2070.122,408.35h10.239a1.186,1.186,0,0,1,1.182,1.182h0a1.186,1.186,0,0,1-1.182,1.182h-10.239a1.186,1.186,0,0,1-1.182-1.182h0a1.186,1.186,0,0,1,1.182-1.182" transform="translate(-1731.68 -341.785)" fill="#7ba9e3" fill-rule="evenodd"/>
            <path id="Trazado_1220280" data-name="Trazado 1220280" d="M2040.776,300.344v13.462h-13.462Z" transform="translate(-1696.839 -251.385)" fill="#95beea" fill-rule="evenodd"/>
            <path id="Trazado_1220281" data-name="Trazado 1220281" d="M2070.122,439.884h21.816a1.186,1.186,0,0,1,1.182,1.182h0a1.186,1.186,0,0,1-1.182,1.182h-21.816a1.186,1.186,0,0,1-1.182-1.182h0a1.186,1.186,0,0,1,1.182-1.182" transform="translate(-1731.68 -368.178)" fill="#7ba9e3" fill-rule="evenodd"/>
            <path id="Trazado_1220282" data-name="Trazado 1220282" d="M2070.122,471.419h21.816a1.186,1.186,0,0,1,1.182,1.183h0a1.186,1.186,0,0,1-1.182,1.182h-21.816a1.186,1.186,0,0,1-1.182-1.182h0a1.186,1.186,0,0,1,1.182-1.183" transform="translate(-1731.68 -394.573)" fill="#7ba9e3" fill-rule="evenodd"/>
            <path id="Trazado_1220283" data-name="Trazado 1220283" d="M2070.122,502.954h21.816a1.186,1.186,0,0,1,1.182,1.182h0a1.186,1.186,0,0,1-1.182,1.182h-21.816a1.186,1.186,0,0,1-1.182-1.182h0a1.186,1.186,0,0,1,1.182-1.182" transform="translate(-1731.68 -420.967)" fill="#7ba9e3" fill-rule="evenodd"/>
            <path id="Trazado_1220284" data-name="Trazado 1220284" d="M2070.122,534.488h21.816a1.186,1.186,0,0,1,1.182,1.182h0a1.186,1.186,0,0,1-1.182,1.182h-21.816a1.186,1.186,0,0,1-1.182-1.182h0a1.186,1.186,0,0,1,1.182-1.182" transform="translate(-1731.68 -447.361)" fill="#7ba9e3" fill-rule="evenodd"/>
            <path id="Trazado_1220285" data-name="Trazado 1220285" d="M2219.877,715.71h19.995v41.36H2208.8V726.792Z" transform="translate(-1848.737 -599.041)" fill="#c6deff" fill-rule="evenodd"/>
            <path id="Trazado_1220286" data-name="Trazado 1220286" d="M2244.036,804.62h8.428a.973.973,0,0,1,0,1.947h-8.428a.973.973,0,0,1,0-1.947" transform="translate(-1877.419 -673.458)" fill="#7ba9e3" fill-rule="evenodd"/>
            <path id="Trazado_1220287" data-name="Trazado 1220287" d="M2219.877,715.71v11.082H2208.8Z" transform="translate(-1848.737 -599.041)" fill="#95beea" fill-rule="evenodd"/>
            <path id="Trazado_1220288" data-name="Trazado 1220288" d="M2244.036,830.579h17.958a.973.973,0,1,1,0,1.947h-17.958a.973.973,0,1,1,0-1.947" transform="translate(-1877.419 -695.185)" fill="#7ba9e3" fill-rule="evenodd"/>
            <path id="Trazado_1220289" data-name="Trazado 1220289" d="M2244.036,856.539h17.958a.976.976,0,0,1,.974.973h0a.976.976,0,0,1-.974.973h-17.958a.976.976,0,0,1-.973-.973h0a.976.976,0,0,1,.973-.973" transform="translate(-1877.419 -716.914)" fill="#7ba9e3" fill-rule="evenodd"/>
            <path id="Trazado_1220290" data-name="Trazado 1220290" d="M2244.036,882.5h17.958a.973.973,0,1,1,0,1.947h-17.958a.973.973,0,0,1,0-1.947" transform="translate(-1877.419 -738.641)" fill="#7ba9e3" fill-rule="evenodd"/>
            <path id="Trazado_1220291" data-name="Trazado 1220291" d="M2244.036,908.457h17.958a.976.976,0,0,1,.974.973h0a.976.976,0,0,1-.974.973h-17.958a.976.976,0,0,1-.973-.973h0a.976.976,0,0,1,.973-.973" transform="translate(-1877.419 -760.368)" fill="#7ba9e3" fill-rule="evenodd"/>
          </g>
        </g>
      </g>
    </g>
  </g>
</svg>
