<svg xmlns="http://www.w3.org/2000/svg" xmlns:xlink="http://www.w3.org/1999/xlink" width="108" height="108" viewBox="0 0 108 108">
  <defs>
    <filter id="Trazado_904820" x="0" y="0" width="108" height="108" filterUnits="userSpaceOnUse">
      <feOffset dy="3" input="SourceAlpha"/>
      <feGaussianBlur stdDeviation="3" result="blur"/>
      <feFlood flood-opacity="0.161"/>
      <feComposite operator="in" in2="blur"/>
      <feComposite in="SourceGraphic"/>
    </filter>
    <linearGradient id="linear-gradient" x1="0.5" y1="1" x2="0.5" gradientUnits="objectBoundingBox">
      <stop offset="0" stop-color="#474f72"/>
      <stop offset="1" stop-color="#878c9f"/>
    </linearGradient>
    <linearGradient id="linear-gradient-2" x1="0.5" y1="1" x2="0.5" gradientUnits="objectBoundingBox">
      <stop offset="0" stop-color="#9dd5df"/>
      <stop offset="1" stop-color="#c3e1f5"/>
    </linearGradient>
    <linearGradient id="linear-gradient-3" x1="0.5" y1="1" x2="0.5" gradientUnits="objectBoundingBox">
      <stop offset="0" stop-color="#fbcc88"/>
      <stop offset="1" stop-color="#ffe5c3"/>
    </linearGradient>
    <linearGradient id="linear-gradient-4" x1="0.5" y1="1" x2="0.5" y2="0.001" gradientUnits="objectBoundingBox">
      <stop offset="0" stop-color="#7aa8d7"/>
      <stop offset="1" stop-color="#c3d2e7"/>
    </linearGradient>
    <linearGradient id="linear-gradient-5" x1="0.502" y1="0.998" x2="0.502" y2="0.015" xlink:href="#linear-gradient-4"/>
    <linearGradient id="linear-gradient-6" x1="0.5" y1="1" x2="0.5" gradientUnits="objectBoundingBox">
      <stop offset="0" stop-color="#d4d8e1"/>
      <stop offset="1" stop-color="#f3f4f5"/>
    </linearGradient>
  </defs>
  <g id="Grupo_1230980" data-name="Grupo 1230980" transform="translate(-195 -479.073)">
    <g id="Grupo_1230695" data-name="Grupo 1230695" transform="translate(204 485.073)">
      <g id="Grupo_1224979" data-name="Grupo 1224979">
        <g id="Grupo_1173585" data-name="Grupo 1173585" transform="translate(0 0)">
          <g id="Grupo_1173428" data-name="Grupo 1173428">
            <g id="Grupo_1171958" data-name="Grupo 1171958">
              <g id="Grupo_1167341" data-name="Grupo 1167341">
                <g id="Grupo_1166792" data-name="Grupo 1166792">
                  <g transform="matrix(1, 0, 0, 1, -9, -6)" filter="url(#Trazado_904820)">
                    <g id="Trazado_904820-2" data-name="Trazado 904820" transform="translate(9 6)" fill="#e5ebfb">
                      <path d="M 44.99999618530273 88.50003051757812 C 39.12687301635742 88.50003051757812 33.43022155761719 87.35010528564453 28.06829643249512 85.08219146728516 C 22.88852119445801 82.89134216308594 18.23629570007324 79.75461578369141 14.24084663391113 75.75916290283203 C 10.24540901184082 71.76371765136719 7.108683586120605 67.11148834228516 4.917821407318115 61.93171691894531 C 2.649921178817749 56.56978988647461 1.499996185302734 50.87313842773438 1.499996185302734 45.00001525878906 C 1.499996185302734 39.12689208984375 2.649921178817749 33.43024063110352 4.917821407318115 28.06830215454102 C 7.108683586120605 22.88852691650391 10.24540901184082 18.23631477355957 14.24084663391113 14.24086570739746 C 18.23629570007324 10.24541568756104 22.88852119445801 7.10869026184082 28.06829643249512 4.917827606201172 C 33.43022155761719 2.649927854537964 39.12687301635742 1.50000274181366 44.99999618530273 1.50000274181366 C 50.87311935424805 1.50000274181366 56.56977081298828 2.649927854537964 61.93169784545898 4.917827606201172 C 67.11147308349609 7.10869026184082 71.76369476318359 10.24541568756104 75.75914764404297 14.24086570739746 C 79.75458526611328 18.23631477355957 82.89131164550781 22.88852691650391 85.08216857910156 28.06830215454102 C 87.35007476806641 33.43024063110352 88.5 39.12689208984375 88.5 45.00001525878906 C 88.5 50.87313842773438 87.35007476806641 56.56978988647461 85.08216857910156 61.93171691894531 C 82.89131164550781 67.11148834228516 79.75458526611328 71.76371765136719 75.75914764404297 75.75916290283203 C 71.76369476318359 79.75461578369141 67.11147308349609 82.89134216308594 61.93169784545898 85.08219146728516 C 56.56977081298828 87.35010528564453 50.87311935424805 88.50003051757812 44.99999618530273 88.50003051757812 Z" stroke="none"/>
                      <path d="M 44.99999618530273 3 C 39.32870864868164 3 33.82865142822266 4.110061645507812 28.65262603759766 6.299346923828125 C 23.65165710449219 8.414573669433594 19.15968322753906 11.44334411621094 15.301513671875 15.301513671875 C 11.44333648681641 19.15968322753906 8.414566040039062 23.65165710449219 6.299339294433594 28.65262985229492 C 4.110054016113281 33.82867050170898 2.999992370605469 39.32872772216797 2.999992370605469 45.00001525878906 C 2.999992370605469 50.67130279541016 4.110054016113281 56.17136001586914 6.299339294433594 61.34738922119141 C 8.414566040039062 66.34837341308594 11.44333648681641 70.84033203125 15.301513671875 74.69850158691406 C 19.15968322753906 78.55668640136719 23.65165710449219 81.58545684814453 28.65262603759766 83.70068359375 C 33.82865142822266 85.88996887207031 39.32870864868164 87.00003051757812 44.99999618530273 87.00003051757812 C 50.67128372192383 87.00003051757812 56.17134094238281 85.88996887207031 61.34736633300781 83.70068359375 C 66.34834289550781 81.58545684814453 70.84030914306641 78.55668640136719 74.69847869873047 74.69850158691406 C 78.55665588378906 70.84033203125 81.58542633056641 66.34837341308594 83.70065307617188 61.34738922119141 C 85.88993835449219 56.17136001586914 87 50.67130279541016 87 45.00001525878906 C 87 39.32872772216797 85.88993835449219 33.82867050170898 83.70065307617188 28.65262985229492 C 81.58542633056641 23.65165710449219 78.55665588378906 19.15968322753906 74.69847869873047 15.301513671875 C 70.84030914306641 11.44334411621094 66.34834289550781 8.414573669433594 61.34736633300781 6.299346923828125 C 56.17134094238281 4.110061645507812 50.67128372192383 3 44.99999618530273 3 M 44.99999618530273 0 C 69.85281372070312 0 90 20.14718627929688 90 45.00001525878906 C 90 69.85282897949219 69.85281372070312 90.00003051757812 44.99999618530273 90.00003051757812 C 20.14717864990234 90.00003051757812 -7.62939453125e-06 69.85282897949219 -7.62939453125e-06 45.00001525878906 C -7.62939453125e-06 20.14718627929688 20.14717864990234 0 44.99999618530273 0 Z" stroke="none" fill="#0b47db"/>
                    </g>
                  </g>
                </g>
              </g>
            </g>
          </g>
        </g>
      </g>
    </g>
    <g id="User_Experience" data-name="User Experience" transform="translate(219.904 500.978)">
      <rect id="Rectángulo_422874" data-name="Rectángulo 422874" width="35.33" height="56.337" rx="4" transform="translate(11.458 0.955)" fill="url(#linear-gradient)"/>
      <path id="Trazado_1220031" data-name="Trazado 1220031" d="M44.277,5V54.1H17V5h6.365a1.818,1.818,0,0,0,1.818,1.818H36.094A1.818,1.818,0,0,0,37.912,5Z" transform="translate(-1.543 -0.454)" fill="url(#linear-gradient-2)"/>
      <path id="Trazado_1220032" data-name="Trazado 1220032" d="M17,57H44.277v1.818H17Z" transform="translate(-1.543 -5.174)" fill="#77cacb"/>
      <circle id="Elipse_14601" data-name="Elipse 14601" cx="9.071" cy="9.071" r="9.071" transform="translate(35.33 30.556)" fill="url(#linear-gradient-3)"/>
      <path id="Trazado_1220033" data-name="Trazado 1220033" d="M48.67,45.077a3.31,3.31,0,0,1-3.31-3.31V40.94a3.31,3.31,0,1,1,6.619,0v.827A3.31,3.31,0,0,1,48.67,45.077Z" transform="translate(-4.117 -3.415)" fill="url(#linear-gradient-4)"/>
      <path id="Trazado_1220034" data-name="Trazado 1220034" d="M54.3,51.074a9.092,9.092,0,0,1-11.82,0l.455-1.346a5.737,5.737,0,0,1,10.929-.073S54.291,51.046,54.3,51.074Z" transform="translate(-3.856 -4.148)" fill="url(#linear-gradient-5)"/>
      <path id="Trazado_1220035" data-name="Trazado 1220035" d="M1,41H28.277V51.911H1Z" transform="translate(-0.091 -3.721)" fill="url(#linear-gradient-6)"/>
      <path id="Trazado_1220036" data-name="Trazado 1220036" d="M1,51H28.277v1.818H1Z" transform="translate(-0.091 -4.629)" fill="#c7cdd8"/>
      <path id="Trazado_1220037" data-name="Trazado 1220037" d="M13,53h3.637v1.818H13Z" transform="translate(-1.18 -4.81)" fill="#42455e"/>
      <path id="Trazado_1220038" data-name="Trazado 1220038" d="M17,53H29.729v1.818H17Z" transform="translate(-1.543 -4.81)" fill="#77cacb"/>
      <path id="Trazado_1220039" data-name="Trazado 1220039" d="M35,13H60.459V25.729H35Z" transform="translate(-3.177 -1.18)" fill="url(#linear-gradient-6)"/>
      <path id="Trazado_1220040" data-name="Trazado 1220040" d="M35,25H60.459v1.818H35Z" transform="translate(-3.177 -2.269)" fill="#c7cdd8"/>
      <path id="Trazado_1220041" data-name="Trazado 1220041" d="M47,27h3.637v1.818H47Z" transform="translate(-4.266 -2.451)" fill="#42455e"/>
      <path id="Trazado_1220042" data-name="Trazado 1220042" d="M35,27H45.911v1.818H35Z" transform="translate(-3.177 -2.451)" fill="#77cacb"/>
      <path id="Trazado_1220043" data-name="Trazado 1220043" d="M4,13H24V29.366H4Z" transform="translate(-0.363 -1.18)" fill="url(#linear-gradient-3)"/>
      <path id="Trazado_1220044" data-name="Trazado 1220044" d="M4,29H24v1.818H4Z" transform="translate(-0.363 -2.632)" fill="#f6b756"/>
      <path id="Trazado_1220045" data-name="Trazado 1220045" d="M13,31h3.637v1.818H13Z" transform="translate(-1.18 -2.814)" fill="#42455e"/>
      <path id="Trazado_1220046" data-name="Trazado 1220046" d="M17,31h8.183v1.818H17Z" transform="translate(-1.543 -2.814)" fill="#77cacb"/>
      <path id="Trazado_1220047" data-name="Trazado 1220047" d="M42.682,49.41,42.2,50.829A9.092,9.092,0,0,1,39.045,43a9.092,9.092,0,0,0,3.637,6.41Z" transform="translate(-3.54 -3.903)" fill="#f6b756"/>
      <path id="Trazado_1220048" data-name="Trazado 1220048" d="M55.436,50.83,55,49.485c-.091-.273,3.155-1.928,3.637-6.465A9.092,9.092,0,0,1,55.436,50.83Z" transform="translate(-4.992 -3.905)" fill="#f6b756"/>
      <path id="Trazado_1220049" data-name="Trazado 1220049" d="M54.3,51.468a9.092,9.092,0,0,1-11.82,0s.464-1.391.482-1.418a9.092,9.092,0,0,0,5.455,1.818c3.637,0,5.355-1.937,5.455-1.7Z" transform="translate(-3.856 -4.543)" fill="#5b8dc9"/>
      <path id="Trazado_1220050" data-name="Trazado 1220050" d="M28.818,3.909a.909.909,0,1,0-.909.909A.909.909,0,0,0,28.818,3.909Z" transform="translate(-2.451 -0.272)"/>
      <path id="Trazado_1220051" data-name="Trazado 1220051" d="M36.818,3.909a.909.909,0,1,0-.909.909A.909.909,0,0,0,36.818,3.909Z" transform="translate(-3.177 -0.272)"/>
      <path id="Trazado_1220052" data-name="Trazado 1220052" d="M57.282,10.911h-10V4.546A4.546,4.546,0,0,0,42.734,0H15.457a4.546,4.546,0,0,0-4.546,4.546v6.365H3.637a.909.909,0,0,0-.909.909V28.186a.909.909,0,0,0,.909.909h7.274v7.274h-10A.909.909,0,0,0,0,37.279V48.19a.909.909,0,0,0,.909.909h10v4.546a4.546,4.546,0,0,0,4.546,4.546H42.734a4.546,4.546,0,0,0,4.546-4.546v-4.01c9.7-2.773,9.62-16.512,0-19.239V25.459h10a.909.909,0,0,0,.909-.909V11.82A.909.909,0,0,0,57.282,10.911ZM12.729,4.546a2.728,2.728,0,0,1,2.728-2.728H42.734a2.728,2.728,0,0,1,2.728,2.728v6.365H43.643V4.546a.909.909,0,0,0-.909-.909H36.369a.909.909,0,0,0-.909.909.909.909,0,0,1-.909.909H23.64a.909.909,0,0,1-.909-.909.909.909,0,0,0-.909-.909H15.457a.909.909,0,0,0-.909.909v6.365H12.729Zm19.094,6.365a.909.909,0,0,0-.909.909V24.549a.909.909,0,0,0,.909.909h10V30.4c-9.583,2.728-9.683,16.266-.2,19.176.282.082.2-.336.2,3.164H16.366V49.1h11.82a.909.909,0,0,0,.909-.909V37.279a.909.909,0,0,0-.909-.909H16.366V29.1H23.64a.909.909,0,0,0,.909-.909V11.82a.909.909,0,0,0-.909-.909H16.366V5.455h4.7A2.728,2.728,0,0,0,23.64,7.274H34.551a2.728,2.728,0,0,0,2.573-1.818h4.7v5.455Zm15.13,27.441a2.4,2.4,0,1,1-4.8,0v-.827a2.4,2.4,0,1,1,4.8,0ZM49.1,45.871l.245.727a8.119,8.119,0,0,1-9.647,0l.255-.736a4.828,4.828,0,0,1,9.147.009ZM4.546,12.729H22.731V27.277H4.546ZM12.729,29.1h1.818v7.274H12.729ZM1.818,38.188H27.277V47.28H1.818ZM42.734,56.373H15.457a2.728,2.728,0,0,1-2.728-2.728V49.1h1.818v4.546a.909.909,0,0,0,.909.909H42.734a.909.909,0,0,0,.909-.909V50.008a8.683,8.683,0,0,0,1.818,0v3.637a2.728,2.728,0,0,1-2.728,2.728Zm8.1-11.129a6.574,6.574,0,0,0-3.391-3.837,4.628,4.628,0,0,0,1.327-3.882,4.219,4.219,0,1,0-8.438,0,4.634,4.634,0,0,0,1.327,3.882,6.547,6.547,0,0,0-3.391,3.837,8.183,8.183,0,1,1,12.566,0ZM45.462,30.05a8.683,8.683,0,0,0-1.818,0V25.459h1.818Zm10.911-6.365H32.732V12.729h23.64Z" transform="translate(0)"/>
      <path id="Trazado_1220053" data-name="Trazado 1220053" d="M20.457,48H5.909a.909.909,0,0,0,0,1.818H20.457a.909.909,0,0,0,0-1.818Z" transform="translate(-0.454 -4.357)"/>
      <path id="Trazado_1220054" data-name="Trazado 1220054" d="M5.909,45.818H24.094a.909.909,0,0,0,0-1.818H5.909a.909.909,0,0,0,0,1.818Z" transform="translate(-0.454 -3.994)"/>
      <path id="Trazado_1220055" data-name="Trazado 1220055" d="M13.818,26.365V20.909a.909.909,0,0,0-1.818,0v5.455a.909.909,0,1,0,1.818,0Z" transform="translate(-1.089 -1.815)"/>
      <path id="Trazado_1220056" data-name="Trazado 1220056" d="M8,24.909v1.818a.909.909,0,0,0,1.818,0V24.909a.909.909,0,1,0-1.818,0Z" transform="translate(-0.726 -2.178)"/>
      <path id="Trazado_1220057" data-name="Trazado 1220057" d="M17.818,26.455V21.909a.909.909,0,1,0-1.818,0v4.546a.909.909,0,1,0,1.818,0Z" transform="translate(-1.452 -1.906)"/>
      <path id="Trazado_1220058" data-name="Trazado 1220058" d="M21.818,26V16.909a.909.909,0,0,0-1.818,0V26a.909.909,0,1,0,1.818,0Z" transform="translate(-1.815 -1.452)"/>
      <path id="Trazado_1220059" data-name="Trazado 1220059" d="M41.991,16.263l-2.728,2.728a.909.909,0,0,0,0,1.291l2.728,2.728a.913.913,0,0,0,1.291-1.291l-2.091-2.082,2.091-2.082a.913.913,0,1,0-1.291-1.291Z" transform="translate(-3.539 -1.452)"/>
      <path id="Trazado_1220060" data-name="Trazado 1220060" d="M55.554,23.01l2.728-2.728a.909.909,0,0,0,0-1.291l-2.728-2.728a.913.913,0,0,0-1.291,1.291l2.091,2.082-2.091,2.082a.913.913,0,0,0,1.291,1.291Z" transform="translate(-4.901 -1.452)"/>
      <path id="Trazado_1220061" data-name="Trazado 1220061" d="M46.155,21.872a.909.909,0,0,0,.755,1.409c.664,0,.418.109,4.392-5.865a.909.909,0,0,0-1.509-1Z" transform="translate(-4.176 -1.459)"/>
    </g>
  </g>
</svg>
