<svg xmlns="http://www.w3.org/2000/svg" xmlns:xlink="http://www.w3.org/1999/xlink" width="106" height="106" viewBox="0 0 106 106">
  <defs>
    <filter id="Trazado_982547" x="0" y="0" width="106" height="106" filterUnits="userSpaceOnUse">
      <feOffset dy="3" input="SourceAlpha"/>
      <feGaussianBlur stdDeviation="3" result="blur"/>
      <feFlood flood-opacity="0.161"/>
      <feComposite operator="in" in2="blur"/>
      <feComposite in="SourceGraphic"/>
    </filter>
  </defs>
  <g id="Grupo_1231134" data-name="Grupo 1231134" transform="translate(-171 -6336)">
    <g id="Grupo_1230706" data-name="Grupo 1230706" transform="translate(0 5133)">
      <g id="Grupo_1228758" data-name="Grupo 1228758" transform="translate(0 -179)">
        <g id="Grupo_1173169" data-name="Grupo 1173169" transform="translate(0 -2329)">
          <g id="Grupo_1172017" data-name="Grupo 1172017" transform="translate(0 2654)">
            <g id="Grupo_1167337" data-name="Grupo 1167337" transform="translate(180 1063)">
              <g id="Grupo_1166720" data-name="Grupo 1166720" transform="translate(0)">
                <g id="Grupo_1164305" data-name="Grupo 1164305">
                  <g id="Grupo_1163948" data-name="Grupo 1163948">
                    <g id="Grupo_1158168" data-name="Grupo 1158168">
                      <g id="Grupo_1152576" data-name="Grupo 1152576">
                        <g id="Grupo_1148633" data-name="Grupo 1148633">
                          <g id="Grupo_1148525" data-name="Grupo 1148525">
                            <g transform="matrix(1, 0, 0, 1, -9, -6)" filter="url(#Trazado_982547)">
                              <g id="Trazado_982547-2" data-name="Trazado 982547" transform="translate(9 6)" fill="#e5ebfb">
                                <path d="M 44 86.5 C 38.26187515258789 86.5 32.69618606567383 85.37651062011719 27.45755004882812 83.16075897216797 C 22.3968505859375 81.020263671875 17.85157585144043 77.95565032958984 13.94796276092529 74.05204010009766 C 10.04434967041016 70.1484375 6.979737281799316 65.6031494140625 4.839250087738037 60.54246139526367 C 2.62348747253418 55.30381393432617 1.5 49.73812484741211 1.5 44 C 1.5 38.26187515258789 2.62348747253418 32.69618606567383 4.839250087738037 27.45755004882812 C 6.979737281799316 22.3968505859375 10.04434967041016 17.85157585144043 13.94796276092529 13.94796276092529 C 17.85157585144043 10.04434967041016 22.3968505859375 6.979737281799316 27.45755004882812 4.839250087738037 C 32.69618606567383 2.62348747253418 38.26187515258789 1.5 44 1.5 C 49.73812484741211 1.5 55.30381393432617 2.62348747253418 60.54246139526367 4.839250087738037 C 65.6031494140625 6.979737281799316 70.1484375 10.04434967041016 74.05204010009766 13.94796276092529 C 77.95565032958984 17.85157585144043 81.020263671875 22.3968505859375 83.16075897216797 27.45755004882812 C 85.37651062011719 32.69618606567383 86.5 38.26187515258789 86.5 44 C 86.5 49.73812484741211 85.37651062011719 55.30381393432617 83.16075897216797 60.54246139526367 C 81.020263671875 65.6031494140625 77.95565032958984 70.1484375 74.05204010009766 74.05204010009766 C 70.1484375 77.95565032958984 65.6031494140625 81.020263671875 60.54246139526367 83.16075897216797 C 55.30381393432617 85.37651062011719 49.73812484741211 86.5 44 86.5 Z" stroke="none"/>
                                <path d="M 44 3 C 38.46371459960938 3 33.09462738037109 4.083610534667969 28.0418701171875 6.220756530761719 C 23.15997314453125 8.285614013671875 18.77495574951172 11.24228668212891 15.00862884521484 15.00862884521484 C 11.24228668212891 18.77495574951172 8.285614013671875 23.15997314453125 6.220756530761719 28.0418701171875 C 4.083610534667969 33.09462738037109 3 38.46371459960938 3 44 C 3 49.53628540039062 4.083610534667969 54.9053840637207 6.220756530761719 59.9581298828125 C 8.285614013671875 64.84002685546875 11.24228668212891 69.22504425048828 15.00862884521484 72.99138641357422 C 18.77495574951172 76.75771331787109 23.15997314453125 79.71438598632812 28.0418701171875 81.77925872802734 C 33.09462738037109 83.9163818359375 38.46371459960938 85 44 85 C 49.53628540039062 85 54.9053840637207 83.9163818359375 59.95814514160156 81.77925872802734 C 64.84002685546875 79.71438598632812 69.22504425048828 76.75771331787109 72.99138641357422 72.99138641357422 C 76.75771331787109 69.22504425048828 79.71438598632812 64.84002685546875 81.77925872802734 59.95814514160156 C 83.9163818359375 54.9053840637207 85 49.53628540039062 85 44 C 85 38.46371459960938 83.9163818359375 33.09462738037109 81.77925872802734 28.0418701171875 C 79.71438598632812 23.15997314453125 76.75771331787109 18.77495574951172 72.99138641357422 15.00862884521484 C 69.22504425048828 11.24228668212891 64.84002685546875 8.285614013671875 59.9581298828125 6.220756530761719 C 54.9053840637207 4.083610534667969 49.53628540039062 3 44 3 M 44 0 C 68.30054473876953 0 88 19.69947052001953 88 44 C 88 68.30054473876953 68.30054473876953 88 44 88 C 19.69947052001953 88 0 68.30054473876953 0 44 C 0 19.69947052001953 19.69947052001953 0 44 0 Z" stroke="none" fill="#0b47db"/>
                              </g>
                            </g>
                          </g>
                        </g>
                      </g>
                    </g>
                  </g>
                </g>
              </g>
            </g>
          </g>
        </g>
      </g>
    </g>
    <g id="yo-asi" transform="translate(194.206 6356.208)">
      <circle id="Elipse_14618" data-name="Elipse 14618" cx="28.918" cy="28.918" r="28.918" transform="translate(0.876 0.873)" fill="#01c0fa"/>
      <path id="Trazado_1220295" data-name="Trazado 1220295" d="M92.731,180.668H62.459a8.36,8.36,0,0,1-8.36-8.36v-12.2a8.36,8.36,0,0,1,8.36-8.36H92.731a8.36,8.36,0,0,1,8.36,8.36v12.2A8.36,8.36,0,0,1,92.731,180.668Z" transform="translate(-47.801 -134.091)" fill="#08a9f1"/>
      <path id="Trazado_1220296" data-name="Trazado 1220296" d="M151.19,24.511a28.926,28.926,0,0,1-25.728,51.55,28.924,28.924,0,1,0,25.728-51.55Z" transform="translate(-110.859 -21.659)" fill="#08a9f1"/>
      <path id="Trazado_1220297" data-name="Trazado 1220297" d="M92.731,160.668H62.459a8.36,8.36,0,0,1-8.36-8.36v-12.2a8.36,8.36,0,0,1,8.36-8.36H92.731a8.36,8.36,0,0,1,8.36,8.36v12.2A8.36,8.36,0,0,1,92.731,160.668Z" transform="translate(-47.801 -116.418)" fill="#f2fbff"/>
      <g id="Grupo_1231133" data-name="Grupo 1231133" transform="translate(8.779 15.421)">
        <path id="Trazado_1220298" data-name="Trazado 1220298" d="M102.5,204.5a1.807,1.807,0,0,1-1.807-1.807V184.62a1.807,1.807,0,0,1,3.615,0v18.074A1.807,1.807,0,0,1,102.5,204.5Z" transform="translate(-97.752 -176.96)" fill="#dff6fd"/>
        <path id="Trazado_1220299" data-name="Trazado 1220299" d="M187.172,188.079a2.711,2.711,0,1,0-2.5,3.771,6.326,6.326,0,1,1-5.8,8.853,1.808,1.808,0,0,1,1.659-2.527,1.779,1.779,0,0,1,1.645,1.06,2.711,2.711,0,1,0,2.5-3.771,6.326,6.326,0,1,1,5.8-8.853,1.808,1.808,0,0,1-1.659,2.527,1.779,1.779,0,0,1-1.645-1.06Z" transform="translate(-166.371 -176.959)" fill="#dff6fd"/>
        <path id="Trazado_1220300" data-name="Trazado 1220300" d="M324.457,182.812a6.326,6.326,0,0,0-6.326,6.326v9.037a6.326,6.326,0,0,0,12.652,0v-9.037A6.326,6.326,0,0,0,324.457,182.812Zm2.711,15.363a2.711,2.711,0,0,1-5.422,0v-9.037a2.711,2.711,0,0,1,5.422,0Z" transform="translate(-289.886 -176.959)" fill="#dff6fd"/>
        <path id="Trazado_1220301" data-name="Trazado 1220301" d="M112.794,132.515a8.334,8.334,0,0,1,2.481,5.944v7.762a12.8,12.8,0,0,1-12.8,12.8H76.642a8.426,8.426,0,0,1-1.224-.089,8.333,8.333,0,0,0,5.879,2.416H111.57a8.36,8.36,0,0,0,8.36-8.36v-12.2A8.362,8.362,0,0,0,112.794,132.515Z" transform="translate(-75.418 -132.515)" fill="#dff6fd"/>
      </g>
      <path id="Trazado_1220302" data-name="Trazado 1220302" d="M102.5,184.5a1.807,1.807,0,0,1-1.807-1.807V164.62a1.807,1.807,0,0,1,3.615,0v18.074A1.807,1.807,0,0,1,102.5,184.5Z" transform="translate(-88.973 -143.866)" fill="#0067c5"/>
      <path id="Trazado_1220303" data-name="Trazado 1220303" d="M187.172,168.079a2.711,2.711,0,1,0-2.5,3.771,6.326,6.326,0,1,1-5.8,8.853,1.808,1.808,0,0,1,1.659-2.527,1.779,1.779,0,0,1,1.645,1.06,2.711,2.711,0,1,0,2.5-3.771,6.326,6.326,0,1,1,5.8-8.853,1.808,1.808,0,0,1-1.659,2.527,1.779,1.779,0,0,1-1.645-1.06Z" transform="translate(-157.592 -143.866)" fill="#0067c5"/>
      <path id="Trazado_1220304" data-name="Trazado 1220304" d="M324.457,162.812a6.326,6.326,0,0,0-6.326,6.326v9.037a6.326,6.326,0,1,0,12.652,0v-9.037A6.326,6.326,0,0,0,324.457,162.812Zm2.711,15.363a2.711,2.711,0,0,1-5.422,0v-9.037a2.711,2.711,0,1,1,5.422,0Z" transform="translate(-281.107 -143.865)" fill="#0067c5"/>
      <path id="Trazado_1220305" data-name="Trazado 1220305" d="M59.586,29.791A29.791,29.791,0,0,0,29.795,0,29.5,29.5,0,0,0,11.447,6.318a.873.873,0,1,0,1.076,1.375A27.791,27.791,0,0,1,22.68,2.648a16.709,16.709,0,0,0-1.766,1.611,27.939,27.939,0,0,0-5.839,10.2h-.417a9.185,9.185,0,0,0-5.481,1.807H5.215A28.14,28.14,0,0,1,9.633,10.3.873.873,0,0,0,8.378,9.082a29.791,29.791,0,0,0,21.373,50.5c.029,0,.058,0,.087,0A29.791,29.791,0,0,0,59.586,29.791Zm-1.759-.872H54.164V23.692a9.187,9.187,0,0,0-1.959-5.68h3.04A27.86,27.86,0,0,1,57.827,28.919ZM54.164,35.89V30.665h3.663A27.857,27.857,0,0,1,55.245,41.57H52.2A9.187,9.187,0,0,0,54.164,35.89Zm.195-19.624H50.412a9.184,9.184,0,0,0-5.481-1.807h-.417a27.941,27.941,0,0,0-5.839-10.2,16.746,16.746,0,0,0-1.743-1.593,28.166,28.166,0,0,1,17.426,13.6ZM28.921,1.792V14.459H16.926C19.615,7.031,24.1,2.3,28.921,1.792ZM37.575,16.2a.873.873,0,0,0,0-1.746H30.667V1.792c4.825.512,9.307,5.238,12,12.667H41.648a.873.873,0,0,0,0,1.746h3.283a7.5,7.5,0,0,1,7.487,7.487v12.2a7.5,7.5,0,0,1-7.487,7.487H14.658A7.5,7.5,0,0,1,7.171,35.89v-12.2A7.5,7.5,0,0,1,14.658,16.2ZM28.921,57.791c-4.825-.512-9.306-5.239-11.995-12.667H28.921Zm1.746-12.667h12c-2.689,7.429-7.17,12.156-12,12.667ZM1.762,30.665H5.425V35.89a9.188,9.188,0,0,0,1.958,5.68H4.344A27.859,27.859,0,0,1,1.762,30.665ZM7.384,18.012a9.187,9.187,0,0,0-1.959,5.68v5.227H1.762A27.937,27.937,0,0,1,4.33,18.012H7.384Zm-2.154,25.3H9.177a9.184,9.184,0,0,0,5.481,1.807h.417a27.94,27.94,0,0,0,5.839,10.2,16.746,16.746,0,0,0,1.743,1.593A28.165,28.165,0,0,1,5.231,43.316Zm31.7,13.6a16.748,16.748,0,0,0,1.743-1.593,27.939,27.939,0,0,0,5.839-10.2h.417a9.184,9.184,0,0,0,5.481-1.807h3.946A28.165,28.165,0,0,1,36.932,56.917Z" transform="translate(0 0)"/>
      <path id="Trazado_1220306" data-name="Trazado 1220306" d="M95.873,178.747a2.683,2.683,0,0,0,2.68-2.68V157.993a2.68,2.68,0,0,0-5.36,0v11.164a.873.873,0,0,0,1.746,0V157.993a.935.935,0,0,1,1.869,0v18.074a.935.935,0,0,1-1.869,0V173.23a.873.873,0,0,0-1.746,0v2.837A2.683,2.683,0,0,0,95.873,178.747Z" transform="translate(-82.345 -137.239)"/>
      <path id="Trazado_1220307" data-name="Trazado 1220307" d="M178.048,169.708a1.838,1.838,0,0,1,1.835,1.957,1.839,1.839,0,0,1-3.528.6,2.642,2.642,0,0,0-2.449-1.591,2.68,2.68,0,0,0-2.459,3.749,7.2,7.2,0,1,0,6.6-10.075,1.838,1.838,0,0,1-1.835-1.957,1.839,1.839,0,0,1,3.528-.6,2.642,2.642,0,0,0,2.449,1.591,2.681,2.681,0,0,0,2.459-3.749,7.2,7.2,0,1,0-6.6,10.075ZM172.6,162.3a5.454,5.454,0,0,1,10.45-1.965.936.936,0,0,1-1.7.778,3.584,3.584,0,0,0-6.876,1.174,3.555,3.555,0,0,0,.965,2.681,3.6,3.6,0,0,0,2.612,1.13,5.453,5.453,0,0,1,5.449,5.666,5.454,5.454,0,0,1-10.45,1.965.936.936,0,0,1,1.7-.777,3.584,3.584,0,0,0,6.876-1.174,3.554,3.554,0,0,0-.965-2.681,3.6,3.6,0,0,0-2.612-1.13A5.453,5.453,0,0,1,172.6,162.3Z" transform="translate(-150.965 -137.237)"/>
      <path id="Trazado_1220308" data-name="Trazado 1220308" d="M345.277,202.58A3.588,3.588,0,0,0,348.861,199v-9.037a3.584,3.584,0,0,0-7.168,0V199A3.588,3.588,0,0,0,345.277,202.58Zm-1.838-12.621a1.838,1.838,0,1,1,3.677,0V199a1.838,1.838,0,0,1-3.677,0Z" transform="translate(-301.927 -164.686)"/>
      <path id="Trazado_1220309" data-name="Trazado 1220309" d="M317.83,178.748a7.207,7.207,0,0,0,7.2-7.2v-9.037a7.2,7.2,0,1,0-14.4,0v9.037A7.207,7.207,0,0,0,317.83,178.748Zm-5.453-16.236a5.453,5.453,0,0,1,10.906,0v9.037a5.453,5.453,0,0,1-10.906,0Z" transform="translate(-274.48 -137.24)"/>
    </g>
  </g>
</svg>
