<svg xmlns="http://www.w3.org/2000/svg" xmlns:xlink="http://www.w3.org/1999/xlink" width="400" height="311" viewBox="0 0 400 311">
  <defs>
    <clipPath id="clip-path">
      <rect id="Rectángulo_422924" data-name="Rectángulo 422924" width="400" height="311" transform="translate(0 -15)" fill="#fff" stroke="#707070" stroke-width="1"/>
    </clipPath>
  </defs>
  <g id="Grupo_1231156" data-name="Grupo 1231156" transform="translate(0 15)">
    <rect id="Rectángulo_422925" data-name="Rectángulo 422925" width="302" height="196" transform="translate(0 42)" fill="#fef9e5"/>
    <g id="Enmascarar_grupo_1208519" data-name="Enmascarar grupo 1208519" clip-path="url(#clip-path)">
      <g id="_5537148_2869263" data-name="5537148_2869263" transform="translate(3.052 10.532)">
        <g id="OBJECTS">
          <g id="Grupo_1231155" data-name="Grupo 1231155">
            <path id="Trazado_1220311" data-name="Trazado 1220311" d="M254.738,261.535H146a4.766,4.766,0,0,0-4.752,4.753V336.9A4.765,4.765,0,0,0,146,341.649H254.738a4.766,4.766,0,0,0,4.752-4.752V266.288A4.767,4.767,0,0,0,254.738,261.535Z" transform="translate(91.838 -111.102)" fill="#c1bbda" fill-rule="evenodd"/>
            <g id="Grupo_1231138" data-name="Grupo 1231138" transform="translate(110.45 65.031)">
              <path id="Trazado_1220312" data-name="Trazado 1220312" d="M347.228,323.79H297.69l-7.766,50.145h65.069Z" transform="translate(-213.337 -196.841)" fill="#efecf5" fill-rule="evenodd"/>
              <path id="Trazado_1220313" data-name="Trazado 1220313" d="M354.741,397.84H275.7a7.553,7.553,0,0,0-7.531,7.531,2.351,2.351,0,0,0,2.345,2.345h89.413a2.352,2.352,0,0,0,2.345-2.345A7.554,7.554,0,0,0,354.741,397.84Z" transform="translate(-206.099 -221.471)" fill="#fff" fill-rule="evenodd"/>
              <path id="Trazado_1220314" data-name="Trazado 1220314" d="M384.638,133.57H179.767a7.753,7.753,0,0,0-7.73,7.731V263.687a7.754,7.754,0,0,0,7.73,7.731H384.638a7.753,7.753,0,0,0,7.73-7.731V141.3A7.752,7.752,0,0,0,384.638,133.57Z" transform="translate(-172.037 -133.57)" fill="#18233d" fill-rule="evenodd"/>
              <path id="Trazado_1220315" data-name="Trazado 1220315" d="M172.037,322.774v14.818a7.753,7.753,0,0,0,7.73,7.731H384.638a7.752,7.752,0,0,0,7.73-7.731V322.774Z" transform="translate(-172.037 -196.503)" fill="#fff" fill-rule="evenodd"/>
              <rect id="Rectángulo_422923" data-name="Rectángulo 422923" width="205.679" height="111.618" transform="translate(7.326 7.327)" fill="#fff"/>
              <path id="Trazado_1220316" data-name="Trazado 1220316" d="M429.144,157.231H353.133a4.473,4.473,0,0,0-4.46,4.459v73.684a4.474,4.474,0,0,0,4.46,4.46h76.011a4.473,4.473,0,0,0,4.459-4.46V161.69A4.473,4.473,0,0,0,429.144,157.231Z" transform="translate(-331.156 -141.44)" fill="#dbd7eb" fill-rule="evenodd"/>
              <path id="Trazado_1220317" data-name="Trazado 1220317" d="M334.059,329.855a6.119,6.119,0,1,0,6.119,6.119A6.119,6.119,0,0,0,334.059,329.855Z" transform="translate(-223.893 -198.858)" fill="#e4e2f1" fill-rule="evenodd"/>
              <g id="Grupo_1231137" data-name="Grupo 1231137" transform="translate(14.224 13.651)">
                <path id="Trazado_1220318" data-name="Trazado 1220318" d="M434.079,154.025H358.068a4.473,4.473,0,0,0-4.461,4.459v73.684a4.474,4.474,0,0,0,4.461,4.461h76.011a4.473,4.473,0,0,0,4.459-4.461V158.484A4.472,4.472,0,0,0,434.079,154.025Z" transform="translate(-353.607 -154.025)" fill="#dd87a2" fill-rule="evenodd"/>
                <path id="Trazado_1220319" data-name="Trazado 1220319" d="M424.565,158.815H364.647a1.458,1.458,0,0,0-1.454,1.454v7.078a1.458,1.458,0,0,0,1.454,1.454h59.918a1.458,1.458,0,0,0,1.453-1.454v-7.078A1.457,1.457,0,0,0,424.565,158.815Z" transform="translate(-347.484 -155.618)" fill="#0f1630" fill-rule="evenodd"/>
                <path id="Trazado_1220320" data-name="Trazado 1220320" d="M469.691,158.815h-6.939a1.43,1.43,0,0,0-1.428,1.426v7.134a1.431,1.431,0,0,0,1.428,1.426h6.939a1.429,1.429,0,0,0,1.426-1.426v-7.134A1.429,1.429,0,0,0,469.691,158.815Z" transform="translate(-458.074 -155.618)" fill="#e74d91" fill-rule="evenodd"/>
                <path id="Trazado_1220321" data-name="Trazado 1220321" d="M423.4,177.99H365.81a2.623,2.623,0,0,0-2.617,2.617v52.549a2.623,2.623,0,0,0,2.617,2.616H423.4a2.623,2.623,0,0,0,2.615-2.616V180.607A2.623,2.623,0,0,0,423.4,177.99Z" transform="translate(-347.484 -161.996)" fill="#fff" fill-rule="evenodd"/>
                <path id="Trazado_1220322" data-name="Trazado 1220322" d="M433.416,183.289a1.369,1.369,0,1,0,1.369,1.369,1.369,1.369,0,0,0-1.369-1.369Zm10.013,0a1.369,1.369,0,1,0,1.369,1.369,1.369,1.369,0,0,0-1.369-1.369Zm-5.007,0a1.369,1.369,0,1,0,1.369,1.369A1.37,1.37,0,0,0,438.422,183.289Z" transform="translate(-412.216 -163.759)" fill="#f7bd8e" fill-rule="evenodd"/>
                <g id="Grupo_1231135" data-name="Grupo 1231135" transform="translate(19.831 34.567)">
                  <path id="Trazado_1220323" data-name="Trazado 1220323" d="M425.781,213.359H376.758a.471.471,0,0,0-.471.469h0a.471.471,0,0,0,.471.469h49.024a.47.47,0,0,0,.469-.469h0A.471.471,0,0,0,425.781,213.359Z" transform="translate(-376.287 -208.328)" fill="#ccc5e1" fill-rule="evenodd"/>
                  <path id="Trazado_1220324" data-name="Trazado 1220324" d="M370.152,214.455a.782.782,0,1,1,.782-.782A.784.784,0,0,1,370.152,214.455Z" transform="translate(-316.353 -208.172)" fill="#ccc5e1" fill-rule="evenodd"/>
                  <path id="Trazado_1220325" data-name="Trazado 1220325" d="M425.781,219.361H376.758a.471.471,0,0,0-.471.47h0a.471.471,0,0,0,.471.469h49.024a.47.47,0,0,0,.469-.469h0A.471.471,0,0,0,425.781,219.361Z" transform="translate(-376.287 -210.324)" fill="#ccc5e1" fill-rule="evenodd"/>
                  <path id="Trazado_1220326" data-name="Trazado 1220326" d="M370.152,220.457a.782.782,0,1,1,.782-.782A.784.784,0,0,1,370.152,220.457Z" transform="translate(-316.353 -210.168)" fill="#ccc5e1" fill-rule="evenodd"/>
                  <path id="Trazado_1220327" data-name="Trazado 1220327" d="M425.781,225.364H376.758a.471.471,0,0,0-.471.469h0a.471.471,0,0,0,.471.469h49.024a.47.47,0,0,0,.469-.469h0A.47.47,0,0,0,425.781,225.364Z" transform="translate(-376.287 -212.321)" fill="#ccc5e1" fill-rule="evenodd"/>
                  <path id="Trazado_1220328" data-name="Trazado 1220328" d="M370.152,226.459a.782.782,0,1,1,.782-.782A.784.784,0,0,1,370.152,226.459Z" transform="translate(-316.353 -212.165)" fill="#ccc5e1" fill-rule="evenodd"/>
                  <path id="Trazado_1220329" data-name="Trazado 1220329" d="M425.781,231.366H376.758a.471.471,0,0,0-.471.469h0a.471.471,0,0,0,.471.47h49.024a.47.47,0,0,0,.469-.47h0A.47.47,0,0,0,425.781,231.366Z" transform="translate(-376.287 -214.317)" fill="#ccc5e1" fill-rule="evenodd"/>
                  <path id="Trazado_1220330" data-name="Trazado 1220330" d="M370.152,232.461a.782.782,0,1,1,.782-.782A.784.784,0,0,1,370.152,232.461Z" transform="translate(-316.353 -214.161)" fill="#ccc5e1" fill-rule="evenodd"/>
                  <path id="Trazado_1220331" data-name="Trazado 1220331" d="M425.781,237.37H376.758a.47.47,0,0,0-.471.468h0a.471.471,0,0,0,.471.471h49.024a.471.471,0,0,0,.469-.471h0A.469.469,0,0,0,425.781,237.37Z" transform="translate(-376.287 -216.314)" fill="#ccc5e1" fill-rule="evenodd"/>
                  <path id="Trazado_1220332" data-name="Trazado 1220332" d="M370.152,238.463a.782.782,0,1,1,.782-.782A.784.784,0,0,1,370.152,238.463Z" transform="translate(-316.353 -216.157)" fill="#ccc5e1" fill-rule="evenodd"/>
                  <path id="Trazado_1220333" data-name="Trazado 1220333" d="M425.781,243.37H376.758a.471.471,0,0,0-.471.469h0a.471.471,0,0,0,.471.471h49.024a.471.471,0,0,0,.469-.471h0A.47.47,0,0,0,425.781,243.37Z" transform="translate(-376.287 -218.31)" fill="#ccc5e1" fill-rule="evenodd"/>
                  <path id="Trazado_1220334" data-name="Trazado 1220334" d="M370.152,244.466a.782.782,0,1,1,.782-.782A.784.784,0,0,1,370.152,244.466Z" transform="translate(-316.353 -218.154)" fill="#ccc5e1" fill-rule="evenodd"/>
                  <path id="Trazado_1220335" data-name="Trazado 1220335" d="M425.781,249.372H376.758a.471.471,0,0,0-.471.47h0a.47.47,0,0,0,.471.469h49.024a.47.47,0,0,0,.469-.469h0A.471.471,0,0,0,425.781,249.372Z" transform="translate(-376.287 -220.306)" fill="#ccc5e1" fill-rule="evenodd"/>
                  <path id="Trazado_1220336" data-name="Trazado 1220336" d="M370.152,250.468a.783.783,0,1,1,.782-.782A.784.784,0,0,1,370.152,250.468Z" transform="translate(-316.353 -220.15)" fill="#ccc5e1" fill-rule="evenodd"/>
                  <path id="Trazado_1220337" data-name="Trazado 1220337" d="M425.781,255.376H376.758a.469.469,0,0,0-.471.468h0a.47.47,0,0,0,.471.47h49.024a.47.47,0,0,0,.469-.47h0A.469.469,0,0,0,425.781,255.376Z" transform="translate(-376.287 -222.303)" fill="#ccc5e1" fill-rule="evenodd"/>
                  <path id="Trazado_1220338" data-name="Trazado 1220338" d="M370.152,256.47a.783.783,0,1,1,.782-.782A.784.784,0,0,1,370.152,256.47Z" transform="translate(-316.353 -222.147)" fill="#ccc5e1" fill-rule="evenodd"/>
                  <path id="Trazado_1220339" data-name="Trazado 1220339" d="M416.191,205.82H398.919a.942.942,0,0,0-.94.939h0a.943.943,0,0,0,.94.939h17.273a.942.942,0,0,0,.939-.939h0A.942.942,0,0,0,416.191,205.82Z" transform="translate(-381.644 -205.82)" fill="#ccc5e1" fill-rule="evenodd"/>
                  <path id="Trazado_1220340" data-name="Trazado 1220340" d="M443.2,205.82H430.99a.942.942,0,0,0-.94.939h0a.941.941,0,0,0,.94.939H443.2a.941.941,0,0,0,.938-.939h0A.942.942,0,0,0,443.2,205.82Z" transform="translate(-430.05 -205.82)" fill="#ccc5e1" fill-rule="evenodd"/>
                </g>
                <path id="Trazado_1220341" data-name="Trazado 1220341" d="M374.664,197.262Zm1.819-6.922a3.5,3.5,0,1,1-1.024,2.473,3.488,3.488,0,0,1,1.024-2.473Zm.754-3.466a6.1,6.1,0,0,0-1.369.583,6.19,6.19,0,0,0-1.2.906.215.215,0,0,1-.257.031l-1.625-.939-.009-.005a.408.408,0,0,0-.542.153l-.007.012-1.144,1.981a.406.406,0,0,0,.147.551l.012.007,1.612.93a.215.215,0,0,1,.1.237h0a6.138,6.138,0,0,0-.135.739,6.371,6.371,0,0,0,0,1.506,6.087,6.087,0,0,0,.135.738.213.213,0,0,1-.113.244l-1.612.93h0a.406.406,0,0,0-.148.551l1.151,1.992h0a.406.406,0,0,0,.551.147l.012-.007,1.613-.931a.218.218,0,0,1,.257.031,6.167,6.167,0,0,0,2.581,1.493.215.215,0,0,1,.156.207v1.875a.4.4,0,0,0,.4.4h2.3a.4.4,0,0,0,.4-.4v-1.875a.215.215,0,0,1,.165-.209,6.116,6.116,0,0,0,1.371-.583,6.2,6.2,0,0,0,1.2-.907.216.216,0,0,1,.267-.025l1.614.932a.409.409,0,0,0,.306.039.4.4,0,0,0,.244-.186l.007-.012,1.145-1.98h0a.407.407,0,0,0-.147-.55l-1.624-.936a.217.217,0,0,1-.1-.237h0a5.972,5.972,0,0,0,.136-.738,6.174,6.174,0,0,0,0-1.506,6.016,6.016,0,0,0-.136-.739.216.216,0,0,1,.113-.244l1.612-.93a.4.4,0,0,0,.186-.246.4.4,0,0,0-.039-.3l-.007-.011-1.145-1.981h0a.407.407,0,0,0-.551-.148h0l-1.624.939a.214.214,0,0,1-.261-.035,6.166,6.166,0,0,0-2.577-1.488.214.214,0,0,1-.156-.207v-1.874a.4.4,0,0,0-.4-.4h-2.3a.4.4,0,0,0-.4.4v1.874A.214.214,0,0,1,377.237,186.875Z" transform="translate(-313.578 -164.125)" fill="#dd87a2" fill-rule="evenodd"/>
                <path id="Trazado_1220342" data-name="Trazado 1220342" d="M469.542,162.076a2.726,2.726,0,0,0-1.933-.8h0a2.729,2.729,0,0,0-2.73,2.732v0a2.727,2.727,0,0,0,.544,1.636l-1.665,1.665a.389.389,0,0,0,.549.55l1.665-1.664a2.736,2.736,0,0,0,1.638.545h0a2.732,2.732,0,0,0,2.73-2.733v0a2.722,2.722,0,0,0-.8-1.931Zm-1.933-.024a1.961,1.961,0,1,1-1.384.574A1.95,1.95,0,0,1,467.609,162.051Z" transform="translate(-458.845 -156.437)" fill="#fff" fill-rule="evenodd"/>
                <path id="Trazado_1220343" data-name="Trazado 1220343" d="M422.322,168.273H373.3a.47.47,0,0,0-.469.469h0a.471.471,0,0,0,.469.47h49.025a.471.471,0,0,0,.47-.47h0A.471.471,0,0,0,422.322,168.273Z" transform="translate(-350.688 -158.764)" fill="#63666e" fill-rule="evenodd"/>
                <g id="Grupo_1231136" data-name="Grupo 1231136" transform="translate(42.787 19.53)">
                  <path id="Trazado_1220344" data-name="Trazado 1220344" d="M409.541,183.289H398.57a.655.655,0,0,0-.592.7h0a.656.656,0,0,0,.592.7h10.971a.658.658,0,0,0,.594-.7h0A.656.656,0,0,0,409.541,183.289Z" transform="translate(-397.604 -183.289)" fill="#938aad" fill-rule="evenodd"/>
                  <path id="Trazado_1220345" data-name="Trazado 1220345" d="M404.785,187.92h-6.214a.656.656,0,0,0-.593.7h0a.656.656,0,0,0,.593.7h6.214a.657.657,0,0,0,.594-.7h0A.657.657,0,0,0,404.785,187.92Z" transform="translate(-392.848 -184.829)" fill="#938aad" fill-rule="evenodd"/>
                  <path id="Trazado_1220346" data-name="Trazado 1220346" d="M411.959,187.92h-.908a.656.656,0,0,0-.593.7h0a.656.656,0,0,0,.593.7h.908a.656.656,0,0,0,.591-.7h0A.655.655,0,0,0,411.959,187.92Z" transform="translate(-408.349 -184.829)" fill="#938aad" fill-rule="evenodd"/>
                  <path id="Trazado_1220347" data-name="Trazado 1220347" d="M404.153,199.992H398.57a.656.656,0,0,1-.592-.7h0a.656.656,0,0,1,.592-.7h5.583a.658.658,0,0,1,.594.7h0A.657.657,0,0,1,404.153,199.992Z" transform="translate(-392.216 -188.377)" fill="#938aad" fill-rule="evenodd"/>
                  <path id="Trazado_1220348" data-name="Trazado 1220348" d="M406.284,195.361h-7.714a.656.656,0,0,1-.591-.7h0a.654.654,0,0,1,.591-.7h7.714a.656.656,0,0,1,.594.7h0A.658.658,0,0,1,406.284,195.361Z" transform="translate(-394.346 -186.837)" fill="#938aad" fill-rule="evenodd"/>
                  <path id="Trazado_1220349" data-name="Trazado 1220349" d="M414.91,195.361h-1.332a.656.656,0,0,1-.592-.7h0a.654.654,0,0,1,.592-.7h1.332a.655.655,0,0,1,.591.7h0A.656.656,0,0,1,414.91,195.361Z" transform="translate(-412.986 -186.837)" fill="#938aad" fill-rule="evenodd"/>
                </g>
              </g>
            </g>
            <path id="Trazado_1220350" data-name="Trazado 1220350" d="M289.767,42.679h45.846a6.073,6.073,0,0,1,6.054,6.056V95.4a.676.676,0,0,1-1.154.478L330.2,85.557H289.766a6.072,6.072,0,0,1-6.054-6.054V48.734A6.073,6.073,0,0,1,289.767,42.679Z" transform="translate(-85.416 -38.307)" fill="#dbd7eb" fill-rule="evenodd"/>
            <path id="Trazado_1220351" data-name="Trazado 1220351" d="M283.712,61.865h57.955v39.913a.676.676,0,0,1-1.154.478L330.2,91.938H289.766a6.072,6.072,0,0,1-6.054-6.054Z" transform="translate(-85.416 -44.689)" fill="#b8b0d6" fill-rule="evenodd"/>
            <g id="Grupo_1231142" data-name="Grupo 1231142" transform="translate(12.772 136.737)">
              <g id="Grupo_1231140" data-name="Grupo 1231140" transform="translate(0 3.711)">
                <path id="Trazado_1220352" data-name="Trazado 1220352" d="M597.127,358.587l28.528-112.014h5.785L602.912,358.587Z" transform="translate(-597.127 -246.573)" fill="#4f2d4e" fill-rule="evenodd"/>
                <g id="Grupo_1231139" data-name="Grupo 1231139" transform="translate(7.362 12.774)">
                  <path id="Trazado_1220353" data-name="Trazado 1220353" d="M572.859,265.714h21.169a.934.934,0,0,1,.932.932h0a.935.935,0,0,1-.932.932H572.859a.935.935,0,0,1-.933-.932h0A.934.934,0,0,1,572.859,265.714Z" transform="translate(-551.191 -265.714)" fill="#4f2d4e" fill-rule="evenodd"/>
                  <path id="Trazado_1220354" data-name="Trazado 1220354" d="M578.038,286.842h21.169a.935.935,0,0,1,.932.932h0a.934.934,0,0,1-.932.932H578.038a.935.935,0,0,1-.932-.932h0A.935.935,0,0,1,578.038,286.842Z" transform="translate(-559.827 -272.742)" fill="#4f2d4e" fill-rule="evenodd"/>
                  <path id="Trazado_1220355" data-name="Trazado 1220355" d="M583.215,307.968h21.168a.936.936,0,0,1,.933.933h0a.936.936,0,0,1-.933.933H583.215a.935.935,0,0,1-.933-.933h0A.936.936,0,0,1,583.215,307.968Z" transform="translate(-568.458 -279.768)" fill="#4f2d4e" fill-rule="evenodd"/>
                  <path id="Trazado_1220356" data-name="Trazado 1220356" d="M588.4,329.1h21.168a.935.935,0,0,1,.932.933h0a.934.934,0,0,1-.932.933H588.4a.935.935,0,0,1-.933-.933h0A.935.935,0,0,1,588.4,329.1Z" transform="translate(-577.096 -286.796)" fill="#4f2d4e" fill-rule="evenodd"/>
                  <path id="Trazado_1220357" data-name="Trazado 1220357" d="M593.572,350.224h21.169a.936.936,0,0,1,.932.933h0a.935.935,0,0,1-.932.933H593.572a.935.935,0,0,1-.932-.933h0A.935.935,0,0,1,593.572,350.224Z" transform="translate(-585.728 -293.824)" fill="#4f2d4e" fill-rule="evenodd"/>
                  <path id="Trazado_1220358" data-name="Trazado 1220358" d="M598.752,371.352h21.169a.936.936,0,0,1,.932.933h0a.934.934,0,0,1-.932.932H598.752a.936.936,0,0,1-.934-.932h0A.936.936,0,0,1,598.752,371.352Z" transform="translate(-594.364 -300.851)" fill="#4f2d4e" fill-rule="evenodd"/>
                  <path id="Trazado_1220359" data-name="Trazado 1220359" d="M603.927,392.479H625.1a.936.936,0,0,1,.933.933h0a.935.935,0,0,1-.933.932H603.927a.936.936,0,0,1-.932-.932h0A.936.936,0,0,1,603.927,392.479Z" transform="translate(-602.995 -307.878)" fill="#4f2d4e" fill-rule="evenodd"/>
                </g>
                <path id="Trazado_1220360" data-name="Trazado 1220360" d="M561.106,358.587l28.529-112.014h5.783L566.89,358.587Z" transform="translate(-537.065 -246.573)" fill="#4f2d4e" fill-rule="evenodd"/>
              </g>
              <path id="Trazado_1220361" data-name="Trazado 1220361" d="M536.359,358.587,507.832,246.573h-5.784l28.527,112.014Z" transform="translate(-438.593 -242.862)" fill="#603460" fill-rule="evenodd"/>
              <g id="Grupo_1231141" data-name="Grupo 1231141" transform="translate(46.635 16.485)">
                <path id="Trazado_1220362" data-name="Trazado 1220362" d="M566.248,265.714H545.08a.934.934,0,0,0-.933.932h0a.935.935,0,0,0,.933.932h21.168a.936.936,0,0,0,.934-.932h0A.935.935,0,0,0,566.248,265.714Z" transform="translate(-544.147 -265.714)" fill="#4f2d4e" fill-rule="evenodd"/>
                <path id="Trazado_1220363" data-name="Trazado 1220363" d="M561.071,286.842H539.9a.935.935,0,0,0-.933.932h0a.934.934,0,0,0,.933.932h21.169a.936.936,0,0,0,.933-.932h0A.936.936,0,0,0,561.071,286.842Z" transform="translate(-535.512 -272.742)" fill="#4f2d4e" fill-rule="evenodd"/>
                <path id="Trazado_1220364" data-name="Trazado 1220364" d="M555.893,307.968H534.724a.936.936,0,0,0-.932.933h0a.936.936,0,0,0,.932.933h21.169a.935.935,0,0,0,.933-.933h0A.936.936,0,0,0,555.893,307.968Z" transform="translate(-526.88 -279.768)" fill="#4f2d4e" fill-rule="evenodd"/>
                <path id="Trazado_1220365" data-name="Trazado 1220365" d="M550.716,329.1H529.547a.935.935,0,0,0-.933.933h0a.935.935,0,0,0,.933.933h21.169a.935.935,0,0,0,.932-.933h0A.935.935,0,0,0,550.716,329.1Z" transform="translate(-518.246 -286.796)" fill="#4f2d4e" fill-rule="evenodd"/>
                <path id="Trazado_1220366" data-name="Trazado 1220366" d="M545.537,350.224H524.367a.936.936,0,0,0-.932.933h0a.935.935,0,0,0,.932.933h21.169a.935.935,0,0,0,.933-.933h0A.935.935,0,0,0,545.537,350.224Z" transform="translate(-509.611 -293.824)" fill="#4f2d4e" fill-rule="evenodd"/>
                <path id="Trazado_1220367" data-name="Trazado 1220367" d="M540.357,371.352H519.188a.934.934,0,0,0-.932.933h0a.933.933,0,0,0,.932.932h21.169a.935.935,0,0,0,.932-.932h0A.936.936,0,0,0,540.357,371.352Z" transform="translate(-500.975 -300.851)" fill="#4f2d4e" fill-rule="evenodd"/>
                <path id="Trazado_1220368" data-name="Trazado 1220368" d="M535.181,392.479H514.012a.936.936,0,0,0-.932.933h0a.936.936,0,0,0,.932.932h21.169a.935.935,0,0,0,.932-.932h0A.934.934,0,0,0,535.181,392.479Z" transform="translate(-492.344 -307.878)" fill="#4f2d4e" fill-rule="evenodd"/>
              </g>
              <path id="Trazado_1220369" data-name="Trazado 1220369" d="M572.382,358.587,543.855,246.573h-5.784L566.6,358.587Z" transform="translate(-498.656 -242.862)" fill="#81577f" fill-rule="evenodd"/>
              <path id="Trazado_1220370" data-name="Trazado 1220370" d="M594.058,241.013H567.515a3.328,3.328,0,0,0-3.318,3.318h0a3.328,3.328,0,0,0,3.318,3.319h26.542a3.328,3.328,0,0,0,3.317-3.319h0A3.327,3.327,0,0,0,594.058,241.013Z" transform="translate(-541.085 -241.013)" fill="#4f2d4e" fill-rule="evenodd"/>
              <path id="Trazado_1220371" data-name="Trazado 1220371" d="M568.375,241.013h-28.2a3.329,3.329,0,0,0-3.32,3.318h0a3.329,3.329,0,0,0,3.32,3.319h28.2a3.328,3.328,0,0,0,3.318-3.319h0A3.327,3.327,0,0,0,568.375,241.013Z" transform="translate(-497.156 -241.013)" fill="#9b6c96" fill-rule="evenodd"/>
            </g>
            <path id="Trazado_1220372" data-name="Trazado 1220372" d="M120.243,412.638H467.269a7.622,7.622,0,0,1,7.6,7.6h0a7.621,7.621,0,0,1-7.6,7.6H441.634a4.234,4.234,0,0,0-4.221,4.221h0a4.234,4.234,0,0,0,4.221,4.221h9.379a5.293,5.293,0,0,1,5.277,5.276h0a5.293,5.293,0,0,1-5.277,5.276H137.339a5.293,5.293,0,0,1-5.277-5.276h0a5.292,5.292,0,0,1,5.277-5.276h7.387a4.233,4.233,0,0,0,4.22-4.221h0a4.233,4.233,0,0,0-4.22-4.221H120.243a7.621,7.621,0,0,1-7.6-7.6h0a7.623,7.623,0,0,1,7.6-7.6ZM124.2,446.83a5.081,5.081,0,0,0,5.065-5.065v-.422a5.081,5.081,0,0,0-5.065-5.066h0a5.082,5.082,0,0,0-5.067,5.066v.422a5.081,5.081,0,0,0,5.067,5.065Z" transform="translate(-104.448 -161.362)" fill="#f6c810" fill-rule="evenodd"/>
            <path id="Trazado_1220373" data-name="Trazado 1220373" d="M666.911,145.174Zm2.86-10.892a5.5,5.5,0,1,1-1.612,3.891,5.483,5.483,0,0,1,1.612-3.891Zm1.188-5.455a9.718,9.718,0,0,0-4.049,2.345.338.338,0,0,1-.4.048l-2.557-1.477-.015-.007a.637.637,0,0,0-.85.241l-.011.017-1.8,3.115a.627.627,0,0,0-.062.483.641.641,0,0,0,.294.385l.017.011,2.537,1.465a.338.338,0,0,1,.16.372h0a9.619,9.619,0,0,0-.214,1.163,9.886,9.886,0,0,0,0,2.371,9.668,9.668,0,0,0,.214,1.163.338.338,0,0,1-.179.384l-2.536,1.464h0a.637.637,0,0,0-.294.386.622.622,0,0,0,.062.481l1.809,3.133h0a.637.637,0,0,0,.866.232l.018-.009,2.54-1.466a.341.341,0,0,1,.4.048A9.719,9.719,0,0,0,668.8,146.6a9.6,9.6,0,0,0,2.172.922.341.341,0,0,1,.245.326v2.949a.633.633,0,0,0,.633.633h3.619a.633.633,0,0,0,.632-.633v-2.949a.339.339,0,0,1,.261-.329,9.585,9.585,0,0,0,2.156-.92,9.706,9.706,0,0,0,1.893-1.426.34.34,0,0,1,.42-.037l2.54,1.466a.639.639,0,0,0,.866-.232l.011-.018,1.8-3.116h0a.623.623,0,0,0,.062-.479.63.63,0,0,0-.292-.386l-2.556-1.475a.338.338,0,0,1-.16-.373h0a9.642,9.642,0,0,0,.213-1.163,9.827,9.827,0,0,0-.213-3.534.335.335,0,0,1,.178-.382l2.538-1.465a.629.629,0,0,0,.292-.385.621.621,0,0,0-.062-.48l-.009-.019-1.8-3.117h0a.623.623,0,0,0-.386-.294.631.631,0,0,0-.48.061h0l-2.558,1.477a.336.336,0,0,1-.409-.055,9.762,9.762,0,0,0-1.886-1.419,9.608,9.608,0,0,0-2.17-.923.34.34,0,0,1-.247-.324v-2.95a.632.632,0,0,0-.632-.633h-3.618a.632.632,0,0,0-.633.633v2.95A.339.339,0,0,1,670.96,128.827Z" transform="translate(-610.805 -73.14)" fill="#dcd7eb" fill-rule="evenodd"/>
            <path id="Trazado_1220374" data-name="Trazado 1220374" d="M598.312,58.312a13.535,13.535,0,1,1-2.941,4.4,13.573,13.573,0,0,1,2.941-4.4Zm4.88-1.785a12.363,12.363,0,1,0,4.7-.93,12.328,12.328,0,0,0-4.7.93Zm-1.5-9.973a21.82,21.82,0,0,0-2.5.89,22.2,22.2,0,0,0-4.66,2.7,22.334,22.334,0,0,0-2.064,1.762,1.419,1.419,0,0,1-1.7.2c-1.99-1.149-4.083-2.286-6.033-3.484a.821.821,0,0,0-.292-.09.879.879,0,0,0-.334.026.9.9,0,0,0-.3.149.857.857,0,0,0-.22.25c-1.451,2.2-2.907,5.031-4.251,7.36a.827.827,0,0,0-.106.313.9.9,0,0,0,.025.343.868.868,0,0,0,.15.3.825.825,0,0,0,.25.22c1.791,1.184,4.1,2.368,6,3.464a1.406,1.406,0,0,1,.6.671,1.453,1.453,0,0,1,.09.3l.123.042-.138.559c-.109.44-.2.88-.285,1.317s-.146.872-.2,1.337-.1.9-.123,1.348-.039.89-.039,1.363.014.928.039,1.361.069.9.123,1.35.126.91.2,1.337.176.878.285,1.318a1.417,1.417,0,0,1-.731,1.6l-5.311,3.066,0,0-.629.363a.858.858,0,0,0-.25.22.869.869,0,0,0-.149.306.9.9,0,0,0-.026.343.836.836,0,0,0,.106.312l3.931,6.811h0l.318.549a.866.866,0,0,0,.22.251.882.882,0,0,0,.3.148.893.893,0,0,0,.342.026.857.857,0,0,0,.311-.106c1.9-1.195,4.048-2.334,6.008-3.468a1.417,1.417,0,0,1,1.69.2l0,0a22.437,22.437,0,0,0,2.066,1.763,22.156,22.156,0,0,0,2.259,1.5,22,22,0,0,0,4.957,2.106,1.42,1.42,0,0,1,1.031,1.367l0,6.928a.813.813,0,0,0,.065.326.86.86,0,0,0,.189.28.838.838,0,0,0,.28.189.827.827,0,0,0,.326.065h8.5a.822.822,0,0,0,.325-.065.882.882,0,0,0,.281-.188.914.914,0,0,0,.189-.281.853.853,0,0,0,.064-.326V90.624a1.432,1.432,0,0,1,1.093-1.383,21.592,21.592,0,0,0,2.5-.89,22.125,22.125,0,0,0,4.66-2.7,22.511,22.511,0,0,0,2.065-1.762,1.423,1.423,0,0,1,1.767-.162l5.931,3.425a.835.835,0,0,0,.313.105.878.878,0,0,0,.343-.026.864.864,0,0,0,.306-.148.85.85,0,0,0,.219-.251c1.409-2.457,2.84-4.9,4.25-7.361a.852.852,0,0,0,.106-.313.914.914,0,0,0-.025-.342.88.88,0,0,0-.148-.306.835.835,0,0,0-.244-.219l-6-3.464a1.415,1.415,0,0,1-.6-.671,1.375,1.375,0,0,1-.075-.228l-.158-.031.159-.637c.108-.439.2-.88.284-1.317s.147-.874.2-1.338.1-.9.123-1.349.04-.888.04-1.362-.013-.928-.04-1.362-.067-.894-.123-1.347c-.058-.471-.124-.92-.2-1.341-.08-.437-.175-.876-.284-1.315a1.406,1.406,0,0,1,.09-.938,1.427,1.427,0,0,1,.639-.663l5.942-3.432a.78.78,0,0,0,.248-.219.862.862,0,0,0,.148-.306.908.908,0,0,0,.025-.341.848.848,0,0,0-.106-.314c-1.451-2.158-2.9-5.041-4.25-7.361a.845.845,0,0,0-.22-.25.875.875,0,0,0-.306-.149.9.9,0,0,0-.341-.026.861.861,0,0,0-.314.107l-6,3.466a1.4,1.4,0,0,1-.9.18,1.425,1.425,0,0,1-.811-.4A22.219,22.219,0,0,0,619,48.646a22.213,22.213,0,0,0-2.416-1.205,21.94,21.94,0,0,0-2.542-.9,1.405,1.405,0,0,1-.743-.509,1.434,1.434,0,0,1-.288-.858l0-6.929a.855.855,0,0,0-.064-.326.9.9,0,0,0-.19-.278.842.842,0,0,0-.605-.254h-8.5a.847.847,0,0,0-.326.064.869.869,0,0,0-.534.794v6.929a1.417,1.417,0,0,1-.306.879,1.453,1.453,0,0,1-.789.5Zm-2.988-.263a23.213,23.213,0,0,0-2.535,1.267A23.5,23.5,0,0,0,591.6,51a.157.157,0,0,1-.1.044.161.161,0,0,1-.1-.019q-3.027-1.747-6.056-3.5a2.069,2.069,0,0,0-.757-.238,2.175,2.175,0,0,0-.8.059,2.145,2.145,0,0,0-.74.366,2.06,2.06,0,0,0-.544.618c-1.464,2.369-2.852,4.936-4.251,7.359a2.08,2.08,0,0,0-.264.784,2.129,2.129,0,0,0,.419,1.566,2.1,2.1,0,0,0,.619.543c1.929,1.193,4.025,2.325,6,3.466a.155.155,0,0,1,.068.078.157.157,0,0,1,.009.1l-.137.559.009,0q-.09.406-.167.83-.133.72-.218,1.416c-.055.46-.1.933-.127,1.422s-.043.968-.043,1.436.015.945.043,1.435.073.963.127,1.423.13.935.218,1.414.188.942.3,1.393a.153.153,0,0,1-.012.109.16.16,0,0,1-.074.08c-2.2,1.179-4.443,2.563-6.624,3.822l.079.1-.068.083A2.123,2.123,0,0,0,578,79.316a2.074,2.074,0,0,0,.264.782l4.568,7.912.085-.051c.045.041.093.081.141.117a2.119,2.119,0,0,0,1.563.42,2.122,2.122,0,0,0,.761-.251c2-1.06,4.056-2.341,6.029-3.48a.159.159,0,0,1,.1-.018.177.177,0,0,1,.1.045,23.46,23.46,0,0,0,4.562,3.439,23.4,23.4,0,0,0,5.241,2.228.158.158,0,0,1,.088.059.155.155,0,0,1,.035.1v6.928a2.106,2.106,0,0,0,.623,1.492,2.137,2.137,0,0,0,.683.459,2.084,2.084,0,0,0,.807.163h8.5a2.086,2.086,0,0,0,.807-.163,2.171,2.171,0,0,0,.687-.459,2.136,2.136,0,0,0,.458-.687,2.08,2.08,0,0,0,.163-.806V90.618a.17.17,0,0,1,.033-.1.164.164,0,0,1,.094-.057l.028-.01a23.384,23.384,0,0,0,7.595-3.8,23.942,23.942,0,0,0,2.179-1.861.153.153,0,0,1,.1-.046.17.17,0,0,1,.107.027l6,3.463a2.108,2.108,0,0,0,.779.263,2.168,2.168,0,0,0,.823-.055,2.13,2.13,0,0,0,.741-.365,2.073,2.073,0,0,0,.534-.6c1.578-2.534,3.066-5.311,4.57-7.914l-.081-.048c.015-.067.028-.133.037-.2a2.166,2.166,0,0,0-.056-.822,2.093,2.093,0,0,0-.364-.74,2.056,2.056,0,0,0-.617-.543l-6-3.464a.173.173,0,0,1-.078-.186l.156-.635-.009,0c.053-.247.1-.5.151-.752.087-.479.16-.952.216-1.416s.1-.936.128-1.424.045-.968.045-1.435-.015-.945-.045-1.435-.073-.963-.128-1.426-.129-.932-.216-1.416-.189-.939-.3-1.388a.161.161,0,0,1,.012-.111.172.172,0,0,1,.076-.078l5.993-3.46a2.049,2.049,0,0,0,.616-.544,2.123,2.123,0,0,0,.166-2.326c-1.43-2.646-3.067-5.313-4.578-7.931l-.086.051a1.487,1.487,0,0,0-.141-.117,2.117,2.117,0,0,0-1.562-.42,2.092,2.092,0,0,0-.78.259l-.444.255v.005l-5.566,3.212a.169.169,0,0,1-.106.021.159.159,0,0,1-.095-.047l-.015-.015A23.37,23.37,0,0,0,622,49.132a23.657,23.657,0,0,0-2.375-1.574,23.478,23.478,0,0,0-5.24-2.228.161.161,0,0,1-.088-.057.157.157,0,0,1-.033-.1V38.242a2.121,2.121,0,0,0-.623-1.493,2.137,2.137,0,0,0-.684-.458,2.074,2.074,0,0,0-.807-.162h-8.5a2.071,2.071,0,0,0-.807.162,2.161,2.161,0,0,0-.687.458,2.112,2.112,0,0,0-.621,1.493V45.17a.188.188,0,0,1-.035.105.175.175,0,0,1-.093.058l-.027.01A23.225,23.225,0,0,0,598.7,46.292Z" transform="translate(-577.979 -36.128)" fill="#dcd7eb" fill-rule="evenodd"/>
            <path id="Trazado_1220375" data-name="Trazado 1220375" d="M294.507,144.548H254.671c-2.559,6.566-5.294,15.942-5.249,17.667-.25,2.868,1.442,7.1,5.2,11.926,1.277,6.234,6.723,16.92,7.077,18.87.163.9,2.842,1.988,6.62,2.718a5.162,5.162,0,0,1-.414,1.367s-18.078-8.413-27.378-10.031a20.24,20.24,0,0,0-19,6.6c-3.468,3.777-26.165,38.527-33.535,50.863-.467.867-.478,1.343.462,2.046,6.046,2.746,7.905,6.2,11.392,9.586h11.348c8.976-14.514,14.645-35.85,17.816-40.288,3.519-4.93,4.785-4.538,7.413-3.8s24.37,15.209,28,15.209h11.389c11.2,0,17.452-12.965,18.531-18.625.925-4.855-.422-13.563-.826-15.939.249-.136.478-.273.686-.408.385-.639.641-1.375.513-1.614h0a10.843,10.843,0,0,0,5.886-7.9c.91-7.851,1.015-22.739-3.066-32.739A23.35,23.35,0,0,0,294.507,144.548Z" transform="translate(19.227 -72.19)" fill="#dfdaec" fill-rule="evenodd"/>
            <path id="Trazado_1220376" data-name="Trazado 1220376" d="M308.25,323.79H292.609v33.635a4.945,4.945,0,0,0,4.929,4.931h16.685Z" transform="translate(-63.909 -131.81)" fill="#cbd5e9" fill-rule="evenodd"/>
            <path id="Trazado_1220377" data-name="Trazado 1220377" d="M172.038,345.323h94.352a7.752,7.752,0,0,0,7.73-7.731V322.774H172.037v22.549Z" transform="translate(56.662 -131.472)" fill="#ebeff8" fill-rule="evenodd"/>
            <path id="Trazado_1220378" data-name="Trazado 1220378" d="M183.015,300.414h94.756V277.576H187.944a4.945,4.945,0,0,0-4.929,4.931Z" transform="translate(45.685 -116.438)" fill="#ebeff8" fill-rule="evenodd"/>
            <g id="Grupo_1231144" data-name="Grupo 1231144" transform="translate(233.089 155.096)">
              <path id="Trazado_1220379" data-name="Trazado 1220379" d="M254.738,268.523H146a4.765,4.765,0,0,0-4.752,4.752v62.105A4.766,4.766,0,0,0,146,340.132H254.738a4.766,4.766,0,0,0,4.752-4.752V273.275A4.767,4.767,0,0,0,254.738,268.523Z" transform="translate(-141.251 -268.523)" fill="#fae3ea" fill-rule="evenodd"/>
              <path id="Trazado_1220380" data-name="Trazado 1220380" d="M165.8,295.444a3.215,3.215,0,0,0-2.274,5.487l0,0a3.214,3.214,0,1,0,2.27-5.49Zm12.277-8.26a1.421,1.421,0,0,0,2.079-1.937,19.636,19.636,0,0,0-28.711,0,1.421,1.421,0,1,0,2.079,1.937,16.787,16.787,0,0,1,24.553,0Zm-3.738,3.492a11.673,11.673,0,0,0-17.08,0,1.421,1.421,0,0,1-2.079-1.938,14.526,14.526,0,0,1,21.237,0,1.421,1.421,0,0,1-2.078,1.938Zm-4.28,4a1.421,1.421,0,1,0,2.08-1.937,8.673,8.673,0,0,0-12.679,0,1.421,1.421,0,1,0,2.079,1.937,5.823,5.823,0,0,1,8.52,0Z" transform="translate(-68.846 -272.011)" fill="#9b6c96" fill-rule="evenodd"/>
              <path id="Trazado_1220381" data-name="Trazado 1220381" d="M265.473,278.67H253.788a1.115,1.115,0,0,0-1.115,1.113h0a1.115,1.115,0,0,0,1.115,1.112h11.685a1.115,1.115,0,0,0,1.114-1.112h0a1.115,1.115,0,0,0-1.114-1.113Zm0,23.521h-15.4a1.115,1.115,0,0,1-1.113-1.112h0a1.115,1.115,0,0,1,1.113-1.113h15.4a1.115,1.115,0,0,1,1.114,1.113h0a1.115,1.115,0,0,1-1.114,1.112Zm0-4.9h-6.935a1.116,1.116,0,0,1-1.114-1.113h0a1.115,1.115,0,0,1,1.114-1.114h6.935a1.116,1.116,0,0,1,1.114,1.114h0a1.117,1.117,0,0,1-1.114,1.113Zm-18.828-10.017h-2.5a1.115,1.115,0,0,1-1.112-1.113h0a1.114,1.114,0,0,1,1.112-1.112h2.5a1.115,1.115,0,0,1,1.113,1.112h0a1.115,1.115,0,0,1-1.113,1.113Zm18.828,0H250.967a1.115,1.115,0,0,1-1.113-1.113h0a1.115,1.115,0,0,1,1.113-1.112h14.506a1.115,1.115,0,0,1,1.114,1.112h0a1.116,1.116,0,0,1-1.114,1.113Zm0,4.9h-10.5a1.114,1.114,0,0,1-1.113-1.111h0a1.116,1.116,0,0,1,1.113-1.114h10.5a1.116,1.116,0,0,1,1.114,1.114h0a1.115,1.115,0,0,1-1.114,1.111Zm-15.655-13.5H248.11A1.114,1.114,0,0,0,247,279.783h0a1.114,1.114,0,0,0,1.113,1.112h1.707a1.115,1.115,0,0,0,1.113-1.112h0A1.114,1.114,0,0,0,249.818,278.67Z" transform="translate(-216.273 -271.898)" fill="#ed806a" fill-rule="evenodd"/>
              <path id="Trazado_1220382" data-name="Trazado 1220382" d="M224.432,302.191H212.745a1.115,1.115,0,0,1-1.113-1.112h0a1.114,1.114,0,0,1,1.113-1.113h11.687a1.115,1.115,0,0,1,1.113,1.113h0a1.115,1.115,0,0,1-1.113,1.112Zm0-23.521h-15.4a1.114,1.114,0,0,0-1.112,1.113h0a1.115,1.115,0,0,0,1.112,1.113h15.4a1.116,1.116,0,0,0,1.113-1.113h0a1.115,1.115,0,0,0-1.113-1.113Zm0,4.9h-6.937a1.115,1.115,0,0,0-1.113,1.113h0a1.115,1.115,0,0,0,1.113,1.113h6.937a1.116,1.116,0,0,0,1.113-1.113h0a1.116,1.116,0,0,0-1.113-1.113ZM205.6,293.584H203.1a1.114,1.114,0,0,0-1.113,1.113h0a1.115,1.115,0,0,0,1.113,1.112H205.6a1.115,1.115,0,0,0,1.113-1.112h0a1.114,1.114,0,0,0-1.113-1.113Zm18.828,0H209.926a1.115,1.115,0,0,0-1.113,1.113h0a1.115,1.115,0,0,0,1.113,1.112h14.506a1.116,1.116,0,0,0,1.113-1.112h0a1.115,1.115,0,0,0-1.113-1.113Zm0-4.9h-10.5a1.114,1.114,0,0,0-1.113,1.111h0a1.115,1.115,0,0,0,1.113,1.113h10.5a1.116,1.116,0,0,0,1.113-1.113h0a1.115,1.115,0,0,0-1.113-1.111Zm-15.656,13.5h-1.708a1.115,1.115,0,0,1-1.113-1.112h0a1.114,1.114,0,0,1,1.113-1.113h1.708a1.114,1.114,0,0,1,1.113,1.113h0A1.114,1.114,0,0,1,208.776,302.191Z" transform="translate(-147.839 -271.898)" fill="#ed806a" fill-rule="evenodd"/>
              <path id="Trazado_1220383" data-name="Trazado 1220383" d="M177.736,323.4H154.2a2.641,2.641,0,0,0-2.633,2.634v22.385a2.642,2.642,0,0,0,2.633,2.634h23.539a2.641,2.641,0,0,0,2.633-2.634V326.034A2.641,2.641,0,0,0,177.736,323.4Z" transform="translate(-69.014 -286.776)" fill="#fff" fill-rule="evenodd"/>
              <g id="Grupo_1231143" data-name="Grupo 1231143" transform="translate(85.824 39.319)">
                <path id="Trazado_1220384" data-name="Trazado 1220384" d="M167.6,349.7a11.131,11.131,0,1,1,11.13-11.13A11.152,11.152,0,0,1,167.6,349.7Z" transform="translate(-156.467 -327.438)" fill="#dbd7eb" fill-rule="evenodd"/>
                <path id="Trazado_1220385" data-name="Trazado 1220385" d="M164.518,347.465a9.295,9.295,0,0,0,11.514,0,5.778,5.778,0,0,0-5.757-5.571h0a5.778,5.778,0,0,0-5.757,5.571Zm5.757-15.216a4.135,4.135,0,1,0,4.134,4.135A4.135,4.135,0,0,0,170.275,332.249Z" transform="translate(-159.145 -329.038)" fill="#fff" fill-rule="evenodd"/>
              </g>
              <path id="Trazado_1220386" data-name="Trazado 1220386" d="M241.222,350.017H212.745a1.115,1.115,0,0,1-1.113-1.112h0a1.115,1.115,0,0,1,1.113-1.114h28.477a1.117,1.117,0,0,1,1.113,1.114h0a1.115,1.115,0,0,1-1.113,1.112Zm0-23.521H209.035a1.114,1.114,0,0,0-1.113,1.113h0a1.114,1.114,0,0,0,1.113,1.112h32.187a1.116,1.116,0,0,0,1.113-1.112h0a1.115,1.115,0,0,0-1.113-1.113Zm0,4.9H217.495a1.116,1.116,0,0,0-1.113,1.113h0a1.115,1.115,0,0,0,1.113,1.113h23.727a1.117,1.117,0,0,0,1.113-1.113h0a1.116,1.116,0,0,0-1.113-1.113ZM205.6,341.409H203.1a1.116,1.116,0,0,0-1.113,1.114h0a1.115,1.115,0,0,0,1.113,1.112H205.6a1.114,1.114,0,0,0,1.113-1.112h0a1.116,1.116,0,0,0-1.113-1.114Zm35.618,0h-31.3a1.115,1.115,0,0,0-1.113,1.114h0a1.114,1.114,0,0,0,1.113,1.112h31.3a1.116,1.116,0,0,0,1.113-1.112h0a1.116,1.116,0,0,0-1.113-1.114Zm0-4.9h-27.29a1.114,1.114,0,0,0-1.112,1.111h0a1.116,1.116,0,0,0,1.112,1.115h27.29a1.117,1.117,0,0,0,1.113-1.115h0a1.115,1.115,0,0,0-1.113-1.111Zm-32.446,13.5h-1.707a1.114,1.114,0,0,1-1.112-1.112h0a1.116,1.116,0,0,1,1.113-1.114h1.707a1.116,1.116,0,0,1,1.113,1.114h0A1.115,1.115,0,0,1,208.776,350.017Z" transform="translate(-164.629 -287.806)" fill="#dd87a2" fill-rule="evenodd"/>
            </g>
            <path id="Trazado_1220387" data-name="Trazado 1220387" d="M285.807,268.523H228.931a4.693,4.693,0,0,0-1.963.428l-.014.343c-.52,1.059-1.057,2.172-1.615,3.352q-.595,1.257-1.159,2.434v17.01c1.117-2.146,2.174-4.366,3.174-6.6.48,14.448-.175,32.978.077,41.629.065.892.406,1.014,1.341,1.1.212,2.048.414,4.215.476,5.567a39,39,0,0,1-.685,6.338c.121.01.246.014.368.014h13.344a25.468,25.468,0,0,0-.713-5.435,13.972,13.972,0,0,0-1.838-3.165,4.229,4.229,0,0,0-.906.218,18.885,18.885,0,0,1-2.242-3.25c4.279.992,7.431,3.059,14.277,2.4a1.3,1.3,0,0,0,1.536-1.032c-.126-27.124-8.486-34.477-8.073-54.831.059-2.961.525-6.513,4.349-6.513h37.143Zm-46.965,63.258.458.525C239.179,332.172,239.023,331.994,238.842,331.781Z" transform="translate(10.175 -113.427)" fill="#e1b4c6" fill-rule="evenodd"/>
            <g id="Grupo_1231150" data-name="Grupo 1231150" transform="translate(183.117 17.353)">
              <g id="Grupo_1231145" data-name="Grupo 1231145" transform="translate(0 155.428)">
                <path id="Trazado_1220388" data-name="Trazado 1220388" d="M367.5,295.022c-1.281,1.956-3.067,4.637-4.112,6.026-1.765,2.345-9.283,8.34-9.764,8.737s-2.757.275-3.223.127,2.531,4.138,2.531,4.138l4.2,1.67,13.2-7.6,1.071-1.86s-.327-3.856.808-6.377a26.976,26.976,0,0,1,1.628-2.431C371.93,296.714,369.761,295.876,367.5,295.022Z" transform="translate(-345.173 -295.022)" fill="#f4ad85" fill-rule="evenodd"/>
                <path id="Trazado_1220389" data-name="Trazado 1220389" d="M372.152,297.691c-1,1.341-1.624,2.172-1.732,2.294-.772.89-.061.858-.14,1.211s-.637,3.316-.811,4.042-11.4,8.266-12.077,8.592-1.618-.007-2.527-.8l-2.421-2.1a8.243,8.243,0,0,1-2.041-.132c-.466-.149,2.531,4.138,2.531,4.138l4.2,1.67,13.2-7.6,1.071-1.86s-.327-3.855.807-6.377a26.823,26.823,0,0,1,1.628-2.431Z" transform="translate(-345.175 -295.91)" fill="#ef8871" fill-rule="evenodd"/>
                <path id="Trazado_1220390" data-name="Trazado 1220390" d="M368.289,321.848l.176,1.013-8.321,9.583-1.008-.877s3.558-4.1,4.435-5.107a3.578,3.578,0,0,0,.628-3.506C363.748,322.258,368.289,321.848,368.289,321.848Z" transform="translate(-345.667 -303.945)" fill="#03061e" fill-rule="evenodd"/>
                <path id="Trazado_1220391" data-name="Trazado 1220391" d="M359.04,315.112a1.588,1.588,0,0,0,.133.876,20.873,20.873,0,0,0,3.395,3.221c.72.387,1.738.862,4.457-.86s11.811-7.2,12.048-7.385l-.019-.677a3.873,3.873,0,0,1,.769.377,12.76,12.76,0,0,1-.549,3.316,20.885,20.885,0,0,1-3.294,4.933c-.611.389-2.878-.29-7.362,1.738s-5.47,4.3-8.321,1.824l-6.75-5.862a1.624,1.624,0,0,1-.311-2.346c.4-.3,2.327-.055,4.707.242A2.3,2.3,0,0,1,359.04,315.112Z" transform="translate(-352.872 -300.099)" fill="#03061e" fill-rule="evenodd"/>
              </g>
              <g id="Grupo_1231146" data-name="Grupo 1231146" transform="translate(42.718 192.749)">
                <path id="Trazado_1220392" data-name="Trazado 1220392" d="M303.254,353.287c.28,2.53.64,6.017.727,7.908.143,3.192-2.013,13.432-2.141,14.1s-2.123,2.142-2.617,2.34,4.991,1.718,4.991,1.718l4.681-1.507,5.813-15.52-.39-2.3s-2.947-3.009-3.742-5.91a29.652,29.652,0,0,1-.32-3.169C308.142,351.637,305.741,352.438,303.254,353.287Z" transform="translate(-294.621 -350.944)" fill="#f4ad85" fill-rule="evenodd"/>
                <path id="Trazado_1220393" data-name="Trazado 1220393" d="M308.392,351.559c.092,1.819.142,2.949.138,3.126-.031,1.282.543.762.721,1.114s1.764,3.224,2.12,3.954-3.843,14.842-4.182,15.583-1.363,1.116-2.672,1.082l-3.488-.086a9,9,0,0,1-1.8,1.3c-.5.2,4.991,1.718,4.991,1.718l4.681-1.507,5.813-15.52-.39-2.3s-2.947-3.009-3.742-5.91a29.476,29.476,0,0,1-.32-3.169Z" transform="translate(-294.624 -350.944)" fill="#ef8871" fill-rule="evenodd"/>
                <path id="Trazado_1220394" data-name="Trazado 1220394" d="M298.922,376.665l.85.727-.343,13.811-1.454-.037s.147-5.907.184-7.36a3.894,3.894,0,0,0-1.9-3.377C295.4,380.157,298.922,376.665,298.922,376.665Z" transform="translate(-277.635 -359.499)" fill="#03061e" fill-rule="evenodd"/>
                <path id="Trazado_1220395" data-name="Trazado 1220395" d="M301.216,381.076a1.716,1.716,0,0,0,.719.642,22.562,22.562,0,0,0,5.081.35c.87-.174,2.054-.481,3.143-3.811s4.922-14.23,4.995-14.548l-.487-.555a4.243,4.243,0,0,1,.908-.217,13.947,13.947,0,0,1,1.838,3.165,22.716,22.716,0,0,1,.653,6.422c-.242.749-2.617,1.752-4.975,6.561s-1.61,7.4-5.72,7.3l-9.728-.242a1.768,1.768,0,0,1-1.886-1.753c.124-.529,1.916-1.659,4.117-3.06A2.528,2.528,0,0,1,301.216,381.076Z" transform="translate(-295.742 -354.933)" fill="#03061e" fill-rule="evenodd"/>
              </g>
              <g id="Grupo_1231147" data-name="Grupo 1231147" transform="translate(86.193 16.344)">
                <path id="Trazado_1220396" data-name="Trazado 1220396" d="M259.529,105.132a.267.267,0,1,0-.484-.224c-.013.029-4.811,10.116,2.44,16.453a.267.267,0,1,0,.351-.4C254.89,114.888,259.517,105.159,259.529,105.132Z" transform="translate(-257.477 -92.651)" fill="#081033" fill-rule="evenodd"/>
                <path id="Trazado_1220397" data-name="Trazado 1220397" d="M231.173,86.619l5.051,4.293a17.875,17.875,0,0,0-.789,8.912c.845,4.889,20.936,30-9.7,33.81s-15.643-14.184-15.643-14.184-10.523-1.966-7.31-17.25S231.173,86.619,231.173,86.619Z" transform="translate(-201.319 -86.619)" fill="#081033" fill-rule="evenodd"/>
                <path id="Trazado_1220398" data-name="Trazado 1220398" d="M218.232,124.588c.154-.2.246-.312.246-.312a6.629,6.629,0,0,1-.968-.29,27.691,27.691,0,0,1-3.062-3.117c-5.014-5.952-1.722-15.452-1.722-15.452l2.272-1.01s4.488-2.292,5.7-2.878,15.936-1.557,21.085,5.7,1.993,19.157,1.993,19.157-17.3,1.668-18.288,1.724C224.745,128.157,221.773,127.421,218.232,124.588Z" transform="translate(-209.706 -91.446)" fill="#03061e" fill-rule="evenodd"/>
                <path id="Trazado_1220399" data-name="Trazado 1220399" d="M203.454,102.755a.267.267,0,1,0-.409.342c.034.043,12.645,15.007,5.577,25.591a.267.267,0,0,0,.444.3C216.357,118.064,203.491,102.8,203.454,102.755Z" transform="translate(-170.483 -91.954)" fill="#081033" fill-rule="evenodd"/>
              </g>
              <path id="Trazado_1220400" data-name="Trazado 1220400" d="M253.705,243.577l-2.02,5.651H225.947c-3.823,0-4.291,3.552-4.349,6.513-.414,20.354,7.947,27.707,8.073,54.831a1.3,1.3,0,0,1-1.536,1.032c-8.677.835-11.419-2.707-18.042-2.893h-1.083a23.521,23.521,0,0,0-2.65.23c-1.17-.088-1.575-.136-1.648-1.119-.281-9.69.574-31.777-.3-46.635-1.6-27.109,4.812-34.6,17.446-40.275,6.41-2.88,17.787-4.014,22.03-4.858,1.592-.317,2.944-5.547,2.944-5.547l8.991,3.613,5.435,2.609,17.411-3.458,2.008.779a37.878,37.878,0,0,1-4.758,13.211C272.2,233.082,253.705,243.577,253.705,243.577Z" transform="translate(-154.455 -111.483)" fill="#03061e" fill-rule="evenodd"/>
              <path id="Trazado_1220401" data-name="Trazado 1220401" d="M305.5,331.4c-.026-9,.343-23.087.048-35.012a5.459,5.459,0,0,1,2.509-2.071c1.614-.311,4.407,14.333,5.647,23.392C314.753,325.363,311.369,330.626,305.5,331.4Z" transform="translate(-255.3 -139.357)" fill="#081033" fill-rule="evenodd"/>
              <path id="Trazado_1220402" data-name="Trazado 1220402" d="M308.028,213.13s2.008,10.894.93,16.553-7.328,18.625-18.531,18.625H279.039c-3.629,0-25.37-14.467-28-15.209s-3.894-1.132-7.413,3.8-10.121,30.684-20.9,44.808a1.3,1.3,0,0,1-1.851.043c-9.076-4.63-8.977-10.14-17.8-14.149-.938-.7-.929-1.18-.462-2.046,7.371-12.335,30.068-47.085,33.537-50.863a20.236,20.236,0,0,1,19-6.6c9.3,1.617,27.378,10.031,27.378,10.031a18.411,18.411,0,0,0,.557-1.855C287.27,216.606,302.846,217.82,308.028,213.13Z" transform="translate(-181.807 -110.565)" fill="#0d1947" fill-rule="evenodd"/>
              <path id="Trazado_1220403" data-name="Trazado 1220403" d="M229.683,220.546c2.06-2.962,3.6-5.073,4.32-5.854a20.233,20.233,0,0,1,19-6.6c9.3,1.617,27.379,10.029,27.379,10.029a18.418,18.418,0,0,0,.556-1.854c1.215.1,3.391.272,5.992.352l1.926,3.266-1.15,1.418-1.067,1.316s-5.635-4.586-12.254-4.586H235.71C232.581,218.029,229.715,220.52,229.683,220.546Z" transform="translate(-179.666 -110.565)" fill="#081033" fill-rule="evenodd"/>
              <path id="Trazado_1220404" data-name="Trazado 1220404" d="M296.432,215.814s2.008,10.894.93,16.553-7.328,18.625-18.531,18.625H267.442c-3.629,0-25.37-14.467-28-15.209s-3.894-1.132-7.413,3.8-10.121,30.684-20.9,44.808a1.3,1.3,0,0,1-1.851.043,25.565,25.565,0,0,1-6.979-5.13c4.43-1.7,8.356-7.861,16.081-24.19,10.921-23.082,14.272-22.275,14.334-24.571s-.808-8.314.248-7.01,17.561,9.865,28.854,13.039,17.434-6.277,16.317-9.628-7.2-6.143-7.2-6.143a18.41,18.41,0,0,0,.557-1.855C275.674,219.289,291.25,220.5,296.432,215.814Z" transform="translate(-170.211 -113.248)" fill="#081033" fill-rule="evenodd"/>
              <path id="Trazado_1220405" data-name="Trazado 1220405" d="M208.481,277.9c-.313-.348-.627-.7-.947-1.04,8.914-7.7,14.672-19.8,19.054-29a99.113,99.113,0,0,1,4.885-9.49l.952-1.506c5.707-9.064,8.32-13.21,16.58-10.957,2.4.653,6.273,2.961,10.884,5.7,11.439,6.808,27.522,16.382,34.98,9.112,7.3-7.114,6.642-16.608,5.527-21.828.463-.139.908-.29,1.333-.456,1.193,5.481,1.96,15.647-5.883,23.29-8.226,8.018-24.85-1.877-36.672-8.914-4.519-2.69-8.318-4.951-10.537-5.557-7.257-1.979-9.7,1.891-15.024,10.352l-.952,1.506a99.081,99.081,0,0,0-4.8,9.341C223.422,257.773,217.6,270.011,208.481,277.9Z" transform="translate(-178.501 -114.119)" fill="#dbd7eb" fill-rule="evenodd"/>
              <path id="Trazado_1220406" data-name="Trazado 1220406" d="M207.535,226.449a7.856,7.856,0,0,1,2.141-.9c.577.346,1.281.749,2.1,1.2a7.219,7.219,0,0,0-4.138,1.419c-.039-.593-.078-1.182-.1-1.719Zm29.356,11c9.416,4.962,19.355,8.542,24.761,3.273,7.3-7.114,6.642-16.608,5.527-21.828.463-.139.908-.29,1.333-.456,1.193,5.481,1.96,15.647-5.883,23.29-7.4,7.214-21.6-.075-32.989-6.735,2.514.966,4.986,1.82,7.248,2.455Z" transform="translate(-145.286 -114.119)" fill="#938aad" fill-rule="evenodd"/>
              <path id="Trazado_1220407" data-name="Trazado 1220407" d="M286.082,135.137a54.5,54.5,0,0,0-9.379,9.908c-5.844,7.55-16.117,20.734-16.979,21.257-1.21.735-1.824.726-3.259-.226a3.51,3.51,0,0,1-.555-.561V176.8a10.558,10.558,0,0,0,8.061-.926c2.926-1.843,16.157-12.657,16.157-12.657S290.39,140.892,286.082,135.137Z" transform="translate(-195.448 -86.413)" fill="#603460" fill-rule="evenodd"/>
              <path id="Trazado_1220408" data-name="Trazado 1220408" d="M286.24,135.715a51.367,51.367,0,0,0-8.86,9.4c-.154,4.262-3.382,16.749-3.51,18.589s-8.448,10.668-12.94,11.516a6.026,6.026,0,0,1-4.443-1.245v3.014a10.558,10.558,0,0,0,8.061-.926c2.926-1.843,16.157-12.657,16.157-12.657S290.548,141.47,286.24,135.715Z" transform="translate(-196.027 -86.606)" fill="#482749" fill-rule="evenodd"/>
              <path id="Trazado_1220409" data-name="Trazado 1220409" d="M224,131.421c-.491.042-.988.083-1.495.123l-4.022,1.018c-.009-.025-.534-.45-.534-.45l-.2.034c-1.757.6-6.084.708-7.158,1.755-2.578,2.513-8.468,21.424-8.4,23.948-.251,2.868,1.442,7.1,5.2,11.926,1.276,6.234,6.725,16.92,7.077,18.87.364,2.014,13.4,5,23.083,2.718,4.057-.956,7.571-2.205,9.417-3.414.385-.639.641-1.375.513-1.614-.216-.4-7.561-15.213-6.9-18.422.4-1.931,2.966-6.66,4.951-10.124.741-5.689,1.859-10.186,1.554-13.738-.033-.392-.067-.775-.1-1.145l-3.819-2.866,1.5-2.235s-.126-.122-.382-.336h0l0,0c-1.663-1.416-11.512-5.431-11.512-5.431l-5.224-.1C226.242,131.693,225.063,131.525,224,131.421Z" transform="translate(-119.959 -85.177)" fill="#fff" fill-rule="evenodd"/>
              <path id="Trazado_1220410" data-name="Trazado 1220410" d="M202.831,154.737a17.22,17.22,0,0,0-.639,3.372,12.75,12.75,0,0,0,1.707,6.536,55.037,55.037,0,0,1,8.45.731c14.814,2.3,21.563,3.127,22.715,5.761.957,2.186.059,14.8-2.218,21.192a30.973,30.973,0,0,0,4.706-.705c4.057-.956,7.571-2.205,9.417-3.414.385-.639.641-1.375.513-1.614-.216-.4-7.561-15.213-6.9-18.422.4-1.931,2.966-6.66,4.951-10.124.741-5.689,1.859-10.186,1.554-13.738-.033-.392-.067-.775-.1-1.145L243.16,140.3l1.5-2.235s-.126-.122-.382-.336h0l0,0c-1.663-1.416-11.512-5.431-11.512-5.431l-4.817-.091-1.2.911s9.054,7.076,9.63,7.652-3.538,15.637-4.443,17.695C231.14,160.271,214.944,161.183,202.831,154.737Z" transform="translate(-119.958 -85.438)" fill="#e4e2f1" fill-rule="evenodd"/>
              <path id="Trazado_1220411" data-name="Trazado 1220411" d="M220,132.729a1.119,1.119,0,0,1-.125.126,8.723,8.723,0,0,0,1.685,5.057c3.119,3.509,8.958,2.854,12.839,1.164a13.616,13.616,0,0,0,6.111-4.953,5.9,5.9,0,0,0,.466-.857c-1.682-.72-2.933-1.231-2.933-1.231l-5.224-.1c-1.3-.244-2.48-.412-3.547-.515-.491.042-.988.083-1.495.123l-4.022,1.018c-.009-.025-.534-.45-.534-.45l-.2.034A21,21,0,0,1,220,132.729Z" transform="translate(-125.232 -85.178)" fill="#603460" fill-rule="evenodd"/>
              <path id="Trazado_1220412" data-name="Trazado 1220412" d="M225.43,137.489a12,12,0,0,0,2.92-3.1,5.906,5.906,0,0,0,.466-.857l-.077-.035-.078-.033-.019-.007-.059-.025-.076-.032-.076-.032,0,0-.071-.03-.075-.032-.062-.026-.011,0-.073-.031-.073-.031-.047-.02-.023-.01-.071-.03-.068-.029-.032-.014-.036-.015-.069-.029-.067-.028-.019-.007-.047-.02-.064-.027-.064-.027,0,0-.058-.025-.062-.027-.055-.023-.007,0-.059-.025-.059-.025-.041-.017-.017-.007-.057-.023-.055-.024-.027-.012-.028-.011-.053-.023-.053-.021-.015-.007-.037-.014-.049-.021-.047-.02-.007,0-.041-.017-.047-.019-.041-.017h0l-.044-.018-.041-.017-.03-.012-.011-.005-.04-.016-.037-.015-.02-.009-.016-.007-.036-.015-.032-.014-.013,0-.021-.009-.031-.013-.028-.012,0,0-.023-.01-.027-.011-.024-.01h0l-.023-.009-.021-.009-.016-.007,0,0-.017-.007-.017-.006-.009,0-.007,0-.013-.005-.012,0,0,0-.005,0-.009,0-.007,0h-.007l-4.817-.091-1.2.911S222.8,135.408,225.43,137.489Z" transform="translate(-113.075 -85.439)" fill="#482749" fill-rule="evenodd"/>
              <path id="Trazado_1220413" data-name="Trazado 1220413" d="M236.8,112.4l-.057,3.4s.18,6.95.208,8.005c.017.669.866,1.387,2.268,1.9l.016.006a3.927,3.927,0,0,1-.22.384c-3.614,5.7-16.151,7.309-14.619-.3l.017-.01a3.384,3.384,0,0,0,2.457-1.2c1.128-1.3.93-6.942-.27-8.389S236.8,112.4,236.8,112.4Z" transform="translate(-126.422 -78.851)" fill="#eb6b5d" fill-rule="evenodd"/>
              <path id="Trazado_1220414" data-name="Trazado 1220414" d="M214.778,152.132c1.839,13.23,4.716,24.1,4.574,25.164-.193,1.452-.6,1.944-2.3,2.483s-23.48,2.068-23.967,2.385-.621,5.553-.248,6.187,26.65,2.122,29.962,1.346,6.578-4.718,6.992-8.275c.909-7.851,1.014-22.739-3.067-32.739C221.146,135.011,213.66,139.765,214.778,152.132Z" transform="translate(-96.384 -88.166)" fill="#603460" fill-rule="evenodd"/>
              <path id="Trazado_1220415" data-name="Trazado 1220415" d="M219.078,152.134c1.839,13.23,4.716,24.1,4.574,25.164-.193,1.452-.6,1.944-2.3,2.483a9.6,9.6,0,0,1-1.261.214h0c4.971-.515,7.618-1.73,7.288-2.058s-.987-.494-1.235-.782-3.416-15.76-4.651-26.212c-1.206-10.2,2.969-10.385,3.168-10.388-3.537-1.053-6.3,3.727-5.585,11.579Zm-18.4,29.64a28.541,28.541,0,0,0-3.288.392c-.487.318-.621,5.553-.248,6.187s26.65,2.122,29.962,1.346a9.084,9.084,0,0,0,4.637-3.158c-4.574,3.993-23.08,1.065-27.277-.294A5.889,5.889,0,0,1,200.675,181.774Z" transform="translate(-100.684 -88.167)" fill="#482749" fill-rule="evenodd"/>
              <path id="Trazado_1220416" data-name="Trazado 1220416" d="M254.313,100.911c-.1.021-.191.045-.284.073h0a3.948,3.948,0,1,0,3.349.523c.194,1.154.126,2.606-1.343,2.871l-.143-2.272A1.357,1.357,0,0,0,254.313,100.911Z" transform="translate(-164.266 -75.026)" fill="#ea745d" fill-rule="evenodd"/>
              <path id="Trazado_1220417" data-name="Trazado 1220417" d="M214.192,98.477c.1.005.195.013.292.026h0a3.949,3.949,0,1,1-3.219,1.059c-.005,1.169.3,2.591,1.791,2.615l-.227-2.266A1.355,1.355,0,0,1,214.192,98.477Z" transform="translate(-95.636 -74.22)" fill="#ea745d" fill-rule="evenodd"/>
              <path id="Trazado_1220418" data-name="Trazado 1220418" d="M229.455,70.432h0A13.554,13.554,0,0,0,217.08,85l1,12.252a13.554,13.554,0,0,0,14.568,12.374h0a13.555,13.555,0,0,0,12.374-14.566l-1-12.252A13.554,13.554,0,0,0,229.455,70.432Z" transform="translate(-127.429 -64.876)" fill="#f4ad85" fill-rule="evenodd"/>
              <path id="Trazado_1220419" data-name="Trazado 1220419" d="M229.452,70.432h0a13.56,13.56,0,0,0-12.419,13.428,5.625,5.625,0,0,0,1.022,1.808l6.027-1.679s5.681,6.808,14.336,6.885c2.327.021,3.506,2.1,3.515,4.326.017,5.412-2.816,13.785-14.237,13.9a13.378,13.378,0,0,0,4.946.52h0a13.555,13.555,0,0,0,12.374-14.566l-1-12.252A13.556,13.556,0,0,0,229.452,70.432Z" transform="translate(-127.426 -64.876)" fill="#ef8871" fill-rule="evenodd"/>
              <path id="Trazado_1220420" data-name="Trazado 1220420" d="M227.886,109.32a1.777,1.777,0,1,0,1.884,1.662A1.776,1.776,0,0,0,227.886,109.32Z" transform="translate(-118.27 -77.825)" fill="#ea745d" fill-rule="evenodd"/>
              <path id="Trazado_1220421" data-name="Trazado 1220421" d="M249.952,110.571a1.778,1.778,0,1,0,1.884,1.663A1.777,1.777,0,0,0,249.952,110.571Z" transform="translate(-155.062 -78.241)" fill="#ea745d" fill-rule="evenodd"/>
              <path id="Trazado_1220422" data-name="Trazado 1220422" d="M231.894,96.27a.507.507,0,0,0,.134-1.006,5.152,5.152,0,0,0-1.454.027,4.078,4.078,0,0,0-2.555,1.374.508.508,0,1,0,.777.654A3.491,3.491,0,0,1,231.894,96.27Z" transform="translate(-122.086 -73.138)" fill="#03061e" fill-rule="evenodd"/>
              <path id="Trazado_1220423" data-name="Trazado 1220423" d="M248.911,97.245a3.505,3.505,0,0,1,3.271.131.507.507,0,0,0,.561-.845,4.068,4.068,0,0,0-2.838-.6,5.157,5.157,0,0,0-1.4.382.508.508,0,0,0,.41.929Z" transform="translate(-156.134 -73.36)" fill="#03061e" fill-rule="evenodd"/>
              <path id="Trazado_1220424" data-name="Trazado 1220424" d="M242.689,86.734s.073.9.142,1.737,2.1,2.672,2.74,2.62l-.248-3.052a1.894,1.894,0,0,1,1.886-1.562c4.806-6.527,3.32-16.146-2.749-20.7s-18.25-3.889-20.314-3.009-3.959,4.66-3.959,4.66-1.932-1.462-3.536-.49-6.342,11.975-6.127,14.612S216.267,89,216.267,89a1.893,1.893,0,0,1,2.114,1.237l.155,1.9c.639-.053.929-.941.862-1.777l-.14-1.736c5.131-2.8,6.652-10.134,6.652-10.134S234.107,88.714,242.689,86.734Z" transform="translate(-128.081 -62.13)" fill="#081033" fill-rule="evenodd"/>
              <path id="Trazado_1220425" data-name="Trazado 1220425" d="M238.656,74.856a14.788,14.788,0,0,0-3.2-6.571c-4.469,5.328-12.544,10-23.237-4.4a8.1,8.1,0,0,0-1.177,1.185C215.6,72.579,225.831,85.21,238.656,74.856Z" transform="translate(-117.022 -62.712)" fill="#0d1947" fill-rule="evenodd"/>
              <path id="Trazado_1220426" data-name="Trazado 1220426" d="M239.915,94.01s.073.9.142,1.737,2.1,2.672,2.74,2.62l-.248-3.052a1.894,1.894,0,0,1,1.886-1.562,14.919,14.919,0,0,0,2.854-8.595c-.006.007-8.646,9.276-24.017-1.153,0,0-3.791,10.176-12.75,9.333a39.644,39.644,0,0,0,2.973,2.933,1.893,1.893,0,0,1,2.114,1.237l.156,1.9c.639-.053.929-.941.862-1.777l-.14-1.736c5.131-2.8,6.652-10.134,6.652-10.134S231.333,95.99,239.915,94.01Z" transform="translate(-125.307 -69.406)" fill="#03061e" fill-rule="evenodd"/>
              <path id="Trazado_1220427" data-name="Trazado 1220427" d="M244.335,109.721s.056,1.344-.29,1.583-1.4.219-1.113-.52a2.539,2.539,0,0,1,1.035-1.277C244.159,109.427,244.357,109.53,244.335,109.721Z" transform="translate(-143.954 -77.879)" fill="#f8cab0" fill-rule="evenodd"/>
              <g id="Grupo_1231148" data-name="Grupo 1231148" transform="translate(97.779 34.921)">
                <path id="Trazado_1220428" data-name="Trazado 1220428" d="M236.95,115.4a3.285,3.285,0,1,0,6.557-.412H243.5a.569.569,0,0,0-.6-.531l-5.414.341a.569.569,0,0,0-.531.6Z" transform="translate(-236.95 -114.455)" fill="#03061e" fill-rule="evenodd"/>
                <path id="Trazado_1220429" data-name="Trazado 1220429" d="M239.014,119.031a3.282,3.282,0,0,0,3.8-.007,2.042,2.042,0,0,0-1.95-1.09A2.071,2.071,0,0,0,239.014,119.031Z" transform="translate(-237.632 -115.612)" fill="#e4414f" fill-rule="evenodd"/>
                <path id="Trazado_1220430" data-name="Trazado 1220430" d="M242.808,114.459l-5.088.32a1.154,1.154,0,0,0,.637,1.219c.472.121,4.147-.206,4.389-.513A1.962,1.962,0,0,0,242.808,114.459Z" transform="translate(-236.786 -114.457)" fill="#fff" fill-rule="evenodd"/>
              </g>
              <path id="Trazado_1220431" data-name="Trazado 1220431" d="M228.6,101.095h0a1.31,1.31,0,0,1,.852.258.541.541,0,0,0,.34-.288.21.21,0,1,1,.382.173.9.9,0,0,1-.4.428l.011.012a.975.975,0,0,0,.528-.364.21.21,0,0,1,.34.247,1.359,1.359,0,0,1-.6.46l0,0a1.3,1.3,0,0,0,.619-.236.209.209,0,1,1,.242.342,1.674,1.674,0,0,1-.637.281l-.289.057.083,1.588a1.32,1.32,0,0,1-1.245,1.385h0a1.323,1.323,0,0,1-1.385-1.247l-.091-1.716A1.324,1.324,0,0,1,228.6,101.095Z" transform="translate(-120.248 -75.039)" fill="#03061e" fill-rule="evenodd"/>
              <path id="Trazado_1220432" data-name="Trazado 1220432" d="M251.381,102.2h0a1.308,1.308,0,0,0-.821.345.547.547,0,0,1-.369-.252.209.209,0,0,0-.286-.076.212.212,0,0,0-.076.288.915.915,0,0,0,.446.384l-.009.013a.989.989,0,0,1-.564-.308.21.21,0,1,0-.311.281,1.364,1.364,0,0,0,.639.4l0,0a1.3,1.3,0,0,1-.64-.17.21.21,0,0,0-.207.366,1.69,1.69,0,0,0,.663.213l.293.027.081,1.588a1.322,1.322,0,0,0,1.382,1.249h0a1.322,1.322,0,0,0,1.249-1.382l-.087-1.717A1.319,1.319,0,0,0,251.381,102.2Z" transform="translate(-156.6 -75.456)" fill="#03061e" fill-rule="evenodd"/>
              <g id="Grupo_1231149" data-name="Grupo 1231149" transform="translate(40.792 65.381)">
                <path id="Trazado_1220433" data-name="Trazado 1220433" d="M226.9,219.216h61.308a1.951,1.951,0,0,0,1.946-1.946h0a1.952,1.952,0,0,0-1.946-1.947H226.9a1.953,1.953,0,0,0-1.947,1.947h0A1.952,1.952,0,0,0,226.9,219.216Z" transform="translate(-218.598 -178.465)" fill="#081033" fill-rule="evenodd"/>
                <path id="Trazado_1220434" data-name="Trazado 1220434" d="M227.046,220.242h61.308a1.081,1.081,0,1,0,0-1.835H227.046a1.08,1.08,0,1,0,0,1.835Z" transform="translate(-218.744 -179.491)" fill="#03061e" fill-rule="evenodd"/>
                <path id="Trazado_1220435" data-name="Trazado 1220435" d="M251.94,196.952h49.037a2.211,2.211,0,0,0,2.233-2.547L299.3,162.643a2.975,2.975,0,0,0-2.861-2.547H247.405a2.211,2.211,0,0,0-2.234,2.547l3.909,31.762A2.972,2.972,0,0,0,251.94,196.952Z" transform="translate(-245.152 -160.096)" fill="#03061e" fill-rule="evenodd"/>
                <path id="Trazado_1220436" data-name="Trazado 1220436" d="M254.107,196.952H301.7a2.211,2.211,0,0,0,2.233-2.547l-3.91-31.762a2.974,2.974,0,0,0-2.861-2.547H249.572a2.211,2.211,0,0,0-2.234,2.547l3.91,31.762A2.972,2.972,0,0,0,254.107,196.952Z" transform="translate(-247.318 -160.096)" fill="#081033" fill-rule="evenodd"/>
                <path id="Trazado_1220437" data-name="Trazado 1220437" d="M258.923,196.952h4.9l38.653-32.447-.23-1.862a2.858,2.858,0,0,0-.671-1.493l-42.65,35.8ZM296.012,160.1l-42.165,35.395a2.779,2.779,0,0,1-.377-1.085l-.609-4.939,34.99-29.37Z" transform="translate(-249.541 -160.096)" fill="#0d1947" fill-rule="evenodd"/>
                <path id="Trazado_1220438" data-name="Trazado 1220438" d="M226.9,219.216h11.143a1.951,1.951,0,0,0,1.946-1.946h0a1.952,1.952,0,0,0-1.946-1.947H226.9a1.953,1.953,0,0,0-1.947,1.947h0A1.952,1.952,0,0,0,226.9,219.216Z" transform="translate(-168.433 -178.465)" fill="#03061e" fill-rule="evenodd"/>
                <path id="Trazado_1220439" data-name="Trazado 1220439" d="M244.267,215.81h51.015a.977.977,0,0,0,.974-.974h0a.976.976,0,0,0-.974-.973H244.267a.976.976,0,0,0-.973.973h0A.977.977,0,0,0,244.267,215.81Z" transform="translate(-236.939 -177.98)" fill="#03061e" fill-rule="evenodd"/>
                <path id="Trazado_1220440" data-name="Trazado 1220440" d="M287.542,180.373a5.554,5.554,0,0,1,5.4,4.9,4.339,4.339,0,0,1-4.395,4.9,5.552,5.552,0,0,1-5.4-4.9,4.84,4.84,0,0,1,.028-1.223,2.679,2.679,0,0,0,1.821.743,2.143,2.143,0,0,0,2.17-2.418,2.709,2.709,0,0,0-.986-1.8A4.656,4.656,0,0,1,287.542,180.373Z" transform="translate(-260.23 -166.84)" fill="#fffdf8" fill-rule="evenodd"/>
              </g>
            </g>
            <g id="Grupo_1231151" data-name="Grupo 1231151" transform="translate(25.869 82.1)">
              <path id="Trazado_1220441" data-name="Trazado 1220441" d="M523.858,175.494a14.4,14.4,0,1,0,0,28.8h12.583c.982,3.753,3.935,4.708,6.685,4.708h20.562a6.951,6.951,0,0,0,6.921-4.708h12.326a5.941,5.941,0,0,0,.454-11.865c.02-.286.031-.575.031-.866a11.825,11.825,0,0,0-16.639-10.8,20.586,20.586,0,0,0-39.428-4.84A14.354,14.354,0,0,0,523.858,175.494Z" transform="translate(-509.153 -160.47)" fill="#ccc5e1" fill-rule="evenodd"/>
              <path id="Trazado_1220442" data-name="Trazado 1220442" d="M524.32,171.513a14.4,14.4,0,1,0,0,28.8H583.4a5.941,5.941,0,0,0,.454-11.865c.019-.286.031-.574.031-.866a11.825,11.825,0,0,0-16.64-10.8,20.585,20.585,0,0,0-39.427-4.839A14.386,14.386,0,0,0,524.32,171.513Z" transform="translate(-509.921 -159.146)" fill="#fff" fill-rule="evenodd"/>
              <path id="Trazado_1220443" data-name="Trazado 1220443" d="M555.41,204.123V192.266h-4l9.2-12.851h1.54l10.739,12.851h-4v.1c0,14.032-.406,14.682,10.069,14.682h-23.2A11.534,11.534,0,0,1,555.41,204.123Z" transform="translate(-527.227 -165.888)" fill="#deeaf7" fill-rule="evenodd"/>
              <path id="Trazado_1220444" data-name="Trazado 1220444" d="M541.291,204.123V192.266h-4l10.739-12.851,10.739,12.851h-4v.1c0,14.032-.407,14.682,10.067,14.682H575.8a6.952,6.952,0,0,1-6.921,4.708H548.315c-2.75,0-5.7-.955-6.685-4.708A11.474,11.474,0,0,1,541.291,204.123Z" transform="translate(-514.648 -165.888)" fill="#e74d91" fill-rule="evenodd"/>
            </g>
            <g id="Grupo_1231153" data-name="Grupo 1231153" transform="translate(0.637 30.206)">
              <g id="Grupo_1231152" data-name="Grupo 1231152" transform="translate(123.942 191.066)">
                <path id="Trazado_1220445" data-name="Trazado 1220445" d="M421.544,387.745h-2.661a1.167,1.167,0,0,1-1.163-1.165v-2.661a1.167,1.167,0,0,1,1.163-1.163h2.661a1.167,1.167,0,0,1,1.164,1.163v2.661A1.167,1.167,0,0,1,421.544,387.745Z" transform="translate(-380.47 -372.695)" fill="#b8b0d6" fill-rule="evenodd"/>
                <path id="Trazado_1220446" data-name="Trazado 1220446" d="M435.373,387.745h-2.662a1.168,1.168,0,0,1-1.164-1.165v-2.661a1.167,1.167,0,0,1,1.164-1.163h2.662a1.167,1.167,0,0,1,1.164,1.163v2.661A1.167,1.167,0,0,1,435.373,387.745Z" transform="translate(-403.527 -372.695)" fill="#fff" fill-rule="evenodd"/>
                <path id="Trazado_1220447" data-name="Trazado 1220447" d="M449.2,387.745H446.54a1.167,1.167,0,0,1-1.164-1.165v-2.661a1.167,1.167,0,0,1,1.164-1.163H449.2a1.167,1.167,0,0,1,1.164,1.163v2.661A1.168,1.168,0,0,1,449.2,387.745Z" transform="translate(-426.584 -372.695)" fill="#b8b0d6" fill-rule="evenodd"/>
                <path id="Trazado_1220448" data-name="Trazado 1220448" d="M463.031,387.745h-2.662a1.167,1.167,0,0,1-1.163-1.165v-2.661a1.166,1.166,0,0,1,1.163-1.163h2.662a1.168,1.168,0,0,1,1.163,1.163v2.661A1.168,1.168,0,0,1,463.031,387.745Z" transform="translate(-449.642 -372.695)" fill="#fff" fill-rule="evenodd"/>
                <path id="Trazado_1220449" data-name="Trazado 1220449" d="M476.859,387.745H474.2a1.167,1.167,0,0,1-1.164-1.165v-2.661a1.167,1.167,0,0,1,1.164-1.163h2.659a1.167,1.167,0,0,1,1.164,1.163v2.661A1.167,1.167,0,0,1,476.859,387.745Z" transform="translate(-472.702 -372.695)" fill="#b8b0d6" fill-rule="evenodd"/>
                <path id="Trazado_1220450" data-name="Trazado 1220450" d="M449.7,372.668h-2.662a1.166,1.166,0,0,1-1.164-1.164v-2.661a1.165,1.165,0,0,1,1.164-1.163H449.7a1.166,1.166,0,0,1,1.164,1.163V371.5A1.167,1.167,0,0,1,449.7,372.668Z" transform="translate(-427.419 -367.68)" fill="#fff" fill-rule="evenodd"/>
                <path id="Trazado_1220451" data-name="Trazado 1220451" d="M463.532,372.668h-2.662a1.166,1.166,0,0,1-1.163-1.164v-2.661a1.165,1.165,0,0,1,1.163-1.163h2.662a1.166,1.166,0,0,1,1.163,1.163V371.5A1.167,1.167,0,0,1,463.532,372.668Z" transform="translate(-450.477 -367.68)" fill="#b8b0d6" fill-rule="evenodd"/>
                <path id="Trazado_1220452" data-name="Trazado 1220452" d="M477.361,372.668H474.7a1.167,1.167,0,0,1-1.164-1.164v-2.661a1.166,1.166,0,0,1,1.164-1.163h2.661a1.165,1.165,0,0,1,1.163,1.163V371.5A1.166,1.166,0,0,1,477.361,372.668Z" transform="translate(-473.536 -367.68)" fill="#fff" fill-rule="evenodd"/>
              </g>
              <path id="Trazado_1220453" data-name="Trazado 1220453" d="M462.691,82a.615.615,0,0,0-1.23,0v2.763a.615.615,0,0,0,1.23,0V82Zm4.186,2.244a.614.614,0,0,0-.869-.869l-1.954,1.953a.615.615,0,0,0,.87.869l1.953-1.953Zm1.375,4.547a.614.614,0,1,0,0-1.228h-2.764a.614.614,0,0,0,0,1.228Zm-2.244,4.188a.614.614,0,0,0,.869-.869l-1.953-1.955a.615.615,0,0,0-.87.869l1.954,1.955Zm-4.548,1.373a.615.615,0,0,0,1.23,0V91.592a.615.615,0,1,0-1.23,0v2.762Zm-4.187-2.242a.615.615,0,0,0,.87.869l1.955-1.955a.615.615,0,0,0-.87-.869l-1.954,1.955ZM455.9,87.565a.614.614,0,1,0,0,1.228h2.765a.614.614,0,0,0,0-1.228Zm2.244-4.188a.615.615,0,0,0-.87.869l1.954,1.953a.615.615,0,0,0,.87-.869Z" transform="translate(-327.756 -81.388)" fill="#b8b0d6" fill-rule="evenodd"/>
              <path id="Trazado_1220454" data-name="Trazado 1220454" d="M169.379,92.5a.614.614,0,1,0-1.228,0v2.764a.614.614,0,1,0,1.228,0V92.5Zm4.188,2.243a.614.614,0,1,0-.869-.869l-1.955,1.955a.614.614,0,0,0,.869.869l1.955-1.955Zm1.374,4.548a.615.615,0,1,0,0-1.229h-2.763a.615.615,0,0,0,0,1.229Zm-2.243,4.187a.614.614,0,1,0,.869-.869l-1.955-1.953a.614.614,0,0,0-.869.869l1.955,1.953Zm-4.547,1.375a.614.614,0,0,0,1.228,0v-2.764a.614.614,0,0,0-1.228,0v2.764Zm-4.188-2.244a.614.614,0,1,0,.868.869l1.955-1.953a.614.614,0,0,0-.868-.869l-1.954,1.953Zm-1.375-4.547a.615.615,0,0,0,0,1.229h2.764a.615.615,0,0,0,0-1.229Zm2.242-4.188a.614.614,0,1,0-.868.869l1.955,1.955a.614.614,0,1,0,.868-.869Z" transform="translate(161.305 -84.879)" fill="#b8b0d6" fill-rule="evenodd"/>
              <path id="Trazado_1220455" data-name="Trazado 1220455" d="M653.779,321.378a.615.615,0,0,0-1.229,0v2.764a.615.615,0,0,0,1.229,0v-2.764Zm4.186,2.244a.614.614,0,1,0-.867-.869l-1.955,1.953a.615.615,0,0,0,.869.87l1.953-1.954Zm1.377,4.547a.614.614,0,0,0,0-1.229h-2.765a.614.614,0,1,0,0,1.229Zm-2.244,4.188a.614.614,0,0,0,.868-.869l-1.953-1.955a.614.614,0,0,0-.869.869l1.955,1.955Zm-4.549,1.374a.615.615,0,1,0,1.229,0v-2.762a.615.615,0,1,0-1.229,0v2.762Zm-4.187-2.242a.615.615,0,0,0,.87.869l1.953-1.955a.614.614,0,0,0-.869-.869l-1.954,1.955Zm-1.375-4.547a.614.614,0,1,0,0,1.229h2.763a.614.614,0,1,0,0-1.229Zm2.244-4.188a.615.615,0,1,0-.87.869l1.954,1.954a.615.615,0,1,0,.869-.87Z" transform="translate(-646.373 -161.009)" fill="#b8b0d6" fill-rule="evenodd"/>
              <path id="Trazado_1220456" data-name="Trazado 1220456" d="M84.822,284.121Zm2.97-11.307a5.712,5.712,0,1,1-1.673,4.039,5.692,5.692,0,0,1,1.673-4.039Zm1.235-5.661a10.031,10.031,0,0,0-2.238.953,10.135,10.135,0,0,0-1.964,1.481.349.349,0,0,1-.418.051L81.751,268.1l-.014-.009a.664.664,0,0,0-.884.25l-.011.018L78.975,271.6a.663.663,0,0,0,.24.9l.019.011,2.631,1.52a.351.351,0,0,1,.165.388h0a10.2,10.2,0,0,0-.222,3.668,10.289,10.289,0,0,0,.222,1.208.35.35,0,0,1-.186.4l-2.632,1.519h0a.664.664,0,0,0-.24.9l1.877,3.253h0a.662.662,0,0,0,.9.241l.02-.011,2.636-1.522a.351.351,0,0,1,.416.051,10.061,10.061,0,0,0,4.218,2.437.353.353,0,0,1,.255.339v3.062a.647.647,0,0,0,.193.462.655.655,0,0,0,.462.194h3.758a.66.66,0,0,0,.657-.656V286.9a.351.351,0,0,1,.269-.341,10.011,10.011,0,0,0,2.24-.954,10.129,10.129,0,0,0,1.964-1.48.351.351,0,0,1,.435-.041l2.636,1.522a.663.663,0,0,0,.9-.242l.012-.018,1.867-3.235h0a.664.664,0,0,0-.24-.9l-2.652-1.53a.35.35,0,0,1-.166-.386h0a10.247,10.247,0,0,0,.223-1.207,10.45,10.45,0,0,0,0-2.462,10.216,10.216,0,0,0-.223-1.207.353.353,0,0,1,.186-.4l2.632-1.519a.666.666,0,0,0,.3-.4.657.657,0,0,0-.064-.5l-.011-.02-1.867-3.235h0a.663.663,0,0,0-.9-.242h0l-2.654,1.533a.352.352,0,0,1-.426-.058,10.161,10.161,0,0,0-1.957-1.474,9.993,9.993,0,0,0-2.253-.957.351.351,0,0,1-.255-.338v-3.062a.658.658,0,0,0-.657-.657H89.953a.659.659,0,0,0-.655.657v3.062A.354.354,0,0,1,89.027,267.153Z" transform="translate(287.535 -141.826)" fill="#b8b0d6" fill-rule="evenodd"/>
              <path id="Trazado_1220457" data-name="Trazado 1220457" d="M141.193,170.855a2.3,2.3,0,1,1,2.305-2.305A2.309,2.309,0,0,1,141.193,170.855Z" transform="translate(208.77 -109.613)" fill="#fff" fill-rule="evenodd"/>
              <path id="Trazado_1220458" data-name="Trazado 1220458" d="M407.564,92.425a2.305,2.305,0,1,1,2.3-2.305A2.309,2.309,0,0,1,407.564,92.425Z" transform="translate(-235.371 -83.526)" fill="#fff" fill-rule="evenodd"/>
              <path id="Trazado_1220459" data-name="Trazado 1220459" d="M516.083,276.909a2.3,2.3,0,1,1,2.3-2.3A2.309,2.309,0,0,1,516.083,276.909Z" transform="translate(-416.315 -144.889)" fill="#fff" fill-rule="evenodd"/>
              <path id="Trazado_1220460" data-name="Trazado 1220460" d="M655.189,363.726a2.3,2.3,0,1,1,2.3-2.3A2.31,2.31,0,0,1,655.189,363.726Z" transform="translate(-648.256 -173.766)" fill="#fff" fill-rule="evenodd"/>
              <path id="Trazado_1220461" data-name="Trazado 1220461" d="M222.09,400.227a2.3,2.3,0,1,1,2.3-2.3A2.308,2.308,0,0,1,222.09,400.227Z" transform="translate(73.884 -185.907)" fill="#fff" fill-rule="evenodd"/>
              <path id="Trazado_1220462" data-name="Trazado 1220462" d="M366.982,107.545a.615.615,0,0,0-1.229,0v2.764a.615.615,0,0,0,1.229,0v-2.764Zm4.186,2.244a.614.614,0,1,0-.869-.869l-1.953,1.953a.614.614,0,0,0,.868.869l1.953-1.953Zm1.375,4.547a.614.614,0,1,0,0-1.228H369.78a.614.614,0,0,0,0,1.228Zm-2.244,4.189a.614.614,0,0,0,.869-.869l-1.953-1.955a.614.614,0,0,0-.868.869l1.953,1.955Zm-4.547,1.373a.615.615,0,0,0,1.229,0v-2.763a.615.615,0,1,0-1.229,0V119.9Zm-4.186-2.243a.614.614,0,1,0,.868.869l1.955-1.955a.614.614,0,0,0-.869-.869l-1.953,1.955Zm-1.376-4.546a.614.614,0,0,0,0,1.228h2.765a.614.614,0,1,0,0-1.228Zm2.244-4.188a.614.614,0,1,0-.868.869l1.953,1.953a.614.614,0,0,0,.869-.869Z" transform="translate(-168.175 -89.884)" fill="#fff" fill-rule="evenodd"/>
              <path id="Trazado_1220463" data-name="Trazado 1220463" d="M525.457,146.19a2.3,2.3,0,1,1,2.3-2.3A2.309,2.309,0,0,1,525.457,146.19Z" transform="translate(-431.945 -101.409)" fill="#fff" fill-rule="evenodd"/>
            </g>
            <g id="Grupo_1231154" data-name="Grupo 1231154" transform="translate(202.275 1.644)">
              <path id="Trazado_1220464" data-name="Trazado 1220464" d="M283.805,38.592h45.846a6.073,6.073,0,0,1,6.055,6.056V91.31a.676.676,0,0,1-1.154.478L324.235,81.471h-40.43a6.073,6.073,0,0,1-6.054-6.056V44.648A6.073,6.073,0,0,1,283.805,38.592Z" transform="translate(-277.751 -38.592)" fill="#e74d91" fill-rule="evenodd"/>
              <path id="Trazado_1220465" data-name="Trazado 1220465" d="M302.231,51.8l-.178.178,8.982,8.982,5.913-5.914a6.707,6.707,0,0,1,7.91-8.564l-1.778,1.778-1.447,1.446.529,1.976.529,1.977,1.978.529,1.976.531,1.447-1.448,1.778-1.777a6.707,6.707,0,0,1-8.564,7.908l-4.34,4.341,8.68,8.68a1.921,1.921,0,0,1,0,2.709l-2.306,2.305a1.921,1.921,0,0,1-2.709,0l-8.678-8.679-8.775,8.775a2.079,2.079,0,0,1-2.932,0l-1.428-1.428a2.078,2.078,0,0,1,0-2.931l10.35-10.348-8.982-8.982-.178.178a.756.756,0,0,1-.916.081l-4.2-2.826a.474.474,0,0,1-.081-.754l1.369-1.369,1.183-1.182,1.369-1.369a.472.472,0,0,1,.752.081l2.827,4.2A.755.755,0,0,1,302.231,51.8Z" transform="translate(-283.375 -41.159)" fill="#fff" fill-rule="evenodd"/>
            </g>
          </g>
        </g>
      </g>
    </g>
  </g>
</svg>
