<svg xmlns="http://www.w3.org/2000/svg" xmlns:xlink="http://www.w3.org/1999/xlink" width="108" height="108" viewBox="0 0 108 108">
  <defs>
    <filter id="Trazado_904820" x="0" y="0" width="108" height="108" filterUnits="userSpaceOnUse">
      <feOffset dy="3" input="SourceAlpha"/>
      <feGaussianBlur stdDeviation="3" result="blur"/>
      <feFlood flood-opacity="0.161"/>
      <feComposite operator="in" in2="blur"/>
      <feComposite in="SourceGraphic"/>
    </filter>
  </defs>
  <g id="Grupo_1232495" data-name="Grupo 1232495" transform="translate(-616 -3745)">
    <g id="Grupo_1230663" data-name="Grupo 1230663" transform="translate(625 3751)">
      <g id="Grupo_1228101" data-name="Grupo 1228101" transform="translate(0 0)">
        <g id="Grupo_1227366" data-name="Grupo 1227366" transform="translate(0 0)">
          <g id="Grupo_1224979" data-name="Grupo 1224979">
            <g id="Grupo_1173585" data-name="Grupo 1173585">
              <g id="Grupo_1173428" data-name="Grupo 1173428">
                <g id="Grupo_1171958" data-name="Grupo 1171958">
                  <g id="Grupo_1167341" data-name="Grupo 1167341">
                    <g id="Grupo_1166792" data-name="Grupo 1166792">
                      <g transform="matrix(1, 0, 0, 1, -9, -6)" filter="url(#Trazado_904820)">
                        <g id="Trazado_904820-2" data-name="Trazado 904820" transform="translate(9 6)" fill="#e5fdfa">
                          <path d="M 44.99999618530273 88.50009918212891 C 39.12687301635742 88.50009918212891 33.43022155761719 87.35017395019531 28.06829643249512 85.08226013183594 C 22.88852119445801 82.89140319824219 18.23629570007324 79.75467681884766 14.24084663391113 75.75922393798828 C 10.24540901184082 71.76377105712891 7.108683586120605 67.11153411865234 4.917821407318115 61.9317626953125 C 2.649921178817749 56.56982421875 1.499996185302734 50.87317276000977 1.499996185302734 45.00004959106445 C 1.499996185302734 39.12692642211914 2.649921178817749 33.43026351928711 4.917821407318115 28.06832504272461 C 7.108683586120605 22.8885498046875 10.24540901184082 18.23632431030273 14.24084663391113 14.24087429046631 C 18.23629570007324 10.24541187286377 22.88852119445801 7.108699798583984 28.06829643249512 4.917837142944336 C 33.43022155761719 2.649924516677856 39.12687301635742 1.499999642372131 44.99999618530273 1.499999642372131 C 50.87311935424805 1.499999642372131 56.56977081298828 2.649924516677856 61.93169784545898 4.917837142944336 C 67.11147308349609 7.108699798583984 71.76369476318359 10.24541187286377 75.75914764404297 14.24087429046631 C 79.75458526611328 18.23632431030273 82.89131164550781 22.8885498046875 85.08216857910156 28.06832504272461 C 87.35007476806641 33.43026351928711 88.5 39.12692642211914 88.5 45.00004959106445 C 88.5 50.87317276000977 87.35007476806641 56.56982421875 85.08216857910156 61.9317626953125 C 82.89131164550781 67.11153411865234 79.75458526611328 71.76377105712891 75.75914764404297 75.75922393798828 C 71.76369476318359 79.75467681884766 67.11147308349609 82.89140319824219 61.93169784545898 85.08226013183594 C 56.56977081298828 87.35017395019531 50.87311935424805 88.50009918212891 44.99999618530273 88.50009918212891 Z" stroke="none"/>
                          <path d="M 44.99999618530273 2.999992370605469 C 39.32870864868164 2.999992370605469 33.82865142822266 4.11004638671875 28.65262603759766 6.299331665039062 C 23.65165710449219 8.414566040039062 19.15968322753906 11.44335174560547 15.301513671875 15.30152130126953 C 11.44333648681641 19.15970611572266 8.414566040039062 23.65167999267578 6.299339294433594 28.65264892578125 C 4.110054016113281 33.82869338989258 2.999992370605469 39.32875061035156 2.999992370605469 45.00004959106445 C 2.999992370605469 50.67133712768555 4.110054016113281 56.17139434814453 6.299339294433594 61.34743499755859 C 8.414566040039062 66.34841918945312 11.44333648681641 70.84037780761719 15.301513671875 74.69856262207031 C 19.15968322753906 78.55673217773438 23.65165710449219 81.58551788330078 28.65262603759766 83.70075225830078 C 33.82865142822266 85.89003753662109 39.32870864868164 87.00009155273438 44.99999618530273 87.00009155273438 C 50.67128372192383 87.00009155273438 56.17134094238281 85.89003753662109 61.34736633300781 83.70075225830078 C 66.34834289550781 81.58551788330078 70.84030914306641 78.55673217773438 74.69847869873047 74.69856262207031 C 78.55665588378906 70.84037780761719 81.58542633056641 66.34841918945312 83.70065307617188 61.34743499755859 C 85.88993835449219 56.17139434814453 87 50.67133712768555 87 45.00004959106445 C 87 39.32875061035156 85.88993835449219 33.82869338989258 83.70065307617188 28.65264892578125 C 81.58542633056641 23.65167999267578 78.55665588378906 19.15970611572266 74.69847869873047 15.30152130126953 C 70.84030914306641 11.44335174560547 66.34834289550781 8.414566040039062 61.34736633300781 6.299331665039062 C 56.17134094238281 4.11004638671875 50.67128372192383 2.999992370605469 44.99999618530273 2.999992370605469 M 44.99999618530273 -7.62939453125e-06 C 69.85281372070312 -7.62939453125e-06 90 20.14720916748047 90 45.00004959106445 C 90 69.85287475585938 69.85281372070312 90.00009155273438 44.99999618530273 90.00009155273438 C 20.14717864990234 90.00009155273438 -7.62939453125e-06 69.85287475585938 -7.62939453125e-06 45.00004959106445 C -7.62939453125e-06 20.14720916748047 20.14717864990234 -7.62939453125e-06 44.99999618530273 -7.62939453125e-06 Z" stroke="none" fill="#098576"/>
                        </g>
                      </g>
                    </g>
                  </g>
                </g>
              </g>
            </g>
          </g>
        </g>
      </g>
    </g>
    <g id="revisar" transform="translate(641.519 3765.032)">
      <path id="Trazado_1221030" data-name="Trazado 1221030" d="M71.713,403.768l-2.487-.361-6.1,2.9,2.888,6.986,2.225,1.17a1.669,1.669,0,0,0,2.422-1.76l-.611-3.562,2.588-2.522A1.669,1.669,0,0,0,71.713,403.768Z" transform="translate(-56.105 -358.521)" fill="#ffcf57"/>
      <path id="Trazado_1221031" data-name="Trazado 1221031" d="M19.788,368.826l-1.089-.158-1.6-3.24a1.669,1.669,0,0,0-2.994,0l-1.6,3.24-3.576.52a1.669,1.669,0,0,0-.925,2.847l2.588,2.522-.611,3.562a1.669,1.669,0,0,0,2.422,1.76l3.2-1.681.974.512a.834.834,0,0,0,1.211-.88l-.761-4.437,3.224-3.142a.835.835,0,0,0-.462-1.424Z" transform="translate(-6.667 -323.94)" fill="#ffe46b"/>
      <path id="Trazado_1221032" data-name="Trazado 1221032" d="M247.379,403.768l-2.487-.361-6.1,2.9,2.888,6.986,2.225,1.17a1.669,1.669,0,0,0,2.422-1.76l-.611-3.562,2.588-2.522A1.669,1.669,0,0,0,247.379,403.768Z" transform="translate(-212.227 -358.521)" fill="#ffcf57"/>
      <path id="Trazado_1221033" data-name="Trazado 1221033" d="M195.454,368.825l-1.089-.158-1.6-3.24a1.669,1.669,0,0,0-2.994,0l-1.6,3.24-3.576.52a1.669,1.669,0,0,0-.925,2.847l2.588,2.522-.611,3.562a1.669,1.669,0,0,0,2.422,1.76l3.2-1.682.974.512a.834.834,0,0,0,1.211-.88l-.761-4.437,3.224-3.142A.834.834,0,0,0,195.454,368.825Z" transform="translate(-162.789 -323.939)" fill="#ffe46b"/>
      <path id="Trazado_1221034" data-name="Trazado 1221034" d="M423.046,403.768l-2.487-.361-6.1,2.9,2.888,6.986,2.225,1.17a1.669,1.669,0,0,0,2.422-1.76l-.611-3.562,2.588-2.522A1.669,1.669,0,0,0,423.046,403.768Z" transform="translate(-368.35 -358.521)" fill="#ffcf57"/>
      <path id="Trazado_1221035" data-name="Trazado 1221035" d="M371.122,368.825l-1.089-.158-1.6-3.24a1.669,1.669,0,0,0-2.994,0l-1.6,3.24-3.576.52a1.669,1.669,0,0,0-.925,2.847l2.588,2.522-.611,3.562a1.669,1.669,0,0,0,2.422,1.76l3.2-1.682.974.512a.834.834,0,0,0,1.211-.88l-.761-4.437,3.224-3.142A.835.835,0,0,0,371.122,368.825Z" transform="translate(-318.912 -323.939)" fill="#ffe46b"/>
      <circle id="Elipse_13782" data-name="Elipse 13782" cx="18.19" cy="18.19" r="18.19" transform="translate(10.29 0.839)" fill="#fffbe5"/>
      <path id="Trazado_1221036" data-name="Trazado 1221036" d="M147.968,214.5a3.34,3.34,0,0,0-3.34,3.34,14.981,14.981,0,0,0,3.338,3.586l3.34-6.926Z" transform="translate(-128.538 -190.636)" fill="#25a5fa"/>
      <path id="Trazado_1221037" data-name="Trazado 1221037" d="M310.688,214.5H307.35l3.34,6.926a14.979,14.979,0,0,0,3.338-3.586A3.34,3.34,0,0,0,310.688,214.5Z" transform="translate(-273.157 -190.636)" fill="#4578de"/>
      <path id="Trazado_1221038" data-name="Trazado 1221038" d="M189.394,214.5H177.968a3.34,3.34,0,0,0-3.34,3.34v3.586a14.819,14.819,0,0,0,18.106,0v-3.586A3.34,3.34,0,0,0,189.394,214.5Z" transform="translate(-155.201 -190.636)" fill="#3b88f5"/>
      <path id="Trazado_1221039" data-name="Trazado 1221039" d="M256,52.5V67.191A7.343,7.343,0,0,0,256,52.5Z" transform="translate(-227.519 -46.659)" fill="#4578de"/>
      <path id="Trazado_1221040" data-name="Trazado 1221040" d="M201.348,59.848c0-4.055-1.793-7.343-4.005-7.343a7.343,7.343,0,0,0,0,14.686C199.555,67.191,201.348,63.9,201.348,59.848Z" transform="translate(-168.862 -46.659)" fill="#3b88f5"/>
      <path id="Trazado_1221041" data-name="Trazado 1221041" d="M15.729,361.7l-3.142-.457-1.405-2.847a2.5,2.5,0,0,0-4.49,0l-1.405,2.847-3.142.457a2.5,2.5,0,0,0-1.387,4.27l2.274,2.216-.537,3.129a2.5,2.5,0,0,0,3.633,2.639l2.81-1.477,2.81,1.477a2.5,2.5,0,0,0,3.633-2.639l-.537-3.129,2.274-2.216a2.5,2.5,0,0,0-1.387-4.27Zm.223,3.075-2.588,2.522a.834.834,0,0,0-.24.738l.611,3.562a.835.835,0,0,1-1.211.88l-3.2-1.682a.835.835,0,0,0-.777,0l-3.2,1.682a.835.835,0,0,1-1.211-.88l.611-3.562a.835.835,0,0,0-.24-.739l-2.588-2.522a.835.835,0,0,1,.463-1.424l3.576-.52a.834.834,0,0,0,.628-.456l1.6-3.241a.835.835,0,0,1,1.5,0l1.6,3.24a.834.834,0,0,0,.628.456l3.576.52a.835.835,0,0,1,.462,1.424Z" transform="translate(0 -317.274)"/>
      <path id="Trazado_1221042" data-name="Trazado 1221042" d="M191.4,361.7l-3.142-.457-1.405-2.847a2.5,2.5,0,0,0-4.49,0l-1.405,2.847-3.142.457a2.5,2.5,0,0,0-1.388,4.27l2.273,2.216-.537,3.129a2.5,2.5,0,0,0,3.633,2.639l2.81-1.477,2.81,1.477a2.5,2.5,0,0,0,3.633-2.639l-.537-3.129,2.273-2.216a2.5,2.5,0,0,0-1.387-4.27Zm.223,3.075-2.588,2.522a.834.834,0,0,0-.24.738l.611,3.562a.835.835,0,0,1-1.211.88l-3.2-1.682a.835.835,0,0,0-.777,0l-3.2,1.682a.835.835,0,0,1-1.211-.88l.611-3.562a.835.835,0,0,0-.24-.739l-2.588-2.522a.835.835,0,0,1,.463-1.424l3.576-.52a.834.834,0,0,0,.628-.456l1.6-3.241a.835.835,0,0,1,1.5,0l1.6,3.24a.834.834,0,0,0,.628.456l3.576.52a.834.834,0,0,1,.462,1.424Z" transform="translate(-156.123 -317.274)"/>
      <path id="Trazado_1221043" data-name="Trazado 1221043" d="M369.083,363.4a2.488,2.488,0,0,0-2.021-1.7l-3.142-.457-1.405-2.847a2.5,2.5,0,0,0-4.49,0l-1.405,2.847-3.142.457a2.5,2.5,0,0,0-1.387,4.27l2.273,2.216-.537,3.129a2.5,2.5,0,0,0,3.633,2.639l2.81-1.477,2.81,1.477a2.5,2.5,0,0,0,3.633-2.639l-.537-3.129,2.273-2.216A2.488,2.488,0,0,0,369.083,363.4Zm-1.8,1.371-2.588,2.522a.834.834,0,0,0-.24.738l.611,3.562a.835.835,0,0,1-1.211.88l-3.2-1.682a.835.835,0,0,0-.777,0l-3.2,1.682a.835.835,0,0,1-1.211-.88l.611-3.562a.835.835,0,0,0-.24-.739l-2.588-2.522a.835.835,0,0,1,.463-1.424l3.576-.52a.834.834,0,0,0,.628-.456l1.6-3.241a.835.835,0,0,1,1.5,0l1.6,3.24a.834.834,0,0,0,.628.456l3.576.52a.835.835,0,0,1,.462,1.424Z" transform="translate(-312.245 -317.275)"/>
      <path id="Trazado_1221044" data-name="Trazado 1221044" d="M198.855,53.182a8.177,8.177,0,1,0-8.177,8.177A8.187,8.187,0,0,0,198.855,53.182Zm-14.686,0a6.508,6.508,0,1,1,6.508,6.508A6.516,6.516,0,0,1,184.169,53.182Z" transform="translate(-162.197 -39.994)"/>
      <path id="Trazado_1221045" data-name="Trazado 1221045" d="M137.128,211.18a.835.835,0,0,0,.139.461,15.675,15.675,0,0,0,26.173,0,.835.835,0,0,0,.139-.461,4.179,4.179,0,0,0-4.175-4.175H141.3a4.179,4.179,0,0,0-4.175,4.175Zm24.77-.239a14,14,0,0,1-23.09,0,2.509,2.509,0,0,1,2.494-2.267h18.1A2.509,2.509,0,0,1,161.9,210.941Z" transform="translate(-121.873 -183.97)"/>
      <path id="Trazado_1221046" data-name="Trazado 1221046" d="M104.025,38.054A19.025,19.025,0,1,0,92.077,4.226a.834.834,0,0,0,1.049,1.3,17.356,17.356,0,1,1-2.285,2.22.834.834,0,0,0-1.267-1.086,19.024,19.024,0,0,0,14.452,31.4Z" transform="translate(-75.544)"/>
    </g>
  </g>
</svg>
