<svg xmlns="http://www.w3.org/2000/svg" xmlns:xlink="http://www.w3.org/1999/xlink" width="190" height="196" viewBox="0 0 190 196">
  <defs>
    <clipPath id="clip-path">
      <rect id="Rectángulo_422798" data-name="Rectángulo 422798" width="190" height="196" transform="translate(0 0)" fill="#fff" stroke="#707070" stroke-width="1"/>
    </clipPath>
  </defs>
  <g id="Enmascarar_grupo_1208511" data-name="Enmascarar grupo 1208511" clip-path="url(#clip-path)">
    <g id="Grupo_1230532" data-name="Grupo 1230532" transform="translate(0 5.771)">
      <g id="Grupo_1230531" data-name="Grupo 1230531" transform="translate(0 0)">
        <g id="Grupo_1230529" data-name="Grupo 1230529" transform="translate(0)">
          <g id="Grupo_1230512" data-name="Grupo 1230512" transform="translate(0 25.334)">
            <g id="Grupo_1230508" data-name="Grupo 1230508" transform="translate(5.924 34.444)">
              <path id="Trazado_1219332" data-name="Trazado 1219332" d="M85.642,327.506s8.25,31.08-2.685,40.289-23.214-5.18-27.243,18.418,71.177,13.622,83.84-3.838-10.361-18.993-19.76-17.267-9.017-8.25-9.976-22.255S85.642,327.506,85.642,327.506Z" transform="translate(-55.557 -327.506)" fill="#ea8d83"/>
              <path id="Trazado_1219333" data-name="Trazado 1219333" d="M89.8,356.551a68.4,68.4,0,0,0,24.523,5.838c-2.194-3.766-2.277-10.879-2.869-19.535-.96-14.006-24.174-15.348-24.174-15.348S91.669,344.029,89.8,356.551Z" transform="translate(-57.199 -327.506)" fill="#d36a62" opacity="0.5"/>
            </g>
            <g id="Grupo_1230511" data-name="Grupo 1230511">
              <g id="Grupo_1230509" data-name="Grupo 1230509" transform="translate(86.251)">
                <path id="Trazado_1219334" data-name="Trazado 1219334" d="M196.1,309.773c-4.145-28.637-4.15-2.752-4.15-2.752-3.592-31.407-3.759-.334-3.759-.334-4.928-35.417-3.759.919-3.759.919-7.518-28.735-3.028,1.414-3.028,1.414l.376,4.521c-17.709-19.97.376,6.405.376,6.405s.181.493.51,1.375c.867,16.007,1.929,37.33,1.929,37.33l-3.541.229c-9.8.037-27.528.569-40.782,3.564,1.331,8.64,2.432,17.355,2.226,25.993a176.111,176.111,0,0,0,23.681-2.683c24.435-4.1,39.373-4.729,42.228-11.484C212.071,372.19,199.969,336.539,196.1,309.773Z" transform="translate(-140.268 -291.182)" fill="#ea8d83"/>
                <path id="Trazado_1219335" data-name="Trazado 1219335" d="M159.613,363.469a142,142,0,0,0-19.345,2.716c1.332,8.641,2.433,17.358,2.227,26A137.707,137.707,0,0,0,156.92,390.9C160.063,382.262,160.7,372.612,159.613,363.469Z" transform="translate(-140.268 -294.923)" fill="#d36a62" opacity="0.5"/>
              </g>
              <g id="Grupo_1230510" data-name="Grupo 1230510" transform="translate(4.541 69.519)">
                <path id="Trazado_1219336" data-name="Trazado 1219336" d="M77.842,371.594s12.951,20.677,37.679,17.709c18.84-2.261,12.058-23.362,12.058-23.362s10.928-2.261,12.058-1.13c5.652,5.652,19.97,42.578,11.3,55.766s-10.55,37.679-10.55,37.679l-47.853-4.145S54.448,413.428,54.1,390.433C53.726,365.189,77.842,371.594,77.842,371.594Z" transform="translate(-54.098 -364.495)" fill="#fd8"/>
                <path id="Trazado_1219337" data-name="Trazado 1219337" d="M114.607,417.182c-13.414-1.129-29.331-1.614-40.938-9.232-5.859-3.846-9.958-8.971-13.7-14.807-1.715-2.672-3.423-5.428-5.357-7.973A30.738,30.738,0,0,0,54.1,391.5c.343,22.994,38.433,63.679,38.433,63.679l47.853,4.145s1.884-24.492,10.55-37.679a18.755,18.755,0,0,0,2.671-7.468C140.94,418.167,125.995,418.14,114.607,417.182Z" transform="translate(-54.098 -365.565)" fill="#f9cb64"/>
              </g>
              <path id="Trazado_1219338" data-name="Trazado 1219338" d="M121.215,448.39s15.949,4.238-2.145-3.337c-10.25-4.291-45.764-6.913-45.764-6.913l.431-3.522c2.973-16.087,8.7-54.133-2.549-59.166-14.319-6.405-20.347,2.261-21.1,39.564-.665,32.914-4.259,48.222,12.5,44.124,16.707-.825,51-5.744,51-5.744s13.824,15.254,2.384-1.669c0,0,16.685,16.208,3.1-.953C119.07,450.774,137.424,461.737,121.215,448.39Z" transform="translate(-49.31 -295.443)" fill="#ea8d83"/>
            </g>
          </g>
          <g id="Grupo_1230528" data-name="Grupo 1230528" transform="translate(16.633)">
            <g id="Grupo_1230514" data-name="Grupo 1230514">
              <path id="Trazado_1219339" data-name="Trazado 1219339" d="M85.025,320.477s-4.8-22.831,12.47-30.121,34.15,3.261,38.179,24.557-4.2,42.228-18.993,40.865C89.629,353.283,85.025,320.477,85.025,320.477Z" transform="translate(-67.759 -265.686)" fill="#ea8d83"/>
              <g id="Grupo_1230513" data-name="Grupo 1230513">
                <path id="Trazado_1219340" data-name="Trazado 1219340" d="M147.811,290.093c3.837-6.523,7.29-3.645,7.29-3.645s-1.535-4.221-8.441-1.343a17.573,17.573,0,0,1-5.147,1.315c6.076-2.323,12.126-7.182,10.711-13.786,0,0-2.111,6.523-5.756,6.331s-14.2-14.581-22.447-7.1S110.209,264,95.243,274.937a24.983,24.983,0,0,0-6.927,7.3c.037-.085.068-.168.108-.254a19.869,19.869,0,0,1,2.352-3.67,11.088,11.088,0,0,1,.8-.925c.287-.3.552-.632.869-.926.645-.576,1.245-1.248,1.971-1.793l1.065-.871c.368-.29.792-.566,1.192-.855l1.2-.846c.414-.254.818-.54,1.249-.776a18.588,18.588,0,0,1,2.661-1.287,13.952,13.952,0,0,1,2.838-.719,12.93,12.93,0,0,1,5.927.8c1.03.318,2.087.7,3.254.966a9.213,9.213,0,0,0,3.725.173,8.412,8.412,0,0,0,3.423-1.461c.269-.174.435-.329.657-.493l.34-.26.292-.213c.4-.271.759-.6,1.173-.826a11.4,11.4,0,0,1,5.152-1.688,14.721,14.721,0,0,1,4.977.52,18.192,18.192,0,0,1,4.007,1.7,17.869,17.869,0,0,1,1.547,1,12.418,12.418,0,0,1,1.242.962c.378.3.662.6.934.858a5.979,5.979,0,0,1,.653.689l.517.6-.408-.682a6.148,6.148,0,0,0-.532-.8,9.262,9.262,0,0,0-.819-1.023,13.144,13.144,0,0,0-1.135-1.166,14.669,14.669,0,0,0-1.48-1.233,16.84,16.84,0,0,0-4.075-2.251,14.814,14.814,0,0,0-5.516-1.018,12.589,12.589,0,0,0-6.16,1.647,16.661,16.661,0,0,0-1.418.913l-.353.24-.3.207c-.209.142-.446.335-.632.436a6.849,6.849,0,0,1-2.488.981c-1.748.319-3.691-.431-5.828-1.14a15.326,15.326,0,0,0-7-.81,15.943,15.943,0,0,0-6.312,2.514c-.465.281-.888.6-1.326.9-.477.35-.815.636-1.217.959-.386.32-.772.607-1.145.943l-1.1,1.024a27.129,27.129,0,0,0-1.972,2.062c-.305.342-.561.723-.835,1.071a12.225,12.225,0,0,0-.761,1.062,18.105,18.105,0,0,0-2.083,4.158,13.984,13.984,0,0,0-.659,3.208,13.466,13.466,0,0,0-1.527-1.712,12.829,12.829,0,0,0-1.47-1.18l-.8-.5-.836-.429a12.966,12.966,0,0,0-1.746-.666,13.38,13.38,0,0,0-1.805-.426,17.083,17.083,0,0,0-1.832-.175,15.45,15.45,0,0,0-1.827.008c-.608.021-1.207.126-1.807.185-.6.1-1.188.21-1.778.325-.583.147-1.168.282-1.746.439L68,281.269l1.758-.337,1.762-.269,1.768-.155c.59,0,1.179-.05,1.764-.015a17.244,17.244,0,0,1,1.747.118,16.2,16.2,0,0,1,1.714.281,15.752,15.752,0,0,1,1.651.491,11.778,11.778,0,0,1,1.565.684l.738.424.7.483a13.279,13.279,0,0,1,1.283,1.1c.091.09.174.187.263.28a8.122,8.122,0,0,0-1.2-.485c-.322-.078-.643-.179-.967-.233l-.974-.128a14.358,14.358,0,0,0-1.937.012,16.106,16.106,0,0,0-1.87.223c-.642.083-1.237.251-1.855.383-.6.178-1.213.333-1.8.556l-.883.328-.86.388a15.217,15.217,0,0,0-1.641.922,8.8,8.8,0,0,0-.775.531,10.889,10.889,0,0,0-3.093,3.437,7.533,7.533,0,0,1,1.193-1.389,11.587,11.587,0,0,1,1.409-1.15,8.7,8.7,0,0,1,.761-.493,8.38,8.38,0,0,1,.792-.44,14.482,14.482,0,0,1,1.651-.734l.846-.313.866-.257c.575-.175,1.17-.284,1.755-.415.594-.08,1.192-.226,1.774-.268l.917-.1c.3-.028.588-.019.882-.031a13.253,13.253,0,0,1,1.746.072l.4.064a11.214,11.214,0,0,0-10.386,5.642c-9.4,14.964,2.111,24.365,6.907,30.121,0,0,3.454-5.372,6.715.767s0,8.825,8.25,9.976c0,0-4.412-.576-3.261-6.331s0-9.977-2.3-12.279c0,0,3.621-6.976,3.022-13.552.034.075.064.146.1.223a14.26,14.26,0,0,0,1.646,2.74,10.325,10.325,0,0,0,2.843,2.613,9.219,9.219,0,0,0,1.978.878,8.606,8.606,0,0,0,2.244.336,10.293,10.293,0,0,0,2.318-.215c.78-.163,1.477-.391,2.19-.563a26.326,26.326,0,0,1,4.349-.771,10.316,10.316,0,0,1,4.2.391,10.639,10.639,0,0,1,3.53,2.114c.532.449,1.045.92,1.559,1.377a7.237,7.237,0,0,0,1.745,1.29,6.5,6.5,0,0,0,3.9.47,12.218,12.218,0,0,0,3.069-.938,18.041,18.041,0,0,0,2.157-1.135,15.759,15.759,0,0,0,1.732-1.2,20.415,20.415,0,0,1-1.87.945,22.035,22.035,0,0,1-2.221.867,13.111,13.111,0,0,1-2.965.621,5.823,5.823,0,0,1-3.293-.609,6.078,6.078,0,0,1-1.415-1.193c-.485-.492-.992-.991-1.538-1.483a11.557,11.557,0,0,0-3.924-2.5A10.432,10.432,0,0,0,110,302.9c7.246-1.312,6.038,1.74,10.573,4.655,4.845,3.114,10.552-6.523,16.115-.96s10.36,3.262,13.622-1.727c0,0-5.756,3.838-8.634-.192s-2.3-7.29-8.25-6.715c0,0,6.523-1.727,10.168,1.727s5.18,3.837,7.866-.576a3.939,3.939,0,0,1-5.947-.576c-1.422-1.707-2.189-3.694-3.574-5.153A6.6,6.6,0,0,0,147.811,290.093Zm-57.285,7.369c.025.068.052.14.079.211l-.062-.121C90.537,297.522,90.532,297.491,90.526,297.462Z" transform="translate(-66.85 -264.465)" fill="#01334c"/>
                <path id="Trazado_1219341" data-name="Trazado 1219341" d="M127.367,308.368c-.343.133-.71.267-1.106.4a13.109,13.109,0,0,1-2.965.621,5.823,5.823,0,0,1-3.293-.609,6.078,6.078,0,0,1-1.415-1.193c-.485-.492-.992-.991-1.538-1.483a11.558,11.558,0,0,0-3.924-2.5,10.431,10.431,0,0,0-3.131-.541c7.246-1.312,6.038,1.74,10.573,4.655a4.721,4.721,0,0,0,4.448.156,19.711,19.711,0,0,1-6.282-2.7c-2.2-1.484-4.215-4.047-4.278-6.8-.06-2.6.486-5.356-2.933-6.041a7.1,7.1,0,0,1-3.286-1.381c-6.066-4.915-7.2-11.855-6.845-19.162a22.63,22.63,0,0,0-6.147,3.307,24.983,24.983,0,0,0-6.927,7.3c.037-.085.068-.168.108-.254a19.869,19.869,0,0,1,2.352-3.67,11.079,11.079,0,0,1,.8-.925c.287-.3.552-.632.869-.926.645-.576,1.245-1.248,1.971-1.793l1.065-.871c.368-.29.792-.566,1.192-.855l1.2-.846c.414-.254.818-.54,1.249-.776a18.576,18.576,0,0,1,2.361-1.157q.1-1.289.236-2.586a19.162,19.162,0,0,0-3.735,1.875c-.465.281-.888.6-1.326.9-.477.35-.815.636-1.217.959-.386.32-.772.607-1.145.943l-1.1,1.024a27.119,27.119,0,0,0-1.972,2.062c-.305.342-.561.723-.835,1.071a12.222,12.222,0,0,0-.761,1.062,18.106,18.106,0,0,0-2.083,4.158,13.984,13.984,0,0,0-.659,3.208,13.47,13.47,0,0,0-1.527-1.712,12.826,12.826,0,0,0-1.47-1.18l-.8-.5-.836-.429a12.957,12.957,0,0,0-1.746-.666A13.38,13.38,0,0,0,78.7,280.1a17.076,17.076,0,0,0-1.832-.175,15.451,15.451,0,0,0-1.827.008c-.608.021-1.207.126-1.807.185-.6.1-1.188.211-1.778.325-.583.147-1.168.282-1.746.439L68,281.434l1.758-.337,1.762-.269,1.768-.155c.59,0,1.179-.05,1.764-.015a17.243,17.243,0,0,1,1.747.118,16.178,16.178,0,0,1,1.714.281,15.744,15.744,0,0,1,1.651.491,11.782,11.782,0,0,1,1.565.684l.738.424.7.483a13.289,13.289,0,0,1,1.283,1.1c.091.09.174.187.263.28a8.125,8.125,0,0,0-1.2-.486c-.322-.078-.643-.179-.967-.233l-.974-.128a14.343,14.343,0,0,0-1.937.012,16.1,16.1,0,0,0-1.87.223c-.642.083-1.237.251-1.855.383-.6.178-1.213.333-1.8.556l-.883.328-.86.388a15.22,15.22,0,0,0-1.641.922,8.807,8.807,0,0,0-.775.531,10.888,10.888,0,0,0-3.093,3.437,7.533,7.533,0,0,1,1.193-1.389,11.582,11.582,0,0,1,1.409-1.15,8.7,8.7,0,0,1,.761-.493,8.373,8.373,0,0,1,.792-.44,14.48,14.48,0,0,1,1.651-.734l.846-.313.866-.257c.575-.175,1.17-.284,1.755-.415.594-.08,1.192-.226,1.774-.268l.917-.1c.3-.028.588-.019.882-.031a13.253,13.253,0,0,1,1.746.072l.4.064a11.213,11.213,0,0,0-10.386,5.642c-9.4,14.964,2.111,24.365,6.907,30.121,0,0,3.454-5.372,6.715.767s0,8.825,8.25,9.977c0,0-4.412-.576-3.261-6.331s0-9.976-2.3-12.279c0,0,3.621-6.976,3.022-13.552.034.075.064.146.1.223a14.259,14.259,0,0,0,1.646,2.74,10.325,10.325,0,0,0,2.843,2.613,9.22,9.22,0,0,0,1.978.878,8.606,8.606,0,0,0,2.244.336,10.293,10.293,0,0,0,2.318-.215c.78-.163,1.477-.391,2.19-.563a26.32,26.32,0,0,1,4.349-.771,10.315,10.315,0,0,1,4.2.391,10.638,10.638,0,0,1,3.53,2.114c.532.449,1.045.92,1.559,1.377a7.235,7.235,0,0,0,1.745,1.29,6.5,6.5,0,0,0,3.9.47,12.217,12.217,0,0,0,3.069-.938,16.8,16.8,0,0,0,1.618-.818C127.843,308.441,127.6,308.408,127.367,308.368Z" transform="translate(-66.85 -264.635)" fill="#002838"/>
                <path id="Trazado_1219342" data-name="Trazado 1219342" d="M91.818,299.263c.025.068.052.14.079.211l-.062-.121C91.829,299.323,91.825,299.292,91.818,299.263Z" transform="translate(-68.142 -266.266)" fill="#002838"/>
              </g>
            </g>
            <g id="Grupo_1230527" data-name="Grupo 1230527" transform="translate(10.464 41.987)">
              <g id="Grupo_1230517" data-name="Grupo 1230517" transform="translate(30.453 6.28)">
                <g id="Grupo_1230515" data-name="Grupo 1230515" transform="translate(8.965)">
                  <path id="Trazado_1219343" data-name="Trazado 1219343" d="M119.454,315.366c1.005,2.938,1.9,5.868,2.929,8.727.271.708.516,1.425.806,2.119s.588,1.382.911,2.046a13.712,13.712,0,0,0,1.1,1.875,5.19,5.19,0,0,0,.655.788,3.016,3.016,0,0,0,.743.551l1.109.635-1.047.5c-2.169,1.044-4.353,2.059-6.634,2.9,1.941-1.462,3.977-2.75,6.029-4.008l.064,1.139a4.09,4.09,0,0,1-1.166-.724,6.438,6.438,0,0,1-.885-.925,8.308,8.308,0,0,1-.7-1.013c-.217-.344-.4-.7-.593-1.053a19.232,19.232,0,0,1-.96-2.172c-.281-.735-.543-1.473-.759-2.225a40.336,40.336,0,0,1-1.072-4.54A34.565,34.565,0,0,1,119.454,315.366Z" transform="translate(-119.454 -315.366)" fill="#d36a62"/>
                </g>
                <g id="Grupo_1230516" data-name="Grupo 1230516" transform="translate(0 24.524)">
                  <path id="Trazado_1219344" data-name="Trazado 1219344" d="M126.184,341.229a5,5,0,0,1-.5.58,9.286,9.286,0,0,1-1.551,1.292,9.725,9.725,0,0,1-1.168.7,11.57,11.57,0,0,1-1.4.612,10.512,10.512,0,0,1-1.583.44,11.294,11.294,0,0,1-1.688.227,13.234,13.234,0,0,1-1.7-.028,14.31,14.31,0,0,1-1.623-.266,13.494,13.494,0,0,1-1.457-.459,7.5,7.5,0,0,1-1.234-.569,6.231,6.231,0,0,1-.985-.572c-.279-.193-.513-.376-.706-.522-.383-.3-.59-.474-.59-.474s.273.07.731.21c.228.072.5.155.811.265s.673.177,1.054.287c.391.081.788.24,1.237.3s.9.171,1.382.233c.483.036.976.1,1.478.119a12.555,12.555,0,0,0,1.522-.023,9.954,9.954,0,0,0,1.515-.154c.5-.064.985-.174,1.458-.277.465-.127.924-.241,1.35-.377s.833-.273,1.2-.425c.741-.284,1.35-.565,1.779-.771S126.184,341.229,126.184,341.229Z" transform="translate(-110 -341.229)" fill="#d36a62"/>
                </g>
              </g>
              <g id="Grupo_1230524" data-name="Grupo 1230524" transform="translate(6.226)">
                <g id="Grupo_1230522" data-name="Grupo 1230522">
                  <g id="Grupo_1230519" data-name="Grupo 1230519" transform="translate(11.541 2.302)">
                    <ellipse id="Elipse_13598" data-name="Elipse 13598" cx="10.072" cy="10.839" rx="10.072" ry="10.839" transform="translate(0.546 0.238)" fill="#fff"/>
                    <g id="Grupo_1230518" data-name="Grupo 1230518">
                      <path id="Trazado_1219345" data-name="Trazado 1219345" d="M96.622,322.394c.723,14.44,20.527,13.905,21.234-.223.324-6.481-5.333-11.339-11.494-10.982-5.781.335-9.471,5.791-9.738,11.135-.02.406,1.072.172,1.088-.154.317-6.331,5.147-12.07,12.273-9.962,3.966,1.173,6.147,5.2,6.722,9,1.029,6.8-5.316,13.113-12.212,11.074-4.4-1.3-6.57-5.967-6.781-10.185C97.7,321.8,96.6,322.008,96.622,322.394Z" transform="translate(-96.622 -311.171)" fill="#00d7cf"/>
                    </g>
                  </g>
                  <path id="Trazado_1219346" data-name="Trazado 1219346" d="M118.442,322.727s1.727-4.8,4.221-.576" transform="translate(-86.21 -309.347)" fill="none" stroke="#00d7cf" stroke-miterlimit="10" stroke-width="1.589"/>
                  <line id="Línea_2535" data-name="Línea 2535" x2="12.087" y2="0.768" transform="translate(0 14.529)" fill="none" stroke="#00d7cf" stroke-miterlimit="10" stroke-width="1.589"/>
                  <line id="Línea_2536" data-name="Línea 2536" x1="7.411" y2="1.035" transform="translate(52.064 9.733)" fill="none" stroke="#00d7cf" stroke-miterlimit="10" stroke-width="1.589"/>
                  <g id="Grupo_1230521" data-name="Grupo 1230521" transform="translate(35.715)">
                    <ellipse id="Elipse_13599" data-name="Elipse 13599" cx="10.072" cy="10.839" rx="10.072" ry="10.839" transform="translate(0.546 0.238)" fill="#fff"/>
                    <g id="Grupo_1230520" data-name="Grupo 1230520">
                      <path id="Trazado_1219347" data-name="Trazado 1219347" d="M122.115,319.966c.723,14.44,20.527,13.905,21.234-.223.324-6.481-5.333-11.339-11.494-10.982-5.78.335-9.47,5.791-9.738,11.135-.02.406,1.072.172,1.088-.154.317-6.331,5.147-12.07,12.273-9.962,3.967,1.173,6.147,5.2,6.722,9,1.029,6.8-5.316,13.113-12.212,11.074-4.4-1.3-6.57-5.967-6.782-10.185C123.191,319.368,122.1,319.579,122.115,319.966Z" transform="translate(-122.115 -308.743)" fill="#00d7cf"/>
                    </g>
                  </g>
                </g>
                <g id="Grupo_1230523" data-name="Grupo 1230523" transform="translate(26.919 11.24)">
                  <path id="Trazado_1219348" data-name="Trazado 1219348" d="M115.265,325.663c.154,1.71-.257,3.144-.917,3.2s-1.321-1.278-1.475-2.988.256-3.144.917-3.2S115.11,323.952,115.265,325.663Z" transform="translate(-112.84 -320.704)" fill="#01334c"/>
                  <path id="Trazado_1219349" data-name="Trazado 1219349" d="M135.757,323.587c.155,1.71-.256,3.144-.917,3.2s-1.321-1.278-1.475-2.988.256-3.144.917-3.2S135.6,321.877,135.757,323.587Z" transform="translate(-113.9 -320.597)" fill="#01334c"/>
                </g>
              </g>
              <g id="Grupo_1230526" data-name="Grupo 1230526" transform="translate(0 11.422)">
                <path id="Trazado_1219350" data-name="Trazado 1219350" d="M86.506,324.472s-6.27-8.778-8.288.767c-3.124,14.773,16.852,14.406,10.69,8.634C85.631,330.8,86.506,324.472,86.506,324.472Z" transform="translate(-77.885 -320.788)" fill="#ea8d83"/>
                <g id="Grupo_1230525" data-name="Grupo 1230525" transform="translate(1.43 3.052)">
                  <path id="Trazado_1219351" data-name="Trazado 1219351" d="M79.393,328.092a8.019,8.019,0,0,1,.495-1.79,4.791,4.791,0,0,1,1.042-1.655,2.193,2.193,0,0,1,.985-.576,1.567,1.567,0,0,1,.629-.048,1.517,1.517,0,0,1,.6.148,3.043,3.043,0,0,1,.974.639,6.364,6.364,0,0,1,.632.716,6.777,6.777,0,0,1,.566.857,9.076,9.076,0,0,1,.419.892,11.964,11.964,0,0,1,.564,1.847,17.251,17.251,0,0,1,.266,1.882,13.45,13.45,0,0,1,.018,1.908l-.016.331-.243.173c-.2.141-.415.32-.616.488a7.428,7.428,0,0,0-.582.53,2.158,2.158,0,0,0-.67,1.068c-.016.119.075.249.263.386a2.291,2.291,0,0,0,.693.307,12.482,12.482,0,0,0,1.658.339,7.267,7.267,0,0,1-1.744.169,2.917,2.917,0,0,1-.933-.179,1.318,1.318,0,0,1-.476-.3,1.14,1.14,0,0,1-.325-.562,1.818,1.818,0,0,1,.153-1.137,4.67,4.67,0,0,1,.505-.83,7.808,7.808,0,0,1,1.264-1.336l-.26.5c-.008-.55-.079-1.147-.134-1.719a15.7,15.7,0,0,0-.286-1.706,12.507,12.507,0,0,0-.46-1.633,8.7,8.7,0,0,0-.705-1.454,5.117,5.117,0,0,0-.516-.688c-.127-.095-.324-.35-.492-.412a.872.872,0,0,0-.529-.136,1.41,1.41,0,0,0-.614.235,5.159,5.159,0,0,0-1.156,1.21A14.882,14.882,0,0,0,79.393,328.092Z" transform="translate(-79.393 -324.007)" fill="#d36a62"/>
                </g>
              </g>
            </g>
          </g>
        </g>
        <g id="Grupo_1230530" data-name="Grupo 1230530" transform="translate(40.059 133.182)">
          <path id="Trazado_1219352" data-name="Trazado 1219352" d="M180.46,462.612a2.223,2.223,0,0,1-2.223,2.223H93.778a2.223,2.223,0,0,1-2.223-2.223h0a2.223,2.223,0,0,1,2.223-2.223h84.459a2.223,2.223,0,0,1,2.223,2.223Z" transform="translate(-91.555 -407.787)" fill="#002838"/>
          <path id="Trazado_1219353" data-name="Trazado 1219353" d="M221.273,458.259a3.7,3.7,0,0,1-3.7,3.7H144.222a3.7,3.7,0,0,1-3.7-3.7l2.847-49.639a3.7,3.7,0,0,1,3.7-3.7h73.346a3.7,3.7,0,0,1,3.7,3.7Z" transform="translate(-94.089 -404.916)" fill="#01334c"/>
          <path id="Trazado_1219354" data-name="Trazado 1219354" d="M145.924,458.259l2.847-49.639a3.7,3.7,0,0,1,3.7-3.7h-5.407a3.7,3.7,0,0,0-3.7,3.7l-2.847,49.639a3.7,3.7,0,0,0,3.7,3.7h5.407A3.7,3.7,0,0,1,145.924,458.259Z" transform="translate(-94.089 -404.916)" fill="#002838"/>
        </g>
      </g>
    </g>
  </g>
</svg>
