<svg xmlns="http://www.w3.org/2000/svg" xmlns:xlink="http://www.w3.org/1999/xlink" width="505" height="370" viewBox="0 0 505 370">
  <defs>
    <clipPath id="clip-path">
      <rect id="Rectángulo_423046" data-name="Rectángulo 423046" width="505" height="370" transform="translate(915 919)" fill="#fff" stroke="#707070" stroke-width="1"/>
    </clipPath>
  </defs>
  <g id="Enmascarar_grupo_1208518" data-name="Enmascarar grupo 1208518" transform="translate(-915 -919)" clip-path="url(#clip-path)">
    <g id="Grupo_1232483" data-name="Grupo 1232483" transform="translate(13.407 18.083)">
      <rect id="Rectángulo_423045" data-name="Rectángulo 423045" width="455" height="155" transform="translate(938.185 1037.917)" fill="#f6ecfe"/>
      <g id="Content_Placement" transform="translate(915 948.031)">
        <g id="Grupo_1232482" data-name="Grupo 1232482" transform="translate(0)">
          <g id="Grupo_1232266" data-name="Grupo 1232266" transform="translate(178.888 307.589)">
            <ellipse id="Elipse_13759" data-name="Elipse 13759" cx="47.636" cy="6.135" rx="47.636" ry="6.135" fill="#e9e7ff"/>
          </g>
          <g id="Grupo_1232481" data-name="Grupo 1232481" transform="translate(0 0)">
            <g id="Grupo_1232299" data-name="Grupo 1232299" transform="translate(4.356)">
              <g id="Grupo_1232289" data-name="Grupo 1232289">
                <g id="Grupo_1232267" data-name="Grupo 1232267" transform="translate(0 182.166)">
                  <path id="Trazado_1220833" data-name="Trazado 1220833" d="M406.516,2712.87a37.32,37.32,0,0,0-15.174,3.194,164.22,164.22,0,0,0,4.252,18.52,19.421,19.421,0,1,1,14.475,35.149,172.94,172.94,0,0,0,9.959,16.175,37.767,37.767,0,0,0-13.511-73.037Z" transform="translate(-391.342 -2712.87)" fill="#e9e7ff"/>
                </g>
                <g id="Grupo_1232268" data-name="Grupo 1232268" transform="translate(405.041 192.106)">
                  <path id="Trazado_1220834" data-name="Trazado 1220834" d="M4235.68,2844.971a37.807,37.807,0,0,0,27.08,36.226,85.861,85.861,0,0,0,9.826-16.818,19.426,19.426,0,0,1,.851-38.834,19.658,19.658,0,0,1,5.9.907,87.9,87.9,0,0,0-3.383-19.143c-.831-.075-1.663-.094-2.513-.094A37.793,37.793,0,0,0,4235.68,2844.971Z" transform="translate(-4235.68 -2807.215)" fill="#e9e7ff"/>
                </g>
                <g id="Grupo_1232270" data-name="Grupo 1232270" transform="translate(201.884)">
                  <circle id="Elipse_13760" data-name="Elipse 13760" cx="22.086" cy="22.086" r="22.086" transform="translate(0 31.234) rotate(-45)" fill="#e9e7ff"/>
                </g>
                <g id="Grupo_1232273" data-name="Grupo 1232273" transform="translate(277.862 262.399)">
                  <g id="Grupo_1232271" data-name="Grupo 1232271">
                    <path id="Trazado_1220836" data-name="Trazado 1220836" d="M3032.757,3509.365h35.86a22.085,22.085,0,1,0-35.86,0Z" transform="translate(-3028.597 -3474.377)" fill="#fff"/>
                  </g>
                  <g id="Grupo_1232272" data-name="Grupo 1232272" transform="translate(6.087 6.095)">
                    <ellipse id="Elipse_13761" data-name="Elipse 13761" cx="11.312" cy="11.312" rx="11.312" ry="11.312" transform="translate(0 15.997) rotate(-45)" fill="#e9e7ff"/>
                  </g>
                </g>
                <g id="Grupo_1232276" data-name="Grupo 1232276" transform="translate(317.192 158.537)">
                  <g id="Grupo_1232274" data-name="Grupo 1232274" transform="translate(0 0)">
                    <circle id="Elipse_13762" data-name="Elipse 13762" cx="13.329" cy="13.329" r="13.329" transform="translate(0 18.851) rotate(-45)" fill="#fff"/>
                  </g>
                  <g id="Grupo_1232275" data-name="Grupo 1232275" transform="translate(10.502 10.471)">
                    <circle id="Elipse_13763" data-name="Elipse 13763" cx="6.827" cy="6.827" r="6.827" transform="translate(0 13.18) rotate(-74.853)" fill="#e9e7ff"/>
                  </g>
                </g>
                <g id="Grupo_1232279" data-name="Grupo 1232279" transform="translate(233.124 117.827)">
                  <g id="Grupo_1232277" data-name="Grupo 1232277">
                    <circle id="Elipse_13764" data-name="Elipse 13764" cx="13.329" cy="13.329" r="13.329" fill="#fff"/>
                  </g>
                  <g id="Grupo_1232278" data-name="Grupo 1232278" transform="translate(5.723 5.741)">
                    <circle id="Elipse_13765" data-name="Elipse 13765" cx="6.827" cy="6.827" r="6.827" transform="translate(0 13.556) rotate(-83.137)" fill="#e9e7ff"/>
                  </g>
                </g>
                <g id="Grupo_1232282" data-name="Grupo 1232282" transform="translate(172.543 202.38)">
                  <g id="Grupo_1232280" data-name="Grupo 1232280">
                    <circle id="Elipse_13766" data-name="Elipse 13766" cx="13.329" cy="13.329" r="13.329" fill="#fff"/>
                  </g>
                  <g id="Grupo_1232281" data-name="Grupo 1232281" transform="translate(4.32 4.319)">
                    <circle id="Elipse_13767" data-name="Elipse 13767" cx="6.827" cy="6.827" r="6.827" transform="translate(0 5.492) rotate(-23.717)" fill="#e9e7ff"/>
                  </g>
                </g>
                <g id="Grupo_1232288" data-name="Grupo 1232288" transform="translate(106.146 88.242)">
                  <g id="Grupo_1232286" data-name="Grupo 1232286" transform="translate(0 0)">
                    <circle id="Elipse_13768" data-name="Elipse 13768" cx="13.329" cy="13.329" r="13.329" transform="translate(0 18.851) rotate(-45)" fill="#fff"/>
                  </g>
                  <g id="Grupo_1232287" data-name="Grupo 1232287" transform="translate(9.196 9.196)">
                    <circle id="Elipse_13769" data-name="Elipse 13769" cx="6.827" cy="6.827" r="6.827" transform="translate(0 9.655) rotate(-45)" fill="#e9e7ff"/>
                  </g>
                </g>
              </g>
              <g id="Grupo_1232292" data-name="Grupo 1232292" transform="translate(72.506 139.328)">
                <g id="Grupo_1232290" data-name="Grupo 1232290">
                  <circle id="Elipse_13770" data-name="Elipse 13770" cx="10.556" cy="10.556" r="10.556" fill="#fff"/>
                </g>
                <g id="Grupo_1232291" data-name="Grupo 1232291" transform="translate(2.908 2.909)">
                  <circle id="Elipse_13771" data-name="Elipse 13771" cx="5.407" cy="5.407" r="5.407" transform="translate(0 7.646) rotate(-45)" fill="#e9e7ff"/>
                </g>
              </g>
              <g id="Grupo_1232295" data-name="Grupo 1232295" transform="translate(62.569 76.207)">
                <g id="Grupo_1232293" data-name="Grupo 1232293">
                  <circle id="Elipse_13772" data-name="Elipse 13772" cx="10.556" cy="10.556" r="10.556" fill="#fff"/>
                </g>
                <g id="Grupo_1232294" data-name="Grupo 1232294" transform="translate(2.908 2.91)">
                  <ellipse id="Elipse_13773" data-name="Elipse 13773" cx="5.407" cy="5.407" rx="5.407" ry="5.407" transform="translate(0 7.646) rotate(-45)" fill="#e9e7ff"/>
                </g>
              </g>
              <g id="Grupo_1232298" data-name="Grupo 1232298" transform="translate(319.94 222.299)">
                <g id="Grupo_1232296" data-name="Grupo 1232296">
                  <circle id="Elipse_13774" data-name="Elipse 13774" cx="10.556" cy="10.556" r="10.556" fill="#fff"/>
                </g>
                <g id="Grupo_1232297" data-name="Grupo 1232297" transform="translate(5.006 5.024)">
                  <ellipse id="Elipse_13775" data-name="Elipse 13775" cx="5.407" cy="5.407" rx="5.407" ry="5.407" transform="matrix(1, -0.023, 0.023, 1, 0, 0.249)" fill="#e9e7ff"/>
                </g>
              </g>
            </g>
            <g id="Grupo_1232309" data-name="Grupo 1232309" transform="translate(116.06 30.548)">
              <g id="Grupo_1232304" data-name="Grupo 1232304">
                <g id="Grupo_1232300" data-name="Grupo 1232300">
                  <path id="Trazado_1220839" data-name="Trazado 1220839" d="M1684.88,1288v239.77a14.162,14.162,0,0,1-14.171,14.171H1465.724a14.162,14.162,0,0,1-14.171-14.171V1288a14.173,14.173,0,0,1,14.171-14.171h204.985A14.174,14.174,0,0,1,1684.88,1288Z" transform="translate(-1451.553 -1273.832)" fill="#452b99"/>
                </g>
                <g id="Grupo_1232301" data-name="Grupo 1232301" transform="translate(3.503 18.093)">
                  <path id="Trazado_1220840" data-name="Trazado 1220840" d="M1484.8,1682.249V1455.383a9.83,9.83,0,0,1,9.83-9.83H1701.3a9.83,9.83,0,0,1,9.83,9.83v226.866a9.83,9.83,0,0,1-9.83,9.83H1494.63A9.83,9.83,0,0,1,1484.8,1682.249Z" transform="translate(-1484.8 -1445.553)" fill="#8f6dff"/>
                </g>
                <g id="Grupo_1232303" data-name="Grupo 1232303" transform="translate(126.705 38.812)" opacity="0.1">
                  <g id="Grupo_1232302" data-name="Grupo 1232302">
                    <path id="Trazado_1220841" data-name="Trazado 1220841" d="M2654.14,1703.462v-58.595a2.66,2.66,0,0,1,2.66-2.66h84.909a2.659,2.659,0,0,1,2.66,2.66v58.595a2.66,2.66,0,0,1-2.66,2.66H2656.8A2.659,2.659,0,0,1,2654.14,1703.462Z" transform="translate(-2654.14 -1642.207)"/>
                  </g>
                </g>
              </g>
              <g id="Grupo_1232308" data-name="Grupo 1232308" transform="translate(12.595 7.731)">
                <g id="Grupo_1232305" data-name="Grupo 1232305">
                  <path id="Trazado_1220842" data-name="Trazado 1220842" d="M1574.147,1352.442a2.634,2.634,0,1,1,2.181-3.012A2.625,2.625,0,0,1,1574.147,1352.442Z" transform="translate(-1571.093 -1347.208)" fill="#8f6dff"/>
                </g>
                <g id="Grupo_1232306" data-name="Grupo 1232306" transform="translate(7.447)">
                  <path id="Trazado_1220843" data-name="Trazado 1220843" d="M1644.828,1352.442a2.634,2.634,0,1,1,2.18-3.012A2.625,2.625,0,0,1,1644.828,1352.442Z" transform="translate(-1641.773 -1347.208)" fill="#8f6dff"/>
                </g>
                <g id="Grupo_1232307" data-name="Grupo 1232307" transform="translate(14.893)">
                  <path id="Trazado_1220844" data-name="Trazado 1220844" d="M1715.5,1352.442a2.634,2.634,0,1,1,2.181-3.012A2.625,2.625,0,0,1,1715.5,1352.442Z" transform="translate(-1712.443 -1347.208)" fill="#8f6dff"/>
                </g>
              </g>
            </g>
            <g id="Grupo_1232346" data-name="Grupo 1232346" transform="translate(0 59.589)">
              <g id="Grupo_1232310" data-name="Grupo 1232310" transform="translate(89.105 46.638)">
                <path id="Trazado_1220845" data-name="Trazado 1220845" d="M1195.72,2000.349l3.676,7.3s10.386-4.425,11.539-11.905-9.786-1.082-9.786-1.082Z" transform="translate(-1195.72 -1992.119)" fill="#ffadaf"/>
              </g>
              <g id="Grupo_1232311" data-name="Grupo 1232311" transform="translate(7.656 48.161)">
                <path id="Trazado_1220846" data-name="Trazado 1220846" d="M422.666,2011.377l11.346,17.77,13.919,2.2s30.687,19.971,38.553,22.267,23.742-30.262,23.742-30.262c.739-2.4-4.4-10.807-5.331-11.773l-27.084,25.906s-19.732-25.245-25.713-29.568S422.992,2011.122,422.666,2011.377Z" transform="translate(-422.666 -2006.578)" fill="#ab1447"/>
              </g>
              <g id="Grupo_1232314" data-name="Grupo 1232314" transform="translate(49.141 245.937)">
                <g id="Grupo_1232312" data-name="Grupo 1232312">
                  <path id="Trazado_1220847" data-name="Trazado 1220847" d="M838.741,3899.689a1.138,1.138,0,0,1-1.115.959H817.538a1.131,1.131,0,0,1-1.128-1.14c.013-1.789.091-5.327.272-8.333.168-2.515.4-4.692.765-5.094.985-1.153,5.923-2.372,5.923-2.372l4.679,2.644a30.528,30.528,0,0,0,1.478,5.469.4.4,0,0,0,.194.169c.829.389,7.932,1.594,8.839,3.11C839.181,3896.164,838.936,3898.42,838.741,3899.689Z" transform="translate(-816.41 -3883.709)" fill="#10273c"/>
                </g>
                <g id="Grupo_1232313" data-name="Grupo 1232313" transform="translate(0.272 0.001)">
                  <path id="Trazado_1220848" data-name="Trazado 1220848" d="M831.839,3891.827c-.415.233-7.154,3.915-12.844-.648.168-2.514.4-4.692.765-5.094.985-1.153,5.923-2.371,5.923-2.371l4.316.868s.143.752.363,1.775A30.527,30.527,0,0,0,831.839,3891.827Z" transform="translate(-818.995 -3883.714)" fill="#ffadaf"/>
                </g>
              </g>
              <g id="Grupo_1232317" data-name="Grupo 1232317" transform="translate(8.372 245.937)">
                <g id="Grupo_1232315" data-name="Grupo 1232315">
                  <path id="Trazado_1220849" data-name="Trazado 1220849" d="M451.79,3899.689a1.138,1.138,0,0,1-1.115.959H430.587a1.131,1.131,0,0,1-1.128-1.14c.013-1.789.091-5.327.272-8.333.168-2.515.4-4.692.765-5.094.985-1.153,5.923-2.372,5.923-2.372l4.679,2.644a30.517,30.517,0,0,0,1.478,5.469.4.4,0,0,0,.194.169c.829.389,7.932,1.594,8.839,3.11C452.231,3896.164,451.984,3898.42,451.79,3899.689Z" transform="translate(-429.459 -3883.709)" fill="#10273c"/>
                </g>
                <g id="Grupo_1232316" data-name="Grupo 1232316" transform="translate(0.272 0.001)">
                  <path id="Trazado_1220850" data-name="Trazado 1220850" d="M444.888,3891.827c-.415.233-7.154,3.915-12.844-.648.168-2.514.4-4.692.765-5.094.985-1.153,5.923-2.371,5.923-2.371l4.316.868s.143.752.363,1.775A30.521,30.521,0,0,0,444.888,3891.827Z" transform="translate(-432.044 -3883.714)" fill="#ffadaf"/>
                </g>
              </g>
              <g id="Grupo_1232318" data-name="Grupo 1232318" transform="translate(24.526 28.584)">
                <path id="Trazado_1220851" data-name="Trazado 1220851" d="M592.183,1841.351l1-5.34s4.246,1.2,4.834-1.09.914-12.932-2.613-13.847-10.973.457-10.973.457l-.392,12.409-1.265,7.3S590.067,1844.906,592.183,1841.351Z" transform="translate(-582.779 -1820.76)" fill="#ffadaf"/>
              </g>
              <g id="Grupo_1232319" data-name="Grupo 1232319" transform="translate(21.411 20.437)">
                <path id="Trazado_1220852" data-name="Trazado 1220852" d="M557.6,1764.767s.711,1.01,2.875.613,4.989-3.532,5.077-3.974.706-3.134,1.413-3.179,1.854,1.457,1.854,1.457l1.148-.618a19.728,19.728,0,0,1,2.579-7.48c2.34-4.15-4.345-10.356-8.892-7.354s-3.674,3.885-6.053,5.165-5.487,3.943-3.986,8.667S557.6,1764.767,557.6,1764.767Z" transform="translate(-553.22 -1743.44)" fill="#262040"/>
              </g>
              <g id="Grupo_1232320" data-name="Grupo 1232320" transform="translate(3.651 134.289)">
                <path id="Trazado_1220853" data-name="Trazado 1220853" d="M442.944,2826.422s7.226,34.633,9.874,60.435c2.344,22.807-6.727,54.771-8.116,54.771-4.839,0-10.7-.109-14.018-.933-1.562-.39-2.561-.933-2.6-1.736-.13-2.539,3.537-53.426,1.736-56.442-1.736-2.908-11.306-26.279-11.913-27.733a.08.08,0,0,1-.022-.065s-4.807,81.814-12.142,85.394a17.044,17.044,0,0,1-8.094,1.5c-5.273-.152-10.134-2.062-11.241-3.19-1.693-1.693,2.55-66.407,2.55-67.362,0-.781-3.711-28.362-4.231-39.993a21.976,21.976,0,0,1,.087-4.644c1.128-4.752,58.568-.933,58.568-.933" transform="translate(-384.656 -2824.038)" fill="#2e1c66"/>
              </g>
              <g id="Grupo_1232321" data-name="Grupo 1232321" transform="translate(3.718 141.317)">
                <path id="Trazado_1220854" data-name="Trazado 1220854" d="M389.516,2930.731c0,.955-4.243,65.669-2.55,67.361,1.107,1.128,5.968,3.038,11.241,3.19,7.031-17.4,10.666-90.8,13.075-89,2.5,1.844,7.161,2.1,7.161,2.1a.08.08,0,0,0,.022.065c.608,1.454,10.177,24.825,11.913,27.733,1.8,3.016-1.866,53.9-1.736,56.441.043.8,1.042,1.346,2.6,1.736a12.97,12.97,0,0,0,1.389-2.582,123.406,123.406,0,0,0,8.919-37.8c1.519-20.593-2.127-41.165-5.751-61.476-15.971,7.79-36.152,3.06-50.518-7.769C385.8,2902.37,389.516,2929.951,389.516,2930.731Z" transform="translate(-385.284 -2890.738)" fill="#452b99"/>
              </g>
              <g id="Grupo_1232345" data-name="Grupo 1232345">
                <g id="Grupo_1232323" data-name="Grupo 1232323" transform="translate(116.06 3.293)" opacity="0.1">
                  <g id="Grupo_1232322" data-name="Grupo 1232322">
                    <path id="Trazado_1220855" data-name="Trazado 1220855" d="M1562.629,1585.859v67.809a5.14,5.14,0,0,1-5.134,5.143h-105.94v-78.085h105.94A5.136,5.136,0,0,1,1562.629,1585.859Z" transform="translate(-1451.555 -1580.725)"/>
                  </g>
                </g>
                <g id="Grupo_1232324" data-name="Grupo 1232324" transform="translate(88.367 66.407)">
                  <path id="Trazado_1220856" data-name="Trazado 1220856" d="M1188.71,2188.348l5.924-5.586c.15-.216,1.809-2.709.291-3C1193.349,2179.452,1188.71,2188.348,1188.71,2188.348Z" transform="translate(-1188.71 -2179.754)" fill="#ffadaf"/>
                </g>
                <g id="Grupo_1232325" data-name="Grupo 1232325" transform="translate(94.532 0.442)">
                  <path id="Trazado_1220857" data-name="Trazado 1220857" d="M1252.072,1631.742h120.207a4.848,4.848,0,0,0,4.848-4.848v-68.38a4.848,4.848,0,0,0-4.848-4.848H1252.072a4.848,4.848,0,0,0-4.848,4.848v68.38A4.849,4.849,0,0,0,1252.072,1631.742Z" transform="translate(-1247.224 -1553.666)" fill="#6737c1"/>
                </g>
                <g id="Grupo_1232334" data-name="Grupo 1232334" transform="translate(233.197)">
                  <g id="Grupo_1232326" data-name="Grupo 1232326" transform="translate(101.736)">
                    <path id="Trazado_1220858" data-name="Trazado 1220858" d="M3532.023,1553.006a.442.442,0,0,1-.442-.443v-2.212h-2.212a.442.442,0,1,1,0-.885h2.655a.443.443,0,0,1,.443.442v2.655A.442.442,0,0,1,3532.023,1553.006Z" transform="translate(-3528.926 -1549.467)" fill="#6737c1"/>
                  </g>
                  <g id="Grupo_1232327" data-name="Grupo 1232327" transform="translate(104.391 8.253)">
                    <path id="Trazado_1220859" data-name="Trazado 1220859" d="M3554.563,1690.251a.442.442,0,0,1-.442-.442v-5.6a.443.443,0,1,1,.885,0v5.6A.442.442,0,0,1,3554.563,1690.251Zm0-11.2a.442.442,0,0,1-.442-.442v-5.6a.443.443,0,0,1,.885,0v5.6A.441.441,0,0,1,3554.563,1679.055Zm0-11.194a.442.442,0,0,1-.442-.443v-5.6a.443.443,0,1,1,.885,0v5.6A.442.442,0,0,1,3554.563,1667.861Zm0-11.195a.442.442,0,0,1-.442-.442v-5.6a.443.443,0,1,1,.885,0v5.6A.442.442,0,0,1,3554.563,1656.667Zm0-11.2a.442.442,0,0,1-.442-.442v-5.6a.443.443,0,1,1,.885,0v5.6A.442.442,0,0,1,3554.563,1645.471Zm0-11.195a.442.442,0,0,1-.442-.442v-5.6a.443.443,0,1,1,.885,0v5.6A.442.442,0,0,1,3554.563,1634.276Z" transform="translate(-3554.121 -1627.794)" fill="#6737c1"/>
                  </g>
                  <g id="Grupo_1232328" data-name="Grupo 1232328" transform="translate(101.736 75.422)">
                    <path id="Trazado_1220860" data-name="Trazado 1220860" d="M3532.023,2268.856h-2.655a.443.443,0,0,1,0-.885h2.212v-2.212a.443.443,0,0,1,.885,0v2.655A.442.442,0,0,1,3532.023,2268.856Z" transform="translate(-3528.926 -2265.317)" fill="#6737c1"/>
                  </g>
                  <g id="Grupo_1232329" data-name="Grupo 1232329" transform="translate(7.87 78.077)">
                    <path id="Trazado_1220861" data-name="Trazado 1220861" d="M2727.119,2291.4H2721.9a.443.443,0,1,1,0-.885h5.215a.443.443,0,0,1,0,.885Zm-10.43,0h-5.215a.443.443,0,0,1,0-.885h5.215a.443.443,0,1,1,0,.885Zm-10.431,0h-5.214a.443.443,0,1,1,0-.885h5.214a.443.443,0,1,1,0,.885Zm-10.429,0h-5.214a.443.443,0,0,1,0-.885h5.214a.443.443,0,1,1,0,.885Zm-10.429,0h-5.215a.443.443,0,1,1,0-.885h5.215a.443.443,0,0,1,0,.885Zm-10.43,0h-5.215a.443.443,0,0,1,0-.885h5.215a.443.443,0,0,1,0,.885Zm-10.431,0h-5.215a.443.443,0,0,1,0-.885h5.215a.443.443,0,0,1,0,.885Zm-10.429,0H2648.9a.443.443,0,1,1,0-.885h5.215a.443.443,0,0,1,0,.885Zm-10.429,0h-5.215a.443.443,0,0,1,0-.885h5.215a.443.443,0,1,1,0,.885Z" transform="translate(-2638.024 -2290.512)" fill="#6737c1"/>
                  </g>
                  <g id="Grupo_1232330" data-name="Grupo 1232330" transform="translate(0 75.422)">
                    <path id="Trazado_1220862" data-name="Trazado 1220862" d="M2566.423,2268.856h-2.655a.443.443,0,0,1-.443-.442v-2.655a.443.443,0,0,1,.885,0v2.212h2.212a.443.443,0,0,1,0,.885Z" transform="translate(-2563.326 -2265.317)" fill="#6737c1"/>
                  </g>
                  <g id="Grupo_1232331" data-name="Grupo 1232331" transform="translate(0.001 8.253)">
                    <path id="Trazado_1220863" data-name="Trazado 1220863" d="M2563.773,1690.251a.442.442,0,0,1-.442-.442v-5.6a.443.443,0,1,1,.885,0v5.6A.443.443,0,0,1,2563.773,1690.251Zm0-11.2a.442.442,0,0,1-.442-.442v-5.6a.443.443,0,0,1,.885,0v5.6A.442.442,0,0,1,2563.773,1679.055Zm0-11.194a.442.442,0,0,1-.442-.443v-5.6a.443.443,0,1,1,.885,0v5.6A.443.443,0,0,1,2563.773,1667.861Zm0-11.195a.442.442,0,0,1-.442-.442v-5.6a.443.443,0,1,1,.885,0v5.6A.443.443,0,0,1,2563.773,1656.667Zm0-11.2a.442.442,0,0,1-.442-.442v-5.6a.443.443,0,1,1,.885,0v5.6A.443.443,0,0,1,2563.773,1645.471Zm0-11.195a.442.442,0,0,1-.442-.442v-5.6a.443.443,0,1,1,.885,0v5.6A.442.442,0,0,1,2563.773,1634.276Z" transform="translate(-2563.331 -1627.794)" fill="#6737c1"/>
                  </g>
                  <g id="Grupo_1232332" data-name="Grupo 1232332" transform="translate(0.001)">
                    <path id="Trazado_1220864" data-name="Trazado 1220864" d="M2563.773,1553.006a.442.442,0,0,1-.442-.443v-2.655a.442.442,0,0,1,.442-.442h2.655a.442.442,0,0,1,0,.885h-2.212v2.212A.443.443,0,0,1,2563.773,1553.006Z" transform="translate(-2563.331 -1549.467)" fill="#6737c1"/>
                  </g>
                  <g id="Grupo_1232333" data-name="Grupo 1232333" transform="translate(7.87 0.001)">
                    <path id="Trazado_1220865" data-name="Trazado 1220865" d="M2727.119,1550.357H2721.9a.442.442,0,1,1,0-.885h5.215a.442.442,0,0,1,0,.885Zm-10.43,0h-5.215a.442.442,0,0,1,0-.885h5.215a.442.442,0,1,1,0,.885Zm-10.431,0h-5.214a.442.442,0,1,1,0-.885h5.214a.442.442,0,1,1,0,.885Zm-10.429,0h-5.215a.442.442,0,1,1,0-.885h5.215a.442.442,0,1,1,0,.885Zm-10.429,0h-5.215a.442.442,0,1,1,0-.885h5.215a.442.442,0,1,1,0,.885Zm-10.431,0h-5.214a.442.442,0,1,1,0-.885h5.214a.442.442,0,0,1,0,.885Zm-10.43,0h-5.215a.442.442,0,1,1,0-.885h5.215a.442.442,0,1,1,0,.885Zm-10.429,0H2648.9a.442.442,0,1,1,0-.885h5.215a.442.442,0,0,1,0,.885Zm-10.429,0h-5.215a.442.442,0,1,1,0-.885h5.215a.442.442,0,1,1,0,.885Z" transform="translate(-2638.024 -1549.472)" fill="#6737c1"/>
                  </g>
                </g>
                <g id="Grupo_1232335" data-name="Grupo 1232335" transform="translate(240.72 7.524)">
                  <path id="Trazado_1220866" data-name="Trazado 1220866" d="M2634.73,1682.133v-58.595a2.66,2.66,0,0,1,2.66-2.66h84.91a2.66,2.66,0,0,1,2.66,2.66v58.595a2.66,2.66,0,0,1-2.66,2.66h-84.91A2.66,2.66,0,0,1,2634.73,1682.133Z" transform="translate(-2634.73 -1620.878)" fill="#6737c1"/>
                </g>
                <g id="Grupo_1232337" data-name="Grupo 1232337" transform="translate(263.543 56.235)" opacity="0.1">
                  <g id="Grupo_1232336" data-name="Grupo 1232336">
                    <path id="Trazado_1220867" data-name="Trazado 1220867" d="M2896.723,2083.764v1.637a.554.554,0,0,1-.549.558H2851.9a.554.554,0,0,1-.549-.558v-1.637a.554.554,0,0,1,.549-.558h44.273A.554.554,0,0,1,2896.723,2083.764Z" transform="translate(-2851.352 -2083.206)"/>
                  </g>
                </g>
                <g id="Grupo_1232339" data-name="Grupo 1232339" transform="translate(273.295 14.089)" opacity="0.1">
                  <g id="Grupo_1232338" data-name="Grupo 1232338">
                    <circle id="Elipse_13776" data-name="Elipse 13776" cx="14.22" cy="14.22" r="14.22"/>
                  </g>
                </g>
                <g id="Grupo_1232341" data-name="Grupo 1232341" transform="translate(254.385 46.001)" opacity="0.1">
                  <g id="Grupo_1232340" data-name="Grupo 1232340">
                    <path id="Trazado_1220868" data-name="Trazado 1220868" d="M2828.863,1987.149v3.78a1.073,1.073,0,0,1-1.08,1.08h-62.277a1.073,1.073,0,0,1-1.08-1.08v-3.78a1.073,1.073,0,0,1,1.08-1.08h62.277A1.072,1.072,0,0,1,2828.863,1987.149Z" transform="translate(-2764.426 -1986.069)"/>
                  </g>
                </g>
                <g id="Grupo_1232342" data-name="Grupo 1232342" transform="translate(88.367 64.932)">
                  <path id="Trazado_1220869" data-name="Trazado 1220869" d="M1188.71,2175.824l4.958,5.708s10.226-.975,8.726-11.2c-1.472-10.011-7.4-.544-7.761-.094Z" transform="translate(-1188.71 -2165.756)" fill="#ffadaf"/>
                </g>
                <g id="Grupo_1232343" data-name="Grupo 1232343" transform="translate(0 47.581)">
                  <path id="Trazado_1220870" data-name="Trazado 1220870" d="M351.825,2092.936c1.261,2.4,10.333,4.89,12.289,5.315s2.934-8.5,2.934-8.5a59.271,59.271,0,0,0,3.884,8.916c2.424,3.841,36.668-3.288,41.005-8.5,2.977-3.6-6.874-37.123-7.215-38.667l.057.085c.907,2.012,8.66,18.469,18.852,17.661,10.871-.836,22.31-25.8,22.466-31.509a6.83,6.83,0,0,0-1.091-3.926c-1.814-2.948-5.556-5.937-7.587-6.212-1.981-.268-13.221,16.134-13.221,16.134S413.36,2023.2,409,2016.821c-14.333-20.993-44.361-17.778-53.074-8.889C346.841,2017.2,350.578,2090.568,351.825,2092.936Z" transform="translate(-350 -2001.067)" fill="#ff2e56"/>
                </g>
                <g id="Grupo_1232344" data-name="Grupo 1232344" transform="translate(48.509 70.423)">
                  <path id="Trazado_1220871" data-name="Trazado 1220871" d="M816.59,2245.338l.022.065.065.13c.911,2.018,8.658,18.467,18.857,17.664,10.872-.846,22.308-25.8,22.46-31.508a6.792,6.792,0,0,0-1.085-3.927c-3.581,5.989-13.172,21.4-22.112,22.46-11.176,1.323-24.087-32.355-24.087-32.355C808.8,2224.377,816.59,2245.338,816.59,2245.338Z" transform="translate(-810.408 -2217.866)" fill="#ab1447"/>
                </g>
              </g>
            </g>
            <g id="Grupo_1232375" data-name="Grupo 1232375" transform="translate(201.443 93.798)">
              <g id="Grupo_1232347" data-name="Grupo 1232347" transform="translate(192.857 90.172)">
                <path id="Trazado_1220872" data-name="Trazado 1220872" d="M4136.5,2729.99a43.961,43.961,0,0,1,14.358,2.4c-.055,1.475-.124,2.943-.218,4.418-1.731,28.482-9.613,57.415-24.111,80.26a44.11,44.11,0,0,1,9.97-87.078Z" transform="translate(-4092.392 -2729.99)" fill="#edebff"/>
              </g>
              <g id="Grupo_1232348" data-name="Grupo 1232348" transform="translate(143.397 42.228)">
                <path id="Trazado_1220873" data-name="Trazado 1220873" d="M3623.605,2312.206c-1.48,3.69-.255,7.866,2.04,12.233,0,0,11.5.165,24.066-.748a128.287,128.287,0,0,0,21.273-3.028l.3-.078c16.14-4.272,0-39.867,0-39.867l-15.531-5.769c-1.74,4.49-2.558,24.527-4.7,26.476C3648.459,2303.775,3623.605,2312.206,3623.605,2312.206Z" transform="translate(-3622.959 -2274.949)" fill="#0df3ff"/>
              </g>
              <g id="Grupo_1232349" data-name="Grupo 1232349" transform="translate(154.936 81.865)">
                <path id="Trazado_1220874" data-name="Trazado 1220874" d="M3734.032,2656.4c-.089-.195-1.558-3.381-1.558-4.9,0-1.576,5.311,2.726,5.311,2.726Z" transform="translate(-3732.474 -2651.146)" fill="#ffadaf"/>
              </g>
              <g id="Grupo_1232351" data-name="Grupo 1232351" transform="translate(5.661 64.996)" opacity="0.1">
                <g id="Grupo_1232350" data-name="Grupo 1232350">
                  <path id="Trazado_1220875" data-name="Trazado 1220875" d="M2457.955,2491.04v67.526H2319.664a3.993,3.993,0,0,1-3.992-3.992v-59.542a3.993,3.993,0,0,1,3.992-3.991Z" transform="translate(-2315.672 -2491.04)"/>
                </g>
              </g>
              <g id="Grupo_1232352" data-name="Grupo 1232352" transform="translate(0 60.464)">
                <path id="Trazado_1220876" data-name="Trazado 1220876" d="M2414.451,2515.55H2265.935a3.993,3.993,0,0,1-3.993-3.993v-59.538a3.993,3.993,0,0,1,3.993-3.993h148.516a3.993,3.993,0,0,1,3.993,3.993v59.538A3.993,3.993,0,0,1,2414.451,2515.55Z" transform="translate(-2261.942 -2448.026)" fill="#6737c1"/>
              </g>
              <g id="Grupo_1232358" data-name="Grupo 1232358" transform="translate(91.337 72.008)" opacity="0.15">
                <g id="Grupo_1232353" data-name="Grupo 1232353" transform="translate(0.001)">
                  <path id="Trazado_1220877" data-name="Trazado 1220877" d="M3185.3,2567.93h-54.936a1.516,1.516,0,0,1-1.516-1.516v-7.3a1.516,1.516,0,0,1,1.516-1.517H3185.3a1.516,1.516,0,0,1,1.516,1.517v7.3A1.517,1.517,0,0,1,3185.3,2567.93Z" transform="translate(-3128.848 -2557.595)"/>
                </g>
                <g id="Grupo_1232354" data-name="Grupo 1232354" transform="translate(0 17.001)">
                  <rect id="Rectángulo_423025" data-name="Rectángulo 423025" width="49.575" height="2.164"/>
                </g>
                <g id="Grupo_1232355" data-name="Grupo 1232355" transform="translate(0 24.587)">
                  <rect id="Rectángulo_423026" data-name="Rectángulo 423026" width="49.575" height="2.164"/>
                </g>
                <g id="Grupo_1232356" data-name="Grupo 1232356" transform="translate(0 32.173)">
                  <rect id="Rectángulo_423027" data-name="Rectángulo 423027" width="49.575" height="2.164"/>
                </g>
                <g id="Grupo_1232357" data-name="Grupo 1232357" transform="translate(0 39.759)">
                  <rect id="Rectángulo_423028" data-name="Rectángulo 423028" width="49.575" height="2.164"/>
                </g>
              </g>
              <g id="Grupo_1232359" data-name="Grupo 1232359" transform="translate(220.455 213.35)">
                <path id="Trazado_1220878" data-name="Trazado 1220878" d="M4379.759,3900.119v13.087a1.155,1.155,0,0,1-1.085,1.219h-23.261a1.16,1.16,0,0,1-1.085-1.258,5.51,5.51,0,0,1,.436-2.528c4.93-4.474,9.613-3.137,10.239-5.242a28.65,28.65,0,0,0,.873-4.448S4378.935,3897.431,4379.759,3900.119Z" transform="translate(-4354.328 -3899.107)" fill="#100a48"/>
              </g>
              <g id="Grupo_1232360" data-name="Grupo 1232360" transform="translate(177.086 215.188)">
                <path id="Trazado_1220879" data-name="Trazado 1220879" d="M3968.14,3919.026v9.782a1.154,1.154,0,0,1-1.085,1.218h-23.261a1.16,1.16,0,0,1-1.085-1.257,5.515,5.515,0,0,1,.436-2.529c4.931-4.474,9.613-3.137,10.239-5.242a28.623,28.623,0,0,0,.873-4.448S3967.315,3916.338,3968.14,3919.026Z" transform="translate(-3942.709 -3916.547)" fill="#100a48"/>
              </g>
              <g id="Grupo_1232361" data-name="Grupo 1232361" transform="translate(170.15 44.368)">
                <path id="Trazado_1220880" data-name="Trazado 1220880" d="M3876.88,2341.86a128.323,128.323,0,0,0,21.273-3.028,13.1,13.1,0,0,0,4.846-5.264c1.366-3.037.939-6.56.2-9.814a58.413,58.413,0,0,0-15.861-28.495l-4.238,3.82c-1.47,10.188,4.638,20.63,2,30.583a24.149,24.149,0,0,1-6.63,10.711Q3877.7,2341.142,3876.88,2341.86Z" transform="translate(-3876.88 -2295.259)" fill="#00a5d7"/>
              </g>
              <g id="Grupo_1232362" data-name="Grupo 1232362" transform="translate(178.154 96.007)">
                <path id="Trazado_1220881" data-name="Trazado 1220881" d="M3952.845,2851.161c-.052,7.857,3.959,53.23,5.029,55.023.992,1.662,9.866,1.845,16.044,1.523,3.115-.165,5.551-.453,5.942-.749.966-.731,2.6-46.017,3.341-51.673.67-5.1,4.977-25.51,6.4-32.227.287-1.358.461-2.158.461-2.158a234.229,234.229,0,0,0,.722,33.7c2.471,26.3,8.126,52.308,9.684,52.769,2.036.609,11.589,1.131,17.114.087a7.108,7.108,0,0,0,3.6-1.418c2.375-2.489.383-44.973.983-59.834,1.253-31.471,4.046-54.44,2.61-58.365,0,0-56.363-6.021-61.088.766a14.362,14.362,0,0,0-1.522,3.454C3957.761,2805.273,3952.88,2845.323,3952.845,2851.161Z" transform="translate(-3952.845 -2785.375)" fill="#452b96"/>
              </g>
              <g id="Grupo_1232363" data-name="Grupo 1232363" transform="translate(187.482 96.007)">
                <path id="Trazado_1220882" data-name="Trazado 1220882" d="M4041.38,2792.056c2.036,2.584,5.96,4.115,8.614,5.325a64.064,64.064,0,0,0,32.941,5.334c3.071-.313,15.179-1.432,15.213-2.311-1.122,29.635-1.222,56.855-2.2,86.5-.3,8.988,1.139,11.563.852,20.551a7.1,7.1,0,0,0,3.6-1.418c2.375-2.489.383-44.973.983-59.834,1.253-31.471,4.046-54.441,2.611-58.364,0,0-56.363-6.021-61.088.766A14.343,14.343,0,0,0,4041.38,2792.056Z" transform="translate(-4041.38 -2785.374)" fill="#352171"/>
              </g>
              <g id="Grupo_1232365" data-name="Grupo 1232365" transform="translate(176.104 21.879)">
                <g id="Grupo_1232364" data-name="Grupo 1232364">
                  <path id="Trazado_1220883" data-name="Trazado 1220883" d="M3940.907,2132.354c.609,1.9,1.192,3.8,1.749,5.69.087.3.174.618.261.922a47.123,47.123,0,0,1,1.105,5.316c1.314,8.9-.313,15.47.061,16.175,5.96,11.477,38.353,10.075,54.423,5.69,5.246-1.436,8.753-3.185,9.041-4.907,1.731-10.51-11.729-61.906-21.491-74.026a8.868,8.868,0,0,0-.818-.887c-11.241-11.033-49.907-.383-51.769,15.827C3932.719,2108.567,3937.087,2120.312,3940.907,2132.354Z" transform="translate(-3933.383 -2081.805)" fill="#0df3ff"/>
                </g>
              </g>
              <g id="Grupo_1232366" data-name="Grupo 1232366" transform="translate(184.819 26.401)">
                <path id="Trazado_1220884" data-name="Trazado 1220884" d="M4016.1,2174.56c.609,1.9,0,0,.557,1.888.087.3.174.618.261.923a47.073,47.073,0,0,1,1.1,5.316c2.575,4.35.2,11.947.74,12.052,10.136,1.923,17.4,1.053,27.687.122,4.1-.374,19.7-7.814,21.351-3.264q2.349,6.473,4.707,12.955c5.246-1.436,8.753-3.184,9.04-4.907,1.731-10.51-11.729-61.906-21.491-74.026a8.82,8.82,0,0,0-.818-.887,32.464,32.464,0,0,0-8.335,2.923c-2.253,1.036-4.881,1.636-7,2.95-5.351,3.332-6.36,11.755-7.8,17.306-1.07,4.1-2.3,8.266-4.768,11.763C4027.481,2165.155,4022.365,2172.055,4016.1,2174.56Z" transform="translate(-4016.1 -2124.732)" fill="#00a5d7"/>
              </g>
              <g id="Grupo_1232367" data-name="Grupo 1232367" transform="translate(146.281 84.937)">
                <path id="Trazado_1220885" data-name="Trazado 1220885" d="M3664.3,2680.31l3.134,10.551s-12.613,7.028-16.419-3.257c-3.735-10.126,9.125-5.267,9.533-5.116Z" transform="translate(-3650.333 -2680.31)" fill="#ffadaf"/>
              </g>
              <g id="Grupo_1232368" data-name="Grupo 1232368" transform="translate(159.206 23.352)">
                <path id="Trazado_1220886" data-name="Trazado 1220886" d="M3837.347,2096.01c3.153.644,7.787,4.764,9.473,13.935s4.8,42.723-3.3,50.921c-12.727,12.879-68.509,9.84-68.509,9.84-2.251.148-2.646-13.049-.959-14.592l48.4-14.872S3818.489,2092.157,3837.347,2096.01Z" transform="translate(-3773.008 -2095.794)" fill="#0df3ff"/>
              </g>
              <g id="Grupo_1232369" data-name="Grupo 1232369" transform="translate(199.228 128.748)">
                <path id="Trazado_1220887" data-name="Trazado 1220887" d="M4152.86,3185.722c3.115-.165,5.551-.452,5.943-.748.966-.731,2.6-46.018,3.341-51.673.67-5.1,4.977-25.511,6.4-32.228l.042-2.045a2.08,2.08,0,0,0-1.531-2.854,3.394,3.394,0,0,0-3.228,1.558,9.681,9.681,0,0,0-1.288,3.541,284.46,284.46,0,0,0-7.257,68.331c.087,5.369.3,7.069-1.053,12.263A23.036,23.036,0,0,1,4152.86,3185.722Z" transform="translate(-4152.86 -3096.132)" fill="#352171"/>
              </g>
              <g id="Grupo_1232374" data-name="Grupo 1232374" transform="translate(181.281)">
                <g id="Grupo_1232370" data-name="Grupo 1232370" transform="translate(12.179 12.109)">
                  <path id="Trazado_1220888" data-name="Trazado 1220888" d="M4108.537,1999.866c.06,2.276-7.559,3.7-8.808,2.234-.209-.267-1.185-6-1.265-6.251l-.348-3.576c1.323-.864,4.706-3.054,4.867-3.194a31.209,31.209,0,0,1,1.639,2.879C4106.235,1995.025,4108.528,1999.587,4108.537,1999.866Z" transform="translate(-4098.115 -1989.08)" fill="#ffadaf"/>
                </g>
                <g id="Grupo_1232371" data-name="Grupo 1232371" transform="translate(12.179 12.593)">
                  <path id="Trazado_1220889" data-name="Trazado 1220889" d="M4104.623,1996.072a15.468,15.468,0,0,1-1.444,3.074,12.1,12.1,0,0,1-3.983,4.7c-.331-1.7-.68-3.72-.73-3.882l-.348-3.576s1.571-1.028,2.939-1.911l.577,1.384s.5-1.953,1.682-2.183C4103.6,1994.177,4104.079,1995.043,4104.623,1996.072Z" transform="translate(-4098.117 -1993.676)" fill="#ff9396"/>
                </g>
                <g id="Grupo_1232372" data-name="Grupo 1232372" transform="translate(3.551 7.197)">
                  <path id="Trazado_1220890" data-name="Trazado 1220890" d="M4021.648,1957.3c2.7.758,7.248-2.531,8.81-6.333.862-1.453,2.542-4.593,1.02-5.329-1.807-.9-2.571,2.042-2.571,2.042l-2.179-5.218s-9.9,1.361-10.438,2.4C4015.8,1945.8,4018.048,1956.285,4021.648,1957.3Z" transform="translate(-4016.224 -1942.457)" fill="#ffadaf"/>
                </g>
                <g id="Grupo_1232373" data-name="Grupo 1232373">
                  <path id="Trazado_1220891" data-name="Trazado 1220891" d="M3982.668,1883.983c.344.748,2.309.9,3.47,1.127,3.8.74,10.58-.817,10.651-.811.1.007.647,2.641.866,2.756s1.1-.488,1.1-.488.763-2.937,2.571-2.042c1.548.749-1.058,4.144-.12,4.615,4.55-3.531,3.009-11.683-3.458-14.458S3981.169,1880.756,3982.668,1883.983Z" transform="translate(-3982.518 -1874.151)" fill="#0c1d53"/>
                </g>
              </g>
            </g>
            <g id="Grupo_1232376" data-name="Grupo 1232376" transform="translate(90.268 103.654)">
              <path id="Trazado_1220892" data-name="Trazado 1220892" d="M1210.872,1977.275h-4.116s3.531-10.843,7-9.462S1210.872,1977.275,1210.872,1977.275Z" transform="translate(-1206.756 -1967.691)" fill="#ffadaf"/>
            </g>
            <g id="Grupo_1232381" data-name="Grupo 1232381" transform="translate(272.237 72.878)">
              <g id="Grupo_1232377" data-name="Grupo 1232377">
                <circle id="Elipse_13777" data-name="Elipse 13777" cx="14.22" cy="14.22" r="14.22" fill="#fff"/>
              </g>
              <g id="Grupo_1232380" data-name="Grupo 1232380" transform="translate(6.427 4.429)">
                <g id="Grupo_1232378" data-name="Grupo 1232378" transform="translate(2.859 0)">
                  <circle id="Elipse_13778" data-name="Elipse 13778" cx="3.502" cy="3.502" r="3.502" transform="translate(0 4.953) rotate(-45)" fill="#ff2e56"/>
                </g>
                <g id="Grupo_1232379" data-name="Grupo 1232379" transform="translate(0 9.537)">
                  <path id="Trazado_1220893" data-name="Trazado 1220893" d="M3010.454,1815.37a7.818,7.818,0,0,0-15.589-.028Z" transform="translate(-2994.865 -1808.149)" fill="#ff2e56"/>
                </g>
              </g>
            </g>
            <g id="Grupo_1232382" data-name="Grupo 1232382" transform="translate(253.617 104.822)">
              <path id="Trazado_1220894" data-name="Trazado 1220894" d="M2821.573,1979.859v3.779a1.073,1.073,0,0,1-1.08,1.08h-62.277a1.073,1.073,0,0,1-1.08-1.08v-3.779a1.073,1.073,0,0,1,1.08-1.08h62.277A1.072,1.072,0,0,1,2821.573,1979.859Z" transform="translate(-2757.136 -1978.779)" fill="#8f6dff"/>
            </g>
            <g id="Grupo_1232383" data-name="Grupo 1232383" transform="translate(263.149 115.299)">
              <path id="Trazado_1220895" data-name="Trazado 1220895" d="M2892.983,2078.775v1.637a.554.554,0,0,1-.549.558h-44.274a.553.553,0,0,1-.549-.558v-1.637a.553.553,0,0,1,.549-.558h44.274A.554.554,0,0,1,2892.983,2078.775Z" transform="translate(-2847.612 -2078.217)" fill="#8f6dff"/>
            </g>
            <g id="Grupo_1232385" data-name="Grupo 1232385" transform="translate(263.543 121.345)" opacity="0.1">
              <g id="Grupo_1232384" data-name="Grupo 1232384">
                <path id="Trazado_1220896" data-name="Trazado 1220896" d="M2896.723,2136.165v1.637a.554.554,0,0,1-.549.558H2851.9a.554.554,0,0,1-.549-.558v-1.637a.554.554,0,0,1,.549-.558h44.273A.553.553,0,0,1,2896.723,2136.165Z" transform="translate(-2851.352 -2135.607)"/>
              </g>
            </g>
            <g id="Grupo_1232386" data-name="Grupo 1232386" transform="translate(263.149 120.821)">
              <path id="Trazado_1220897" data-name="Trazado 1220897" d="M2892.983,2131.185v1.637a.554.554,0,0,1-.549.558h-44.274a.553.553,0,0,1-.549-.558v-1.637a.553.553,0,0,1,.549-.558h44.274A.552.552,0,0,1,2892.983,2131.185Z" transform="translate(-2847.612 -2130.627)" fill="#8f6dff"/>
            </g>
            <g id="Grupo_1232393" data-name="Grupo 1232393" transform="translate(211.05 162.179)">
              <g id="Grupo_1232387" data-name="Grupo 1232387" transform="translate(2.222 2.513)" opacity="0.15">
                <path id="Trazado_1220898" data-name="Trazado 1220898" d="M2445.525,2549.741v43.738a2.719,2.719,0,0,1-2.719,2.719h-65.868a2.719,2.719,0,0,1-2.719-2.719v-43.738a2.719,2.719,0,0,1,2.719-2.719h65.868A2.72,2.72,0,0,1,2445.525,2549.741Z" transform="translate(-2374.219 -2547.022)"/>
              </g>
              <g id="Grupo_1232388" data-name="Grupo 1232388" transform="translate(0 0)">
                <path id="Trazado_1220899" data-name="Trazado 1220899" d="M2424.435,2525.891v43.738a2.719,2.719,0,0,1-2.719,2.719h-65.868a2.718,2.718,0,0,1-2.719-2.719v-43.738a2.719,2.719,0,0,1,2.719-2.719h65.868A2.72,2.72,0,0,1,2424.435,2525.891Z" transform="translate(-2353.129 -2523.172)" fill="#fcc922"/>
              </g>
              <g id="Grupo_1232389" data-name="Grupo 1232389" transform="translate(27.627 14.91)">
                <path id="Trazado_1220900" data-name="Trazado 1220900" d="M2630.534,2675.924l-12.35,7.829a1.851,1.851,0,0,1-2.84-1.565v-15.653a1.848,1.848,0,0,1,2.84-1.56l12.35,7.824A1.847,1.847,0,0,1,2630.534,2675.924Z" transform="translate(-2615.344 -2664.683)" fill="#fff"/>
              </g>
              <g id="Grupo_1232390" data-name="Grupo 1232390" transform="translate(7.426 42.13)">
                <path id="Trazado_1220901" data-name="Trazado 1220901" d="M2458.9,2923.04a2.878,2.878,0,0,0-.055.554,2.785,2.785,0,0,0,.055.549h-34.746a.551.551,0,0,1,0-1.1Z" transform="translate(-2423.61 -2923.04)" fill="#fff"/>
              </g>
              <g id="Grupo_1232391" data-name="Grupo 1232391" transform="translate(48.017 42.13)">
                <path id="Trazado_1220902" data-name="Trazado 1220902" d="M2827.6,2923.587a.551.551,0,0,1-.548.554h-18.185a2.785,2.785,0,0,0,.055-.549,2.879,2.879,0,0,0-.055-.554h18.185A.547.547,0,0,1,2827.6,2923.587Z" transform="translate(-2808.869 -2923.038)" fill="#fff"/>
              </g>
              <g id="Grupo_1232392" data-name="Grupo 1232392" transform="translate(43.095 40.437)">
                <circle id="Elipse_13779" data-name="Elipse 13779" cx="1.89" cy="1.89" r="1.89" transform="translate(0 3.679) rotate(-76.714)" fill="#fff"/>
              </g>
            </g>
            <g id="Grupo_1232399" data-name="Grupo 1232399" transform="translate(292.068 164.566)">
              <g id="Grupo_1232394" data-name="Grupo 1232394">
                <path id="Trazado_1220903" data-name="Trazado 1220903" d="M3178.541,2556.16H3123.6a1.517,1.517,0,0,1-1.517-1.517v-7.3a1.517,1.517,0,0,1,1.517-1.516h54.936a1.516,1.516,0,0,1,1.516,1.516v7.3A1.516,1.516,0,0,1,3178.541,2556.16Z" transform="translate(-3122.088 -2545.825)" fill="#8f6dff"/>
              </g>
              <g id="Grupo_1232395" data-name="Grupo 1232395" transform="translate(0 17.002)">
                <rect id="Rectángulo_423029" data-name="Rectángulo 423029" width="49.575" height="2.164" fill="#8f6dff"/>
              </g>
              <g id="Grupo_1232396" data-name="Grupo 1232396" transform="translate(0 24.587)">
                <rect id="Rectángulo_423030" data-name="Rectángulo 423030" width="49.575" height="2.164" fill="#8f6dff"/>
              </g>
              <g id="Grupo_1232397" data-name="Grupo 1232397" transform="translate(0 32.173)">
                <rect id="Rectángulo_423031" data-name="Rectángulo 423031" width="49.575" height="2.164" fill="#8f6dff"/>
              </g>
              <g id="Grupo_1232398" data-name="Grupo 1232398" transform="translate(0 39.759)">
                <rect id="Rectángulo_423032" data-name="Rectángulo 423032" width="49.575" height="2.164" fill="#8f6dff"/>
              </g>
            </g>
            <g id="Grupo_1232401" data-name="Grupo 1232401" transform="translate(104.407 75.914)" opacity="0.1">
              <g id="Grupo_1232400" data-name="Grupo 1232400" transform="translate(0)">
                <path id="Trazado_1220904" data-name="Trazado 1220904" d="M1386.682,1750.718H1344.2a3.253,3.253,0,0,1-3.253-3.253v-39.807a3.253,3.253,0,0,1,3.253-3.253h42.478a3.253,3.253,0,0,1,3.253,3.253v39.807A3.254,3.254,0,0,1,1386.682,1750.718Z" transform="translate(-1340.951 -1704.404)"/>
              </g>
            </g>
            <g id="Grupo_1232402" data-name="Grupo 1232402" transform="translate(102.182 74.199)">
              <path id="Trazado_1220905" data-name="Trazado 1220905" d="M1365.562,1734.448h-42.478a3.253,3.253,0,0,1-3.254-3.253v-39.807a3.253,3.253,0,0,1,3.254-3.254h42.478a3.254,3.254,0,0,1,3.254,3.254v39.807A3.253,3.253,0,0,1,1365.562,1734.448Z" transform="translate(-1319.831 -1688.134)" fill="#8f6dff"/>
            </g>
            <g id="Grupo_1232407" data-name="Grupo 1232407" transform="translate(107.871 86.434)">
              <g id="Grupo_1232404" data-name="Grupo 1232404" transform="translate(0 3.476)">
                <g id="Grupo_1232403" data-name="Grupo 1232403">
                  <path id="Trazado_1220906" data-name="Trazado 1220906" d="M1410.8,1855.61l-36.347-.2a.623.623,0,0,1-.493-1l12.455-16.914a.627.627,0,0,1,1.018.011l7.406,10.4a.624.624,0,0,0,.965.064l4.748-5.124a.629.629,0,0,1,.943.021l9.8,11.716A.63.63,0,0,1,1410.8,1855.61Z" transform="translate(-1373.832 -1837.239)" fill="#6737c1"/>
                </g>
              </g>
              <g id="Grupo_1232406" data-name="Grupo 1232406" transform="translate(16.817)">
                <g id="Grupo_1232405" data-name="Grupo 1232405">
                  <path id="Trazado_1220907" data-name="Trazado 1220907" d="M1540.4,1807.747a3.476,3.476,0,1,1-3.457-3.5A3.477,3.477,0,0,1,1540.4,1807.747Z" transform="translate(-1533.446 -1804.252)" fill="#6737c1"/>
                </g>
              </g>
            </g>
            <g id="Grupo_1232417" data-name="Grupo 1232417" transform="translate(158.294 77.126)">
              <g id="Grupo_1232409" data-name="Grupo 1232409" transform="translate(0.557 0.436)" opacity="0.1">
                <g id="Grupo_1232408" data-name="Grupo 1232408">
                  <path id="Trazado_1220908" data-name="Trazado 1220908" d="M1869.435,1721.153v9.531a1.1,1.1,0,0,1-1.109,1.1h-9.53a1.1,1.1,0,0,1-1.1-1.1v-9.531a1.1,1.1,0,0,1,1.1-1.1h9.53A1.1,1.1,0,0,1,1869.435,1721.153Z" transform="translate(-1857.698 -1720.055)"/>
                </g>
              </g>
              <g id="Grupo_1232412" data-name="Grupo 1232412" transform="translate(17.054 3.008)" opacity="0.1">
                <g id="Grupo_1232410" data-name="Grupo 1232410">
                  <rect id="Rectángulo_423033" data-name="Rectángulo 423033" width="43.301" height="1.935"/>
                </g>
                <g id="Grupo_1232411" data-name="Grupo 1232411" transform="translate(0 4.65)">
                  <rect id="Rectángulo_423034" data-name="Rectángulo 423034" width="14.478" height="1.935"/>
                </g>
              </g>
              <g id="Grupo_1232413" data-name="Grupo 1232413">
                <path id="Trazado_1220909" data-name="Trazado 1220909" d="M1864.145,1717.013v9.531a1.1,1.1,0,0,1-1.108,1.1h-9.53a1.1,1.1,0,0,1-1.1-1.1v-9.531a1.1,1.1,0,0,1,1.1-1.1h9.53A1.1,1.1,0,0,1,1864.145,1717.013Z" transform="translate(-1852.408 -1715.915)" fill="#8f6dff"/>
              </g>
              <g id="Grupo_1232416" data-name="Grupo 1232416" transform="translate(16.498 2.571)">
                <g id="Grupo_1232414" data-name="Grupo 1232414">
                  <rect id="Rectángulo_423035" data-name="Rectángulo 423035" width="43.301" height="1.935" fill="#8f6dff"/>
                </g>
                <g id="Grupo_1232415" data-name="Grupo 1232415" transform="translate(0 4.65)">
                  <rect id="Rectángulo_423036" data-name="Rectángulo 423036" width="14.478" height="1.935" fill="#8f6dff"/>
                </g>
              </g>
            </g>
            <g id="Grupo_1232427" data-name="Grupo 1232427" transform="translate(158.294 93.386)">
              <g id="Grupo_1232419" data-name="Grupo 1232419" transform="translate(0.557 0.435)" opacity="0.1">
                <g id="Grupo_1232418" data-name="Grupo 1232418">
                  <path id="Trazado_1220910" data-name="Trazado 1220910" d="M1869.435,1875.463v9.53a1.1,1.1,0,0,1-1.109,1.1h-9.53a1.1,1.1,0,0,1-1.1-1.1v-9.53a1.1,1.1,0,0,1,1.1-1.1h9.53A1.1,1.1,0,0,1,1869.435,1875.463Z" transform="translate(-1857.698 -1874.365)"/>
                </g>
              </g>
              <g id="Grupo_1232422" data-name="Grupo 1232422" transform="translate(17.054 3.006)" opacity="0.1">
                <g id="Grupo_1232420" data-name="Grupo 1232420">
                  <rect id="Rectángulo_423037" data-name="Rectángulo 423037" width="43.301" height="1.935"/>
                </g>
                <g id="Grupo_1232421" data-name="Grupo 1232421" transform="translate(0 4.65)">
                  <rect id="Rectángulo_423038" data-name="Rectángulo 423038" width="14.478" height="1.935"/>
                </g>
              </g>
              <g id="Grupo_1232423" data-name="Grupo 1232423">
                <path id="Trazado_1220911" data-name="Trazado 1220911" d="M1864.145,1871.333v9.531a1.1,1.1,0,0,1-1.108,1.1h-9.53a1.1,1.1,0,0,1-1.1-1.1v-9.531a1.1,1.1,0,0,1,1.1-1.1h9.53A1.1,1.1,0,0,1,1864.145,1871.333Z" transform="translate(-1852.408 -1870.235)" fill="#8f6dff"/>
              </g>
              <g id="Grupo_1232426" data-name="Grupo 1232426" transform="translate(16.498 2.571)">
                <g id="Grupo_1232424" data-name="Grupo 1232424">
                  <rect id="Rectángulo_423039" data-name="Rectángulo 423039" width="43.301" height="1.935" fill="#8f6dff"/>
                </g>
                <g id="Grupo_1232425" data-name="Grupo 1232425" transform="translate(0 4.65)">
                  <rect id="Rectángulo_423040" data-name="Rectángulo 423040" width="14.478" height="1.935" fill="#8f6dff"/>
                </g>
              </g>
            </g>
            <g id="Grupo_1232437" data-name="Grupo 1232437" transform="translate(158.294 109.644)">
              <g id="Grupo_1232429" data-name="Grupo 1232429" transform="translate(0.557 0.436)" opacity="0.1">
                <g id="Grupo_1232428" data-name="Grupo 1232428">
                  <path id="Trazado_1220912" data-name="Trazado 1220912" d="M1869.435,2029.783v9.531a1.1,1.1,0,0,1-1.109,1.1h-9.53a1.1,1.1,0,0,1-1.1-1.1v-9.531a1.1,1.1,0,0,1,1.1-1.1h9.53A1.1,1.1,0,0,1,1869.435,2029.783Z" transform="translate(-1857.698 -2028.685)"/>
                </g>
              </g>
              <g id="Grupo_1232432" data-name="Grupo 1232432" transform="translate(17.054 3.008)" opacity="0.1">
                <g id="Grupo_1232430" data-name="Grupo 1232430">
                  <rect id="Rectángulo_423041" data-name="Rectángulo 423041" width="43.301" height="1.935"/>
                </g>
                <g id="Grupo_1232431" data-name="Grupo 1232431" transform="translate(0 4.65)">
                  <rect id="Rectángulo_423042" data-name="Rectángulo 423042" width="14.478" height="1.935"/>
                </g>
              </g>
              <g id="Grupo_1232433" data-name="Grupo 1232433">
                <path id="Trazado_1220913" data-name="Trazado 1220913" d="M1864.145,2025.643v9.531a1.1,1.1,0,0,1-1.108,1.1h-9.53a1.1,1.1,0,0,1-1.1-1.1v-9.531a1.1,1.1,0,0,1,1.1-1.1h9.53A1.1,1.1,0,0,1,1864.145,2025.643Z" transform="translate(-1852.408 -2024.545)" fill="#8f6dff"/>
              </g>
              <g id="Grupo_1232436" data-name="Grupo 1232436" transform="translate(16.498 2.571)">
                <g id="Grupo_1232434" data-name="Grupo 1232434">
                  <rect id="Rectángulo_423043" data-name="Rectángulo 423043" width="43.301" height="1.935" fill="#8f6dff"/>
                </g>
                <g id="Grupo_1232435" data-name="Grupo 1232435" transform="translate(0 4.65)">
                  <rect id="Rectángulo_423044" data-name="Rectángulo 423044" width="14.478" height="1.935" fill="#8f6dff"/>
                </g>
              </g>
            </g>
            <g id="Grupo_1232447" data-name="Grupo 1232447" transform="translate(126.863 232.763)">
              <g id="Grupo_1232439" data-name="Grupo 1232439" transform="translate(1.79 2.618)" opacity="0.15">
                <g id="Grupo_1232438" data-name="Grupo 1232438">
                  <path id="Trazado_1220914" data-name="Trazado 1220914" d="M1652.982,3268.945h-78.94a2.964,2.964,0,0,1-2.964-2.964v-45.064a2.964,2.964,0,0,1,2.964-2.965h78.94a2.964,2.964,0,0,1,2.964,2.965v45.064A2.965,2.965,0,0,1,1652.982,3268.945Z" transform="translate(-1571.078 -3217.952)"/>
                </g>
              </g>
              <g id="Grupo_1232440" data-name="Grupo 1232440">
                <path id="Trazado_1220915" data-name="Trazado 1220915" d="M1635.992,3244.1h-78.94a2.964,2.964,0,0,1-2.964-2.965v-45.064a2.964,2.964,0,0,1,2.964-2.964h78.94a2.964,2.964,0,0,1,2.964,2.964v45.064A2.965,2.965,0,0,1,1635.992,3244.1Z" transform="translate(-1554.088 -3193.102)" fill="#6737c1"/>
              </g>
              <g id="Grupo_1232446" data-name="Grupo 1232446" transform="translate(6.85 14.097)">
                <g id="Grupo_1232441" data-name="Grupo 1232441" transform="translate(0 12.81)">
                  <path id="Trazado_1220916" data-name="Trazado 1220916" d="M1630.1,3450.412v11.377a1.861,1.861,0,0,1-1.8,1.92h-7.4a1.856,1.856,0,0,1-1.795-1.92v-11.377a1.863,1.863,0,0,1,1.795-1.927h7.4A1.868,1.868,0,0,1,1630.1,3450.412Z" transform="translate(-1619.106 -3448.484)" fill="#f87393"/>
                </g>
                <g id="Grupo_1232442" data-name="Grupo 1232442" transform="translate(15.025)">
                  <path id="Trazado_1220917" data-name="Trazado 1220917" d="M1772.694,3328.832v24.187a1.855,1.855,0,0,1-1.788,1.92H1763.5a1.855,1.855,0,0,1-1.788-1.92v-24.187a1.862,1.862,0,0,1,1.788-1.928h7.407A1.861,1.861,0,0,1,1772.694,3328.832Z" transform="translate(-1761.712 -3326.904)" fill="#8f6dff"/>
                </g>
                <g id="Grupo_1232443" data-name="Grupo 1232443" transform="translate(30.044 8.234)">
                  <path id="Trazado_1220918" data-name="Trazado 1220918" d="M1915.246,3406.982v15.953a1.861,1.861,0,0,1-1.8,1.92h-7.4a1.86,1.86,0,0,1-1.795-1.92v-15.953a1.868,1.868,0,0,1,1.795-1.928h7.4A1.868,1.868,0,0,1,1915.246,3406.982Z" transform="translate(-1904.256 -3405.054)" fill="#f87393"/>
                </g>
                <g id="Grupo_1232444" data-name="Grupo 1232444" transform="translate(45.069 16.688)">
                  <path id="Trazado_1220919" data-name="Trazado 1220919" d="M2057.855,3487.222v7.5a1.86,1.86,0,0,1-1.8,1.92h-7.4a1.86,1.86,0,0,1-1.8-1.92v-7.5a1.868,1.868,0,0,1,1.8-1.928h7.4A1.868,1.868,0,0,1,2057.855,3487.222Z" transform="translate(-2046.866 -3485.294)" fill="#8f6dff"/>
                </g>
                <g id="Grupo_1232445" data-name="Grupo 1232445" transform="translate(60.093 9.57)">
                  <path id="Trazado_1220920" data-name="Trazado 1220920" d="M2200.453,3419.661v14.617a1.861,1.861,0,0,1-1.795,1.92h-7.4a1.86,1.86,0,0,1-1.8-1.92v-14.617a1.863,1.863,0,0,1,1.8-1.928h7.4A1.862,1.862,0,0,1,2200.453,3419.661Z" transform="translate(-2189.464 -3417.734)" fill="#f87393"/>
                </g>
              </g>
            </g>
            <g id="Grupo_1232458" data-name="Grupo 1232458" transform="translate(223.187 240.294)">
              <g id="Grupo_1232448" data-name="Grupo 1232448" transform="translate(0.872 0.801)" opacity="0.1">
                <path id="Trazado_1220921" data-name="Trazado 1220921" d="M2489.143,3286.086h-11.183a1.363,1.363,0,0,1-1.363-1.363v-11.182a1.363,1.363,0,0,1,1.363-1.363h11.183a1.363,1.363,0,0,1,1.363,1.363v11.182A1.362,1.362,0,0,1,2489.143,3286.086Z" transform="translate(-2476.597 -3272.178)"/>
              </g>
              <g id="Grupo_1232452" data-name="Grupo 1232452" transform="translate(18.155 2.216)" opacity="0.1">
                <g id="Grupo_1232449" data-name="Grupo 1232449" transform="translate(0)">
                  <path id="Trazado_1220922" data-name="Trazado 1220922" d="M2640.64,3286.689a1.084,1.084,0,0,1,1.08-1.08h92.7a1.084,1.084,0,0,1,0,2.169h-92.7A1.086,1.086,0,0,1,2640.64,3286.689Z" transform="translate(-2640.64 -3285.609)"/>
                </g>
                <g id="Grupo_1232450" data-name="Grupo 1232450" transform="translate(0 4.452)">
                  <path id="Trazado_1220923" data-name="Trazado 1220923" d="M2735.5,3328.954a1.078,1.078,0,0,1-1.08,1.08h-92.7a1.084,1.084,0,0,1,0-2.168h92.7A1.081,1.081,0,0,1,2735.5,3328.954Z" transform="translate(-2640.639 -3327.865)"/>
                </g>
                <g id="Grupo_1232451" data-name="Grupo 1232451" transform="translate(0 8.914)">
                  <path id="Trazado_1220924" data-name="Trazado 1220924" d="M2656.493,3371.291a1.086,1.086,0,0,1-1.08,1.089H2641.72a1.084,1.084,0,0,1,0-2.168h13.693A1.084,1.084,0,0,1,2656.493,3371.291Z" transform="translate(-2640.64 -3370.211)"/>
                </g>
              </g>
              <g id="Grupo_1232453" data-name="Grupo 1232453">
                <path id="Trazado_1220925" data-name="Trazado 1220925" d="M2480.867,3278.487h-11.182a1.363,1.363,0,0,1-1.363-1.363v-11.183a1.363,1.363,0,0,1,1.363-1.363h11.182a1.363,1.363,0,0,1,1.363,1.363v11.183A1.363,1.363,0,0,1,2480.867,3278.487Z" transform="translate(-2468.322 -3264.579)" fill="#6737c1"/>
              </g>
              <g id="Grupo_1232457" data-name="Grupo 1232457" transform="translate(17.283 1.416)">
                <g id="Grupo_1232454" data-name="Grupo 1232454">
                  <path id="Trazado_1220926" data-name="Trazado 1220926" d="M2632.36,3279.1a1.084,1.084,0,0,1,1.08-1.08h92.7a1.084,1.084,0,0,1,0,2.169h-92.7A1.087,1.087,0,0,1,2632.36,3279.1Z" transform="translate(-2632.36 -3278.019)" fill="#6737c1"/>
                </g>
                <g id="Grupo_1232455" data-name="Grupo 1232455" transform="translate(0.001 4.452)">
                  <path id="Trazado_1220927" data-name="Trazado 1220927" d="M2727.226,3321.364a1.078,1.078,0,0,1-1.08,1.08h-92.7a1.084,1.084,0,0,1,0-2.168h92.7A1.079,1.079,0,0,1,2727.226,3321.364Z" transform="translate(-2632.368 -3320.275)" fill="#6737c1"/>
                </g>
                <g id="Grupo_1232456" data-name="Grupo 1232456" transform="translate(0 8.913)">
                  <path id="Trazado_1220928" data-name="Trazado 1220928" d="M2648.213,3363.691a1.086,1.086,0,0,1-1.08,1.089H2633.44a1.084,1.084,0,0,1,0-2.168h13.693A1.084,1.084,0,0,1,2648.213,3363.691Z" transform="translate(-2632.36 -3362.611)" fill="#6737c1"/>
                </g>
              </g>
            </g>
            <g id="Grupo_1232469" data-name="Grupo 1232469" transform="translate(223.187 263.601)">
              <g id="Grupo_1232459" data-name="Grupo 1232459" transform="translate(0.872 0.8)" opacity="0.1">
                <path id="Trazado_1220929" data-name="Trazado 1220929" d="M2489.143,3507.286h-11.183a1.362,1.362,0,0,1-1.363-1.362v-11.183a1.363,1.363,0,0,1,1.363-1.363h11.183a1.363,1.363,0,0,1,1.363,1.363v11.183A1.362,1.362,0,0,1,2489.143,3507.286Z" transform="translate(-2476.597 -3493.378)"/>
              </g>
              <g id="Grupo_1232463" data-name="Grupo 1232463" transform="translate(18.155 2.216)" opacity="0.1">
                <g id="Grupo_1232460" data-name="Grupo 1232460" transform="translate(0)">
                  <path id="Trazado_1220930" data-name="Trazado 1220930" d="M2640.64,3507.9a1.084,1.084,0,0,1,1.08-1.08h92.7a1.084,1.084,0,0,1,0,2.169h-92.7A1.086,1.086,0,0,1,2640.64,3507.9Z" transform="translate(-2640.64 -3506.819)"/>
                </g>
                <g id="Grupo_1232461" data-name="Grupo 1232461" transform="translate(0 4.452)">
                  <path id="Trazado_1220931" data-name="Trazado 1220931" d="M2735.5,3550.164a1.078,1.078,0,0,1-1.08,1.079h-92.7a1.084,1.084,0,0,1,0-2.168h92.7A1.08,1.08,0,0,1,2735.5,3550.164Z" transform="translate(-2640.639 -3549.075)"/>
                </g>
                <g id="Grupo_1232462" data-name="Grupo 1232462" transform="translate(0 8.914)">
                  <path id="Trazado_1220932" data-name="Trazado 1220932" d="M2656.493,3592.5a1.086,1.086,0,0,1-1.08,1.089H2641.72a1.084,1.084,0,0,1,0-2.168h13.693A1.084,1.084,0,0,1,2656.493,3592.5Z" transform="translate(-2640.64 -3591.421)"/>
                </g>
              </g>
              <g id="Grupo_1232464" data-name="Grupo 1232464">
                <path id="Trazado_1220933" data-name="Trazado 1220933" d="M2480.867,3499.7h-11.182a1.363,1.363,0,0,1-1.363-1.363v-11.182a1.363,1.363,0,0,1,1.363-1.363h11.182a1.362,1.362,0,0,1,1.363,1.363v11.182A1.362,1.362,0,0,1,2480.867,3499.7Z" transform="translate(-2468.322 -3485.789)" fill="#6737c1"/>
              </g>
              <g id="Grupo_1232468" data-name="Grupo 1232468" transform="translate(17.283 1.415)">
                <g id="Grupo_1232465" data-name="Grupo 1232465">
                  <path id="Trazado_1220934" data-name="Trazado 1220934" d="M2632.36,3500.3a1.084,1.084,0,0,1,1.08-1.08h92.7a1.084,1.084,0,0,1,0,2.169h-92.7A1.086,1.086,0,0,1,2632.36,3500.3Z" transform="translate(-2632.36 -3499.219)" fill="#6737c1"/>
                </g>
                <g id="Grupo_1232466" data-name="Grupo 1232466" transform="translate(0.001 4.452)">
                  <path id="Trazado_1220935" data-name="Trazado 1220935" d="M2727.226,3542.564a1.078,1.078,0,0,1-1.08,1.08h-92.7a1.084,1.084,0,0,1,0-2.169h92.7A1.082,1.082,0,0,1,2727.226,3542.564Z" transform="translate(-2632.368 -3541.475)" fill="#6737c1"/>
                </g>
                <g id="Grupo_1232467" data-name="Grupo 1232467" transform="translate(0 8.914)">
                  <path id="Trazado_1220936" data-name="Trazado 1220936" d="M2648.213,3584.9a1.086,1.086,0,0,1-1.08,1.088H2633.44a1.084,1.084,0,0,1,0-2.168h13.693A1.083,1.083,0,0,1,2648.213,3584.9Z" transform="translate(-2632.36 -3583.821)" fill="#6737c1"/>
                </g>
              </g>
            </g>
            <g id="Grupo_1232471" data-name="Grupo 1232471" transform="translate(116.06 158.307)" opacity="0.1">
              <g id="Grupo_1232470" data-name="Grupo 1232470">
                <path id="Trazado_1220937" data-name="Trazado 1220937" d="M1523.455,2492.616v52.222a6.19,6.19,0,0,1-6.187,6.2h-65.711V2486.42h65.711A6.19,6.19,0,0,1,1523.455,2492.616Z" transform="translate(-1451.557 -2486.42)"/>
              </g>
            </g>
            <g id="Grupo_1232472" data-name="Grupo 1232472" transform="translate(104.826 154.463)">
              <path id="Trazado_1220938" data-name="Trazado 1220938" d="M1418.5,2514.545h-67.378a6.188,6.188,0,0,1-6.188-6.188v-52.232a6.188,6.188,0,0,1,6.188-6.188H1418.5a6.188,6.188,0,0,1,6.188,6.188v52.232A6.188,6.188,0,0,1,1418.5,2514.545Z" transform="translate(-1344.93 -2449.937)" fill="#6737c1"/>
            </g>
            <g id="Grupo_1232476" data-name="Grupo 1232476" transform="translate(123.107 164.928)" opacity="0.1">
              <g id="Grupo_1232473" data-name="Grupo 1232473" transform="translate(0 0)">
                <path id="Trazado_1220939" data-name="Trazado 1220939" d="M1546.449,2582.509l6.354,10a22.767,22.767,0,0,1-11.268,2.946,23.1,23.1,0,1,1,9.354-44.212l-5.4,10.569a11.484,11.484,0,0,0-3.957-.71,11.263,11.263,0,1,0,0,22.526A11.473,11.473,0,0,0,1546.449,2582.509Z" transform="translate(-1518.44 -2549.264)"/>
              </g>
              <g id="Grupo_1232474" data-name="Grupo 1232474" transform="translate(30.17 19.816)">
                <path id="Trazado_1220940" data-name="Trazado 1220940" d="M1820.807,2740.626a23.007,23.007,0,0,1-9.666,18.773l-6.354-10.021a11.22,11.22,0,0,0,4.182-8.752c0-.323-.011-.634-.032-.946l11.623-2.333A20.5,20.5,0,0,1,1820.807,2740.626Z" transform="translate(-1804.786 -2737.347)"/>
              </g>
              <g id="Grupo_1232475" data-name="Grupo 1232475" transform="translate(29.342 3.151)">
                <path id="Trazado_1220941" data-name="Trazado 1220941" d="M1796.93,2589.727l5.387-10.558a23.08,23.08,0,0,1,10.73,14.139l-11.644,2.344A11.387,11.387,0,0,0,1796.93,2589.727Z" transform="translate(-1796.93 -2579.169)"/>
              </g>
            </g>
            <g id="Grupo_1232480" data-name="Grupo 1232480" transform="translate(121.608 163.673)">
              <g id="Grupo_1232477" data-name="Grupo 1232477" transform="translate(0 0)">
                <path id="Trazado_1220942" data-name="Trazado 1220942" d="M1532.219,2570.589l6.354,10a22.767,22.767,0,0,1-11.268,2.946,23.1,23.1,0,1,1,9.354-44.212l-5.4,10.569a11.475,11.475,0,0,0-3.957-.709,11.263,11.263,0,1,0,0,22.525A11.5,11.5,0,0,0,1532.219,2570.589Z" transform="translate(-1504.21 -2537.344)" fill="#0df3ff"/>
              </g>
              <g id="Grupo_1232478" data-name="Grupo 1232478" transform="translate(30.171 19.816)">
                <path id="Trazado_1220943" data-name="Trazado 1220943" d="M1806.586,2728.705a23.007,23.007,0,0,1-9.666,18.773l-6.354-10.021a11.221,11.221,0,0,0,4.182-8.753c0-.323-.011-.634-.032-.946l11.623-2.333A20.6,20.6,0,0,1,1806.586,2728.705Z" transform="translate(-1790.566 -2725.426)" fill="#ff2e56"/>
              </g>
              <g id="Grupo_1232479" data-name="Grupo 1232479" transform="translate(29.343 3.151)">
                <path id="Trazado_1220944" data-name="Trazado 1220944" d="M1782.71,2577.807l5.387-10.558a23.081,23.081,0,0,1,10.731,14.139l-11.645,2.344A11.389,11.389,0,0,0,1782.71,2577.807Z" transform="translate(-1782.71 -2567.249)" fill="#fcc922"/>
              </g>
            </g>
          </g>
        </g>
      </g>
    </g>
  </g>
</svg>
