<svg xmlns="http://www.w3.org/2000/svg" xmlns:xlink="http://www.w3.org/1999/xlink" width="108" height="108" viewBox="0 0 108 108">
  <defs>
    <filter id="Trazado_904820" x="0" y="0" width="108" height="108" filterUnits="userSpaceOnUse">
      <feOffset dy="3" input="SourceAlpha"/>
      <feGaussianBlur stdDeviation="3" result="blur"/>
      <feFlood flood-opacity="0.161"/>
      <feComposite operator="in" in2="blur"/>
      <feComposite in="SourceGraphic"/>
    </filter>
  </defs>
  <g id="Grupo_1231831" data-name="Grupo 1231831" transform="translate(-196 -454)">
    <g id="Grupo_1230499" data-name="Grupo 1230499" transform="translate(1 -357)">
      <g id="Grupo_1228101" data-name="Grupo 1228101" transform="translate(204 817)">
        <g id="Grupo_1227366" data-name="Grupo 1227366">
          <g id="Grupo_1224979" data-name="Grupo 1224979">
            <g id="Grupo_1173585" data-name="Grupo 1173585" transform="translate(0 0)">
              <g id="Grupo_1173428" data-name="Grupo 1173428">
                <g id="Grupo_1171958" data-name="Grupo 1171958">
                  <g id="Grupo_1167341" data-name="Grupo 1167341">
                    <g id="Grupo_1166792" data-name="Grupo 1166792">
                      <g transform="matrix(1, 0, 0, 1, -9, -6)" filter="url(#Trazado_904820)">
                        <g id="Trazado_904820-2" data-name="Trazado 904820" transform="translate(9 6)" fill="#e5fdfa">
                          <path d="M 44.99999618530273 88.50003051757812 C 39.12687301635742 88.50003051757812 33.43022155761719 87.35010528564453 28.06829643249512 85.08219146728516 C 22.88852119445801 82.89134216308594 18.23629570007324 79.75461578369141 14.24084663391113 75.75916290283203 C 10.24540901184082 71.76371765136719 7.108683586120605 67.11148834228516 4.917821407318115 61.93171691894531 C 2.649921178817749 56.56978988647461 1.499996185302734 50.87313842773438 1.499996185302734 45.00001525878906 C 1.499996185302734 39.12689208984375 2.649921178817749 33.43024063110352 4.917821407318115 28.06830215454102 C 7.108683586120605 22.88852691650391 10.24540901184082 18.23631477355957 14.24084663391113 14.24086570739746 C 18.23629570007324 10.24541568756104 22.88852119445801 7.10869026184082 28.06829643249512 4.917827606201172 C 33.43022155761719 2.649927854537964 39.12687301635742 1.50000274181366 44.99999618530273 1.50000274181366 C 50.87311935424805 1.50000274181366 56.56977081298828 2.649927854537964 61.93169784545898 4.917827606201172 C 67.11147308349609 7.10869026184082 71.76369476318359 10.24541568756104 75.75914764404297 14.24086570739746 C 79.75458526611328 18.23631477355957 82.89131164550781 22.88852691650391 85.08216857910156 28.06830215454102 C 87.35007476806641 33.43024063110352 88.5 39.12689208984375 88.5 45.00001525878906 C 88.5 50.87313842773438 87.35007476806641 56.56978988647461 85.08216857910156 61.93171691894531 C 82.89131164550781 67.11148834228516 79.75458526611328 71.76371765136719 75.75914764404297 75.75916290283203 C 71.76369476318359 79.75461578369141 67.11147308349609 82.89134216308594 61.93169784545898 85.08219146728516 C 56.56977081298828 87.35010528564453 50.87311935424805 88.50003051757812 44.99999618530273 88.50003051757812 Z" stroke="none"/>
                          <path d="M 44.99999618530273 3 C 39.32870864868164 3 33.82865142822266 4.110061645507812 28.65262603759766 6.299346923828125 C 23.65165710449219 8.414573669433594 19.15968322753906 11.44334411621094 15.301513671875 15.301513671875 C 11.44333648681641 19.15968322753906 8.414566040039062 23.65165710449219 6.299339294433594 28.65262985229492 C 4.110054016113281 33.82867050170898 2.999992370605469 39.32872772216797 2.999992370605469 45.00001525878906 C 2.999992370605469 50.67130279541016 4.110054016113281 56.17136001586914 6.299339294433594 61.34738922119141 C 8.414566040039062 66.34837341308594 11.44333648681641 70.84033203125 15.301513671875 74.69850158691406 C 19.15968322753906 78.55668640136719 23.65165710449219 81.58545684814453 28.65262603759766 83.70068359375 C 33.82865142822266 85.88996887207031 39.32870864868164 87.00003051757812 44.99999618530273 87.00003051757812 C 50.67128372192383 87.00003051757812 56.17134094238281 85.88996887207031 61.34736633300781 83.70068359375 C 66.34834289550781 81.58545684814453 70.84030914306641 78.55668640136719 74.69847869873047 74.69850158691406 C 78.55665588378906 70.84033203125 81.58542633056641 66.34837341308594 83.70065307617188 61.34738922119141 C 85.88993835449219 56.17136001586914 87 50.67130279541016 87 45.00001525878906 C 87 39.32872772216797 85.88993835449219 33.82867050170898 83.70065307617188 28.65262985229492 C 81.58542633056641 23.65165710449219 78.55665588378906 19.15968322753906 74.69847869873047 15.301513671875 C 70.84030914306641 11.44334411621094 66.34834289550781 8.414573669433594 61.34736633300781 6.299346923828125 C 56.17134094238281 4.110061645507812 50.67128372192383 3 44.99999618530273 3 M 44.99999618530273 0 C 69.85281372070312 0 90 20.14718627929688 90 45.00001525878906 C 90 69.85282897949219 69.85281372070312 90.00003051757812 44.99999618530273 90.00003051757812 C 20.14717864990234 90.00003051757812 -7.62939453125e-06 69.85282897949219 -7.62939453125e-06 45.00001525878906 C -7.62939453125e-06 20.14718627929688 20.14717864990234 0 44.99999618530273 0 Z" stroke="none" fill="#098576"/>
                        </g>
                      </g>
                    </g>
                  </g>
                </g>
              </g>
            </g>
          </g>
        </g>
      </g>
    </g>
    <g id="pruebas-de-software" transform="translate(221.857 477.619)">
      <g id="Grupo_1231829" data-name="Grupo 1231829" transform="translate(1.099 2.505)">
        <path id="Trazado_1220003" data-name="Trazado 1220003" d="M189.266,464.99H170.458a4.4,4.4,0,0,1,4.4-4.4h10.013A4.4,4.4,0,0,1,189.266,464.99Z" transform="translate(-152.818 -411.213)" fill="#c1b0b5"/>
        <path id="Trazado_1220004" data-name="Trazado 1220004" d="M10,353.642v3.341a2.2,2.2,0,0,0,2.2,2.2h49.69a2.2,2.2,0,0,0,2.2-2.2v-3.341Z" transform="translate(-10 -316.02)" fill="#c1b0b5"/>
        <path id="Trazado_1220005" data-name="Trazado 1220005" d="M64.087,95.929V122.3H10V95.929a2.2,2.2,0,0,1,2.2-2.2H33.813c-.007.074-.009.147-.009.222a3.24,3.24,0,1,0,6.479,0c0-.075,0-.148-.009-.222H61.888a2.2,2.2,0,0,1,2.2,2.2Z" transform="translate(-10 -84.68)" fill="#fff"/>
        <path id="Trazado_1220006" data-name="Trazado 1220006" d="M217.569,404.035h8.45v6.218h-8.45Z" transform="translate(-194.75 -360.873)" fill="#c1b0b5"/>
        <circle id="Elipse_13746" data-name="Elipse 13746" cx="5.783" cy="5.783" r="5.783" transform="translate(29.242 21.658)" fill="#a0c8ff"/>
        <circle id="Elipse_13747" data-name="Elipse 13747" cx="5.783" cy="5.783" r="5.783" transform="translate(13.278 21.658)" fill="#9de3d1"/>
        <path id="Trazado_1220007" data-name="Trazado 1220007" d="M188,17.822h-.17l.121-.121a2.2,2.2,0,0,0,0-3.109l-.934-.934a2.2,2.2,0,0,0-3.11,0l-.12.121v-.17a2.2,2.2,0,0,0-2.2-2.2h-1.321a2.2,2.2,0,0,0-2.2,2.2v.17l-.12-.121a2.2,2.2,0,0,0-3.11,0l-.934.934a2.2,2.2,0,0,0,0,3.109l.121.121h-.17a2.2,2.2,0,0,0-2.2,2.2v1.32a2.2,2.2,0,0,0,2.2,2.2h.17l-.121.121a2.2,2.2,0,0,0,0,3.109l.934.934a2.2,2.2,0,0,0,3.11,0l.12-.12v.17a2.2,2.2,0,0,0,2.2,2.2h1.321a2.2,2.2,0,0,0,2.2-2.2v-.17l.12.12a2.2,2.2,0,0,0,3.11,0l.934-.934a2.2,2.2,0,0,0,0-3.109l-.121-.121H188a2.2,2.2,0,0,0,2.2-2.2v-1.32A2.2,2.2,0,0,0,188,17.822Zm-7.073,6.1a3.24,3.24,0,1,1,3.24-3.24A3.24,3.24,0,0,1,180.932,23.921Z" transform="translate(-153.888 -11.41)" fill="#c1b0b5"/>
      </g>
      <g id="Grupo_1231830" data-name="Grupo 1231830" transform="translate(0 1.405)">
        <path id="Trazado_1220008" data-name="Trazado 1220008" d="M52.988,10.455H38.446A3.309,3.309,0,0,0,36.765,8.2a3.3,3.3,0,0,0-.822-3.3l-.934-.934a3.3,3.3,0,0,0-3.3-.822A3.3,3.3,0,0,0,28.8,1.405H27.482a3.3,3.3,0,0,0-2.911,1.749,3.3,3.3,0,0,0-3.295.822l-.934.934a3.3,3.3,0,0,0-.822,3.3,3.309,3.309,0,0,0-1.681,2.251H3.3a3.3,3.3,0,0,0-3.3,3.3V43.469a3.3,3.3,0,0,0,3.3,3.3H22.819V50.8a5.5,5.5,0,0,0-5.179,5.487,1.1,1.1,0,0,0,1.1,1.1H37.547a1.1,1.1,0,0,0,1.1-1.1A5.5,5.5,0,0,0,33.467,50.8V46.767h5.538a1.1,1.1,0,0,0,0-2.2H3.3a1.1,1.1,0,0,1-1.1-1.1V41.227H54.087v2.242a1.1,1.1,0,0,1-1.1,1.1H49.022a1.1,1.1,0,1,0,0,2.2h3.965a3.3,3.3,0,0,0,3.3-3.3V13.753a3.3,3.3,0,0,0-3.3-3.3ZM36.259,55.183H20.027a3.3,3.3,0,0,1,3.11-2.2H33.149A3.3,3.3,0,0,1,36.259,55.183Zm-4.991-4.4H25.017V46.767h6.251Zm-11.3-39.67a1.1,1.1,0,0,1,1.1-1.1h.17a1.1,1.1,0,0,0,.778-1.876L21.9,8.019a1.1,1.1,0,0,1,0-1.555l.934-.934a1.1,1.1,0,0,1,1.554,0l.12.121a1.1,1.1,0,0,0,1.877-.777V4.7a1.1,1.1,0,0,1,1.1-1.1H28.8a1.1,1.1,0,0,1,1.1,1.1v.171a1.1,1.1,0,0,0,1.877.777L31.9,5.53a1.1,1.1,0,0,1,1.555,0l.934.934a1.1,1.1,0,0,1,0,1.555l-.121.121a1.1,1.1,0,0,0,.777,1.877h.171a1.1,1.1,0,0,1,1.1,1.1v1.321a1.1,1.1,0,0,1-1.1,1.1h-.171a1.1,1.1,0,0,0-.777,1.877l.121.121a1.1,1.1,0,0,1,0,1.555l-.934.934a1.1,1.1,0,0,1-1.555,0l-.121-.121a1.1,1.1,0,0,0-1.877.777v.171a1.1,1.1,0,0,1-1.1,1.1H27.482a1.1,1.1,0,0,1-1.1-1.1v-.171a1.1,1.1,0,0,0-1.877-.777l-.12.12a1.1,1.1,0,0,1-1.555,0l-.934-.934a1.1,1.1,0,0,1,0-1.555l.12-.121a1.1,1.1,0,0,0-.778-1.876h-.17a1.1,1.1,0,0,1-1.1-1.1ZM2.2,39.028V13.753a1.1,1.1,0,0,1,1.1-1.1H17.779a3.3,3.3,0,0,0,1.741,2.694,3.3,3.3,0,0,0,.822,3.3l.934.934a3.3,3.3,0,0,0,3.295.822,3.3,3.3,0,0,0,2.911,1.749H28.8A3.3,3.3,0,0,0,31.714,20.4a3.3,3.3,0,0,0,3.3-.822l.934-.934a3.3,3.3,0,0,0,.822-3.3,3.3,3.3,0,0,0,1.741-2.694H52.988a1.1,1.1,0,0,1,1.1,1.1V39.028H2.2Z" transform="translate(0 -1.405)"/>
        <path id="Trazado_1220009" data-name="Trazado 1220009" d="M220.866,64.953a4.339,4.339,0,1,0-4.339-4.339A4.344,4.344,0,0,0,220.866,64.953Zm0-6.48a2.141,2.141,0,1,1-2.141,2.141A2.143,2.143,0,0,1,220.866,58.473Z" transform="translate(-192.724 -50.242)"/>
        <path id="Trazado_1220010" data-name="Trazado 1220010" d="M272.883,198.424a6.883,6.883,0,1,0,6.883,6.883A6.891,6.891,0,0,0,272.883,198.424Zm0,11.567a4.684,4.684,0,1,1,4.684-4.684A4.689,4.689,0,0,1,272.883,209.991Z" transform="translate(-236.758 -176.765)"/>
        <path id="Trazado_1220011" data-name="Trazado 1220011" d="M127.665,198.424a6.883,6.883,0,1,0,6.883,6.883A6.891,6.891,0,0,0,127.665,198.424Zm0,11.567a4.684,4.684,0,1,1,4.684-4.684A4.689,4.689,0,0,1,127.665,209.991Z" transform="translate(-107.504 -176.765)"/>
        <path id="Trazado_1220012" data-name="Trazado 1220012" d="M308.9,238.114a1.1,1.1,0,0,0-1.555,0l-.678.678-.678-.678a1.1,1.1,0,0,0-1.555,1.555l.678.678-.678.678a1.1,1.1,0,1,0,1.555,1.555l.678-.678.678.678a1.1,1.1,0,0,0,1.555-1.555l-.678-.678.678-.678A1.1,1.1,0,0,0,308.9,238.114Z" transform="translate(-270.678 -211.805)"/>
        <path id="Trazado_1220013" data-name="Trazado 1220013" d="M161.414,239.1a1.1,1.1,0,0,0-1.532.266l-1.133,1.608-.535-.479a1.1,1.1,0,0,0-1.466,1.638l1.456,1.3a1.1,1.1,0,0,0,1.632-.186l1.844-2.618A1.1,1.1,0,0,0,161.414,239.1Z" transform="translate(-139.19 -212.787)"/>
        <circle id="Elipse_13748" data-name="Elipse 13748" cx="1.099" cy="1.099" r="1.099" transform="translate(42.905 43.163)"/>
      </g>
    </g>
  </g>
</svg>
