<svg xmlns="http://www.w3.org/2000/svg" xmlns:xlink="http://www.w3.org/1999/xlink" width="108" height="108" viewBox="0 0 108 108">
  <defs>
    <filter id="Trazado_904820" x="0" y="0" width="108" height="108" filterUnits="userSpaceOnUse">
      <feOffset dy="3" input="SourceAlpha"/>
      <feGaussianBlur stdDeviation="3" result="blur"/>
      <feFlood flood-opacity="0.161"/>
      <feComposite operator="in" in2="blur"/>
      <feComposite in="SourceGraphic"/>
    </filter>
  </defs>
  <g id="Grupo_1232040" data-name="Grupo 1232040" transform="translate(-195 -8159.145)">
    <g id="Grupo_1230656" data-name="Grupo 1230656" transform="translate(0 2051.941)">
      <g id="Grupo_1228731" data-name="Grupo 1228731" transform="translate(0 5341.204)">
        <g id="Grupo_1227366" data-name="Grupo 1227366" transform="translate(0 268)">
          <g id="Grupo_1224979" data-name="Grupo 1224979" transform="translate(204 504)">
            <g id="Grupo_1173585" data-name="Grupo 1173585" transform="translate(0 0)">
              <g id="Grupo_1173428" data-name="Grupo 1173428">
                <g id="Grupo_1171958" data-name="Grupo 1171958">
                  <g id="Grupo_1167341" data-name="Grupo 1167341">
                    <g id="Grupo_1166792" data-name="Grupo 1166792">
                      <g transform="matrix(1, 0, 0, 1, -9, -6)" filter="url(#Trazado_904820)">
                        <g id="Trazado_904820-2" data-name="Trazado 904820" transform="translate(9 6)" fill="#fef9e5">
                          <path d="M 44.99999618530273 88.50003051757812 C 39.12687301635742 88.50003051757812 33.43022155761719 87.35010528564453 28.06829643249512 85.08219146728516 C 22.88852119445801 82.89134216308594 18.23629570007324 79.75461578369141 14.24084663391113 75.75916290283203 C 10.24540901184082 71.76371765136719 7.108683586120605 67.11148834228516 4.917821407318115 61.93171691894531 C 2.649921178817749 56.56978988647461 1.499996185302734 50.87313842773438 1.499996185302734 45.00001525878906 C 1.499996185302734 39.12689208984375 2.649921178817749 33.43024063110352 4.917821407318115 28.06830215454102 C 7.108683586120605 22.88852691650391 10.24540901184082 18.23631477355957 14.24084663391113 14.24086570739746 C 18.23629570007324 10.24541568756104 22.88852119445801 7.10869026184082 28.06829643249512 4.917827606201172 C 33.43022155761719 2.649927854537964 39.12687301635742 1.50000274181366 44.99999618530273 1.50000274181366 C 50.87311935424805 1.50000274181366 56.56977081298828 2.649927854537964 61.93169784545898 4.917827606201172 C 67.11147308349609 7.10869026184082 71.76369476318359 10.24541568756104 75.75914764404297 14.24086570739746 C 79.75458526611328 18.23631477355957 82.89131164550781 22.88852691650391 85.08216857910156 28.06830215454102 C 87.35007476806641 33.43024063110352 88.5 39.12689208984375 88.5 45.00001525878906 C 88.5 50.87313842773438 87.35007476806641 56.56978988647461 85.08216857910156 61.93171691894531 C 82.89131164550781 67.11148834228516 79.75458526611328 71.76371765136719 75.75914764404297 75.75916290283203 C 71.76369476318359 79.75461578369141 67.11147308349609 82.89134216308594 61.93169784545898 85.08219146728516 C 56.56977081298828 87.35010528564453 50.87311935424805 88.50003051757812 44.99999618530273 88.50003051757812 Z" stroke="none"/>
                          <path d="M 44.99999618530273 3 C 39.32870864868164 3 33.82865142822266 4.110061645507812 28.65262603759766 6.299346923828125 C 23.65165710449219 8.414573669433594 19.15968322753906 11.44334411621094 15.301513671875 15.301513671875 C 11.44333648681641 19.15968322753906 8.414566040039062 23.65165710449219 6.299339294433594 28.65262985229492 C 4.110054016113281 33.82867050170898 2.999992370605469 39.32872772216797 2.999992370605469 45.00001525878906 C 2.999992370605469 50.67130279541016 4.110054016113281 56.17136001586914 6.299339294433594 61.34738922119141 C 8.414566040039062 66.34837341308594 11.44333648681641 70.84033203125 15.301513671875 74.69850158691406 C 19.15968322753906 78.55668640136719 23.65165710449219 81.58545684814453 28.65262603759766 83.70068359375 C 33.82865142822266 85.88996887207031 39.32870864868164 87.00003051757812 44.99999618530273 87.00003051757812 C 50.67128372192383 87.00003051757812 56.17134094238281 85.88996887207031 61.34736633300781 83.70068359375 C 66.34834289550781 81.58545684814453 70.84030914306641 78.55668640136719 74.69847869873047 74.69850158691406 C 78.55665588378906 70.84033203125 81.58542633056641 66.34837341308594 83.70065307617188 61.34738922119141 C 85.88993835449219 56.17136001586914 87 50.67130279541016 87 45.00001525878906 C 87 39.32872772216797 85.88993835449219 33.82867050170898 83.70065307617188 28.65262985229492 C 81.58542633056641 23.65165710449219 78.55665588378906 19.15968322753906 74.69847869873047 15.301513671875 C 70.84030914306641 11.44334411621094 66.34834289550781 8.414573669433594 61.34736633300781 6.299346923828125 C 56.17134094238281 4.110061645507812 50.67128372192383 3 44.99999618530273 3 M 44.99999618530273 0 C 69.85281372070312 0 90 20.14718627929688 90 45.00001525878906 C 90 69.85282897949219 69.85281372070312 90.00003051757812 44.99999618530273 90.00003051757812 C 20.14717864990234 90.00003051757812 -7.62939453125e-06 69.85282897949219 -7.62939453125e-06 45.00001525878906 C -7.62939453125e-06 20.14718627929688 20.14717864990234 0 44.99999618530273 0 Z" stroke="none" fill="#866d08"/>
                        </g>
                      </g>
                    </g>
                  </g>
                </g>
              </g>
            </g>
          </g>
        </g>
      </g>
    </g>
    <g id="simulacion" transform="translate(223.634 8184.779)">
      <g id="Grupo_1232037" data-name="Grupo 1232037" transform="translate(0.743 0.743)">
        <path id="Trazado_1220480" data-name="Trazado 1220480" d="M56.745,37.127H7.5V9.5a2,2,0,0,1,2-2H54.743a2,2,0,0,1,2,2Z" transform="translate(-7.5 -7.5)" fill="#99e6fc"/>
        <path id="Trazado_1220481" data-name="Trazado 1220481" d="M54.743,312.915H9.5a2,2,0,0,1-2-2v-4.4H56.745v4.4A2,2,0,0,1,54.743,312.915Z" transform="translate(-7.5 -276.882)" fill="#e2e2e2"/>
        <path id="Trazado_1220482" data-name="Trazado 1220482" d="M455.175,7.5h-3.2a2,2,0,0,1,2,2V37.127h3.2V9.5A2,2,0,0,0,455.175,7.5Z" transform="translate(-407.932 -7.5)" fill="#62dbfb"/>
        <path id="Trazado_1220483" data-name="Trazado 1220483" d="M453.974,306.508v4.4a2,2,0,0,1-2,2h3.2a2,2,0,0,0,2-2v-4.4Z" transform="translate(-407.932 -276.881)" fill="#cecece"/>
        <path id="Trazado_1220484" data-name="Trazado 1220484" d="M108.593,475.378H73.962a.8.8,0,0,1-.8-.8v-1.6a.8.8,0,0,1,.8-.8h34.632a.8.8,0,0,1,.8.8v1.6A.8.8,0,0,1,108.593,475.378Z" transform="translate(-66.655 -426.133)" fill="#e2e2e2"/>
        <path id="Trazado_1220485" data-name="Trazado 1220485" d="M401.636,472.175h-3.2a.8.8,0,0,1,.8.8v1.6a.8.8,0,0,1-.8.8h3.2a.8.8,0,0,0,.8-.8v-1.6A.8.8,0,0,0,401.636,472.175Z" transform="translate(-359.698 -426.133)" fill="#cecece"/>
        <path id="Trazado_1220486" data-name="Trazado 1220486" d="M164.473,381.167l-2.59-1.253a6.406,6.406,0,0,1-3.616-5.766v-2.99H148.058v2.99a6.406,6.406,0,0,1-3.616,5.766l-2.59,1.253Z" transform="translate(-128.54 -335.125)" fill="#9c9c9c"/>
      </g>
      <g id="Grupo_1232038" data-name="Grupo 1232038" transform="translate(15.356 4.847)">
        <path id="Trazado_1220487" data-name="Trazado 1220487" d="M164.992,56.924l-10.009-4,10.009-4,10.009,4Z" transform="translate(-154.983 -48.917)" fill="#fea95c"/>
        <path id="Trazado_1220488" data-name="Trazado 1220488" d="M154.983,89.323l10.009,4v13.412l-10.009-4Z" transform="translate(-154.983 -85.319)" fill="#fd8087"/>
        <path id="Trazado_1220489" data-name="Trazado 1220489" d="M187.308,146.37v-4.653a.8.8,0,0,1,1.1-.743l1.876.75a1,1,0,0,1,.629.929v4.653a.8.8,0,0,1-1.1.743l-1.876-.75A1,1,0,0,1,187.308,146.37Z" transform="translate(-184.105 -131.8)" fill="#fe646f"/>
        <path id="Trazado_1220490" data-name="Trazado 1220490" d="M266.008,89.323l-10.009,4v13.412l10.009-4Z" transform="translate(-245.99 -85.319)" fill="#cb97e7"/>
        <path id="Trazado_1220491" data-name="Trazado 1220491" d="M288.953,141.724l1.876-.75a.8.8,0,0,1,1.1.743v4.653a1,1,0,0,1-.629.929l-1.876.75a.8.8,0,0,1-1.1-.743v-4.653A1,1,0,0,1,288.953,141.724Z" transform="translate(-275.112 -131.8)" fill="#bd80e1"/>
      </g>
      <g id="Grupo_1232039" data-name="Grupo 1232039" transform="translate(0)">
        <path id="Trazado_1220492" data-name="Trazado 1220492" d="M58.108,44.943a1.3,1.3,0,1,0,1.053,2.063h1.26L63.213,49.8a.743.743,0,0,0,.525.218h2.053v2.11H59.176a1.3,1.3,0,1,0,0,1.486h6.616v2.11H63.739a.743.743,0,0,0-.525.218l-2.792,2.792h-1.26a1.3,1.3,0,1,0,.028,1.486h1.54A.743.743,0,0,0,61.255,60l2.792-2.792h1.745v2.367a.743.743,0,0,0,.467.69l10.009,4a.744.744,0,0,0,.552,0l10.009-4a.743.743,0,0,0,.467-.69V57.209h1.745L91.833,60a.743.743,0,0,0,.525.218H93.9a1.3,1.3,0,1,0,.028-1.486h-1.26L89.874,55.94a.743.743,0,0,0-.525-.218H87.3v-2.11h6.616a1.3,1.3,0,1,0,0-1.486H87.3v-2.11h2.053a.743.743,0,0,0,.525-.218l2.792-2.792h1.26a1.3,1.3,0,1,0-.028-1.486h-1.54a.743.743,0,0,0-.525.218L89.041,48.53H87.3V46.164a.743.743,0,0,0-.467-.69l-10.009-4a.743.743,0,0,0-.552,0l-10.009,4a.743.743,0,0,0-.467.69V48.53H64.047l-2.792-2.792a.743.743,0,0,0-.525-.218h-1.54A1.3,1.3,0,0,0,58.108,44.943Zm27.7,14.129-8.523,3.409V50.67l8.523-3.409ZM76.544,42.96l8.008,3.2-8.008,3.2-8.008-3.2Zm-9.266,4.3L75.8,50.67V62.482l-8.523-3.409Z" transform="translate(-51.178 -37.313)"/>
        <path id="Trazado_1220493" data-name="Trazado 1220493" d="M47.987,0H11.423a.743.743,0,1,0,0,1.486H47.987a1.26,1.26,0,0,1,1.258,1.258V29.627H43.41a.743.743,0,0,0,0,1.486h5.835v3.661a1.26,1.26,0,0,1-1.258,1.258H2.745a1.26,1.26,0,0,1-1.258-1.258V31.114H39.942a.743.743,0,0,0,0-1.486H1.486V2.745A1.26,1.26,0,0,1,2.745,1.486H7.955A.743.743,0,1,0,7.955,0H2.745A2.748,2.748,0,0,0,0,2.745v32.03a2.748,2.748,0,0,0,2.745,2.745H19.518v2.246a5.7,5.7,0,0,1-3.2,5.1l-2.436,1.179H8.05a1.546,1.546,0,0,0-1.544,1.545v1.6A1.545,1.545,0,0,0,8.05,50.731H42.682a1.545,1.545,0,0,0,1.544-1.544v-1.6a1.546,1.546,0,0,0-1.544-1.545H36.845L34.41,44.863a5.7,5.7,0,0,1-3.2-5.1V37.519H47.987a2.748,2.748,0,0,0,2.745-2.745V2.745A2.748,2.748,0,0,0,47.987,0ZM33.455,46.042H21.995a.743.743,0,1,0,0,1.486H42.682a.058.058,0,0,1,.057.058v1.6a.058.058,0,0,1-.057.057H8.05a.058.058,0,0,1-.057-.057v-1.6a.058.058,0,0,1,.057-.058H18.527a.743.743,0,0,0,0-1.486H17.276A7.192,7.192,0,0,0,21,39.766V37.519h8.723v2.246A7.192,7.192,0,0,0,33.455,46.042Z" transform="translate(0)"/>
        <path id="Trazado_1220494" data-name="Trazado 1220494" d="M183.8,134.282l-1.876-.75a1.544,1.544,0,0,0-2.117,1.433v4.653a1.736,1.736,0,0,0,1.1,1.619l1.876.75a1.544,1.544,0,0,0,2.117-1.433V135.9A1.736,1.736,0,0,0,183.8,134.282Zm-.39,6.272a.052.052,0,0,1-.025.048.052.052,0,0,1-.054.006l-1.876-.75a.256.256,0,0,1-.162-.239v-4.653a.052.052,0,0,1,.025-.048.052.052,0,0,1,.054-.006l1.876.75a.256.256,0,0,1,.162.239v4.653Z" transform="translate(-161.991 -120.201)"/>
        <path id="Trazado_1220495" data-name="Trazado 1220495" d="M281.5,141.833a1.542,1.542,0,0,0,1.439.155l1.876-.75a1.736,1.736,0,0,0,1.1-1.619v-4.653a1.544,1.544,0,0,0-2.117-1.433l-1.876.75a1.736,1.736,0,0,0-1.1,1.619v4.653A1.542,1.542,0,0,0,281.5,141.833Zm.808-5.931a.256.256,0,0,1,.162-.239l1.876-.75a.052.052,0,0,1,.054.006.052.052,0,0,1,.025.048v4.653a.256.256,0,0,1-.162.239l-1.876.75a.058.058,0,0,1-.079-.053Z" transform="translate(-253 -120.202)"/>
      </g>
    </g>
  </g>
</svg>
