<svg xmlns="http://www.w3.org/2000/svg" xmlns:xlink="http://www.w3.org/1999/xlink" width="295" height="358" viewBox="0 0 295 358">
  <defs>
    <clipPath id="clip-path">
      <rect id="Rect치ngulo_422983" data-name="Rect치ngulo 422983" width="295" height="358" transform="translate(1125 10428)" fill="#fff" stroke="#707070" stroke-width="1"/>
    </clipPath>
    <linearGradient id="linear-gradient" y1="0.5" x2="1" y2="0.5" gradientUnits="objectBoundingBox">
      <stop offset="0" stop-color="#3bbfff"/>
      <stop offset="0.291" stop-color="#2f93f0"/>
      <stop offset="0.603" stop-color="#256be2"/>
      <stop offset="0.85" stop-color="#1e52d9"/>
      <stop offset="1" stop-color="#1c49d6"/>
    </linearGradient>
  </defs>
  <g id="Grupo_1232097" data-name="Grupo 1232097" transform="translate(-1125 -10428)">
    <rect id="Rect치ngulo_422986" data-name="Rect치ngulo 422986" width="294" height="211" transform="translate(1125 10478)" fill="#fef9e5"/>
    <g id="Enmascarar_grupo_1208517" data-name="Enmascarar grupo 1208517" clip-path="url(#clip-path)">
      <g id="_10035877_18022405" data-name="10035877_18022405" transform="translate(883.695 10371.045)">
        <g id="Grupo_1232045" data-name="Grupo 1232045" transform="translate(422.38 170.109)">
          <g id="Grupo_1232042" data-name="Grupo 1232042" transform="translate(0 0)">
            <g id="Grupo_1232041" data-name="Grupo 1232041">
              <path id="Trazado_1220496" data-name="Trazado 1220496" d="M755.787,345.09v29.271l-36.211-20.789V324.259Z" transform="translate(-719.576 -322.126)" fill="#ed66ed"/>
              <path id="Trazado_1220497" data-name="Trazado 1220497" d="M719.576,320.782l36.209,20.825,3.695-2.133-36.209-20.825Z" transform="translate(-719.576 -318.649)" fill="#fc92ff"/>
              <path id="Trazado_1220498" data-name="Trazado 1220498" d="M814.8,375.553v29.27l3.689-2.135V373.413Z" transform="translate(-778.592 -352.588)" fill="#d845d8"/>
            </g>
            <path id="Trazado_1220499" data-name="Trazado 1220499" d="M747.855,417.454l3.357,10.87,4.238-6.485Z" transform="translate(-737.102 -379.882)" fill="#ed66ed"/>
            <path id="Trazado_1220500" data-name="Trazado 1220500" d="M756.683,435.471l7.8-4.426-3.566-2.059Z" transform="translate(-742.573 -387.029)" fill="#d845d8"/>
          </g>
          <g id="Grupo_1232044" data-name="Grupo 1232044" transform="translate(2.351 12.002)">
            <path id="Trazado_1220501" data-name="Trazado 1220501" d="M754.74,373.393v-8.13l-2.005-1.158-1.471.812-.129-1.736L749,361.949l-.111.062h0l-.111.062h0l-.111.062h0l-.111.062h0l-.111.062h0l-.111.062h0l-.111.062h0l-.111.062h0l-.111.062h0l-.111.062h0l-.111.062h0l-.111.062h0l-.111.062h0l-.111.062h0l-.111.062h0l-.111.062h0l-.111.062h0l-.111.062h0l-.111.062h0l-.111.062h0l-.111.062h0l-.111.062h0l-.111.062h0l-.111.062h0l-.111.062h0l-.056.031L745.1,359.7l-1.974-1.14h0l-.167-.1-1.037.577v-1.175l-6.188-3.572-.212.117v-.24l-2.006-1.158-2.838,1.584v-3.222l-2.005-1.158-.111.062h0l-.111.062-.222.124h0l-.111.062-.222.124-.333.186-.445.248h0l-.111.062-.222.124h0l-.111.062-.222.124-.333.186-.333.186V361.99l2.005,1.158v-.126l.111.064v-.126l.111.064V362.9l.111.064v-.126l.111.064v-.126l.111.064v-.126l.111.064v-.126l.111.064v-.126l.111.064v-.126l.111.064v-.126l.111.064V362.4l.111.064v-.126l.111.064v-.126l.111.064v-.126l.111.064v-.126l.111.064v-.126l.111.064v-.126l.111.064v-.126l.111.064v-.126l.111.064v-.126l.111.064v-.126l.111.064v-.126l.111.064v-.126l.111.064V361.6l.111.064v-.126l.111.064v-.126l.06.035v3.282l2,1.155v.019l2.31-1.289v2.6l2,1.154v.019l2.579-1.444-.226,2.784,2,1.155v.019L743,370l.566,2.2,1.189.687v.019l2.109-1.173.168,2.531,2.005,1.158.811-.427v.9l5.027,2.9,0,.021,2.893-1.63v-2.032Zm-14.914-10.267v-2.01l.172-.154,0-.031,0,0Z" transform="translate(-725.774 -350.213)" fill="#d845d8"/>
            <g id="Grupo_1232043" data-name="Grupo 1232043" transform="translate(0 1.627)">
              <path id="Trazado_1220502" data-name="Trazado 1220502" d="M727.763,365.811l-2.006-1.158V354.491l2.006,1.158V359.7l2.838,1.638v-4.053l2.005,1.158v10.162l-2.005-1.158v-4.078l-2.838-1.638Z" transform="translate(-725.758 -354.491)" fill="#fff"/>
              <path id="Trazado_1220503" data-name="Trazado 1220503" d="M744.33,365.213l6.188,3.572v2.032l-2.091-1.207v8.13l-2.005-1.158v-8.13l-2.091-1.207Z" transform="translate(-737.268 -361.136)" fill="#fff"/>
              <path id="Trazado_1220504" data-name="Trazado 1220504" d="M768.6,384.11l-.053-.031-1.8,4.921-1.195-.69-1.8-7-.053-.031-.416,5.783-2.005-1.158.789-9.707,2.134,1.232,1.952,6.991,1.952-4.737,2.134,1.232.789,10.618-2.005-1.158Z" transform="translate(-747.77 -367.942)" fill="#fff"/>
              <path id="Trazado_1220505" data-name="Trazado 1220505" d="M791.054,400.32l3.029,1.749V404.1l-5.035-2.907V391.032l2.005,1.158v8.13Z" transform="translate(-764.981 -377.137)" fill="#fff"/>
            </g>
          </g>
        </g>
        <path id="Trazado_1220506" data-name="Trazado 1220506" d="M509.118,671.348l68.451-40.61a8.172,8.172,0,0,0-.038-14.078l-63.385-37.149-82.125,53.823Z" transform="translate(-118.987 -310.206)" opacity="0.09" fill="url(#linear-gradient)"/>
        <path id="Trazado_1220507" data-name="Trazado 1220507" d="M487.252,168.54l-76.961-44.4c-2.137-1.234-3.062-.957-4.641,0L392.394,131.7l9.061,4.6V314.7h0v7.417c0,5.59,3.443,12.109,7.689,14.561l72.418,41.81-4.806,6.677,4.2,3.456,11.126-4.265h0c1.743-.849,2.859-3.042,2.859-6.223v-8h0V183.1C494.941,177.511,491.5,170.992,487.252,168.54Z" transform="translate(-94.428 -27.484)" fill="#9fbaff"/>
        <path id="Trazado_1220508" data-name="Trazado 1220508" d="M573.744,264.8s-1.083-.1-2.925-.264l-2.53,179.143,22.283,12.865-4.806,6.677,4.2,5.5,11.126-6.307,0,0c1.744-.849,2.86-3.042,2.86-6.223v-8h0V261.151a19.375,19.375,0,0,0-4.575-11.9Z" transform="translate(-203.437 -105.534)" fill="#87a7f9"/>
        <g id="Grupo_1232046" data-name="Grupo 1232046" transform="translate(240.027 115.375)">
          <path id="Trazado_1220509" data-name="Trazado 1220509" d="M267.1,196.76l1.76-1.012c.877-.448.665-.6-.208-4.2a2,2,0,0,0-1.258-1.466c-1.345-.272-1.569-.152-2.282-1.663a1.282,1.282,0,0,1-.008-1.373l.606-.613c.324-.328.225-1.105-.221-1.737-3.111-4.406-2.368-3.659-4.543-2.555a2.432,2.432,0,0,1-.774-.6c-.843-.781-.708-1.615-.708-2.7a2.206,2.206,0,0,0-1-1.729c-2.84-1.64-2.675-1.708-3.339-1.267-.015.008-.388.222-.405.233,0,0-1.646.947-1.737,1l-.6-1.3c-.324-.7-.948-1.177-1.394-1.06-1.769.463-1.974.466-2.324.724-.014.008-4.752,2.729-4.765,2.739-.456.257-.391.874-.206,1.341-.02.014-2.5,1.44-2.5,1.44-.429.255-.254-.014-1.121,2.566a2,2,0,0,0,.641,1.822c.91.867,1.5,1.291,1.641,2.19-.014.008-1.545.887-1.559.9-1.119.57-.914.511.006,4.313a2,2,0,0,0,1.258,1.466c1.347.272,1.569.153,2.282,1.663a1.282,1.282,0,0,1,.008,1.373l-.606.613c-.324.328-.225,1.105.221,1.737,3.117,4.414,2.363,3.653,4.543,2.555a2.427,2.427,0,0,1,.774.6c.844.782.708,1.617.708,2.7a2.206,2.206,0,0,0,1,1.729l2.358,1.361c.641.37.631.014,3.124-1.323l.6,1.3c.324.7.948,1.177,1.394,1.06a7,7,0,0,0,2.577-.87l4.562-2.622c.324-.182.39-.721.156-1.312.021-.014,2.5-1.44,2.5-1.44.428-.254.251.023,1.121-2.566a2,2,0,0,0-.641-1.822C267.843,198.091,267.241,197.662,267.1,196.76Zm-15.556-10.128c3.684,1.67,6.772,7.037,6.368,11.047C254.242,196.013,251.143,190.654,251.547,186.632Z" transform="translate(-240.028 -174.71)" fill="#8aa8ff"/>
          <path id="Trazado_1220510" data-name="Trazado 1220510" d="M263.624,206.689l-.971-.925a2.223,2.223,0,0,1-.69-1.517c0-.056,0-.113,0-.17s0-.114,0-.172c-.009-.513.271-.805.69-.72l.971.2c.524.106.811-.378.641-1.082l-.729-3.01a2,2,0,0,0-1.258-1.466l-.981-.2a1.848,1.848,0,0,1-1.125-1.083q-.086-.192-.176-.382a1.282,1.282,0,0,1-.008-1.373l.606-.613c.324-.328.225-1.105-.221-1.737l-1.907-2.7c-.446-.632-1.07-.878-1.394-.55l-.6.608c-.256.259-.713.164-1.126-.235-.1-.092-.192-.184-.289-.274a2.233,2.233,0,0,1-.708-1.512v-1.183a2.2,2.2,0,0,0-1-1.728l-2.358-1.361c-.551-.318-1-.06-1,.576v1.183c0,.508-.288.79-.708.694q-.145-.033-.289-.06a1.828,1.828,0,0,1-1.126-1.065l-.6-1.3c-.324-.7-.948-1.177-1.394-1.06l-1.907.5c-.446.117-.545.78-.221,1.482l.606,1.313a1.259,1.259,0,0,1-.008,1.363c-.06.058-.119.117-.176.179-.252.269-.708.181-1.125-.216l-.981-.934c-.524-.5-1.087-.493-1.258.014l-.729,2.169a2,2,0,0,0,.641,1.822l.971.925a2.223,2.223,0,0,1,.69,1.516c0,.056,0,.113,0,.17s0,.114,0,.172c.009.513-.271.805-.69.72l-.971-.2c-.524-.106-.811.378-.641,1.082l.729,3.01a2,2,0,0,0,1.258,1.466l.981.2a1.85,1.85,0,0,1,1.125,1.083q.086.192.176.382a1.282,1.282,0,0,1,.008,1.373l-.606.613c-.324.328-.225,1.105.221,1.737l1.907,2.7c.446.632,1.07.878,1.394.55l.6-.608c.256-.259.713-.164,1.126.235q.144.139.289.274a2.233,2.233,0,0,1,.708,1.512v1.183a2.206,2.206,0,0,0,1,1.729l2.358,1.361c.551.318,1,.06,1-.576v-1.183c0-.508.288-.79.708-.694q.145.033.289.06a1.827,1.827,0,0,1,1.126,1.065l.6,1.3c.324.7.948,1.177,1.394,1.06l1.907-.5c.446-.117.545-.78.221-1.482l-.606-1.313A1.259,1.259,0,0,1,260,209.72c.06-.058.119-.117.176-.179.252-.269.708-.181,1.125.216l.981.934c.524.5,1.087.493,1.258-.014l.729-2.169A2,2,0,0,0,263.624,206.689ZM252.171,205.1a12.775,12.775,0,0,1-5.78-10.011c0-3.686,2.588-5.18,5.78-3.337a12.775,12.775,0,0,1,5.78,10.011C257.95,205.445,255.363,206.939,252.171,205.1Z" transform="translate(-240.027 -179.505)" fill="#deebff"/>
        </g>
        <g id="Grupo_1232047" data-name="Grupo 1232047" transform="translate(406.622 127.379)">
          <path id="Trazado_1220511" data-name="Trazado 1220511" d="M695.782,220.651l1.147-.66c.572-.292.433-.388-.135-2.736a1.3,1.3,0,0,0-.82-.956c-.877-.177-1.022-.1-1.487-1.084a.835.835,0,0,1-.005-.895l.4-.4c.211-.214.147-.721-.144-1.132-2.028-2.872-1.543-2.385-2.961-1.666a1.585,1.585,0,0,1-.5-.389c-.55-.51-.462-1.053-.462-1.757a1.438,1.438,0,0,0-.651-1.127c-1.851-1.069-1.744-1.113-2.177-.826-.01,0-.253.145-.264.152s-1.073.617-1.132.649l-.391-.846c-.211-.457-.618-.767-.909-.691-1.153.3-1.286.3-1.515.472-.009,0-3.1,1.779-3.105,1.785-.3.167-.255.57-.134.874-.013.009-1.631.939-1.631.939-.279.166-.166-.009-.731,1.672a1.3,1.3,0,0,0,.418,1.188c.593.565.98.841,1.069,1.428-.01.005-1.007.578-1.016.584-.73.372-.6.333,0,2.811a1.3,1.3,0,0,0,.82.955c.878.178,1.022.1,1.487,1.084a.836.836,0,0,1,.005.895l-.395.4c-.211.214-.147.721.144,1.132,2.031,2.877,1.54,2.381,2.961,1.666a1.584,1.584,0,0,1,.5.389c.55.51.462,1.054.462,1.757a1.438,1.438,0,0,0,.651,1.127l1.537.887c.417.241.411.009,2.036-.862l.391.846c.211.457.618.767.908.691a4.563,4.563,0,0,0,1.68-.567l2.974-1.709c.211-.119.254-.47.1-.855.013-.01,1.631-.939,1.631-.939.279-.166.163.015.73-1.672a1.3,1.3,0,0,0-.417-1.188C696.264,221.518,695.872,221.239,695.782,220.651Zm-10.14-6.6a8.076,8.076,0,0,1,4.151,7.2A8.077,8.077,0,0,1,685.643,214.049Z" transform="translate(-678.135 -206.279)" fill="#8aa8ff"/>
          <path id="Trazado_1220512" data-name="Trazado 1220512" d="M693.516,227.122l-.633-.6a1.449,1.449,0,0,1-.449-.989c0-.036,0-.074,0-.111s0-.075,0-.112c-.006-.334.177-.525.449-.47l.633.128c.341.069.529-.247.417-.705l-.475-1.962a1.3,1.3,0,0,0-.82-.956l-.639-.129a1.2,1.2,0,0,1-.733-.706c-.038-.083-.076-.166-.115-.249a.836.836,0,0,1-.005-.9l.4-.4c.211-.214.147-.721-.144-1.132l-1.243-1.761c-.29-.411-.7-.572-.908-.358l-.392.4c-.167.169-.464.107-.734-.153-.062-.06-.125-.12-.189-.178a1.456,1.456,0,0,1-.462-.986v-.771a1.438,1.438,0,0,0-.651-1.127l-1.537-.887c-.359-.207-.651-.039-.651.376v.771c0,.331-.187.515-.462.453-.063-.014-.126-.027-.189-.039a1.192,1.192,0,0,1-.734-.694l-.392-.849c-.211-.457-.618-.767-.909-.691l-1.243.325c-.291.076-.355.508-.144.966l.4.856a.821.821,0,0,1-.005.889c-.039.038-.077.076-.115.116-.164.175-.462.118-.733-.141l-.639-.609c-.342-.326-.709-.321-.819.009l-.475,1.413a1.3,1.3,0,0,0,.417,1.188l.633.6a1.449,1.449,0,0,1,.449.989c0,.036,0,.074,0,.111s0,.075,0,.112c.006.334-.177.525-.449.47l-.633-.128c-.341-.069-.529.247-.417.705l.475,1.962a1.3,1.3,0,0,0,.819.955l.639.129a1.205,1.205,0,0,1,.733.706c.038.083.076.166.115.249a.835.835,0,0,1,.005.895l-.4.4c-.211.214-.147.721.144,1.132l1.243,1.761c.291.411.7.572.908.359l.392-.4c.167-.169.464-.107.734.153q.094.091.189.178a1.457,1.457,0,0,1,.462.986v.771a1.438,1.438,0,0,0,.651,1.127l1.537.887c.359.208.651.039.651-.376v-.771c0-.331.187-.515.462-.452.063.014.126.028.189.039a1.191,1.191,0,0,1,.734.694l.392.849c.211.457.618.767.908.691l1.243-.325c.291-.076.355-.508.144-.966l-.4-.856a.821.821,0,0,1,.005-.889c.039-.038.077-.076.115-.116.164-.175.462-.118.733.141l.639.609c.342.326.708.321.82-.009l.475-1.413A1.309,1.309,0,0,0,693.516,227.122Zm-7.465-1.038a8.327,8.327,0,0,1-3.767-6.525c0-2.4,1.686-3.376,3.767-2.175a8.327,8.327,0,0,1,3.767,6.525C689.818,226.312,688.132,227.285,686.051,226.084Z" transform="translate(-678.136 -209.405)" fill="#deebff"/>
        </g>
        <g id="Grupo_1232048" data-name="Grupo 1232048" transform="translate(295.758 103.422)">
          <path id="Trazado_1220513" data-name="Trazado 1220513" d="M472.384,402.543l-78.108-45.1c-4.247-2.452-7.689-8.971-7.689-14.561V149.893c0-5.59,3.443-8.134,7.689-5.682l78.108,45.1c4.246,2.452,7.689,8.971,7.689,14.561V396.86C480.074,402.451,476.631,404.995,472.384,402.543Z" transform="translate(-386.587 -143.277)" fill="#d7e4ff"/>
          <path id="Trazado_1220514" data-name="Trazado 1220514" d="M480.074,420.252l-93.487-55.433V196.51l93.487,53.975Z" transform="translate(-386.587 -176.268)" fill="#353fb0"/>
          <path id="Trazado_1220515" data-name="Trazado 1220515" d="M499,232.574l-27.6-15.936a2.667,2.667,0,0,1-1.113-2.127h0c0-.82.5-1.2,1.113-.842L499,229.605a2.666,2.666,0,0,1,1.113,2.127h0C500.118,232.552,499.619,232.929,499,232.574Z" transform="translate(-438.46 -186.819)" fill="#8aa8ff"/>
          <path id="Trazado_1220516" data-name="Trazado 1220516" d="M563.994,268.7c0,.82-.575,1.152-1.285.742a2.841,2.841,0,0,1-1.285-2.226c0-.82.575-1.152,1.285-.742A2.841,2.841,0,0,1,563.994,268.7Z" transform="translate(-494.94 -219.52)" fill="#8aa8ff"/>
        </g>
        <path id="Trazado_1220517" data-name="Trazado 1220517" d="M394.276,146.082l78.108,45.1c4.247,2.452,7.689,8.971,7.689,14.561v-1.871c0-5.59-3.443-12.109-7.689-14.561l-78.108-45.1c-4.247-2.452-7.689.092-7.689,5.682v1.871C386.587,146.174,390.03,143.63,394.276,146.082Z" transform="translate(-90.829 -39.855)" fill="#fff"/>
        <path id="Trazado_1220518" data-name="Trazado 1220518" d="M472.384,722.941l-78.108-45.1c-4.247-2.452-7.689-8.971-7.689-14.561v1.871c0,5.59,3.443,12.109,7.689,14.561l78.108,45.1c4.247,2.452,7.689-.092,7.689-5.682v-1.871C480.074,722.849,476.631,725.393,472.384,722.941Z" transform="translate(-90.829 -362.124)" fill="#c4d5f2"/>
        <g id="Grupo_1232049" data-name="Grupo 1232049" transform="translate(392.894 180.313)">
          <path id="Trazado_1220519" data-name="Trazado 1220519" d="M644.457,381.754l-.315.181c-1.165.672-2.108-.041-2.108-1.594v-30.4a5.049,5.049,0,0,1,2.108-4.029l.315-.182c1.164-.672,2.109.041,2.109,1.594v30.4A5.051,5.051,0,0,1,644.457,381.754Z" transform="translate(-642.034 -345.482)" fill="#353da5"/>
          <path id="Trazado_1220520" data-name="Trazado 1220520" d="M644.457,475.449l-.315.182c-1.165.672-2.108-.041-2.108-1.594V459.7a5.049,5.049,0,0,1,2.108-4.029l.315-.182c1.164-.672,2.109.041,2.109,1.594V471.42A5.05,5.05,0,0,1,644.457,475.449Z" transform="translate(-642.034 -413.501)" fill="#353da5"/>
        </g>
        <g id="Grupo_1232050" data-name="Grupo 1232050" transform="translate(393.918 180.313)">
          <path id="Trazado_1220521" data-name="Trazado 1220521" d="M647.149,381.754l-.315.181c-1.165.672-2.108-.041-2.108-1.594v-30.4a5.051,5.051,0,0,1,2.108-4.029l.315-.182c1.164-.672,2.109.041,2.109,1.594v30.4A5.051,5.051,0,0,1,647.149,381.754Z" transform="translate(-644.726 -345.482)" fill="#6969cc"/>
          <path id="Trazado_1220522" data-name="Trazado 1220522" d="M647.149,475.449l-.315.182c-1.165.672-2.108-.041-2.108-1.594V459.7a5.051,5.051,0,0,1,2.108-4.029l.315-.182c1.164-.672,2.109.041,2.109,1.594V471.42A5.05,5.05,0,0,1,647.149,475.449Z" transform="translate(-644.726 -413.501)" fill="#6969cc"/>
        </g>
        <path id="Trazado_1220523" data-name="Trazado 1220523" d="M557.424,219.718l11.986-7.958,4.469,2.578-11.987,7.96Z" transform="translate(-196.703 -82.296)" fill="#fff"/>
        <g id="Grupo_1232053" data-name="Grupo 1232053" transform="translate(317.387 214.844)">
          <g id="Grupo_1232051" data-name="Grupo 1232051" transform="translate(0)">
            <path id="Trazado_1220524" data-name="Trazado 1220524" d="M466.808,455.3l1.518-.873c.756-.386.573-.513-.179-3.619a1.725,1.725,0,0,0-1.084-1.264c-1.16-.235-1.353-.132-1.967-1.434a1.106,1.106,0,0,1-.007-1.184l.522-.529c.28-.283.194-.953-.19-1.5-2.682-3.8-2.042-3.154-3.917-2.2a2.1,2.1,0,0,1-.667-.514c-.727-.674-.611-1.393-.611-2.324a1.9,1.9,0,0,0-.861-1.49c-2.449-1.414-2.306-1.473-2.879-1.092-.013.006-.335.191-.349.2s-1.419.816-1.5.858l-.516-1.119c-.279-.6-.817-1.014-1.2-.914-1.526.4-1.7.4-2,.625-.012.006-4.1,2.353-4.108,2.361-.394.222-.337.753-.178,1.156-.017.012-2.158,1.242-2.158,1.242-.37.22-.219-.012-.966,2.212a1.725,1.725,0,0,0,.552,1.571c.784.747,1.3,1.113,1.415,1.888-.013.007-1.332.765-1.344.773-.965.492-.788.441.005,3.719a1.725,1.725,0,0,0,1.084,1.264c1.161.235,1.352.132,1.967,1.434a1.106,1.106,0,0,1,.007,1.184l-.523.529c-.279.283-.194.953.19,1.5,2.687,3.805,2.037,3.15,3.917,2.2a2.1,2.1,0,0,1,.667.514c.727.674.611,1.394.611,2.323a1.9,1.9,0,0,0,.86,1.49l2.032,1.174c.552.319.544.012,2.693-1.141l.516,1.119c.279.6.817,1.014,1.2.913a6.03,6.03,0,0,0,2.221-.75l3.933-2.261c.279-.157.336-.621.134-1.131.018-.013,2.158-1.242,2.158-1.242.369-.219.216.019.966-2.212a1.725,1.725,0,0,0-.552-1.571C467.445,456.449,466.927,456.079,466.808,455.3ZM453.4,446.569c3.176,1.439,5.839,6.067,5.491,9.524C455.719,454.658,453.048,450.037,453.4,446.569Z" transform="translate(-443.466 -436.291)" fill="#8aa8ff"/>
            <path id="Trazado_1220525" data-name="Trazado 1220525" d="M463.808,463.861l-.837-.8a1.915,1.915,0,0,1-.595-1.308c0-.049,0-.1,0-.147s0-.1,0-.148c-.008-.442.234-.694.595-.621l.837.169c.452.091.7-.326.553-.933l-.628-2.595a1.726,1.726,0,0,0-1.084-1.264l-.845-.171a1.6,1.6,0,0,1-.97-.933q-.074-.165-.152-.329a1.106,1.106,0,0,1-.007-1.184l.522-.529c.279-.283.194-.953-.19-1.5l-1.644-2.329c-.384-.544-.923-.757-1.2-.474l-.518.524c-.221.224-.615.142-.971-.2q-.124-.12-.249-.236a1.925,1.925,0,0,1-.611-1.3v-1.02a1.9,1.9,0,0,0-.861-1.49l-2.033-1.173c-.475-.274-.86-.052-.86.5v1.02c0,.438-.248.681-.611.6q-.126-.028-.25-.052a1.574,1.574,0,0,1-.97-.918l-.518-1.123c-.279-.6-.817-1.014-1.2-.914l-1.644.43c-.384.1-.47.673-.19,1.278l.522,1.132a1.085,1.085,0,0,1-.007,1.175q-.078.075-.152.154c-.218.232-.61.156-.97-.187l-.845-.805c-.452-.43-.937-.425-1.084.012l-.628,1.869a1.726,1.726,0,0,0,.553,1.571l.837.8a1.917,1.917,0,0,1,.595,1.307c0,.049,0,.1,0,.147s0,.1,0,.148c.008.442-.234.694-.595.621l-.837-.169c-.452-.091-.7.326-.553.933l.628,2.595a1.725,1.725,0,0,0,1.084,1.264l.845.171a1.6,1.6,0,0,1,.97.934q.074.165.152.329a1.106,1.106,0,0,1,.007,1.184l-.522.529c-.279.283-.194.953.19,1.5l1.644,2.329c.384.545.923.757,1.2.474l.518-.524c.221-.224.614-.142.97.2q.124.12.25.236a1.926,1.926,0,0,1,.611,1.3v1.02a1.9,1.9,0,0,0,.86,1.49l2.033,1.173c.475.274.861.052.861-.5v-1.02c0-.438.248-.681.611-.6q.126.028.249.052a1.574,1.574,0,0,1,.971.918l.518,1.123c.279.605.817,1.014,1.2.913l1.644-.43c.384-.1.47-.673.19-1.278l-.522-1.132a1.085,1.085,0,0,1,.007-1.175q.078-.075.152-.154c.217-.232.61-.156.97.187l.845.805c.452.43.937.425,1.084-.012l.628-1.869A1.724,1.724,0,0,0,463.808,463.861Zm-9.874-1.373a11.014,11.014,0,0,1-4.983-8.631c0-3.178,2.231-4.466,4.983-2.877a11.014,11.014,0,0,1,4.983,8.63C458.917,462.788,456.686,464.076,453.934,462.487Z" transform="translate(-443.466 -440.425)" fill="#deebff"/>
          </g>
          <g id="Grupo_1232052" data-name="Grupo 1232052" transform="translate(26.385 14.409)">
            <path id="Trazado_1220526" data-name="Trazado 1220526" d="M528.934,487.28l1.045-.6c.521-.266.395-.353-.123-2.493a1.188,1.188,0,0,0-.747-.87c-.8-.162-.932-.091-1.355-.988a.761.761,0,0,1-.005-.815l.36-.364c.192-.195.134-.657-.131-1.032-1.848-2.617-1.407-2.173-2.7-1.517a1.446,1.446,0,0,1-.46-.354c-.5-.464-.421-.959-.421-1.6a1.31,1.31,0,0,0-.593-1.027c-1.687-.974-1.589-1.015-1.983-.752l-.241.138s-.978.562-1.031.591l-.356-.771c-.193-.417-.563-.7-.828-.629-1.051.275-1.172.277-1.38.43-.008,0-2.822,1.621-2.83,1.627-.271.153-.232.519-.123.8-.012.008-1.486.856-1.486.856-.254.151-.151-.008-.666,1.524a1.189,1.189,0,0,0,.381,1.082c.54.515.893.767.974,1.3-.009,0-.917.527-.926.533-.665.338-.543.3,0,2.561a1.188,1.188,0,0,0,.747.87c.8.162.932.091,1.355.988a.761.761,0,0,1,0,.815l-.36.364c-.192.195-.134.657.131,1.032,1.851,2.621,1.4,2.17,2.7,1.518a1.446,1.446,0,0,1,.46.354c.5.464.421.96.421,1.6a1.311,1.311,0,0,0,.593,1.027l1.4.808c.38.22.375.008,1.855-.786l.356.771c.192.417.563.7.828.629a4.156,4.156,0,0,0,1.531-.517l2.709-1.557c.192-.108.232-.428.092-.779.012-.009,1.487-.856,1.487-.856.254-.151.149.014.665-1.524a1.189,1.189,0,0,0-.381-1.082C529.373,488.07,529.015,487.815,528.934,487.28Zm-9.239-6.015a7.358,7.358,0,0,1,3.782,6.561A7.359,7.359,0,0,1,519.695,481.264Z" transform="translate(-512.854 -474.184)" fill="#8aa8ff"/>
            <path id="Trazado_1220527" data-name="Trazado 1220527" d="M526.867,493.175l-.577-.549a1.318,1.318,0,0,1-.41-.9c0-.033,0-.067,0-.1s0-.068,0-.1c-.005-.3.161-.478.41-.428l.577.117c.311.063.482-.225.381-.643l-.433-1.788a1.188,1.188,0,0,0-.747-.87l-.582-.118a1.1,1.1,0,0,1-.668-.643c-.034-.076-.069-.151-.1-.227a.763.763,0,0,1,0-.816l.36-.364c.192-.195.134-.657-.131-1.032l-1.133-1.6c-.265-.375-.635-.521-.828-.327l-.357.361c-.152.154-.423.1-.669-.14-.057-.055-.114-.109-.172-.163a1.326,1.326,0,0,1-.421-.9v-.7a1.31,1.31,0,0,0-.593-1.027l-1.4-.808c-.328-.189-.593-.036-.593.342v.7c0,.3-.171.469-.421.412-.058-.013-.115-.025-.172-.036a1.085,1.085,0,0,1-.668-.632l-.357-.773c-.192-.417-.563-.7-.828-.629l-1.133.3c-.265.069-.324.464-.131.88l.36.78a.747.747,0,0,1,0,.81c-.035.034-.07.07-.1.106-.15.16-.421.107-.668-.129l-.582-.555c-.311-.3-.646-.293-.747.008l-.433,1.288a1.189,1.189,0,0,0,.381,1.082l.577.549a1.318,1.318,0,0,1,.41.9c0,.033,0,.067,0,.1s0,.068,0,.1c.005.3-.161.478-.41.428l-.577-.117c-.312-.063-.482.225-.381.643l.433,1.788a1.188,1.188,0,0,0,.747.87l.583.118a1.1,1.1,0,0,1,.668.643q.051.113.1.227a.762.762,0,0,1,0,.815l-.36.364c-.192.195-.134.657.131,1.032l1.133,1.6c.265.375.635.521.828.327l.357-.361c.152-.154.423-.1.669.14.057.055.114.109.172.163a1.327,1.327,0,0,1,.421.9v.7a1.311,1.311,0,0,0,.593,1.027l1.4.808c.328.189.593.036.593-.342v-.7c0-.3.171-.469.421-.412.058.013.115.025.172.036a1.085,1.085,0,0,1,.668.632l.357.773c.192.417.563.7.828.629l1.133-.3c.265-.069.324-.464.131-.88l-.36-.78a.748.748,0,0,1,.005-.81c.036-.034.07-.07.1-.106.15-.16.421-.107.668.129l.582.555c.311.3.646.293.747-.008l.433-1.288A1.19,1.19,0,0,0,526.867,493.175Zm-6.8-.946a7.586,7.586,0,0,1-3.433-5.945c0-2.189,1.537-3.076,3.433-1.982a7.588,7.588,0,0,1,3.433,5.945C523.5,492.437,521.961,493.324,520.065,492.23Z" transform="translate(-512.853 -477.032)" fill="#deebff"/>
          </g>
        </g>
        <path id="Trazado_1220528" data-name="Trazado 1220528" d="M482.862,532.519c0-.03-.01-.059-.015-.089a5.467,5.467,0,0,0-.383-1.252,6.387,6.387,0,0,0-.706-1.223,5.888,5.888,0,0,0-.444-.535c-.078-.083-.158-.164-.24-.24a4.254,4.254,0,0,0-.777-.584l-39.625-22.878-39.625-22.878a2.121,2.121,0,0,0-1.461-.328,1.274,1.274,0,0,0-.387.145,1.836,1.836,0,0,0-.765,1.692v9.132h0v43.306a5.775,5.775,0,0,0,2.614,4.526L480.3,587.07c1.443.833,2.614.158,2.614-1.509V533.123A4.119,4.119,0,0,0,482.862,532.519Z" transform="translate(-98.171 -250.075)" fill="#c1d7ff"/>
        <path id="Trazado_1220529" data-name="Trazado 1220529" d="M481.757,274.183c-.926-1.258,1.565.388-41.086-24.237l-39.625-22.878a2.12,2.12,0,0,0-1.461-.328,1.274,1.274,0,0,0-.387.145,1.836,1.836,0,0,0-.765,1.692v9.132h0v43.306a5.776,5.776,0,0,0,2.613,4.526L480.3,331.3c1.443.833,2.614.158,2.614-1.509V277.351A5.659,5.659,0,0,0,481.757,274.183Z" transform="translate(-98.17 -91.563)" fill="#c1d7ff"/>
        <g id="Grupo_1232056" data-name="Grupo 1232056" transform="translate(300.82 136.896)">
          <path id="Trazado_1220530" data-name="Trazado 1220530" d="M480.906,276.513c-.009-.111-.025-.225-.045-.338a4.528,4.528,0,0,0-.127-.54,5.381,5.381,0,0,0-.352-.872c-.077-.152-.164-.3-.254-.447-.078-.125-.159-.247-.245-.365a5.226,5.226,0,0,0-.4-.48,4.044,4.044,0,0,0-.914-.741l-23.732-13.7-47.463-27.4a1.669,1.669,0,0,0-1.626-.181l0,0-.025.014-.013.008-3.73,1.953,3.049,1.316v6.45h0v38.9a5.19,5.19,0,0,0,2.348,4.066l69.157,39.93.018,3.465,3.679-2.124h0l.01-.006h0a1.655,1.655,0,0,0,.678-1.513V276.8C480.918,276.7,480.914,276.609,480.906,276.513Z" transform="translate(-401.188 -231.307)" fill="#7292d3"/>
          <path id="Trazado_1220531" data-name="Trazado 1220531" d="M399.9,285.446a5.2,5.2,0,0,0,2.351,4.073l71.3,41.166c1.3.75,2.351.142,2.351-1.358V282.149a5.2,5.2,0,0,0-2.351-4.073l-71.3-41.166c-1.3-.75-2.351-.142-2.351,1.358Z" transform="translate(-399.899 -234.58)" fill="#deebff"/>
          <g id="Grupo_1232055" data-name="Grupo 1232055" transform="translate(6.005 10.554)">
            <path id="Trazado_1220532" data-name="Trazado 1220532" d="M461.085,286.513l-32.318-18.659v-1.243l32.318,18.659Z" transform="translate(-423.795 -263.74)" fill="#ff4d8c"/>
            <path id="Trazado_1220533" data-name="Trazado 1220533" d="M447.1,286l-18.335-10.585V274.17L447.1,284.755Z" transform="translate(-423.795 -268.425)" fill="#353fb0"/>
            <path id="Trazado_1220534" data-name="Trazado 1220534" d="M452.229,296.314l-23.462-13.546v-1.243l23.462,13.546Z" transform="translate(-423.795 -272.983)" fill="#ff4d8c"/>
            <path id="Trazado_1220535" data-name="Trazado 1220535" d="M473.36,315.869l-44.593-25.746V288.88l44.593,25.746Z" transform="translate(-423.795 -277.541)" fill="#353fb0"/>
            <path id="Trazado_1220536" data-name="Trazado 1220536" d="M455.958,313.789l-27.191-15.7v-1.243l27.191,15.7Z" transform="translate(-423.795 -282.479)" fill="#ed66ed"/>
            <path id="Trazado_1220537" data-name="Trazado 1220537" d="M476.157,333.214l-47.39-27.36v-1.243l47.39,27.36Z" transform="translate(-423.795 -287.29)" fill="#ff4d8c"/>
            <path id="Trazado_1220538" data-name="Trazado 1220538" d="M464.581,342.058l-35.815-20.677v-1.243l35.815,20.677Z" transform="translate(-423.795 -296.913)" fill="#ed66ed"/>
            <path id="Trazado_1220539" data-name="Trazado 1220539" d="M476.157,356.5l-47.39-27.36V327.9l47.39,27.36Z" transform="translate(-423.795 -301.724)" fill="#ff4d8c"/>
            <path id="Trazado_1220540" data-name="Trazado 1220540" d="M462.561,356.418l-33.795-19.511v-1.243l33.795,19.511Z" transform="translate(-423.795 -306.535)" fill="#353fb0"/>
            <path id="Trazado_1220541" data-name="Trazado 1220541" d="M449.121,325.369l-20.354-11.752v-1.243l20.354,11.752Z" transform="translate(-423.795 -292.102)" fill="#353fb0"/>
            <path id="Trazado_1220542" data-name="Trazado 1220542" d="M445.548,354.359l-16.781-9.688v-1.243l16.781,9.688Z" transform="translate(-423.795 -311.347)" fill="#ed66ed"/>
            <path id="Trazado_1220543" data-name="Trazado 1220543" d="M486.846,378.2l-11.5-6.638v-1.243l11.5,6.638Z" transform="translate(-452.663 -328.014)" fill="#353fb0"/>
            <path id="Trazado_1220544" data-name="Trazado 1220544" d="M496.653,352.81l-11.5-6.638v-1.243l11.5,6.639Z" transform="translate(-458.741 -312.277)" fill="#ed66ed"/>
            <path id="Trazado_1220545" data-name="Trazado 1220545" d="M515.04,347.9l-11.5-6.638v-1.243l11.5,6.639Z" transform="translate(-470.136 -309.234)" fill="#ff4d8c"/>
            <path id="Trazado_1220546" data-name="Trazado 1220546" d="M471.03,376.834l-42.263-24.4v-1.243l42.263,24.4Z" transform="translate(-423.795 -316.158)" fill="#353fb0"/>
            <path id="Trazado_1220547" data-name="Trazado 1220547" d="M455.725,375.761,428.767,360.2v-1.243l26.958,15.564Z" transform="translate(-423.795 -320.969)" fill="#ed66ed"/>
            <path id="Trazado_1220548" data-name="Trazado 1220548" d="M465.28,395.988l-36.513-21.081v-1.243l36.513,21.081Z" transform="translate(-423.795 -330.085)" fill="#ed66ed"/>
            <path id="Trazado_1220549" data-name="Trazado 1220549" d="M442.285,375.357l-13.518-7.8v-1.243l13.518,7.8Z" transform="translate(-423.795 -325.527)" fill="#ff4d8c"/>
            <g id="Grupo_1232054" data-name="Grupo 1232054">
              <path id="Trazado_1220550" data-name="Trazado 1220550" d="M417.281,261.223l-1.589-.918v-1.243l1.589.918Z" transform="translate(-415.692 -259.062)" fill="#ff4d8c"/>
              <path id="Trazado_1220551" data-name="Trazado 1220551" d="M416.594,268.385l-.9-.521v-1.243l.9.521Z" transform="translate(-415.692 -263.747)" fill="#353fb0"/>
              <path id="Trazado_1220552" data-name="Trazado 1220552" d="M416.846,275.885l-1.154-.666v-1.243l1.154.666Z" transform="translate(-415.692 -268.305)" fill="#ff4d8c"/>
              <path id="Trazado_1220553" data-name="Trazado 1220553" d="M417.885,283.84l-2.193-1.266v-1.243l2.193,1.266Z" transform="translate(-415.692 -272.863)" fill="#353fb0"/>
              <path id="Trazado_1220554" data-name="Trazado 1220554" d="M417.029,291.313l-1.337-.772V289.3l1.337.772Z" transform="translate(-415.692 -277.8)" fill="#ed66ed"/>
              <path id="Trazado_1220555" data-name="Trazado 1220555" d="M417.867,299.561l-2.175-1.256v-1.243l2.175,1.256Z" transform="translate(-415.692 -282.612)" fill="#ff4d8c"/>
              <path id="Trazado_1220556" data-name="Trazado 1220556" d="M417.453,314.849l-1.761-1.017v-1.243l1.761,1.017Z" transform="translate(-415.692 -292.235)" fill="#ed66ed"/>
              <path id="Trazado_1220557" data-name="Trazado 1220557" d="M418.023,322.94l-2.331-1.345v-1.243l2.331,1.346Z" transform="translate(-415.692 -297.046)" fill="#ff4d8c"/>
              <path id="Trazado_1220558" data-name="Trazado 1220558" d="M417.354,330.318l-1.662-.96v-1.243l1.662.96Z" transform="translate(-415.692 -301.857)" fill="#353fb0"/>
              <path id="Trazado_1220559" data-name="Trazado 1220559" d="M416.693,306.646l-1-.578v-1.243l1,.578Z" transform="translate(-415.692 -287.423)" fill="#353fb0"/>
              <path id="Trazado_1220560" data-name="Trazado 1220560" d="M416.517,337.6l-.825-.477v-1.243l.825.477Z" transform="translate(-415.692 -306.669)" fill="#ed66ed"/>
              <path id="Trazado_1220561" data-name="Trazado 1220561" d="M418.548,338.771l-.565-.327V337.2l.565.327Z" transform="translate(-417.112 -307.488)" fill="#353fb0"/>
              <path id="Trazado_1220562" data-name="Trazado 1220562" d="M420.46,308.821l-.565-.326v-1.243l.565.327Z" transform="translate(-418.297 -288.927)" fill="#353fb0"/>
              <path id="Trazado_1220563" data-name="Trazado 1220563" d="M417.77,346.085l-2.078-1.2v-1.243l2.078,1.2Z" transform="translate(-415.692 -311.48)" fill="#353fb0"/>
              <path id="Trazado_1220564" data-name="Trazado 1220564" d="M417.018,353.414l-1.326-.766V351.4l1.326.765Z" transform="translate(-415.692 -316.291)" fill="#ed66ed"/>
              <path id="Trazado_1220565" data-name="Trazado 1220565" d="M417.488,368.395l-1.8-1.037v-1.243l1.8,1.037Z" transform="translate(-415.692 -325.407)" fill="#ed66ed"/>
              <path id="Trazado_1220566" data-name="Trazado 1220566" d="M416.357,360.387l-.665-.384V358.76l.665.384Z" transform="translate(-415.692 -320.849)" fill="#ff4d8c"/>
            </g>
          </g>
        </g>
        <g id="Grupo_1232059" data-name="Grupo 1232059" transform="translate(301.143 234.689)">
          <path id="Trazado_1220567" data-name="Trazado 1220567" d="M481.755,533.685c-.009-.112-.025-.224-.045-.338a4.543,4.543,0,0,0-.127-.54,5.384,5.384,0,0,0-.352-.872c-.077-.153-.164-.3-.254-.447-.078-.125-.159-.248-.245-.365a5.215,5.215,0,0,0-.4-.48,4.039,4.039,0,0,0-.914-.741l-23.732-13.7-47.463-27.4a1.669,1.669,0,0,0-1.626-.181l0,0-.025.014-.013.008-3.73,1.953,3.049,1.316v6.45h0v38.9a5.189,5.189,0,0,0,2.348,4.066l69.158,39.929.017,3.465,3.679-2.124h0l.01-.006h0a1.656,1.656,0,0,0,.678-1.513V533.97C481.767,533.876,481.763,533.781,481.755,533.685Z" transform="translate(-402.037 -488.48)" fill="#7292d3"/>
          <path id="Trazado_1220568" data-name="Trazado 1220568" d="M400.749,542.616a5.2,5.2,0,0,0,2.351,4.072l71.3,41.167c1.3.75,2.351.142,2.351-1.357V539.319a5.2,5.2,0,0,0-2.351-4.073L403.1,494.08c-1.3-.75-2.351-.142-2.351,1.357Z" transform="translate(-400.749 -491.751)" fill="#deebff"/>
          <g id="Grupo_1232058" data-name="Grupo 1232058" transform="translate(6.005 10.553)">
            <path id="Trazado_1220569" data-name="Trazado 1220569" d="M461.935,543.683l-32.318-18.659v-1.243l32.318,18.659Z" transform="translate(-424.645 -520.91)" fill="#ff4d8c"/>
            <path id="Trazado_1220570" data-name="Trazado 1220570" d="M447.951,543.168l-18.334-10.585V531.34l18.334,10.585Z" transform="translate(-424.645 -525.595)" fill="#353fb0"/>
            <path id="Trazado_1220571" data-name="Trazado 1220571" d="M453.079,553.484l-23.462-13.546v-1.243l23.462,13.546Z" transform="translate(-424.645 -530.153)" fill="#ff4d8c"/>
            <path id="Trazado_1220572" data-name="Trazado 1220572" d="M474.21,573.039l-44.593-25.746V546.05L474.21,571.8Z" transform="translate(-424.645 -534.711)" fill="#353fb0"/>
            <path id="Trazado_1220573" data-name="Trazado 1220573" d="M456.807,570.959l-27.19-15.7v-1.243l27.19,15.7Z" transform="translate(-424.645 -539.649)" fill="#ed66ed"/>
            <path id="Trazado_1220574" data-name="Trazado 1220574" d="M477.007,590.384l-47.39-27.36v-1.243l47.39,27.361Z" transform="translate(-424.645 -544.46)" fill="#ff4d8c"/>
            <path id="Trazado_1220575" data-name="Trazado 1220575" d="M465.431,599.228l-35.814-20.677v-1.243l35.814,20.677Z" transform="translate(-424.645 -554.083)" fill="#ed66ed"/>
            <path id="Trazado_1220576" data-name="Trazado 1220576" d="M477.007,613.675l-47.39-27.361v-1.243l47.39,27.361Z" transform="translate(-424.645 -558.894)" fill="#ff4d8c"/>
            <path id="Trazado_1220577" data-name="Trazado 1220577" d="M463.411,613.588l-33.794-19.511v-1.243l33.794,19.511Z" transform="translate(-424.645 -563.705)" fill="#353fb0"/>
            <path id="Trazado_1220578" data-name="Trazado 1220578" d="M449.971,582.539l-20.354-11.752v-1.243L449.971,581.3Z" transform="translate(-424.645 -549.271)" fill="#353fb0"/>
            <path id="Trazado_1220579" data-name="Trazado 1220579" d="M446.4,611.529l-16.781-9.688V600.6l16.781,9.688Z" transform="translate(-424.645 -568.517)" fill="#ed66ed"/>
            <path id="Trazado_1220580" data-name="Trazado 1220580" d="M487.695,635.372l-11.5-6.638v-1.243l11.5,6.638Z" transform="translate(-453.513 -585.184)" fill="#353fb0"/>
            <path id="Trazado_1220581" data-name="Trazado 1220581" d="M497.5,609.98,486,603.342V602.1l11.5,6.638Z" transform="translate(-459.59 -569.447)" fill="#ed66ed"/>
            <path id="Trazado_1220582" data-name="Trazado 1220582" d="M515.889,605.069l-11.5-6.638v-1.243l11.5,6.639Z" transform="translate(-470.986 -566.404)" fill="#ff4d8c"/>
            <path id="Trazado_1220583" data-name="Trazado 1220583" d="M471.879,634l-42.262-24.4v-1.243l42.262,24.4Z" transform="translate(-424.645 -573.328)" fill="#353fb0"/>
            <path id="Trazado_1220584" data-name="Trazado 1220584" d="M456.574,632.931l-26.957-15.564v-1.243l26.957,15.564Z" transform="translate(-424.645 -578.139)" fill="#ed66ed"/>
            <path id="Trazado_1220585" data-name="Trazado 1220585" d="M466.13,653.158l-36.513-21.081v-1.243l36.513,21.081Z" transform="translate(-424.645 -587.255)" fill="#ed66ed"/>
            <path id="Trazado_1220586" data-name="Trazado 1220586" d="M443.134,632.527l-13.518-7.8v-1.243l13.518,7.8Z" transform="translate(-424.645 -582.697)" fill="#ff4d8c"/>
            <g id="Grupo_1232057" data-name="Grupo 1232057">
              <path id="Trazado_1220587" data-name="Trazado 1220587" d="M418.131,518.393l-1.589-.918v-1.243l1.589.918Z" transform="translate(-416.542 -516.232)" fill="#ff4d8c"/>
              <path id="Trazado_1220588" data-name="Trazado 1220588" d="M417.444,525.555l-.9-.521v-1.243l.9.521Z" transform="translate(-416.542 -520.917)" fill="#353fb0"/>
              <path id="Trazado_1220589" data-name="Trazado 1220589" d="M417.7,533.055l-1.154-.666v-1.243l1.154.666Z" transform="translate(-416.542 -525.475)" fill="#ff4d8c"/>
              <path id="Trazado_1220590" data-name="Trazado 1220590" d="M418.735,541.01l-2.193-1.266V538.5l2.193,1.266Z" transform="translate(-416.542 -530.033)" fill="#353fb0"/>
              <path id="Trazado_1220591" data-name="Trazado 1220591" d="M417.879,548.483l-1.337-.772v-1.243l1.337.772Z" transform="translate(-416.542 -534.97)" fill="#ed66ed"/>
              <path id="Trazado_1220592" data-name="Trazado 1220592" d="M418.717,556.731l-2.175-1.256v-1.243l2.175,1.256Z" transform="translate(-416.542 -539.782)" fill="#ff4d8c"/>
              <path id="Trazado_1220593" data-name="Trazado 1220593" d="M418.3,572.018,416.542,571v-1.243l1.761,1.017Z" transform="translate(-416.542 -549.404)" fill="#ed66ed"/>
              <path id="Trazado_1220594" data-name="Trazado 1220594" d="M418.873,580.11l-2.331-1.345v-1.243l2.331,1.345Z" transform="translate(-416.542 -554.216)" fill="#ff4d8c"/>
              <path id="Trazado_1220595" data-name="Trazado 1220595" d="M418.2,587.488l-1.662-.96v-1.243l1.662.96Z" transform="translate(-416.542 -559.027)" fill="#353fb0"/>
              <path id="Trazado_1220596" data-name="Trazado 1220596" d="M417.543,563.816l-1-.578v-1.243l1,.578Z" transform="translate(-416.542 -544.593)" fill="#353fb0"/>
              <path id="Trazado_1220597" data-name="Trazado 1220597" d="M417.367,594.768l-.825-.476v-1.243l.825.477Z" transform="translate(-416.542 -563.838)" fill="#ed66ed"/>
              <path id="Trazado_1220598" data-name="Trazado 1220598" d="M419.4,595.941l-.565-.327v-1.243l.565.327Z" transform="translate(-417.961 -564.658)" fill="#353fb0"/>
              <path id="Trazado_1220599" data-name="Trazado 1220599" d="M421.31,565.991l-.565-.326v-1.243l.565.327Z" transform="translate(-419.147 -546.097)" fill="#353fb0"/>
              <path id="Trazado_1220600" data-name="Trazado 1220600" d="M418.62,603.255l-2.078-1.2v-1.243l2.078,1.2Z" transform="translate(-416.542 -568.65)" fill="#353fb0"/>
              <path id="Trazado_1220601" data-name="Trazado 1220601" d="M417.868,610.583l-1.326-.765v-1.243l1.326.766Z" transform="translate(-416.542 -573.461)" fill="#ed66ed"/>
              <path id="Trazado_1220602" data-name="Trazado 1220602" d="M418.338,625.565l-1.8-1.036v-1.243l1.8,1.037Z" transform="translate(-416.542 -582.577)" fill="#ed66ed"/>
              <path id="Trazado_1220603" data-name="Trazado 1220603" d="M417.207,617.557l-.665-.384V615.93l.665.384Z" transform="translate(-416.542 -578.019)" fill="#ff4d8c"/>
            </g>
          </g>
        </g>
        <g id="Grupo_1232064" data-name="Grupo 1232064" transform="translate(276.497 78.968)">
          <g id="Grupo_1232061" data-name="Grupo 1232061" transform="translate(0 0)">
            <g id="Grupo_1232060" data-name="Grupo 1232060">
              <path id="Trazado_1220604" data-name="Trazado 1220604" d="M363.165,100.722v31.433l-27.222-15.717V85.005Z" transform="translate(-335.94 -82.709)" fill="#ed66ed"/>
              <path id="Trazado_1220605" data-name="Trazado 1220605" d="M335.934,81.264,363.156,96.98l3.976-2.3L339.91,78.968Z" transform="translate(-335.934 -78.968)" fill="#fc92ff"/>
              <path id="Trazado_1220606" data-name="Trazado 1220606" d="M407.539,122.584v31.434l3.969-2.3V120.282Z" transform="translate(-380.31 -104.572)" fill="#d845d8"/>
            </g>
            <path id="Trazado_1220607" data-name="Trazado 1220607" d="M357.52,180.126l3.611,11.695,4.56-6.977Z" transform="translate(-349.312 -141.66)" fill="#ed66ed"/>
            <path id="Trazado_1220608" data-name="Trazado 1220608" d="M367.017,199.51l8.4-4.762-3.837-2.215Z" transform="translate(-355.197 -149.349)" fill="#d845d8"/>
          </g>
          <g id="Grupo_1232063" data-name="Grupo 1232063" transform="translate(2.127 13.999)">
            <path id="Trazado_1220609" data-name="Trazado 1220609" d="M359.756,128.614l-.429-.459,1.941-1.221,1.235-2.1a15.022,15.022,0,0,0-4.162-3.868,3.2,3.2,0,0,0-3.325-.271c-.04.023-.081.044-.119.07s-.08.044-.119.07-.081.044-.119.07-.08.044-.119.07-.081.044-.119.07-.08.044-.119.07-.08.044-.119.07-.081.044-.119.07-.08.044-.119.07-.081.044-.119.07-.08.044-.119.07-.081.044-.119.07-.081.044-.119.07-.08.044-.119.07-.081.044-.119.07-.08.044-.119.07-.081.044-.119.07-.081.044-.119.07-.08.044-.119.07-.081.044-.119.07-.08.044-.119.07-.081.044-.119.07-.08.044-.119.07-.08.044-.119.07-.081.044-.119.07-.075.04-.11.063v-4.954l-2.825-1.631h0l-.232-.134-.238.14h0l-.119.07h0l-.357.209h0l-.238.14h0l-.119.07h0l-.238.14h0l-.119.07h0l-.357.209h0l-.119.07h0l-.356.21h0l-.238.14h0l-.119.07h0l-.238.14h0l-.119.07h0l-.119.07.119.067h0l-.119-.068v7.937l-.079-.122-.116-.186-.119.07-.357.21-.356.209-.119.07-.357.209h0l-.236.139h0l-.119.07h0l-.238.14h0l-.119.07h0l-.119.07-.238.14-.119.07-.238.14-.119.07-.238.14-.976,2.384a9.831,9.831,0,0,0,3.138,3.295c1.4.807,2.468.983,3.178.545.041-.021.08-.046.119-.07s.08-.046.119-.07.08-.046.119-.07.08-.046.119-.07.08-.046.119-.07.08-.046.119-.07.08-.046.119-.07.08-.046.119-.07.08-.046.119-.07.08-.046.119-.07.08-.046.119-.07.08-.046.119-.07.08-.046.119-.07.08-.046.119-.07.08-.046.119-.07.08-.046.119-.07.079-.046.119-.07.08-.046.119-.07.08-.046.119-.07.08-.046.119-.07.08-.046.119-.07a1.37,1.37,0,0,0,.119-.07c.041-.021.08-.046.119-.07s.08-.046.119-.07.08-.046.119-.07c.732-.362,1.119-1.313,1.119-2.858v-.3a13.067,13.067,0,0,0,1.366,1.926h0l-2.065,1.215-1.528,2.084a16.024,16.024,0,0,0,5.04,4.957c1.57.907,3.076,1.308,4.03.688.04-.022.08-.045.119-.07s.08-.044.119-.07.08-.045.119-.07.08-.044.119-.07.08-.044.119-.07.08-.044.119-.07.08-.044.119-.07.08-.045.119-.07.08-.044.119-.07.08-.044.119-.07.08-.044.119-.07.08-.044.119-.07.08-.045.119-.07.08-.044.119-.07.08-.044.119-.07.08-.045.119-.07.08-.044.119-.07.08-.044.119-.07.08-.044.119-.07.08-.044.119-.07.08-.044.119-.07.08-.044.119-.07.08-.045.119-.07.08-.045.119-.07.08-.044.119-.07c.705-.381,1.146-1.262,1.146-2.832C362.894,132.622,361.252,130.21,359.756,128.614Z" transform="translate(-341.528 -115.782)" fill="#d845d8"/>
            <g id="Grupo_1232062" data-name="Grupo 1232062" transform="translate(0.001 1.813)">
              <path id="Trazado_1220610" data-name="Trazado 1220610" d="M348.847,133.43c0,3.041-1.5,3.792-4.179,2.244a9.832,9.832,0,0,1-3.138-3.295l.976-2.384a7.559,7.559,0,0,0,1.74,2.056c.878.507,1.545.272,1.545-1.286V120.551l3.057,1.765Z" transform="translate(-341.53 -120.551)" fill="#fff"/>
              <path id="Trazado_1220611" data-name="Trazado 1220611" d="M372.745,137.027l-1.235,2.1a11.162,11.162,0,0,0-2.715-2.638c-1.041-.6-1.593-.375-1.593.47,0,.864,1.268,2.215,2.8,3.849,1.5,1.6,3.138,4.008,3.138,6.036,0,3.7-2.439,3.586-5.057,2.075a16.02,16.02,0,0,1-5.04-4.957l1.528-2.084s1.788,2.779,3.284,3.643c.667.385,1.935,1.042,1.935-.4,0-1.127-1.431-2.46-3.024-4.3a9.049,9.049,0,0,1-2.553-5.454c0-2.891,2.211-3.454,4.374-2.206A15.015,15.015,0,0,1,372.745,137.027Z" transform="translate(-354.859 -127.978)" fill="#fff"/>
            </g>
          </g>
        </g>
        <g id="Grupo_1232069" data-name="Grupo 1232069" transform="translate(365.679 249.645)">
          <g id="Grupo_1232066" data-name="Grupo 1232066">
            <g id="Grupo_1232065" data-name="Grupo 1232065">
              <path id="Trazado_1220612" data-name="Trazado 1220612" d="M592.631,545.519v25.588l-22.16-12.794V532.725Z" transform="translate(-570.468 -530.856)" fill="#ed66ed"/>
              <path id="Trazado_1220613" data-name="Trazado 1220613" d="M570.464,529.68l22.16,12.794,3.236-1.868L573.7,527.811Z" transform="translate(-570.464 -527.811)" fill="#fc92ff"/>
              <path id="Trazado_1220614" data-name="Trazado 1220614" d="M628.752,563.316V588.9l3.231-1.874V561.442Z" transform="translate(-606.587 -548.653)" fill="#d845d8"/>
            </g>
            <path id="Trazado_1220615" data-name="Trazado 1220615" d="M588.035,610.157l2.94,9.52,3.713-5.68Z" transform="translate(-581.353 -578.844)" fill="#ed66ed"/>
            <path id="Trazado_1220616" data-name="Trazado 1220616" d="M595.766,625.935l6.836-3.876-3.123-1.8Z" transform="translate(-586.145 -585.103)" fill="#d845d8"/>
          </g>
          <g id="Grupo_1232068" data-name="Grupo 1232068" transform="translate(3.139 12.485)">
            <path id="Trazado_1220617" data-name="Trazado 1220617" d="M593.887,568.414l-2.342-1.352-.934.531v-1.07l-1.463-.844-.034.019h0l-.017.01h0l-.017.01h0l-.051.029h0l-.017.01h0l-.017.01h0l-.05.029h0l-.017.01h0l-.017.009h0l-.051.029h0l-.017.01h0l-.051.029h0l-.017.009h0l-.017.01h0l-.051.029h0l-.017.01h0l-.017.009h0l-.051.029h0l-.017.01h0l-.017.009h0l-.051.029h0l-.017.009h0l-.017.01h0l-.034.019h0l-.017.009h0l-.017.01h0l-.017.009h0l-.034.019h0l-.017.01h0l-.017.01h0l-.017.01h0l-.034.019h0l-.017.01h0l-.017.01h0l-.017.01h0l-.034.019h0l-.017.01h0l-.017.009h0l-.017.01h0l-.017.01h0l-.017.009h0l-.017.01h0l-.017.01h0l-.017.01h0l-.017.009h0l-.017.01h0l-.017.01h0l-.017.01h0l-.017.01h0l-.017.01h0l-.017.01h0l-.017.01h0l-.017.01h0l-.017.01h0l-.017.01h0l-.017.009h0l-.017.01h0l-.017.01h0l-.017.009h0l-.017.01h0l-.017.009h0l-.017.01h0l-.017.009h0l-.017.01h0l-.017.01h0l-.017.009h0l-.017.01h0l-.017.01h0l-.017.01h0l-.017.01h0l-.017.01h0l-.017.01h0l-.017.01h0l-.017.009h0l-.017.01h0l-.017.01h0l-.017.01h0l-.017.01h0l-.017.009h0l-.017.01h0l-.017.009h0l-.017.01.017.008v0l-.017-.01v1l-.367-.212v-2.956l-1.463-.845-.017.01h0l-.017.01h0l-.017.01h0l-.017.009h0l-.017.01h0l-.017.009h0l-.017.01h0l-.017.01h0l-.017.009h0l-.017.01h0l-.017.009h0l-.017.01h0l-.017.01h0l-.017.009h0l-.017.009h0l-.017.01h0l-.017.01h0l-.017.009h0l-.016.01h0l-.016.01h0l-.016.009h0l-.016.01h0l-.016.009h0l-.016.01h0l-.016.01h0l-.016.01h0l-.016.009h0l-.016.01h0l-.016.009h0l-.016.009h0l-.016.009h0l-.016.009h0l-.016.009h0l-.016.009h0l-.016.009h0l-.016.009h0l-.016.009h0l-.016.009h0l-.016.009h0l-.016.009h0l-.016.009h0l-.016.009h0l-.016.009h0l-.016.009h0l-.016.009h0l-.016.009h0l-.016.009h0l-.016.009h0l-.016.009h0l-.016.009h0l-.016.009h0l-.016.009h0l-.016.009h0l-.016.009h0l-.005,0A4.452,4.452,0,0,0,582.783,562l-2.226-1.285h0l-.116-.067-.034.019h0l-.017.009h0l-.017.01h0l-.051.029h0l-.017.01h0l-.017.01h0l-.051.029h0l-.017.01h0l-.017.009h0l-.051.029h0l-.017.009h0l-.051.029h0l-.017.01h0l-.017.009h0l-.051.029h0l-.026.012h0l-.017.01h0l-.051.029h0l-.017.01h0l-.017.009h0l-.051.029h0l-.017.01h0l-.017.009h0l-.034.019h0l-.017.01h0l-.017.009h0l-.017.01h0l-.034.019h0l-.017.01h0l-.017.01h0l-.017.01h0l-.034.019h0l-.017.01h0l-.017.01h0l-.017.009h0l-.034.019h0l-.017.01h0l-.017.01h0l-.017.01h0l-.017.01h0l-.017.009h0l-.017.01h0l-.017.01h0l-.017.01h0l-.017.01h0l-.017.01h0l-.017.009h0l-.017.01h0l-.017.009h0l-.017.01h0l-.017.01h0l-.017.009h0l-.017.01h0l-.017.009h0l-.017.01h0l-.017.009h0l-.017.01h0l-.017.01h0l-.017.009h0l-.017.01h0l-.017.01h0l-.017.01h0l-.017.01h0l-.017.01h0l-.017.01h0l-.017.01h0l-.017.009h0l-.017.01h0l-.017.01h0l-.017.009h0l-.017.01h0l-.017.01h0l-.017.01h0l-.017.009h0l-.017.01h0l-.017.01h0l-.017.009h0l-.017.01h0l-.017.01h0l-.017.01h0l-.017.01h0l-.017.01v7.412l1.463.844.792-.451h0l.084-.048h0l.084-.048h0l.084-.048h0l.067-.038h0l.017-.01h0l.067-.038h0l.017-.01h0l.067-.038h0l.017-.01h0l.067-.038h0l.017-.01h0l.051-.029h0l.017-.01h0l.067-.038h0l.017-.009h0l.067-.038h0l.017-.01h0l.067-.038h0l.017-.01v-.938a1.175,1.175,0,0,0,.76-.057l.017-.009.017-.01.017-.01.017-.009.017-.01.017-.01.017-.01.017-.009.017-.01.017-.01.017-.01.017-.01.017-.01.017-.01.017-.01.017-.01.017-.01.017-.01.017-.009.017-.01.017-.01.017-.009.017-.01.017-.009.017-.01.017-.009.017-.01.017-.01.017-.009.017-.01.017-.01.017-.01.017-.01.017-.01.017-.01.017-.01.017-.009.017-.01.017-.01.017-.01.017-.01.017-.009.017-.01.017-.009.017-.01.017-.01.017-.009.017-.01.017-.009.017-.01.017-.01.017-.01.017-.01.017-.01.017-.01.017-.01.017-.01.017-.01.017-.01.017-.01.017-.01.017-.009.017-.01.017-.01.017-.009.017-.01.017-.01.017-.009.017-.01.017-.01.017-.01.017-.009.017-.01.017-.01.01-.005v4.827l1.463.845.792-.451h0l.084-.048h0l.084-.048h0l.084-.048h0l.067-.038h0l.017-.01h0l.067-.038h0l.017-.01h0l.067-.038h0l.017-.009h0l.067-.038h0l.017-.01h0l.051-.029h0l.017-.01h0l.067-.038h0l.017-.01h0l.067-.038h0l.017-.01h0l.067-.038h0l.017-.01v-1.022l.367.212v2.974l1.463.845.084-.048h0l.152-.086h0l.084-.048h0l.084-.048h0l.085-.048h0l.067-.038h0l.017-.009h0l.067-.038h0l.017-.01h0l.067-.038h0l.017-.01h0l.051-.029h0l.017-.01h0l.017-.009h0l.051-.029h0l.017-.01h0l.017-.01h0l.017-.009v-.019l.006,0v1.082l1.463.844.793-.451h0l.084-.048h0l.084-.048h0l.084-.048h0l.067-.038h0l.017-.01h0l.067-.038h0l.017-.01h0l.067-.038h0l.017-.009h0l.067-.038h0l.017-.009h0l.051-.029h0l.017-.009h0l.067-.038h0l.017-.01h0l.067-.038h0l.017-.01h0l.067-.038h0l.017-.01v-.938a1.177,1.177,0,0,0,.76-.057l.017-.01.017-.009.017-.01.017-.01.017-.01.017-.01.017-.009.017-.01.017-.01.017-.01.017-.01.017-.01.017-.01.017-.01.017-.01.017-.01.017-.01.017-.009.017-.01.017-.01.017-.01.017-.009.017-.01.017-.01.017-.009.017-.01.017-.01.017-.009.017-.01.017-.01.017-.01.017-.01.017-.01.017-.01.017-.01.017-.009.017-.01.017-.01.017-.01.017-.01.017-.009.017-.01.017-.009.017-.01.017-.01.017-.009.017-.01.017-.009.017-.01.017-.01.017-.01.017-.01.017-.009.017-.01.017-.01.017-.01.017-.01.017-.01.017-.01.017-.01.017-.009.017-.01.017-.01.017-.009.017-.01.017-.009.017-.01.017-.01.017-.01.017-.01.017-.009.017-.01.017-.01.017-.01.017-.01.017-.01.017-.01.017-.01.017-.01.017-.01.017-.01.017-.009.017-.01.017-.01.017-.01.017-.009.017-.01.017-.01.017-.009.017-.01.017-.01.017-.009.017-.01.017-.01.017-.01.017-.01.017-.01.017-.01.017-.01.017-.009c.392-.178.627-.637.627-1.4A4.117,4.117,0,0,0,593.887,568.414Z" transform="translate(-578.731 -560.645)" fill="#d845d8"/>
            <g id="Grupo_1232067" data-name="Grupo 1232067" transform="translate(0 0.972)">
              <path id="Trazado_1220618" data-name="Trazado 1220618" d="M581.061,564.552a4.166,4.166,0,0,1,2.194,3.549c0,1.527-.942,1.837-2.194,1.114l-.879-.508v2.749l-1.463-.845V563.2Zm-.467,3.045c.576.332,1.12.422,1.12-.332a1.957,1.957,0,0,0-1.12-1.635l-.413-.238v1.968Z" transform="translate(-578.719 -563.2)" fill="#fff"/>
              <path id="Trazado_1220619" data-name="Trazado 1220619" d="M593.81,579.324l-1.463-.845v-7.412l1.463.845v2.956l2.07,1.195v-2.956l1.463.845v7.412l-1.463-.845v-2.974l-2.07-1.195Z" transform="translate(-587.165 -568.076)" fill="#fff"/>
              <path id="Trazado_1220620" data-name="Trazado 1220620" d="M610.282,581.422a4.167,4.167,0,0,1,2.194,3.549c0,1.527-.942,1.837-2.194,1.114l-.879-.508v2.749l-1.463-.845V580.07Zm-.467,3.045c.576.332,1.12.422,1.12-.332a1.956,1.956,0,0,0-1.12-1.635l-.412-.238v1.968Z" transform="translate(-596.828 -573.655)" fill="#fff"/>
            </g>
          </g>
        </g>
        <g id="Grupo_1232071" data-name="Grupo 1232071" transform="translate(367.597 180)">
          <path id="Trazado_1220621" data-name="Trazado 1220621" d="M626.414,455.226c0-4.111,0-7.293,0-7.3.347-3.992-9.073-3.669-8.772-.259v7.372a1.744,1.744,0,0,0,0,.3v18.026a2.268,2.268,0,0,0,0,.39v7.293c-.356,3.926,9.107,3.852,8.772,0,0-.008,0-3.2,0-7.321a2.109,2.109,0,0,0,0-.236V455.522A2.362,2.362,0,0,0,626.414,455.226Z" transform="translate(-601.613 -406.858)" fill="#fdd835"/>
          <path id="Trazado_1220622" data-name="Trazado 1220622" d="M590.943,389.787a27.3,27.3,0,0,0,9.485,10.026c3.464,2,6.687,2.342,9.076.963s3.7-4.341,3.7-8.341a29.751,29.751,0,0,0-13.425-23.253c-3.464-2-6.687-2.342-9.076-.963s-3.7,4.341-3.7,8.341A27.3,27.3,0,0,0,590.943,389.787Z" transform="translate(-582.632 -358.743)" fill="#34b2cc" opacity="0.15"/>
          <path id="Trazado_1220623" data-name="Trazado 1220623" d="M623.325,476.26c-3.254-1.879-10.136-1.2-10.04,2.991,0,.013,0,3.234,0,3.252-.081,3.515,6.52,4.7,10.04,2.666a2.909,2.909,0,0,0,1.721-2.422c0-.016,0-4.008,0-4.023A2.941,2.941,0,0,0,623.325,476.26Z" transform="translate(-598.919 -425.603)" fill="#7c9ae5"/>
          <g id="Grupo_1232070" data-name="Grupo 1232070" transform="translate(0 0)">
            <path id="Trazado_1220624" data-name="Trazado 1220624" d="M616,377.293c0-11.143-7.823-24.693-17.474-30.265-7.868-4.543-11.331-1.8-17.82,1.937l-.055.032c-3.177,1.819-5.145,5.74-5.145,11.327,0,11.143,7.823,24.693,17.473,30.265,3.864,2.231,8.552,3.442,12.438,1.175C611.763,388.147,616,386.5,616,377.293Zm-23.019-21.512c7,4.04,12.671,13.866,12.671,21.947a11.406,11.406,0,0,1-1.375,5.834,11.393,11.393,0,0,1-5.75-1.725c-7-4.04-12.671-13.866-12.671-21.947a11.4,11.4,0,0,1,1.376-5.834A11.391,11.391,0,0,1,592.982,355.781Z" transform="translate(-575.508 -344.658)" fill="#fbc02d"/>
            <path id="Trazado_1220625" data-name="Trazado 1220625" d="M592.982,355.435c-9.651-5.572-17.474-1.055-17.474,10.088s7.823,24.693,17.474,30.265,17.473,1.055,17.473-10.088S602.632,361.007,592.982,355.435Zm0,34.808c-7-4.04-12.671-13.866-12.671-21.947s5.673-11.356,12.671-7.315,12.671,13.866,12.671,21.947S599.98,394.283,592.982,390.243Z" transform="translate(-575.508 -349.858)" fill="#ffee58"/>
          </g>
          <path id="Trazado_1220626" data-name="Trazado 1220626" d="M618.985,476.234a6.826,6.826,0,0,0,6.176,0c1.705-.984,1.705-2.581,0-3.566a6.826,6.826,0,0,0-6.176,0C617.28,473.653,617.28,475.25,618.985,476.234Z" transform="translate(-601.66 -423.534)" fill="#fdd835"/>
        </g>
        <g id="Grupo_1232076" data-name="Grupo 1232076" transform="translate(354.709 149.4)">
          <g id="Grupo_1232073" data-name="Grupo 1232073" transform="translate(0 0)">
            <g id="Grupo_1232072" data-name="Grupo 1232072">
              <path id="Trazado_1220627" data-name="Trazado 1220627" d="M561.6,280.151v23.067L541.62,291.685V268.618Z" transform="translate(-541.618 -266.934)" fill="#ed66ed"/>
              <path id="Trazado_1220628" data-name="Trazado 1220628" d="M541.614,265.873l19.976,11.533,2.917-1.685-19.976-11.533Z" transform="translate(-541.614 -264.189)" fill="#fc92ff"/>
              <path id="Trazado_1220629" data-name="Trazado 1220629" d="M594.158,296.194v23.067l2.913-1.69V294.5Z" transform="translate(-574.178 -282.977)" fill="#d845d8"/>
            </g>
            <path id="Trazado_1220630" data-name="Trazado 1220630" d="M557.453,338.42,560.1,347l3.346-5.12Z" transform="translate(-551.43 -310.193)" fill="#ed66ed"/>
            <path id="Trazado_1220631" data-name="Trazado 1220631" d="M564.423,352.644l6.162-3.494-2.815-1.626Z" transform="translate(-555.75 -315.835)" fill="#d845d8"/>
          </g>
          <g id="Grupo_1232075" data-name="Grupo 1232075" transform="translate(1.782 12.269)">
            <path id="Trazado_1220632" data-name="Trazado 1220632" d="M560.83,305.081l-.172-.184.8-.513.095-.162.417-.71a6.219,6.219,0,0,0-1.725-1.6,1.318,1.318,0,0,0-1.387-.106,357.062,357.062,0,0,1-.167.1,357.062,357.062,0,0,1-.167.1.736.736,0,0,0-.084.049.75.75,0,0,0-.084.049.74.74,0,0,0-.084.049.751.751,0,0,0-.084.049.761.761,0,0,0-.084.049,119.021,119.021,0,0,1-.167.1.75.75,0,0,0-.084.049,265.711,265.711,0,0,0-.167.1,357.062,357.062,0,0,1-.167.1.75.75,0,0,0-.084.049.74.74,0,0,0-.084.049,357.062,357.062,0,0,1-.167.1.751.751,0,0,0-.084.049.761.761,0,0,0-.084.049.741.741,0,0,0-.084.049.749.749,0,0,0-.084.049l-.026.014c-.127-.161-.257-.313-.385-.45l-.181-.194.808-.5.512-.872a6.22,6.22,0,0,0-1.725-1.6,1.318,1.318,0,0,0-1.387-.105,188.4,188.4,0,0,1-.251.147.773.773,0,0,0-.084.049,357.062,357.062,0,0,0-.167.1.762.762,0,0,0-.084.049,357.062,357.062,0,0,1-.167.1.75.75,0,0,0-.084.049,1635.172,1635.172,0,0,1-.251.147,188.4,188.4,0,0,1-.251.147.773.773,0,0,0-.084.049,357.062,357.062,0,0,0-.167.1.762.762,0,0,0-.084.049.773.773,0,0,0-.084.049.762.762,0,0,0-.084.049,178.488,178.488,0,0,1-.167.1.758.758,0,0,0-.084.049,1.1,1.1,0,0,0-.51,1.069,2.344,2.344,0,0,0,.147.774,2.15,2.15,0,0,1-.323-.153,3.777,3.777,0,0,1-1.7-2.156,4.091,4.091,0,0,1,.619.683l.418-.245.167-.1h0l.419-.245.5-.294.167-.1h0l.418-.245.084-.049.539-.934a5.822,5.822,0,0,0-1.826-1.646,2.13,2.13,0,0,0-2.219-.164c-.028.016-.056.032-.084.049s-.056.032-.084.049-.056.032-.084.049-.056.032-.084.049-.056.032-.084.049-.056.032-.084.049-.056.032-.084.049-.056.032-.084.049-.056.032-.084.049-.056.032-.084.049-.056.032-.084.049-.056.032-.084.049-.056.032-.084.049-.056.032-.084.049-.056.032-.084.049-.056.032-.084.049-.056.032-.084.049-.056.032-.084.049-.056.032-.084.049-.056.032-.084.049-.056.032-.084.049-.056.032-.084.049-.056.032-.084.049-.056.032-.084.049-.056.032-.084.049a1.929,1.929,0,0,0-.878,1.812,6.665,6.665,0,0,0,3.012,5.054,2.758,2.758,0,0,0,1.711.488l.125-.017.248-.159-.022.03a6.634,6.634,0,0,0,2.089,2.054c.655.378,1.283.544,1.677.28a.68.68,0,0,0,.084-.049.658.658,0,0,0,.084-.049,356.891,356.891,0,0,1,.167-.1,545.625,545.625,0,0,1,.167-.1,357.062,357.062,0,0,0,.167-.1.677.677,0,0,0,.084-.049.658.658,0,0,0,.084-.049.683.683,0,0,0,.084-.049.666.666,0,0,0,.084-.049.648.648,0,0,0,.084-.049.677.677,0,0,0,.084-.049.692.692,0,0,0,.084-.049.679.679,0,0,0,.084-.049.648.648,0,0,0,.084-.049.667.667,0,0,0,.084-.049.657.657,0,0,0,.084-.049.665.665,0,0,0,.084-.049,357.062,357.062,0,0,1,.167-.1.651.651,0,0,0,.084-.049,3.835,3.835,0,0,1,.151-.086l.062.073h0l-.024-.029-.852.507-.633.864a6.638,6.638,0,0,0,2.089,2.054c.655.378,1.283.544,1.677.28a.683.683,0,0,0,.084-.049.67.67,0,0,0,.084-.049.684.684,0,0,0,.084-.049.7.7,0,0,0,.084-.049.658.658,0,0,0,.084-.049,106.841,106.841,0,0,0,.167-.1,139.391,139.391,0,0,1,.251-.147.692.692,0,0,0,.084-.049.673.673,0,0,0,.084-.049.692.692,0,0,0,.084-.049.683.683,0,0,0,.084-.049.693.693,0,0,0,.084-.049.658.658,0,0,0,.084-.049.692.692,0,0,0,.084-.049.684.684,0,0,0,.084-.049.654.654,0,0,0,.084-.049.684.684,0,0,0,.084-.049,119.021,119.021,0,0,0,.167-.1.659.659,0,0,0,.084-.049.688.688,0,0,0,.084-.049.7.7,0,0,0,.084-.049c.308-.15.5-.518.5-1.188A4.306,4.306,0,0,0,560.83,305.081Z" transform="translate(-546.303 -296.454)" fill="#d845d8"/>
            <g id="Grupo_1232074" data-name="Grupo 1232074" transform="translate(0 1.271)">
              <path id="Trazado_1220633" data-name="Trazado 1220633" d="M550.6,305.761l.539,1.556s-.62.233-1.826-.463A6.665,6.665,0,0,1,546.3,301.8c0-1.844,1.435-2.509,3.012-1.6a5.815,5.815,0,0,1,1.826,1.646l-.539.934a3.832,3.832,0,0,0-1.092-1.027c-1.273-.735-1.833-.031-1.833.825a3.666,3.666,0,0,0,1.833,2.949A1.464,1.464,0,0,0,550.6,305.761Z" transform="translate(-546.299 -299.797)" fill="#fff"/>
              <path id="Trazado_1220634" data-name="Trazado 1220634" d="M563.664,308.661l-.512.872a4.629,4.629,0,0,0-1.125-1.093c-.431-.249-.661-.156-.661.194s.525.918,1.159,1.6a4.3,4.3,0,0,1,1.3,2.5c0,1.533-1.011,1.486-2.1.86a6.644,6.644,0,0,1-2.089-2.054l.634-.864a5.885,5.885,0,0,0,1.361,1.51c.276.16.8.432.8-.167,0-.467-.593-1.019-1.253-1.782a3.752,3.752,0,0,1-1.058-2.26c0-1.2.916-1.432,1.813-.914A6.23,6.23,0,0,1,563.664,308.661Z" transform="translate(-554.568 -304.136)" fill="#fff"/>
              <path id="Trazado_1220635" data-name="Trazado 1220635" d="M575.218,315.332l-.512.872a4.633,4.633,0,0,0-1.125-1.093c-.431-.249-.661-.156-.661.195s.525.918,1.159,1.6a4.3,4.3,0,0,1,1.3,2.5c0,1.533-1.011,1.486-2.1.86a6.643,6.643,0,0,1-2.089-2.054l.634-.864a5.894,5.894,0,0,0,1.361,1.51c.276.159.8.432.8-.167,0-.467-.593-1.019-1.253-1.782a3.749,3.749,0,0,1-1.058-2.26c0-1.2.916-1.432,1.813-.914A6.214,6.214,0,0,1,575.218,315.332Z" transform="translate(-561.728 -308.271)" fill="#fff"/>
            </g>
          </g>
        </g>
        <g id="Grupo_1232081" data-name="Grupo 1232081" transform="translate(372.833 85.694)">
          <g id="Grupo_1232078" data-name="Grupo 1232078" transform="translate(0 0)">
            <g id="Grupo_1232077" data-name="Grupo 1232077">
              <path id="Trazado_1220636" data-name="Trazado 1220636" d="M610.063,113.261v23.994l-20.78-12V101.264Z" transform="translate(-589.281 -99.512)" fill="#ed66ed"/>
              <path id="Trazado_1220637" data-name="Trazado 1220637" d="M589.277,98.409l20.779,12,3.034-1.752-20.779-12Z" transform="translate(-589.277 -96.657)" fill="#fc92ff"/>
              <path id="Trazado_1220638" data-name="Trazado 1220638" d="M643.934,129.95v23.994l3.03-1.758V128.192Z" transform="translate(-623.15 -116.2)" fill="#d845d8"/>
            </g>
            <path id="Trazado_1220639" data-name="Trazado 1220639" d="M605.753,173.873l2.757,8.927,3.481-5.326Z" transform="translate(-599.488 -144.511)" fill="#ed66ed"/>
            <path id="Trazado_1220640" data-name="Trazado 1220640" d="M613,188.669l6.41-3.635-2.929-1.691Z" transform="translate(-603.981 -150.38)" fill="#d845d8"/>
          </g>
          <g id="Grupo_1232080" data-name="Grupo 1232080" transform="translate(1.002 12.236)">
            <path id="Trazado_1220641" data-name="Trazado 1220641" d="M608.853,139.621v-1.837L607.5,137l-.014.008h0l-.042.024h0l-.042.024h0l-.042.024h0l-.056.033h0l-.014.008h0l-.028.016h0l-.014.008h0l-.028.016h0l-.014.008h0l-.028.016h0l-.014.008h0l-.042.024h0l-.042.024h0l-.042.024h0L607,137.3h0l-.042.024h0l-.028.016h0l-.014.008h0l-.014.008h0l-.014.008h0l-.014.008h0l-.014.008h0l-.014.008h0l-.014.008h0l-.014.008h0l-.014.008h0l-.042.024h0l-.042.024h0l-.042.024h0l-.042.024h0l-.042.024h0l-.028.016h0l-.014.008h0l-.014.008h0l-.014.008h0l-.014.008h0l-.014.008h0l-.014.008h0l-.014.008h0l-.014.008h0l-.014.008h0l-.014.008h0l-.028.016h0l-.014.008h0l-.028.016h0l-.014.008h0l-.028.016h0l-.042.024h0l-.042.024h0l-.042.024h0l-.014.008h0l-.014.008h0l-.014.008h0l-.014.008h0l-.014.008h0l-.014.008h0l-.014.008v.195l-.17-.1-1.061.612V137.3l-1.591-.918v-1.837l-1.352-.781-.014.008h0l-.014.008h0l-.014.008h0l-.028.016h0l-.014.008h0l-.028.016h0l-.014.008h0l-.028.016h0l-.014.008h0l-.028.016h0l-.014.008h0l-.028.016h0l-.014.008h0l-.028.016h0l-.014.008h0l-.028.016h0l-.014.008h0l-.042.024h0l-.014.008h0L601.5,134h0l-.014.008h0l-.014.008h0l-.014.008h0l-.014.008h0l-.014.008h0l-.014.008h0l-.014.008h0l-.014.008h0l-.014.008h0l-.014.008h0l-.014.008h0l-.014.008h0l-.028.016h0l-.014.008h0l-.028.016h0l-.014.008h0l-.028.016h0l-.014.008h0l-.042.024h0l-.014.008h0l-.014.008h0l-.014.008h0l-.014.008h0l-.014.008h0l-.014.008h0l-.014.008h0l-.014.008h0l-.014.008h0l-.014.008h0l-.014.008h0l-.014.008h0l-.014.008h0l-.014.008h0l-.014.008h0l-.014.008h0l-.014.008h0l-.014.008h0l-.014.008h0l-.014.008h0l-.014.008h0l-.014.008h0l-.014.008h0l-.042.024h0l-.014.008h0l-.014.008h0l-.014.008h0l-.014.008h0l-.014.008h0l-.014.008h0l-.014.008h0l-.014.008h0l-.014.008h0l-.014.008h0l-.014.008h0l-.014.008h0l-.014.008h0l-.014.008h0l-.014.008h0l-.014.008h0l-.014.008h0l-.014.008h0l-.014.008h0l-.014.008h0l-.014.008h0l-.014.008.014,0v.006l-.014-.008v.195l-.17-.1-.014.008h0l-.042.024h0l-.042.024h0l-.042.024h0l-.042.024h0l-.042.024h0l-.07.041h0l-.014.008h0l-.028.016h0l-.014.008h0l-.028.016h0l-.014.008h0l-.281.163h0l-.042.024h0l-.042.024h0l-.042.024h0l-.619.358.014,0v.006l-.014-.008v1.173a2.062,2.062,0,0,1-1.355-.322,4.808,4.808,0,0,1-2.4-3.867,2.185,2.185,0,0,1,.087-.625,3.078,3.078,0,0,1,.9.366,5.029,5.029,0,0,1,1.432,1.347l.009-.016h0l-.009.016.028-.016h0l.155-.09h0l.014-.008h0l.028-.016h0l.014-.008h0l.042-.024h0l.042-.024h0l.042-.024h0l.042-.024h0l.042-.024h0l.084-.049h0l.028-.016h0l.042-.024h0l.042-.024h0l.3-.171h0l.042-.024h0l.042-.024h0l.394-.228.077-.134.63-1.091a7.629,7.629,0,0,0-2.395-2.158,2.808,2.808,0,0,0-2.886-.23l-.014.008-.014.008-.014.008-.014.008-.014.008-.014.008-.014.008-.014.008-.014.008-.014.008-.014.008-.014.008-.014.008-.014.008-.014.008-.014.008-.014.008-.014.008-.014.008-.014.008-.014.008-.014.008-.014.008-.014.008-.014.008-.014.008-.014.008-.014.008-.014.008-.014.008-.014.008-.014.008-.014.008-.014.008-.014.008-.014.008-.014.008-.014.008-.014.008-.014.008-.014.008-.014.008-.014.008-.014.008-.014.008-.014.008-.014.008-.014.008-.014.008-.014.008-.014.008-.014.008-.014.008-.014.008-.014.008-.014.008-.014.008-.014.008-.014.008-.014.008-.014.008-.014.008-.014.008-.014.008-.014.008-.014.008-.014.008-.014.008-.014.008-.014.008-.014.008-.014.008-.014.008-.014.008-.014.008-.014.008-.014.008-.014.008-.014.008-.014.008-.014.008-.014.008-.014.008-.014.008-.014.008-.014.008-.014.008-.014.008-.014.008-.014.008-.014.008-.014.008-.014.008-.014.008-.014.008-.014.008-.014.008-.014.008-.014.008-.014.008a2.566,2.566,0,0,0-1.078,2.334,8.74,8.74,0,0,0,3.95,6.627c1.582.913,2.395.607,2.395.607v0h0v0l.014-.008h0l.014-.008h0l.028-.016h0l.014-.008h0l.028-.016h0l.014-.008h0l.028-.016h0l.014-.008h0l.028-.016h0l.014-.008h0l.028-.016h0l.014-.008h0l.042-.024h0l.042-.024h0l.014-.008h0l.014-.008h0l.028-.016h0l.014-.008h0l.042-.024h0l.042-.024h0l.042-.024h0l.042-.024h0l.042-.024h0l.042-.024h0l.07-.041h0l.014-.008h0l.028-.016h0l.014-.008h0l.028-.016h0l.014-.008h0l.281-.163h0l.042-.024h0l.042-.024h0l.042-.024h0l.2-.114-.09-.259h0l-.423-1.221,1.32.762v1.837l1.352.781.2-.114h0l.014-.008h0l.028-.016h0l.042-.024h0l.042-.024h0l.253-.146h0l.028-.016h0l.014-.008h0l.028-.016h0l.014-.008h0l.028-.016h0l.014-.008h0l.042-.024h0l.2-.114h0l.028-.016h0l.014-.008h0l.028-.016h0l.014-.008h0l.028-.016h0l.014-.008h0l.042-.024h0l.042-.024h0l.042-.024h0l.042-.024h0l.1-.057h0l.014-.008h0l.028-.016h0l.014-.008h0l.028-.016v-.195l.17.1,1.061-.608v-.015h0v1.236l1.591.918v1.837l1.352.781.281-.163h0l.042-.024h0l.366-.212h0l.337-.2h0l.028-.016h0l.014-.008h0l.042-.024h0l.309-.179V142.8l.17.1.014-.008h0l.014-.008h0l.028-.016h0l.014-.008h0l.028-.016h0l.014-.008h0l.028-.016h0l.014-.008h0l.028-.016h0l.014-.008h0l.028-.016h0l.014-.008h0l.042-.024h0l.014-.008h0l.014-.008h0l.028-.016h0l.014-.008h0l.028-.016h0l.014-.008h0l.042-.024h0l.042-.024h0l.042-.024h0l.042-.024h0l.042-.024h0l.042-.024h0l.028-.016h0l.014-.008h0l.028-.016h0l.014-.008h0l.028-.016h0l.014-.008h0l.028-.016h0l.014-.008h0l.239-.138h0l.042-.024h0l.042-.024h0l.042-.024h0l.042-.024h0l.2-.114v-1.561Z" transform="translate(-591.913 -128.834)" fill="#ccc"/>
            <path id="Trazado_1220642" data-name="Trazado 1220642" d="M609.071,142.982h0l.042-.024h0l.042-.024h0l.577-.334h0l.731-.423v-1.561l-1.591-.918V137.86l-1.352-.781-.59.342h0l-.042.024h0l-.042.024h0l-.281.163h0l-.042.024h0l-.042.024h0l-.042.024h0l-.042.024h0l-.042.024h0l-.155.089h0l-.042.024h0l-.042.024h0l-.014.008v.195l-.17-.1-1.061.612v-1.225l-1.591-.918v-1.837l-1.352-.781-.014.008h0l-.028.016h0l-.042.024h0l-.3.171h0l-.028.016h0l-.014.008h0l-.028.016h0l-.014.008h0l-.042.024h0l-.042.024h0l-.225.13h0l-.014.008h0l-.028.016h0l-.014.008h0l-.042.024h0l-.042.024h0l-.042.024h0l-.042.024h0l-.042.024h0l-.1.057h0l-.014.008h0l-.042.024h0l-.042.024h0l-.042.024h0l-.042.024h0l-.042.024h0l-.042.024h0l-.014.008.014,0v.006l-.014-.008v.195l-.17-.1-1.42.822.014,0v.006l-.014-.008v1.173c-2.1.357-4.235-2.953-3.672-4.815a4.092,4.092,0,0,1,2.328,1.713l.009-.016h0l-.009.016.2-.114h0l.042-.024h0l.3-.171h0l.886-.513.707-1.224c-1.107-1.613-3.414-3.408-5.386-2.327-.176.1-.347.2-.52.3s-.353.2-.527.305c-1.472.877-1.518,2.6-1.077,4.125a9.111,9.111,0,0,0,2.936,4.456c.769.62,2.118,1.464,3.169,1.126h0l.014-.008h0l.028-.016h0l.042-.024h0l.042-.024h0l.1-.057h0l.042-.024h0l.042-.024h0l.07-.041h0l.042-.024h0l.042-.024h0l.042-.024h0l.042-.024h0l.155-.09h0l.1-.057h0l.281-.163h0l.042-.024h0l.281-.163-.09-.259h0l-.423-1.221,1.32.762V139.9l1.352.781,1.42-.822v-.195l.17.1,1.061-.608v-.015h0v1.236l1.591.918v1.837l1.352.781,1.42-.822V142.9l.17.1a.157.157,0,0,0,.027-.013Z" transform="translate(-591.932 -128.909)" fill="#d845d8"/>
            <g id="Grupo_1232079" data-name="Grupo 1232079" transform="translate(0.002 0.839)">
              <path id="Trazado_1220643" data-name="Trazado 1220643" d="M597.556,138.86l.707,2.041s-.813.306-2.395-.607a8.74,8.74,0,0,1-3.95-6.627c0-2.418,1.882-3.291,3.95-2.1a7.634,7.634,0,0,1,2.395,2.158l-.707,1.224a5.03,5.03,0,0,0-1.432-1.347c-1.67-.964-2.4-.041-2.4,1.081a4.807,4.807,0,0,0,2.4,3.867A1.917,1.917,0,0,0,597.556,138.86Z" transform="translate(-591.918 -131.039)" fill="#fff"/>
              <path id="Trazado_1220644" data-name="Trazado 1220644" d="M611.869,149.222v-1.837l-1.591-.918v-1.561l1.591.918v-1.837l1.352.781v1.837l1.591.918v1.561l-1.591-.918V150Z" transform="translate(-603.296 -139.064)" fill="#fff"/>
              <path id="Trazado_1220645" data-name="Trazado 1220645" d="M626.581,157.716V155.88l-1.591-.918V153.4l1.591.918v-1.837l1.352.781V155.1l1.591.918v1.561l-1.591-.918V158.5Z" transform="translate(-612.414 -144.328)" fill="#fff"/>
            </g>
          </g>
        </g>
        <g id="Grupo_1232095" data-name="Grupo 1232095" transform="translate(255.486 226.063)">
          <ellipse id="Elipse_13749" data-name="Elipse 13749" cx="21.8" cy="12.586" rx="21.8" ry="12.586" transform="translate(4.829 155.475)" opacity="0.24" fill="url(#linear-gradient)"/>
          <path id="Trazado_1220646" data-name="Trazado 1220646" d="M329.931,888.213a20.885,20.885,0,0,1-4.93,7.941l-3.371-.773v-2.773Z" transform="translate(-306.058 -727.584)" fill="#2f2f7f"/>
          <path id="Trazado_1220647" data-name="Trazado 1220647" d="M329.931,885.287a1.333,1.333,0,0,0-.113-1.325,1.012,1.012,0,0,0-1.026-.459c-1.16.162-6.552,2.965-6.552,2.965s-1.594,4.475.373,5.063C324.538,892.106,326.717,892.163,329.931,885.287Z" transform="translate(-306.058 -724.658)" fill="#41409e"/>
          <path id="Trazado_1220648" data-name="Trazado 1220648" d="M361.283,904.121a1.292,1.292,0,0,1-.315,2.064c-1.359,1.046-9.673,2.588-9.673,2.588l-2.274-1.516.117-6.258Z" transform="translate(-323.034 -735.509)" fill="#2f2f7f"/>
          <path id="Trazado_1220649" data-name="Trazado 1220649" d="M349.329,900.041c1.4-1.281,4.092-2.363,5.634-1.02,2.7,2.353,6.318,1.791,6.666,3.987.215,1.353-6.007,2.51-9.53,2.51h-.134a2.555,2.555,0,0,1-2.523-2.463Z" transform="translate(-323.224 -733.9)" fill="#41409e"/>
          <g id="Grupo_1232088" data-name="Grupo 1232088" transform="translate(4.237 25.379)">
            <path id="Trazado_1220650" data-name="Trazado 1220650" d="M305.128,558.973l.456,53.63a2.176,2.176,0,0,1-4.341.241l-5.476-53.351a4.693,4.693,0,1,1,9.336-.958C305.119,558.679,305.127,558.831,305.128,558.973Z" transform="translate(-294.252 -546.037)" fill="#f89ab5"/>
            <path id="Trazado_1220651" data-name="Trazado 1220651" d="M297.788,584.63l.1,1.117s2.452,2.386,8.58-.544l-.024-2.084Z" transform="translate(-295.52 -563.884)" fill="#e6e6e6"/>
            <path id="Trazado_1220652" data-name="Trazado 1220652" d="M303.885,551.852c-2.688,2.9-9.524,3.172-11.48.587l-.582-14.793c-.022-2.8,2.526-5.085,5.691-5.11,3.435-.027,6.239,2.412,6.263,5.448Z" transform="translate(-291.823 -532.536)" fill="#a5c4e5"/>
            <g id="Grupo_1232087" data-name="Grupo 1232087" transform="translate(5.312 64.152)">
              <path id="Trazado_1220653" data-name="Trazado 1220653" d="M312.737,702.031l.2,5.755-2.263,1.408-1.692.75-1.65.623.9-8.567,2.046-.758Z" transform="translate(-306.748 -701.241)" fill="#f89ab5"/>
              <g id="Grupo_1232082" data-name="Grupo 1232082" transform="translate(4.37 4.601)">
                <path id="Trazado_1220654" data-name="Trazado 1220654" d="M318.092,720.171a.808.808,0,0,1-.711-1.191c.638-1.186.187-3.806-.021-4.63a.809.809,0,0,1,1.568-.4c.1.388.926,3.842-.123,5.793A.809.809,0,0,1,318.092,720.171Z" transform="translate(-317.284 -713.342)" fill="#f89ab5"/>
              </g>
              <g id="Grupo_1232083" data-name="Grupo 1232083" transform="translate(4.471 2.433)">
                <path id="Trazado_1220655" data-name="Trazado 1220655" d="M320.082,713.119a.808.808,0,0,1-.71-.421,27.713,27.713,0,0,1-1.779-3.993.808.808,0,0,1,1.532-.516,26.673,26.673,0,0,0,1.665,3.735.808.808,0,0,1-.709,1.2Z" transform="translate(-317.551 -707.638)" fill="#f89ab5"/>
              </g>
              <g id="Grupo_1232084" data-name="Grupo 1232084" transform="translate(2.635 5.242)">
                <path id="Trazado_1220656" data-name="Trazado 1220656" d="M313.529,721.8a.808.808,0,0,1-.656-1.28c.78-1.088.665-3.677.556-4.583a.808.808,0,0,1,1.6-.2c.049.4.44,3.929-.846,5.722A.806.806,0,0,1,313.529,721.8Z" transform="translate(-312.721 -715.026)" fill="#f89ab5"/>
              </g>
              <g id="Grupo_1232085" data-name="Grupo 1232085" transform="translate(1.314 4.419)">
                <path id="Trazado_1220657" data-name="Trazado 1220657" d="M310.054,719.631a.808.808,0,0,1-.656-1.279c.78-1.086.659-3.739.555-4.583a.808.808,0,0,1,1.6-.2c.049.4.439,3.931-.846,5.722A.806.806,0,0,1,310.054,719.631Z" transform="translate(-309.247 -712.863)" fill="#f89ab5"/>
              </g>
              <g id="Grupo_1232086" data-name="Grupo 1232086" transform="translate(0 4.053)">
                <path id="Trazado_1220658" data-name="Trazado 1220658" d="M306.6,717.964a.808.808,0,0,1-.564-1.388c.922-.9,1.042-3.124,1.011-3.833a.809.809,0,0,1,.772-.843.8.8,0,0,1,.843.773c.016.354.1,3.5-1.5,5.062A.8.8,0,0,1,306.6,717.964Z" transform="translate(-305.792 -711.899)" fill="#f89ab5"/>
              </g>
            </g>
          </g>
          <path id="Trazado_1220659" data-name="Trazado 1220659" d="M318.159,659.409c-.135,3.523-.315,7.046-.487,10.569s-.329,7.046-.591,10.571L315.437,701.7,312.089,744a2.561,2.561,0,0,1-5.1.075L302.4,701.89,300.13,680.8c-.366-3.516-.625-7.032-.9-10.549s-.56-7.033-.8-10.55a9.88,9.88,0,0,1,19.714-1.335A10.111,10.111,0,0,1,318.159,659.409Z" transform="translate(-291.666 -579.429)" fill="#e655e2"/>
          <path id="Trazado_1220660" data-name="Trazado 1220660" d="M346.346,668.4c.53,3.513.809,7.03,1.016,10.547.112,1.759.169,3.518.225,5.278a39.548,39.548,0,0,1-.323,5.286c-.61,7.05-1.121,14.1-1.686,21.149l-3.348,42.3a2.561,2.561,0,0,1-5.1.075l-4.592-42.181c-.773-7.03-1.491-14.061-2.309-21.09a39.607,39.607,0,0,1-.479-5.274c0-1.76.009-3.521.07-5.282.1-3.522.279-7.046.705-10.573a7.984,7.984,0,0,1,15.821-.233Z" transform="translate(-311.091 -587.149)" fill="#ed66ed"/>
          <path id="Trazado_1220661" data-name="Trazado 1220661" d="M310.179,684.817l-11.091-4.759s-2.051-12.074.067-15.081l13.148,7.749Z" transform="translate(-291.536 -589.236)" fill="#ed66ed"/>
          <path id="Trazado_1220662" data-name="Trazado 1220662" d="M323.755,541.334l-19.781-8.3a1.826,1.826,0,0,0-2.5,1.343c-1.1,5.85-3.408,22.131,2.377,33.637,0,0-1.783,11.12-3.966,14.781,0,0,12.133,13.049,29.084,10.13L324,565.1s7.832-9.2,1.081-15.7Z" transform="translate(-292.582 -507.379)" fill="#bad4f5"/>
          <path id="Trazado_1220663" data-name="Trazado 1220663" d="M360.863,575.127,371.674,590.3l-4.936-.043,17.77-17.906a2.176,2.176,0,0,1,3.22,2.921L371.636,594.7a3.15,3.15,0,0,1-4.436.416c-.046-.038-.091-.077-.133-.117l-.367-.342L353.084,581.94a5.2,5.2,0,0,1,7.095-7.6A5.514,5.514,0,0,1,360.863,575.127Z" transform="translate(-324.529 -531.435)" fill="#f89ab5"/>
          <path id="Trazado_1220664" data-name="Trazado 1220664" d="M370.143,601.486l.678.893s3.342.733,7-4.989l-1.12-1.758Z" transform="translate(-336.124 -546.261)" fill="#e6e6e6"/>
          <path id="Trazado_1220665" data-name="Trazado 1220665" d="M359.975,571.241c-.755,3.881-6.417,7.719-9.443,6.556l-8.3-12.259c-1.494-2.365-.537-5.652,2.138-7.343,2.9-1.835,6.573-1.243,8.2,1.324Z" transform="translate(-318.39 -522.398)" fill="#c2ddf9"/>
          <g id="Grupo_1232094" data-name="Grupo 1232094" transform="translate(59.909 33.598)">
            <path id="Trazado_1220666" data-name="Trazado 1220666" d="M441.3,565.694l4.344-3.936-.612-2.594-.671-1.725-.73-1.6-5.4,6.71.916,1.98Z" transform="translate(-438.228 -555.194)" fill="#f89ab5"/>
            <g id="Grupo_1232089" data-name="Grupo 1232089" transform="translate(5.125 2.151)">
              <path id="Trazado_1220667" data-name="Trazado 1220667" d="M452.514,565.153a.809.809,0,0,1-.418-1.5c.782-.471,2.9-1.975,3.281-3.268a.808.808,0,1,1,1.549.461c-.632,2.123-3.655,3.987-4,4.193A.79.79,0,0,1,452.514,565.153Z" transform="translate(-451.705 -559.806)" fill="#f89ab5"/>
            </g>
            <g id="Grupo_1232090" data-name="Grupo 1232090" transform="translate(3.63 5.93)">
              <path id="Trazado_1220668" data-name="Trazado 1220668" d="M448.584,572.887a.808.808,0,0,1-.362-1.531,27.671,27.671,0,0,1,4.077-1.576.808.808,0,1,1,.46,1.549,26.517,26.517,0,0,0-3.815,1.473A.806.806,0,0,1,448.584,572.887Z" transform="translate(-447.775 -569.746)" fill="#f89ab5"/>
            </g>
            <g id="Grupo_1232091" data-name="Grupo 1232091" transform="translate(4.807 0.515)">
              <path id="Trazado_1220669" data-name="Trazado 1220669" d="M451.678,561.269a.809.809,0,0,1-.5-1.444c.717-.564,2.625-2.319,2.839-3.64a.808.808,0,0,1,1.6.258c-.353,2.177-3.121,4.407-3.436,4.653A.807.807,0,0,1,451.678,561.269Z" transform="translate(-450.869 -555.505)" fill="#f89ab5"/>
            </g>
            <g id="Grupo_1232092" data-name="Grupo 1232092" transform="translate(3.29 0.168)">
              <path id="Trazado_1220670" data-name="Trazado 1220670" d="M447.689,560.355a.809.809,0,0,1-.5-1.444c.717-.564,2.625-2.319,2.839-3.641a.808.808,0,1,1,1.6.258c-.353,2.178-3.121,4.407-3.436,4.654A.805.805,0,0,1,447.689,560.355Z" transform="translate(-446.88 -554.593)" fill="#f89ab5"/>
            </g>
            <g id="Grupo_1232093" data-name="Grupo 1232093" transform="translate(2.494)">
              <path id="Trazado_1220671" data-name="Trazado 1220671" d="M445.6,559.8a.809.809,0,0,1-.549-1.4c.56-.518,2.008-2.146,1.987-3.431a.809.809,0,0,1,.795-.822h.014a.809.809,0,0,1,.808.795c.037,2.236-2.247,4.406-2.507,4.646A.8.8,0,0,1,445.6,559.8Z" transform="translate(-444.788 -554.15)" fill="#f89ab5"/>
            </g>
          </g>
          <path id="Trazado_1220672" data-name="Trazado 1220672" d="M330.948,523.18l1.284,9.133s-1.349,3.277-5.273,1.695-3.066-3.992-3.066-3.992l.4-5.469Z" transform="translate(-307.412 -501.359)" fill="#f89ab5"/>
          <path id="Trazado_1220673" data-name="Trazado 1220673" d="M331.79,528.254s-1.035,2.11-7.367,1.323l.269-3.536Z" transform="translate(-307.789 -503.133)" fill="#db8faa"/>
          <path id="Trazado_1220674" data-name="Trazado 1220674" d="M328.071,482.23c1.486,7.507,1.924,12.857,0,13.237-2.985.591-13.286,1.349-14.928-6.945-1.161-5.866.272-13.373,4.413-14.193C324.6,472.935,326.909,476.364,328.071,482.23Z" transform="translate(-300.56 -470.892)" fill="#f89ab5"/>
          <path id="Trazado_1220675" data-name="Trazado 1220675" d="M307.7,475.966s-2.775.5-2.536,3.9c.268,3.815.825,7.28,3.174,8.745a7.988,7.988,0,0,1,3.857,6.977c-.117,3.834-2.58,8.409-1.755,10.206s4.2,6.448,3.436,10.8c-.72,4.083-2.442,6.859-7.744,7.8a4.716,4.716,0,0,1-2.059-.093c-3-.816-12.156-3.462-14.861-6.064-2.238-2.153-5.618-3.686-4.85-9.5,0,0-3.665-5.729-3.683-8.793s.109-8.041,4.755-10.028a10.774,10.774,0,0,1-.294-9.721,16.866,16.866,0,0,1,5.311-7.361c.6-.763.931-5.937,9.275-7.038,0,0,3.025-.1,4.669,1.355a1.3,1.3,0,0,0,1.7-.226s.549,1.315.111,1.954a9.589,9.589,0,0,0,1.234-.6,1.775,1.775,0,0,1,.051,1.013S311.031,473.9,307.7,475.966Z" transform="translate(-280.68 -465.796)" fill="#0a1a4e"/>
          <path id="Trazado_1220676" data-name="Trazado 1220676" d="M293.222,519.514a9.488,9.488,0,0,1-.765-3.888l26.614,13.057a20.782,20.782,0,0,1-1.216,3.776l-26.1-12.339A7.616,7.616,0,0,1,293.222,519.514Z" transform="translate(-287.541 -496.677)" fill="#0a1a4e" opacity="0.75"/>
          <path id="Trazado_1220677" data-name="Trazado 1220677" d="M304.284,483.745a1.016,1.016,0,0,0,.112-.195c2.865.846,9.863,3.044,15.148,4.713a3.7,3.7,0,0,0-.557,1.88l-16.237-5C303.481,484.424,304.033,484.063,304.284,483.745Z" transform="translate(-294.358 -476.799)" fill="#0a1a4e" opacity="0.75"/>
        </g>
        <g id="Grupo_1232096" data-name="Grupo 1232096" transform="translate(256.031 164.617)">
          <path id="Trazado_1220678" data-name="Trazado 1220678" d="M326.227,452.09a1.064,1.064,0,0,1,0,2.015,3.858,3.858,0,0,1-3.49,0,1.064,1.064,0,0,1,0-2.015A3.858,3.858,0,0,1,326.227,452.09Z" transform="translate(-306.842 -395.597)" fill="#071335"/>
          <path id="Trazado_1220679" data-name="Trazado 1220679" d="M321.444,404.109c2.988,1.725,2.988,4.522,0,6.248a11.959,11.959,0,0,1-10.821,0c-2.988-1.725-2.988-4.522,0-6.248A11.96,11.96,0,0,1,321.444,404.109Z" transform="translate(-298.393 -365.318)" fill="#3949ab"/>
          <path id="Trazado_1220680" data-name="Trazado 1220680" d="M321.444,425.911c2.988,1.725,2.988,4.522,0,6.248a11.96,11.96,0,0,1-10.821,0c-2.988-1.725-2.988-4.522,0-6.248A11.96,11.96,0,0,1,321.444,425.911Z" transform="translate(-298.393 -378.829)" fill="#0a1a4e"/>
          <path id="Trazado_1220681" data-name="Trazado 1220681" d="M323.553,440.035c2.1,1.21,2.1,3.171,0,4.381a8.386,8.386,0,0,1-7.587,0c-2.1-1.21-2.1-3.171,0-4.381A8.385,8.385,0,0,1,323.553,440.035Z" transform="translate(-302.119 -387.822)" fill="#0a1a4e"/>
          <rect id="Rect치ngulo_422985" data-name="Rect치ngulo 422985" width="15.294" height="7.847" transform="translate(9.988 42.139)" fill="#0a1a4e"/>
          <path id="Trazado_1220682" data-name="Trazado 1220682" d="M324.594,443.032l-1,2.352H313.223l-1.042-2.352Z" transform="translate(-300.748 -390.242)" fill="#0a1a4e"/>
          <path id="Trazado_1220683" data-name="Trazado 1220683" d="M321.394,423.384a10.619,10.619,0,0,1-10.913,0,4.77,4.77,0,0,1-2.2-2.993c-.29,1.526.445,3.123,2.2,4.3a10.619,10.619,0,0,0,10.913,0,4.241,4.241,0,0,0,2.18-4.3A4.734,4.734,0,0,1,321.394,423.384Z" transform="translate(-298.292 -376.21)" fill="#071335"/>
          <path id="Trazado_1220684" data-name="Trazado 1220684" d="M321.394,429.9a10.619,10.619,0,0,1-10.913,0,4.769,4.769,0,0,1-2.2-2.992c-.29,1.526.445,3.123,2.2,4.3a10.619,10.619,0,0,0,10.913,0,4.241,4.241,0,0,0,2.18-4.3A4.736,4.736,0,0,1,321.394,429.9Z" transform="translate(-298.292 -380.25)" fill="#071335"/>
          <path id="Trazado_1220685" data-name="Trazado 1220685" d="M326.037,454.424l.564-.418h-6.044l.563.418Z" transform="translate(-305.938 -397.043)" fill="#071335"/>
          <path id="Trazado_1220686" data-name="Trazado 1220686" d="M299.754,304.2a17.641,17.641,0,0,0-11.01,31.423,12.316,12.316,0,0,0,1.336,4.016l2.032,6.7h0a3.937,3.937,0,0,0,2.231,2.9,11.96,11.96,0,0,0,10.821,0,3.939,3.939,0,0,0,2.231-2.9h0l2.036-6.7h0a12.321,12.321,0,0,0,1.335-4.015,17.642,17.642,0,0,0-11.01-31.424Z" transform="translate(-282.114 -304.205)" fill="#ffee58"/>
        </g>
      </g>
    </g>
  </g>
</svg>
