<svg xmlns="http://www.w3.org/2000/svg" xmlns:xlink="http://www.w3.org/1999/xlink" width="113" height="113" viewBox="0 0 113 113">
  <defs>
    <filter id="Trazado_982547" x="0" y="0" width="113" height="113" filterUnits="userSpaceOnUse">
      <feOffset dy="3" input="SourceAlpha"/>
      <feGaussianBlur stdDeviation="3" result="blur"/>
      <feFlood flood-opacity="0.161"/>
      <feComposite operator="in" in2="blur"/>
      <feComposite in="SourceGraphic"/>
    </filter>
  </defs>
  <g id="Grupo_1232484" data-name="Grupo 1232484" transform="translate(-324 -1463.959)">
    <g id="Grupo_1230095" data-name="Grupo 1230095" transform="translate(-0.25 -13219.084)">
      <g id="Grupo_1224255" data-name="Grupo 1224255" transform="translate(0.25 13230)">
        <g id="Grupo_1223775" data-name="Grupo 1223775" transform="translate(0 -4451.031)">
          <g id="Grupo_1206275" data-name="Grupo 1206275" transform="translate(0 -3448.335)">
            <g id="Grupo_1203802" data-name="Grupo 1203802" transform="translate(0.5 6552.41)">
              <g id="Grupo_1202424" data-name="Grupo 1202424" transform="translate(0 1464)">
                <g id="Grupo_1178325" data-name="Grupo 1178325" transform="translate(0 424)">
                  <g id="Grupo_1177679" data-name="Grupo 1177679" transform="translate(332.5 918)">
                    <g id="Grupo_1172010" data-name="Grupo 1172010">
                      <g id="Grupo_1171046" data-name="Grupo 1171046">
                        <g id="Grupo_1148525" data-name="Grupo 1148525">
                          <g transform="matrix(1, 0, 0, 1, -9, -6)" filter="url(#Trazado_982547)">
                            <g id="Trazado_982547-2" data-name="Trazado 982547" transform="translate(9 6)" fill="#cefcf7">
                              <path d="M 47.5 93.5 C 41.28937149047852 93.5 35.26533508300781 92.28397369384766 29.59518623352051 89.88570404052734 C 24.11771965026855 87.56893157958984 19.19813346862793 84.25196075439453 14.97309303283691 80.02691650390625 C 10.74804019927979 75.80186462402344 7.431066513061523 70.88229370117188 5.114293098449707 65.40481567382812 C 2.716026782989502 59.73468017578125 1.5 53.71062850952148 1.5 47.5 C 1.5 41.28937149047852 2.716026782989502 35.26533508300781 5.114293098449707 29.59518623352051 C 7.431066513061523 24.11771965026855 10.74804019927979 19.19813346862793 14.97309303283691 14.97309303283691 C 19.19813346862793 10.74804019927979 24.11771965026855 7.431066513061523 29.59518623352051 5.114293098449707 C 35.26533508300781 2.716026782989502 41.28937149047852 1.5 47.5 1.5 C 53.71062850952148 1.5 59.73468017578125 2.716026782989502 65.40481567382812 5.114293098449707 C 70.88229370117188 7.431066513061523 75.80186462402344 10.74804019927979 80.02691650390625 14.97309303283691 C 84.25196075439453 19.19813346862793 87.56893157958984 24.11771965026855 89.88570404052734 29.59518623352051 C 92.28397369384766 35.26533508300781 93.5 41.28937149047852 93.5 47.5 C 93.5 53.71062850952148 92.28397369384766 59.73468017578125 89.88570404052734 65.40481567382812 C 87.56893157958984 70.88229370117188 84.25196075439453 75.80186462402344 80.02691650390625 80.02691650390625 C 75.80186462402344 84.25196075439453 70.88229370117188 87.56893157958984 65.40481567382812 89.88570404052734 C 59.73468017578125 92.28397369384766 53.71062850952148 93.5 47.5 93.5 Z" stroke="none"/>
                              <path d="M 47.5 3 C 41.49121475219727 3 35.66376876831055 4.176155090332031 30.17950439453125 6.495796203613281 C 24.88084411621094 8.736953735351562 20.12152099609375 11.94598388671875 16.03375244140625 16.03375244140625 C 11.94598388671875 20.12152099609375 8.736953735351562 24.88084411621094 6.495796203613281 30.17950439453125 C 4.176155090332031 35.66376876831055 3 41.49121475219727 3 47.5 C 3 53.50878524780273 4.176155090332031 59.33623123168945 6.495796203613281 64.82049560546875 C 8.736953735351562 70.11915588378906 11.94598388671875 74.87847900390625 16.03375244140625 78.96624755859375 C 20.12152099609375 83.05401611328125 24.88084411621094 86.26304626464844 30.17950439453125 88.50419616699219 C 35.66376876831055 90.82384490966797 41.49121475219727 92 47.5 92 C 53.50878524780273 92 59.33623123168945 90.82384490966797 64.82049560546875 88.50419616699219 C 70.11915588378906 86.26304626464844 74.87847900390625 83.05401611328125 78.96624755859375 78.96624755859375 C 83.05401611328125 74.87847900390625 86.26304626464844 70.11915588378906 88.50419616699219 64.82049560546875 C 90.82384490966797 59.33623123168945 92 53.50878524780273 92 47.5 C 92 41.49121475219727 90.82384490966797 35.66376876831055 88.50419616699219 30.17950439453125 C 86.26304626464844 24.88084411621094 83.05401611328125 20.12152099609375 78.96624755859375 16.03375244140625 C 74.87847900390625 11.94598388671875 70.11915588378906 8.736953735351562 64.82049560546875 6.495796203613281 C 59.33623123168945 4.176155090332031 53.50878524780273 3 47.5 3 M 47.5 0 C 73.7335205078125 0 95 21.2664794921875 95 47.5 C 95 73.7335205078125 73.7335205078125 95 47.5 95 C 21.2664794921875 95 0 73.7335205078125 0 47.5 C 0 21.2664794921875 21.2664794921875 0 47.5 0 Z" stroke="none" fill="#098576"/>
                            </g>
                          </g>
                        </g>
                      </g>
                    </g>
                  </g>
                </g>
              </g>
            </g>
          </g>
        </g>
      </g>
    </g>
    <g id="seguro-dental" transform="translate(353.436 1490.145)">
      <path id="Trazado_1220945" data-name="Trazado 1220945" d="M37.957,24.741a11.422,11.422,0,0,1,5.3-9.657l-.018-.035V8H8V60.866H43.244V34.433l.018-.035a11.422,11.422,0,0,1-5.3-9.657Zm0,0" transform="translate(-7.119 -7.119)" fill="#ffeaa7"/>
      <path id="Trazado_1220946" data-name="Trazado 1220946" d="M86.908,70.23v.379a6.236,6.236,0,0,1-.537,2.529l-.538,1.216a39.125,39.125,0,0,0-3.119,11.5,2.133,2.133,0,0,1-.705,1.384,2.2,2.2,0,0,1-1.463.555A2.17,2.17,0,0,1,78.485,86.3l-1.868-5.6a1.226,1.226,0,0,0-2.326,0l-1.868,5.6a2.17,2.17,0,0,1-2.062,1.489,2.2,2.2,0,0,1-1.463-.555,2.133,2.133,0,0,1-.705-1.384,39.125,39.125,0,0,0-3.119-11.5l-.538-1.216A6.236,6.236,0,0,1,64,70.609V70.23a6.23,6.23,0,0,1,10.635-4.405l.82.82.82-.82A6.23,6.23,0,0,1,86.908,70.23Zm0,0" transform="translate(-56.951 -56.952)" fill="#e6e9ed"/>
      <path id="Trazado_1220947" data-name="Trazado 1220947" d="M365.287,344v13.216a2.643,2.643,0,0,1-5.287,0V344Zm0,0" transform="translate(-320.351 -306.113)" fill="#cf9e76"/>
      <path id="Trazado_1220948" data-name="Trazado 1220948" d="M365.287,312v3.524H360V312Zm0,0" transform="translate(-320.351 -277.637)" fill="#fcd770"/>
      <path id="Trazado_1220949" data-name="Trazado 1220949" d="M371.524,262.8v5.419H368V262.8a11.821,11.821,0,0,0,3.524,0Zm0,0" transform="translate(-327.47 -233.857)" fill="#aab2bd"/>
      <path id="Trazado_1220950" data-name="Trazado 1220950" d="M293.216,78.777a11.821,11.821,0,0,1-3.524,0A11.457,11.457,0,0,1,291.454,56a11.457,11.457,0,0,1,1.762,22.776Zm0,0" transform="translate(-249.162 -49.832)" fill="#69d6f4"/>
      <path id="Trazado_1220951" data-name="Trazado 1220951" d="M346.573,115.524v3.524h-3.524v3.524h-3.524v-3.524H336v-3.524h3.524V112h3.524v3.524Zm0,0" transform="translate(-298.994 -99.665)" fill="#e6e9ed"/>
      <path id="Trazado_1220952" data-name="Trazado 1220952" d="M133.16,109.6a2.991,2.991,0,0,1-2.742-1.286l-1.57.8a5.259,5.259,0,0,0,8.625,0l-1.57-.8a2.993,2.993,0,0,1-2.743,1.287Zm0,0" transform="translate(-114.657 -96.383)"/>
      <path id="Trazado_1220953" data-name="Trazado 1220953" d="M54.628,17.622A12.306,12.306,0,0,0,37.006,6.494V0H0V54.628H37.006V28.75a12.212,12.212,0,0,0,2.643.915v3.817h-.881V51.1a3.524,3.524,0,1,0,7.049,0V33.482h-.881V29.665a12.351,12.351,0,0,0,9.692-12.043Zm-1.762,0A10.573,10.573,0,1,1,42.293,7.049,10.585,10.585,0,0,1,52.866,17.622ZM35.244,52.866H1.762V1.762H35.244V7.513a12.392,12.392,0,0,0-4.415,5.582A7.106,7.106,0,0,0,18.7,8.25l-.2.2-.2-.2a7.111,7.111,0,0,0-12.14,5.028v.378a7.07,7.07,0,0,0,.612,2.888l.54,1.215A37.982,37.982,0,0,1,10.363,29a3.063,3.063,0,0,0,5.949.63l1.868-5.6a.355.355,0,0,1,.648,0l1.868,5.6A3.061,3.061,0,0,0,26.642,29a37.964,37.964,0,0,1,3.043-11.236l.3-.672c-.008.179-.027.354-.027.535a12.323,12.323,0,0,0,5.287,10.109ZM29.076,13.279v.378a5.308,5.308,0,0,1-.461,2.172l-.54,1.215A39.711,39.711,0,0,0,24.892,28.8a1.3,1.3,0,0,1-2.525.267l-1.868-5.6a2.1,2.1,0,0,0-3.992,0l-1.868,5.6a1.3,1.3,0,0,1-2.525-.268A39.718,39.718,0,0,0,8.931,17.044l-.54-1.215a5.314,5.314,0,0,1-.461-2.172V13.28A5.349,5.349,0,0,1,17.061,9.5L18.5,10.938,19.945,9.5a5.349,5.349,0,0,1,9.131,3.783ZM44.055,35.244v1.762H40.53V35.244ZM42.293,52.866A1.764,1.764,0,0,1,40.53,51.1V38.768h3.524V51.1A1.764,1.764,0,0,1,42.293,52.866Zm.881-19.384H41.412V29.913c.293.021.583.045.881.045s.589-.024.881-.045Zm0,0"/>
      <path id="Trazado_1220954" data-name="Trazado 1220954" d="M331.524,116.335h5.287v-3.524h3.524v-5.287h-3.524V104h-5.287v3.524H328v5.287h3.524Zm-1.762-5.287v-1.762h3.524v-3.524h1.762v3.524h3.524v1.762h-3.524v3.524h-1.762v-3.524Zm0,0" transform="translate(-291.875 -92.546)"/>
      <path id="Trazado_1220955" data-name="Trazado 1220955" d="M32,304H61.957v1.762H32Zm0,0" transform="translate(-28.476 -270.518)"/>
      <path id="Trazado_1220956" data-name="Trazado 1220956" d="M80,336h24.671v1.762H80Zm0,0" transform="translate(-71.189 -298.994)"/>
      <path id="Trazado_1220957" data-name="Trazado 1220957" d="M32,336h3.524v1.762H32Zm0,0" transform="translate(-28.476 -298.994)"/>
      <path id="Trazado_1220958" data-name="Trazado 1220958" d="M32,400H61.957v1.762H32Zm0,0" transform="translate(-28.476 -355.945)"/>
      <path id="Trazado_1220959" data-name="Trazado 1220959" d="M288,432h1.762v1.762H288Zm0,0" transform="translate(-256.28 -384.421)"/>
      <path id="Trazado_1220960" data-name="Trazado 1220960" d="M32,432H58.433v1.762H32Zm0,0" transform="translate(-28.476 -384.421)"/>
      <path id="Trazado_1220961" data-name="Trazado 1220961" d="M288,368h1.762v1.762H288Zm0,0" transform="translate(-256.28 -327.47)"/>
      <path id="Trazado_1220962" data-name="Trazado 1220962" d="M256,368h1.762v1.762H256Zm0,0" transform="translate(-227.805 -327.47)"/>
      <path id="Trazado_1220963" data-name="Trazado 1220963" d="M176,368h7.049v1.762H176Zm0,0" transform="translate(-156.616 -327.47)"/>
      <path id="Trazado_1220964" data-name="Trazado 1220964" d="M96,368h7.049v1.762H96Zm0,0" transform="translate(-85.427 -327.47)"/>
      <path id="Trazado_1220965" data-name="Trazado 1220965" d="M64,368h1.762v1.762H64Zm0,0" transform="translate(-56.951 -327.47)"/>
      <path id="Trazado_1220966" data-name="Trazado 1220966" d="M32,368h1.762v1.762H32Zm0,0" transform="translate(-28.476 -327.47)"/>
    </g>
  </g>
</svg>
