<svg xmlns="http://www.w3.org/2000/svg" xmlns:xlink="http://www.w3.org/1999/xlink" width="113" height="113" viewBox="0 0 113 113">
  <defs>
    <filter id="Trazado_982547" x="0" y="0" width="113" height="113" filterUnits="userSpaceOnUse">
      <feOffset dy="3" input="SourceAlpha"/>
      <feGaussianBlur stdDeviation="3" result="blur"/>
      <feFlood flood-opacity="0.161"/>
      <feComposite operator="in" in2="blur"/>
      <feComposite in="SourceGraphic"/>
    </filter>
  </defs>
  <g id="Grupo_1232486" data-name="Grupo 1232486" transform="translate(-744.196 -1463.959)">
    <g id="Grupo_1230113" data-name="Grupo 1230113" transform="translate(0.946 -13219.084)">
      <g id="Grupo_1230104" data-name="Grupo 1230104">
        <g id="Grupo_1224257" data-name="Grupo 1224257" transform="translate(0.25 13230)">
          <g id="Grupo_1223773" data-name="Grupo 1223773" transform="translate(0 -4451.031)">
            <g id="Grupo_1206282" data-name="Grupo 1206282" transform="translate(0 -3448.335)">
              <g id="Grupo_1203803" data-name="Grupo 1203803" transform="translate(0 6552.41)">
                <g id="Grupo_1202425" data-name="Grupo 1202425" transform="translate(-0.25 1464)">
                  <g id="Grupo_1178324" data-name="Grupo 1178324" transform="translate(0 424)">
                    <g id="Grupo_1177680" data-name="Grupo 1177680" transform="translate(752.25 918)">
                      <g id="Grupo_1172010" data-name="Grupo 1172010">
                        <g id="Grupo_1171046" data-name="Grupo 1171046">
                          <g id="Grupo_1148525" data-name="Grupo 1148525">
                            <g transform="matrix(1, 0, 0, 1, -9, -6)" filter="url(#Trazado_982547)">
                              <g id="Trazado_982547-2" data-name="Trazado 982547" transform="translate(9 6)" fill="#cefcf7">
                                <path d="M 47.5 93.5 C 41.28937149047852 93.5 35.26533508300781 92.28397369384766 29.59518623352051 89.88570404052734 C 24.11771965026855 87.56893157958984 19.19813346862793 84.25196075439453 14.97309303283691 80.02691650390625 C 10.74804019927979 75.80186462402344 7.431066513061523 70.88229370117188 5.114293098449707 65.40481567382812 C 2.716026782989502 59.73468017578125 1.5 53.71062850952148 1.5 47.5 C 1.5 41.28937149047852 2.716026782989502 35.26533508300781 5.114293098449707 29.59518623352051 C 7.431066513061523 24.11771965026855 10.74804019927979 19.19813346862793 14.97309303283691 14.97309303283691 C 19.19813346862793 10.74804019927979 24.11771965026855 7.431066513061523 29.59518623352051 5.114293098449707 C 35.26533508300781 2.716026782989502 41.28937149047852 1.5 47.5 1.5 C 53.71062850952148 1.5 59.73468017578125 2.716026782989502 65.40481567382812 5.114293098449707 C 70.88229370117188 7.431066513061523 75.80186462402344 10.74804019927979 80.02691650390625 14.97309303283691 C 84.25196075439453 19.19813346862793 87.56893157958984 24.11771965026855 89.88570404052734 29.59518623352051 C 92.28397369384766 35.26533508300781 93.5 41.28937149047852 93.5 47.5 C 93.5 53.71062850952148 92.28397369384766 59.73468017578125 89.88570404052734 65.40481567382812 C 87.56893157958984 70.88229370117188 84.25196075439453 75.80186462402344 80.02691650390625 80.02691650390625 C 75.80186462402344 84.25196075439453 70.88229370117188 87.56893157958984 65.40481567382812 89.88570404052734 C 59.73468017578125 92.28397369384766 53.71062850952148 93.5 47.5 93.5 Z" stroke="none"/>
                                <path d="M 47.5 3 C 41.49121475219727 3 35.66376876831055 4.176155090332031 30.17950439453125 6.495796203613281 C 24.88084411621094 8.736953735351562 20.12152099609375 11.94598388671875 16.03375244140625 16.03375244140625 C 11.94598388671875 20.12152099609375 8.736953735351562 24.88084411621094 6.495796203613281 30.17950439453125 C 4.176155090332031 35.66376876831055 3 41.49121475219727 3 47.5 C 3 53.50878524780273 4.176155090332031 59.33623123168945 6.495796203613281 64.82049560546875 C 8.736953735351562 70.11915588378906 11.94598388671875 74.87847900390625 16.03375244140625 78.96624755859375 C 20.12152099609375 83.05401611328125 24.88084411621094 86.26304626464844 30.17950439453125 88.50419616699219 C 35.66376876831055 90.82384490966797 41.49121475219727 92 47.5 92 C 53.50878524780273 92 59.33623123168945 90.82384490966797 64.82049560546875 88.50419616699219 C 70.11915588378906 86.26304626464844 74.87847900390625 83.05401611328125 78.96624755859375 78.96624755859375 C 83.05401611328125 74.87847900390625 86.26304626464844 70.11915588378906 88.50419616699219 64.82049560546875 C 90.82384490966797 59.33623123168945 92 53.50878524780273 92 47.5 C 92 41.49121475219727 90.82384490966797 35.66376876831055 88.50419616699219 30.17950439453125 C 86.26304626464844 24.88084411621094 83.05401611328125 20.12152099609375 78.96624755859375 16.03375244140625 C 74.87847900390625 11.94598388671875 70.11915588378906 8.736953735351562 64.82049560546875 6.495796203613281 C 59.33623123168945 4.176155090332031 53.50878524780273 3 47.5 3 M 47.5 0 C 73.7335205078125 0 95 21.2664794921875 95 47.5 C 95 73.7335205078125 73.7335205078125 95 47.5 95 C 21.2664794921875 95 0 73.7335205078125 0 47.5 C 0 21.2664794921875 21.2664794921875 0 47.5 0 Z" stroke="none" fill="#098576"/>
                              </g>
                            </g>
                          </g>
                        </g>
                      </g>
                    </g>
                  </g>
                </g>
              </g>
            </g>
          </g>
        </g>
      </g>
    </g>
    <g id="tienda-online" transform="translate(771.67 1478.831)">
      <path id="Trazado_1220967" data-name="Trazado 1220967" d="M162.391,404.44c-.224,1.9-1.7,2.37-2.088,2.743h15.84a3.786,3.786,0,0,1-2.089-2.743L173.545,400H162.9Z" transform="translate(-142.564 -345.439)" fill="#ddd"/>
      <path id="Trazado_1220968" data-name="Trazado 1220968" d="M166.412,404.44l.509-4.437H162.9l-.509,4.437c-.224,1.9-1.7,2.37-2.088,2.743h4.021l.909-.635A3.073,3.073,0,0,0,166.412,404.44Z" transform="translate(-142.564 -345.439)" fill="#ceccca"/>
      <path id="Trazado_1220969" data-name="Trazado 1220969" d="M151.312,464H132.08a1.609,1.609,0,0,0-1.6,1.6h0a1.609,1.609,0,0,0,1.6,1.6h19.232a1.609,1.609,0,0,0,1.6-1.6h0A1.609,1.609,0,0,0,151.312,464Z" transform="translate(-116.036 -402.358)" fill="#efefef"/>
      <path id="Trazado_1220970" data-name="Trazado 1220970" d="M136.451,465.61a1.609,1.609,0,0,1,1.6-1.6H132.08a1.6,1.6,0,1,0,0,3.209h5.976A1.609,1.609,0,0,1,136.451,465.61Z" transform="translate(-116.036 -402.359)" fill="#ddd"/>
      <path id="Trazado_1220971" data-name="Trazado 1220971" d="M44.174,45.115a2.881,2.881,0,0,1,2.881-2.881h10.4V22.206a3.222,3.222,0,0,0-3.212-3.212H10.977a3.222,3.222,0,0,0-3.212,3.212v35.85a3.222,3.222,0,0,0,3.212,3.212h33.2V45.115Z" transform="translate(-6.906 -6.594)" fill="#efefef"/>
      <path id="Trazado_1220972" data-name="Trazado 1220972" d="M13.74,58.056V22.206a3.222,3.222,0,0,1,3.212-3.212H10.976a3.222,3.222,0,0,0-3.212,3.212v35.85a3.222,3.222,0,0,0,3.212,3.212h5.976A3.222,3.222,0,0,1,13.74,58.056Z" transform="translate(-6.905 -6.594)" fill="#ddd"/>
      <path id="Trazado_1220973" data-name="Trazado 1220973" d="M44.174,45.115a2.881,2.881,0,0,1,2.881-2.881h10.4V22.206a3.222,3.222,0,0,0-3.212-3.212H10.977a3.222,3.222,0,0,0-3.212,3.212V54.739H44.174V45.115Z" transform="translate(-6.906 -6.594)" fill="#647892"/>
      <path id="Trazado_1220974" data-name="Trazado 1220974" d="M13.74,22.206a3.222,3.222,0,0,1,3.212-3.212H10.976a3.224,3.224,0,0,0-3.212,3.212V54.739H13.74Z" transform="translate(-6.905 -6.594)" fill="#4d6682"/>
      <path id="Trazado_1220975" data-name="Trazado 1220975" d="M36.765,102v22.692a.548.548,0,0,0,.548.548H69.854v-6.3a2.881,2.881,0,0,1,2.881-2.881h7.189V102Z" transform="translate(-32.697 -80.41)" fill="#a4d9f4"/>
      <path id="Trazado_1220976" data-name="Trazado 1220976" d="M39.532,102H36.765v22.692a.548.548,0,0,0,.548.548h2.218Z" transform="translate(-32.697 -80.41)" fill="#77cff2"/>
      <path id="Trazado_1220977" data-name="Trazado 1220977" d="M164.444,164l1.83,7.747h10.577a.7.7,0,0,0,.68-.533l1.666-6.772a.364.364,0,0,0-.356-.442Z" transform="translate(-146.246 -135.55)" fill="#fac149"/>
      <path id="Trazado_1220978" data-name="Trazado 1220978" d="M79.376,47.995H37.313a.548.548,0,0,0-.548.548V54.3H79.924v-5.76A.548.548,0,0,0,79.376,47.995Z" transform="translate(-32.697 -32.385)" fill="#efefef"/>
      <path id="Trazado_1220979" data-name="Trazado 1220979" d="M39.532,48v0H37.313a.548.548,0,0,0-.548.548V54.3h2.767V48Z" transform="translate(-32.697 -32.385)" fill="#ddd"/>
      <path id="Trazado_1220980" data-name="Trazado 1220980" d="M348.814,226H335.652a2.881,2.881,0,0,0-2.881,2.881v23.785a2.881,2.881,0,0,0,2.881,2.881h13.162a2.881,2.881,0,0,0,2.881-2.881V228.88A2.881,2.881,0,0,0,348.814,226Z" transform="translate(-295.946 -190.691)" fill="#efefef"/>
      <path id="Trazado_1220981" data-name="Trazado 1220981" d="M335.658,252.664V228.879A2.881,2.881,0,0,1,338.54,226h-2.886a2.881,2.881,0,0,0-2.881,2.881v23.785a2.881,2.881,0,0,0,2.881,2.881h2.886A2.881,2.881,0,0,1,335.658,252.664Z" transform="translate(-295.947 -190.69)" fill="#ddd"/>
      <path id="Trazado_1220982" data-name="Trazado 1220982" d="M372.053,275.456a.336.336,0,0,1-.336.336H359.109a.336.336,0,0,1-.336-.336v-23.12a.336.336,0,0,1,.336-.336h2.569a.414.414,0,0,1,.414.414V253.5a.828.828,0,0,0,.828.828h5.251a.782.782,0,0,0,.782-.781v-1.124a.418.418,0,0,1,.418-.418h2.344a.336.336,0,0,1,.336.336v23.12Z" transform="translate(-319.07 -213.815)" fill="#3997ee"/>
      <path id="Trazado_1220983" data-name="Trazado 1220983" d="M361.595,275.457v-23.12a.336.336,0,0,1,.215-.313.409.409,0,0,0-.132-.023h-2.569a.336.336,0,0,0-.336.336v23.12a.336.336,0,0,0,.336.336h2.822A.337.337,0,0,1,361.595,275.457Z" transform="translate(-319.07 -213.815)" fill="#1e88d8"/>
      <g id="Grupo_1232485" data-name="Grupo 1232485" transform="translate(20.557 38.738)">
        <circle id="Elipse_13780" data-name="Elipse 13780" cx="1.439" cy="1.439" r="1.439" transform="translate(0 0)" fill="#647892"/>
        <circle id="Elipse_13781" data-name="Elipse 13781" cx="1.439" cy="1.439" r="1.439" transform="translate(8.189 0)" fill="#647892"/>
      </g>
      <path id="Trazado_1220984" data-name="Trazado 1220984" d="M354.808,243.865h-2.5a1.168,1.168,0,0,0-1.166,1.166v23.224a1.168,1.168,0,0,0,1.166,1.166h12.635a1.168,1.168,0,0,0,1.166-1.166V245.031a1.168,1.168,0,0,0-1.166-1.166h-2.386a1.249,1.249,0,0,0-1.248,1.248v1.126l-5.252,0v-1.131A1.246,1.246,0,0,0,354.808,243.865Zm6.545,4.034a1.613,1.613,0,0,0,1.612-1.611v-.763h1.481v22.237H352.8V245.525h1.595v.716a1.66,1.66,0,0,0,1.658,1.658Z" transform="translate(-312.28 -206.58)"/>
      <path id="Trazado_1220985" data-name="Trazado 1220985" d="M407.959,244.5a.83.83,0,1,0,0-1.66H406.69a.83.83,0,1,0,0,1.66Z" transform="translate(-360.947 -205.667)"/>
      <path id="Trazado_1220986" data-name="Trazado 1220986" d="M224.432,364.976a.777.777,0,0,0,.075.144.891.891,0,0,0,.1.126.816.816,0,0,0,.126.1.835.835,0,0,0,.143.076.871.871,0,0,0,.155.048.863.863,0,0,0,.325,0,.859.859,0,0,0,.155-.048.837.837,0,0,0,.143-.076.82.82,0,0,0,.126-.1.836.836,0,0,0,.243-.588.807.807,0,0,0-.016-.162.869.869,0,0,0-.046-.156.882.882,0,0,0-.076-.143.891.891,0,0,0-.1-.126.815.815,0,0,0-.126-.1.841.841,0,0,0-.143-.076.875.875,0,0,0-.155-.048.846.846,0,0,0-.325,0,.862.862,0,0,0-.155.048.848.848,0,0,0-.143.076.821.821,0,0,0-.126.1.867.867,0,0,0-.1.126.823.823,0,0,0-.123.623A.759.759,0,0,0,224.432,364.976Z" transform="translate(-199.539 -313.269)"/>
      <path id="Trazado_1220987" data-name="Trazado 1220987" d="M413.184,431.115a.83.83,0,1,0,.668.814A.831.831,0,0,0,413.184,431.115Z" transform="translate(-366.578 -373.094)"/>
      <path id="Trazado_1220988" data-name="Trazado 1220988" d="M391.105,367.757h-6.229a.83.83,0,1,0,0,1.66h6.229a.83.83,0,1,0,0-1.66Z" transform="translate(-341.547 -316.762)"/>
      <path id="Trazado_1220989" data-name="Trazado 1220989" d="M391.105,401.646h-6.229a.83.83,0,1,0,0,1.66h6.229a.83.83,0,1,0,0-1.66Z" transform="translate(-341.547 -346.9)"/>
      <path id="Trazado_1220990" data-name="Trazado 1220990" d="M384.045,300.81a.83.83,0,0,0,.83.83H391.1a.83.83,0,0,0,0-1.66h-6.229A.83.83,0,0,0,384.045,300.81Z" transform="translate(-341.546 -256.485)"/>
      <path id="Trazado_1220991" data-name="Trazado 1220991" d="M391.105,333.868h-6.229a.83.83,0,1,0,0,1.66h6.229a.83.83,0,1,0,0-1.66Z" transform="translate(-341.547 -286.623)"/>
      <path id="Trazado_1220992" data-name="Trazado 1220992" d="M127.9,129.425h1.953c.088.371,2.885,12.2,2.89,12.218h0a1.7,1.7,0,0,0,.365.712,2.248,2.248,0,1,0,4.075.593h3.869a2.246,2.246,0,1,0,2.5-1.633.829.829,0,0,0-.208-.027H134.4a.043.043,0,0,1-.042-.033l-.234-.974h10.005a.83.83,0,0,0,.806-.632l1.786-7.261,0-.021a1.192,1.192,0,0,0-1.164-1.446H131.91l-.589-2.515a.83.83,0,0,0-.808-.641H127.9a.83.83,0,0,0,0,1.66Zm15.317,13.523a.587.587,0,1,1-.587.587A.588.588,0,0,1,143.219,142.948Zm-8.2,0a.587.587,0,1,1-.587.587A.588.588,0,0,1,135.017,142.948Zm9.947-10.367-1.486,6.04h-9.751l-1.427-6.04Z" transform="translate(-113.01 -103.328)"/>
      <path id="Trazado_1220993" data-name="Trazado 1220993" d="M69.844,71.816a.829.829,0,1,0-.83-.83A.83.83,0,0,0,69.844,71.816Z" transform="translate(-61.377 -52.095)"/>
      <path id="Trazado_1220994" data-name="Trazado 1220994" d="M98.164,71.811a.83.83,0,1,0-.83-.83A.83.83,0,0,0,98.164,71.811Z" transform="translate(-86.563 -52.09)"/>
      <path id="Trazado_1220995" data-name="Trazado 1220995" d="M126.515,71.81a.83.83,0,1,0-.83-.83A.831.831,0,0,0,126.515,71.81Z" transform="translate(-111.776 -52.089)"/>
      <path id="Trazado_1220996" data-name="Trazado 1220996" d="M160.655,71.811h24.068a.83.83,0,1,0,0-1.66H160.655a.83.83,0,0,0,0,1.66Z" transform="translate(-142.138 -52.089)"/>
      <path id="Trazado_1220997" data-name="Trazado 1220997" d="M.83,37.684a.83.83,0,0,0,.83-.83V15.622A2.385,2.385,0,0,1,4.042,13.24h34.6a.83.83,0,1,0,0-1.66H4.042A4.046,4.046,0,0,0,0,15.622V36.854A.83.83,0,0,0,.83,37.684Z" transform="translate(0 0)"/>
      <path id="Trazado_1220998" data-name="Trazado 1220998" d="M55.829,54.469a.83.83,0,0,0,.83-.83V38.163a3.715,3.715,0,0,0-3.711-3.711h-1.63V15.622a4.046,4.046,0,0,0-4.042-4.042H42.517a.83.83,0,1,0,0,1.66h4.758a2.385,2.385,0,0,1,2.382,2.382v18.83H48.071V16.182A1.38,1.38,0,0,0,46.693,14.8H4.625a1.38,1.38,0,0,0-1.378,1.378h0V44.327a1.38,1.38,0,0,0,1.378,1.378h31.4v1.582H1.66v-6.56a.83.83,0,0,0-1.66,0V51.393a4.047,4.047,0,0,0,4.042,4.042H19.381l-.4,3.4a2.16,2.16,0,0,1-.826,1.468l-.7.476H15.945a2.451,2.451,0,1,0,0,4.9H35.373a2.447,2.447,0,0,0,1.915-.924,3.7,3.7,0,0,0,2.447.924H52.948a3.715,3.715,0,0,0,3.711-3.711V57.512a.83.83,0,0,0-1.66,0v4.453a2.053,2.053,0,0,1-2.051,2.051H39.735a2.053,2.053,0,0,1-2.051-2.051v-23.8a2.053,2.053,0,0,1,2.051-2.051H52.948A2.053,2.053,0,0,1,55,38.163V53.639A.83.83,0,0,0,55.829,54.469ZM4.042,53.775A2.385,2.385,0,0,1,1.66,51.393V48.947H36.024v4.827Zm31.982,1.66v5.428a2.445,2.445,0,0,0-.651-.088H33.866l-.7-.476a2.159,2.159,0,0,1-.826-1.466l-.4-3.4Zm-4.677,5.34H19.971a3.974,3.974,0,0,0,.657-1.744v0l.425-3.593h9.212l.425,3.6A3.977,3.977,0,0,0,31.347,60.774Zm4.026,3.242H15.945a.791.791,0,1,1,0-1.582H35.373a.791.791,0,0,1,0,1.582ZM46.411,34.452H39.735a3.715,3.715,0,0,0-3.711,3.711v5.883H4.907V22.752h41.5Zm0-13.36H4.907V16.464h41.5Z" transform="translate(0 0)"/>
    </g>
  </g>
</svg>
