<svg xmlns="http://www.w3.org/2000/svg" xmlns:xlink="http://www.w3.org/1999/xlink" width="113" height="113" viewBox="0 0 113 113">
  <defs>
    <filter id="Trazado_982547" x="0" y="0" width="113" height="113" filterUnits="userSpaceOnUse">
      <feOffset dy="3" input="SourceAlpha"/>
      <feGaussianBlur stdDeviation="3" result="blur"/>
      <feFlood flood-opacity="0.161"/>
      <feComposite operator="in" in2="blur"/>
      <feComposite in="SourceGraphic"/>
    </filter>
  </defs>
  <g id="Grupo_1232494" data-name="Grupo 1232494" transform="translate(-1164 -1463.549)">
    <g id="Grupo_1230106" data-name="Grupo 1230106" transform="translate(0.75 -13219.084)">
      <g id="Grupo_1224275" data-name="Grupo 1224275" transform="translate(0.25 13230)">
        <g id="Grupo_1224268" data-name="Grupo 1224268">
          <g id="Grupo_1223779" data-name="Grupo 1223779" transform="translate(0 -4451.031)">
            <g id="Grupo_1206283" data-name="Grupo 1206283" transform="translate(0 -3448.335)">
              <g id="Grupo_1203804" data-name="Grupo 1203804" transform="translate(-1 6552)">
                <g id="Grupo_1202426" data-name="Grupo 1202426" transform="translate(0.5 1464)">
                  <g id="Grupo_1178323" data-name="Grupo 1178323" transform="translate(0 424)">
                    <g id="Grupo_1177681" data-name="Grupo 1177681" transform="translate(1172.5 918)">
                      <g id="Grupo_1172010" data-name="Grupo 1172010">
                        <g id="Grupo_1171046" data-name="Grupo 1171046">
                          <g id="Grupo_1148525" data-name="Grupo 1148525">
                            <g transform="matrix(1, 0, 0, 1, -9, -6)" filter="url(#Trazado_982547)">
                              <g id="Trazado_982547-2" data-name="Trazado 982547" transform="translate(9 6)" fill="#cefcf7">
                                <path d="M 47.5 93.5 C 41.28937149047852 93.5 35.26533508300781 92.28397369384766 29.59518623352051 89.88570404052734 C 24.11771965026855 87.56893157958984 19.19813346862793 84.25196075439453 14.97309303283691 80.02691650390625 C 10.74804019927979 75.80186462402344 7.431066513061523 70.88229370117188 5.114293098449707 65.40481567382812 C 2.716026782989502 59.73468017578125 1.5 53.71062850952148 1.5 47.5 C 1.5 41.28937149047852 2.716026782989502 35.26533508300781 5.114293098449707 29.59518623352051 C 7.431066513061523 24.11771965026855 10.74804019927979 19.19813346862793 14.97309303283691 14.97309303283691 C 19.19813346862793 10.74804019927979 24.11771965026855 7.431066513061523 29.59518623352051 5.114293098449707 C 35.26533508300781 2.716026782989502 41.28937149047852 1.5 47.5 1.5 C 53.71062850952148 1.5 59.73468017578125 2.716026782989502 65.40481567382812 5.114293098449707 C 70.88229370117188 7.431066513061523 75.80186462402344 10.74804019927979 80.02691650390625 14.97309303283691 C 84.25196075439453 19.19813346862793 87.56893157958984 24.11771965026855 89.88570404052734 29.59518623352051 C 92.28397369384766 35.26533508300781 93.5 41.28937149047852 93.5 47.5 C 93.5 53.71062850952148 92.28397369384766 59.73468017578125 89.88570404052734 65.40481567382812 C 87.56893157958984 70.88229370117188 84.25196075439453 75.80186462402344 80.02691650390625 80.02691650390625 C 75.80186462402344 84.25196075439453 70.88229370117188 87.56893157958984 65.40481567382812 89.88570404052734 C 59.73468017578125 92.28397369384766 53.71062850952148 93.5 47.5 93.5 Z" stroke="none"/>
                                <path d="M 47.5 3 C 41.49121475219727 3 35.66376876831055 4.176155090332031 30.17950439453125 6.495796203613281 C 24.88084411621094 8.736953735351562 20.12152099609375 11.94598388671875 16.03375244140625 16.03375244140625 C 11.94598388671875 20.12152099609375 8.736953735351562 24.88084411621094 6.495796203613281 30.17950439453125 C 4.176155090332031 35.66376876831055 3 41.49121475219727 3 47.5 C 3 53.50878524780273 4.176155090332031 59.33623123168945 6.495796203613281 64.82049560546875 C 8.736953735351562 70.11915588378906 11.94598388671875 74.87847900390625 16.03375244140625 78.96624755859375 C 20.12152099609375 83.05401611328125 24.88084411621094 86.26304626464844 30.17950439453125 88.50419616699219 C 35.66376876831055 90.82384490966797 41.49121475219727 92 47.5 92 C 53.50878524780273 92 59.33623123168945 90.82384490966797 64.82049560546875 88.50419616699219 C 70.11915588378906 86.26304626464844 74.87847900390625 83.05401611328125 78.96624755859375 78.96624755859375 C 83.05401611328125 74.87847900390625 86.26304626464844 70.11915588378906 88.50419616699219 64.82049560546875 C 90.82384490966797 59.33623123168945 92 53.50878524780273 92 47.5 C 92 41.49121475219727 90.82384490966797 35.66376876831055 88.50419616699219 30.17950439453125 C 86.26304626464844 24.88084411621094 83.05401611328125 20.12152099609375 78.96624755859375 16.03375244140625 C 74.87847900390625 11.94598388671875 70.11915588378906 8.736953735351562 64.82049560546875 6.495796203613281 C 59.33623123168945 4.176155090332031 53.50878524780273 3 47.5 3 M 47.5 0 C 73.7335205078125 0 95 21.2664794921875 95 47.5 C 95 73.7335205078125 73.7335205078125 95 47.5 95 C 21.2664794921875 95 0 73.7335205078125 0 47.5 C 0 21.2664794921875 21.2664794921875 0 47.5 0 Z" stroke="none" fill="#098576"/>
                              </g>
                            </g>
                          </g>
                        </g>
                      </g>
                    </g>
                  </g>
                </g>
              </g>
            </g>
          </g>
        </g>
      </g>
    </g>
    <g id="_x39_9_Education_App" transform="translate(1188.796 1477.854)">
      <g id="Grupo_1232493" data-name="Grupo 1232493" transform="translate(6.204 6.146)">
        <path id="Trazado_1220999" data-name="Trazado 1220999" d="M48.1,15.113v51.8a3.761,3.761,0,0,1-3.761,3.761H15.169a3.761,3.761,0,0,1-3.761-3.761v-51.8a3.761,3.761,0,0,1,3.761-3.761H44.335A3.761,3.761,0,0,1,48.1,15.113Z" transform="translate(-10.777 -10.721)" fill="#474747"/>
        <path id="Trazado_1221000" data-name="Trazado 1221000" d="M50.548,15.107v51.8a3.764,3.764,0,0,1-3.761,3.761H17.621a3.768,3.768,0,0,1-3.422-2.2A36.9,36.9,0,0,0,44.926,32.081a36.706,36.706,0,0,0-6.375-20.735h8.236a3.764,3.764,0,0,1,3.761,3.761Z" transform="translate(-13.229 -10.715)" opacity="0.12"/>
        <path id="Trazado_1221001" data-name="Trazado 1221001" d="M75.5,47.529V98.076H47.59V47.529H53.1a2.729,2.729,0,0,1,2.357,1.354,2.729,2.729,0,0,0,2.357,1.354h7.465a2.729,2.729,0,0,0,2.357-1.354,2.729,2.729,0,0,1,2.357-1.354Z" transform="translate(-42.571 -42.511)" fill="#e8f1f8"/>
        <path id="Trazado_1221002" data-name="Trazado 1221002" d="M75.5,47.529V98.076H47.59V85.357A25.34,25.34,0,0,0,69.641,47.529H75.5Z" transform="translate(-42.571 -42.511)" opacity="0.12"/>
        <g id="Grupo_1232487" data-name="Grupo 1232487" transform="translate(7.72 12.511)">
          <path id="Trazado_1221003" data-name="Trazado 1221003" d="M75.476,110.649v2.945a1.334,1.334,0,0,1-1.334,1.334H71.2a1.334,1.334,0,0,1-1.334-1.334v-2.945a1.334,1.334,0,0,1,1.334-1.334h2.945A1.334,1.334,0,0,1,75.476,110.649Z" transform="translate(-69.862 -109.315)" fill="#acbadf"/>
          <path id="Trazado_1221004" data-name="Trazado 1221004" d="M145.143,110.649v2.945a1.334,1.334,0,0,1-1.334,1.334h-2.945a1.334,1.334,0,0,1-1.334-1.334v-2.945a1.334,1.334,0,0,1,1.334-1.334h2.945A1.334,1.334,0,0,1,145.143,110.649Z" transform="translate(-131.081 -109.315)" fill="#acbadf"/>
          <path id="Trazado_1221005" data-name="Trazado 1221005" d="M214.811,110.649v2.945a1.334,1.334,0,0,1-1.334,1.334h-2.945a1.334,1.334,0,0,1-1.334-1.334v-2.945a1.334,1.334,0,0,1,1.334-1.334h2.945A1.334,1.334,0,0,1,214.811,110.649Z" transform="translate(-192.3 -109.315)" fill="#acbadf"/>
        </g>
        <g id="Grupo_1232491" data-name="Grupo 1232491" transform="translate(7.72 20.554)">
          <g id="Grupo_1232488" data-name="Grupo 1232488" transform="translate(0)">
            <path id="Trazado_1221006" data-name="Trazado 1221006" d="M75.476,176.976v2.945a1.334,1.334,0,0,1-1.334,1.334H71.2a1.334,1.334,0,0,1-1.334-1.334v-2.945a1.334,1.334,0,0,1,1.334-1.334h2.945A1.334,1.334,0,0,1,75.476,176.976Z" transform="translate(-69.862 -175.642)" fill="#acbadf"/>
            <path id="Trazado_1221007" data-name="Trazado 1221007" d="M145.143,176.976v2.945a1.334,1.334,0,0,1-1.334,1.334h-2.945a1.334,1.334,0,0,1-1.334-1.334v-2.945a1.334,1.334,0,0,1,1.334-1.334h2.945A1.334,1.334,0,0,1,145.143,176.976Z" transform="translate(-131.081 -175.642)" fill="#acbadf"/>
            <path id="Trazado_1221008" data-name="Trazado 1221008" d="M214.811,176.976v2.945a1.334,1.334,0,0,1-1.334,1.334h-2.945a1.334,1.334,0,0,1-1.334-1.334v-2.945a1.334,1.334,0,0,1,1.334-1.334h2.945A1.334,1.334,0,0,1,214.811,176.976Z" transform="translate(-192.3 -175.642)" fill="#acbadf"/>
          </g>
          <g id="Grupo_1232489" data-name="Grupo 1232489" transform="translate(0 8.043)">
            <path id="Trazado_1221009" data-name="Trazado 1221009" d="M75.476,243.3v2.945a1.334,1.334,0,0,1-1.334,1.334H71.2a1.334,1.334,0,0,1-1.334-1.334V243.3a1.334,1.334,0,0,1,1.334-1.334h2.945A1.334,1.334,0,0,1,75.476,243.3Z" transform="translate(-69.862 -241.969)" fill="#acbadf"/>
            <path id="Trazado_1221010" data-name="Trazado 1221010" d="M145.143,243.3v2.945a1.334,1.334,0,0,1-1.334,1.334h-2.945a1.334,1.334,0,0,1-1.334-1.334V243.3a1.334,1.334,0,0,1,1.334-1.334h2.945A1.334,1.334,0,0,1,145.143,243.3Z" transform="translate(-131.081 -241.969)" fill="#acbadf"/>
            <path id="Trazado_1221011" data-name="Trazado 1221011" d="M214.811,243.3v2.945a1.334,1.334,0,0,1-1.334,1.334h-2.945a1.334,1.334,0,0,1-1.334-1.334V243.3a1.334,1.334,0,0,1,1.334-1.334h2.945A1.334,1.334,0,0,1,214.811,243.3Z" transform="translate(-192.3 -241.969)" fill="#acbadf"/>
          </g>
          <g id="Grupo_1232490" data-name="Grupo 1232490" transform="translate(0 26.654)">
            <path id="Trazado_1221012" data-name="Trazado 1221012" d="M75.476,396.774v2.945a1.334,1.334,0,0,1-1.334,1.334H71.2a1.334,1.334,0,0,1-1.334-1.334v-2.945A1.334,1.334,0,0,1,71.2,395.44h2.945A1.334,1.334,0,0,1,75.476,396.774Z" transform="translate(-69.862 -395.44)" fill="#acbadf"/>
            <path id="Trazado_1221013" data-name="Trazado 1221013" d="M145.143,396.774v2.945a1.334,1.334,0,0,1-1.334,1.334h-2.945a1.334,1.334,0,0,1-1.334-1.334v-2.945a1.334,1.334,0,0,1,1.334-1.334h2.945A1.334,1.334,0,0,1,145.143,396.774Z" transform="translate(-131.081 -395.44)" fill="#acbadf"/>
          </g>
        </g>
        <path id="Trazado_1221014" data-name="Trazado 1221014" d="M247.557,367.121v11.94a2.067,2.067,0,0,0,1.168,1.863,24.086,24.086,0,0,0,20.863,0,2.067,2.067,0,0,0,1.168-1.863v-11.94Z" transform="translate(-218.289 -323.347)" fill="#d1660d"/>
        <path id="Trazado_1221015" data-name="Trazado 1221015" d="M270.751,367.108V379.05a2.068,2.068,0,0,1-1.167,1.861,24.085,24.085,0,0,1-20.865,0,2.068,2.068,0,0,1-1.167-1.861v-3.3a13.467,13.467,0,0,0,21.223-8.638h1.977Z" transform="translate(-218.284 -323.335)" opacity="0.12"/>
        <path id="Trazado_1221016" data-name="Trazado 1221016" d="M222.615,309.718l-15.586,5.41a6.45,6.45,0,0,1-4.231,0l-15.581-5.41a2.062,2.062,0,0,1,0-3.9l15.585-5.411a6.451,6.451,0,0,1,4.232,0l15.58,5.411A2.062,2.062,0,0,1,222.615,309.718Z" transform="translate(-164.049 -264.413)" fill="#f78721"/>
        <path id="Trazado_1221017" data-name="Trazado 1221017" d="M222.607,328.851l-15.588,5.412a6.471,6.471,0,0,1-4.23,0l-15.582-5.409a2.063,2.063,0,0,1,0-3.9l.119-.041a18.052,18.052,0,0,0,26.275-3.087l9.005,3.128A2.06,2.06,0,0,1,222.607,328.851Z" transform="translate(-164.04 -283.547)" opacity="0.12"/>
        <g id="Grupo_1232492" data-name="Grupo 1232492" transform="translate(0 0)">
          <path id="Trazado_1221018" data-name="Trazado 1221018" d="M69.569,104.108H66.623a1.968,1.968,0,0,0-1.965,1.965v2.945a1.968,1.968,0,0,0,1.965,1.965h2.945a1.968,1.968,0,0,0,1.965-1.965v-2.945A1.968,1.968,0,0,0,69.569,104.108Zm.7,4.911a.7.7,0,0,1-.7.7H66.623a.7.7,0,0,1-.7-.7v-2.945a.7.7,0,0,1,.7-.7h2.945a.7.7,0,0,1,.7.7Z" transform="translate(-57.569 -92.228)"/>
          <path id="Trazado_1221019" data-name="Trazado 1221019" d="M136.289,110.985h2.945a1.968,1.968,0,0,0,1.965-1.965v-2.945a1.968,1.968,0,0,0-1.965-1.965h-2.945a1.968,1.968,0,0,0-1.965,1.965v2.945A1.968,1.968,0,0,0,136.289,110.985Zm-.7-4.911a.7.7,0,0,1,.7-.7h2.945a.7.7,0,0,1,.7.7v2.945a.7.7,0,0,1-.7.7h-2.945a.7.7,0,0,1-.7-.7Z" transform="translate(-118.787 -92.229)"/>
          <path id="Trazado_1221020" data-name="Trazado 1221020" d="M205.96,110.985H208.9a1.968,1.968,0,0,0,1.965-1.965v-2.945a1.968,1.968,0,0,0-1.965-1.965H205.96a1.968,1.968,0,0,0-1.965,1.965v2.945A1.968,1.968,0,0,0,205.96,110.985Zm-.7-4.911a.7.7,0,0,1,.7-.7H208.9a.7.7,0,0,1,.7.7v2.945a.7.7,0,0,1-.7.7H205.96a.7.7,0,0,1-.7-.7Z" transform="translate(-180.009 -92.229)"/>
          <path id="Trazado_1221021" data-name="Trazado 1221021" d="M69.569,170.44H66.623a1.968,1.968,0,0,0-1.965,1.965v2.945a1.968,1.968,0,0,0,1.965,1.965h2.945a1.968,1.968,0,0,0,1.965-1.965v-2.945A1.968,1.968,0,0,0,69.569,170.44Zm.7,4.91a.7.7,0,0,1-.7.7H66.623a.7.7,0,0,1-.7-.7v-2.945a.7.7,0,0,1,.7-.7h2.945a.7.7,0,0,1,.7.7Z" transform="translate(-57.569 -150.516)"/>
          <path id="Trazado_1221022" data-name="Trazado 1221022" d="M136.289,177.315h2.945a1.968,1.968,0,0,0,1.965-1.965v-2.945a1.968,1.968,0,0,0-1.965-1.965h-2.945a1.968,1.968,0,0,0-1.965,1.965v2.945A1.968,1.968,0,0,0,136.289,177.315Zm-.7-4.91a.7.7,0,0,1,.7-.7h2.945a.7.7,0,0,1,.7.7v2.945a.7.7,0,0,1-.7.7h-2.945a.7.7,0,0,1-.7-.7Z" transform="translate(-118.787 -150.516)"/>
          <path id="Trazado_1221023" data-name="Trazado 1221023" d="M205.96,177.315H208.9a1.968,1.968,0,0,0,1.965-1.965v-2.945a1.968,1.968,0,0,0-1.965-1.965H205.96a1.968,1.968,0,0,0-1.965,1.965v2.945A1.968,1.968,0,0,0,205.96,177.315Zm-.7-4.91a.7.7,0,0,1,.7-.7H208.9a.7.7,0,0,1,.7.7v2.945a.7.7,0,0,1-.7.7H205.96a.7.7,0,0,1-.7-.7Z" transform="translate(-180.009 -150.516)"/>
          <path id="Trazado_1221024" data-name="Trazado 1221024" d="M69.569,236.767H66.623a1.968,1.968,0,0,0-1.965,1.965v2.945a1.968,1.968,0,0,0,1.965,1.966h2.945a1.968,1.968,0,0,0,1.965-1.966v-2.945A1.968,1.968,0,0,0,69.569,236.767Zm.7,4.91a.7.7,0,0,1-.7.7H66.623a.7.7,0,0,1-.7-.7v-2.945a.7.7,0,0,1,.7-.7h2.945a.7.7,0,0,1,.7.7Z" transform="translate(-57.569 -208.8)"/>
          <path id="Trazado_1221025" data-name="Trazado 1221025" d="M141.2,238.732a1.968,1.968,0,0,0-1.965-1.965h-2.945a1.968,1.968,0,0,0-1.965,1.965v2.945a1.968,1.968,0,0,0,1.965,1.966h2.945a1.968,1.968,0,0,0,1.965-1.966Zm-1.262,2.945a.7.7,0,0,1-.7.7h-2.945a.7.7,0,0,1-.7-.7v-2.945a.7.7,0,0,1,.7-.7h2.945a.7.7,0,0,1,.7.7Z" transform="translate(-118.787 -208.8)"/>
          <path id="Trazado_1221026" data-name="Trazado 1221026" d="M205.96,243.643H208.9a1.968,1.968,0,0,0,1.965-1.966v-2.945a1.968,1.968,0,0,0-1.965-1.965H205.96a1.968,1.968,0,0,0-1.965,1.965v2.945A1.968,1.968,0,0,0,205.96,243.643Zm-.7-4.911a.7.7,0,0,1,.7-.7H208.9a.7.7,0,0,1,.7.7v2.945a.7.7,0,0,1-.7.7H205.96a.7.7,0,0,1-.7-.7Z" transform="translate(-180.009 -208.8)"/>
          <path id="Trazado_1221027" data-name="Trazado 1221027" d="M69.569,390.236H66.623a1.968,1.968,0,0,0-1.965,1.965v2.945a1.968,1.968,0,0,0,1.965,1.965h2.945a1.968,1.968,0,0,0,1.965-1.965V392.2A1.968,1.968,0,0,0,69.569,390.236Zm.7,4.911a.7.7,0,0,1-.7.7H66.623a.7.7,0,0,1-.7-.7V392.2a.7.7,0,0,1,.7-.7h2.945a.7.7,0,0,1,.7.7Z" transform="translate(-57.569 -343.658)"/>
          <path id="Trazado_1221028" data-name="Trazado 1221028" d="M136.289,390.236a1.968,1.968,0,0,0-1.965,1.965v2.945a1.968,1.968,0,0,0,1.965,1.965h2.945a1.968,1.968,0,0,0,1.965-1.965V392.2a1.968,1.968,0,0,0-1.965-1.965Zm3.648,1.965v2.945a.7.7,0,0,1-.7.7h-2.945a.7.7,0,0,1-.7-.7V392.2a.7.7,0,0,1,.7-.7h2.945A.7.7,0,0,1,139.938,392.2Z" transform="translate(-118.787 -343.658)"/>
          <path id="Trazado_1221029" data-name="Trazado 1221029" d="M66.786,49.493a2.66,2.66,0,0,0-1.809-2.534L49.4,41.548a7.113,7.113,0,0,0-4.646,0l-.6.207V10.538a4.4,4.4,0,0,0-4.392-4.392H10.6A4.4,4.4,0,0,0,6.2,10.538v51.8A4.4,4.4,0,0,0,10.6,66.729H39.762a4.355,4.355,0,0,0,2.111-.549,24.475,24.475,0,0,0,15.9-1.889A2.709,2.709,0,0,0,59.3,61.86V54.018l5.675-1.97a2.744,2.744,0,0,0,.549-.27v6.231a.631.631,0,0,0,1.262,0V49.5s0-.006,0-.01ZM10.6,65.467a3.133,3.133,0,0,1-3.13-3.13v-51.8a3.133,3.133,0,0,1,3.13-3.13H39.762a3.133,3.133,0,0,1,3.13,3.13V42.194l-3.125,1.085V11.164a.631.631,0,0,0-.631-.631h-5.51a3.37,3.37,0,0,0-2.9,1.667,2.106,2.106,0,0,1-1.812,1.041H21.447A2.105,2.105,0,0,1,19.634,12.2a3.371,3.371,0,0,0-2.9-1.667h-5.51a.631.631,0,0,0-.631.631V61.711a.631.631,0,0,0,.631.631H34.891a2.707,2.707,0,0,0,1.476,1.949,25.032,25.032,0,0,0,2.917,1.176Zm18.57-13.42,5.675,1.971V61.08H11.854V11.8h4.879a2.1,2.1,0,0,1,1.812,1.041,3.372,3.372,0,0,0,2.9,1.667h7.465a3.373,3.373,0,0,0,2.9-1.667A2.1,2.1,0,0,1,33.625,11.8H38.5V43.717L29.166,46.96a2.693,2.693,0,0,0,0,5.087ZM58.039,61.86a1.44,1.44,0,0,1-.81,1.294,23.327,23.327,0,0,1-20.316,0,1.44,1.44,0,0,1-.81-1.294v-7.4l8.643,3a7.114,7.114,0,0,0,4.645,0l8.648-3Zm6.523-11-15.586,5.41a5.857,5.857,0,0,1-3.817,0L29.58,50.856a1.431,1.431,0,0,1,0-2.7L45.165,42.74a5.846,5.846,0,0,1,3.818,0l15.581,5.411a1.373,1.373,0,0,1,.817.72H47.071a.631.631,0,1,0,0,1.262h18.31A1.373,1.373,0,0,1,64.563,50.856Z" transform="translate(-6.204 -6.146)"/>
        </g>
      </g>
    </g>
  </g>
</svg>
